# Blender 5.1.2
# www.blender.org
o Cylinder
v 0.000000 1.000000 0.000000
v 0.000000 0.000000 0.000000
v 0.195090 0.980785 0.000000
v 0.000000 0.000000 0.000000
v 0.382683 0.923880 0.000000
v 0.000000 0.000000 0.000000
v 0.555570 0.831470 0.000000
v 0.000000 0.000000 0.000000
v 0.707107 0.707107 0.000000
v 0.000000 0.000000 0.000000
v 0.831470 0.555570 0.000000
v 0.000000 0.000000 0.000000
v 0.923880 0.382683 0.000000
v 0.000000 0.000000 0.000000
v 0.980785 0.195090 0.000000
v 0.000000 0.000000 0.000000
v 1.000000 0.000000 0.000000
v 0.000000 0.000000 0.000000
v 0.980785 -0.195090 -0.000000
v 0.000000 0.000000 0.000000
v 0.923880 -0.382683 -0.000000
v 0.000000 0.000000 0.000000
v 0.831470 -0.555570 -0.000000
v 0.000000 0.000000 0.000000
v 0.707107 -0.707107 -0.000000
v 0.000000 0.000000 0.000000
v 0.555570 -0.831470 -0.000000
v 0.000000 0.000000 0.000000
v 0.382683 -0.923880 -0.000000
v 0.000000 0.000000 0.000000
v 0.195090 -0.980785 -0.000000
v 0.000000 0.000000 0.000000
v 0.000000 -1.000000 -0.000000
v 0.000000 0.000000 0.000000
v -0.195090 -0.980785 -0.000000
v 0.000000 0.000000 0.000000
v -0.382683 -0.923880 -0.000000
v 0.000000 0.000000 0.000000
v -0.555570 -0.831470 -0.000000
v 0.000000 0.000000 0.000000
v -0.707107 -0.707107 -0.000000
v 0.000000 0.000000 0.000000
v -0.831470 -0.555570 -0.000000
v 0.000000 0.000000 0.000000
v -0.923880 -0.382683 -0.000000
v 0.000000 0.000000 0.000000
v -0.980785 -0.195090 -0.000000
v 0.000000 0.000000 0.000000
v -1.000000 0.000000 0.000000
v 0.000000 0.000000 0.000000
v -0.980785 0.195090 0.000000
v 0.000000 0.000000 0.000000
v -0.923880 0.382683 0.000000
v 0.000000 0.000000 0.000000
v -0.831470 0.555570 0.000000
v 0.000000 0.000000 0.000000
v -0.707107 0.707107 0.000000
v 0.000000 0.000000 0.000000
v -0.555570 0.831470 0.000000
v 0.000000 0.000000 0.000000
v -0.382683 0.923880 0.000000
v 0.000000 0.000000 0.000000
v -0.195090 0.980785 0.000000
v 0.000000 0.000000 0.000000
v 0.000000 0.800000 0.000000
v 0.000000 0.600000 0.000000
v 0.000000 0.400000 0.000000
v 0.000000 0.200000 0.000000
v 0.039018 0.196157 0.000000
v 0.078036 0.392314 0.000000
v 0.117054 0.588471 0.000000
v 0.156072 0.784628 0.000000
v 0.076537 0.184776 0.000000
v 0.153073 0.369552 0.000000
v 0.229610 0.554328 0.000000
v 0.306147 0.739104 0.000000
v 0.111114 0.166294 0.000000
v 0.222228 0.332588 0.000000
v 0.333342 0.498882 0.000000
v 0.444456 0.665176 0.000000
v 0.141421 0.141421 0.000000
v 0.282843 0.282843 0.000000
v 0.424264 0.424264 0.000000
v 0.565685 0.565685 0.000000
v 0.166294 0.111114 0.000000
v 0.332588 0.222228 0.000000
v 0.498882 0.333342 0.000000
v 0.665176 0.444456 0.000000
v 0.184776 0.076537 0.000000
v 0.369552 0.153073 0.000000
v 0.554328 0.229610 0.000000
v 0.739104 0.306147 0.000000
v 0.196157 0.039018 0.000000
v 0.392314 0.078036 0.000000
v 0.588471 0.117054 0.000000
v 0.784628 0.156072 0.000000
v 0.200000 0.000000 0.000000
v 0.400000 0.000000 0.000000
v 0.600000 0.000000 0.000000
v 0.800000 0.000000 0.000000
v 0.196157 -0.039018 -0.000000
v 0.392314 -0.078036 -0.000000
v 0.588471 -0.117054 -0.000000
v 0.784628 -0.156072 -0.000000
v 0.184776 -0.076537 -0.000000
v 0.369552 -0.153073 -0.000000
v 0.554328 -0.229610 -0.000000
v 0.739104 -0.306147 -0.000000
v 0.166294 -0.111114 -0.000000
v 0.332588 -0.222228 -0.000000
v 0.498882 -0.333342 -0.000000
v 0.665176 -0.444456 -0.000000
v 0.141421 -0.141421 -0.000000
v 0.282843 -0.282843 -0.000000
v 0.424264 -0.424264 -0.000000
v 0.565685 -0.565685 -0.000000
v 0.111114 -0.166294 -0.000000
v 0.222228 -0.332588 -0.000000
v 0.333342 -0.498882 -0.000000
v 0.444456 -0.665176 -0.000000
v 0.076537 -0.184776 -0.000000
v 0.153073 -0.369552 -0.000000
v 0.229610 -0.554328 -0.000000
v 0.306147 -0.739104 -0.000000
v 0.039018 -0.196157 -0.000000
v 0.078036 -0.392314 -0.000000
v 0.117054 -0.588471 -0.000000
v 0.156072 -0.784628 -0.000000
v 0.000000 -0.200000 -0.000000
v 0.000000 -0.400000 -0.000000
v 0.000000 -0.600000 -0.000000
v 0.000000 -0.800000 -0.000000
v -0.039018 -0.196157 -0.000000
v -0.078036 -0.392314 -0.000000
v -0.117054 -0.588471 -0.000000
v -0.156072 -0.784628 -0.000000
v -0.076537 -0.184776 -0.000000
v -0.153073 -0.369552 -0.000000
v -0.229610 -0.554328 -0.000000
v -0.306147 -0.739104 -0.000000
v -0.111114 -0.166294 -0.000000
v -0.222228 -0.332588 -0.000000
v -0.333342 -0.498882 -0.000000
v -0.444456 -0.665176 -0.000000
v -0.141421 -0.141421 -0.000000
v -0.282843 -0.282843 -0.000000
v -0.424264 -0.424264 -0.000000
v -0.565685 -0.565685 -0.000000
v -0.166294 -0.111114 -0.000000
v -0.332588 -0.222228 -0.000000
v -0.498882 -0.333342 -0.000000
v -0.665176 -0.444456 -0.000000
v -0.184776 -0.076537 -0.000000
v -0.369552 -0.153073 -0.000000
v -0.554328 -0.229610 -0.000000
v -0.739104 -0.306147 -0.000000
v -0.196157 -0.039018 -0.000000
v -0.392314 -0.078036 -0.000000
v -0.588471 -0.117054 -0.000000
v -0.784628 -0.156072 -0.000000
v -0.200000 0.000000 0.000000
v -0.400000 0.000000 0.000000
v -0.600000 0.000000 0.000000
v -0.800000 0.000000 0.000000
v -0.196157 0.039018 0.000000
v -0.392314 0.078036 0.000000
v -0.588471 0.117054 0.000000
v -0.784628 0.156072 0.000000
v -0.184776 0.076537 0.000000
v -0.369552 0.153073 0.000000
v -0.554328 0.229610 0.000000
v -0.739104 0.306147 0.000000
v -0.166294 0.111114 0.000000
v -0.332588 0.222228 0.000000
v -0.498882 0.333342 0.000000
v -0.665176 0.444456 0.000000
v -0.141421 0.141421 0.000000
v -0.282843 0.282843 0.000000
v -0.424264 0.424264 0.000000
v -0.565685 0.565685 0.000000
v -0.111114 0.166294 0.000000
v -0.222228 0.332588 0.000000
v -0.333342 0.498882 0.000000
v -0.444456 0.665176 0.000000
v -0.076537 0.184776 0.000000
v -0.153073 0.369552 0.000000
v -0.229610 0.554328 0.000000
v -0.306147 0.739104 0.000000
v -0.039018 0.196157 0.000000
v -0.078036 0.392314 0.000000
v -0.117054 0.588471 0.000000
v -0.156072 0.784628 0.000000
vn -0.0000 -0.0000 1.0000
vt 1.000000 0.800000
vt 1.000000 1.000000
vt 0.968750 1.000000
vt 0.968750 0.800000
vt 0.937500 1.000000
vt 0.937500 0.800000
vt 0.906250 1.000000
vt 0.906250 0.800000
vt 0.875000 1.000000
vt 0.875000 0.800000
vt 0.843750 1.000000
vt 0.843750 0.800000
vt 0.812500 1.000000
vt 0.812500 0.800000
vt 0.781250 1.000000
vt 0.781250 0.800000
vt 0.750000 1.000000
vt 0.750000 0.800000
vt 0.718750 1.000000
vt 0.718750 0.800000
vt 0.687500 1.000000
vt 0.687500 0.800000
vt 0.656250 1.000000
vt 0.656250 0.800000
vt 0.625000 1.000000
vt 0.625000 0.800000
vt 0.593750 1.000000
vt 0.593750 0.800000
vt 0.562500 1.000000
vt 0.562500 0.800000
vt 0.531250 1.000000
vt 0.531250 0.800000
vt 0.500000 1.000000
vt 0.500000 0.800000
vt 0.468750 1.000000
vt 0.468750 0.800000
vt 0.437500 1.000000
vt 0.437500 0.800000
vt 0.406250 1.000000
vt 0.406250 0.800000
vt 0.375000 1.000000
vt 0.375000 0.800000
vt 0.343750 1.000000
vt 0.343750 0.800000
vt 0.312500 1.000000
vt 0.312500 0.800000
vt 0.281250 1.000000
vt 0.281250 0.800000
vt 0.250000 1.000000
vt 0.250000 0.800000
vt 0.218750 1.000000
vt 0.218750 0.800000
vt 0.187500 1.000000
vt 0.187500 0.800000
vt 0.156250 1.000000
vt 0.156250 0.800000
vt 0.125000 1.000000
vt 0.125000 0.800000
vt 0.093750 1.000000
vt 0.093750 0.800000
vt 0.062500 1.000000
vt 0.062500 0.800000
vt 0.031250 1.000000
vt 0.031250 0.800000
vt 0.000000 1.000000
vt 0.000000 0.800000
vt 0.031250 0.000000
vt 0.031250 0.200000
vt 0.000000 0.200000
vt 0.000000 0.000000
vt 0.031250 0.400000
vt 0.000000 0.400000
vt 0.031250 0.600000
vt 0.000000 0.600000
vt 0.062500 0.000000
vt 0.062500 0.200000
vt 0.062500 0.400000
vt 0.062500 0.600000
vt 0.093750 0.000000
vt 0.093750 0.200000
vt 0.093750 0.400000
vt 0.093750 0.600000
vt 0.125000 0.000000
vt 0.125000 0.200000
vt 0.125000 0.400000
vt 0.125000 0.600000
vt 0.156250 0.000000
vt 0.156250 0.200000
vt 0.156250 0.400000
vt 0.156250 0.600000
vt 0.187500 0.000000
vt 0.187500 0.200000
vt 0.187500 0.400000
vt 0.187500 0.600000
vt 0.218750 0.000000
vt 0.218750 0.200000
vt 0.218750 0.400000
vt 0.218750 0.600000
vt 0.250000 0.000000
vt 0.250000 0.200000
vt 0.250000 0.400000
vt 0.250000 0.600000
vt 0.281250 0.000000
vt 0.281250 0.200000
vt 0.281250 0.400000
vt 0.281250 0.600000
vt 0.312500 0.000000
vt 0.312500 0.200000
vt 0.312500 0.400000
vt 0.312500 0.600000
vt 0.343750 0.000000
vt 0.343750 0.200000
vt 0.343750 0.400000
vt 0.343750 0.600000
vt 0.375000 0.000000
vt 0.375000 0.200000
vt 0.375000 0.400000
vt 0.375000 0.600000
vt 0.406250 0.000000
vt 0.406250 0.200000
vt 0.406250 0.400000
vt 0.406250 0.600000
vt 0.437500 0.000000
vt 0.437500 0.200000
vt 0.437500 0.400000
vt 0.437500 0.600000
vt 0.468750 0.000000
vt 0.468750 0.200000
vt 0.468750 0.400000
vt 0.468750 0.600000
vt 0.500000 0.000000
vt 0.500000 0.200000
vt 0.500000 0.400000
vt 0.500000 0.600000
vt 0.531250 0.000000
vt 0.531250 0.200000
vt 0.531250 0.400000
vt 0.531250 0.600000
vt 0.562500 0.000000
vt 0.562500 0.200000
vt 0.562500 0.400000
vt 0.562500 0.600000
vt 0.593750 0.000000
vt 0.593750 0.200000
vt 0.593750 0.400000
vt 0.593750 0.600000
vt 0.625000 0.000000
vt 0.625000 0.200000
vt 0.625000 0.400000
vt 0.625000 0.600000
vt 0.656250 0.000000
vt 0.656250 0.200000
vt 0.656250 0.400000
vt 0.656250 0.600000
vt 0.687500 0.000000
vt 0.687500 0.200000
vt 0.687500 0.400000
vt 0.687500 0.600000
vt 0.718750 0.000000
vt 0.718750 0.200000
vt 0.718750 0.400000
vt 0.718750 0.600000
vt 0.750000 0.000000
vt 0.750000 0.200000
vt 0.750000 0.400000
vt 0.750000 0.600000
vt 0.781250 0.000000
vt 0.781250 0.200000
vt 0.781250 0.400000
vt 0.781250 0.600000
vt 0.812500 0.000000
vt 0.812500 0.200000
vt 0.812500 0.400000
vt 0.812500 0.600000
vt 0.843750 0.000000
vt 0.843750 0.200000
vt 0.843750 0.400000
vt 0.843750 0.600000
vt 0.875000 0.000000
vt 0.875000 0.200000
vt 0.875000 0.400000
vt 0.875000 0.600000
vt 0.906250 0.000000
vt 0.906250 0.200000
vt 0.906250 0.400000
vt 0.906250 0.600000
vt 0.937500 0.000000
vt 0.937500 0.200000
vt 0.937500 0.400000
vt 0.937500 0.600000
vt 0.968750 0.000000
vt 0.968750 0.200000
vt 0.968750 0.400000
vt 0.968750 0.600000
vt 1.000000 0.000000
vt 1.000000 0.200000
vt 1.000000 0.400000
vt 1.000000 0.600000
s 1
f 68/1/1 2/2/1 4/3/1 69/4/1
f 69/4/1 4/3/1 6/5/1 73/6/1
f 73/6/1 6/5/1 8/7/1 77/8/1
f 77/8/1 8/7/1 10/9/1 81/10/1
f 81/10/1 10/9/1 12/11/1 85/12/1
f 85/12/1 12/11/1 14/13/1 89/14/1
f 89/14/1 14/13/1 16/15/1 93/16/1
f 93/16/1 16/15/1 18/17/1 97/18/1
f 97/18/1 18/17/1 20/19/1 101/20/1
f 101/20/1 20/19/1 22/21/1 105/22/1
f 105/22/1 22/21/1 24/23/1 109/24/1
f 109/24/1 24/23/1 26/25/1 113/26/1
f 113/26/1 26/25/1 28/27/1 117/28/1
f 117/28/1 28/27/1 30/29/1 121/30/1
f 121/30/1 30/29/1 32/31/1 125/32/1
f 125/32/1 32/31/1 34/33/1 129/34/1
f 129/34/1 34/33/1 36/35/1 133/36/1
f 133/36/1 36/35/1 38/37/1 137/38/1
f 137/38/1 38/37/1 40/39/1 141/40/1
f 141/40/1 40/39/1 42/41/1 145/42/1
f 145/42/1 42/41/1 44/43/1 149/44/1
f 149/44/1 44/43/1 46/45/1 153/46/1
f 153/46/1 46/45/1 48/47/1 157/48/1
f 157/48/1 48/47/1 50/49/1 161/50/1
f 161/50/1 50/49/1 52/51/1 165/52/1
f 165/52/1 52/51/1 54/53/1 169/54/1
f 169/54/1 54/53/1 56/55/1 173/56/1
f 173/56/1 56/55/1 58/57/1 177/58/1
f 177/58/1 58/57/1 60/59/1 181/60/1
f 181/60/1 60/59/1 62/61/1 185/62/1
f 185/62/1 62/61/1 64/63/1 189/64/1
f 189/64/1 64/63/1 2/65/1 68/66/1
f 63/67/1 192/68/1 65/69/1 1/70/1
f 192/68/1 191/71/1 66/72/1 65/69/1
f 191/71/1 190/73/1 67/74/1 66/72/1
f 190/73/1 189/64/1 68/66/1 67/74/1
f 61/75/1 188/76/1 192/68/1 63/67/1
f 188/76/1 187/77/1 191/71/1 192/68/1
f 187/77/1 186/78/1 190/73/1 191/71/1
f 186/78/1 185/62/1 189/64/1 190/73/1
f 59/79/1 184/80/1 188/76/1 61/75/1
f 184/80/1 183/81/1 187/77/1 188/76/1
f 183/81/1 182/82/1 186/78/1 187/77/1
f 182/82/1 181/60/1 185/62/1 186/78/1
f 57/83/1 180/84/1 184/80/1 59/79/1
f 180/84/1 179/85/1 183/81/1 184/80/1
f 179/85/1 178/86/1 182/82/1 183/81/1
f 178/86/1 177/58/1 181/60/1 182/82/1
f 55/87/1 176/88/1 180/84/1 57/83/1
f 176/88/1 175/89/1 179/85/1 180/84/1
f 175/89/1 174/90/1 178/86/1 179/85/1
f 174/90/1 173/56/1 177/58/1 178/86/1
f 53/91/1 172/92/1 176/88/1 55/87/1
f 172/92/1 171/93/1 175/89/1 176/88/1
f 171/93/1 170/94/1 174/90/1 175/89/1
f 170/94/1 169/54/1 173/56/1 174/90/1
f 51/95/1 168/96/1 172/92/1 53/91/1
f 168/96/1 167/97/1 171/93/1 172/92/1
f 167/97/1 166/98/1 170/94/1 171/93/1
f 166/98/1 165/52/1 169/54/1 170/94/1
f 49/99/1 164/100/1 168/96/1 51/95/1
f 164/100/1 163/101/1 167/97/1 168/96/1
f 163/101/1 162/102/1 166/98/1 167/97/1
f 162/102/1 161/50/1 165/52/1 166/98/1
f 47/103/1 160/104/1 164/100/1 49/99/1
f 160/104/1 159/105/1 163/101/1 164/100/1
f 159/105/1 158/106/1 162/102/1 163/101/1
f 158/106/1 157/48/1 161/50/1 162/102/1
f 45/107/1 156/108/1 160/104/1 47/103/1
f 156/108/1 155/109/1 159/105/1 160/104/1
f 155/109/1 154/110/1 158/106/1 159/105/1
f 154/110/1 153/46/1 157/48/1 158/106/1
f 43/111/1 152/112/1 156/108/1 45/107/1
f 152/112/1 151/113/1 155/109/1 156/108/1
f 151/113/1 150/114/1 154/110/1 155/109/1
f 150/114/1 149/44/1 153/46/1 154/110/1
f 41/115/1 148/116/1 152/112/1 43/111/1
f 148/116/1 147/117/1 151/113/1 152/112/1
f 147/117/1 146/118/1 150/114/1 151/113/1
f 146/118/1 145/42/1 149/44/1 150/114/1
f 39/119/1 144/120/1 148/116/1 41/115/1
f 144/120/1 143/121/1 147/117/1 148/116/1
f 143/121/1 142/122/1 146/118/1 147/117/1
f 142/122/1 141/40/1 145/42/1 146/118/1
f 37/123/1 140/124/1 144/120/1 39/119/1
f 140/124/1 139/125/1 143/121/1 144/120/1
f 139/125/1 138/126/1 142/122/1 143/121/1
f 138/126/1 137/38/1 141/40/1 142/122/1
f 35/127/1 136/128/1 140/124/1 37/123/1
f 136/128/1 135/129/1 139/125/1 140/124/1
f 135/129/1 134/130/1 138/126/1 139/125/1
f 134/130/1 133/36/1 137/38/1 138/126/1
f 33/131/1 132/132/1 136/128/1 35/127/1
f 132/132/1 131/133/1 135/129/1 136/128/1
f 131/133/1 130/134/1 134/130/1 135/129/1
f 130/134/1 129/34/1 133/36/1 134/130/1
f 31/135/1 128/136/1 132/132/1 33/131/1
f 128/136/1 127/137/1 131/133/1 132/132/1
f 127/137/1 126/138/1 130/134/1 131/133/1
f 126/138/1 125/32/1 129/34/1 130/134/1
f 29/139/1 124/140/1 128/136/1 31/135/1
f 124/140/1 123/141/1 127/137/1 128/136/1
f 123/141/1 122/142/1 126/138/1 127/137/1
f 122/142/1 121/30/1 125/32/1 126/138/1
f 27/143/1 120/144/1 124/140/1 29/139/1
f 120/144/1 119/145/1 123/141/1 124/140/1
f 119/145/1 118/146/1 122/142/1 123/141/1
f 118/146/1 117/28/1 121/30/1 122/142/1
f 25/147/1 116/148/1 120/144/1 27/143/1
f 116/148/1 115/149/1 119/145/1 120/144/1
f 115/149/1 114/150/1 118/146/1 119/145/1
f 114/150/1 113/26/1 117/28/1 118/146/1
f 23/151/1 112/152/1 116/148/1 25/147/1
f 112/152/1 111/153/1 115/149/1 116/148/1
f 111/153/1 110/154/1 114/150/1 115/149/1
f 110/154/1 109/24/1 113/26/1 114/150/1
f 21/155/1 108/156/1 112/152/1 23/151/1
f 108/156/1 107/157/1 111/153/1 112/152/1
f 107/157/1 106/158/1 110/154/1 111/153/1
f 106/158/1 105/22/1 109/24/1 110/154/1
f 19/159/1 104/160/1 108/156/1 21/155/1
f 104/160/1 103/161/1 107/157/1 108/156/1
f 103/161/1 102/162/1 106/158/1 107/157/1
f 102/162/1 101/20/1 105/22/1 106/158/1
f 17/163/1 100/164/1 104/160/1 19/159/1
f 100/164/1 99/165/1 103/161/1 104/160/1
f 99/165/1 98/166/1 102/162/1 103/161/1
f 98/166/1 97/18/1 101/20/1 102/162/1
f 15/167/1 96/168/1 100/164/1 17/163/1
f 96/168/1 95/169/1 99/165/1 100/164/1
f 95/169/1 94/170/1 98/166/1 99/165/1
f 94/170/1 93/16/1 97/18/1 98/166/1
f 13/171/1 92/172/1 96/168/1 15/167/1
f 92/172/1 91/173/1 95/169/1 96/168/1
f 91/173/1 90/174/1 94/170/1 95/169/1
f 90/174/1 89/14/1 93/16/1 94/170/1
f 11/175/1 88/176/1 92/172/1 13/171/1
f 88/176/1 87/177/1 91/173/1 92/172/1
f 87/177/1 86/178/1 90/174/1 91/173/1
f 86/178/1 85/12/1 89/14/1 90/174/1
f 9/179/1 84/180/1 88/176/1 11/175/1
f 84/180/1 83/181/1 87/177/1 88/176/1
f 83/181/1 82/182/1 86/178/1 87/177/1
f 82/182/1 81/10/1 85/12/1 86/178/1
f 7/183/1 80/184/1 84/180/1 9/179/1
f 80/184/1 79/185/1 83/181/1 84/180/1
f 79/185/1 78/186/1 82/182/1 83/181/1
f 78/186/1 77/8/1 81/10/1 82/182/1
f 5/187/1 76/188/1 80/184/1 7/183/1
f 76/188/1 75/189/1 79/185/1 80/184/1
f 75/189/1 74/190/1 78/186/1 79/185/1
f 74/190/1 73/6/1 77/8/1 78/186/1
f 3/191/1 72/192/1 76/188/1 5/187/1
f 72/192/1 71/193/1 75/189/1 76/188/1
f 71/193/1 70/194/1 74/190/1 75/189/1
f 70/194/1 69/4/1 73/6/1 74/190/1
f 1/195/1 65/196/1 72/192/1 3/191/1
f 65/196/1 66/197/1 71/193/1 72/192/1
f 66/197/1 67/198/1 70/194/1 71/193/1
f 67/198/1 68/1/1 69/4/1 70/194/1
