# Blender 4.5.1 LTS
# www.blender.org
o Cylinder.002
v 0.000000 -0.000000 -0.754108
v 0.000000 0.850479 -1.495439
v 0.195178 -0.000000 -0.728413
v 0.387048 0.850479 -1.444483
v 0.377054 -0.000000 -0.653077
v 0.747719 0.850479 -1.295088
v 0.533235 -0.000000 -0.533235
v 1.057435 0.850479 -1.057435
v 0.653077 -0.000000 -0.377054
v 1.295088 0.850479 -0.747719
v 0.728413 -0.000000 -0.195178
v 1.444483 0.850479 -0.387048
v 0.754108 0.000000 0.000000
v 1.495439 0.850479 -0.000000
v 0.728413 0.000000 0.195178
v 1.444483 0.850479 0.387048
v 0.653077 0.000000 0.377054
v 1.295088 0.850479 0.747719
v 0.533235 0.000000 0.533235
v 1.057435 0.850479 1.057435
v 0.377054 0.000000 0.653077
v 0.747719 0.850479 1.295088
v 0.195178 0.000000 0.728413
v 0.387048 0.850479 1.444483
v 0.000000 0.000000 0.754108
v 0.000000 0.850479 1.495439
v -0.195178 0.000000 0.728413
v -0.387048 0.850479 1.444483
v -0.377054 0.000000 0.653077
v -0.747719 0.850479 1.295088
v -0.533235 0.000000 0.533235
v -1.057435 0.850479 1.057435
v -0.653077 0.000000 0.377054
v -1.295088 0.850479 0.747719
v -0.728413 0.000000 0.195178
v -1.444483 0.850479 0.387048
v -0.754108 0.000000 0.000000
v -1.495439 0.850479 -0.000000
v -0.728413 -0.000000 -0.195178
v -1.444483 0.850479 -0.387048
v -0.653077 -0.000000 -0.377054
v -1.295088 0.850479 -0.747719
v -0.533235 -0.000000 -0.533235
v -1.057435 0.850479 -1.057435
v -0.377054 -0.000000 -0.653077
v -0.747719 0.850479 -1.295088
v -0.195178 -0.000000 -0.728413
v -0.387048 0.850479 -1.444483
v 0.000000 0.283493 -1.001219
v 0.000000 0.566986 -1.248329
v 0.323091 0.566986 -1.205793
v 0.259134 0.283493 -0.967103
v 0.624164 0.566986 -1.081084
v 0.500609 0.283493 -0.867081
v 0.882702 0.566986 -0.882702
v 0.707968 0.283493 -0.707968
v 1.081084 0.566986 -0.624164
v 0.867081 0.283493 -0.500609
v 1.205793 0.566986 -0.323091
v 0.967103 0.283493 -0.259134
v 1.248329 0.566986 -0.000000
v 1.001219 0.283493 -0.000000
v 1.205793 0.566986 0.323091
v 0.967103 0.283493 0.259134
v 1.081084 0.566986 0.624164
v 0.867081 0.283493 0.500609
v 0.882702 0.566986 0.882702
v 0.707968 0.283493 0.707968
v 0.624164 0.566986 1.081084
v 0.500609 0.283493 0.867081
v 0.323091 0.566986 1.205793
v 0.259134 0.283493 0.967103
v 0.000000 0.566986 1.248329
v 0.000000 0.283493 1.001219
v -0.323091 0.566986 1.205793
v -0.259134 0.283493 0.967103
v -0.624164 0.566986 1.081084
v -0.500609 0.283493 0.867081
v -0.882702 0.566986 0.882702
v -0.707968 0.283493 0.707968
v -1.081084 0.566986 0.624164
v -0.867081 0.283493 0.500609
v -1.205793 0.566986 0.323091
v -0.967103 0.283493 0.259134
v -1.248329 0.566986 -0.000000
v -1.001219 0.283493 -0.000000
v -1.205793 0.566986 -0.323091
v -0.967103 0.283493 -0.259134
v -1.081084 0.566986 -0.624164
v -0.867081 0.283493 -0.500609
v -0.882702 0.566986 -0.882702
v -0.707968 0.283493 -0.707968
v -0.624164 0.566986 -1.081084
v -0.500609 0.283493 -0.867081
v -0.323091 0.566986 -1.205793
v -0.259134 0.283493 -0.967103
v -0.301772 0.472488 -1.126230
v -0.280453 0.377991 -1.046666
v 0.000000 0.377991 -1.083589
v 0.000000 0.472488 -1.165959
v -0.582979 0.472488 -1.009750
v -0.541794 0.377991 -0.938415
v -0.824457 0.472488 -0.824457
v -0.766213 0.377991 -0.766213
v -1.009750 0.472488 -0.582979
v -0.938415 0.377991 -0.541794
v -1.126230 0.472488 -0.301772
v -1.046666 0.377991 -0.280453
v -1.165959 0.472488 -0.000000
v -1.083589 0.377991 -0.000000
v -1.126230 0.472488 0.301772
v -1.046666 0.377991 0.280453
v -1.009750 0.472488 0.582979
v -0.938415 0.377991 0.541794
v -0.824457 0.472488 0.824457
v -0.766213 0.377991 0.766213
v -0.582979 0.472488 1.009750
v -0.541794 0.377991 0.938415
v -0.301772 0.472488 1.126230
v -0.280453 0.377991 1.046666
v 0.000000 0.472488 1.165959
v 0.000000 0.377991 1.083589
v 0.301772 0.472488 1.126230
v 0.280453 0.377991 1.046666
v 0.582979 0.472488 1.009750
v 0.541794 0.377991 0.938415
v 0.824457 0.472488 0.824457
v 0.766213 0.377991 0.766213
v 1.009750 0.472488 0.582979
v 0.938415 0.377991 0.541794
v 1.126230 0.472488 0.301772
v 1.046666 0.377991 0.280453
v 1.165959 0.472488 -0.000000
v 1.083589 0.377991 -0.000000
v 1.126230 0.472488 -0.301772
v 1.046666 0.377991 -0.280453
v 1.009750 0.472488 -0.582979
v 0.938415 0.377991 -0.541794
v 0.824457 0.472488 -0.824457
v 0.766213 0.377991 -0.766213
v 0.582979 0.472488 -1.009750
v 0.541794 0.377991 -0.938415
v 0.301772 0.472488 -1.126230
v 0.280453 0.377991 -1.046666
v 0.000000 0.755981 -1.413069
v 0.000000 0.661484 -1.330699
v 0.365729 0.755981 -1.364920
v 0.344410 0.661484 -1.285356
v 0.706534 0.755981 -1.223753
v 0.665349 0.661484 -1.152419
v 0.999191 0.755981 -0.999191
v 0.940946 0.661484 -0.940946
v 1.223753 0.755981 -0.706534
v 1.152419 0.661484 -0.665349
v 1.364920 0.755981 -0.365729
v 1.285356 0.661484 -0.344410
v 1.413069 0.755981 -0.000000
v 1.330699 0.661484 -0.000000
v 1.364920 0.755981 0.365729
v 1.285356 0.661484 0.344410
v 1.223753 0.755981 0.706534
v 1.152419 0.661484 0.665349
v 0.999191 0.755981 0.999191
v 0.940946 0.661484 0.940946
v 0.706534 0.755981 1.223753
v 0.665349 0.661484 1.152419
v 0.365729 0.755981 1.364920
v 0.344410 0.661484 1.285356
v 0.000000 0.755981 1.413069
v 0.000000 0.661484 1.330699
v -0.365729 0.755981 1.364920
v -0.344410 0.661484 1.285356
v -0.706534 0.755981 1.223753
v -0.665349 0.661484 1.152419
v -0.999191 0.755981 0.999191
v -0.940946 0.661484 0.940946
v -1.223753 0.755981 0.706534
v -1.152419 0.661484 0.665349
v -1.364920 0.755981 0.365729
v -1.285356 0.661484 0.344410
v -1.413069 0.755981 -0.000000
v -1.330699 0.661484 -0.000000
v -1.364920 0.755981 -0.365729
v -1.285356 0.661484 -0.344410
v -1.223753 0.755981 -0.706534
v -1.152419 0.661484 -0.665349
v -0.999191 0.755981 -0.999191
v -0.940946 0.661484 -0.940946
v -0.706534 0.755981 -1.223753
v -0.665349 0.661484 -1.152419
v -0.365729 0.755981 -1.364920
v -0.344410 0.661484 -1.285356
v -0.216497 0.094498 -0.807976
v -0.237815 0.188995 -0.887540
v 0.000000 0.094498 -0.836478
v 0.000000 0.188995 -0.918849
v -0.418239 0.094498 -0.724412
v -0.459424 0.188995 -0.795746
v -0.591479 0.094498 -0.591479
v -0.649724 0.188995 -0.649724
v -0.724412 0.094498 -0.418239
v -0.795746 0.188995 -0.459424
v -0.807976 0.094498 -0.216497
v -0.887540 0.188995 -0.237815
v -0.836478 0.094498 -0.000000
v -0.918849 0.188995 -0.000000
v -0.807976 0.094498 0.216497
v -0.887540 0.188995 0.237815
v -0.724412 0.094498 0.418239
v -0.795746 0.188995 0.459424
v -0.591479 0.094498 0.591479
v -0.649724 0.188995 0.649724
v -0.418239 0.094498 0.724412
v -0.459424 0.188995 0.795746
v -0.216497 0.094498 0.807976
v -0.237815 0.188995 0.887540
v 0.000000 0.094498 0.836478
v 0.000000 0.188995 0.918849
v 0.216497 0.094498 0.807976
v 0.237815 0.188995 0.887540
v 0.418239 0.094498 0.724412
v 0.459424 0.188995 0.795746
v 0.591479 0.094498 0.591479
v 0.649724 0.188995 0.649724
v 0.724412 0.094498 0.418239
v 0.795746 0.188995 0.459424
v 0.807976 0.094498 0.216497
v 0.887540 0.188995 0.237815
v 0.836478 0.094498 -0.000000
v 0.918849 0.188995 -0.000000
v 0.807976 0.094498 -0.216497
v 0.887540 0.188995 -0.237815
v 0.724412 0.094498 -0.418239
v 0.795746 0.188995 -0.459424
v 0.591479 0.094498 -0.591479
v 0.649724 0.188995 -0.649724
v 0.418239 0.094498 -0.724412
v 0.459424 0.188995 -0.795746
v 0.216497 0.094498 -0.807976
v 0.237815 0.188995 -0.887540
vn -0.0000 -0.6571 -0.7538
vn 0.1951 -0.6571 -0.7281
vn 0.3769 -0.6571 -0.6528
vn 0.5330 -0.6571 -0.5330
vn 0.6528 -0.6571 -0.3769
vn 0.7281 -0.6571 -0.1951
vn 0.7538 -0.6571 -0.0000
vn 0.7281 -0.6571 0.1951
vn 0.6528 -0.6571 0.3769
vn 0.5330 -0.6571 0.5330
vn 0.3769 -0.6571 0.6528
vn 0.1951 -0.6571 0.7281
vn -0.0000 -0.6571 0.7538
vn -0.1951 -0.6571 0.7281
vn -0.3769 -0.6571 0.6528
vn -0.5330 -0.6571 0.5330
vn -0.6528 -0.6571 0.3769
vn -0.7281 -0.6571 0.1951
vn -0.7538 -0.6571 -0.0000
vn -0.7281 -0.6571 -0.1951
vn -0.6528 -0.6571 -0.3769
vn -0.5330 -0.6571 -0.5330
vn -0.3769 -0.6571 -0.6528
vn -0.1951 -0.6571 -0.7281
vt 1.000000 0.888889
vt 1.000000 1.000000
vt 0.958333 1.000000
vt 0.958333 0.888889
vt 0.916667 1.000000
vt 0.916667 0.888889
vt 0.875000 1.000000
vt 0.875000 0.888889
vt 0.833333 1.000000
vt 0.833333 0.888889
vt 0.791667 1.000000
vt 0.791667 0.888889
vt 0.750000 1.000000
vt 0.750000 0.888889
vt 0.708333 1.000000
vt 0.708333 0.888889
vt 0.666667 1.000000
vt 0.666667 0.888889
vt 0.625000 1.000000
vt 0.625000 0.888889
vt 0.583333 1.000000
vt 0.583333 0.888889
vt 0.541666 1.000000
vt 0.541666 0.888889
vt 0.500000 1.000000
vt 0.500000 0.888889
vt 0.458333 1.000000
vt 0.458333 0.888889
vt 0.416666 1.000000
vt 0.416666 0.888889
vt 0.375000 1.000000
vt 0.375000 0.888889
vt 0.333333 1.000000
vt 0.333333 0.888889
vt 0.291667 1.000000
vt 0.291667 0.888889
vt 0.250000 1.000000
vt 0.250000 0.888889
vt 0.208333 1.000000
vt 0.208333 0.888889
vt 0.166666 1.000000
vt 0.166666 0.888889
vt 0.125000 1.000000
vt 0.125000 0.888889
vt 0.083333 1.000000
vt 0.083333 0.888889
vt 0.041666 1.000000
vt 0.041666 0.888889
vt -0.000000 1.000000
vt 0.000000 0.888889
vt 0.041666 0.222222
vt 0.041666 0.333333
vt -0.000000 0.333333
vt 0.000000 0.222222
vt 0.041666 0.555556
vt 0.041666 0.666667
vt -0.000000 0.666667
vt 0.000000 0.555556
vt 0.083333 0.222222
vt 0.083333 0.333333
vt 0.083333 0.555556
vt 0.083333 0.666667
vt 0.125000 0.222222
vt 0.125000 0.333333
vt 0.125000 0.555556
vt 0.125000 0.666667
vt 0.166666 0.222222
vt 0.166666 0.333333
vt 0.166666 0.555556
vt 0.166666 0.666667
vt 0.208333 0.222222
vt 0.208333 0.333333
vt 0.208333 0.555556
vt 0.208333 0.666667
vt 0.250000 0.222222
vt 0.250000 0.333333
vt 0.250000 0.555556
vt 0.250000 0.666667
vt 0.291667 0.222222
vt 0.291667 0.333333
vt 0.291667 0.555556
vt 0.291667 0.666667
vt 0.333333 0.222222
vt 0.333333 0.333333
vt 0.333333 0.555556
vt 0.333333 0.666667
vt 0.375000 0.222222
vt 0.375000 0.333333
vt 0.375000 0.555556
vt 0.375000 0.666667
vt 0.416666 0.222222
vt 0.416666 0.333333
vt 0.416666 0.555556
vt 0.416666 0.666667
vt 0.458333 0.222222
vt 0.458333 0.333333
vt 0.458333 0.555556
vt 0.458333 0.666667
vt 0.500000 0.222222
vt 0.500000 0.333333
vt 0.500000 0.555556
vt 0.500000 0.666667
vt 0.541666 0.222222
vt 0.541666 0.333333
vt 0.541666 0.555556
vt 0.541666 0.666667
vt 0.583333 0.222222
vt 0.583333 0.333333
vt 0.583333 0.555556
vt 0.583333 0.666667
vt 0.625000 0.222222
vt 0.625000 0.333333
vt 0.625000 0.555556
vt 0.625000 0.666667
vt 0.666667 0.222222
vt 0.666667 0.333333
vt 0.666667 0.555556
vt 0.666667 0.666667
vt 0.708333 0.222222
vt 0.708333 0.333333
vt 0.708333 0.555556
vt 0.708333 0.666667
vt 0.750000 0.222222
vt 0.750000 0.333333
vt 0.750000 0.555556
vt 0.750000 0.666667
vt 0.791667 0.222222
vt 0.791667 0.333333
vt 0.791667 0.555556
vt 0.791667 0.666667
vt 0.833333 0.222222
vt 0.833333 0.333333
vt 0.833333 0.555556
vt 0.833333 0.666667
vt 0.875000 0.222222
vt 0.875000 0.333333
vt 0.875000 0.555556
vt 0.875000 0.666667
vt 0.916667 0.222222
vt 0.916667 0.333333
vt 0.916667 0.555556
vt 0.916667 0.666667
vt 0.958333 0.222222
vt 0.958333 0.333333
vt 0.958333 0.555556
vt 0.958333 0.666667
vt 1.000000 0.222222
vt 1.000000 0.333333
vt 1.000000 0.555556
vt 1.000000 0.666667
vt 1.000000 0.444444
vt 0.958333 0.444444
vt 0.916667 0.444444
vt 0.875000 0.444444
vt 0.833333 0.444444
vt 0.791667 0.444444
vt 0.750000 0.444444
vt 0.708333 0.444444
vt 0.666667 0.444444
vt 0.625000 0.444444
vt 0.583333 0.444444
vt 0.541666 0.444444
vt 0.500000 0.444444
vt 0.458333 0.444444
vt 0.416666 0.444444
vt 0.375000 0.444444
vt 0.333333 0.444444
vt 0.291667 0.444444
vt 0.250000 0.444444
vt 0.208333 0.444444
vt 0.166666 0.444444
vt 0.125000 0.444444
vt 0.083333 0.444444
vt 0.041666 0.444444
vt 0.000000 0.444444
vt 0.041666 0.777778
vt 0.000000 0.777778
vt 0.083333 0.777778
vt 0.125000 0.777778
vt 0.166666 0.777778
vt 0.208333 0.777778
vt 0.250000 0.777778
vt 0.291667 0.777778
vt 0.333333 0.777778
vt 0.375000 0.777778
vt 0.416666 0.777778
vt 0.458333 0.777778
vt 0.500000 0.777778
vt 0.541666 0.777778
vt 0.583333 0.777778
vt 0.625000 0.777778
vt 0.666667 0.777778
vt 0.708333 0.777778
vt 0.750000 0.777778
vt 0.791667 0.777778
vt 0.833333 0.777778
vt 0.875000 0.777778
vt 0.916667 0.777778
vt 0.958333 0.777778
vt 1.000000 0.777778
vt 1.000000 0.000000
vt 1.000000 0.111111
vt 0.958333 0.111111
vt 0.958333 0.000000
vt 0.916667 0.111111
vt 0.916667 0.000000
vt 0.875000 0.111111
vt 0.875000 0.000000
vt 0.833333 0.111111
vt 0.833333 0.000000
vt 0.791667 0.111111
vt 0.791667 0.000000
vt 0.750000 0.111111
vt 0.750000 0.000000
vt 0.708333 0.111111
vt 0.708333 0.000000
vt 0.666667 0.111111
vt 0.666667 0.000000
vt 0.625000 0.111111
vt 0.625000 0.000000
vt 0.583333 0.111111
vt 0.583333 0.000000
vt 0.541666 0.111111
vt 0.541666 0.000000
vt 0.500000 0.111111
vt 0.500000 0.000000
vt 0.458333 0.111111
vt 0.458333 0.000000
vt 0.416666 0.111111
vt 0.416666 0.000000
vt 0.375000 0.111111
vt 0.375000 0.000000
vt 0.333333 0.111111
vt 0.333333 0.000000
vt 0.291667 0.111111
vt 0.291667 0.000000
vt 0.250000 0.111111
vt 0.250000 0.000000
vt 0.208333 0.111111
vt 0.208333 0.000000
vt 0.166666 0.111111
vt 0.166666 0.000000
vt 0.125000 0.111111
vt 0.125000 0.000000
vt 0.083333 0.111111
vt 0.083333 0.000000
vt 0.041666 0.111111
vt 0.041666 0.000000
vt 0.000000 0.111111
vt -0.000000 0.000000
s 1
f 145/1/1 2/2/1 4/3/2 147/4/2
f 147/4/2 4/3/2 6/5/3 149/6/3
f 149/6/3 6/5/3 8/7/4 151/8/4
f 151/8/4 8/7/4 10/9/5 153/10/5
f 153/10/5 10/9/5 12/11/6 155/12/6
f 155/12/6 12/11/6 14/13/7 157/14/7
f 157/14/7 14/13/7 16/15/8 159/16/8
f 159/16/8 16/15/8 18/17/9 161/18/9
f 161/18/9 18/17/9 20/19/10 163/20/10
f 163/20/10 20/19/10 22/21/11 165/22/11
f 165/22/11 22/21/11 24/23/12 167/24/12
f 167/24/12 24/23/12 26/25/13 169/26/13
f 169/26/13 26/25/13 28/27/14 171/28/14
f 171/28/14 28/27/14 30/29/15 173/30/15
f 173/30/15 30/29/15 32/31/16 175/32/16
f 175/32/16 32/31/16 34/33/17 177/34/17
f 177/34/17 34/33/17 36/35/18 179/36/18
f 179/36/18 36/35/18 38/37/19 181/38/19
f 181/38/19 38/37/19 40/39/20 183/40/20
f 183/40/20 40/39/20 42/41/21 185/42/21
f 185/42/21 42/41/21 44/43/22 187/44/22
f 187/44/22 44/43/22 46/45/23 189/46/23
f 189/46/23 46/45/23 48/47/24 191/48/24
f 191/48/24 48/47/24 2/49/1 145/50/1
f 194/51/24 96/52/24 49/53/1 196/54/1
f 97/55/24 95/56/24 50/57/1 100/58/1
f 198/59/23 94/60/23 96/52/24 194/51/24
f 101/61/23 93/62/23 95/56/24 97/55/24
f 200/63/22 92/64/22 94/60/23 198/59/23
f 103/65/22 91/66/22 93/62/23 101/61/23
f 202/67/21 90/68/21 92/64/22 200/63/22
f 105/69/21 89/70/21 91/66/22 103/65/22
f 204/71/20 88/72/20 90/68/21 202/67/21
f 107/73/20 87/74/20 89/70/21 105/69/21
f 206/75/19 86/76/19 88/72/20 204/71/20
f 109/77/19 85/78/19 87/74/20 107/73/20
f 208/79/18 84/80/18 86/76/19 206/75/19
f 111/81/18 83/82/18 85/78/19 109/77/19
f 210/83/17 82/84/17 84/80/18 208/79/18
f 113/85/17 81/86/17 83/82/18 111/81/18
f 212/87/16 80/88/16 82/84/17 210/83/17
f 115/89/16 79/90/16 81/86/17 113/85/17
f 214/91/15 78/92/15 80/88/16 212/87/16
f 117/93/15 77/94/15 79/90/16 115/89/16
f 216/95/14 76/96/14 78/92/15 214/91/15
f 119/97/14 75/98/14 77/94/15 117/93/15
f 218/99/13 74/100/13 76/96/14 216/95/14
f 121/101/13 73/102/13 75/98/14 119/97/14
f 220/103/12 72/104/12 74/100/13 218/99/13
f 123/105/12 71/106/12 73/102/13 121/101/13
f 222/107/11 70/108/11 72/104/12 220/103/12
f 125/109/11 69/110/11 71/106/12 123/105/12
f 224/111/10 68/112/10 70/108/11 222/107/11
f 127/113/10 67/114/10 69/110/11 125/109/11
f 226/115/9 66/116/9 68/112/10 224/111/10
f 129/117/9 65/118/9 67/114/10 127/113/10
f 228/119/8 64/120/8 66/116/9 226/115/9
f 131/121/8 63/122/8 65/118/9 129/117/9
f 230/123/7 62/124/7 64/120/8 228/119/8
f 133/125/7 61/126/7 63/122/8 131/121/8
f 232/127/6 60/128/6 62/124/7 230/123/7
f 135/129/6 59/130/6 61/126/7 133/125/7
f 234/131/5 58/132/5 60/128/6 232/127/6
f 137/133/5 57/134/5 59/130/6 135/129/6
f 236/135/4 56/136/4 58/132/5 234/131/5
f 139/137/4 55/138/4 57/134/5 137/133/5
f 238/139/3 54/140/3 56/136/4 236/135/4
f 141/141/3 53/142/3 55/138/4 139/137/4
f 240/143/2 52/144/2 54/140/3 238/139/3
f 143/145/2 51/146/2 53/142/3 141/141/3
f 196/147/1 49/148/1 52/144/2 240/143/2
f 100/149/1 50/150/1 51/146/2 143/145/2
f 49/148/1 99/151/1 144/152/2 52/144/2
f 99/151/1 100/149/1 143/145/2 144/152/2
f 52/144/2 144/152/2 142/153/3 54/140/3
f 144/152/2 143/145/2 141/141/3 142/153/3
f 54/140/3 142/153/3 140/154/4 56/136/4
f 142/153/3 141/141/3 139/137/4 140/154/4
f 56/136/4 140/154/4 138/155/5 58/132/5
f 140/154/4 139/137/4 137/133/5 138/155/5
f 58/132/5 138/155/5 136/156/6 60/128/6
f 138/155/5 137/133/5 135/129/6 136/156/6
f 60/128/6 136/156/6 134/157/7 62/124/7
f 136/156/6 135/129/6 133/125/7 134/157/7
f 62/124/7 134/157/7 132/158/8 64/120/8
f 134/157/7 133/125/7 131/121/8 132/158/8
f 64/120/8 132/158/8 130/159/9 66/116/9
f 132/158/8 131/121/8 129/117/9 130/159/9
f 66/116/9 130/159/9 128/160/10 68/112/10
f 130/159/9 129/117/9 127/113/10 128/160/10
f 68/112/10 128/160/10 126/161/11 70/108/11
f 128/160/10 127/113/10 125/109/11 126/161/11
f 70/108/11 126/161/11 124/162/12 72/104/12
f 126/161/11 125/109/11 123/105/12 124/162/12
f 72/104/12 124/162/12 122/163/13 74/100/13
f 124/162/12 123/105/12 121/101/13 122/163/13
f 74/100/13 122/163/13 120/164/14 76/96/14
f 122/163/13 121/101/13 119/97/14 120/164/14
f 76/96/14 120/164/14 118/165/15 78/92/15
f 120/164/14 119/97/14 117/93/15 118/165/15
f 78/92/15 118/165/15 116/166/16 80/88/16
f 118/165/15 117/93/15 115/89/16 116/166/16
f 80/88/16 116/166/16 114/167/17 82/84/17
f 116/166/16 115/89/16 113/85/17 114/167/17
f 82/84/17 114/167/17 112/168/18 84/80/18
f 114/167/17 113/85/17 111/81/18 112/168/18
f 84/80/18 112/168/18 110/169/19 86/76/19
f 112/168/18 111/81/18 109/77/19 110/169/19
f 86/76/19 110/169/19 108/170/20 88/72/20
f 110/169/19 109/77/19 107/73/20 108/170/20
f 88/72/20 108/170/20 106/171/21 90/68/21
f 108/170/20 107/73/20 105/69/21 106/171/21
f 90/68/21 106/171/21 104/172/22 92/64/22
f 106/171/21 105/69/21 103/65/22 104/172/22
f 92/64/22 104/172/22 102/173/23 94/60/23
f 104/172/22 103/65/22 101/61/23 102/173/23
f 94/60/23 102/173/23 98/174/24 96/52/24
f 102/173/23 101/61/23 97/55/24 98/174/24
f 96/52/24 98/174/24 99/175/1 49/53/1
f 98/174/24 97/55/24 100/58/1 99/175/1
f 95/56/24 192/176/24 146/177/1 50/57/1
f 192/176/24 191/48/24 145/50/1 146/177/1
f 93/62/23 190/178/23 192/176/24 95/56/24
f 190/178/23 189/46/23 191/48/24 192/176/24
f 91/66/22 188/179/22 190/178/23 93/62/23
f 188/179/22 187/44/22 189/46/23 190/178/23
f 89/70/21 186/180/21 188/179/22 91/66/22
f 186/180/21 185/42/21 187/44/22 188/179/22
f 87/74/20 184/181/20 186/180/21 89/70/21
f 184/181/20 183/40/20 185/42/21 186/180/21
f 85/78/19 182/182/19 184/181/20 87/74/20
f 182/182/19 181/38/19 183/40/20 184/181/20
f 83/82/18 180/183/18 182/182/19 85/78/19
f 180/183/18 179/36/18 181/38/19 182/182/19
f 81/86/17 178/184/17 180/183/18 83/82/18
f 178/184/17 177/34/17 179/36/18 180/183/18
f 79/90/16 176/185/16 178/184/17 81/86/17
f 176/185/16 175/32/16 177/34/17 178/184/17
f 77/94/15 174/186/15 176/185/16 79/90/16
f 174/186/15 173/30/15 175/32/16 176/185/16
f 75/98/14 172/187/14 174/186/15 77/94/15
f 172/187/14 171/28/14 173/30/15 174/186/15
f 73/102/13 170/188/13 172/187/14 75/98/14
f 170/188/13 169/26/13 171/28/14 172/187/14
f 71/106/12 168/189/12 170/188/13 73/102/13
f 168/189/12 167/24/12 169/26/13 170/188/13
f 69/110/11 166/190/11 168/189/12 71/106/12
f 166/190/11 165/22/11 167/24/12 168/189/12
f 67/114/10 164/191/10 166/190/11 69/110/11
f 164/191/10 163/20/10 165/22/11 166/190/11
f 65/118/9 162/192/9 164/191/10 67/114/10
f 162/192/9 161/18/9 163/20/10 164/191/10
f 63/122/8 160/193/8 162/192/9 65/118/9
f 160/193/8 159/16/8 161/18/9 162/192/9
f 61/126/7 158/194/7 160/193/8 63/122/8
f 158/194/7 157/14/7 159/16/8 160/193/8
f 59/130/6 156/195/6 158/194/7 61/126/7
f 156/195/6 155/12/6 157/14/7 158/194/7
f 57/134/5 154/196/5 156/195/6 59/130/6
f 154/196/5 153/10/5 155/12/6 156/195/6
f 55/138/4 152/197/4 154/196/5 57/134/5
f 152/197/4 151/8/4 153/10/5 154/196/5
f 53/142/3 150/198/3 152/197/4 55/138/4
f 150/198/3 149/6/3 151/8/4 152/197/4
f 51/146/2 148/199/2 150/198/3 53/142/3
f 148/199/2 147/4/2 149/6/3 150/198/3
f 50/150/1 146/200/1 148/199/2 51/146/2
f 146/200/1 145/1/1 147/4/2 148/199/2
f 1/201/1 195/202/1 239/203/2 3/204/2
f 195/202/1 196/147/1 240/143/2 239/203/2
f 3/204/2 239/203/2 237/205/3 5/206/3
f 239/203/2 240/143/2 238/139/3 237/205/3
f 5/206/3 237/205/3 235/207/4 7/208/4
f 237/205/3 238/139/3 236/135/4 235/207/4
f 7/208/4 235/207/4 233/209/5 9/210/5
f 235/207/4 236/135/4 234/131/5 233/209/5
f 9/210/5 233/209/5 231/211/6 11/212/6
f 233/209/5 234/131/5 232/127/6 231/211/6
f 11/212/6 231/211/6 229/213/7 13/214/7
f 231/211/6 232/127/6 230/123/7 229/213/7
f 13/214/7 229/213/7 227/215/8 15/216/8
f 229/213/7 230/123/7 228/119/8 227/215/8
f 15/216/8 227/215/8 225/217/9 17/218/9
f 227/215/8 228/119/8 226/115/9 225/217/9
f 17/218/9 225/217/9 223/219/10 19/220/10
f 225/217/9 226/115/9 224/111/10 223/219/10
f 19/220/10 223/219/10 221/221/11 21/222/11
f 223/219/10 224/111/10 222/107/11 221/221/11
f 21/222/11 221/221/11 219/223/12 23/224/12
f 221/221/11 222/107/11 220/103/12 219/223/12
f 23/224/12 219/223/12 217/225/13 25/226/13
f 219/223/12 220/103/12 218/99/13 217/225/13
f 25/226/13 217/225/13 215/227/14 27/228/14
f 217/225/13 218/99/13 216/95/14 215/227/14
f 27/228/14 215/227/14 213/229/15 29/230/15
f 215/227/14 216/95/14 214/91/15 213/229/15
f 29/230/15 213/229/15 211/231/16 31/232/16
f 213/229/15 214/91/15 212/87/16 211/231/16
f 31/232/16 211/231/16 209/233/17 33/234/17
f 211/231/16 212/87/16 210/83/17 209/233/17
f 33/234/17 209/233/17 207/235/18 35/236/18
f 209/233/17 210/83/17 208/79/18 207/235/18
f 35/236/18 207/235/18 205/237/19 37/238/19
f 207/235/18 208/79/18 206/75/19 205/237/19
f 37/238/19 205/237/19 203/239/20 39/240/20
f 205/237/19 206/75/19 204/71/20 203/239/20
f 39/240/20 203/239/20 201/241/21 41/242/21
f 203/239/20 204/71/20 202/67/21 201/241/21
f 41/242/21 201/241/21 199/243/22 43/244/22
f 201/241/21 202/67/21 200/63/22 199/243/22
f 43/244/22 199/243/22 197/245/23 45/246/23
f 199/243/22 200/63/22 198/59/23 197/245/23
f 45/246/23 197/245/23 193/247/24 47/248/24
f 197/245/23 198/59/23 194/51/24 193/247/24
f 47/248/24 193/247/24 195/249/1 1/250/1
f 193/247/24 194/51/24 196/54/1 195/249/1
