# Blender 4.3.2
# www.blender.org
o Cylinder
v 1.307318 0.000000 -1.307318
v 0.598506 0.306556 -0.581697
v 1.537243 0.000000 -1.027153
v 0.703768 0.306556 -0.453434
v 1.708093 0.000000 -0.707515
v 0.781986 0.306556 -0.307100
v 1.813302 0.000000 -0.360688
v 0.830151 0.306556 -0.148319
v 1.848826 0.000000 0.000000
v 0.846415 0.306556 0.016809
v 1.813302 0.000000 0.360688
v 0.830151 0.306556 0.181936
v 1.708093 0.000000 0.707515
v 0.781986 0.306556 0.340718
v 1.537243 0.000000 1.027153
v 0.703768 0.306556 0.487052
v 1.307318 0.000000 1.307318
v 0.598506 0.306556 0.615314
v 1.027153 0.000000 1.537243
v 0.470243 0.306556 0.720577
v 0.707515 0.000000 1.708093
v 0.323909 0.306556 0.798794
v 0.360688 0.000000 1.813302
v 0.165127 0.306556 0.846960
v 0.000000 0.000000 1.848826
v 0.000000 0.306556 0.863224
v -0.360688 0.000000 1.813302
v -0.165127 0.306556 0.846960
v -0.707515 0.000000 1.708093
v -0.323909 0.306556 0.798794
v -1.027153 0.000000 1.537243
v -0.470243 0.306556 0.720577
v -1.307318 0.000000 1.307318
v -0.598506 0.306556 0.615314
v -1.537243 0.000000 1.027153
v -0.703768 0.306556 0.487052
v -1.708093 0.000000 0.707515
v -0.781985 0.306556 0.340718
v -1.813302 0.000000 0.360688
v -0.830151 0.306556 0.181936
v -1.848826 0.000000 0.000000
v -0.846415 0.306556 0.016809
v -1.813302 0.000000 -0.360688
v -0.830151 0.306556 -0.148319
v -1.708093 0.000000 -0.707515
v -0.781985 0.306556 -0.307100
v -1.537243 0.000000 -1.027153
v -0.703768 0.306556 -0.453434
v -1.307318 0.000000 -1.307318
v -0.598506 0.306556 -0.581697
v 0.598506 -0.306556 -0.581697
v 0.703768 -0.306556 -0.453434
v 0.781986 -0.306556 -0.307100
v 0.830151 -0.306556 -0.148319
v 0.846415 -0.306556 0.016809
v 0.830151 -0.306556 0.181936
v 0.781986 -0.306556 0.340718
v 0.703768 -0.306556 0.487052
v 0.598506 -0.306556 0.615314
v 0.470243 -0.306556 0.720577
v 0.323909 -0.306556 0.798794
v 0.165127 -0.306556 0.846960
v 0.000000 -0.306556 0.863224
v -0.165127 -0.306556 0.846960
v -0.323909 -0.306556 0.798794
v -0.470243 -0.306556 0.720577
v -0.598506 -0.306556 0.615314
v -0.703768 -0.306556 0.487052
v -0.781985 -0.306556 0.340718
v -0.830151 -0.306556 0.181936
v -0.846415 -0.306556 0.016809
v -0.830151 -0.306556 -0.148319
v -0.781985 -0.306556 -0.307100
v -0.703768 -0.306556 -0.453434
v -0.598506 -0.306556 -0.581697
vn 0.7730 -0.0000 -0.6344
vn 0.2249 0.9568 -0.1845
vn 0.8310 -0.0000 -0.5562
vn 0.2413 0.9570 -0.1609
vn 0.9236 -0.0000 -0.3835
vn 0.2687 0.9568 -0.1110
vn 0.9806 -0.0000 -0.1960
vn 0.2860 0.9565 -0.0566
vn 1.0000 -0.0000 -0.0009
vn 0.2925 0.9563 0.0003
vn 0.9810 -0.0000 0.1942
vn 0.2876 0.9560 0.0575
vn 0.9242 -0.0000 0.3819
vn 0.2717 0.9558 0.1129
vn 0.8319 -0.0000 0.5549
vn 0.2451 0.9555 0.1641
vn 0.7076 -0.0000 0.7066
vn 0.2089 0.9553 0.2092
vn 0.5560 -0.0000 0.8312
vn 0.1644 0.9551 0.2464
vn 0.3830 -0.0000 0.9237
vn 0.1134 0.9550 0.2741
vn 0.1953 -0.0000 0.9807
vn 0.0579 0.9549 0.2912
vn -0.0000 -0.0000 1.0000
vn -0.0000 0.9549 0.2970
vn -0.1953 -0.0000 0.9807
vn -0.0579 0.9549 0.2912
vn -0.3830 -0.0000 0.9237
vn -0.1134 0.9550 0.2741
vn -0.5560 -0.0000 0.8312
vn -0.1644 0.9551 0.2464
vn -0.7076 -0.0000 0.7066
vn -0.2089 0.9553 0.2092
vn -0.8319 -0.0000 0.5549
vn -0.2451 0.9555 0.1641
vn -0.9242 -0.0000 0.3819
vn -0.2717 0.9558 0.1129
vn -0.9810 -0.0000 0.1942
vn -0.2876 0.9560 0.0575
vn -1.0000 -0.0000 -0.0009
vn -0.2925 0.9563 0.0003
vn -0.9806 -0.0000 -0.1960
vn -0.2860 0.9565 -0.0566
vn -0.9236 -0.0000 -0.3835
vn -0.2687 0.9568 -0.1110
vn -0.8310 -0.0000 -0.5562
vn -0.2413 0.9570 -0.1609
vn -0.7730 -0.0000 -0.6344
vn -0.2249 0.9568 -0.1845
vn 0.2249 -0.9568 -0.1845
vn 0.2413 -0.9570 -0.1609
vn 0.2687 -0.9568 -0.1110
vn 0.2860 -0.9565 -0.0566
vn 0.2925 -0.9563 0.0003
vn 0.2876 -0.9560 0.0575
vn 0.2717 -0.9558 0.1129
vn 0.2451 -0.9555 0.1641
vn 0.2089 -0.9553 0.2092
vn 0.1644 -0.9551 0.2464
vn 0.1134 -0.9550 0.2741
vn 0.0579 -0.9549 0.2912
vn -0.0000 -0.9549 0.2970
vn -0.0579 -0.9549 0.2912
vn -0.1134 -0.9550 0.2741
vn -0.1644 -0.9551 0.2464
vn -0.2089 -0.9553 0.2092
vn -0.2451 -0.9555 0.1641
vn -0.2717 -0.9558 0.1129
vn -0.2876 -0.9560 0.0575
vn -0.2925 -0.9563 0.0003
vn -0.2860 -0.9565 -0.0566
vn -0.2687 -0.9568 -0.1110
vn -0.2413 -0.9570 -0.1609
vn -0.2249 -0.9568 -0.1845
vt 1.000000 0.000000
vt 1.000000 1.000000
vt 0.958333 1.000000
vt 0.958333 0.000000
vt 0.916667 1.000000
vt 0.916667 0.000000
vt 0.875000 1.000000
vt 0.875000 0.000000
vt 0.833333 1.000000
vt 0.833333 0.000000
vt 0.791667 1.000000
vt 0.791667 0.000000
vt 0.750000 1.000000
vt 0.750000 0.000000
vt 0.708333 1.000000
vt 0.708333 0.000000
vt 0.666667 1.000000
vt 0.666667 0.000000
vt 0.625000 1.000000
vt 0.625000 0.000000
vt 0.583333 1.000000
vt 0.583333 0.000000
vt 0.541667 1.000000
vt 0.541667 0.000000
vt 0.500000 1.000000
vt 0.500000 0.000000
vt 0.458333 1.000000
vt 0.458333 0.000000
vt 0.416667 1.000000
vt 0.416667 0.000000
vt 0.375000 1.000000
vt 0.375000 0.000000
vt 0.333333 1.000000
vt 0.333333 0.000000
vt 0.291667 1.000000
vt 0.291667 0.000000
vt 0.250000 1.000000
vt 0.250000 0.000000
vt 0.208333 1.000000
vt 0.208333 0.000000
vt 0.166667 1.000000
vt 0.166667 0.000000
vt 0.125000 1.000000
vt 0.125000 0.000000
vt 0.083333 1.000000
vt 0.083333 0.000000
vt 0.041667 1.000000
vt 0.041667 0.000000
vt 0.000000 1.000000
vt 0.000000 0.000000
s 1
f 1/1/1 2/2/2 4/3/4 3/4/3
f 3/4/3 4/3/4 6/5/6 5/6/5
f 5/6/5 6/5/6 8/7/8 7/8/7
f 7/8/7 8/7/8 10/9/10 9/10/9
f 9/10/9 10/9/10 12/11/12 11/12/11
f 11/12/11 12/11/12 14/13/14 13/14/13
f 13/14/13 14/13/14 16/15/16 15/16/15
f 15/16/15 16/15/16 18/17/18 17/18/17
f 17/18/17 18/17/18 20/19/20 19/20/19
f 19/20/19 20/19/20 22/21/22 21/22/21
f 21/22/21 22/21/22 24/23/24 23/24/23
f 23/24/23 24/23/24 26/25/26 25/26/25
f 25/26/25 26/25/26 28/27/28 27/28/27
f 27/28/27 28/27/28 30/29/30 29/30/29
f 29/30/29 30/29/30 32/31/32 31/32/31
f 31/32/31 32/31/32 34/33/34 33/34/33
f 33/34/33 34/33/34 36/35/36 35/36/35
f 35/36/35 36/35/36 38/37/38 37/38/37
f 37/38/37 38/37/38 40/39/40 39/40/39
f 39/40/39 40/39/40 42/41/42 41/42/41
f 41/42/41 42/41/42 44/43/44 43/44/43
f 43/44/43 44/43/44 46/45/46 45/46/45
f 45/46/45 46/45/46 48/47/48 47/48/47
f 47/48/47 48/47/48 50/49/50 49/50/49
f 1/1/1 3/4/3 52/3/52 51/2/51
f 3/4/3 5/6/5 53/5/53 52/3/52
f 5/6/5 7/8/7 54/7/54 53/5/53
f 7/8/7 9/10/9 55/9/55 54/7/54
f 9/10/9 11/12/11 56/11/56 55/9/55
f 11/12/11 13/14/13 57/13/57 56/11/56
f 13/14/13 15/16/15 58/15/58 57/13/57
f 15/16/15 17/18/17 59/17/59 58/15/58
f 17/18/17 19/20/19 60/19/60 59/17/59
f 19/20/19 21/22/21 61/21/61 60/19/60
f 21/22/21 23/24/23 62/23/62 61/21/61
f 23/24/23 25/26/25 63/25/63 62/23/62
f 25/26/25 27/28/27 64/27/64 63/25/63
f 27/28/27 29/30/29 65/29/65 64/27/64
f 29/30/29 31/32/31 66/31/66 65/29/65
f 31/32/31 33/34/33 67/33/67 66/31/66
f 33/34/33 35/36/35 68/35/68 67/33/67
f 35/36/35 37/38/37 69/37/69 68/35/68
f 37/38/37 39/40/39 70/39/70 69/37/69
f 39/40/39 41/42/41 71/41/71 70/39/70
f 41/42/41 43/44/43 72/43/72 71/41/71
f 43/44/43 45/46/45 73/45/73 72/43/72
f 45/46/45 47/48/47 74/47/74 73/45/73
f 47/48/47 49/50/49 75/49/75 74/47/74
