# Blender 5.1.2
# www.blender.org
o BézierCurve
v -0.394552 -0.437130 0.266018
v 0.556710 0.289094 -0.128060
v -0.466887 -0.353056 0.299638
v 0.324243 0.573018 -0.023011
v -0.604340 -0.237247 0.366896
v 0.063896 0.797839 0.102968
v -0.800875 -0.102775 0.461713
v -0.206765 0.984580 0.233039
v -1.040078 0.041452 0.570743
v -0.480547 1.150103 0.357630
v -1.307769 0.194631 0.680505
v -0.748029 1.303161 0.467307
v -1.592748 0.360703 0.777706
v -0.996805 1.447767 0.552445
v -1.886460 0.547766 0.847846
v -1.211827 1.583776 0.604626
v -2.180660 0.768582 0.871877
v -1.377735 1.706378 0.619985
v -2.458590 1.037037 0.822273
v -1.487682 1.809639 0.603128
v -2.683319 1.352511 0.670783
v -1.554997 1.902131 0.559391
v -2.813195 1.689839 0.413258
v -1.597727 2.016973 0.470006
v -2.835506 2.017066 0.078314
v -1.604981 2.194072 0.283439
v -2.793137 2.326407 -0.276139
v -1.571074 2.427836 0.013474
v -2.723446 2.619906 -0.611874
v -1.513778 2.669480 -0.262809
v -2.625417 2.905384 -0.939968
v -1.434402 2.901047 -0.528793
v -2.498262 3.178288 -1.258640
v -1.334031 3.116954 -0.780722
v -2.340644 3.433939 -1.566160
v -1.214297 3.311746 -1.014787
v -2.150505 3.667320 -1.860767
v -1.077550 3.480304 -1.227212
v -1.924956 3.872682 -2.140399
v -0.926977 3.618243 -1.414520
v -1.660501 4.042890 -2.402093
v -0.766367 3.722563 -1.574134
v -1.354178 4.168777 -2.641033
v -0.598979 3.792294 -1.705333
v -1.005999 4.239371 -2.849790
v -0.425094 3.828275 -1.810007
v -0.621589 4.244164 -3.019121
v -0.239383 3.830879 -1.891861
v -0.210884 4.176528 -3.141189
v -0.032206 3.796598 -1.953196
v -0.077465 -0.195055 0.134658
v 0.239623 0.047019 0.003299
v -0.203177 -0.044364 0.192088
v 0.060533 0.264327 0.084539
v -0.381595 0.107782 0.278920
v -0.158849 0.452810 0.190944
v -0.602838 0.259677 0.385488
v -0.404801 0.622128 0.309263
v -0.853568 0.411002 0.499705
v -0.667058 0.780552 0.428667
v -1.121189 0.564141 0.609439
v -0.934609 0.933651 0.538373
v -1.394101 0.723058 0.702619
v -1.195453 1.085413 0.627532
v -1.661582 0.893103 0.766773
v -1.436705 1.238440 0.685700
v -1.913018 1.081181 0.787913
v -1.645376 1.393779 0.703949
v -2.134954 1.294571 0.749225
v -1.811318 1.552105 0.676177
v -2.307212 1.535718 0.633652
v -1.931105 1.718925 0.596522
v -2.408039 1.798884 0.432174
v -2.002883 1.907928 0.451090
v -2.425331 2.076068 0.146689
v -2.015156 2.135070 0.215064
v -2.385783 2.360217 -0.179601
v -1.978429 2.394027 -0.083064
v -2.320223 2.636431 -0.495519
v -1.917001 2.652956 -0.379164
v -2.228412 2.903938 -0.802910
v -1.831407 2.902493 -0.665851
v -2.110185 3.157843 -1.099334
v -1.722108 3.137399 -0.940028
v -1.965195 3.393208 -1.382369
v -1.589746 3.352477 -1.198578
v -1.792853 3.604981 -1.649582
v -1.435202 3.542643 -1.438397
v -1.592296 3.787869 -1.898439
v -1.259637 3.703056 -1.656480
v -1.362457 3.936114 -2.126107
v -1.064412 3.829339 -1.850120
v -1.102445 4.043283 -2.329133
v -0.850712 3.917788 -2.017233
v -0.812364 4.102339 -2.503196
v -0.618729 3.965307 -2.156601
v -0.494187 4.106402 -2.643368
v -0.366785 3.968641 -2.267615
v -0.151325 4.049885 -2.745191
v -0.091765 3.923242 -2.349193
vn 0.3972 -0.0208 0.9175
vn 0.3945 -0.0175 0.9187
vn 0.4055 -0.0283 0.9137
vn 0.4032 -0.0258 0.9147
vn 0.4139 -0.0355 0.9096
vn 0.4126 -0.0344 0.9102
vn 0.4077 -0.0309 0.9126
vn 0.4072 -0.0306 0.9128
vn 0.3877 -0.0186 0.9216
vn 0.3876 -0.0185 0.9217
vn 0.3525 0.0020 0.9358
vn 0.3527 0.0018 0.9357
vn 0.2979 0.0343 0.9540
vn 0.2989 0.0336 0.9537
vn 0.2177 0.0863 0.9722
vn 0.2204 0.0843 0.9718
vn 0.1070 0.1713 0.9794
vn 0.1118 0.1669 0.9796
vn -0.0244 0.3015 0.9532
vn -0.0204 0.2972 0.9546
vn -0.1404 0.4664 0.8734
vn -0.1405 0.4677 0.8726
vn -0.2026 0.6244 0.7544
vn -0.2040 0.6311 0.7484
vn -0.2142 0.7215 0.6585
vn -0.2144 0.7264 0.6530
vn -0.2106 0.7532 0.6231
vn -0.2105 0.7542 0.6220
vn -0.2080 0.7626 0.6125
vn -0.2080 0.7625 0.6127
vn -0.2037 0.7751 0.5982
vn -0.2038 0.7749 0.5984
vn -0.1959 0.7915 0.5789
vn -0.1961 0.7913 0.5791
vn -0.1830 0.8123 0.5538
vn -0.1832 0.8119 0.5542
vn -0.1624 0.8373 0.5221
vn -0.1628 0.8369 0.5226
vn -0.1304 0.8660 0.4828
vn -0.1311 0.8654 0.4835
vn -0.0827 0.8961 0.4360
vn -0.0838 0.8956 0.4370
vn -0.0152 0.9233 0.3838
vn -0.0166 0.9229 0.3847
vn 0.0733 0.9408 0.3311
vn 0.0722 0.9406 0.3317
vn 0.1779 0.9419 0.2851
vn 0.1776 0.9419 0.2852
vn 0.2327 0.9359 0.2643
vn 0.2330 0.9359 0.2642
vn 0.3962 -0.0196 0.9180
vn 0.3949 -0.0180 0.9185
vn 0.4046 -0.0274 0.9141
vn 0.4036 -0.0262 0.9146
vn 0.4135 -0.0351 0.9098
vn 0.4129 -0.0346 0.9101
vn 0.4076 -0.0308 0.9126
vn 0.4073 -0.0306 0.9128
vn 0.3876 -0.0185 0.9216
vn 0.3525 0.0019 0.9358
vn 0.3526 0.0019 0.9358
vn 0.2981 0.0341 0.9539
vn 0.2986 0.0338 0.9538
vn 0.2181 0.0859 0.9721
vn 0.2194 0.0850 0.9719
vn 0.1077 0.1707 0.9794
vn 0.1100 0.1686 0.9795
vn -0.0239 0.3010 0.9533
vn -0.0221 0.2991 0.9540
vn -0.1404 0.4666 0.8732
vn -0.1404 0.4673 0.8729
vn -0.2028 0.6254 0.7535
vn -0.2035 0.6286 0.7507
vn -0.2143 0.7224 0.6575
vn -0.2144 0.7248 0.6547
vn -0.2106 0.7534 0.6229
vn -0.2105 0.7539 0.6223
vn -0.2080 0.7626 0.6126
vn -0.2080 0.7625 0.6126
vn -0.2037 0.7750 0.5982
vn -0.2037 0.7749 0.5983
vn -0.1960 0.7915 0.5789
vn -0.1960 0.7914 0.5791
vn -0.1831 0.8122 0.5539
vn -0.1832 0.8120 0.5541
vn -0.1624 0.8372 0.5222
vn -0.1626 0.8370 0.5225
vn -0.1305 0.8659 0.4829
vn -0.1309 0.8656 0.4833
vn -0.0829 0.8960 0.4362
vn -0.0835 0.8958 0.4366
vn -0.0155 0.9232 0.3840
vn -0.0161 0.9230 0.3844
vn 0.0731 0.9407 0.3312
vn 0.0726 0.9407 0.3315
vn 0.1778 0.9419 0.2851
vn 0.1777 0.9419 0.2852
vn 0.2328 0.9359 0.2643
vn 0.2329 0.9359 0.2642
vt 0.666667 0.000000
vt 0.666667 0.041667
vt 1.000000 0.041667
vt 1.000000 0.000000
vt 0.666667 0.083333
vt 1.000000 0.083333
vt 0.666667 0.125000
vt 1.000000 0.125000
vt 0.666667 0.166667
vt 1.000000 0.166667
vt 0.666667 0.208333
vt 1.000000 0.208333
vt 0.666667 0.250000
vt 1.000000 0.250000
vt 0.666667 0.291667
vt 1.000000 0.291667
vt 0.666667 0.333333
vt 1.000000 0.333333
vt 0.666667 0.375000
vt 1.000000 0.375000
vt 0.666667 0.416667
vt 1.000000 0.416667
vt 0.666667 0.458333
vt 1.000000 0.458333
vt 0.666667 0.500000
vt 1.000000 0.500000
vt 0.666667 0.541667
vt 1.000000 0.541667
vt 0.666667 0.583333
vt 1.000000 0.583333
vt 0.666667 0.625000
vt 1.000000 0.625000
vt 0.666667 0.666667
vt 1.000000 0.666667
vt 0.666667 0.708333
vt 1.000000 0.708333
vt 0.666667 0.750000
vt 1.000000 0.750000
vt 0.666667 0.791667
vt 1.000000 0.791667
vt 0.666667 0.833333
vt 1.000000 0.833333
vt 0.666667 0.875000
vt 1.000000 0.875000
vt 0.666667 0.916667
vt 1.000000 0.916667
vt 0.666667 0.958333
vt 1.000000 0.958333
vt 0.666667 1.000000
vt 1.000000 1.000000
vt 0.000000 0.958333
vt 0.000000 1.000000
vt 0.333333 1.000000
vt 0.333333 0.958333
vt 0.000000 0.916667
vt 0.333333 0.916667
vt 0.000000 0.875000
vt 0.333333 0.875000
vt 0.000000 0.833333
vt 0.333333 0.833333
vt 0.000000 0.791667
vt 0.333333 0.791667
vt 0.000000 0.750000
vt 0.333333 0.750000
vt 0.000000 0.708333
vt 0.333333 0.708333
vt 0.000000 0.666667
vt 0.333333 0.666667
vt 0.000000 0.625000
vt 0.333333 0.625000
vt 0.000000 0.583333
vt 0.333333 0.583333
vt 0.000000 0.541667
vt 0.333333 0.541667
vt 0.000000 0.500000
vt 0.333333 0.500000
vt 0.000000 0.458333
vt 0.333333 0.458333
vt 0.000000 0.416667
vt 0.333333 0.416667
vt 0.000000 0.375000
vt 0.333333 0.375000
vt 0.000000 0.333333
vt 0.333333 0.333333
vt 0.000000 0.291667
vt 0.333333 0.291667
vt 0.000000 0.250000
vt 0.333333 0.250000
vt 0.000000 0.208333
vt 0.333333 0.208333
vt 0.000000 0.166667
vt 0.333333 0.166667
vt 0.000000 0.125000
vt 0.333333 0.125000
vt 0.000000 0.083333
vt 0.333333 0.083333
vt 0.000000 0.041667
vt 0.333333 0.041667
vt 0.000000 0.000000
vt 0.333333 0.000000
s 1
f 51/1/51 53/2/53 3/3/3 1/4/1
f 53/2/53 55/5/55 5/6/5 3/3/3
f 55/5/55 57/7/57 7/8/7 5/6/5
f 57/7/57 59/9/9 9/10/9 7/8/7
f 59/9/9 61/11/60 11/12/11 9/10/9
f 61/11/60 63/13/62 13/14/13 11/12/11
f 63/13/62 65/15/64 15/16/15 13/14/13
f 65/15/64 67/17/66 17/18/17 15/16/15
f 67/17/66 69/19/68 19/20/19 17/18/17
f 69/19/68 71/21/70 21/22/21 19/20/19
f 71/21/70 73/23/72 23/24/23 21/22/21
f 73/23/72 75/25/74 25/26/25 23/24/23
f 75/25/74 77/27/76 27/28/27 25/26/25
f 77/27/76 79/29/78 29/30/29 27/28/27
f 79/29/78 81/31/80 31/32/31 29/30/29
f 81/31/80 83/33/82 33/34/33 31/32/31
f 83/33/82 85/35/84 35/36/35 33/34/33
f 85/35/84 87/37/86 37/38/37 35/36/35
f 87/37/86 89/39/88 39/40/39 37/38/37
f 89/39/88 91/41/90 41/42/41 39/40/39
f 91/41/90 93/43/92 43/44/43 41/42/41
f 93/43/92 95/45/94 45/46/45 43/44/43
f 95/45/94 97/47/96 47/48/47 45/46/45
f 97/47/96 99/49/98 49/50/49 47/48/47
f 48/51/48 50/52/50 100/53/99 98/54/97
f 98/54/97 100/53/99 99/49/98 97/47/96
f 46/55/46 48/51/48 98/54/97 96/56/95
f 96/56/95 98/54/97 97/47/96 95/45/94
f 44/57/44 46/55/46 96/56/95 94/58/93
f 94/58/93 96/56/95 95/45/94 93/43/92
f 42/59/42 44/57/44 94/58/93 92/60/91
f 92/60/91 94/58/93 93/43/92 91/41/90
f 40/61/40 42/59/42 92/60/91 90/62/89
f 90/62/89 92/60/91 91/41/90 89/39/88
f 38/63/38 40/61/40 90/62/89 88/64/87
f 88/64/87 90/62/89 89/39/88 87/37/86
f 36/65/36 38/63/38 88/64/87 86/66/85
f 86/66/85 88/64/87 87/37/86 85/35/84
f 34/67/34 36/65/36 86/66/85 84/68/83
f 84/68/83 86/66/85 85/35/84 83/33/82
f 32/69/32 34/67/34 84/68/83 82/70/81
f 82/70/81 84/68/83 83/33/82 81/31/80
f 30/71/30 32/69/32 82/70/81 80/72/79
f 80/72/79 82/70/81 81/31/80 79/29/78
f 28/73/28 30/71/30 80/72/79 78/74/77
f 78/74/77 80/72/79 79/29/78 77/27/76
f 26/75/26 28/73/28 78/74/77 76/76/75
f 76/76/75 78/74/77 77/27/76 75/25/74
f 24/77/24 26/75/26 76/76/75 74/78/73
f 74/78/73 76/76/75 75/25/74 73/23/72
f 22/79/22 24/77/24 74/78/73 72/80/71
f 72/80/71 74/78/73 73/23/72 71/21/70
f 20/81/20 22/79/22 72/80/71 70/82/69
f 70/82/69 72/80/71 71/21/70 69/19/68
f 18/83/18 20/81/20 70/82/69 68/84/67
f 68/84/67 70/82/69 69/19/68 67/17/66
f 16/85/16 18/83/18 68/84/67 66/86/65
f 66/86/65 68/84/67 67/17/66 65/15/64
f 14/87/14 16/85/16 66/86/65 64/88/63
f 64/88/63 66/86/65 65/15/64 63/13/62
f 12/89/12 14/87/14 64/88/63 62/90/61
f 62/90/61 64/88/63 63/13/62 61/11/60
f 10/91/10 12/89/12 62/90/61 60/92/59
f 60/92/59 62/90/61 61/11/60 59/9/9
f 8/93/8 10/91/10 60/92/59 58/94/58
f 58/94/58 60/92/59 59/9/9 57/7/57
f 6/95/6 8/93/8 58/94/58 56/96/56
f 56/96/56 58/94/58 57/7/57 55/5/55
f 4/97/4 6/95/6 56/96/56 54/98/54
f 54/98/54 56/96/56 55/5/55 53/2/53
f 2/99/2 4/97/4 54/98/54 52/100/52
f 52/100/52 54/98/54 53/2/53 51/1/51
