# Blender 4.4.3
# www.blender.org
o Torus
v 0.896265 0.000000 -0.443518
v 0.634151 0.125000 -0.729375
v 0.262705 0.216506 -0.834632
v 0.082170 0.250000 -0.745485
v 0.187647 0.216506 -0.596166
v 0.350040 0.125000 -0.402601
v 0.448133 0.000000 -0.221759
v 0.522772 -0.125000 -0.106417
v 0.622869 -0.216506 -0.051564
v 0.748954 -0.250000 -0.039602
v 0.872017 -0.216506 -0.072190
v 0.947083 -0.125000 -0.192792
v 0.775102 0.000000 -0.631836
v 0.455950 0.125000 -0.852199
v 0.070395 0.216506 -0.872164
v -0.085777 0.250000 -0.745079
v 0.050282 0.216506 -0.622974
v 0.251676 0.125000 -0.470398
v 0.387551 0.000000 -0.315918
v 0.485985 -0.125000 -0.220077
v 0.595779 -0.216506 -0.188873
v 0.721364 -0.250000 -0.205267
v 0.834090 -0.216506 -0.264422
v 0.880437 -0.125000 -0.398704
v 0.615072 0.000000 -0.788471
v 0.254887 0.125000 -0.932292
v -0.125444 0.216506 -0.865961
v -0.249422 0.250000 -0.707311
v -0.089603 0.216506 -0.618544
v 0.140693 0.125000 -0.514608
v 0.307536 0.000000 -0.394236
v 0.424829 -0.125000 -0.322701
v 0.538813 -0.216506 -0.316710
v 0.657601 -0.250000 -0.360639
v 0.754338 -0.216506 -0.443395
v 0.769643 -0.125000 -0.584623
v 0.424199 0.000000 -0.905569
v 0.041041 0.125000 -0.965635
v -0.314994 0.216506 -0.816336
v -0.400560 0.250000 -0.634076
v -0.224996 0.216506 -0.583097
v 0.022654 0.125000 -0.533013
v 0.212100 0.000000 -0.452785
v 0.342370 -0.125000 -0.409144
v 0.454829 -0.216506 -0.428667
v 0.560864 -0.250000 -0.497927
v 0.636761 -0.216506 -0.600134
v 0.620256 -0.125000 -0.741227
v 0.212055 0.000000 -0.977258
v -0.174862 0.125000 -0.950557
v -0.488748 0.216506 -0.725776
v -0.531612 0.250000 -0.529045
v -0.349106 0.216506 -0.518411
v -0.096520 0.125000 -0.524690
v 0.106028 0.000000 -0.488629
v 0.242743 -0.125000 -0.475070
v 0.348038 -0.216506 -0.519129
v 0.436003 -0.250000 -0.610247
v 0.487254 -0.216506 -0.726780
v 0.439766 -0.125000 -0.860663
v -0.010721 0.000000 -0.999943
v -0.381996 0.125000 -0.887814
v -0.637994 0.216506 -0.598823
v -0.636007 0.250000 -0.397486
v -0.455710 0.216506 -0.427730
v -0.210855 0.125000 -0.490057
v -0.005361 0.000000 -0.499971
v 0.130944 -0.125000 -0.517174
v 0.223795 -0.216506 -0.583559
v 0.289279 -0.250000 -0.691967
v 0.313314 -0.216506 -0.816982
v 0.237225 -0.125000 -0.936941
v -0.232961 0.000000 -0.972486
v -0.569975 0.125000 -0.780553
v -0.755249 0.216506 -0.441842
v -0.708510 0.250000 -0.245996
v -0.539463 0.216506 -0.315601
v -0.314616 0.125000 -0.430851
v -0.116480 0.000000 -0.486243
v 0.012579 -0.125000 -0.533345
v 0.088330 -0.216506 -0.618727
v 0.128049 -0.250000 -0.738988
v 0.123663 -0.216506 -0.866217
v 0.022788 -0.125000 -0.966238
v -0.443518 0.000000 -0.896265
v -0.729375 0.125000 -0.634151
v -0.834632 0.216506 -0.262705
v -0.745485 0.250000 -0.082170
v -0.596166 0.216506 -0.187647
v -0.402601 0.125000 -0.350040
v -0.221759 0.000000 -0.448133
v -0.106417 -0.125000 -0.522772
v -0.051564 -0.216506 -0.622869
v -0.039602 -0.250000 -0.748954
v -0.072190 -0.216506 -0.872017
v -0.192791 -0.125000 -0.947083
v -0.631836 0.000000 -0.775102
v -0.852199 0.125000 -0.455950
v -0.872164 0.216506 -0.070396
v -0.745079 0.250000 0.085776
v -0.622974 0.216506 -0.050283
v -0.470398 0.125000 -0.251676
v -0.315918 0.000000 -0.387551
v -0.220077 -0.125000 -0.485985
v -0.188873 -0.216506 -0.595779
v -0.205267 -0.250000 -0.721364
v -0.264422 -0.216506 -0.834090
v -0.398703 -0.125000 -0.880437
v -0.788471 0.000000 -0.615072
v -0.932292 0.125000 -0.254887
v -0.865961 0.216506 0.125444
v -0.707311 0.250000 0.249422
v -0.618544 0.216506 0.089603
v -0.514608 0.125000 -0.140693
v -0.394236 0.000000 -0.307536
v -0.322701 -0.125000 -0.424829
v -0.316710 -0.216506 -0.538813
v -0.360639 -0.250000 -0.657601
v -0.443395 -0.216506 -0.754338
v -0.584623 -0.125000 -0.769643
v -0.905569 0.000000 -0.424199
v -0.965635 0.125000 -0.041041
v -0.816336 0.216506 0.314994
v -0.634076 0.250000 0.400560
v -0.583097 0.216506 0.224995
v -0.533013 0.125000 -0.022654
v -0.452785 0.000000 -0.212100
v -0.409144 -0.125000 -0.342370
v -0.428667 -0.216506 -0.454829
v -0.497927 -0.250000 -0.560864
v -0.600134 -0.216506 -0.636761
v -0.741227 -0.125000 -0.620256
v -0.977258 0.000000 -0.212055
v -0.950557 0.125000 0.174861
v -0.725776 0.216506 0.488748
v -0.529045 0.250000 0.531612
v -0.518411 0.216506 0.349106
v -0.524690 0.125000 0.096520
v -0.488629 0.000000 -0.106028
v -0.475070 -0.125000 -0.242743
v -0.519129 -0.216506 -0.348038
v -0.610247 -0.250000 -0.436003
v -0.726780 -0.216506 -0.487253
v -0.860663 -0.125000 -0.439766
v -0.999943 0.000000 0.010721
v -0.887814 0.125000 0.381996
v -0.598823 0.216506 0.637994
v -0.397486 0.250000 0.636007
v -0.427731 0.216506 0.455710
v -0.490057 0.125000 0.210855
v -0.499971 0.000000 0.005361
v -0.517174 -0.125000 -0.130944
v -0.583559 -0.216506 -0.223795
v -0.691967 -0.250000 -0.289279
v -0.816982 -0.216506 -0.313313
v -0.936941 -0.125000 -0.237225
v -0.972486 0.000000 0.232961
v -0.780553 0.125000 0.569976
v -0.441842 0.216506 0.755249
v -0.245996 0.250000 0.708510
v -0.315601 0.216506 0.539463
v -0.430851 0.125000 0.314616
v -0.486243 0.000000 0.116480
v -0.533345 -0.125000 -0.012579
v -0.618727 -0.216506 -0.088330
v -0.738988 -0.250000 -0.128049
v -0.866217 -0.216506 -0.123662
v -0.966238 -0.125000 -0.022788
v -0.896265 0.000000 0.443518
v -0.634151 0.125000 0.729374
v -0.262705 0.216506 0.834632
v -0.082170 0.250000 0.745485
v -0.187647 0.216506 0.596166
v -0.350040 0.125000 0.402601
v -0.448133 0.000000 0.221759
v -0.522772 -0.125000 0.106417
v -0.622869 -0.216506 0.051564
v -0.748954 -0.250000 0.039602
v -0.872017 -0.216506 0.072190
v -0.947083 -0.125000 0.192791
v -0.775102 0.000000 0.631836
v -0.455951 0.125000 0.852199
v -0.070396 0.216506 0.872164
v 0.085776 0.250000 0.745079
v -0.050283 0.216506 0.622974
v -0.251676 0.125000 0.470398
v -0.387551 0.000000 0.315918
v -0.485985 -0.125000 0.220077
v -0.595779 -0.216506 0.188872
v -0.721364 -0.250000 0.205267
v -0.834090 -0.216506 0.264421
v -0.880438 -0.125000 0.398703
v -0.615072 0.000000 0.788471
v -0.254887 0.125000 0.932291
v 0.125444 0.216506 0.865961
v 0.249421 0.250000 0.707311
v 0.089603 0.216506 0.618544
v -0.140693 0.125000 0.514608
v -0.307536 0.000000 0.394235
v -0.424829 -0.125000 0.322701
v -0.538813 -0.216506 0.316710
v -0.657601 -0.250000 0.360639
v -0.754338 -0.216506 0.443394
v -0.769643 -0.125000 0.584623
v -0.424199 0.000000 0.905569
v -0.041042 0.125000 0.965634
v 0.314993 0.216506 0.816336
v 0.400559 0.250000 0.634076
v 0.224995 0.216506 0.583097
v -0.022654 0.125000 0.533012
v -0.212100 0.000000 0.452784
v -0.342370 -0.125000 0.409143
v -0.454829 -0.216506 0.428667
v -0.560864 -0.250000 0.497927
v -0.636761 -0.216506 0.600134
v -0.620256 -0.125000 0.741227
v -0.212056 0.000000 0.977258
v 0.174861 0.125000 0.950557
v 0.488748 0.216506 0.725776
v 0.531612 0.250000 0.529045
v 0.349105 0.216506 0.518411
v 0.096520 0.125000 0.524690
v -0.106028 0.000000 0.488629
v -0.242743 -0.125000 0.475070
v -0.348038 -0.216506 0.519128
v -0.436003 -0.250000 0.610247
v -0.487254 -0.216506 0.726780
v -0.439766 -0.125000 0.860663
v 0.010721 0.000000 0.999943
v 0.381996 0.125000 0.887814
v 0.637994 0.216506 0.598823
v 0.636007 0.250000 0.397486
v 0.455710 0.216506 0.427731
v 0.210855 0.125000 0.490057
v 0.005361 0.000000 0.499971
v -0.130944 -0.125000 0.517174
v -0.223795 -0.216506 0.583559
v -0.289279 -0.250000 0.691967
v -0.313314 -0.216506 0.816982
v -0.237225 -0.125000 0.936941
v 0.232961 0.000000 0.972486
v 0.569976 0.125000 0.780553
v 0.755249 0.216506 0.441842
v 0.708510 0.250000 0.245996
v 0.539463 0.216506 0.315601
v 0.314616 0.125000 0.430851
v 0.116480 0.000000 0.486243
v -0.012579 -0.125000 0.533345
v -0.088330 -0.216506 0.618727
v -0.128049 -0.250000 0.738988
v -0.123662 -0.216506 0.866217
v -0.022788 -0.125000 0.966238
v 0.443519 0.000000 0.896265
v 0.729375 0.125000 0.634151
v 0.834632 0.216506 0.262705
v 0.745485 0.250000 0.082170
v 0.596166 0.216506 0.187647
v 0.402601 0.125000 0.350040
v 0.221759 0.000000 0.448133
v 0.106417 -0.125000 0.522772
v 0.051564 -0.216506 0.622869
v 0.039602 -0.250000 0.748954
v 0.072190 -0.216506 0.872017
v 0.192792 -0.125000 0.947083
v 0.631836 0.000000 0.775102
v 0.852199 0.125000 0.455950
v 0.872164 0.216506 0.070395
v 0.745079 0.250000 -0.085777
v 0.622974 0.216506 0.050282
v 0.470398 0.125000 0.251676
v 0.315918 0.000000 0.387551
v 0.220077 -0.125000 0.485985
v 0.188873 -0.216506 0.595779
v 0.205267 -0.250000 0.721364
v 0.264422 -0.216506 0.834090
v 0.398704 -0.125000 0.880437
v 0.788471 0.000000 0.615071
v 0.932292 0.125000 0.254886
v 0.865961 0.216506 -0.125444
v 0.707311 0.250000 -0.249422
v 0.618544 0.216506 -0.089603
v 0.514608 0.125000 0.140692
v 0.394236 0.000000 0.307536
v 0.322701 -0.125000 0.424829
v 0.316711 -0.216506 0.538813
v 0.360639 -0.250000 0.657601
v 0.443395 -0.216506 0.754338
v 0.584623 -0.125000 0.769643
v 0.905569 0.000000 0.424200
v 0.965635 0.125000 0.041042
v 0.816336 0.216506 -0.314993
v 0.634076 0.250000 -0.400559
v 0.583097 0.216506 -0.224995
v 0.533012 0.125000 0.022655
v 0.452784 0.000000 0.212100
v 0.409143 -0.125000 0.342370
v 0.428667 -0.216506 0.454829
v 0.497927 -0.250000 0.560864
v 0.600133 -0.216506 0.636761
v 0.741227 -0.125000 0.620256
v 0.977258 0.000000 0.212056
v 0.950557 0.125000 -0.174861
v 0.725776 0.216506 -0.488747
v 0.529046 0.250000 -0.531612
v 0.518411 0.216506 -0.349105
v 0.524690 0.125000 -0.096520
v 0.488629 0.000000 0.106028
v 0.475070 -0.125000 0.242743
v 0.519128 -0.216506 0.348039
v 0.610247 -0.250000 0.436003
v 0.726780 -0.216506 0.487254
v 0.860663 -0.125000 0.439767
v 0.999942 0.000000 -0.010721
v 0.887814 0.125000 -0.381996
v 0.598823 0.216506 -0.637994
v 0.397486 0.250000 -0.636007
v 0.427731 0.216506 -0.455710
v 0.490057 0.125000 -0.210855
v 0.499971 0.000000 -0.005360
v 0.517174 -0.125000 0.130944
v 0.583558 -0.216506 0.223796
v 0.691967 -0.250000 0.289279
v 0.816982 -0.216506 0.313314
v 0.936941 -0.125000 0.237225
v 0.972486 0.000000 -0.232960
v 0.780553 0.125000 -0.569975
v 0.441842 0.216506 -0.755249
v 0.245996 0.250000 -0.708510
v 0.315601 0.216506 -0.539463
v 0.430851 0.125000 -0.314616
v 0.486243 0.000000 -0.116480
v 0.533345 -0.125000 0.012579
v 0.618727 -0.216506 0.088330
v 0.738988 -0.250000 0.128049
v 0.866217 -0.216506 0.123663
v 0.966238 -0.125000 0.022788
vn 0.8831 -0.0004 -0.4691
vn 0.5796 0.5031 -0.6411
vn 0.1913 0.8636 -0.4665
vn 0.0034 0.9998 -0.0182
vn -0.1760 0.8774 0.4464
vn -0.5671 0.5165 0.6415
vn -0.8838 -0.0004 0.4678
vn -0.8379 -0.5102 0.1939
vn -0.4833 -0.8742 0.0465
vn 0.0185 -0.9998 -0.0010
vn 0.5112 -0.8582 -0.0468
vn 0.8464 -0.4947 -0.1974
vn 0.7566 -0.0004 -0.6539
vn 0.4224 0.5031 -0.7540
vn 0.0827 0.8636 -0.4974
vn -0.0007 0.9998 -0.0185
vn -0.0722 0.8774 0.4744
vn -0.4102 0.5165 0.7516
vn -0.7576 -0.0004 0.6528
vn -0.7737 -0.5102 0.3755
vn -0.4608 -0.8742 0.1529
vn 0.0178 -0.9998 -0.0051
vn 0.4880 -0.8582 -0.1593
vn 0.7812 -0.4947 -0.3808
vn 0.5921 -0.0004 -0.8058
vn 0.2441 0.5031 -0.8290
vn -0.0301 0.8636 -0.5033
vn -0.0048 0.9998 -0.0178
vn 0.0351 0.8774 0.4785
vn -0.2326 0.5165 0.8241
vn -0.5933 -0.0004 0.8050
vn -0.6708 -0.5102 0.5383
vn -0.4152 -0.8742 0.2516
vn 0.0162 -0.9998 -0.0089
vn 0.4403 -0.8582 -0.2639
vn 0.6769 -0.4947 -0.5451
vn 0.3980 -0.0004 -0.9174
vn 0.0535 0.5031 -0.8626
vn -0.1413 0.8636 -0.4840
vn -0.0087 0.9998 -0.0163
vn 0.1407 0.8774 0.4587
vn -0.0434 0.5165 0.8552
vn -0.3993 -0.0004 0.9168
vn -0.5342 -0.5102 0.6740
vn -0.3488 -0.8742 0.3377
vn 0.0138 -0.9998 -0.0123
vn 0.3705 -0.8582 -0.3553
vn 0.5386 -0.4947 -0.6820
vn 0.1839 -0.0004 -0.9830
vn -0.1398 0.5031 -0.8528
vn -0.2455 0.8636 -0.4404
vn -0.0121 0.9998 -0.0140
vn 0.2393 0.8774 0.4159
vn 0.1480 0.5165 0.8434
vn -0.1853 -0.0004 0.9827
vn -0.3708 -0.5102 0.7760
vn -0.2649 -0.8742 0.4069
vn 0.0107 -0.9998 -0.0151
vn 0.2822 -0.8582 -0.4288
vn 0.3734 -0.4947 -0.7848
vn -0.0395 -0.0004 -0.9992
vn -0.3261 0.5031 -0.8003
vn -0.3373 0.8636 -0.3748
vn -0.0149 0.9998 -0.0109
vn 0.3258 0.8774 0.3522
vn 0.3319 0.5165 0.7893
vn 0.0380 -0.0004 0.9993
vn -0.1888 -0.5102 0.8391
vn -0.1678 -0.8742 0.4556
vn 0.0071 -0.9998 -0.0171
vn 0.1797 -0.8582 -0.4809
vn 0.1894 -0.4947 -0.8482
vn -0.2608 -0.0004 -0.9654
vn -0.4960 0.5031 -0.7077
vn -0.4123 0.8636 -0.2903
vn -0.0170 0.9998 -0.0074
vn 0.3960 0.8774 0.2709
vn 0.4992 0.5165 0.6957
vn 0.2594 -0.0004 0.9658
vn 0.0026 -0.5102 0.8600
vn -0.0622 -0.8742 0.4815
vn 0.0031 -0.9998 -0.0182
vn 0.0682 -0.8582 -0.5088
vn -0.0041 -0.4947 -0.8691
vn -0.4691 -0.0004 -0.8831
vn -0.6411 0.5031 -0.5796
vn -0.4665 0.8636 -0.1913
vn -0.0182 0.9998 -0.0034
vn 0.4464 0.8774 0.1760
vn 0.6415 0.5165 0.5671
vn 0.4678 -0.0004 0.8838
vn 0.1939 -0.5102 0.8379
vn 0.0465 -0.8742 0.4833
vn -0.0010 -0.9998 -0.0185
vn -0.0468 -0.8582 -0.5112
vn -0.1974 -0.4947 -0.8464
vn -0.6539 -0.0004 -0.7566
vn -0.7540 0.5031 -0.4224
vn -0.4974 0.8636 -0.0827
vn -0.0185 0.9998 0.0007
vn 0.4744 0.8774 0.0722
vn 0.7516 0.5165 0.4102
vn 0.6528 -0.0004 0.7576
vn 0.3755 -0.5102 0.7737
vn 0.1529 -0.8742 0.4608
vn -0.0051 -0.9998 -0.0178
vn -0.1593 -0.8582 -0.4880
vn -0.3808 -0.4947 -0.7812
vn -0.8058 -0.0004 -0.5921
vn -0.8290 0.5031 -0.2441
vn -0.5033 0.8636 0.0301
vn -0.0178 0.9998 0.0048
vn 0.4785 0.8774 -0.0351
vn 0.8241 0.5165 0.2326
vn 0.8050 -0.0004 0.5933
vn 0.5383 -0.5102 0.6708
vn 0.2516 -0.8742 0.4152
vn -0.0089 -0.9998 -0.0162
vn -0.2639 -0.8582 -0.4403
vn -0.5451 -0.4947 -0.6769
vn -0.9174 -0.0004 -0.3980
vn -0.8626 0.5031 -0.0535
vn -0.4840 0.8636 0.1413
vn -0.0163 0.9998 0.0087
vn 0.4587 0.8774 -0.1407
vn 0.8552 0.5165 0.0434
vn 0.9168 -0.0004 0.3993
vn 0.6740 -0.5102 0.5342
vn 0.3377 -0.8742 0.3488
vn -0.0123 -0.9998 -0.0138
vn -0.3553 -0.8582 -0.3705
vn -0.6820 -0.4947 -0.5386
vn -0.9830 -0.0004 -0.1839
vn -0.8528 0.5031 0.1398
vn -0.4404 0.8636 0.2455
vn -0.0140 0.9998 0.0121
vn 0.4159 0.8774 -0.2393
vn 0.8434 0.5165 -0.1480
vn 0.9827 -0.0004 0.1853
vn 0.7760 -0.5102 0.3708
vn 0.4069 -0.8742 0.2649
vn -0.0151 -0.9998 -0.0107
vn -0.4288 -0.8582 -0.2822
vn -0.7848 -0.4947 -0.3734
vn -0.9992 -0.0004 0.0395
vn -0.8003 0.5031 0.3261
vn -0.3748 0.8636 0.3373
vn -0.0109 0.9998 0.0149
vn 0.3522 0.8774 -0.3258
vn 0.7893 0.5165 -0.3319
vn 0.9993 -0.0004 -0.0380
vn 0.8391 -0.5102 0.1888
vn 0.4556 -0.8742 0.1678
vn -0.0171 -0.9998 -0.0071
vn -0.4809 -0.8582 -0.1797
vn -0.8482 -0.4947 -0.1894
vn -0.9654 -0.0004 0.2608
vn -0.7077 0.5031 0.4960
vn -0.2903 0.8636 0.4123
vn -0.0074 0.9998 0.0169
vn 0.2709 0.8774 -0.3960
vn 0.6957 0.5165 -0.4992
vn 0.9658 -0.0004 -0.2594
vn 0.8600 -0.5102 -0.0026
vn 0.4815 -0.8742 0.0622
vn -0.0182 -0.9998 -0.0031
vn -0.5088 -0.8582 -0.0682
vn -0.8691 -0.4947 0.0041
vn -0.8831 -0.0004 0.4691
vn -0.5796 0.5031 0.6411
vn -0.1913 0.8636 0.4665
vn -0.0034 0.9998 0.0182
vn 0.1760 0.8774 -0.4464
vn 0.5671 0.5165 -0.6415
vn 0.8838 -0.0004 -0.4678
vn 0.8379 -0.5102 -0.1939
vn 0.4833 -0.8742 -0.0465
vn -0.0185 -0.9998 0.0010
vn -0.5112 -0.8582 0.0468
vn -0.8464 -0.4947 0.1974
vn -0.7566 -0.0004 0.6539
vn -0.4224 0.5031 0.7540
vn -0.0827 0.8636 0.4974
vn 0.0007 0.9998 0.0185
vn 0.0722 0.8774 -0.4744
vn 0.4102 0.5165 -0.7516
vn 0.7576 -0.0004 -0.6528
vn 0.7737 -0.5102 -0.3755
vn 0.4608 -0.8742 -0.1529
vn -0.0178 -0.9998 0.0051
vn -0.4880 -0.8582 0.1593
vn -0.7812 -0.4947 0.3808
vn -0.5921 -0.0004 0.8058
vn -0.2441 0.5031 0.8290
vn 0.0301 0.8636 0.5033
vn 0.0048 0.9998 0.0178
vn -0.0351 0.8774 -0.4785
vn 0.2326 0.5165 -0.8241
vn 0.5933 -0.0004 -0.8050
vn 0.6708 -0.5102 -0.5383
vn 0.4152 -0.8742 -0.2516
vn -0.0162 -0.9998 0.0089
vn -0.4403 -0.8582 0.2639
vn -0.6769 -0.4947 0.5451
vn -0.3980 -0.0004 0.9174
vn -0.0535 0.5031 0.8626
vn 0.1413 0.8636 0.4840
vn 0.0087 0.9998 0.0163
vn -0.1407 0.8774 -0.4587
vn 0.0434 0.5165 -0.8552
vn 0.3993 -0.0004 -0.9168
vn 0.5342 -0.5102 -0.6740
vn 0.3488 -0.8742 -0.3377
vn -0.0138 -0.9998 0.0123
vn -0.3705 -0.8582 0.3553
vn -0.5386 -0.4947 0.6820
vn -0.1839 -0.0004 0.9830
vn 0.1398 0.5031 0.8528
vn 0.2455 0.8636 0.4404
vn 0.0121 0.9998 0.0140
vn -0.2393 0.8774 -0.4159
vn -0.1480 0.5165 -0.8434
vn 0.1853 -0.0004 -0.9827
vn 0.3708 -0.5102 -0.7760
vn 0.2649 -0.8742 -0.4069
vn -0.0107 -0.9998 0.0151
vn -0.2822 -0.8582 0.4288
vn -0.3734 -0.4947 0.7848
vn 0.0395 -0.0004 0.9992
vn 0.3261 0.5031 0.8003
vn 0.3373 0.8636 0.3748
vn 0.0149 0.9998 0.0109
vn -0.3258 0.8774 -0.3522
vn -0.3319 0.5165 -0.7893
vn -0.0380 -0.0004 -0.9993
vn 0.1888 -0.5102 -0.8391
vn 0.1678 -0.8742 -0.4556
vn -0.0071 -0.9998 0.0171
vn -0.1797 -0.8582 0.4809
vn -0.1894 -0.4947 0.8482
vn 0.2608 -0.0004 0.9654
vn 0.4960 0.5031 0.7077
vn 0.4123 0.8636 0.2903
vn 0.0169 0.9998 0.0074
vn -0.3960 0.8774 -0.2709
vn -0.4992 0.5165 -0.6957
vn -0.2594 -0.0004 -0.9658
vn -0.0026 -0.5102 -0.8600
vn 0.0622 -0.8742 -0.4815
vn -0.0031 -0.9998 0.0182
vn -0.0682 -0.8582 0.5088
vn 0.0041 -0.4947 0.8691
vn 0.4691 -0.0004 0.8831
vn 0.6411 0.5031 0.5796
vn 0.4665 0.8636 0.1913
vn 0.0182 0.9998 0.0034
vn -0.4464 0.8774 -0.1760
vn -0.6415 0.5165 -0.5671
vn -0.4678 -0.0004 -0.8838
vn -0.1939 -0.5102 -0.8379
vn -0.0465 -0.8742 -0.4833
vn 0.0010 -0.9998 0.0185
vn 0.0468 -0.8582 0.5112
vn 0.1974 -0.4947 0.8464
vn 0.6539 -0.0004 0.7566
vn 0.7540 0.5031 0.4224
vn 0.4974 0.8636 0.0827
vn 0.0185 0.9998 -0.0007
vn -0.4744 0.8774 -0.0722
vn -0.7516 0.5165 -0.4102
vn -0.6528 -0.0004 -0.7576
vn -0.3755 -0.5102 -0.7737
vn -0.1529 -0.8742 -0.4608
vn 0.0051 -0.9998 0.0178
vn 0.1593 -0.8582 0.4880
vn 0.3808 -0.4947 0.7812
vn 0.8058 -0.0004 0.5921
vn 0.8290 0.5031 0.2441
vn 0.5033 0.8636 -0.0301
vn 0.0178 0.9998 -0.0048
vn -0.4785 0.8774 0.0351
vn -0.8241 0.5165 -0.2326
vn -0.8050 -0.0004 -0.5933
vn -0.5383 -0.5102 -0.6708
vn -0.2516 -0.8742 -0.4152
vn 0.0089 -0.9998 0.0162
vn 0.2639 -0.8582 0.4403
vn 0.5451 -0.4947 0.6769
vn 0.9174 -0.0004 0.3980
vn 0.8626 0.5031 0.0535
vn 0.4840 0.8636 -0.1413
vn 0.0163 0.9998 -0.0087
vn -0.4587 0.8774 0.1407
vn -0.8552 0.5165 -0.0434
vn -0.9168 -0.0004 -0.3993
vn -0.6740 -0.5102 -0.5342
vn -0.3377 -0.8742 -0.3488
vn 0.0123 -0.9998 0.0138
vn 0.3553 -0.8582 0.3705
vn 0.6820 -0.4947 0.5386
vn 0.9830 -0.0004 0.1839
vn 0.8528 0.5031 -0.1398
vn 0.4404 0.8636 -0.2455
vn 0.0140 0.9998 -0.0121
vn -0.4159 0.8774 0.2393
vn -0.8434 0.5165 0.1480
vn -0.9827 -0.0004 -0.1853
vn -0.7760 -0.5102 -0.3708
vn -0.4069 -0.8742 -0.2649
vn 0.0151 -0.9998 0.0107
vn 0.4288 -0.8582 0.2822
vn 0.7848 -0.4947 0.3734
vn 0.9992 -0.0004 -0.0395
vn 0.8003 0.5031 -0.3261
vn 0.3748 0.8636 -0.3373
vn 0.0109 0.9998 -0.0149
vn -0.3522 0.8774 0.3258
vn -0.7893 0.5165 0.3319
vn -0.9993 -0.0004 0.0380
vn -0.8391 -0.5102 -0.1888
vn -0.4556 -0.8742 -0.1678
vn 0.0171 -0.9998 0.0071
vn 0.4809 -0.8582 0.1797
vn 0.8482 -0.4947 0.1894
vn 0.9654 -0.0004 -0.2608
vn 0.7077 0.5031 -0.4960
vn 0.2903 0.8636 -0.4123
vn 0.0074 0.9998 -0.0170
vn -0.2709 0.8774 0.3960
vn -0.6957 0.5165 0.4992
vn -0.9658 -0.0004 0.2594
vn -0.8600 -0.5102 0.0026
vn -0.4815 -0.8742 -0.0622
vn 0.0182 -0.9998 0.0031
vn 0.5088 -0.8582 0.0682
vn 0.8691 -0.4947 -0.0041
vt 0.500000 0.500000
vt 0.535714 0.500000
vt 0.535714 0.583333
vt 0.500000 0.583333
vt 0.535714 0.666667
vt 0.500000 0.666667
vt 0.535714 0.750000
vt 0.500000 0.750000
vt 0.535714 0.833333
vt 0.500000 0.833333
vt 0.535714 0.916667
vt 0.500000 0.916667
vt 0.535714 1.000000
vt 0.500000 1.000000
vt 0.500000 0.000000
vt 0.535714 0.000000
vt 0.535714 0.083333
vt 0.500000 0.083333
vt 0.535714 0.166667
vt 0.500000 0.166667
vt 0.535714 0.250000
vt 0.500000 0.250000
vt 0.535714 0.333333
vt 0.500000 0.333333
vt 0.535714 0.416667
vt 0.500000 0.416667
vt 0.571429 0.500000
vt 0.571429 0.583333
vt 0.571429 0.666667
vt 0.571429 0.750000
vt 0.571429 0.833333
vt 0.571429 0.916667
vt 0.571429 1.000000
vt 0.571429 0.000000
vt 0.571429 0.083333
vt 0.571429 0.166667
vt 0.571429 0.250000
vt 0.571429 0.333333
vt 0.571429 0.416667
vt 0.607143 0.500000
vt 0.607143 0.583333
vt 0.607143 0.666667
vt 0.607143 0.750000
vt 0.607143 0.833333
vt 0.607143 0.916667
vt 0.607143 1.000000
vt 0.607143 0.000000
vt 0.607143 0.083333
vt 0.607143 0.166667
vt 0.607143 0.250000
vt 0.607143 0.333333
vt 0.607143 0.416667
vt 0.642857 0.500000
vt 0.642857 0.583333
vt 0.642857 0.666667
vt 0.642857 0.750000
vt 0.642857 0.833333
vt 0.642857 0.916667
vt 0.642857 1.000000
vt 0.642857 0.000000
vt 0.642857 0.083333
vt 0.642857 0.166667
vt 0.642857 0.250000
vt 0.642857 0.333333
vt 0.642857 0.416667
vt 0.678571 0.500000
vt 0.678571 0.583333
vt 0.678571 0.666667
vt 0.678571 0.750000
vt 0.678571 0.833333
vt 0.678571 0.916667
vt 0.678571 1.000000
vt 0.678571 0.000000
vt 0.678571 0.083333
vt 0.678571 0.166667
vt 0.678571 0.250000
vt 0.678571 0.333333
vt 0.678571 0.416667
vt 0.714286 0.500000
vt 0.714286 0.583333
vt 0.714286 0.666667
vt 0.714286 0.750000
vt 0.714286 0.833333
vt 0.714286 0.916667
vt 0.714286 1.000000
vt 0.714286 0.000000
vt 0.714286 0.083333
vt 0.714286 0.166667
vt 0.714286 0.250000
vt 0.714286 0.333333
vt 0.714286 0.416667
vt 0.750000 0.500000
vt 0.750000 0.583333
vt 0.750000 0.666667
vt 0.750000 0.750000
vt 0.750000 0.833333
vt 0.750000 0.916667
vt 0.750000 1.000000
vt 0.750000 0.000000
vt 0.750000 0.083333
vt 0.750000 0.166667
vt 0.750000 0.250000
vt 0.750000 0.333333
vt 0.750000 0.416667
vt 0.785714 0.500000
vt 0.785714 0.583333
vt 0.785714 0.666667
vt 0.785714 0.750000
vt 0.785714 0.833333
vt 0.785714 0.916667
vt 0.785714 1.000000
vt 0.785714 0.000000
vt 0.785714 0.083333
vt 0.785714 0.166667
vt 0.785714 0.250000
vt 0.785714 0.333333
vt 0.785714 0.416667
vt 0.821429 0.500000
vt 0.821429 0.583333
vt 0.821429 0.666667
vt 0.821429 0.750000
vt 0.821429 0.833333
vt 0.821429 0.916667
vt 0.821429 1.000000
vt 0.821429 0.000000
vt 0.821429 0.083333
vt 0.821429 0.166667
vt 0.821429 0.250000
vt 0.821429 0.333333
vt 0.821429 0.416667
vt 0.857143 0.500000
vt 0.857143 0.583333
vt 0.857143 0.666667
vt 0.857143 0.750000
vt 0.857143 0.833333
vt 0.857143 0.916667
vt 0.857143 1.000000
vt 0.857143 0.000000
vt 0.857143 0.083333
vt 0.857143 0.166667
vt 0.857143 0.250000
vt 0.857143 0.333333
vt 0.857143 0.416667
vt 0.892857 0.500000
vt 0.892857 0.583333
vt 0.892857 0.666667
vt 0.892857 0.750000
vt 0.892857 0.833333
vt 0.892857 0.916667
vt 0.892857 1.000000
vt 0.892857 0.000000
vt 0.892857 0.083333
vt 0.892857 0.166667
vt 0.892857 0.250000
vt 0.892857 0.333333
vt 0.892857 0.416667
vt 0.928571 0.500000
vt 0.928571 0.583333
vt 0.928571 0.666667
vt 0.928571 0.750000
vt 0.928571 0.833333
vt 0.928571 0.916667
vt 0.928571 1.000000
vt 0.928571 0.000000
vt 0.928571 0.083333
vt 0.928571 0.166667
vt 0.928571 0.250000
vt 0.928571 0.333333
vt 0.928571 0.416667
vt 0.964286 0.500000
vt 0.964286 0.583333
vt 0.964286 0.666667
vt 0.964286 0.750000
vt 0.964286 0.833333
vt 0.964286 0.916667
vt 0.964286 1.000000
vt 0.964286 0.000000
vt 0.964286 0.083333
vt 0.964286 0.166667
vt 0.964286 0.250000
vt 0.964286 0.333333
vt 0.964286 0.416667
vt 1.000000 0.500000
vt 1.000000 0.583333
vt 1.000000 0.666667
vt 1.000000 0.750000
vt 1.000000 0.833333
vt 1.000000 0.916667
vt 1.000000 1.000000
vt 1.000000 0.000000
vt 1.000000 0.083333
vt 1.000000 0.166667
vt 1.000000 0.250000
vt 1.000000 0.333333
vt 1.000000 0.416667
vt -0.000000 0.500000
vt 0.035714 0.500000
vt 0.035714 0.583333
vt -0.000000 0.583333
vt 0.035714 0.666667
vt -0.000000 0.666667
vt 0.035714 0.750000
vt -0.000000 0.750000
vt 0.035714 0.833333
vt -0.000000 0.833333
vt 0.035714 0.916667
vt -0.000000 0.916667
vt 0.035714 1.000000
vt -0.000000 1.000000
vt -0.000000 0.000000
vt 0.035714 0.000000
vt 0.035714 0.083333
vt -0.000000 0.083333
vt 0.035714 0.166667
vt -0.000000 0.166667
vt 0.035714 0.250000
vt -0.000000 0.250000
vt 0.035714 0.333333
vt -0.000000 0.333333
vt 0.035714 0.416667
vt -0.000000 0.416667
vt 0.071429 0.500000
vt 0.071429 0.583333
vt 0.071429 0.666667
vt 0.071429 0.750000
vt 0.071429 0.833333
vt 0.071429 0.916667
vt 0.071429 1.000000
vt 0.071429 0.000000
vt 0.071429 0.083333
vt 0.071429 0.166667
vt 0.071429 0.250000
vt 0.071429 0.333333
vt 0.071429 0.416667
vt 0.107143 0.500000
vt 0.107143 0.583333
vt 0.107143 0.666667
vt 0.107143 0.750000
vt 0.107143 0.833333
vt 0.107143 0.916667
vt 0.107143 1.000000
vt 0.107143 0.000000
vt 0.107143 0.083333
vt 0.107143 0.166667
vt 0.107143 0.250000
vt 0.107143 0.333333
vt 0.107143 0.416667
vt 0.142857 0.500000
vt 0.142857 0.583333
vt 0.142857 0.666667
vt 0.142857 0.750000
vt 0.142857 0.833333
vt 0.142857 0.916667
vt 0.142857 1.000000
vt 0.142857 0.000000
vt 0.142857 0.083333
vt 0.142857 0.166667
vt 0.142857 0.250000
vt 0.142857 0.333333
vt 0.142857 0.416667
vt 0.178571 0.500000
vt 0.178571 0.583333
vt 0.178571 0.666667
vt 0.178571 0.750000
vt 0.178571 0.833333
vt 0.178571 0.916667
vt 0.178571 1.000000
vt 0.178571 0.000000
vt 0.178571 0.083333
vt 0.178571 0.166667
vt 0.178571 0.250000
vt 0.178571 0.333333
vt 0.178571 0.416667
vt 0.214286 0.500000
vt 0.214286 0.583333
vt 0.214286 0.666667
vt 0.214286 0.750000
vt 0.214286 0.833333
vt 0.214286 0.916667
vt 0.214286 1.000000
vt 0.214286 0.000000
vt 0.214286 0.083333
vt 0.214286 0.166667
vt 0.214286 0.250000
vt 0.214286 0.333333
vt 0.214286 0.416667
vt 0.250000 0.500000
vt 0.250000 0.583333
vt 0.250000 0.666667
vt 0.250000 0.750000
vt 0.250000 0.833333
vt 0.250000 0.916667
vt 0.250000 1.000000
vt 0.250000 0.000000
vt 0.250000 0.083333
vt 0.250000 0.166667
vt 0.250000 0.250000
vt 0.250000 0.333333
vt 0.250000 0.416667
vt 0.285714 0.500000
vt 0.285714 0.583333
vt 0.285714 0.666667
vt 0.285714 0.750000
vt 0.285714 0.833333
vt 0.285714 0.916667
vt 0.285714 1.000000
vt 0.285714 0.000000
vt 0.285714 0.083333
vt 0.285714 0.166667
vt 0.285714 0.250000
vt 0.285714 0.333333
vt 0.285714 0.416667
vt 0.321429 0.500000
vt 0.321429 0.583333
vt 0.321429 0.666667
vt 0.321429 0.750000
vt 0.321429 0.833333
vt 0.321429 0.916667
vt 0.321429 1.000000
vt 0.321429 0.000000
vt 0.321429 0.083333
vt 0.321429 0.166667
vt 0.321429 0.250000
vt 0.321429 0.333333
vt 0.321429 0.416667
vt 0.357143 0.500000
vt 0.357143 0.583333
vt 0.357143 0.666667
vt 0.357143 0.750000
vt 0.357143 0.833333
vt 0.357143 0.916667
vt 0.357143 1.000000
vt 0.357143 0.000000
vt 0.357143 0.083333
vt 0.357143 0.166667
vt 0.357143 0.250000
vt 0.357143 0.333333
vt 0.357143 0.416667
vt 0.392857 0.500000
vt 0.392857 0.583333
vt 0.392857 0.666667
vt 0.392857 0.750000
vt 0.392857 0.833333
vt 0.392857 0.916667
vt 0.392857 1.000000
vt 0.392857 0.000000
vt 0.392857 0.083333
vt 0.392857 0.166667
vt 0.392857 0.250000
vt 0.392857 0.333333
vt 0.392857 0.416667
vt 0.428571 0.500000
vt 0.428571 0.583333
vt 0.428571 0.666667
vt 0.428571 0.750000
vt 0.428571 0.833333
vt 0.428571 0.916667
vt 0.428571 1.000000
vt 0.428571 0.000000
vt 0.428571 0.083333
vt 0.428571 0.166667
vt 0.428571 0.250000
vt 0.428571 0.333333
vt 0.428571 0.416667
vt 0.464286 0.500000
vt 0.464286 0.583333
vt 0.464286 0.666667
vt 0.464286 0.750000
vt 0.464286 0.833333
vt 0.464286 0.916667
vt 0.464286 1.000000
vt 0.464286 0.000000
vt 0.464286 0.083333
vt 0.464286 0.166667
vt 0.464286 0.250000
vt 0.464286 0.333333
vt 0.464286 0.416667
s 1
f 1/1/1 13/2/13 14/3/14 2/4/2
f 2/4/2 14/3/14 15/5/15 3/6/3
f 3/6/3 15/5/15 16/7/16 4/8/4
f 4/8/4 16/7/16 17/9/17 5/10/5
f 5/10/5 17/9/17 18/11/18 6/12/6
f 6/12/6 18/11/18 19/13/19 7/14/7
f 7/15/7 19/16/19 20/17/20 8/18/8
f 8/18/8 20/17/20 21/19/21 9/20/9
f 9/20/9 21/19/21 22/21/22 10/22/10
f 10/22/10 22/21/22 23/23/23 11/24/11
f 11/24/11 23/23/23 24/25/24 12/26/12
f 12/26/12 24/25/24 13/2/13 1/1/1
f 13/2/13 25/27/25 26/28/26 14/3/14
f 14/3/14 26/28/26 27/29/27 15/5/15
f 15/5/15 27/29/27 28/30/28 16/7/16
f 16/7/16 28/30/28 29/31/29 17/9/17
f 17/9/17 29/31/29 30/32/30 18/11/18
f 18/11/18 30/32/30 31/33/31 19/13/19
f 19/16/19 31/34/31 32/35/32 20/17/20
f 20/17/20 32/35/32 33/36/33 21/19/21
f 21/19/21 33/36/33 34/37/34 22/21/22
f 22/21/22 34/37/34 35/38/35 23/23/23
f 23/23/23 35/38/35 36/39/36 24/25/24
f 24/25/24 36/39/36 25/27/25 13/2/13
f 25/27/25 37/40/37 38/41/38 26/28/26
f 26/28/26 38/41/38 39/42/39 27/29/27
f 27/29/27 39/42/39 40/43/40 28/30/28
f 28/30/28 40/43/40 41/44/41 29/31/29
f 29/31/29 41/44/41 42/45/42 30/32/30
f 30/32/30 42/45/42 43/46/43 31/33/31
f 31/34/31 43/47/43 44/48/44 32/35/32
f 32/35/32 44/48/44 45/49/45 33/36/33
f 33/36/33 45/49/45 46/50/46 34/37/34
f 34/37/34 46/50/46 47/51/47 35/38/35
f 35/38/35 47/51/47 48/52/48 36/39/36
f 36/39/36 48/52/48 37/40/37 25/27/25
f 37/40/37 49/53/49 50/54/50 38/41/38
f 38/41/38 50/54/50 51/55/51 39/42/39
f 39/42/39 51/55/51 52/56/52 40/43/40
f 40/43/40 52/56/52 53/57/53 41/44/41
f 41/44/41 53/57/53 54/58/54 42/45/42
f 42/45/42 54/58/54 55/59/55 43/46/43
f 43/47/43 55/60/55 56/61/56 44/48/44
f 44/48/44 56/61/56 57/62/57 45/49/45
f 45/49/45 57/62/57 58/63/58 46/50/46
f 46/50/46 58/63/58 59/64/59 47/51/47
f 47/51/47 59/64/59 60/65/60 48/52/48
f 48/52/48 60/65/60 49/53/49 37/40/37
f 49/53/49 61/66/61 62/67/62 50/54/50
f 50/54/50 62/67/62 63/68/63 51/55/51
f 51/55/51 63/68/63 64/69/64 52/56/52
f 52/56/52 64/69/64 65/70/65 53/57/53
f 53/57/53 65/70/65 66/71/66 54/58/54
f 54/58/54 66/71/66 67/72/67 55/59/55
f 55/60/55 67/73/67 68/74/68 56/61/56
f 56/61/56 68/74/68 69/75/69 57/62/57
f 57/62/57 69/75/69 70/76/70 58/63/58
f 58/63/58 70/76/70 71/77/71 59/64/59
f 59/64/59 71/77/71 72/78/72 60/65/60
f 60/65/60 72/78/72 61/66/61 49/53/49
f 61/66/61 73/79/73 74/80/74 62/67/62
f 62/67/62 74/80/74 75/81/75 63/68/63
f 63/68/63 75/81/75 76/82/76 64/69/64
f 64/69/64 76/82/76 77/83/77 65/70/65
f 65/70/65 77/83/77 78/84/78 66/71/66
f 66/71/66 78/84/78 79/85/79 67/72/67
f 67/73/67 79/86/79 80/87/80 68/74/68
f 68/74/68 80/87/80 81/88/81 69/75/69
f 69/75/69 81/88/81 82/89/82 70/76/70
f 70/76/70 82/89/82 83/90/83 71/77/71
f 71/77/71 83/90/83 84/91/84 72/78/72
f 72/78/72 84/91/84 73/79/73 61/66/61
f 73/79/73 85/92/85 86/93/86 74/80/74
f 74/80/74 86/93/86 87/94/87 75/81/75
f 75/81/75 87/94/87 88/95/88 76/82/76
f 76/82/76 88/95/88 89/96/89 77/83/77
f 77/83/77 89/96/89 90/97/90 78/84/78
f 78/84/78 90/97/90 91/98/91 79/85/79
f 79/86/79 91/99/91 92/100/92 80/87/80
f 80/87/80 92/100/92 93/101/93 81/88/81
f 81/88/81 93/101/93 94/102/94 82/89/82
f 82/89/82 94/102/94 95/103/95 83/90/83
f 83/90/83 95/103/95 96/104/96 84/91/84
f 84/91/84 96/104/96 85/92/85 73/79/73
f 85/92/85 97/105/97 98/106/98 86/93/86
f 86/93/86 98/106/98 99/107/99 87/94/87
f 87/94/87 99/107/99 100/108/100 88/95/88
f 88/95/88 100/108/100 101/109/101 89/96/89
f 89/96/89 101/109/101 102/110/102 90/97/90
f 90/97/90 102/110/102 103/111/103 91/98/91
f 91/99/91 103/112/103 104/113/104 92/100/92
f 92/100/92 104/113/104 105/114/105 93/101/93
f 93/101/93 105/114/105 106/115/106 94/102/94
f 94/102/94 106/115/106 107/116/107 95/103/95
f 95/103/95 107/116/107 108/117/108 96/104/96
f 96/104/96 108/117/108 97/105/97 85/92/85
f 97/105/97 109/118/109 110/119/110 98/106/98
f 98/106/98 110/119/110 111/120/111 99/107/99
f 99/107/99 111/120/111 112/121/112 100/108/100
f 100/108/100 112/121/112 113/122/113 101/109/101
f 101/109/101 113/122/113 114/123/114 102/110/102
f 102/110/102 114/123/114 115/124/115 103/111/103
f 103/112/103 115/125/115 116/126/116 104/113/104
f 104/113/104 116/126/116 117/127/117 105/114/105
f 105/114/105 117/127/117 118/128/118 106/115/106
f 106/115/106 118/128/118 119/129/119 107/116/107
f 107/116/107 119/129/119 120/130/120 108/117/108
f 108/117/108 120/130/120 109/118/109 97/105/97
f 109/118/109 121/131/121 122/132/122 110/119/110
f 110/119/110 122/132/122 123/133/123 111/120/111
f 111/120/111 123/133/123 124/134/124 112/121/112
f 112/121/112 124/134/124 125/135/125 113/122/113
f 113/122/113 125/135/125 126/136/126 114/123/114
f 114/123/114 126/136/126 127/137/127 115/124/115
f 115/125/115 127/138/127 128/139/128 116/126/116
f 116/126/116 128/139/128 129/140/129 117/127/117
f 117/127/117 129/140/129 130/141/130 118/128/118
f 118/128/118 130/141/130 131/142/131 119/129/119
f 119/129/119 131/142/131 132/143/132 120/130/120
f 120/130/120 132/143/132 121/131/121 109/118/109
f 121/131/121 133/144/133 134/145/134 122/132/122
f 122/132/122 134/145/134 135/146/135 123/133/123
f 123/133/123 135/146/135 136/147/136 124/134/124
f 124/134/124 136/147/136 137/148/137 125/135/125
f 125/135/125 137/148/137 138/149/138 126/136/126
f 126/136/126 138/149/138 139/150/139 127/137/127
f 127/138/127 139/151/139 140/152/140 128/139/128
f 128/139/128 140/152/140 141/153/141 129/140/129
f 129/140/129 141/153/141 142/154/142 130/141/130
f 130/141/130 142/154/142 143/155/143 131/142/131
f 131/142/131 143/155/143 144/156/144 132/143/132
f 132/143/132 144/156/144 133/144/133 121/131/121
f 133/144/133 145/157/145 146/158/146 134/145/134
f 134/145/134 146/158/146 147/159/147 135/146/135
f 135/146/135 147/159/147 148/160/148 136/147/136
f 136/147/136 148/160/148 149/161/149 137/148/137
f 137/148/137 149/161/149 150/162/150 138/149/138
f 138/149/138 150/162/150 151/163/151 139/150/139
f 139/151/139 151/164/151 152/165/152 140/152/140
f 140/152/140 152/165/152 153/166/153 141/153/141
f 141/153/141 153/166/153 154/167/154 142/154/142
f 142/154/142 154/167/154 155/168/155 143/155/143
f 143/155/143 155/168/155 156/169/156 144/156/144
f 144/156/144 156/169/156 145/157/145 133/144/133
f 145/157/145 157/170/157 158/171/158 146/158/146
f 146/158/146 158/171/158 159/172/159 147/159/147
f 147/159/147 159/172/159 160/173/160 148/160/148
f 148/160/148 160/173/160 161/174/161 149/161/149
f 149/161/149 161/174/161 162/175/162 150/162/150
f 150/162/150 162/175/162 163/176/163 151/163/151
f 151/164/151 163/177/163 164/178/164 152/165/152
f 152/165/152 164/178/164 165/179/165 153/166/153
f 153/166/153 165/179/165 166/180/166 154/167/154
f 154/167/154 166/180/166 167/181/167 155/168/155
f 155/168/155 167/181/167 168/182/168 156/169/156
f 156/169/156 168/182/168 157/170/157 145/157/145
f 157/170/157 169/183/169 170/184/170 158/171/158
f 158/171/158 170/184/170 171/185/171 159/172/159
f 159/172/159 171/185/171 172/186/172 160/173/160
f 160/173/160 172/186/172 173/187/173 161/174/161
f 161/174/161 173/187/173 174/188/174 162/175/162
f 162/175/162 174/188/174 175/189/175 163/176/163
f 163/177/163 175/190/175 176/191/176 164/178/164
f 164/178/164 176/191/176 177/192/177 165/179/165
f 165/179/165 177/192/177 178/193/178 166/180/166
f 166/180/166 178/193/178 179/194/179 167/181/167
f 167/181/167 179/194/179 180/195/180 168/182/168
f 168/182/168 180/195/180 169/183/169 157/170/157
f 169/196/169 181/197/181 182/198/182 170/199/170
f 170/199/170 182/198/182 183/200/183 171/201/171
f 171/201/171 183/200/183 184/202/184 172/203/172
f 172/203/172 184/202/184 185/204/185 173/205/173
f 173/205/173 185/204/185 186/206/186 174/207/174
f 174/207/174 186/206/186 187/208/187 175/209/175
f 175/210/175 187/211/187 188/212/188 176/213/176
f 176/213/176 188/212/188 189/214/189 177/215/177
f 177/215/177 189/214/189 190/216/190 178/217/178
f 178/217/178 190/216/190 191/218/191 179/219/179
f 179/219/179 191/218/191 192/220/192 180/221/180
f 180/221/180 192/220/192 181/197/181 169/196/169
f 181/197/181 193/222/193 194/223/194 182/198/182
f 182/198/182 194/223/194 195/224/195 183/200/183
f 183/200/183 195/224/195 196/225/196 184/202/184
f 184/202/184 196/225/196 197/226/197 185/204/185
f 185/204/185 197/226/197 198/227/198 186/206/186
f 186/206/186 198/227/198 199/228/199 187/208/187
f 187/211/187 199/229/199 200/230/200 188/212/188
f 188/212/188 200/230/200 201/231/201 189/214/189
f 189/214/189 201/231/201 202/232/202 190/216/190
f 190/216/190 202/232/202 203/233/203 191/218/191
f 191/218/191 203/233/203 204/234/204 192/220/192
f 192/220/192 204/234/204 193/222/193 181/197/181
f 193/222/193 205/235/205 206/236/206 194/223/194
f 194/223/194 206/236/206 207/237/207 195/224/195
f 195/224/195 207/237/207 208/238/208 196/225/196
f 196/225/196 208/238/208 209/239/209 197/226/197
f 197/226/197 209/239/209 210/240/210 198/227/198
f 198/227/198 210/240/210 211/241/211 199/228/199
f 199/229/199 211/242/211 212/243/212 200/230/200
f 200/230/200 212/243/212 213/244/213 201/231/201
f 201/231/201 213/244/213 214/245/214 202/232/202
f 202/232/202 214/245/214 215/246/215 203/233/203
f 203/233/203 215/246/215 216/247/216 204/234/204
f 204/234/204 216/247/216 205/235/205 193/222/193
f 205/235/205 217/248/217 218/249/218 206/236/206
f 206/236/206 218/249/218 219/250/219 207/237/207
f 207/237/207 219/250/219 220/251/220 208/238/208
f 208/238/208 220/251/220 221/252/221 209/239/209
f 209/239/209 221/252/221 222/253/222 210/240/210
f 210/240/210 222/253/222 223/254/223 211/241/211
f 211/242/211 223/255/223 224/256/224 212/243/212
f 212/243/212 224/256/224 225/257/225 213/244/213
f 213/244/213 225/257/225 226/258/226 214/245/214
f 214/245/214 226/258/226 227/259/227 215/246/215
f 215/246/215 227/259/227 228/260/228 216/247/216
f 216/247/216 228/260/228 217/248/217 205/235/205
f 217/248/217 229/261/229 230/262/230 218/249/218
f 218/249/218 230/262/230 231/263/231 219/250/219
f 219/250/219 231/263/231 232/264/232 220/251/220
f 220/251/220 232/264/232 233/265/233 221/252/221
f 221/252/221 233/265/233 234/266/234 222/253/222
f 222/253/222 234/266/234 235/267/235 223/254/223
f 223/255/223 235/268/235 236/269/236 224/256/224
f 224/256/224 236/269/236 237/270/237 225/257/225
f 225/257/225 237/270/237 238/271/238 226/258/226
f 226/258/226 238/271/238 239/272/239 227/259/227
f 227/259/227 239/272/239 240/273/240 228/260/228
f 228/260/228 240/273/240 229/261/229 217/248/217
f 229/261/229 241/274/241 242/275/242 230/262/230
f 230/262/230 242/275/242 243/276/243 231/263/231
f 231/263/231 243/276/243 244/277/244 232/264/232
f 232/264/232 244/277/244 245/278/245 233/265/233
f 233/265/233 245/278/245 246/279/246 234/266/234
f 234/266/234 246/279/246 247/280/247 235/267/235
f 235/268/235 247/281/247 248/282/248 236/269/236
f 236/269/236 248/282/248 249/283/249 237/270/237
f 237/270/237 249/283/249 250/284/250 238/271/238
f 238/271/238 250/284/250 251/285/251 239/272/239
f 239/272/239 251/285/251 252/286/252 240/273/240
f 240/273/240 252/286/252 241/274/241 229/261/229
f 241/274/241 253/287/253 254/288/254 242/275/242
f 242/275/242 254/288/254 255/289/255 243/276/243
f 243/276/243 255/289/255 256/290/256 244/277/244
f 244/277/244 256/290/256 257/291/257 245/278/245
f 245/278/245 257/291/257 258/292/258 246/279/246
f 246/279/246 258/292/258 259/293/259 247/280/247
f 247/281/247 259/294/259 260/295/260 248/282/248
f 248/282/248 260/295/260 261/296/261 249/283/249
f 249/283/249 261/296/261 262/297/262 250/284/250
f 250/284/250 262/297/262 263/298/263 251/285/251
f 251/285/251 263/298/263 264/299/264 252/286/252
f 252/286/252 264/299/264 253/287/253 241/274/241
f 253/287/253 265/300/265 266/301/266 254/288/254
f 254/288/254 266/301/266 267/302/267 255/289/255
f 255/289/255 267/302/267 268/303/268 256/290/256
f 256/290/256 268/303/268 269/304/269 257/291/257
f 257/291/257 269/304/269 270/305/270 258/292/258
f 258/292/258 270/305/270 271/306/271 259/293/259
f 259/294/259 271/307/271 272/308/272 260/295/260
f 260/295/260 272/308/272 273/309/273 261/296/261
f 261/296/261 273/309/273 274/310/274 262/297/262
f 262/297/262 274/310/274 275/311/275 263/298/263
f 263/298/263 275/311/275 276/312/276 264/299/264
f 264/299/264 276/312/276 265/300/265 253/287/253
f 265/300/265 277/313/277 278/314/278 266/301/266
f 266/301/266 278/314/278 279/315/279 267/302/267
f 267/302/267 279/315/279 280/316/280 268/303/268
f 268/303/268 280/316/280 281/317/281 269/304/269
f 269/304/269 281/317/281 282/318/282 270/305/270
f 270/305/270 282/318/282 283/319/283 271/306/271
f 271/307/271 283/320/283 284/321/284 272/308/272
f 272/308/272 284/321/284 285/322/285 273/309/273
f 273/309/273 285/322/285 286/323/286 274/310/274
f 274/310/274 286/323/286 287/324/287 275/311/275
f 275/311/275 287/324/287 288/325/288 276/312/276
f 276/312/276 288/325/288 277/313/277 265/300/265
f 277/313/277 289/326/289 290/327/290 278/314/278
f 278/314/278 290/327/290 291/328/291 279/315/279
f 279/315/279 291/328/291 292/329/292 280/316/280
f 280/316/280 292/329/292 293/330/293 281/317/281
f 281/317/281 293/330/293 294/331/294 282/318/282
f 282/318/282 294/331/294 295/332/295 283/319/283
f 283/320/283 295/333/295 296/334/296 284/321/284
f 284/321/284 296/334/296 297/335/297 285/322/285
f 285/322/285 297/335/297 298/336/298 286/323/286
f 286/323/286 298/336/298 299/337/299 287/324/287
f 287/324/287 299/337/299 300/338/300 288/325/288
f 288/325/288 300/338/300 289/326/289 277/313/277
f 289/326/289 301/339/301 302/340/302 290/327/290
f 290/327/290 302/340/302 303/341/303 291/328/291
f 291/328/291 303/341/303 304/342/304 292/329/292
f 292/329/292 304/342/304 305/343/305 293/330/293
f 293/330/293 305/343/305 306/344/306 294/331/294
f 294/331/294 306/344/306 307/345/307 295/332/295
f 295/333/295 307/346/307 308/347/308 296/334/296
f 296/334/296 308/347/308 309/348/309 297/335/297
f 297/335/297 309/348/309 310/349/310 298/336/298
f 298/336/298 310/349/310 311/350/311 299/337/299
f 299/337/299 311/350/311 312/351/312 300/338/300
f 300/338/300 312/351/312 301/339/301 289/326/289
f 301/339/301 313/352/313 314/353/314 302/340/302
f 302/340/302 314/353/314 315/354/315 303/341/303
f 303/341/303 315/354/315 316/355/316 304/342/304
f 304/342/304 316/355/316 317/356/317 305/343/305
f 305/343/305 317/356/317 318/357/318 306/344/306
f 306/344/306 318/357/318 319/358/319 307/345/307
f 307/346/307 319/359/319 320/360/320 308/347/308
f 308/347/308 320/360/320 321/361/321 309/348/309
f 309/348/309 321/361/321 322/362/322 310/349/310
f 310/349/310 322/362/322 323/363/323 311/350/311
f 311/350/311 323/363/323 324/364/324 312/351/312
f 312/351/312 324/364/324 313/352/313 301/339/301
f 313/352/313 325/365/325 326/366/326 314/353/314
f 314/353/314 326/366/326 327/367/327 315/354/315
f 315/354/315 327/367/327 328/368/328 316/355/316
f 316/355/316 328/368/328 329/369/329 317/356/317
f 317/356/317 329/369/329 330/370/330 318/357/318
f 318/357/318 330/370/330 331/371/331 319/358/319
f 319/359/319 331/372/331 332/373/332 320/360/320
f 320/360/320 332/373/332 333/374/333 321/361/321
f 321/361/321 333/374/333 334/375/334 322/362/322
f 322/362/322 334/375/334 335/376/335 323/363/323
f 323/363/323 335/376/335 336/377/336 324/364/324
f 324/364/324 336/377/336 325/365/325 313/352/313
f 325/365/325 1/1/1 2/4/2 326/366/326
f 326/366/326 2/4/2 3/6/3 327/367/327
f 327/367/327 3/6/3 4/8/4 328/368/328
f 328/368/328 4/8/4 5/10/5 329/369/329
f 329/369/329 5/10/5 6/12/6 330/370/330
f 330/370/330 6/12/6 7/14/7 331/371/331
f 331/372/331 7/15/7 8/18/8 332/373/332
f 332/373/332 8/18/8 9/20/9 333/374/333
f 333/374/333 9/20/9 10/22/10 334/375/334
f 334/375/334 10/22/10 11/24/11 335/376/335
f 335/376/335 11/24/11 12/26/12 336/377/336
f 336/377/336 12/26/12 1/1/1 325/365/325
