# Blender 5.1.2
# www.blender.org
o Cylinder
v -1.287599 -0.000000 -0.022310
v -0.997569 2.000000 -0.712690
v -1.258505 -0.000000 -0.273079
v -0.839363 2.000000 -0.893612
v -1.181048 -0.000000 -0.513354
v -0.648899 2.000000 -1.040194
v -1.058205 -0.000000 -0.733901
v -0.433500 2.000000 -1.146800
v -0.894695 -0.000000 -0.926244
v -0.201440 2.000000 -1.209336
v -0.696802 -0.000000 -1.082993
v 0.038360 2.000000 -1.225398
v -0.472132 -0.000000 -1.198123
v 0.276687 2.000000 -1.194369
v -0.229317 -0.000000 -1.267210
v 0.504379 2.000000 -1.117440
v 0.022310 -0.000000 -1.287599
v 0.712690 2.000000 -0.997569
v 0.273079 -0.000000 -1.258505
v 0.893612 2.000000 -0.839363
v 0.513354 -0.000000 -1.181048
v 1.040193 2.000000 -0.648899
v 0.733901 -0.000000 -1.058205
v 1.146800 2.000000 -0.433500
v 0.926244 -0.000000 -0.894695
v 1.209336 2.000000 -0.201440
v 1.082993 -0.000000 -0.696802
v 1.225398 2.000000 0.038360
v 1.198123 -0.000000 -0.472132
v 1.194369 2.000000 0.276687
v 1.267210 -0.000000 -0.229317
v 1.117440 2.000000 0.504379
v 1.287599 0.000000 0.022310
v 0.997569 2.000000 0.712690
v 1.258505 0.000000 0.273079
v 0.839363 2.000000 0.893612
v 1.181048 0.000000 0.513354
v 0.648899 2.000000 1.040193
v 1.058205 0.000000 0.733901
v 0.433500 2.000000 1.146800
v 0.894695 0.000000 0.926244
v 0.201440 2.000000 1.209336
v 0.696802 0.000000 1.082993
v -0.038360 2.000000 1.225398
v 0.472132 0.000000 1.198123
v -0.276687 2.000000 1.194369
v 0.229317 0.000000 1.267210
v -0.504379 2.000000 1.117440
v -0.022308 0.000000 1.287599
v -0.712690 2.000000 0.997569
v -0.273079 0.000000 1.258505
v -0.893612 2.000000 0.839362
v -0.513354 0.000000 1.181048
v -1.040193 2.000000 0.648899
v -0.733901 0.000000 1.058205
v -1.146800 2.000000 0.433499
v -0.926244 0.000000 0.894695
v -1.209336 2.000000 0.201440
v -1.082993 0.000000 0.696802
v -1.225398 2.000000 -0.038360
v -1.198123 0.000000 0.472132
v -1.194369 2.000000 -0.276687
v -1.267210 0.000000 0.229317
v -1.117440 2.000000 -0.504380
v -0.944994 0.166667 0.567713
v -0.416608 0.333333 0.909505
v 0.174093 0.500000 1.025517
v 0.749114 0.666667 0.831687
v 1.144571 0.833333 0.354529
v 1.195296 1.000000 -0.307410
v 0.798780 1.166667 -0.888525
v 0.110305 1.333333 -1.092133
v -0.393817 1.500000 -0.930251
v -0.646176 1.666667 -0.737390
v -0.833360 1.833333 -0.673575
v -0.683318 1.833333 -0.822181
v -0.481431 1.666667 -0.843638
v -0.204339 1.500000 -0.980525
v 0.303534 1.333333 -1.059085
v 0.946059 1.166667 -0.756184
v 1.250200 1.000000 -0.096177
v 1.085108 0.833333 0.547687
v 0.599620 0.666667 0.958499
v -0.021055 0.500000 1.044137
v -0.585999 0.333333 0.810833
v -1.037591 0.166667 0.372445
v -0.507169 1.833333 -0.938660
v -0.299124 1.666667 -0.915704
v -0.008694 1.500000 -0.992869
v 0.486603 1.333333 -0.988976
v 1.063512 1.166667 -0.599230
v 1.261809 1.000000 0.099514
v 0.992009 0.833333 0.720204
v 0.428259 0.666667 1.053709
v -0.216086 0.500000 1.024328
v -0.732885 0.333333 0.681010
v -1.090315 0.166667 0.162865
v -0.311680 1.833333 -1.018535
v -0.106260 1.666667 -0.950819
v 0.185600 1.500000 -0.966806
v 0.652476 1.333333 -0.884499
v 1.148088 1.166667 -0.422379
v 1.235018 1.000000 0.293709
v 0.867043 0.833333 0.871244
v 0.241616 0.666667 1.113658
v -0.403505 0.500000 0.966850
v -0.851622 0.333333 0.525026
v -1.101138 0.166667 -0.052974
v -0.104365 1.833333 -1.058738
v 0.089748 1.666667 -0.947633
v 0.371077 1.500000 -0.903340
v 0.794780 1.333333 -0.749669
v 1.196537 1.166667 -0.232427
v 1.170856 1.000000 0.478945
v 0.715012 0.833333 0.995001
v 0.046864 0.666667 1.136043
v -0.576109 0.500000 0.873914
v -0.937646 0.333333 0.348874
v -1.069646 0.166667 -0.266777
v 0.106810 1.833333 -1.057723
v 0.281369 1.666667 -0.906269
v 0.540607 1.500000 -0.804909
v 0.908046 1.333333 -0.589668
v 1.206997 1.166667 -0.036672
v 1.071790 1.000000 0.648106
v 0.541758 0.833333 1.086721
v -0.148513 0.666667 1.120004
v -0.727266 0.500000 0.749090
v -0.987651 0.333333 0.159325
v -0.997047 0.166667 -0.470329
v 0.313728 1.833333 -1.015530
v 0.461238 1.666667 -0.828317
v 0.687677 1.500000 -0.675294
v 0.987920 1.333333 -0.410645
v 1.180424 1.166667 0.146830
v 0.957855 1.000000 0.775049
v 0.362094 0.833333 1.140321
v -0.337007 0.666667 1.066156
v -0.851166 0.500000 0.597175
v -0.999717 0.333333 -0.036337
v -0.886132 0.166667 -0.655806
v 0.508441 1.833333 -0.933779
v 0.622443 1.666667 -0.716771
v 0.806635 1.500000 -0.519479
v 1.031334 1.333333 -0.219478
v 1.123960 1.166667 0.301643
v 0.829945 1.000000 0.872737
v 0.193369 0.833333 1.156058
v -0.511374 0.666667 0.976570
v -0.943049 0.500000 0.424007
v -0.973378 0.333333 -0.230594
v -0.741164 0.166667 -0.816080
v 0.683462 1.833333 -0.815612
v 0.758789 1.666667 -0.575920
v 0.892909 1.500000 -0.343450
v 1.036619 1.333333 -0.023515
v 1.038413 1.166667 0.449547
v 0.681958 1.000000 0.950358
v 0.019914 0.833333 1.141724
v -0.659872 0.666667 0.858586
v -0.999382 0.500000 0.236241
v -0.909649 0.333333 -0.415980
v -0.567713 0.166667 -0.944994
v 0.832067 1.833333 -0.665571
v 0.865037 1.666667 -0.411175
v 0.943184 1.500000 -0.153972
v 1.003827 1.333333 0.168196
v 0.924588 1.166667 0.586541
v 0.516255 1.000000 1.004060
v -0.153463 0.833333 1.095804
v -0.781619 0.666667 0.716378
v -1.018002 0.500000 0.041093
v -0.810976 0.333333 -0.585371
v -0.372445 0.166667 -1.037591
v 0.948546 1.833333 -0.489422
v 0.937103 1.666667 -0.228867
v 0.955527 1.500000 0.041673
v 0.934694 1.333333 0.349508
v 0.783583 1.166667 0.706669
v 0.336350 1.000000 1.029644
v -0.321061 0.833333 1.017380
v -0.876127 0.666667 0.551390
v -0.998193 0.500000 -0.153938
v -0.681154 0.333333 -0.732257
v -0.162865 0.166667 -1.090315
v 1.028421 1.833333 -0.293933
v 0.972218 1.666667 -0.036004
v 0.929465 1.500000 0.235968
v 0.830206 1.333333 0.516701
v 0.617961 1.166667 0.803298
v 0.147243 1.000000 1.022934
v -0.476319 0.833333 0.906518
v -0.938737 0.666667 0.368649
v -0.940715 0.500000 -0.341356
v -0.525169 0.333333 -0.850994
v 0.052974 0.166667 -1.101138
v 1.068624 1.833333 -0.086618
v 0.969032 1.666667 0.160005
v 0.865999 1.500000 0.421444
v 0.694156 1.333333 0.660960
v 0.432074 1.166667 0.869702
v -0.044405 1.000000 0.980332
v -0.611996 0.833333 0.764707
v -0.965570 0.666667 0.174333
v -0.847779 0.500000 -0.513961
v -0.349018 0.333333 -0.937017
v 0.266777 0.166667 -1.069646
v 1.067608 1.833333 0.124557
v 0.927668 1.666667 0.351625
v 0.767567 1.500000 0.590975
v 0.534155 1.333333 0.774225
v 0.232162 1.166667 0.899780
v -0.230299 1.000000 0.899525
v -0.720582 0.833333 0.595249
v -0.953885 0.666667 -0.024309
v -0.722954 0.500000 -0.665117
v -0.159469 0.333333 -0.987023
v 0.470329 0.166667 -0.997047
v 1.025415 1.833333 0.331475
v 0.849715 1.666667 0.531494
v 0.637953 1.500000 0.738045
v 0.355131 1.333333 0.854100
v 0.026245 1.166667 0.888759
v -0.400852 1.000000 0.780223
v -0.794888 0.833333 0.403528
v -0.902445 0.666667 -0.219179
v -0.571039 0.500000 -0.789018
v 0.036194 0.333333 -0.999088
v 0.655806 0.166667 -0.886132
v 0.943663 1.833333 0.526188
v 0.738170 1.666667 0.692699
v 0.482137 1.500000 0.857002
v 0.163964 1.333333 0.897514
v -0.176166 1.166667 0.833846
v -0.545845 1.000000 0.624806
v -0.828781 0.833333 0.197057
v -0.811837 0.666667 -0.401699
v -0.397872 0.500000 -0.880900
v 0.230451 0.333333 -0.972750
v 0.816080 0.166667 -0.741164
v 0.825498 1.833333 0.701209
v 0.597319 1.666667 0.829046
v 0.306108 1.500000 0.943276
v -0.031999 1.333333 0.902799
v -0.364559 1.166667 0.734796
v -0.655387 1.000000 0.438707
v -0.817973 0.833333 -0.014761
v -0.687914 0.666667 -0.559338
v -0.210106 0.500000 -0.937234
v 0.415837 0.333333 -0.909020
v 0.944994 0.166667 -0.567713
v 0.675457 1.833333 0.849814
v 0.432574 1.666667 0.935293
v 0.116630 1.500000 0.993551
v -0.225227 1.333333 0.869752
v -0.529081 1.166667 0.594161
v -0.721036 1.000000 0.230404
v -0.760715 0.833333 -0.221191
v -0.538420 0.666667 -0.686149
v -0.014958 0.500000 -0.955854
v 0.585228 0.333333 -0.810348
v 1.037591 0.166667 -0.372445
v 0.499307 1.833333 0.966292
v 0.250266 1.666667 1.007359
v -0.079015 1.500000 1.005894
v -0.408296 1.333333 0.799642
v -0.647512 1.166667 0.436335
v -0.736676 1.000000 0.021696
v -0.666487 0.833333 -0.397558
v -0.367059 0.666667 -0.781358
v 0.180073 0.500000 -0.936044
v 0.732113 0.333333 -0.680525
v 1.090315 0.166667 -0.162866
v 0.303819 1.833333 1.046168
v 0.057403 1.666667 1.042474
v -0.273309 1.500000 0.979832
v -0.574169 1.333333 0.695165
v -0.732088 1.166667 0.259484
v -0.709885 1.000000 -0.172499
v -0.541520 0.833333 -0.548598
v -0.180416 0.666667 -0.841307
v 0.367492 0.500000 -0.878567
v 0.850850 0.333333 -0.524541
v 1.101138 0.166667 0.052974
v 0.096504 1.833333 1.086371
v -0.138606 1.666667 1.039288
v -0.458785 1.500000 0.916366
v -0.716473 1.333333 0.560336
v -0.780537 1.166667 0.069531
v -0.645724 1.000000 -0.357736
v -0.389489 0.833333 -0.672355
v 0.014336 0.666667 -0.863692
v 0.540096 0.500000 -0.785630
v 0.936874 0.333333 -0.348390
v 1.069646 0.166667 0.266777
v -0.114671 1.833333 1.085355
v -0.330226 1.666667 0.997924
v -0.628316 1.500000 0.817934
v -0.829739 1.333333 0.400335
v -0.792093 1.166667 -0.119158
v -0.557435 1.000000 -0.515481
v -0.221688 0.833333 -0.762511
v 0.209713 0.666667 -0.847653
v 0.691252 0.500000 -0.660806
v 0.986879 0.333333 -0.158840
v 0.997047 0.166667 0.470329
v -0.321591 1.833333 1.043162
v -0.510095 1.666667 0.919972
v -0.775386 1.500000 0.688320
v -0.909613 1.333333 0.221311
v -0.775550 1.166667 -0.292857
v -0.449578 1.000000 -0.651859
v -0.052888 0.833333 -0.819018
v 0.398207 0.666667 -0.793806
v 0.815153 0.500000 -0.508891
v 0.998945 0.333333 0.036822
v 0.886132 0.166667 0.655806
v -0.516302 1.833333 0.961411
v -0.671300 1.666667 0.808426
v -0.894344 1.500000 0.532505
v -0.953027 1.333333 0.030144
v -0.730077 1.166667 -0.463696
v -0.318693 1.000000 -0.770185
v 0.125317 0.833333 -0.845852
v 0.568420 0.666667 -0.707577
v 0.907035 0.500000 -0.335723
v 0.972607 0.333333 0.231079
v 0.741165 0.166667 0.816080
v -0.691323 1.833333 0.843245
v -0.807647 1.666667 0.667575
v -0.980618 1.500000 0.356475
v -0.958562 1.333333 -0.164369
v -0.653080 1.166667 -0.626940
v -0.166188 1.000000 -0.865657
v 0.308373 0.833333 -0.840243
v 0.717762 0.666667 -0.592601
v 0.963369 0.500000 -0.147957
v 0.908877 0.333333 0.416465
v 0.567713 0.166667 0.944994
v -0.839928 1.833333 0.693204
v -0.913894 1.666667 0.502830
v -1.030893 1.500000 0.166997
v -0.926518 1.333333 -0.355802
v -0.543758 1.166667 -0.776482
v 0.005466 1.000000 -0.933029
v 0.490777 0.833333 -0.799895
v 0.844135 0.666667 -0.449744
v 0.981989 0.500000 0.047191
v 0.810205 0.333333 0.585856
v 0.372445 0.166667 1.037591
v -0.956408 1.833333 0.517055
v -0.985960 1.666667 0.320523
v -1.043236 1.500000 -0.028648
v -0.856431 1.333333 -0.540100
v -0.402841 1.166667 -0.905367
v 0.192312 1.000000 -0.966926
v 0.666025 0.833333 -0.723396
v 0.941937 0.666667 -0.282992
v 0.962179 0.500000 0.242221
v 0.680382 0.333333 0.732742
v 0.162866 0.166667 1.090315
v -1.036282 1.833333 0.321566
v -1.021075 1.666667 0.127659
v -1.017174 1.500000 -0.222942
v -0.750679 1.333333 -0.707990
v -0.233068 1.166667 -1.006239
v 0.388587 1.000000 -0.962369
v 0.826700 0.833333 -0.610692
v 1.006131 0.666667 -0.097633
v 0.904702 0.500000 0.429640
v 0.524397 0.333333 0.851478
v -0.052974 0.166667 1.101138
v -1.076485 1.833333 0.114251
v -1.017889 1.666667 -0.068349
v -0.953707 1.500000 -0.408418
v -0.615849 1.333333 -0.850294
v -0.039447 1.166667 -1.071970
v 0.586603 1.000000 -0.915480
v 0.964794 0.833333 -0.463560
v 1.032614 0.666667 0.099759
v 0.811765 0.500000 0.602244
v 0.348246 0.333333 0.937502
v -0.266777 0.166667 1.069646
v -1.075470 1.833333 -0.096924
v -0.976525 1.666667 -0.259970
v -0.855276 1.500000 -0.577949
v -0.455848 1.333333 -0.963559
v 0.170745 1.166667 -1.096358
v 0.776938 1.000000 -0.824264
v 1.072233 0.833333 -0.285988
v 1.018622 0.666667 0.301464
v 0.686941 0.500000 0.753401
v 0.158697 0.333333 0.987508
v -0.470329 0.166667 0.997047
v -1.033277 1.833333 -0.303844
v -0.898573 1.666667 -0.439839
v -0.725662 1.500000 -0.725019
v -0.276824 1.333333 -1.043434
v 0.388162 1.166667 -1.074846
v 0.948973 1.000000 -0.689382
v 1.141593 0.833333 -0.084356
v 0.963116 0.666667 0.498918
v 0.535026 0.500000 0.877301
v -0.036966 0.333333 0.999573
v -0.655806 0.166667 0.886132
v -0.951525 1.833333 -0.498555
v -0.787027 1.666667 -0.601044
v -0.569846 1.500000 -0.843977
v -0.085658 1.333333 -1.086847
v 0.601827 1.166667 -1.005224
v 1.091787 1.000000 -0.514683
v 1.166929 0.833333 0.132662
v 0.870995 0.666667 0.678149
v 0.361858 0.500000 0.969184
v -0.231223 0.333333 0.973235
v -0.816080 0.166667 0.741165
vn -0.6195 -0.5754 -0.5339
vn -0.5912 -0.6783 -0.4363
vn -0.4911 -0.6843 -0.5391
vn -0.4961 -0.5920 -0.6351
vn -0.3742 -0.6894 -0.6203
vn -0.3578 -0.6066 -0.7100
vn -0.2449 -0.6936 -0.6775
vn -0.2100 -0.6186 -0.7571
vn -0.1079 -0.6967 -0.7092
vn -0.0578 -0.6281 -0.7760
vn 0.0321 -0.6987 -0.7146
vn 0.0940 -0.6347 -0.7670
vn 0.1703 -0.6996 -0.6940
vn 0.2407 -0.6385 -0.7310
vn 0.3021 -0.6992 -0.6480
vn 0.3782 -0.6395 -0.6694
vn 0.4233 -0.6976 -0.5781
vn 0.5024 -0.6376 -0.5840
vn 0.5296 -0.6949 -0.4865
vn 0.6096 -0.6329 -0.4773
vn 0.6172 -0.6911 -0.3761
vn 0.6964 -0.6254 -0.3520
vn 0.6829 -0.6863 -0.2504
vn 0.7594 -0.6153 -0.2117
vn 0.7238 -0.6806 -0.1136
vn 0.7958 -0.6026 -0.0604
vn 0.7379 -0.6743 0.0298
vn 0.8033 -0.5877 0.0972
vn 0.7239 -0.6674 0.1744
vn 0.7803 -0.5708 0.2556
vn 0.6817 -0.6604 0.3148
vn 0.7263 -0.5525 0.4089
vn 0.6122 -0.6534 0.4453
vn 0.6421 -0.5333 0.5507
vn 0.5173 -0.6467 0.5605
vn 0.5296 -0.5142 0.6746
vn 0.4005 -0.6407 0.6551
vn 0.3927 -0.4959 0.7745
vn 0.2663 -0.6355 0.7247
vn 0.2366 -0.4794 0.8451
vn 0.1199 -0.6316 0.7660
vn 0.0677 -0.4655 0.8824
vn -0.0324 -0.6290 0.7768
vn -0.1064 -0.4552 0.8840
vn -0.1840 -0.6279 0.7562
vn -0.2780 -0.4488 0.8493
vn -0.3283 -0.6284 0.7052
vn -0.4389 -0.4470 0.7794
vn -0.4590 -0.6304 0.6260
vn -0.5818 -0.4497 0.6777
vn -0.5706 -0.6339 0.5221
vn -0.7002 -0.4569 0.5487
vn -0.6584 -0.6386 0.3983
vn -0.7887 -0.4680 0.3987
vn -0.7191 -0.6443 0.2602
vn -0.8438 -0.4826 0.2348
vn -0.7507 -0.6508 0.1137
vn -0.8638 -0.4997 0.0647
vn -0.7524 -0.6577 -0.0349
vn -0.8488 -0.5185 -0.1039
vn -0.7251 -0.6648 -0.1797
vn -0.8006 -0.5379 -0.2639
vn -0.6704 -0.6718 -0.3151
vn -0.7227 -0.5572 -0.4089
vn -0.6103 0.7558 0.2373
vn -0.5423 0.6654 0.5130
vn -0.6320 0.6653 0.3974
vn -0.6448 0.7558 0.1137
vn -0.2139 0.1616 0.9634
vn -0.3988 0.1542 0.9040
vn 0.3316 -0.3980 0.8553
vn 0.1575 -0.4090 0.8989
vn 0.6703 -0.5941 0.4447
vn 0.5761 -0.5788 0.5772
vn 0.7945 -0.6071 -0.0119
vn 0.7960 -0.5867 0.1488
vn 0.7506 -0.4297 -0.5020
vn 0.8783 -0.3324 -0.3437
vn 0.4237 -0.0388 -0.9049
vn 0.5988 0.0711 -0.7977
vn -0.0808 0.2775 -0.9573
vn 0.1080 0.4027 -0.9090
vn -0.4857 0.2932 -0.8234
vn -0.3115 0.3489 -0.8839
vn -0.7476 -0.1066 -0.6556
vn -0.6038 -0.1193 -0.7881
vn -0.5522 0.7558 0.3518
vn -0.4318 0.6654 0.6089
vn -0.0208 0.1740 0.9845
vn 0.4986 -0.3774 0.7804
vn 0.7521 -0.5836 0.3062
vn 0.7606 -0.6263 -0.1707
vn 0.5950 -0.5089 -0.6221
vn 0.2109 -0.1890 -0.9591
vn -0.2831 0.1284 -0.9505
vn -0.6484 0.2217 -0.7283
vn -0.8621 -0.0977 -0.4972
vn -0.4730 0.7558 0.4528
vn -0.3047 0.6655 0.6814
vn 0.1721 0.1911 0.9664
vn 0.6531 -0.3428 0.6752
vn 0.8160 -0.5570 0.1547
vn 0.7026 -0.6355 -0.3203
vn 0.4294 -0.5694 -0.7011
vn -0.0010 -0.3285 -0.9445
vn -0.4755 -0.0297 -0.8792
vn -0.7896 0.1374 -0.5980
vn -0.9431 -0.0930 -0.3193
vn -0.3756 0.7558 0.5364
vn -0.1659 0.6656 0.7276
vn 0.3568 0.2121 0.9098
vn 0.7882 -0.2924 0.5415
vn 0.8554 -0.5179 -0.0111
vn 0.6254 -0.6314 -0.4585
vn 0.2636 -0.6136 -0.7443
vn -0.1900 -0.4480 -0.8736
vn -0.6346 -0.1839 -0.7507
vn -0.8986 0.0463 -0.4363
vn -0.9873 -0.0929 -0.1292
vn -0.2637 0.7558 0.5993
vn -0.0207 0.6657 0.7459
vn 0.5252 0.2363 0.8175
vn 0.8961 -0.2285 0.3806
vn 0.8681 -0.4596 -0.1875
vn 0.5316 -0.6116 -0.5860
vn 0.1041 -0.6415 -0.7600
vn -0.3445 -0.5426 -0.7661
vn -0.7454 -0.3231 -0.5831
vn -0.9667 -0.0422 -0.2525
vn -0.9931 -0.0975 0.0657
vn -0.1417 0.7558 0.6393
vn 0.1251 0.6659 0.7355
vn 0.6704 0.2627 0.6940
vn 0.9683 -0.1519 0.1980
vn 0.8479 -0.3791 -0.3707
vn 0.4208 -0.5726 -0.7036
vn -0.0472 -0.6526 -0.7562
vn -0.4631 -0.6129 -0.6402
vn -0.8056 -0.4365 -0.4006
vn -0.9902 -0.1278 -0.0565
vn -0.9603 -0.1069 0.2576
vn -0.0143 0.7558 0.6546
vn 0.2662 0.6660 0.6968
vn 0.7866 0.2902 0.5450
vn 0.9979 -0.0649 0.0029
vn 0.7875 -0.2746 -0.5518
vn 0.2910 -0.5096 -0.8097
vn -0.1921 -0.6453 -0.7394
vn -0.5513 -0.6592 -0.5114
vn -0.8211 -0.5270 -0.2193
vn -0.9688 -0.2053 0.1388
vn -0.8904 -0.1207 0.4389
vn 0.1137 0.7558 0.6448
vn 0.3969 0.6661 0.6314
vn 0.8699 0.3173 0.3776
vn 0.9809 0.0279 -0.1927
vn 0.6824 -0.1477 -0.7159
vn 0.1397 -0.4173 -0.8980
vn -0.3348 -0.6164 -0.7127
vn -0.6182 -0.6841 -0.3870
vn -0.8028 -0.5941 -0.0508
vn -0.9081 -0.2688 0.3212
vn -0.7862 -0.1383 0.6023
vn 0.2373 0.7558 0.6103
vn 0.5124 0.6663 0.5418
vn 0.9180 0.3430 0.1991
vn 0.9187 0.1196 -0.3764
vn 0.5350 -0.0068 -0.8448
vn -0.0305 -0.2873 -0.9574
vn -0.4791 -0.5610 -0.6751
vn -0.6726 -0.6898 -0.2681
vn -0.7642 -0.6372 0.1001
vn -0.8141 -0.3198 0.4847
vn -0.6519 -0.1590 0.7414
vn 0.3518 0.7558 0.5522
vn 0.6081 0.6664 0.4314
vn 0.9304 0.3662 0.0166
vn 0.8175 0.2010 -0.5398
vn 0.3591 0.1411 -0.9226
vn -0.2130 -0.1246 -0.9691
vn -0.6257 -0.4731 -0.6202
vn -0.7227 -0.6739 -0.1535
vn -0.7135 -0.6596 0.2361
vn -0.6927 -0.3602 0.6249
vn -0.4933 -0.1820 0.8506
vn 0.4528 0.7558 0.4730
vn 0.6805 0.6665 0.3044
vn 0.9080 0.3860 -0.1631
vn 0.6857 0.2685 -0.6766
vn 0.1731 0.2803 -0.9442
vn -0.3943 0.0406 -0.9181
vn -0.7694 -0.3384 -0.5418
vn -0.7760 -0.6297 -0.0345
vn -0.6618 -0.6569 0.3613
vn -0.5504 -0.3894 0.7386
vn -0.3169 -0.2062 0.9258
vn 0.5364 0.7558 0.3756
vn 0.7267 0.6666 0.1658
vn 0.8526 0.4019 -0.3339
vn 0.5328 0.3244 -0.7816
vn -0.0131 0.3835 -0.9234
vn -0.5467 0.2080 -0.8111
vn -0.8936 -0.1877 -0.4077
vn -0.8302 -0.5473 0.1059
vn -0.5951 -0.6397 0.4865
vn -0.3929 -0.4073 0.8245
vn -0.1300 -0.2309 0.9642
vn 0.5993 0.7558 0.2637
vn 0.7451 0.6667 0.0208
vn 0.7671 0.4135 -0.4905
vn 0.3665 0.3656 -0.8556
vn -0.1845 0.4619 -0.8676
vn -0.6687 0.3399 -0.6613
vn -0.9733 -0.0266 -0.2282
vn -0.8482 -0.4491 0.2807
vn -0.5080 -0.6075 0.6106
vn -0.2249 -0.4134 0.8823
vn 0.0596 -0.2550 0.9651
vn 0.6393 0.7558 0.1417
vn 0.7348 0.6667 -0.1249
vn 0.6547 0.4205 -0.6282
vn 0.1926 0.3925 -0.8993
vn -0.3360 0.5185 -0.7863
vn -0.7509 0.4418 -0.4909
vn -0.9928 0.1187 -0.0183
vn -0.8205 -0.3250 0.4703
vn -0.4001 -0.5536 0.7304
vn -0.0502 -0.4068 0.9121
vn 0.2444 -0.2777 0.9290
vn 0.6546 0.7558 0.0143
vn 0.6963 0.6667 -0.2658
vn 0.5191 0.4230 -0.7427
vn 0.0153 0.4059 -0.9138
vn -0.4721 0.5519 -0.6875
vn -0.8067 0.5039 -0.3088
vn -0.9477 0.2561 0.1906
vn -0.7232 -0.1969 0.6620
vn -0.2671 -0.4713 0.8405
vn 0.1279 -0.3863 0.9134
vn 0.4177 -0.2981 0.8583
vn 0.6448 0.7558 -0.1137
vn 0.6311 0.6667 -0.3966
vn 0.3646 0.4207 -0.8307
vn -0.1626 0.4056 -0.8995
vn -0.5989 0.5600 -0.5725
vn -0.8184 0.5608 -0.1252
vn -0.8476 0.3611 0.3888
vn -0.5711 -0.0416 0.8198
vn -0.0973 -0.3687 0.9244
vn 0.3062 -0.3504 0.8851
vn 0.5732 -0.3153 0.7564
vn 0.6103 0.7558 -0.2373
vn 0.5416 0.6667 -0.5121
vn 0.1960 0.4139 -0.8890
vn -0.3402 0.3888 -0.8562
vn -0.6980 0.5645 -0.4407
vn -0.7967 0.6025 0.0478
vn -0.7060 0.4590 0.5394
vn -0.3729 0.1095 0.9214
vn 0.0973 -0.2434 0.9650
vn 0.4803 -0.2976 0.8251
vn 0.7058 -0.3286 0.6275
vn 0.5522 0.7558 -0.3518
vn 0.4313 0.6666 -0.6080
vn 0.0185 0.4026 -0.9152
vn -0.5097 0.3611 -0.7809
vn -0.7736 0.5605 -0.2957
vn -0.7518 0.6268 0.2048
vn -0.5473 0.5354 0.6433
vn -0.1611 0.2537 0.9538
vn 0.2992 -0.0994 0.9490
vn 0.6434 -0.2280 0.7308
vn 0.8116 -0.3375 0.4768
vn 0.4730 0.7558 -0.4528
vn 0.3044 0.6665 -0.6805
vn -0.1621 0.3870 -0.9077
vn -0.6618 0.3272 -0.6745
vn -0.8284 0.5421 -0.1408
vn -0.6888 0.6374 0.3453
vn -0.3873 0.5931 0.7058
vn 0.0385 0.3817 0.9235
vn 0.4866 0.0538 0.8719
vn 0.7858 -0.1441 0.6014
vn 0.8875 -0.3414 0.3094
vn 0.3756 0.7558 -0.5364
vn 0.1658 0.6664 -0.7269
vn -0.3395 0.3675 -0.8659
vn -0.7932 0.2817 -0.5398
vn -0.8603 0.5094 0.0220
vn -0.6120 0.6352 0.4712
vn -0.2353 0.6337 0.7369
vn 0.2095 0.4876 0.8476
vn 0.6395 0.2031 0.7415
vn 0.8965 -0.0513 0.4401
vn 0.9312 -0.3402 0.1309
vn 0.2637 0.7558 -0.5993
vn 0.0208 0.6663 -0.7454
vn -0.5069 0.3447 -0.7901
vn -0.8973 0.2248 -0.3799
vn -0.8669 0.4605 0.1911
vn -0.5235 0.6192 0.5852
vn -0.0944 0.6584 0.7467
vn 0.3467 0.5695 0.7453
vn 0.7436 0.3391 0.5762
vn 0.9661 0.0425 0.2548
vn 0.9411 -0.3338 -0.0530
vn 0.1417 0.7558 -0.6393
vn -0.1250 0.6661 -0.7353
vn -0.6576 0.3193 -0.6823
vn -0.9671 0.1569 -0.2001
vn -0.8444 0.3931 0.3639
vn -0.4233 0.5870 0.6902
vn 0.0369 0.6678 0.7434
vn 0.4507 0.6301 0.6323
vn 0.7982 0.4522 0.3979
vn 0.9897 0.1307 0.0580
vn 0.9165 -0.3227 -0.2364
vn 0.0143 0.7558 -0.6546
vn -0.2661 0.6660 -0.6968
vn -0.7852 0.2925 -0.5459
vn -0.9968 0.0798 -0.0084
vn -0.7880 0.3054 0.5345
vn -0.3086 0.5345 0.7868
vn 0.1628 0.6611 0.7325
vn 0.5305 0.6699 0.5194
vn 0.8134 0.5373 0.2229
vn 0.9682 0.2095 -0.1370
vn 0.8574 -0.3073 -0.4129
vn -0.1137 0.7558 -0.6448
vn -0.3971 0.6659 -0.6316
vn -0.8837 0.2653 -0.3857
vn -0.9827 -0.0047 0.1852
vn -0.6927 0.1880 0.6963
vn -0.1757 0.4596 0.8706
vn 0.2897 0.6351 0.7161
vn 0.5978 0.6890 0.4098
vn 0.8005 0.5964 0.0594
vn 0.9062 0.2762 -0.3201
vn 0.7649 -0.2885 -0.5760
vn -0.2373 0.7558 -0.6103
vn -0.5128 0.6657 -0.5421
vn -0.9485 0.2389 -0.2080
vn -0.9228 -0.1012 0.3717
vn -0.5543 0.0522 0.8307
vn -0.0214 0.3563 0.9341
vn 0.4242 0.5841 0.6920
vn 0.6624 0.6856 0.3018
vn 0.7701 0.6312 -0.0918
vn 0.8105 0.3300 -0.4839
vn 0.6415 -0.2671 -0.7191
vn -0.3518 0.7558 -0.5522
vn -0.6088 0.6656 -0.4317
vn -0.9765 0.2146 -0.0199
vn -0.8203 -0.1955 0.5375
vn -0.3836 -0.0831 0.9198
vn 0.1694 0.1763 0.9697
vn 0.5839 0.4819 0.6533
vn 0.7486 0.6366 0.1855
vn 0.7239 0.6504 -0.2303
vn 0.6880 0.3712 -0.6236
vn 0.4912 -0.2442 -0.8361
vn -0.4528 0.7558 -0.4730
vn -0.6814 0.6655 -0.3047
vn -0.9661 0.1933 0.1709
vn -0.6895 -0.2656 0.6738
vn -0.1821 -0.2556 0.9495
vn 0.3684 -0.0135 0.9296
vn 0.7692 0.3043 0.5620
vn 0.8020 0.5952 0.0498
vn 0.6651 0.6535 -0.3614
vn 0.5452 0.4001 -0.7367
vn 0.3196 -0.2206 -0.9215
vn -0.5364 0.7558 -0.3756
vn -0.7278 0.6654 -0.1659
vn -0.9176 0.1759 0.3565
vn -0.5373 -0.3222 0.7794
vn 0.0081 -0.3751 0.9270
vn 0.5430 -0.2019 0.8151
vn 0.8944 0.1703 0.4135
vn 0.8410 0.5302 -0.1079
vn 0.5947 0.6370 -0.4905
vn 0.3876 0.4168 -0.8222
vn 0.1332 -0.1972 -0.9713
vn -0.5993 0.7558 -0.2637
vn -0.7462 0.6654 -0.0207
vn -0.8326 0.1629 0.5294
vn -0.3713 -0.3646 0.8539
vn 0.1793 -0.4560 0.8717
vn 0.6681 -0.3305 0.6666
vn 0.9735 0.0257 0.2274
vn 0.8532 0.4359 -0.2862
vn 0.5077 0.6021 -0.6161
vn 0.2199 0.4209 -0.8801
vn -0.0604 -0.1748 -0.9828
vn -0.6393 0.7558 -0.1417
vn -0.7360 0.6653 0.1253
vn -0.7145 0.1549 0.6823
vn -0.1975 -0.3928 0.8982
vn 0.3309 -0.5147 0.7909
vn 0.7489 -0.4361 0.4990
vn 0.9922 -0.1217 0.0257
vn 0.8222 0.3151 -0.4741
vn 0.3997 0.5456 -0.7366
vn 0.0454 0.4117 -0.9102
vn -0.2530 -0.1540 -0.9551
vn -0.6546 0.7558 -0.0143
vn -0.6974 0.6653 0.2665
vn -0.5679 0.1519 0.8089
vn -0.0200 -0.4074 0.9130
vn 0.4629 -0.5538 0.6921
vn 0.7901 -0.5194 0.3254
vn 0.9493 -0.2625 -0.1726
vn 0.7365 0.2112 -0.6427
vn 0.2656 0.4657 -0.8441
vn -0.1329 0.3881 -0.9120
vn -0.4367 -0.1353 -0.8894
vt 1.000000 0.916667
vt 1.000000 1.000000
vt 0.968750 1.000000
vt 0.968750 0.916667
vt 0.937500 1.000000
vt 0.937500 0.916667
vt 0.906250 1.000000
vt 0.906250 0.916667
vt 0.875000 1.000000
vt 0.875000 0.916667
vt 0.843750 1.000000
vt 0.843750 0.916667
vt 0.812500 1.000000
vt 0.812500 0.916667
vt 0.781250 1.000000
vt 0.781250 0.916667
vt 0.750000 1.000000
vt 0.750000 0.916667
vt 0.718750 1.000000
vt 0.718750 0.916667
vt 0.687500 1.000000
vt 0.687500 0.916667
vt 0.656250 1.000000
vt 0.656250 0.916667
vt 0.625000 1.000000
vt 0.625000 0.916667
vt 0.593750 1.000000
vt 0.593750 0.916667
vt 0.562500 1.000000
vt 0.562500 0.916667
vt 0.531250 1.000000
vt 0.531250 0.916667
vt 0.500000 1.000000
vt 0.500000 0.916667
vt 0.468750 1.000000
vt 0.468750 0.916667
vt 0.437500 1.000000
vt 0.437500 0.916667
vt 0.406250 1.000000
vt 0.406250 0.916667
vt 0.375000 1.000000
vt 0.375000 0.916667
vt 0.343750 1.000000
vt 0.343750 0.916667
vt 0.312500 1.000000
vt 0.312500 0.916667
vt 0.281250 1.000000
vt 0.281250 0.916667
vt 0.250000 1.000000
vt 0.250000 0.916667
vt 0.218750 1.000000
vt 0.218750 0.916667
vt 0.187500 1.000000
vt 0.187500 0.916667
vt 0.156250 1.000000
vt 0.156250 0.916667
vt 0.125000 1.000000
vt 0.125000 0.916667
vt 0.093750 1.000000
vt 0.093750 0.916667
vt 0.062500 1.000000
vt 0.062500 0.916667
vt 0.031250 1.000000
vt 0.031250 0.916667
vt 0.000000 1.000000
vt 0.000000 0.916667
vt 0.031250 0.000000
vt 0.031250 0.083333
vt 0.000000 0.083333
vt 0.000000 0.000000
vt 0.031250 0.166667
vt 0.000000 0.166667
vt 0.031250 0.250000
vt 0.000000 0.250000
vt 0.031250 0.333333
vt 0.000000 0.333333
vt 0.031250 0.416667
vt 0.000000 0.416667
vt 0.031250 0.500000
vt 0.000000 0.500000
vt 0.031250 0.583333
vt 0.000000 0.583333
vt 0.031250 0.666667
vt 0.000000 0.666667
vt 0.031250 0.750000
vt 0.000000 0.750000
vt 0.031250 0.833333
vt 0.000000 0.833333
vt 0.062500 0.000000
vt 0.062500 0.083333
vt 0.062500 0.166667
vt 0.062500 0.250000
vt 0.062500 0.333333
vt 0.062500 0.416667
vt 0.062500 0.500000
vt 0.062500 0.583333
vt 0.062500 0.666667
vt 0.062500 0.750000
vt 0.062500 0.833333
vt 0.093750 0.000000
vt 0.093750 0.083333
vt 0.093750 0.166667
vt 0.093750 0.250000
vt 0.093750 0.333333
vt 0.093750 0.416667
vt 0.093750 0.500000
vt 0.093750 0.583333
vt 0.093750 0.666667
vt 0.093750 0.750000
vt 0.093750 0.833333
vt 0.125000 0.000000
vt 0.125000 0.083333
vt 0.125000 0.166667
vt 0.125000 0.250000
vt 0.125000 0.333333
vt 0.125000 0.416667
vt 0.125000 0.500000
vt 0.125000 0.583333
vt 0.125000 0.666667
vt 0.125000 0.750000
vt 0.125000 0.833333
vt 0.156250 0.000000
vt 0.156250 0.083333
vt 0.156250 0.166667
vt 0.156250 0.250000
vt 0.156250 0.333333
vt 0.156250 0.416667
vt 0.156250 0.500000
vt 0.156250 0.583333
vt 0.156250 0.666667
vt 0.156250 0.750000
vt 0.156250 0.833333
vt 0.187500 0.000000
vt 0.187500 0.083333
vt 0.187500 0.166667
vt 0.187500 0.250000
vt 0.187500 0.333333
vt 0.187500 0.416667
vt 0.187500 0.500000
vt 0.187500 0.583333
vt 0.187500 0.666667
vt 0.187500 0.750000
vt 0.187500 0.833333
vt 0.218750 0.000000
vt 0.218750 0.083333
vt 0.218750 0.166667
vt 0.218750 0.250000
vt 0.218750 0.333333
vt 0.218750 0.416667
vt 0.218750 0.500000
vt 0.218750 0.583333
vt 0.218750 0.666667
vt 0.218750 0.750000
vt 0.218750 0.833333
vt 0.250000 0.000000
vt 0.250000 0.083333
vt 0.250000 0.166667
vt 0.250000 0.250000
vt 0.250000 0.333333
vt 0.250000 0.416667
vt 0.250000 0.500000
vt 0.250000 0.583333
vt 0.250000 0.666667
vt 0.250000 0.750000
vt 0.250000 0.833333
vt 0.281250 0.000000
vt 0.281250 0.083333
vt 0.281250 0.166667
vt 0.281250 0.250000
vt 0.281250 0.333333
vt 0.281250 0.416667
vt 0.281250 0.500000
vt 0.281250 0.583333
vt 0.281250 0.666667
vt 0.281250 0.750000
vt 0.281250 0.833333
vt 0.312500 0.000000
vt 0.312500 0.083333
vt 0.312500 0.166667
vt 0.312500 0.250000
vt 0.312500 0.333333
vt 0.312500 0.416667
vt 0.312500 0.500000
vt 0.312500 0.583333
vt 0.312500 0.666667
vt 0.312500 0.750000
vt 0.312500 0.833333
vt 0.343750 0.000000
vt 0.343750 0.083333
vt 0.343750 0.166667
vt 0.343750 0.250000
vt 0.343750 0.333333
vt 0.343750 0.416667
vt 0.343750 0.500000
vt 0.343750 0.583333
vt 0.343750 0.666667
vt 0.343750 0.750000
vt 0.343750 0.833333
vt 0.375000 0.000000
vt 0.375000 0.083333
vt 0.375000 0.166667
vt 0.375000 0.250000
vt 0.375000 0.333333
vt 0.375000 0.416667
vt 0.375000 0.500000
vt 0.375000 0.583333
vt 0.375000 0.666667
vt 0.375000 0.750000
vt 0.375000 0.833333
vt 0.406250 0.000000
vt 0.406250 0.083333
vt 0.406250 0.166667
vt 0.406250 0.250000
vt 0.406250 0.333333
vt 0.406250 0.416667
vt 0.406250 0.500000
vt 0.406250 0.583333
vt 0.406250 0.666667
vt 0.406250 0.750000
vt 0.406250 0.833333
vt 0.437500 0.000000
vt 0.437500 0.083333
vt 0.437500 0.166667
vt 0.437500 0.250000
vt 0.437500 0.333333
vt 0.437500 0.416667
vt 0.437500 0.500000
vt 0.437500 0.583333
vt 0.437500 0.666667
vt 0.437500 0.750000
vt 0.437500 0.833333
vt 0.468750 0.000000
vt 0.468750 0.083333
vt 0.468750 0.166667
vt 0.468750 0.250000
vt 0.468750 0.333333
vt 0.468750 0.416667
vt 0.468750 0.500000
vt 0.468750 0.583333
vt 0.468750 0.666667
vt 0.468750 0.750000
vt 0.468750 0.833333
vt 0.500000 0.000000
vt 0.500000 0.083333
vt 0.500000 0.166667
vt 0.500000 0.250000
vt 0.500000 0.333333
vt 0.500000 0.416667
vt 0.500000 0.500000
vt 0.500000 0.583333
vt 0.500000 0.666667
vt 0.500000 0.750000
vt 0.500000 0.833333
vt 0.531250 0.000000
vt 0.531250 0.083333
vt 0.531250 0.166667
vt 0.531250 0.250000
vt 0.531250 0.333333
vt 0.531250 0.416667
vt 0.531250 0.500000
vt 0.531250 0.583333
vt 0.531250 0.666667
vt 0.531250 0.750000
vt 0.531250 0.833333
vt 0.562500 0.000000
vt 0.562500 0.083333
vt 0.562500 0.166667
vt 0.562500 0.250000
vt 0.562500 0.333333
vt 0.562500 0.416667
vt 0.562500 0.500000
vt 0.562500 0.583333
vt 0.562500 0.666667
vt 0.562500 0.750000
vt 0.562500 0.833333
vt 0.593750 0.000000
vt 0.593750 0.083333
vt 0.593750 0.166667
vt 0.593750 0.250000
vt 0.593750 0.333333
vt 0.593750 0.416667
vt 0.593750 0.500000
vt 0.593750 0.583333
vt 0.593750 0.666667
vt 0.593750 0.750000
vt 0.593750 0.833333
vt 0.625000 0.000000
vt 0.625000 0.083333
vt 0.625000 0.166667
vt 0.625000 0.250000
vt 0.625000 0.333333
vt 0.625000 0.416667
vt 0.625000 0.500000
vt 0.625000 0.583333
vt 0.625000 0.666667
vt 0.625000 0.750000
vt 0.625000 0.833333
vt 0.656250 0.000000
vt 0.656250 0.083333
vt 0.656250 0.166667
vt 0.656250 0.250000
vt 0.656250 0.333333
vt 0.656250 0.416667
vt 0.656250 0.500000
vt 0.656250 0.583333
vt 0.656250 0.666667
vt 0.656250 0.750000
vt 0.656250 0.833333
vt 0.687500 0.000000
vt 0.687500 0.083333
vt 0.687500 0.166667
vt 0.687500 0.250000
vt 0.687500 0.333333
vt 0.687500 0.416667
vt 0.687500 0.500000
vt 0.687500 0.583333
vt 0.687500 0.666667
vt 0.687500 0.750000
vt 0.687500 0.833333
vt 0.718750 0.000000
vt 0.718750 0.083333
vt 0.718750 0.166667
vt 0.718750 0.250000
vt 0.718750 0.333333
vt 0.718750 0.416667
vt 0.718750 0.500000
vt 0.718750 0.583333
vt 0.718750 0.666667
vt 0.718750 0.750000
vt 0.718750 0.833333
vt 0.750000 0.000000
vt 0.750000 0.083333
vt 0.750000 0.166667
vt 0.750000 0.250000
vt 0.750000 0.333333
vt 0.750000 0.416667
vt 0.750000 0.500000
vt 0.750000 0.583333
vt 0.750000 0.666667
vt 0.750000 0.750000
vt 0.750000 0.833333
vt 0.781250 0.000000
vt 0.781250 0.083333
vt 0.781250 0.166667
vt 0.781250 0.250000
vt 0.781250 0.333333
vt 0.781250 0.416667
vt 0.781250 0.500000
vt 0.781250 0.583333
vt 0.781250 0.666667
vt 0.781250 0.750000
vt 0.781250 0.833333
vt 0.812500 0.000000
vt 0.812500 0.083333
vt 0.812500 0.166667
vt 0.812500 0.250000
vt 0.812500 0.333333
vt 0.812500 0.416667
vt 0.812500 0.500000
vt 0.812500 0.583333
vt 0.812500 0.666667
vt 0.812500 0.750000
vt 0.812500 0.833333
vt 0.843750 0.000000
vt 0.843750 0.083333
vt 0.843750 0.166667
vt 0.843750 0.250000
vt 0.843750 0.333333
vt 0.843750 0.416667
vt 0.843750 0.500000
vt 0.843750 0.583333
vt 0.843750 0.666667
vt 0.843750 0.750000
vt 0.843750 0.833333
vt 0.875000 0.000000
vt 0.875000 0.083333
vt 0.875000 0.166667
vt 0.875000 0.250000
vt 0.875000 0.333333
vt 0.875000 0.416667
vt 0.875000 0.500000
vt 0.875000 0.583333
vt 0.875000 0.666667
vt 0.875000 0.750000
vt 0.875000 0.833333
vt 0.906250 0.000000
vt 0.906250 0.083333
vt 0.906250 0.166667
vt 0.906250 0.250000
vt 0.906250 0.333333
vt 0.906250 0.416667
vt 0.906250 0.500000
vt 0.906250 0.583333
vt 0.906250 0.666667
vt 0.906250 0.750000
vt 0.906250 0.833333
vt 0.937500 0.000000
vt 0.937500 0.083333
vt 0.937500 0.166667
vt 0.937500 0.250000
vt 0.937500 0.333333
vt 0.937500 0.416667
vt 0.937500 0.500000
vt 0.937500 0.583333
vt 0.937500 0.666667
vt 0.937500 0.750000
vt 0.937500 0.833333
vt 0.968750 0.000000
vt 0.968750 0.083333
vt 0.968750 0.166667
vt 0.968750 0.250000
vt 0.968750 0.333333
vt 0.968750 0.416667
vt 0.968750 0.500000
vt 0.968750 0.583333
vt 0.968750 0.666667
vt 0.968750 0.750000
vt 0.968750 0.833333
vt 1.000000 0.000000
vt 1.000000 0.083333
vt 1.000000 0.166667
vt 1.000000 0.250000
vt 1.000000 0.333333
vt 1.000000 0.416667
vt 1.000000 0.500000
vt 1.000000 0.583333
vt 1.000000 0.666667
vt 1.000000 0.750000
vt 1.000000 0.833333
s 1
f 75/1/1 2/2/2 4/3/3 76/4/4
f 76/4/4 4/3/3 6/5/5 87/6/6
f 87/6/6 6/5/5 8/7/7 98/8/8
f 98/8/8 8/7/7 10/9/9 109/10/10
f 109/10/10 10/9/9 12/11/11 120/12/12
f 120/12/12 12/11/11 14/13/13 131/14/14
f 131/14/14 14/13/13 16/15/15 142/16/16
f 142/16/16 16/15/15 18/17/17 153/18/18
f 153/18/18 18/17/17 20/19/19 164/20/20
f 164/20/20 20/19/19 22/21/21 175/22/22
f 175/22/22 22/21/21 24/23/23 186/24/24
f 186/24/24 24/23/23 26/25/25 197/26/26
f 197/26/26 26/25/25 28/27/27 208/28/28
f 208/28/28 28/27/27 30/29/29 219/30/30
f 219/30/30 30/29/29 32/31/31 230/32/32
f 230/32/32 32/31/31 34/33/33 241/34/34
f 241/34/34 34/33/33 36/35/35 252/36/36
f 252/36/36 36/35/35 38/37/37 263/38/38
f 263/38/38 38/37/37 40/39/39 274/40/40
f 274/40/40 40/39/39 42/41/41 285/42/42
f 285/42/42 42/41/41 44/43/43 296/44/44
f 296/44/44 44/43/43 46/45/45 307/46/46
f 307/46/46 46/45/45 48/47/47 318/48/48
f 318/48/48 48/47/47 50/49/49 329/50/50
f 329/50/50 50/49/49 52/51/51 340/52/52
f 340/52/52 52/51/51 54/53/53 351/54/54
f 351/54/54 54/53/53 56/55/55 362/56/56
f 362/56/56 56/55/55 58/57/57 373/58/58
f 373/58/58 58/57/57 60/59/59 384/60/60
f 384/60/60 60/59/59 62/61/61 395/62/62
f 395/62/62 62/61/61 64/63/63 406/64/64
f 406/64/64 64/63/63 2/65/2 75/66/1
f 63/67/65 416/68/66 65/69/67 1/70/68
f 416/68/66 415/71/69 66/72/70 65/69/67
f 415/71/69 414/73/71 67/74/72 66/72/70
f 414/73/71 413/75/73 68/76/74 67/74/72
f 413/75/73 412/77/75 69/78/76 68/76/74
f 412/77/75 411/79/77 70/80/78 69/78/76
f 411/79/77 410/81/79 71/82/80 70/80/78
f 410/81/79 409/83/81 72/84/82 71/82/80
f 409/83/81 408/85/83 73/86/84 72/84/82
f 408/85/83 407/87/85 74/88/86 73/86/84
f 407/87/85 406/64/64 75/66/1 74/88/86
f 61/89/87 405/90/88 416/68/66 63/67/65
f 405/90/88 404/91/89 415/71/69 416/68/66
f 404/91/89 403/92/90 414/73/71 415/71/69
f 403/92/90 402/93/91 413/75/73 414/73/71
f 402/93/91 401/94/92 412/77/75 413/75/73
f 401/94/92 400/95/93 411/79/77 412/77/75
f 400/95/93 399/96/94 410/81/79 411/79/77
f 399/96/94 398/97/95 409/83/81 410/81/79
f 398/97/95 397/98/96 408/85/83 409/83/81
f 397/98/96 396/99/97 407/87/85 408/85/83
f 396/99/97 395/62/62 406/64/64 407/87/85
f 59/100/98 394/101/99 405/90/88 61/89/87
f 394/101/99 393/102/100 404/91/89 405/90/88
f 393/102/100 392/103/101 403/92/90 404/91/89
f 392/103/101 391/104/102 402/93/91 403/92/90
f 391/104/102 390/105/103 401/94/92 402/93/91
f 390/105/103 389/106/104 400/95/93 401/94/92
f 389/106/104 388/107/105 399/96/94 400/95/93
f 388/107/105 387/108/106 398/97/95 399/96/94
f 387/108/106 386/109/107 397/98/96 398/97/95
f 386/109/107 385/110/108 396/99/97 397/98/96
f 385/110/108 384/60/60 395/62/62 396/99/97
f 57/111/109 383/112/110 394/101/99 59/100/98
f 383/112/110 382/113/111 393/102/100 394/101/99
f 382/113/111 381/114/112 392/103/101 393/102/100
f 381/114/112 380/115/113 391/104/102 392/103/101
f 380/115/113 379/116/114 390/105/103 391/104/102
f 379/116/114 378/117/115 389/106/104 390/105/103
f 378/117/115 377/118/116 388/107/105 389/106/104
f 377/118/116 376/119/117 387/108/106 388/107/105
f 376/119/117 375/120/118 386/109/107 387/108/106
f 375/120/118 374/121/119 385/110/108 386/109/107
f 374/121/119 373/58/58 384/60/60 385/110/108
f 55/122/120 372/123/121 383/112/110 57/111/109
f 372/123/121 371/124/122 382/113/111 383/112/110
f 371/124/122 370/125/123 381/114/112 382/113/111
f 370/125/123 369/126/124 380/115/113 381/114/112
f 369/126/124 368/127/125 379/116/114 380/115/113
f 368/127/125 367/128/126 378/117/115 379/116/114
f 367/128/126 366/129/127 377/118/116 378/117/115
f 366/129/127 365/130/128 376/119/117 377/118/116
f 365/130/128 364/131/129 375/120/118 376/119/117
f 364/131/129 363/132/130 374/121/119 375/120/118
f 363/132/130 362/56/56 373/58/58 374/121/119
f 53/133/131 361/134/132 372/123/121 55/122/120
f 361/134/132 360/135/133 371/124/122 372/123/121
f 360/135/133 359/136/134 370/125/123 371/124/122
f 359/136/134 358/137/135 369/126/124 370/125/123
f 358/137/135 357/138/136 368/127/125 369/126/124
f 357/138/136 356/139/137 367/128/126 368/127/125
f 356/139/137 355/140/138 366/129/127 367/128/126
f 355/140/138 354/141/139 365/130/128 366/129/127
f 354/141/139 353/142/140 364/131/129 365/130/128
f 353/142/140 352/143/141 363/132/130 364/131/129
f 352/143/141 351/54/54 362/56/56 363/132/130
f 51/144/142 350/145/143 361/134/132 53/133/131
f 350/145/143 349/146/144 360/135/133 361/134/132
f 349/146/144 348/147/145 359/136/134 360/135/133
f 348/147/145 347/148/146 358/137/135 359/136/134
f 347/148/146 346/149/147 357/138/136 358/137/135
f 346/149/147 345/150/148 356/139/137 357/138/136
f 345/150/148 344/151/149 355/140/138 356/139/137
f 344/151/149 343/152/150 354/141/139 355/140/138
f 343/152/150 342/153/151 353/142/140 354/141/139
f 342/153/151 341/154/152 352/143/141 353/142/140
f 341/154/152 340/52/52 351/54/54 352/143/141
f 49/155/153 339/156/154 350/145/143 51/144/142
f 339/156/154 338/157/155 349/146/144 350/145/143
f 338/157/155 337/158/156 348/147/145 349/146/144
f 337/158/156 336/159/157 347/148/146 348/147/145
f 336/159/157 335/160/158 346/149/147 347/148/146
f 335/160/158 334/161/159 345/150/148 346/149/147
f 334/161/159 333/162/160 344/151/149 345/150/148
f 333/162/160 332/163/161 343/152/150 344/151/149
f 332/163/161 331/164/162 342/153/151 343/152/150
f 331/164/162 330/165/163 341/154/152 342/153/151
f 330/165/163 329/50/50 340/52/52 341/154/152
f 47/166/164 328/167/165 339/156/154 49/155/153
f 328/167/165 327/168/166 338/157/155 339/156/154
f 327/168/166 326/169/167 337/158/156 338/157/155
f 326/169/167 325/170/168 336/159/157 337/158/156
f 325/170/168 324/171/169 335/160/158 336/159/157
f 324/171/169 323/172/170 334/161/159 335/160/158
f 323/172/170 322/173/171 333/162/160 334/161/159
f 322/173/171 321/174/172 332/163/161 333/162/160
f 321/174/172 320/175/173 331/164/162 332/163/161
f 320/175/173 319/176/174 330/165/163 331/164/162
f 319/176/174 318/48/48 329/50/50 330/165/163
f 45/177/175 317/178/176 328/167/165 47/166/164
f 317/178/176 316/179/177 327/168/166 328/167/165
f 316/179/177 315/180/178 326/169/167 327/168/166
f 315/180/178 314/181/179 325/170/168 326/169/167
f 314/181/179 313/182/180 324/171/169 325/170/168
f 313/182/180 312/183/181 323/172/170 324/171/169
f 312/183/181 311/184/182 322/173/171 323/172/170
f 311/184/182 310/185/183 321/174/172 322/173/171
f 310/185/183 309/186/184 320/175/173 321/174/172
f 309/186/184 308/187/185 319/176/174 320/175/173
f 308/187/185 307/46/46 318/48/48 319/176/174
f 43/188/186 306/189/187 317/178/176 45/177/175
f 306/189/187 305/190/188 316/179/177 317/178/176
f 305/190/188 304/191/189 315/180/178 316/179/177
f 304/191/189 303/192/190 314/181/179 315/180/178
f 303/192/190 302/193/191 313/182/180 314/181/179
f 302/193/191 301/194/192 312/183/181 313/182/180
f 301/194/192 300/195/193 311/184/182 312/183/181
f 300/195/193 299/196/194 310/185/183 311/184/182
f 299/196/194 298/197/195 309/186/184 310/185/183
f 298/197/195 297/198/196 308/187/185 309/186/184
f 297/198/196 296/44/44 307/46/46 308/187/185
f 41/199/197 295/200/198 306/189/187 43/188/186
f 295/200/198 294/201/199 305/190/188 306/189/187
f 294/201/199 293/202/200 304/191/189 305/190/188
f 293/202/200 292/203/201 303/192/190 304/191/189
f 292/203/201 291/204/202 302/193/191 303/192/190
f 291/204/202 290/205/203 301/194/192 302/193/191
f 290/205/203 289/206/204 300/195/193 301/194/192
f 289/206/204 288/207/205 299/196/194 300/195/193
f 288/207/205 287/208/206 298/197/195 299/196/194
f 287/208/206 286/209/207 297/198/196 298/197/195
f 286/209/207 285/42/42 296/44/44 297/198/196
f 39/210/208 284/211/209 295/200/198 41/199/197
f 284/211/209 283/212/210 294/201/199 295/200/198
f 283/212/210 282/213/211 293/202/200 294/201/199
f 282/213/211 281/214/212 292/203/201 293/202/200
f 281/214/212 280/215/213 291/204/202 292/203/201
f 280/215/213 279/216/214 290/205/203 291/204/202
f 279/216/214 278/217/215 289/206/204 290/205/203
f 278/217/215 277/218/216 288/207/205 289/206/204
f 277/218/216 276/219/217 287/208/206 288/207/205
f 276/219/217 275/220/218 286/209/207 287/208/206
f 275/220/218 274/40/40 285/42/42 286/209/207
f 37/221/219 273/222/220 284/211/209 39/210/208
f 273/222/220 272/223/221 283/212/210 284/211/209
f 272/223/221 271/224/222 282/213/211 283/212/210
f 271/224/222 270/225/223 281/214/212 282/213/211
f 270/225/223 269/226/224 280/215/213 281/214/212
f 269/226/224 268/227/225 279/216/214 280/215/213
f 268/227/225 267/228/226 278/217/215 279/216/214
f 267/228/226 266/229/227 277/218/216 278/217/215
f 266/229/227 265/230/228 276/219/217 277/218/216
f 265/230/228 264/231/229 275/220/218 276/219/217
f 264/231/229 263/38/38 274/40/40 275/220/218
f 35/232/230 262/233/231 273/222/220 37/221/219
f 262/233/231 261/234/232 272/223/221 273/222/220
f 261/234/232 260/235/233 271/224/222 272/223/221
f 260/235/233 259/236/234 270/225/223 271/224/222
f 259/236/234 258/237/235 269/226/224 270/225/223
f 258/237/235 257/238/236 268/227/225 269/226/224
f 257/238/236 256/239/237 267/228/226 268/227/225
f 256/239/237 255/240/238 266/229/227 267/228/226
f 255/240/238 254/241/239 265/230/228 266/229/227
f 254/241/239 253/242/240 264/231/229 265/230/228
f 253/242/240 252/36/36 263/38/38 264/231/229
f 33/243/241 251/244/242 262/233/231 35/232/230
f 251/244/242 250/245/243 261/234/232 262/233/231
f 250/245/243 249/246/244 260/235/233 261/234/232
f 249/246/244 248/247/245 259/236/234 260/235/233
f 248/247/245 247/248/246 258/237/235 259/236/234
f 247/248/246 246/249/247 257/238/236 258/237/235
f 246/249/247 245/250/248 256/239/237 257/238/236
f 245/250/248 244/251/249 255/240/238 256/239/237
f 244/251/249 243/252/250 254/241/239 255/240/238
f 243/252/250 242/253/251 253/242/240 254/241/239
f 242/253/251 241/34/34 252/36/36 253/242/240
f 31/254/252 240/255/253 251/244/242 33/243/241
f 240/255/253 239/256/254 250/245/243 251/244/242
f 239/256/254 238/257/255 249/246/244 250/245/243
f 238/257/255 237/258/256 248/247/245 249/246/244
f 237/258/256 236/259/257 247/248/246 248/247/245
f 236/259/257 235/260/258 246/249/247 247/248/246
f 235/260/258 234/261/259 245/250/248 246/249/247
f 234/261/259 233/262/260 244/251/249 245/250/248
f 233/262/260 232/263/261 243/252/250 244/251/249
f 232/263/261 231/264/262 242/253/251 243/252/250
f 231/264/262 230/32/32 241/34/34 242/253/251
f 29/265/263 229/266/264 240/255/253 31/254/252
f 229/266/264 228/267/265 239/256/254 240/255/253
f 228/267/265 227/268/266 238/257/255 239/256/254
f 227/268/266 226/269/267 237/258/256 238/257/255
f 226/269/267 225/270/268 236/259/257 237/258/256
f 225/270/268 224/271/269 235/260/258 236/259/257
f 224/271/269 223/272/270 234/261/259 235/260/258
f 223/272/270 222/273/271 233/262/260 234/261/259
f 222/273/271 221/274/272 232/263/261 233/262/260
f 221/274/272 220/275/273 231/264/262 232/263/261
f 220/275/273 219/30/30 230/32/32 231/264/262
f 27/276/274 218/277/275 229/266/264 29/265/263
f 218/277/275 217/278/276 228/267/265 229/266/264
f 217/278/276 216/279/277 227/268/266 228/267/265
f 216/279/277 215/280/278 226/269/267 227/268/266
f 215/280/278 214/281/279 225/270/268 226/269/267
f 214/281/279 213/282/280 224/271/269 225/270/268
f 213/282/280 212/283/281 223/272/270 224/271/269
f 212/283/281 211/284/282 222/273/271 223/272/270
f 211/284/282 210/285/283 221/274/272 222/273/271
f 210/285/283 209/286/284 220/275/273 221/274/272
f 209/286/284 208/28/28 219/30/30 220/275/273
f 25/287/285 207/288/286 218/277/275 27/276/274
f 207/288/286 206/289/287 217/278/276 218/277/275
f 206/289/287 205/290/288 216/279/277 217/278/276
f 205/290/288 204/291/289 215/280/278 216/279/277
f 204/291/289 203/292/290 214/281/279 215/280/278
f 203/292/290 202/293/291 213/282/280 214/281/279
f 202/293/291 201/294/292 212/283/281 213/282/280
f 201/294/292 200/295/293 211/284/282 212/283/281
f 200/295/293 199/296/294 210/285/283 211/284/282
f 199/296/294 198/297/295 209/286/284 210/285/283
f 198/297/295 197/26/26 208/28/28 209/286/284
f 23/298/296 196/299/297 207/288/286 25/287/285
f 196/299/297 195/300/298 206/289/287 207/288/286
f 195/300/298 194/301/299 205/290/288 206/289/287
f 194/301/299 193/302/300 204/291/289 205/290/288
f 193/302/300 192/303/301 203/292/290 204/291/289
f 192/303/301 191/304/302 202/293/291 203/292/290
f 191/304/302 190/305/303 201/294/292 202/293/291
f 190/305/303 189/306/304 200/295/293 201/294/292
f 189/306/304 188/307/305 199/296/294 200/295/293
f 188/307/305 187/308/306 198/297/295 199/296/294
f 187/308/306 186/24/24 197/26/26 198/297/295
f 21/309/307 185/310/308 196/299/297 23/298/296
f 185/310/308 184/311/309 195/300/298 196/299/297
f 184/311/309 183/312/310 194/301/299 195/300/298
f 183/312/310 182/313/311 193/302/300 194/301/299
f 182/313/311 181/314/312 192/303/301 193/302/300
f 181/314/312 180/315/313 191/304/302 192/303/301
f 180/315/313 179/316/314 190/305/303 191/304/302
f 179/316/314 178/317/315 189/306/304 190/305/303
f 178/317/315 177/318/316 188/307/305 189/306/304
f 177/318/316 176/319/317 187/308/306 188/307/305
f 176/319/317 175/22/22 186/24/24 187/308/306
f 19/320/318 174/321/319 185/310/308 21/309/307
f 174/321/319 173/322/320 184/311/309 185/310/308
f 173/322/320 172/323/321 183/312/310 184/311/309
f 172/323/321 171/324/322 182/313/311 183/312/310
f 171/324/322 170/325/323 181/314/312 182/313/311
f 170/325/323 169/326/324 180/315/313 181/314/312
f 169/326/324 168/327/325 179/316/314 180/315/313
f 168/327/325 167/328/326 178/317/315 179/316/314
f 167/328/326 166/329/327 177/318/316 178/317/315
f 166/329/327 165/330/328 176/319/317 177/318/316
f 165/330/328 164/20/20 175/22/22 176/319/317
f 17/331/329 163/332/330 174/321/319 19/320/318
f 163/332/330 162/333/331 173/322/320 174/321/319
f 162/333/331 161/334/332 172/323/321 173/322/320
f 161/334/332 160/335/333 171/324/322 172/323/321
f 160/335/333 159/336/334 170/325/323 171/324/322
f 159/336/334 158/337/335 169/326/324 170/325/323
f 158/337/335 157/338/336 168/327/325 169/326/324
f 157/338/336 156/339/337 167/328/326 168/327/325
f 156/339/337 155/340/338 166/329/327 167/328/326
f 155/340/338 154/341/339 165/330/328 166/329/327
f 154/341/339 153/18/18 164/20/20 165/330/328
f 15/342/340 152/343/341 163/332/330 17/331/329
f 152/343/341 151/344/342 162/333/331 163/332/330
f 151/344/342 150/345/343 161/334/332 162/333/331
f 150/345/343 149/346/344 160/335/333 161/334/332
f 149/346/344 148/347/345 159/336/334 160/335/333
f 148/347/345 147/348/346 158/337/335 159/336/334
f 147/348/346 146/349/347 157/338/336 158/337/335
f 146/349/347 145/350/348 156/339/337 157/338/336
f 145/350/348 144/351/349 155/340/338 156/339/337
f 144/351/349 143/352/350 154/341/339 155/340/338
f 143/352/350 142/16/16 153/18/18 154/341/339
f 13/353/351 141/354/352 152/343/341 15/342/340
f 141/354/352 140/355/353 151/344/342 152/343/341
f 140/355/353 139/356/354 150/345/343 151/344/342
f 139/356/354 138/357/355 149/346/344 150/345/343
f 138/357/355 137/358/356 148/347/345 149/346/344
f 137/358/356 136/359/357 147/348/346 148/347/345
f 136/359/357 135/360/358 146/349/347 147/348/346
f 135/360/358 134/361/359 145/350/348 146/349/347
f 134/361/359 133/362/360 144/351/349 145/350/348
f 133/362/360 132/363/361 143/352/350 144/351/349
f 132/363/361 131/14/14 142/16/16 143/352/350
f 11/364/362 130/365/363 141/354/352 13/353/351
f 130/365/363 129/366/364 140/355/353 141/354/352
f 129/366/364 128/367/365 139/356/354 140/355/353
f 128/367/365 127/368/366 138/357/355 139/356/354
f 127/368/366 126/369/367 137/358/356 138/357/355
f 126/369/367 125/370/368 136/359/357 137/358/356
f 125/370/368 124/371/369 135/360/358 136/359/357
f 124/371/369 123/372/370 134/361/359 135/360/358
f 123/372/370 122/373/371 133/362/360 134/361/359
f 122/373/371 121/374/372 132/363/361 133/362/360
f 121/374/372 120/12/12 131/14/14 132/363/361
f 9/375/373 119/376/374 130/365/363 11/364/362
f 119/376/374 118/377/375 129/366/364 130/365/363
f 118/377/375 117/378/376 128/367/365 129/366/364
f 117/378/376 116/379/377 127/368/366 128/367/365
f 116/379/377 115/380/378 126/369/367 127/368/366
f 115/380/378 114/381/379 125/370/368 126/369/367
f 114/381/379 113/382/380 124/371/369 125/370/368
f 113/382/380 112/383/381 123/372/370 124/371/369
f 112/383/381 111/384/382 122/373/371 123/372/370
f 111/384/382 110/385/383 121/374/372 122/373/371
f 110/385/383 109/10/10 120/12/12 121/374/372
f 7/386/384 108/387/385 119/376/374 9/375/373
f 108/387/385 107/388/386 118/377/375 119/376/374
f 107/388/386 106/389/387 117/378/376 118/377/375
f 106/389/387 105/390/388 116/379/377 117/378/376
f 105/390/388 104/391/389 115/380/378 116/379/377
f 104/391/389 103/392/390 114/381/379 115/380/378
f 103/392/390 102/393/391 113/382/380 114/381/379
f 102/393/391 101/394/392 112/383/381 113/382/380
f 101/394/392 100/395/393 111/384/382 112/383/381
f 100/395/393 99/396/394 110/385/383 111/384/382
f 99/396/394 98/8/8 109/10/10 110/385/383
f 5/397/395 97/398/396 108/387/385 7/386/384
f 97/398/396 96/399/397 107/388/386 108/387/385
f 96/399/397 95/400/398 106/389/387 107/388/386
f 95/400/398 94/401/399 105/390/388 106/389/387
f 94/401/399 93/402/400 104/391/389 105/390/388
f 93/402/400 92/403/401 103/392/390 104/391/389
f 92/403/401 91/404/402 102/393/391 103/392/390
f 91/404/402 90/405/403 101/394/392 102/393/391
f 90/405/403 89/406/404 100/395/393 101/394/392
f 89/406/404 88/407/405 99/396/394 100/395/393
f 88/407/405 87/6/6 98/8/8 99/396/394
f 3/408/406 86/409/407 97/398/396 5/397/395
f 86/409/407 85/410/408 96/399/397 97/398/396
f 85/410/408 84/411/409 95/400/398 96/399/397
f 84/411/409 83/412/410 94/401/399 95/400/398
f 83/412/410 82/413/411 93/402/400 94/401/399
f 82/413/411 81/414/412 92/403/401 93/402/400
f 81/414/412 80/415/413 91/404/402 92/403/401
f 80/415/413 79/416/414 90/405/403 91/404/402
f 79/416/414 78/417/415 89/406/404 90/405/403
f 78/417/415 77/418/416 88/407/405 89/406/404
f 77/418/416 76/4/4 87/6/6 88/407/405
f 1/419/68 65/420/67 86/409/407 3/408/406
f 65/420/67 66/421/70 85/410/408 86/409/407
f 66/421/70 67/422/72 84/411/409 85/410/408
f 67/422/72 68/423/74 83/412/410 84/411/409
f 68/423/74 69/424/76 82/413/411 83/412/410
f 69/424/76 70/425/78 81/414/412 82/413/411
f 70/425/78 71/426/80 80/415/413 81/414/412
f 71/426/80 72/427/82 79/416/414 80/415/413
f 72/427/82 73/428/84 78/417/415 79/416/414
f 73/428/84 74/429/86 77/418/416 78/417/415
f 74/429/86 75/1/1 76/4/4 77/418/416
