# Blender 4.5.1 LTS
# www.blender.org
o Cylinder
v 0.013365 -0.000343 -0.424972
v 0.869111 0.202446 -1.159987
v 0.122900 -0.000343 -0.407032
v 1.139723 0.202446 -0.895519
v 0.224060 -0.000343 -0.361354
v 1.332666 0.202446 -0.570023
v 0.309951 -0.000343 -0.291050
v 1.434789 0.202446 -0.205681
v 0.374719 -0.000343 -0.200911
v 1.439135 0.202446 0.172678
v 0.413950 -0.000343 -0.097081
v 1.345404 0.202446 0.539270
v 0.424972 -0.000343 0.013365
v 1.159987 0.202446 0.869111
v 0.407032 -0.000343 0.122900
v 0.895519 0.202446 1.139723
v 0.361354 -0.000343 0.224060
v 0.570023 0.202446 1.332666
v 0.291050 -0.000343 0.309951
v 0.205681 0.202446 1.434789
v 0.200911 -0.000343 0.374719
v -0.172678 0.202446 1.439134
v 0.097081 -0.000343 0.413950
v -0.539270 0.202446 1.345404
v -0.013365 -0.000343 0.424972
v -0.869111 0.202447 1.159987
v -0.122900 -0.000343 0.407032
v -1.139723 0.202446 0.895519
v -0.224060 -0.000343 0.361354
v -1.332666 0.202446 0.570023
v -0.309951 -0.000343 0.291050
v -1.434789 0.202446 0.205681
v -0.374719 -0.000343 0.200911
v -1.439134 0.202446 -0.172678
v -0.413950 -0.000343 0.097081
v -1.345404 0.202446 -0.539270
v -0.424972 -0.000343 -0.013365
v -1.159987 0.202446 -0.869111
v -0.407032 -0.000343 -0.122900
v -0.895519 0.202446 -1.139723
v -0.361354 -0.000343 -0.224060
v -0.570023 0.202446 -1.332666
v -0.291050 -0.000343 -0.309951
v -0.205681 0.202446 -1.434789
v -0.200911 -0.000343 -0.374719
v 0.172678 0.202446 -1.439134
v -0.097081 -0.000343 -0.413950
v 0.539270 0.202446 -1.345404
v 0.414726 0.000000 0.560091
v 0.137430 0.600762 1.129371
v 0.255632 0.000000 0.648345
v -0.159555 0.600762 1.126458
v 0.079118 0.000000 0.692416
v -0.445668 0.600762 1.046780
v -0.102789 -0.000000 0.689300
v -0.701408 0.600762 0.895764
v -0.277690 0.000000 0.639209
v -0.909349 0.600762 0.683704
v -0.433667 0.000000 0.545557
v -1.055319 0.600762 0.425050
v -0.560091 0.000000 0.414726
v -1.129371 0.600762 0.137430
v -0.648346 0.000000 0.255633
v -1.126458 0.600762 -0.159555
v -0.692416 0.000000 0.079118
v -1.046780 0.600763 -0.445668
v -0.689300 0.000000 -0.102789
v -0.895764 0.600763 -0.701408
v -0.639209 0.000000 -0.277690
v -0.683704 0.600763 -0.909349
v -0.545557 0.000000 -0.433667
v -0.425050 0.600763 -1.055319
v -0.414726 0.000000 -0.560091
v -0.137430 0.600763 -1.129371
v -0.255633 0.000000 -0.648345
v 0.159555 0.600763 -1.126458
v -0.079118 0.000000 -0.692416
v 0.445668 0.600763 -1.046780
v 0.102788 0.000000 -0.689300
v 0.701408 0.600763 -0.895764
v 0.277689 0.000000 -0.639209
v 0.909349 0.600763 -0.683704
v 0.433667 0.000000 -0.545557
v 1.055319 0.600762 -0.425050
v 0.560091 0.000000 -0.414726
v 1.129371 0.600763 -0.137430
v 0.648345 0.000000 -0.255633
v 1.126458 0.600762 0.159555
v 0.692416 -0.000000 -0.079118
v 1.046780 0.600763 0.445668
v 0.689300 0.000000 0.102788
v 0.895764 0.600762 0.701408
v 0.639209 -0.000000 0.277690
v 0.683704 0.600762 0.909349
v 0.545557 0.000000 0.433667
v 0.425050 0.600762 1.055319
v 0.124022 0.072686 -0.670367
v 0.489548 0.151307 -0.949058
v 0.293300 0.072686 -0.615426
v 0.718501 0.151307 -0.790015
v 0.442590 0.072686 -0.518544
v 0.898491 0.151307 -0.577134
v 0.561718 0.072686 -0.386325
v 1.017248 0.151307 -0.324923
v 0.642566 0.072686 -0.227778
v 1.066683 0.151307 -0.050568
v 0.679624 0.072686 -0.053708
v 1.043424 0.151307 0.227233
v 0.670367 0.072686 0.124022
v 0.949058 0.151307 0.489548
v 0.615426 0.072686 0.293300
v 0.790015 0.151307 0.718501
v 0.518544 0.072686 0.442590
v 0.577134 0.151307 0.898491
v 0.386325 0.072686 0.561718
v 0.324923 0.151307 1.017248
v 0.227778 0.072686 0.642566
v 0.050568 0.151307 1.066683
v 0.053708 0.072686 0.679624
v -0.227233 0.151307 1.043424
v -0.124022 0.072686 0.670367
v -0.489548 0.151307 0.949058
v -0.293300 0.072686 0.615426
v -0.718501 0.151307 0.790015
v -0.442590 0.072686 0.518544
v -0.898491 0.151307 0.577134
v -0.561718 0.072686 0.386325
v -1.017248 0.151307 0.324923
v -0.642566 0.072686 0.227778
v -1.066683 0.151307 0.050568
v -0.679624 0.072686 0.053708
v -1.043424 0.151307 -0.227233
v -0.670367 0.072686 -0.124022
v -0.949058 0.151307 -0.489548
v -0.615426 0.072686 -0.293300
v -0.790015 0.151307 -0.718501
v -0.518544 0.072686 -0.442590
v -0.577134 0.151307 -0.898491
v -0.386325 0.072686 -0.561718
v -0.324923 0.151307 -1.017248
v -0.227778 0.072686 -0.642566
v -0.050568 0.151307 -1.066683
v -0.053708 0.072686 -0.679624
v 0.227233 0.151307 -1.043424
v 0.375616 0.152414 0.727753
v 0.232335 0.358021 0.911466
v 0.174461 0.152414 0.800172
v -0.011486 0.358021 0.940542
v -0.038583 0.152414 0.818061
v -0.254525 0.358021 0.905521
v -0.248998 0.152414 0.780200
v -0.480218 0.358021 0.808790
v -0.442444 0.152414 0.689170
v -0.673185 0.358021 0.656942
v -0.605739 0.152414 0.551174
v -0.820276 0.358021 0.460323
v -0.727753 0.152414 0.375616
v -0.911466 0.358021 0.232335
v -0.800172 0.152414 0.174461
v -0.940541 0.358021 -0.011486
v -0.818061 0.152414 -0.038583
v -0.905521 0.358021 -0.254525
v -0.780200 0.152414 -0.248998
v -0.808790 0.358021 -0.480218
v -0.689170 0.152414 -0.442444
v -0.656942 0.358021 -0.673185
v -0.551174 0.152414 -0.605739
v -0.460323 0.358021 -0.820276
v -0.375616 0.152414 -0.727753
v -0.232335 0.358021 -0.911466
v -0.174461 0.152414 -0.800172
v 0.011486 0.358021 -0.940541
v 0.038583 0.152414 -0.818061
v 0.254525 0.358021 -0.905520
v 0.248998 0.152414 -0.780200
v 0.480218 0.358021 -0.808790
v 0.442444 0.152414 -0.689170
v 0.673185 0.358021 -0.656942
v 0.605739 0.152414 -0.551174
v 0.820276 0.358021 -0.460323
v 0.727753 0.152414 -0.375616
v 0.911466 0.358021 -0.232335
v 0.800172 0.152414 -0.174461
v 0.940541 0.358021 0.011486
v 0.818061 0.152414 0.038583
v 0.905520 0.358021 0.254525
v 0.780200 0.152414 0.248998
v 0.808790 0.358021 0.480218
v 0.689170 0.152414 0.442444
v 0.656942 0.358021 0.673185
v 0.551174 0.152414 0.605739
v 0.460323 0.358021 0.820276
vn 0.0716 -0.9868 -0.1456
vn 0.0759 -0.9912 -0.1086
vn 0.1015 -0.9912 -0.0852
vn 0.1068 -0.9868 -0.1221
vn 0.1200 -0.9912 -0.0560
vn 0.1348 -0.9868 -0.0902
vn 0.1305 -0.9912 -0.0231
vn 0.1536 -0.9868 -0.0523
vn 0.1320 -0.9912 0.0115
vn 0.1619 -0.9868 -0.0108
vn 0.1245 -0.9912 0.0453
vn 0.1591 -0.9868 0.0315
vn 0.1086 -0.9912 0.0759
vn 0.1456 -0.9868 0.0716
vn 0.0852 -0.9912 0.1015
vn 0.1221 -0.9868 0.1068
vn 0.0560 -0.9912 0.1200
vn 0.0902 -0.9868 0.1348
vn 0.0231 -0.9912 0.1305
vn 0.0523 -0.9868 0.1536
vn -0.0115 -0.9912 0.1320
vn 0.0108 -0.9868 0.1619
vn -0.0453 -0.9912 0.1245
vn -0.0315 -0.9868 0.1591
vn -0.0759 -0.9912 0.1086
vn -0.0716 -0.9868 0.1456
vn -0.1015 -0.9912 0.0852
vn -0.1068 -0.9868 0.1221
vn -0.1200 -0.9912 0.0560
vn -0.1348 -0.9868 0.0902
vn -0.1305 -0.9912 0.0231
vn -0.1536 -0.9868 0.0523
vn -0.1320 -0.9912 -0.0115
vn -0.1619 -0.9868 0.0108
vn -0.1245 -0.9912 -0.0453
vn -0.1591 -0.9868 -0.0315
vn -0.1086 -0.9912 -0.0759
vn -0.1456 -0.9868 -0.0716
vn -0.0852 -0.9912 -0.1015
vn -0.1221 -0.9868 -0.1068
vn -0.0560 -0.9912 -0.1200
vn -0.0902 -0.9868 -0.1348
vn -0.0231 -0.9912 -0.1305
vn -0.0523 -0.9868 -0.1536
vn 0.0115 -0.9912 -0.1320
vn -0.0108 -0.9868 -0.1619
vn 0.0453 -0.9912 -0.1245
vn 0.0315 -0.9868 -0.1591
vn 0.2080 -0.5758 0.7907
vn 0.1139 -0.6309 0.7675
vn -0.0886 -0.6309 0.7708
vn -0.0038 -0.5758 0.8176
vn -0.2851 -0.6309 0.7216
vn -0.2153 -0.5758 0.7888
vn -0.4622 -0.6309 0.6232
vn -0.4121 -0.5758 0.7062
vn -0.6077 -0.6309 0.4823
vn -0.5808 -0.5758 0.5754
vn -0.7118 -0.6309 0.3086
vn -0.7100 -0.5758 0.4055
vn -0.7675 -0.6309 0.1139
vn -0.7907 -0.5758 0.2080
vn -0.7708 -0.6309 -0.0886
vn -0.8176 -0.5758 -0.0038
vn -0.7216 -0.6309 -0.2851
vn -0.7888 -0.5758 -0.2153
vn -0.6232 -0.6309 -0.4622
vn -0.7062 -0.5758 -0.4121
vn -0.4823 -0.6309 -0.6077
vn -0.5754 -0.5758 -0.5808
vn -0.3086 -0.6309 -0.7118
vn -0.4055 -0.5758 -0.7100
vn -0.1139 -0.6309 -0.7675
vn -0.2080 -0.5758 -0.7907
vn 0.0886 -0.6309 -0.7708
vn 0.0038 -0.5758 -0.8176
vn 0.2851 -0.6309 -0.7216
vn 0.2153 -0.5758 -0.7888
vn 0.4622 -0.6309 -0.6232
vn 0.4121 -0.5758 -0.7062
vn 0.6077 -0.6309 -0.4823
vn 0.5808 -0.5758 -0.5754
vn 0.7118 -0.6309 -0.3086
vn 0.7100 -0.5758 -0.4055
vn 0.7675 -0.6309 -0.1139
vn 0.7907 -0.5758 -0.2080
vn 0.7708 -0.6309 0.0886
vn 0.8176 -0.5758 0.0038
vn 0.7216 -0.6309 0.2851
vn 0.7888 -0.5758 0.2153
vn 0.6232 -0.6309 0.4622
vn 0.7062 -0.5758 0.4121
vn 0.4823 -0.6309 0.6077
vn 0.5754 -0.5758 0.5808
vn 0.3086 -0.6309 0.7118
vn 0.4055 -0.5758 0.7100
vn -0.0452 -0.9620 -0.2694
vn -0.0098 -0.9727 -0.2317
vn 0.0505 -0.9727 -0.2264
vn 0.0260 -0.9620 -0.2719
vn -0.1134 -0.9620 -0.2485
vn -0.0694 -0.9727 -0.2213
vn -0.1739 -0.9620 -0.2107
vn -0.1243 -0.9727 -0.1958
vn -0.2225 -0.9620 -0.1585
vn -0.1708 -0.9727 -0.1569
vn -0.2559 -0.9620 -0.0955
vn -0.2056 -0.9727 -0.1074
vn -0.2719 -0.9620 -0.0260
vn -0.2264 -0.9727 -0.0505
vn -0.2694 -0.9620 0.0452
vn -0.2317 -0.9727 0.0098
vn -0.2485 -0.9620 0.1134
vn -0.2213 -0.9727 0.0694
vn -0.2107 -0.9620 0.1739
vn -0.1958 -0.9727 0.1243
vn -0.1585 -0.9620 0.2225
vn -0.1569 -0.9727 0.1708
vn -0.0955 -0.9620 0.2559
vn -0.1074 -0.9727 0.2056
vn -0.0260 -0.9620 0.2719
vn -0.0505 -0.9727 0.2264
vn 0.0452 -0.9620 0.2694
vn 0.0098 -0.9727 0.2317
vn 0.1134 -0.9620 0.2485
vn 0.0694 -0.9727 0.2213
vn 0.1739 -0.9620 0.2107
vn 0.1243 -0.9727 0.1958
vn 0.2225 -0.9620 0.1585
vn 0.1708 -0.9727 0.1569
vn 0.2559 -0.9620 0.0955
vn 0.2056 -0.9727 0.1074
vn 0.2719 -0.9620 0.0260
vn 0.2264 -0.9727 0.0505
vn 0.2694 -0.9620 -0.0452
vn 0.2317 -0.9727 -0.0098
vn 0.2485 -0.9620 -0.1134
vn 0.2213 -0.9727 -0.0694
vn 0.2107 -0.9620 -0.1739
vn 0.1958 -0.9727 -0.1243
vn 0.1585 -0.9620 -0.2225
vn 0.1569 -0.9727 -0.1708
vn 0.0955 -0.9620 -0.2559
vn 0.1074 -0.9727 -0.2056
vn 0.5913 -0.6258 0.5086
vn 0.5417 -0.5676 0.6200
vn 0.3627 -0.5676 0.7391
vn 0.4395 -0.6258 0.6443
vn 0.7028 -0.6258 0.3383
vn 0.6837 -0.5676 0.4587
vn 0.7664 -0.6258 0.1448
vn 0.7791 -0.5676 0.2661
vn 0.7778 -0.6258 -0.0584
vn 0.8214 -0.5676 0.0554
vn 0.7361 -0.6258 -0.2577
vn 0.8078 -0.5676 -0.1591
vn 0.6443 -0.6258 -0.4395
vn 0.7391 -0.5676 -0.3627
vn 0.5086 -0.6258 -0.5913
vn 0.6200 -0.5676 -0.5417
vn 0.3383 -0.6258 -0.7028
vn 0.4587 -0.5676 -0.6837
vn 0.1448 -0.6258 -0.7664
vn 0.2661 -0.5676 -0.7791
vn -0.0584 -0.6258 -0.7778
vn 0.0554 -0.5676 -0.8214
vn -0.2577 -0.6258 -0.7361
vn -0.1591 -0.5676 -0.8078
vn -0.4395 -0.6258 -0.6443
vn -0.3627 -0.5676 -0.7391
vn -0.5913 -0.6258 -0.5086
vn -0.5417 -0.5676 -0.6200
vn -0.7028 -0.6258 -0.3383
vn -0.6837 -0.5676 -0.4587
vn -0.7664 -0.6258 -0.1448
vn -0.7791 -0.5676 -0.2661
vn -0.7778 -0.6258 0.0584
vn -0.8214 -0.5676 -0.0554
vn -0.7361 -0.6258 0.2577
vn -0.8078 -0.5676 0.1591
vn -0.6443 -0.6258 0.4395
vn -0.7391 -0.5676 0.3627
vn -0.5086 -0.6258 0.5913
vn -0.6200 -0.5676 0.5417
vn -0.3383 -0.6258 0.7028
vn -0.4587 -0.5676 0.6837
vn -0.1448 -0.6258 0.7664
vn -0.2661 -0.5676 0.7791
vn 0.0584 -0.6258 0.7778
vn -0.0554 -0.5676 0.8214
vn 0.2577 -0.6258 0.7361
vn 0.1591 -0.5676 0.8078
vt 1.000000 0.666667
vt 1.000000 1.000000
vt 0.958333 1.000000
vt 0.958333 0.666667
vt 0.916667 1.000000
vt 0.916667 0.666667
vt 0.875000 1.000000
vt 0.875000 0.666667
vt 0.833333 1.000000
vt 0.833333 0.666667
vt 0.791667 1.000000
vt 0.791667 0.666667
vt 0.750000 1.000000
vt 0.750000 0.666667
vt 0.708333 1.000000
vt 0.708333 0.666667
vt 0.666667 1.000000
vt 0.666667 0.666667
vt 0.625000 1.000000
vt 0.625000 0.666667
vt 0.583333 1.000000
vt 0.583333 0.666667
vt 0.541666 1.000000
vt 0.541666 0.666667
vt 0.500000 1.000000
vt 0.500000 0.666667
vt 0.458333 1.000000
vt 0.458333 0.666667
vt 0.416666 1.000000
vt 0.416666 0.666667
vt 0.375000 1.000000
vt 0.375000 0.666667
vt 0.333333 1.000000
vt 0.333333 0.666667
vt 0.291667 1.000000
vt 0.291667 0.666667
vt 0.250000 1.000000
vt 0.250000 0.666667
vt 0.208333 1.000000
vt 0.208333 0.666667
vt 0.166666 1.000000
vt 0.166666 0.666667
vt 0.125000 1.000000
vt 0.125000 0.666667
vt 0.083333 1.000000
vt 0.083333 0.666667
vt 0.041666 1.000000
vt 0.041666 0.666667
vt -0.000000 1.000000
vt 0.000000 0.666667
vt 0.041666 0.000000
vt 0.041666 0.333333
vt 0.000000 0.333333
vt -0.000000 0.000000
vt 0.083333 0.000000
vt 0.083333 0.333333
vt 0.125000 0.000000
vt 0.125000 0.333333
vt 0.166666 0.000000
vt 0.166666 0.333333
vt 0.208333 0.000000
vt 0.208333 0.333333
vt 0.250000 0.000000
vt 0.250000 0.333333
vt 0.291667 0.000000
vt 0.291667 0.333333
vt 0.333333 0.000000
vt 0.333333 0.333333
vt 0.375000 0.000000
vt 0.375000 0.333333
vt 0.416666 0.000000
vt 0.416666 0.333333
vt 0.458333 0.000000
vt 0.458333 0.333333
vt 0.500000 0.000000
vt 0.500000 0.333333
vt 0.541666 0.000000
vt 0.541666 0.333333
vt 0.583333 0.000000
vt 0.583333 0.333333
vt 0.625000 0.000000
vt 0.625000 0.333333
vt 0.666667 0.000000
vt 0.666667 0.333333
vt 0.708333 0.000000
vt 0.708333 0.333333
vt 0.750000 0.000000
vt 0.750000 0.333333
vt 0.791667 0.000000
vt 0.791667 0.333333
vt 0.833333 0.000000
vt 0.833333 0.333333
vt 0.875000 0.000000
vt 0.875000 0.333333
vt 0.916667 0.000000
vt 0.916667 0.333333
vt 0.958333 0.000000
vt 0.958333 0.333333
vt 1.000000 0.000000
vt 1.000000 0.333333
s 1
f 98/1/1 2/2/2 4/3/3 100/4/4
f 100/4/4 4/3/3 6/5/5 102/6/6
f 102/6/6 6/5/5 8/7/7 104/8/8
f 104/8/8 8/7/7 10/9/9 106/10/10
f 106/10/10 10/9/9 12/11/11 108/12/12
f 108/12/12 12/11/11 14/13/13 110/14/14
f 110/14/14 14/13/13 16/15/15 112/16/16
f 112/16/16 16/15/15 18/17/17 114/18/18
f 114/18/18 18/17/17 20/19/19 116/20/20
f 116/20/20 20/19/19 22/21/21 118/22/22
f 118/22/22 22/21/21 24/23/23 120/24/24
f 120/24/24 24/23/23 26/25/25 122/26/26
f 122/26/26 26/25/25 28/27/27 124/28/28
f 124/28/28 28/27/27 30/29/29 126/30/30
f 126/30/30 30/29/29 32/31/31 128/32/32
f 128/32/32 32/31/31 34/33/33 130/34/34
f 130/34/34 34/33/33 36/35/35 132/36/36
f 132/36/36 36/35/35 38/37/37 134/38/38
f 134/38/38 38/37/37 40/39/39 136/40/40
f 136/40/40 40/39/39 42/41/41 138/42/42
f 138/42/42 42/41/41 44/43/43 140/44/44
f 140/44/44 44/43/43 46/45/45 142/46/46
f 142/46/46 46/45/45 48/47/47 144/48/48
f 144/48/48 48/47/47 2/49/2 98/50/1
f 146/1/49 50/2/50 52/3/51 148/4/52
f 148/4/52 52/3/51 54/5/53 150/6/54
f 150/6/54 54/5/53 56/7/55 152/8/56
f 152/8/56 56/7/55 58/9/57 154/10/58
f 154/10/58 58/9/57 60/11/59 156/12/60
f 156/12/60 60/11/59 62/13/61 158/14/62
f 158/14/62 62/13/61 64/15/63 160/16/64
f 160/16/64 64/15/63 66/17/65 162/18/66
f 162/18/66 66/17/65 68/19/67 164/20/68
f 164/20/68 68/19/67 70/21/69 166/22/70
f 166/22/70 70/21/69 72/23/71 168/24/72
f 168/24/72 72/23/71 74/25/73 170/26/74
f 170/26/74 74/25/73 76/27/75 172/28/76
f 172/28/76 76/27/75 78/29/77 174/30/78
f 174/30/78 78/29/77 80/31/79 176/32/80
f 176/32/80 80/31/79 82/33/81 178/34/82
f 178/34/82 82/33/81 84/35/83 180/36/84
f 180/36/84 84/35/83 86/37/85 182/38/86
f 182/38/86 86/37/85 88/39/87 184/40/88
f 184/40/88 88/39/87 90/41/89 186/42/90
f 186/42/90 90/41/89 92/43/91 188/44/92
f 188/44/92 92/43/91 94/45/93 190/46/94
f 190/46/94 94/45/93 96/47/95 192/48/96
f 192/48/96 96/47/95 50/49/50 146/50/49
f 47/51/97 143/52/98 97/53/99 1/54/100
f 143/52/98 144/48/48 98/50/1 97/53/99
f 45/55/101 141/56/102 143/52/98 47/51/97
f 141/56/102 142/46/46 144/48/48 143/52/98
f 43/57/103 139/58/104 141/56/102 45/55/101
f 139/58/104 140/44/44 142/46/46 141/56/102
f 41/59/105 137/60/106 139/58/104 43/57/103
f 137/60/106 138/42/42 140/44/44 139/58/104
f 39/61/107 135/62/108 137/60/106 41/59/105
f 135/62/108 136/40/40 138/42/42 137/60/106
f 37/63/109 133/64/110 135/62/108 39/61/107
f 133/64/110 134/38/38 136/40/40 135/62/108
f 35/65/111 131/66/112 133/64/110 37/63/109
f 131/66/112 132/36/36 134/38/38 133/64/110
f 33/67/113 129/68/114 131/66/112 35/65/111
f 129/68/114 130/34/34 132/36/36 131/66/112
f 31/69/115 127/70/116 129/68/114 33/67/113
f 127/70/116 128/32/32 130/34/34 129/68/114
f 29/71/117 125/72/118 127/70/116 31/69/115
f 125/72/118 126/30/30 128/32/32 127/70/116
f 27/73/119 123/74/120 125/72/118 29/71/117
f 123/74/120 124/28/28 126/30/30 125/72/118
f 25/75/121 121/76/122 123/74/120 27/73/119
f 121/76/122 122/26/26 124/28/28 123/74/120
f 23/77/123 119/78/124 121/76/122 25/75/121
f 119/78/124 120/24/24 122/26/26 121/76/122
f 21/79/125 117/80/126 119/78/124 23/77/123
f 117/80/126 118/22/22 120/24/24 119/78/124
f 19/81/127 115/82/128 117/80/126 21/79/125
f 115/82/128 116/20/20 118/22/22 117/80/126
f 17/83/129 113/84/130 115/82/128 19/81/127
f 113/84/130 114/18/18 116/20/20 115/82/128
f 15/85/131 111/86/132 113/84/130 17/83/129
f 111/86/132 112/16/16 114/18/18 113/84/130
f 13/87/133 109/88/134 111/86/132 15/85/131
f 109/88/134 110/14/14 112/16/16 111/86/132
f 11/89/135 107/90/136 109/88/134 13/87/133
f 107/90/136 108/12/12 110/14/14 109/88/134
f 9/91/137 105/92/138 107/90/136 11/89/135
f 105/92/138 106/10/10 108/12/12 107/90/136
f 7/93/139 103/94/140 105/92/138 9/91/137
f 103/94/140 104/8/8 106/10/10 105/92/138
f 5/95/141 101/96/142 103/94/140 7/93/139
f 101/96/142 102/6/6 104/8/8 103/94/140
f 3/97/143 99/98/144 101/96/142 5/95/141
f 99/98/144 100/4/4 102/6/6 101/96/142
f 1/99/100 97/100/99 99/98/144 3/97/143
f 97/100/99 98/1/1 100/4/4 99/98/144
f 95/51/145 191/52/146 145/53/147 49/54/148
f 191/52/146 192/48/96 146/50/49 145/53/147
f 93/55/149 189/56/150 191/52/146 95/51/145
f 189/56/150 190/46/94 192/48/96 191/52/146
f 91/57/151 187/58/152 189/56/150 93/55/149
f 187/58/152 188/44/92 190/46/94 189/56/150
f 89/59/153 185/60/154 187/58/152 91/57/151
f 185/60/154 186/42/90 188/44/92 187/58/152
f 87/61/155 183/62/156 185/60/154 89/59/153
f 183/62/156 184/40/88 186/42/90 185/60/154
f 85/63/157 181/64/158 183/62/156 87/61/155
f 181/64/158 182/38/86 184/40/88 183/62/156
f 83/65/159 179/66/160 181/64/158 85/63/157
f 179/66/160 180/36/84 182/38/86 181/64/158
f 81/67/161 177/68/162 179/66/160 83/65/159
f 177/68/162 178/34/82 180/36/84 179/66/160
f 79/69/163 175/70/164 177/68/162 81/67/161
f 175/70/164 176/32/80 178/34/82 177/68/162
f 77/71/165 173/72/166 175/70/164 79/69/163
f 173/72/166 174/30/78 176/32/80 175/70/164
f 75/73/167 171/74/168 173/72/166 77/71/165
f 171/74/168 172/28/76 174/30/78 173/72/166
f 73/75/169 169/76/170 171/74/168 75/73/167
f 169/76/170 170/26/74 172/28/76 171/74/168
f 71/77/171 167/78/172 169/76/170 73/75/169
f 167/78/172 168/24/72 170/26/74 169/76/170
f 69/79/173 165/80/174 167/78/172 71/77/171
f 165/80/174 166/22/70 168/24/72 167/78/172
f 67/81/175 163/82/176 165/80/174 69/79/173
f 163/82/176 164/20/68 166/22/70 165/80/174
f 65/83/177 161/84/178 163/82/176 67/81/175
f 161/84/178 162/18/66 164/20/68 163/82/176
f 63/85/179 159/86/180 161/84/178 65/83/177
f 159/86/180 160/16/64 162/18/66 161/84/178
f 61/87/181 157/88/182 159/86/180 63/85/179
f 157/88/182 158/14/62 160/16/64 159/86/180
f 59/89/183 155/90/184 157/88/182 61/87/181
f 155/90/184 156/12/60 158/14/62 157/88/182
f 57/91/185 153/92/186 155/90/184 59/89/183
f 153/92/186 154/10/58 156/12/60 155/90/184
f 55/93/187 151/94/188 153/92/186 57/91/185
f 151/94/188 152/8/56 154/10/58 153/92/186
f 53/95/189 149/96/190 151/94/188 55/93/187
f 149/96/190 150/6/54 152/8/56 151/94/188
f 51/97/191 147/98/192 149/96/190 53/95/189
f 147/98/192 148/4/52 150/6/54 149/96/190
f 49/99/148 145/100/147 147/98/192 51/97/191
f 145/100/147 146/1/49 148/4/52 147/98/192
