# Blender 5.1.2
# www.blender.org
mtllib sm_ring221_cross.mtl
o Cylinder
v 0.000000 -0.000000 -1.430079
v 0.000000 -0.000000 -0.778266
v 0.370132 -0.000000 -1.381350
v 0.201430 -0.000000 -0.751748
v 0.715040 -0.000000 -1.238485
v 0.389133 -0.000000 -0.673998
v 1.011219 -0.000000 -1.011219
v 0.550317 -0.000000 -0.550317
v 1.238485 -0.000000 -0.715040
v 0.673998 -0.000000 -0.389133
v 1.381350 -0.000000 -0.370132
v 0.751747 -0.000000 -0.201430
v 1.430079 0.000000 0.000000
v 0.778266 0.000000 0.000000
v 1.381350 0.000000 0.370132
v 0.751747 0.000000 0.201430
v 1.238485 0.000000 0.715040
v 0.673998 0.000000 0.389133
v 1.011219 0.000000 1.011219
v 0.550317 0.000000 0.550317
v 0.715040 0.000000 1.238485
v 0.389133 0.000000 0.673998
v 0.370132 0.000000 1.381350
v 0.201430 0.000000 0.751747
v 0.000000 0.000000 1.430079
v 0.000000 0.000000 0.778266
v -0.370132 0.000000 1.381350
v -0.201430 0.000000 0.751747
v -0.715040 0.000000 1.238485
v -0.389133 0.000000 0.673998
v -1.011219 0.000000 1.011219
v -0.550317 0.000000 0.550317
v -1.238485 0.000000 0.715040
v -0.673998 0.000000 0.389133
v -1.381350 0.000000 0.370132
v -0.751748 0.000000 0.201430
v -1.430079 0.000000 0.000000
v -0.778266 0.000000 0.000000
v -1.381350 -0.000000 -0.370132
v -0.751748 -0.000000 -0.201430
v -1.238485 -0.000000 -0.715040
v -0.673998 -0.000000 -0.389133
v -1.011219 -0.000000 -1.011219
v -0.550317 -0.000000 -0.550317
v -0.715040 -0.000000 -1.238485
v -0.389133 -0.000000 -0.673998
v -0.370132 -0.000000 -1.381350
v -0.201430 -0.000000 -0.751748
v -0.000000 0.320000 -1.104172
v 0.000000 -0.320000 -1.104172
v 0.285781 0.320000 -1.066549
v 0.285781 -0.320000 -1.066549
v 0.552087 0.320000 -0.956241
v 0.552087 -0.320000 -0.956241
v 0.780768 0.320000 -0.780768
v 0.780768 -0.320000 -0.780768
v 0.956241 0.320000 -0.552087
v 0.956241 -0.320000 -0.552087
v 1.066549 0.320000 -0.285781
v 1.066549 -0.320000 -0.285781
v 1.104172 0.320000 -0.000000
v 1.104172 -0.320000 0.000000
v 1.066549 0.320000 0.285781
v 1.066549 -0.320000 0.285781
v 0.956241 0.320000 0.552087
v 0.956241 -0.320000 0.552087
v 0.780768 0.320000 0.780768
v 0.780768 -0.320000 0.780768
v 0.552087 0.320000 0.956241
v 0.552087 -0.320000 0.956241
v 0.285781 0.320000 1.066549
v 0.285781 -0.320000 1.066549
v 0.000000 0.320000 1.104172
v -0.000000 -0.320000 1.104172
v -0.285781 0.320000 1.066549
v -0.285781 -0.320000 1.066549
v -0.552087 0.320000 0.956241
v -0.552087 -0.320000 0.956241
v -0.780768 0.320000 0.780768
v -0.780768 -0.320000 0.780768
v -0.956241 0.320000 0.552087
v -0.956242 -0.320000 0.552087
v -1.066549 0.320000 0.285781
v -1.066549 -0.320000 0.285781
v -1.104172 0.320000 -0.000000
v -1.104172 -0.320000 0.000000
v -1.066549 0.320000 -0.285781
v -1.066549 -0.320000 -0.285781
v -0.956241 0.320000 -0.552086
v -0.956242 -0.320000 -0.552087
v -0.780768 0.320000 -0.780768
v -0.780768 -0.320000 -0.780768
v -0.552087 0.320000 -0.956241
v -0.552086 -0.320000 -0.956241
v -0.285781 0.320000 -1.066549
v -0.285781 -0.320000 -1.066549
vn -0.0000 1.0000 -0.0000
vn -0.0000 -0.0000 -1.0000
vn 0.2588 -0.0000 -0.9659
vn 0.5000 -0.0000 -0.8660
vn 0.7071 -0.0000 -0.7071
vn 0.8660 -0.0000 -0.5000
vn 0.9659 -0.0000 -0.2588
vn 1.0000 -0.0000 -0.0000
vn 0.9659 -0.0000 0.2588
vn 0.8660 -0.0000 0.5000
vn 0.7071 -0.0000 0.7071
vn 0.5000 -0.0000 0.8660
vn 0.2588 -0.0000 0.9659
vn -0.0000 -0.0000 1.0000
vn -0.2588 -0.0000 0.9659
vn -0.5000 -0.0000 0.8660
vn -0.7071 -0.0000 0.7071
vn -0.8660 -0.0000 0.5000
vn -0.9659 -0.0000 0.2588
vn -1.0000 -0.0000 -0.0000
vn -0.9659 -0.0000 -0.2588
vn -0.8660 -0.0000 -0.5000
vn -0.7071 -0.0000 -0.7071
vn -0.5000 -0.0000 -0.8660
vn -0.2588 -0.0000 -0.9659
vt 1.000000 0.000000
vt 1.000000 1.000000
vt 0.958333 1.000000
vt 0.958333 0.000000
vt 0.916667 1.000000
vt 0.916667 0.000000
vt 0.875000 1.000000
vt 0.875000 0.000000
vt 0.833333 1.000000
vt 0.833333 0.000000
vt 0.791667 1.000000
vt 0.791667 0.000000
vt 0.750000 1.000000
vt 0.750000 0.000000
vt 0.708333 1.000000
vt 0.708333 0.000000
vt 0.666667 1.000000
vt 0.666667 0.000000
vt 0.625000 1.000000
vt 0.625000 0.000000
vt 0.583333 1.000000
vt 0.583333 0.000000
vt 0.541666 1.000000
vt 0.541666 0.000000
vt 0.500000 1.000000
vt 0.500000 0.000000
vt 0.458333 1.000000
vt 0.458333 0.000000
vt 0.416666 1.000000
vt 0.416666 0.000000
vt 0.375000 1.000000
vt 0.375000 0.000000
vt 0.333333 1.000000
vt 0.333333 0.000000
vt 0.291667 1.000000
vt 0.291667 0.000000
vt 0.250000 1.000000
vt 0.250000 0.000000
vt 0.208333 1.000000
vt 0.208333 0.000000
vt 0.166666 1.000000
vt 0.166666 0.000000
vt 0.125000 1.000000
vt 0.125000 0.000000
vt 0.083333 1.000000
vt 0.083333 0.000000
vt 0.041666 1.000000
vt 0.041666 0.000000
vt -0.000000 1.000000
vt -0.000000 0.000000
vt 0.000000 0.000000
vt 0.041667 0.000000
vt 0.041667 1.000000
vt 0.083333 0.000000
vt 0.083333 1.000000
vt 0.166667 0.000000
vt 0.166667 1.000000
vt 0.208333 0.000000
vt 0.208333 1.000000
vt 0.291667 0.000000
vt 0.291667 1.000000
vt 0.333333 0.000000
vt 0.333333 1.000000
vt 0.416667 0.000000
vt 0.416667 1.000000
vt 0.458333 0.000000
vt 0.458333 1.000000
vt 0.541667 0.000000
vt 0.541667 1.000000
vt 0.583333 0.000000
vt 0.583333 1.000000
vt 0.666667 0.000000
vt 0.666667 1.000000
vt 0.708333 0.000000
vt 0.708333 1.000000
vt 0.791667 0.000000
vt 0.791667 1.000000
vt 0.833333 0.000000
vt 0.833333 1.000000
vt 0.916667 0.000000
vt 0.916667 1.000000
vt 0.958333 0.000000
vt 0.958333 1.000000
s 1
f 1/1/1 2/2/1 4/3/1 3/4/1
f 3/4/1 4/3/1 6/5/1 5/6/1
f 5/6/1 6/5/1 8/7/1 7/8/1
f 7/8/1 8/7/1 10/9/1 9/10/1
f 9/10/1 10/9/1 12/11/1 11/12/1
f 11/12/1 12/11/1 14/13/1 13/14/1
f 13/14/1 14/13/1 16/15/1 15/16/1
f 15/16/1 16/15/1 18/17/1 17/18/1
f 17/18/1 18/17/1 20/19/1 19/20/1
f 19/20/1 20/19/1 22/21/1 21/22/1
f 21/22/1 22/21/1 24/23/1 23/24/1
f 23/24/1 24/23/1 26/25/1 25/26/1
f 25/26/1 26/25/1 28/27/1 27/28/1
f 27/28/1 28/27/1 30/29/1 29/30/1
f 29/30/1 30/29/1 32/31/1 31/32/1
f 31/32/1 32/31/1 34/33/1 33/34/1
f 33/34/1 34/33/1 36/35/1 35/36/1
f 35/36/1 36/35/1 38/37/1 37/38/1
f 37/38/1 38/37/1 40/39/1 39/40/1
f 39/40/1 40/39/1 42/41/1 41/42/1
f 41/42/1 42/41/1 44/43/1 43/44/1
f 43/44/1 44/43/1 46/45/1 45/46/1
f 45/46/1 46/45/1 48/47/1 47/48/1
f 47/48/1 48/47/1 2/49/1 1/50/1
f 50/49/2 49/51/2 51/52/3 52/53/3
f 52/53/3 51/52/3 53/54/4 54/55/4
f 54/55/4 53/54/4 55/44/5 56/43/5
f 56/43/5 55/44/5 57/56/6 58/57/6
f 58/57/6 57/56/6 59/58/7 60/59/7
f 60/59/7 59/58/7 61/38/8 62/37/8
f 62/37/8 61/38/8 63/60/9 64/61/9
f 64/61/9 63/60/9 65/62/10 66/63/10
f 66/63/10 65/62/10 67/32/11 68/31/11
f 68/31/11 67/32/11 69/64/12 70/65/12
f 70/65/12 69/64/12 71/66/13 72/67/13
f 72/67/13 71/66/13 73/26/14 74/25/14
f 74/25/14 73/26/14 75/68/15 76/69/15
f 76/69/15 75/68/15 77/70/16 78/71/16
f 78/71/16 77/70/16 79/20/17 80/19/17
f 80/19/17 79/20/17 81/72/18 82/73/18
f 82/73/18 81/72/18 83/74/19 84/75/19
f 84/75/19 83/74/19 85/14/20 86/13/20
f 86/13/20 85/14/20 87/76/21 88/77/21
f 88/77/21 87/76/21 89/78/22 90/79/22
f 90/79/22 89/78/22 91/8/23 92/7/23
f 92/7/23 91/8/23 93/80/24 94/81/24
f 94/81/24 93/80/24 95/82/25 96/83/25
f 96/83/25 95/82/25 49/1/2 50/2/2
