# Blender 5.1.2
# www.blender.org
o Cylinder
v -0.000000 0.656535 -1.236564
v 0.000000 1.282095 -0.740395
v 0.344762 0.625015 -1.203905
v 0.365776 1.248653 -0.705746
v 0.666029 0.532602 -1.108153
v 0.706626 1.150607 -0.604158
v 0.941907 0.385594 -0.955835
v 0.999320 0.994639 -0.442555
v 1.153596 0.194010 -0.757330
v 1.223912 0.791377 -0.231950
v 1.286669 -0.029094 -0.526166
v 1.365096 0.554673 0.013304
v 1.332058 -0.268514 -0.278096
v 1.413252 0.300659 0.276495
v 1.286669 -0.507935 -0.030026
v 1.365096 0.046645 0.539685
v 1.153596 -0.731039 0.201138
v 1.223912 -0.190058 0.784939
v 0.941907 -0.922623 0.399643
v 0.999320 -0.393320 0.995544
v 0.666029 -1.069631 0.551962
v 0.706626 -0.549289 1.157147
v 0.344762 -1.162044 0.647713
v 0.365776 -0.647334 1.258735
v -0.000000 -1.193564 0.680372
v 0.000000 -0.680776 1.293384
v -0.344762 -1.162044 0.647713
v -0.365776 -0.647334 1.258735
v -0.666029 -1.069631 0.551962
v -0.706626 -0.549289 1.157147
v -0.941907 -0.922623 0.399643
v -0.999320 -0.393320 0.995544
v -1.153596 -0.731039 0.201138
v -1.223912 -0.190058 0.784939
v -1.286669 -0.507935 -0.030026
v -1.365096 0.046645 0.539685
v -1.332058 -0.268514 -0.278096
v -1.413252 0.300659 0.276495
v -1.286669 -0.029094 -0.526166
v -1.365096 0.554673 0.013304
v -1.153596 0.194010 -0.757330
v -1.223912 0.791377 -0.231950
v -0.941907 0.385594 -0.955835
v -0.999320 0.994639 -0.442555
v -0.666029 0.532602 -1.108153
v -0.706626 1.150607 -0.604158
v -0.344762 0.625015 -1.203905
v -0.365776 1.248653 -0.705746
v 0.000000 1.003064 -1.040960
v 0.374147 0.968857 -1.005518
v 0.722796 0.868568 -0.901605
v 1.022187 0.709031 -0.736305
v 1.251919 0.501117 -0.520880
v 1.396334 0.258997 -0.270014
v 1.445591 -0.000829 -0.000801
v 1.396334 -0.260656 0.268413
v 1.251919 -0.502776 0.519279
v 1.022187 -0.710690 0.734703
v 0.722796 -0.870227 0.900004
v 0.374147 -0.970516 1.003917
v 0.000000 -1.004723 1.039359
v -0.374147 -0.970516 1.003917
v -0.722796 -0.870227 0.900004
v -1.022188 -0.710690 0.734703
v -1.251919 -0.502776 0.519279
v -1.396334 -0.260656 0.268413
v -1.445592 -0.000829 -0.000801
v -1.396334 0.258997 -0.270014
v -1.251919 0.501117 -0.520880
v -1.022188 0.709031 -0.736305
v -0.722796 0.868568 -0.901605
v -0.374147 0.968857 -1.005518
vn -0.0000 0.6206 -0.7842
vn -0.0000 0.7329 -0.6804
vn 0.2579 0.7099 -0.6554
vn 0.2582 0.5968 -0.7597
vn 0.4983 0.6425 -0.5821
vn 0.4986 0.5271 -0.6882
vn 0.7048 0.5353 -0.4656
vn 0.7048 0.4164 -0.5744
vn 0.8632 0.3955 -0.3137
vn 0.8627 0.2722 -0.4263
vn 0.9629 0.2327 -0.1367
vn 0.9615 0.1045 -0.2540
vn 0.9969 0.0580 0.0532
vn 0.9948 -0.0752 -0.0693
vn 0.9629 -0.1167 0.2431
vn 0.9602 -0.2546 0.1151
vn 0.8633 -0.2796 0.4201
vn 0.8603 -0.4215 0.2867
vn 0.7049 -0.4194 0.5721
vn 0.7020 -0.5647 0.4339
vn 0.4984 -0.5267 0.6887
vn 0.4962 -0.6744 0.5467
vn 0.2580 -0.5941 0.7619
vn 0.2568 -0.7434 0.6176
vn -0.0000 -0.6171 0.7869
vn -0.0000 -0.7669 0.6418
vn -0.2580 -0.5941 0.7619
vn -0.2568 -0.7434 0.6176
vn -0.4984 -0.5267 0.6887
vn -0.4962 -0.6744 0.5467
vn -0.7049 -0.4194 0.5721
vn -0.7020 -0.5647 0.4339
vn -0.8633 -0.2796 0.4201
vn -0.8603 -0.4215 0.2867
vn -0.9629 -0.1167 0.2431
vn -0.9602 -0.2546 0.1151
vn -0.9969 0.0580 0.0532
vn -0.9948 -0.0752 -0.0693
vn -0.9629 0.2327 -0.1367
vn -0.9615 0.1045 -0.2540
vn -0.8632 0.3955 -0.3137
vn -0.8627 0.2722 -0.4263
vn -0.7048 0.5353 -0.4656
vn -0.7048 0.4164 -0.5744
vn -0.4983 0.6425 -0.5821
vn -0.4986 0.5271 -0.6882
vn -0.2579 0.7099 -0.6554
vn -0.2582 0.5968 -0.7597
vn -0.2497 0.4678 -0.8478
vn -0.0000 0.4916 -0.8708
vn -0.4822 0.3982 -0.7803
vn -0.6813 0.2877 -0.6731
vn -0.8334 0.1440 -0.5336
vn -0.9281 -0.0229 -0.3716
vn -0.9592 -0.2014 -0.1983
vn -0.9249 -0.3793 -0.0256
vn -0.8278 -0.5445 0.1348
vn -0.6749 -0.6859 0.2721
vn -0.4767 -0.7941 0.3772
vn -0.2465 -0.8619 0.4431
vn -0.0000 -0.8850 0.4656
vn 0.2465 -0.8619 0.4431
vn 0.4767 -0.7941 0.3772
vn 0.6749 -0.6859 0.2721
vn 0.8278 -0.5445 0.1348
vn 0.9249 -0.3793 -0.0256
vn 0.9592 -0.2014 -0.1983
vn 0.9281 -0.0229 -0.3716
vn 0.8334 0.1440 -0.5336
vn 0.6813 0.2877 -0.6731
vn 0.4822 0.3982 -0.7803
vn 0.2497 0.4678 -0.8478
vt 1.000000 0.500000
vt 1.000000 1.000000
vt 0.958333 1.000000
vt 0.958333 0.500000
vt 0.916667 1.000000
vt 0.916667 0.500000
vt 0.875000 1.000000
vt 0.875000 0.500000
vt 0.833333 1.000000
vt 0.833333 0.500000
vt 0.791667 1.000000
vt 0.791667 0.500000
vt 0.750000 1.000000
vt 0.750000 0.500000
vt 0.708333 1.000000
vt 0.708333 0.500000
vt 0.666667 1.000000
vt 0.666667 0.500000
vt 0.625000 1.000000
vt 0.625000 0.500000
vt 0.583333 1.000000
vt 0.583333 0.500000
vt 0.541666 1.000000
vt 0.541666 0.500000
vt 0.500000 1.000000
vt 0.500000 0.500000
vt 0.458333 1.000000
vt 0.458333 0.500000
vt 0.416666 1.000000
vt 0.416666 0.500000
vt 0.375000 1.000000
vt 0.375000 0.500000
vt 0.333333 1.000000
vt 0.333333 0.500000
vt 0.291667 1.000000
vt 0.291667 0.500000
vt 0.250000 1.000000
vt 0.250000 0.500000
vt 0.208333 1.000000
vt 0.208333 0.500000
vt 0.166666 1.000000
vt 0.166666 0.500000
vt 0.125000 1.000000
vt 0.125000 0.500000
vt 0.083333 1.000000
vt 0.083333 0.500000
vt 0.041666 1.000000
vt 0.041666 0.500000
vt -0.000000 1.000000
vt -0.000000 0.500000
vt 0.041666 0.000000
vt -0.000000 0.000000
vt 0.083333 0.000000
vt 0.125000 0.000000
vt 0.166666 0.000000
vt 0.208333 0.000000
vt 0.250000 0.000000
vt 0.291667 0.000000
vt 0.333333 0.000000
vt 0.375000 0.000000
vt 0.416666 0.000000
vt 0.458333 0.000000
vt 0.500000 0.000000
vt 0.541666 0.000000
vt 0.583333 0.000000
vt 0.625000 0.000000
vt 0.666667 0.000000
vt 0.708333 0.000000
vt 0.750000 0.000000
vt 0.791667 0.000000
vt 0.833333 0.000000
vt 0.875000 0.000000
vt 0.916667 0.000000
vt 0.958333 0.000000
vt 1.000000 0.000000
s 1
f 49/1/1 2/2/2 4/3/3 50/4/4
f 50/4/4 4/3/3 6/5/5 51/6/6
f 51/6/6 6/5/5 8/7/7 52/8/8
f 52/8/8 8/7/7 10/9/9 53/10/10
f 53/10/10 10/9/9 12/11/11 54/12/12
f 54/12/12 12/11/11 14/13/13 55/14/14
f 55/14/14 14/13/13 16/15/15 56/16/16
f 56/16/16 16/15/15 18/17/17 57/18/18
f 57/18/18 18/17/17 20/19/19 58/20/20
f 58/20/20 20/19/19 22/21/21 59/22/22
f 59/22/22 22/21/21 24/23/23 60/24/24
f 60/24/24 24/23/23 26/25/25 61/26/26
f 61/26/26 26/25/25 28/27/27 62/28/28
f 62/28/28 28/27/27 30/29/29 63/30/30
f 63/30/30 30/29/29 32/31/31 64/32/32
f 64/32/32 32/31/31 34/33/33 65/34/34
f 65/34/34 34/33/33 36/35/35 66/36/36
f 66/36/36 36/35/35 38/37/37 67/38/38
f 67/38/38 38/37/37 40/39/39 68/40/40
f 68/40/40 40/39/39 42/41/41 69/42/42
f 69/42/42 42/41/41 44/43/43 70/44/44
f 70/44/44 44/43/43 46/45/45 71/46/46
f 71/46/46 46/45/45 48/47/47 72/48/48
f 72/48/48 48/47/47 2/49/2 49/50/1
f 47/51/49 72/48/48 49/50/1 1/52/50
f 45/53/51 71/46/46 72/48/48 47/51/49
f 43/54/52 70/44/44 71/46/46 45/53/51
f 41/55/53 69/42/42 70/44/44 43/54/52
f 39/56/54 68/40/40 69/42/42 41/55/53
f 37/57/55 67/38/38 68/40/40 39/56/54
f 35/58/56 66/36/36 67/38/38 37/57/55
f 33/59/57 65/34/34 66/36/36 35/58/56
f 31/60/58 64/32/32 65/34/34 33/59/57
f 29/61/59 63/30/30 64/32/32 31/60/58
f 27/62/60 62/28/28 63/30/30 29/61/59
f 25/63/61 61/26/26 62/28/28 27/62/60
f 23/64/62 60/24/24 61/26/26 25/63/61
f 21/65/63 59/22/22 60/24/24 23/64/62
f 19/66/64 58/20/20 59/22/22 21/65/63
f 17/67/65 57/18/18 58/20/20 19/66/64
f 15/68/66 56/16/16 57/18/18 17/67/65
f 13/69/67 55/14/14 56/16/16 15/68/66
f 11/70/68 54/12/12 55/14/14 13/69/67
f 9/71/69 53/10/10 54/12/12 11/70/68
f 7/72/70 52/8/8 53/10/10 9/71/69
f 5/73/71 51/6/6 52/8/8 7/72/70
f 3/74/72 50/4/4 51/6/6 5/73/71
f 1/75/50 49/1/1 50/4/4 3/74/72
