# Blender 4.5.1 LTS
# www.blender.org
o NurbsPath
v 0.398300 3.755628 -1.121600
v 0.295225 4.244372 -0.754306
v 0.840565 3.546436 -0.605173
v 0.765174 4.115891 -0.371855
v 0.948560 3.433009 -0.223504
v 0.906919 4.026749 -0.049898
v 0.938334 3.352973 0.067688
v 0.922118 3.950648 0.231766
v 0.871136 3.288111 0.296104
v 0.863868 3.882830 0.471195
v 0.768220 3.230814 0.476979
v 0.754608 3.819616 0.670694
v 0.637848 3.176395 0.620427
v 0.604084 3.758140 0.832163
v 0.486922 3.122175 0.731372
v 0.420806 3.697269 0.953399
v 0.322786 3.066912 0.811074
v 0.214972 3.637454 1.028463
v 0.151139 3.009863 0.860846
v -0.001151 3.579423 1.052702
v -0.024026 2.950842 0.882177
v -0.213977 3.523365 1.025481
v -0.199593 2.890577 0.874950
v -0.410565 3.468550 0.951357
v -0.371224 2.830368 0.837267
v -0.581324 3.413679 0.839795
v -0.532568 2.771077 0.768159
v -0.721279 3.357891 0.701544
v -0.676841 2.712846 0.669665
v -0.828808 3.301043 0.545850
v -0.798313 2.655465 0.546342
v -0.904103 3.243345 0.380192
v -0.893052 2.598651 0.404144
v -0.948339 3.185079 0.210635
v -0.958365 2.542141 0.249444
v -0.963948 3.126509 0.042361
v -0.991288 2.485591 0.088893
v -0.955689 3.067980 -0.120762
v -0.990155 2.428734 -0.069744
v -0.928762 3.009757 -0.277213
v -0.958455 2.371871 -0.219266
v -0.884377 2.951542 -0.426375
v -0.903408 2.315499 -0.355599
v -0.820883 2.892834 -0.566013
v -0.829801 2.259860 -0.476264
v -0.739448 2.833393 -0.693740
v -0.739613 2.205486 -0.577930
v -0.644191 2.772688 -0.809397
v -0.637164 2.152993 -0.659190
v -0.536735 2.710102 -0.912061
v -0.529473 2.101588 -0.723654
v -0.415680 2.646427 -0.996785
v -0.421286 2.049133 -0.776647
v -0.281475 2.583803 -1.057680
v -0.313237 1.994150 -0.821062
v -0.138176 2.523706 -1.091846
v -0.203959 1.936599 -0.857088
v 0.008630 2.466178 -1.099477
v -0.091982 1.877410 -0.882825
v 0.153688 2.410288 -1.083045
v 0.023038 1.817693 -0.895275
v 0.293211 2.354926 -1.046229
v 0.140045 1.757985 -0.892327
v 0.425015 2.299555 -0.991796
v 0.257358 1.698366 -0.873078
v 0.547633 2.244093 -0.921272
v 0.373055 1.638822 -0.837037
v 0.659741 2.188558 -0.835756
v 0.485240 1.579252 -0.784201
v 0.759786 2.133049 -0.735889
v 0.593157 1.519270 -0.715948
v 0.844729 2.077951 -0.621147
v 0.698027 1.458495 -0.633977
v 0.909134 2.023647 -0.491022
v 0.800368 1.397574 -0.537107
v 0.947863 1.969488 -0.348532
v 0.896221 1.338107 -0.421345
v 0.959879 1.913876 -0.200352
v 0.974735 1.280872 -0.283624
v 0.950905 1.856032 -0.053356
v 1.018887 1.223818 -0.127094
v 0.932935 1.798007 0.090436
v 1.016489 1.164336 0.036764
v 0.913639 1.742409 0.235898
v 0.971472 1.104134 0.195684
v 0.885583 1.687532 0.387179
v 0.897263 1.046045 0.343930
v 0.833249 1.630540 0.540570
v 0.803347 0.989868 0.480163
v 0.747089 1.571638 0.686993
v 0.693463 0.933914 0.603821
v 0.625578 1.512513 0.815986
v 0.568830 0.876714 0.714461
v 0.472326 1.454634 0.917184
v 0.429283 0.817686 0.811245
v 0.294983 1.398583 0.981311
v 0.273743 0.757376 0.892603
v 0.104512 1.343813 1.001469
v 0.100743 0.697563 0.954627
v -0.085569 1.288547 0.975252
v -0.088676 0.640273 0.984926
v -0.262857 1.230757 0.911514
v -0.281888 0.583940 0.963558
v -0.425716 1.172011 0.829816
v -0.456833 0.525462 0.883670
v -0.582031 1.115409 0.739837
v -0.601218 0.466802 0.761462
v -0.730844 1.058990 0.631419
v -0.718369 0.409914 0.618411
v -0.857161 1.000798 0.491949
v -0.815103 0.353207 0.464927
v -0.944873 0.942427 0.322171
v -0.892980 0.295457 0.301826
v -0.985806 0.885097 0.134173
v -0.943344 0.237524 0.127673
v -0.985029 0.827939 -0.056913
v -0.951016 0.179872 -0.052763
v -0.955642 0.769697 -0.243777
v -0.910273 0.120844 -0.231879
v -0.898154 0.708212 -0.429998
v -0.825881 0.056652 -0.409946
v -0.795719 0.639726 -0.618548
v -0.694522 -0.019648 -0.593109
v -0.622842 0.559888 -0.801435
v -0.484110 -0.121714 -0.790896
v -0.338504 0.459384 -0.950657
v -0.034533 -0.290250 -1.033939
v 0.170795 0.290250 -0.961414
vn 0.7086 0.4349 -0.5557
vn 0.8454 0.3209 -0.4270
vn 0.8454 0.3208 -0.4270
vn 0.9829 0.1212 -0.1389
vn 0.9920 -0.0017 0.1258
vn 0.9320 -0.0887 0.3514
vn 0.8250 -0.1569 0.5429
vn 0.6859 -0.2104 0.6966
vn 0.5267 -0.2485 0.8129
vn 0.3511 -0.2693 0.8968
vn 0.1617 -0.2699 0.9492
vn -0.0377 -0.2491 0.9677
vn -0.2404 -0.2101 0.9477
vn -0.4356 -0.1606 0.8857
vn -0.4355 -0.1606 0.8857
vn -0.6112 -0.1089 0.7840
vn -0.7578 -0.0609 0.6497
vn -0.7577 -0.0609 0.6497
vn -0.8702 -0.0195 0.4923
vn -0.9468 0.0144 0.3216
vn -0.9884 0.0382 0.1467
vn -0.9987 0.0462 -0.0230
vn -0.9830 0.0336 -0.1804
vn -0.9465 0.0031 -0.3228
vn -0.8923 -0.0380 -0.4499
vn -0.8237 -0.0863 -0.5605
vn -0.7446 -0.1441 -0.6518
vn -0.7446 -0.1442 -0.6518
vn -0.6582 -0.2084 -0.7235
vn -0.5655 -0.2666 -0.7805
vn -0.4657 -0.3064 -0.8302
vn -0.3568 -0.3232 -0.8765
vn -0.2372 -0.3201 -0.9172
vn -0.1080 -0.3043 -0.9464
vn 0.0271 -0.2831 -0.9587
vn 0.1639 -0.2614 -0.9512
vn 0.2990 -0.2411 -0.9233
vn 0.4296 -0.2221 -0.8753
vn 0.5541 -0.2024 -0.8075
vn 0.6725 -0.1755 -0.7190
vn 0.7837 -0.1323 -0.6068
vn 0.8812 -0.0680 -0.4679
vn 0.8811 -0.0680 -0.4679
vn 0.9524 0.0106 -0.3048
vn 0.9523 0.0106 -0.3048
vn 0.9880 0.0821 -0.1308
vn 0.9926 0.1165 0.0354
vn 0.9926 0.1165 0.0355
vn 0.9781 0.0962 0.1844
vn 0.9470 0.0313 0.3198
vn 0.8926 -0.0487 0.4482
vn 0.8116 -0.1176 0.5722
vn 0.7044 -0.1620 0.6911
vn 0.5711 -0.1764 0.8017
vn 0.4106 -0.1584 0.8979
vn 0.2225 -0.1070 0.9690
vn 0.0127 -0.0288 0.9995
vn -0.2005 0.0507 0.9784
vn -0.3934 0.0910 0.9148
vn -0.3935 0.0910 0.9148
vn -0.5567 0.0704 0.8277
vn -0.6930 0.0084 0.7209
vn -0.8062 -0.0525 0.5893
vn -0.8984 -0.0817 0.4316
vn -0.9650 -0.0764 0.2509
vn -0.9966 -0.0597 0.0563
vn -0.9881 -0.0627 -0.1403
vn -0.9397 -0.0929 -0.3292
vn -0.8506 -0.1293 -0.5097
vn -0.7043 -0.1411 -0.6957
vn -0.4417 -0.0678 -0.8946
vn -0.4418 -0.0679 -0.8945
vn -0.2545 0.0043 -0.9671
vt 1.000000 1.112864
vt 1.000000 1.093408
vt 0.000000 1.093408
vt 0.000000 1.112864
vt 1.000000 1.073952
vt 0.000000 1.073952
vt 1.000000 1.054496
vt 0.000000 1.054496
vt 1.000000 1.035040
vt 0.000000 1.035040
vt 1.000000 1.015584
vt 0.000000 1.015584
vt 1.000000 0.996128
vt 0.000000 0.996128
vt 1.000000 0.976672
vt 0.000000 0.976672
vt 1.000000 0.957216
vt 0.000000 0.957216
vt 1.000000 0.937760
vt 0.000000 0.937760
vt 1.000000 0.918304
vt 0.000000 0.918304
vt 1.000000 0.898848
vt 0.000000 0.898848
vt 1.000000 0.879392
vt 0.000000 0.879392
vt 1.000000 0.859936
vt 0.000000 0.859936
vt 1.000000 0.840480
vt 0.000000 0.840480
vt 1.000000 0.821024
vt 0.000000 0.821024
vt 1.000000 0.801568
vt 0.000000 0.801568
vt 1.000000 0.782112
vt 0.000000 0.782112
vt 1.000000 0.762656
vt 0.000000 0.762656
vt 1.000000 0.743200
vt 0.000000 0.743200
vt 1.000000 0.723744
vt 0.000000 0.723744
vt 1.000000 0.704288
vt 0.000000 0.704288
vt 1.000000 0.684832
vt 0.000000 0.684832
vt 1.000000 0.665376
vt 0.000000 0.665376
vt 1.000000 0.645920
vt 0.000000 0.645920
vt 1.000000 0.626464
vt 0.000000 0.626464
vt 1.000000 0.607008
vt 0.000000 0.607008
vt 1.000000 0.587552
vt 0.000000 0.587552
vt 1.000000 0.568096
vt 0.000000 0.568096
vt 1.000000 0.548640
vt 0.000000 0.548640
vt 1.000000 0.529184
vt 0.000000 0.529184
vt 1.000000 0.509728
vt 0.000000 0.509728
vt 1.000000 0.490272
vt 0.000000 0.490272
vt 1.000000 0.470816
vt 0.000000 0.470816
vt 1.000000 0.451360
vt 0.000000 0.451360
vt 1.000000 0.431904
vt 0.000000 0.431904
vt 1.000000 0.412448
vt 0.000000 0.412448
vt 1.000000 0.392992
vt 0.000000 0.392992
vt 1.000000 0.373536
vt 0.000000 0.373536
vt 1.000000 0.354080
vt 0.000000 0.354080
vt 1.000000 0.334624
vt 0.000000 0.334624
vt 1.000000 0.315168
vt 0.000000 0.315168
vt 1.000000 0.295712
vt 0.000000 0.295712
vt 1.000000 0.276256
vt 0.000000 0.276256
vt 1.000000 0.256800
vt 0.000000 0.256800
vt 1.000000 0.237344
vt 0.000000 0.237344
vt 1.000000 0.217888
vt 0.000000 0.217888
vt 1.000000 0.198432
vt 0.000000 0.198432
vt 1.000000 0.178976
vt 0.000000 0.178976
vt 1.000000 0.159520
vt 0.000000 0.159520
vt 1.000000 0.140064
vt 0.000000 0.140064
vt 1.000000 0.120608
vt 0.000000 0.120608
vt 1.000000 0.101152
vt 0.000000 0.101152
vt 1.000000 0.081696
vt 0.000000 0.081696
vt 1.000000 0.062240
vt 0.000000 0.062240
vt 1.000000 0.042784
vt 0.000000 0.042784
vt 1.000000 0.023328
vt 0.000000 0.023328
vt 1.000000 0.003872
vt 0.000000 0.003872
vt 1.000000 -0.015584
vt 0.000000 -0.015584
vt 1.000000 -0.035040
vt 0.000000 -0.035040
vt 1.000000 -0.054496
vt 0.000000 -0.054496
vt 1.000000 -0.073952
vt 0.000000 -0.073952
vt 1.000000 -0.093409
vt 0.000000 -0.093408
vt 1.000000 -0.112864
vt 0.000000 -0.112864
s 1
f 2/1/1 4/2/3 3/3/2 1/4/1
f 4/2/3 6/5/4 5/6/4 3/3/2
f 6/5/4 8/7/5 7/8/5 5/6/4
f 8/7/5 10/9/6 9/10/6 7/8/5
f 10/9/6 12/11/7 11/12/7 9/10/6
f 12/11/7 14/13/8 13/14/8 11/12/7
f 14/13/8 16/15/9 15/16/9 13/14/8
f 16/15/9 18/17/10 17/18/10 15/16/9
f 18/17/10 20/19/11 19/20/11 17/18/10
f 20/19/11 22/21/12 21/22/12 19/20/11
f 22/21/12 24/23/13 23/24/13 21/22/12
f 24/23/13 26/25/15 25/26/14 23/24/13
f 26/25/15 28/27/16 27/28/16 25/26/14
f 28/27/16 30/29/18 29/30/17 27/28/16
f 30/29/18 32/31/19 31/32/19 29/30/17
f 32/31/19 34/33/20 33/34/20 31/32/19
f 34/33/20 36/35/21 35/36/21 33/34/20
f 36/35/21 38/37/22 37/38/22 35/36/21
f 38/37/22 40/39/23 39/40/23 37/38/22
f 40/39/23 42/41/24 41/42/24 39/40/23
f 42/41/24 44/43/25 43/44/25 41/42/24
f 44/43/25 46/45/26 45/46/26 43/44/25
f 46/45/26 48/47/28 47/48/27 45/46/26
f 48/47/28 50/49/29 49/50/29 47/48/27
f 50/49/29 52/51/30 51/52/30 49/50/29
f 52/51/30 54/53/31 53/54/31 51/52/30
f 54/53/31 56/55/32 55/56/32 53/54/31
f 56/55/32 58/57/33 57/58/33 55/56/32
f 58/57/33 60/59/34 59/60/34 57/58/33
f 60/59/34 62/61/35 61/62/35 59/60/34
f 62/61/35 64/63/36 63/64/36 61/62/35
f 64/63/36 66/65/37 65/66/37 63/64/36
f 66/65/37 68/67/38 67/68/38 65/66/37
f 68/67/38 70/69/39 69/70/39 67/68/38
f 70/69/39 72/71/40 71/72/40 69/70/39
f 72/71/40 74/73/41 73/74/41 71/72/40
f 74/73/41 76/75/43 75/76/42 73/74/41
f 76/75/43 78/77/45 77/78/44 75/76/42
f 78/77/45 80/79/46 79/80/46 77/78/44
f 80/79/46 82/81/48 81/82/47 79/80/46
f 82/81/48 84/83/49 83/84/49 81/82/47
f 84/83/49 86/85/50 85/86/50 83/84/49
f 86/85/50 88/87/51 87/88/51 85/86/50
f 88/87/51 90/89/52 89/90/52 87/88/51
f 90/89/52 92/91/53 91/92/53 89/90/52
f 92/91/53 94/93/54 93/94/54 91/92/53
f 94/93/54 96/95/55 95/96/55 93/94/54
f 96/95/55 98/97/56 97/98/56 95/96/55
f 98/97/56 100/99/57 99/100/57 97/98/56
f 100/99/57 102/101/58 101/102/58 99/100/57
f 102/101/58 104/103/60 103/104/59 101/102/58
f 104/103/60 106/105/61 105/106/61 103/104/59
f 106/105/61 108/107/62 107/108/62 105/106/61
f 108/107/62 110/109/63 109/110/63 107/108/62
f 110/109/63 112/111/64 111/112/64 109/110/63
f 112/111/64 114/113/65 113/114/65 111/112/64
f 114/113/65 116/115/66 115/116/66 113/114/65
f 116/115/66 118/117/67 117/118/67 115/116/66
f 118/117/67 120/119/68 119/120/68 117/118/67
f 120/119/68 122/121/69 121/122/69 119/120/68
f 122/121/69 124/123/70 123/124/70 121/122/69
f 124/123/70 126/125/72 125/126/71 123/124/70
f 126/125/72 128/127/73 127/128/73 125/126/71
