# Blender 4.3.2
# www.blender.org
o Cylinder
v 0.000000 0.002189 -0.148490
v 0.000000 1.361587 -1.169946
v 0.038432 0.002189 -0.143431
v 0.302804 1.361587 -1.130081
v 0.074245 0.002189 -0.128596
v 0.584973 1.361587 -1.013203
v 0.104999 0.002189 -0.104999
v 0.827277 1.361587 -0.827277
v 0.128596 0.002189 -0.074245
v 1.013203 1.361587 -0.584973
v 0.143431 0.002189 -0.038432
v 1.130081 1.361587 -0.302804
v 0.148490 0.002189 -0.000000
v 1.169946 1.361587 -0.000000
v 0.143431 0.002189 0.038432
v 1.130081 1.361587 0.302804
v 0.128596 0.002189 0.074245
v 1.013203 1.361587 0.584973
v 0.104999 0.002189 0.104999
v 0.827277 1.361587 0.827277
v 0.074245 0.002189 0.128596
v 0.584973 1.361587 1.013203
v 0.038432 0.002189 0.143431
v 0.302804 1.361587 1.130081
v 0.000000 0.002189 0.148490
v 0.000000 1.361587 1.169946
v -0.038432 0.002189 0.143431
v -0.302804 1.361587 1.130081
v -0.074245 0.002189 0.128596
v -0.584973 1.361587 1.013203
v -0.104999 0.002189 0.104999
v -0.827277 1.361587 0.827277
v -0.128596 0.002189 0.074245
v -1.013203 1.361587 0.584973
v -0.143431 0.002189 0.038432
v -1.130081 1.361587 0.302804
v -0.148490 0.002189 -0.000000
v -1.169946 1.361587 -0.000000
v -0.143431 0.002189 -0.038432
v -1.130081 1.361587 -0.302804
v -0.128596 0.002189 -0.074245
v -1.013203 1.361587 -0.584973
v -0.104999 0.002189 -0.104999
v -0.827277 1.361587 -0.827277
v -0.074245 0.002189 -0.128596
v -0.584973 1.361587 -1.013203
v -0.038432 0.002189 -0.143431
v -0.302804 1.361587 -1.130081
v 0.000000 0.121510 -0.463155
v 0.000000 0.297914 -0.737221
v 0.000000 0.509109 -0.943119
v 0.000000 0.722228 -1.078829
v 0.000000 0.935348 -1.142134
v 0.000000 1.148468 -1.157091
v 0.299477 1.148468 -1.117664
v 0.295606 0.935348 -1.103216
v 0.279222 0.722228 -1.042069
v 0.244097 0.509109 -0.910983
v 0.190807 0.297914 -0.712101
v 0.119873 0.121510 -0.447373
v 0.578546 1.148468 -1.002070
v 0.571067 0.935348 -0.989117
v 0.539415 0.722228 -0.934294
v 0.471559 0.509109 -0.816765
v 0.368611 0.297914 -0.638452
v 0.231578 0.121510 -0.401104
v 0.818187 1.148468 -0.818187
v 0.807610 0.935348 -0.807610
v 0.762847 0.722228 -0.762847
v 0.666886 0.509109 -0.666886
v 0.521294 0.297914 -0.521294
v 0.327500 0.121510 -0.327500
v 1.002070 1.148468 -0.578546
v 0.989117 0.935348 -0.571067
v 0.934294 0.722228 -0.539415
v 0.816765 0.509109 -0.471559
v 0.638452 0.297914 -0.368611
v 0.401104 0.121510 -0.231578
v 1.117664 1.148468 -0.299477
v 1.103216 0.935348 -0.295606
v 1.042069 0.722228 -0.279222
v 0.910983 0.509109 -0.244097
v 0.712101 0.297914 -0.190807
v 0.447373 0.121510 -0.119873
v 1.157091 1.148468 -0.000000
v 1.142134 0.935348 -0.000000
v 1.078829 0.722228 -0.000000
v 0.943119 0.509109 -0.000000
v 0.737221 0.297914 -0.000000
v 0.463155 0.121510 -0.000000
v 1.117664 1.148468 0.299477
v 1.103216 0.935348 0.295606
v 1.042069 0.722228 0.279222
v 0.910983 0.509109 0.244097
v 0.712101 0.297914 0.190807
v 0.447373 0.121510 0.119873
v 1.002070 1.148468 0.578546
v 0.989117 0.935348 0.571067
v 0.934294 0.722228 0.539415
v 0.816765 0.509109 0.471559
v 0.638452 0.297914 0.368611
v 0.401104 0.121510 0.231578
v 0.818187 1.148468 0.818187
v 0.807610 0.935348 0.807610
v 0.762847 0.722228 0.762847
v 0.666886 0.509109 0.666886
v 0.521294 0.297914 0.521294
v 0.327500 0.121510 0.327500
v 0.578546 1.148468 1.002070
v 0.571067 0.935348 0.989117
v 0.539415 0.722228 0.934294
v 0.471559 0.509109 0.816765
v 0.368611 0.297914 0.638452
v 0.231578 0.121510 0.401104
v 0.299477 1.148468 1.117664
v 0.295606 0.935348 1.103216
v 0.279222 0.722228 1.042069
v 0.244097 0.509109 0.910983
v 0.190807 0.297914 0.712101
v 0.119873 0.121510 0.447374
v 0.000000 1.148468 1.157091
v 0.000000 0.935348 1.142134
v 0.000000 0.722228 1.078829
v 0.000000 0.509109 0.943119
v 0.000000 0.297914 0.737221
v 0.000000 0.121510 0.463155
v -0.299477 1.148468 1.117664
v -0.295606 0.935348 1.103216
v -0.279222 0.722228 1.042069
v -0.244097 0.509109 0.910983
v -0.190807 0.297914 0.712101
v -0.119873 0.121510 0.447374
v -0.578546 1.148468 1.002070
v -0.571067 0.935348 0.989117
v -0.539415 0.722228 0.934294
v -0.471559 0.509109 0.816765
v -0.368611 0.297914 0.638452
v -0.231578 0.121510 0.401104
v -0.818187 1.148468 0.818187
v -0.807610 0.935348 0.807610
v -0.762847 0.722228 0.762847
v -0.666886 0.509109 0.666886
v -0.521294 0.297914 0.521294
v -0.327500 0.121510 0.327500
v -1.002070 1.148468 0.578546
v -0.989117 0.935348 0.571067
v -0.934294 0.722228 0.539415
v -0.816765 0.509109 0.471559
v -0.638452 0.297914 0.368611
v -0.401104 0.121510 0.231578
v -1.117664 1.148468 0.299477
v -1.103216 0.935348 0.295606
v -1.042069 0.722228 0.279222
v -0.910983 0.509109 0.244097
v -0.712101 0.297914 0.190807
v -0.447373 0.121510 0.119873
v -1.157091 1.148468 -0.000000
v -1.142134 0.935348 -0.000000
v -1.078829 0.722228 -0.000000
v -0.943119 0.509109 -0.000000
v -0.737221 0.297914 -0.000000
v -0.463155 0.121510 -0.000000
v -1.117664 1.148468 -0.299477
v -1.103216 0.935348 -0.295606
v -1.042069 0.722228 -0.279222
v -0.910983 0.509109 -0.244097
v -0.712101 0.297914 -0.190807
v -0.447373 0.121510 -0.119873
v -1.002070 1.148468 -0.578546
v -0.989117 0.935348 -0.571067
v -0.934294 0.722228 -0.539415
v -0.816765 0.509109 -0.471559
v -0.638452 0.297914 -0.368611
v -0.401104 0.121510 -0.231578
v -0.818187 1.148468 -0.818187
v -0.807610 0.935348 -0.807610
v -0.762847 0.722228 -0.762847
v -0.666886 0.509109 -0.666886
v -0.521294 0.297914 -0.521294
v -0.327500 0.121510 -0.327500
v -0.578546 1.148468 -1.002070
v -0.571067 0.935348 -0.989117
v -0.539415 0.722228 -0.934294
v -0.471559 0.509109 -0.816765
v -0.368611 0.297914 -0.638452
v -0.231578 0.121510 -0.401104
v -0.299477 1.148468 -1.117664
v -0.295606 0.935348 -1.103216
v -0.279222 0.722228 -1.042069
v -0.244097 0.509109 -0.910983
v -0.190807 0.297914 -0.712101
v -0.119873 0.121510 -0.447373
v 0.000000 0.004378 -0.111367
v 0.000000 2.723174 -0.877460
v 0.028824 0.004378 -0.107573
v 0.227103 2.723174 -0.847561
v 0.055684 0.004378 -0.096447
v 0.438730 2.723174 -0.759902
v 0.078749 0.004378 -0.078749
v 0.620458 2.723174 -0.620458
v 0.096447 0.004378 -0.055684
v 0.759902 2.723174 -0.438730
v 0.107573 0.004378 -0.028824
v 0.847561 2.723174 -0.227103
v 0.111367 0.004378 -0.000000
v 0.877459 2.723174 -0.000000
v 0.107573 0.004378 0.028824
v 0.847561 2.723174 0.227103
v 0.096447 0.004378 0.055684
v 0.759902 2.723174 0.438730
v 0.078749 0.004378 0.078749
v 0.620458 2.723174 0.620458
v 0.055684 0.004378 0.096447
v 0.438730 2.723174 0.759902
v 0.028824 0.004378 0.107573
v 0.227103 2.723174 0.847561
v 0.000000 0.004378 0.111367
v 0.000000 2.723174 0.877459
v -0.028824 0.004378 0.107573
v -0.227103 2.723174 0.847561
v -0.055684 0.004378 0.096447
v -0.438730 2.723174 0.759902
v -0.078749 0.004378 0.078749
v -0.620458 2.723174 0.620458
v -0.096447 0.004378 0.055684
v -0.759902 2.723174 0.438730
v -0.107573 0.004378 0.028824
v -0.847561 2.723174 0.227103
v -0.111367 0.004378 -0.000000
v -0.877459 2.723174 -0.000000
v -0.107573 0.004378 -0.028824
v -0.847561 2.723174 -0.227103
v -0.096447 0.004378 -0.055684
v -0.759902 2.723174 -0.438730
v -0.078749 0.004378 -0.078749
v -0.620458 2.723174 -0.620458
v -0.055684 0.004378 -0.096447
v -0.438730 2.723174 -0.759902
v -0.028824 0.004378 -0.107573
v -0.227103 2.723174 -0.847561
v 0.000000 0.243020 -0.347366
v 0.000000 0.595828 -0.552916
v 0.000000 1.018218 -0.707339
v 0.000000 1.444456 -0.809122
v 0.000000 1.870696 -0.856601
v 0.000000 2.296936 -0.867818
v 0.224608 2.296936 -0.838248
v 0.221704 1.870696 -0.827412
v 0.209417 1.444456 -0.781552
v 0.183073 1.018218 -0.683237
v 0.143105 0.595828 -0.534076
v 0.089905 0.243020 -0.335530
v 0.433909 2.296936 -0.751553
v 0.428300 1.870696 -0.741838
v 0.404561 1.444456 -0.700721
v 0.353669 1.018218 -0.612574
v 0.276458 0.595828 -0.478839
v 0.173684 0.243020 -0.300828
v 0.613640 2.296936 -0.613640
v 0.605707 1.870696 -0.605708
v 0.572135 1.444456 -0.572135
v 0.500165 1.018218 -0.500165
v 0.390970 0.595828 -0.390971
v 0.245625 0.243020 -0.245625
v 0.751552 2.296936 -0.433910
v 0.741838 1.870696 -0.428300
v 0.700720 1.444456 -0.404561
v 0.612574 1.018218 -0.353669
v 0.478839 0.595828 -0.276458
v 0.300828 0.243020 -0.173684
v 0.838248 2.296936 -0.224608
v 0.827412 1.870696 -0.221705
v 0.781552 1.444456 -0.209417
v 0.683237 1.018218 -0.183073
v 0.534076 0.595828 -0.143105
v 0.335530 0.243020 -0.089905
v 0.867818 2.296936 -0.000000
v 0.856600 1.870696 -0.000000
v 0.809122 1.444456 -0.000000
v 0.707339 1.018218 -0.000000
v 0.552916 0.595828 -0.000000
v 0.347366 0.243020 -0.000000
v 0.838248 2.296936 0.224608
v 0.827412 1.870696 0.221704
v 0.781552 1.444456 0.209416
v 0.683237 1.018218 0.183073
v 0.534076 0.595828 0.143105
v 0.335530 0.243020 0.089905
v 0.751552 2.296936 0.433909
v 0.741838 1.870696 0.428300
v 0.700720 1.444456 0.404561
v 0.612574 1.018218 0.353669
v 0.478839 0.595828 0.276458
v 0.300828 0.243020 0.173683
v 0.613640 2.296936 0.613640
v 0.605707 1.870696 0.605707
v 0.572135 1.444456 0.572135
v 0.500165 1.018218 0.500164
v 0.390970 0.595828 0.390970
v 0.245625 0.243020 0.245625
v 0.433909 2.296936 0.751552
v 0.428300 1.870696 0.741838
v 0.404561 1.444456 0.700720
v 0.353669 1.018218 0.612574
v 0.276458 0.595828 0.478839
v 0.173684 0.243020 0.300828
v 0.224608 2.296936 0.838248
v 0.221704 1.870696 0.827412
v 0.209417 1.444456 0.781552
v 0.183073 1.018218 0.683237
v 0.143105 0.595828 0.534076
v 0.089905 0.243020 0.335530
v 0.000000 2.296936 0.867818
v 0.000000 1.870696 0.856600
v 0.000000 1.444456 0.809122
v 0.000000 1.018218 0.707339
v 0.000000 0.595828 0.552916
v 0.000000 0.243020 0.347366
v -0.224608 2.296936 0.838248
v -0.221704 1.870696 0.827412
v -0.209417 1.444456 0.781552
v -0.183073 1.018218 0.683237
v -0.143105 0.595828 0.534076
v -0.089905 0.243020 0.335530
v -0.433909 2.296936 0.751552
v -0.428300 1.870696 0.741838
v -0.404561 1.444456 0.700720
v -0.353669 1.018218 0.612574
v -0.276458 0.595828 0.478839
v -0.173684 0.243020 0.300828
v -0.613640 2.296936 0.613640
v -0.605707 1.870696 0.605707
v -0.572135 1.444456 0.572135
v -0.500165 1.018218 0.500164
v -0.390970 0.595828 0.390970
v -0.245625 0.243020 0.245625
v -0.751552 2.296936 0.433909
v -0.741838 1.870696 0.428300
v -0.700720 1.444456 0.404561
v -0.612574 1.018218 0.353669
v -0.478839 0.595828 0.276458
v -0.300828 0.243020 0.173683
v -0.838248 2.296936 0.224608
v -0.827412 1.870696 0.221704
v -0.781552 1.444456 0.209416
v -0.683237 1.018218 0.183073
v -0.534076 0.595828 0.143105
v -0.335530 0.243020 0.089905
v -0.867818 2.296936 -0.000000
v -0.856600 1.870696 -0.000000
v -0.809122 1.444456 -0.000000
v -0.707339 1.018218 -0.000000
v -0.552916 0.595828 -0.000000
v -0.347366 0.243020 -0.000000
v -0.838248 2.296936 -0.224608
v -0.827412 1.870696 -0.221705
v -0.781552 1.444456 -0.209417
v -0.683237 1.018218 -0.183073
v -0.534076 0.595828 -0.143105
v -0.335530 0.243020 -0.089905
v -0.751552 2.296936 -0.433910
v -0.741838 1.870696 -0.428300
v -0.700720 1.444456 -0.404561
v -0.612574 1.018218 -0.353669
v -0.478839 0.595828 -0.276458
v -0.300828 0.243020 -0.173684
v -0.613640 2.296936 -0.613640
v -0.605707 1.870696 -0.605708
v -0.572135 1.444456 -0.572135
v -0.500165 1.018218 -0.500165
v -0.390970 0.595828 -0.390971
v -0.245625 0.243020 -0.245625
v -0.433909 2.296936 -0.751553
v -0.428300 1.870696 -0.741838
v -0.404561 1.444456 -0.700721
v -0.353669 1.018218 -0.612574
v -0.276458 0.595828 -0.478839
v -0.173684 0.243020 -0.300828
v -0.224608 2.296936 -0.838248
v -0.221704 1.870696 -0.827412
v -0.209417 1.444456 -0.781552
v -0.183073 1.018218 -0.683237
v -0.143105 0.595828 -0.534076
v -0.089905 0.243020 -0.335530
vn -0.0000 -0.0651 -0.9979
vn -0.0000 -0.0602 -0.9982
vn 0.2583 -0.0602 -0.9642
vn 0.2583 -0.0651 -0.9639
vn 0.4991 -0.0602 -0.8645
vn 0.4989 -0.0651 -0.8642
vn 0.7058 -0.0602 -0.7058
vn 0.7056 -0.0651 -0.7056
vn 0.8645 -0.0602 -0.4991
vn 0.8642 -0.0651 -0.4989
vn 0.9642 -0.0602 -0.2583
vn 0.9639 -0.0651 -0.2583
vn 0.9982 -0.0602 -0.0000
vn 0.9979 -0.0651 -0.0000
vn 0.9642 -0.0602 0.2583
vn 0.9639 -0.0651 0.2583
vn 0.8645 -0.0602 0.4991
vn 0.8642 -0.0651 0.4989
vn 0.7058 -0.0602 0.7058
vn 0.7056 -0.0651 0.7056
vn 0.4991 -0.0602 0.8645
vn 0.4989 -0.0651 0.8642
vn 0.2583 -0.0602 0.9642
vn 0.2583 -0.0651 0.9639
vn -0.0000 -0.0602 0.9982
vn -0.0000 -0.0651 0.9979
vn -0.2583 -0.0602 0.9642
vn -0.2583 -0.0651 0.9639
vn -0.4991 -0.0602 0.8645
vn -0.4989 -0.0651 0.8642
vn -0.7058 -0.0602 0.7058
vn -0.7056 -0.0651 0.7056
vn -0.8645 -0.0602 0.4991
vn -0.8642 -0.0651 0.4989
vn -0.9642 -0.0602 0.2583
vn -0.9639 -0.0651 0.2583
vn -0.9982 -0.0602 -0.0000
vn -0.9979 -0.0651 -0.0000
vn -0.9642 -0.0602 -0.2583
vn -0.9639 -0.0651 -0.2583
vn -0.8645 -0.0602 -0.4991
vn -0.8642 -0.0651 -0.4989
vn -0.7058 -0.0602 -0.7058
vn -0.7056 -0.0651 -0.7056
vn -0.4991 -0.0602 -0.8645
vn -0.4989 -0.0651 -0.8642
vn -0.2583 -0.0602 -0.9642
vn -0.2583 -0.0651 -0.9639
vn -0.0918 -0.9350 -0.3425
vn -0.1183 -0.8893 -0.4417
vn -0.0000 -0.8893 -0.4573
vn -0.0000 -0.9350 -0.3546
vn -0.1652 -0.7698 -0.6165
vn -0.0000 -0.7698 -0.6382
vn -0.2037 -0.6168 -0.7603
vn -0.0000 -0.6168 -0.7872
vn -0.2360 -0.4107 -0.8807
vn -0.0000 -0.4107 -0.9118
vn -0.2547 -0.1769 -0.9507
vn -0.0000 -0.1769 -0.9842
vn -0.1773 -0.9350 -0.3071
vn -0.2286 -0.8893 -0.3960
vn -0.3191 -0.7698 -0.5527
vn -0.3936 -0.6168 -0.6817
vn -0.4559 -0.4107 -0.7896
vn -0.4921 -0.1769 -0.8524
vn -0.2507 -0.9350 -0.2507
vn -0.3233 -0.8893 -0.3233
vn -0.4513 -0.7698 -0.4513
vn -0.5566 -0.6168 -0.5566
vn -0.6447 -0.4107 -0.6447
vn -0.6960 -0.1769 -0.6960
vn -0.3071 -0.9350 -0.1773
vn -0.3960 -0.8893 -0.2286
vn -0.5527 -0.7698 -0.3191
vn -0.6817 -0.6168 -0.3936
vn -0.7896 -0.4107 -0.4559
vn -0.8524 -0.1769 -0.4921
vn -0.3425 -0.9350 -0.0918
vn -0.4417 -0.8893 -0.1183
vn -0.6165 -0.7698 -0.1652
vn -0.7603 -0.6168 -0.2037
vn -0.8807 -0.4107 -0.2360
vn -0.9507 -0.1769 -0.2547
vn -0.3546 -0.9350 -0.0000
vn -0.4573 -0.8893 -0.0000
vn -0.6382 -0.7698 -0.0000
vn -0.7872 -0.6168 -0.0000
vn -0.9118 -0.4107 -0.0000
vn -0.9842 -0.1769 -0.0000
vn -0.3425 -0.9350 0.0918
vn -0.4417 -0.8893 0.1183
vn -0.6165 -0.7698 0.1652
vn -0.7603 -0.6168 0.2037
vn -0.8807 -0.4107 0.2360
vn -0.9507 -0.1769 0.2547
vn -0.3071 -0.9350 0.1773
vn -0.3960 -0.8893 0.2286
vn -0.5527 -0.7698 0.3191
vn -0.6817 -0.6168 0.3936
vn -0.7896 -0.4107 0.4559
vn -0.8524 -0.1769 0.4921
vn -0.2507 -0.9350 0.2507
vn -0.3233 -0.8893 0.3233
vn -0.4513 -0.7698 0.4513
vn -0.5566 -0.6168 0.5566
vn -0.6447 -0.4107 0.6447
vn -0.6960 -0.1769 0.6960
vn -0.1773 -0.9350 0.3071
vn -0.2286 -0.8893 0.3960
vn -0.3191 -0.7698 0.5527
vn -0.3936 -0.6168 0.6817
vn -0.4559 -0.4107 0.7896
vn -0.4921 -0.1769 0.8524
vn -0.0918 -0.9350 0.3425
vn -0.1183 -0.8893 0.4417
vn -0.1652 -0.7698 0.6165
vn -0.2037 -0.6168 0.7603
vn -0.2360 -0.4107 0.8807
vn -0.2547 -0.1769 0.9507
vn -0.0000 -0.9350 0.3546
vn -0.0000 -0.8893 0.4573
vn -0.0000 -0.7698 0.6382
vn -0.0000 -0.6168 0.7872
vn -0.0000 -0.4107 0.9118
vn -0.0000 -0.1769 0.9842
vn 0.0918 -0.9350 0.3425
vn 0.1183 -0.8893 0.4417
vn 0.1652 -0.7698 0.6165
vn 0.2037 -0.6168 0.7603
vn 0.2360 -0.4107 0.8807
vn 0.2547 -0.1769 0.9507
vn 0.1773 -0.9350 0.3071
vn 0.2286 -0.8893 0.3960
vn 0.3191 -0.7698 0.5527
vn 0.3936 -0.6168 0.6817
vn 0.4559 -0.4107 0.7896
vn 0.4921 -0.1769 0.8524
vn 0.2507 -0.9350 0.2507
vn 0.3233 -0.8893 0.3233
vn 0.4513 -0.7698 0.4513
vn 0.5566 -0.6168 0.5566
vn 0.6447 -0.4107 0.6447
vn 0.6960 -0.1769 0.6960
vn 0.3071 -0.9350 0.1773
vn 0.3960 -0.8893 0.2286
vn 0.5527 -0.7698 0.3191
vn 0.6817 -0.6168 0.3936
vn 0.7896 -0.4107 0.4559
vn 0.8524 -0.1769 0.4921
vn 0.3425 -0.9350 0.0918
vn 0.4417 -0.8893 0.1183
vn 0.6165 -0.7698 0.1652
vn 0.7603 -0.6168 0.2037
vn 0.8807 -0.4107 0.2360
vn 0.9507 -0.1769 0.2547
vn 0.3546 -0.9350 -0.0000
vn 0.4573 -0.8893 -0.0000
vn 0.6382 -0.7698 -0.0000
vn 0.7872 -0.6168 -0.0000
vn 0.9118 -0.4107 -0.0000
vn 0.9842 -0.1769 -0.0000
vn 0.3425 -0.9350 -0.0918
vn 0.4417 -0.8893 -0.1183
vn 0.6165 -0.7698 -0.1652
vn 0.7603 -0.6168 -0.2037
vn 0.8807 -0.4107 -0.2360
vn 0.9507 -0.1769 -0.2547
vn 0.3071 -0.9350 -0.1773
vn 0.3960 -0.8893 -0.2286
vn 0.5527 -0.7698 -0.3191
vn 0.6817 -0.6168 -0.3936
vn 0.7896 -0.4107 -0.4559
vn 0.8524 -0.1769 -0.4921
vn 0.2507 -0.9350 -0.2507
vn 0.3233 -0.8893 -0.3233
vn 0.4513 -0.7698 -0.4513
vn 0.5566 -0.6168 -0.5566
vn 0.6447 -0.4107 -0.6447
vn 0.6960 -0.1769 -0.6960
vn 0.1773 -0.9350 -0.3071
vn 0.2286 -0.8893 -0.3960
vn 0.3191 -0.7698 -0.5527
vn 0.3936 -0.6168 -0.6817
vn 0.4559 -0.4107 -0.7896
vn 0.4921 -0.1769 -0.8524
vn 0.0918 -0.9350 -0.3425
vn 0.1183 -0.8893 -0.4417
vn 0.1652 -0.7698 -0.6165
vn 0.2037 -0.6168 -0.7603
vn 0.2360 -0.4107 -0.8807
vn 0.2547 -0.1769 -0.9507
vn -0.0000 -0.0245 -0.9997
vn -0.0000 -0.0226 -0.9997
vn 0.2588 -0.0226 -0.9657
vn 0.2587 -0.0245 -0.9656
vn 0.4999 -0.0226 -0.8658
vn 0.4999 -0.0245 -0.8658
vn 0.7069 -0.0226 -0.7069
vn 0.7069 -0.0245 -0.7069
vn 0.8658 -0.0226 -0.4999
vn 0.8658 -0.0245 -0.4999
vn 0.9657 -0.0226 -0.2588
vn 0.9656 -0.0245 -0.2587
vn 0.9997 -0.0226 -0.0000
vn 0.9997 -0.0245 -0.0000
vn 0.9657 -0.0226 0.2588
vn 0.9656 -0.0245 0.2587
vn 0.8658 -0.0226 0.4999
vn 0.8658 -0.0245 0.4999
vn 0.7069 -0.0226 0.7069
vn 0.7069 -0.0245 0.7069
vn 0.4999 -0.0226 0.8658
vn 0.4999 -0.0245 0.8658
vn 0.2588 -0.0226 0.9657
vn 0.2587 -0.0245 0.9656
vn -0.0000 -0.0226 0.9997
vn -0.0000 -0.0245 0.9997
vn -0.2588 -0.0226 0.9657
vn -0.2587 -0.0245 0.9656
vn -0.4999 -0.0226 0.8658
vn -0.4999 -0.0245 0.8658
vn -0.7069 -0.0226 0.7069
vn -0.7069 -0.0245 0.7069
vn -0.8658 -0.0226 0.4999
vn -0.8658 -0.0245 0.4999
vn -0.9657 -0.0226 0.2588
vn -0.9656 -0.0245 0.2587
vn -0.9997 -0.0226 -0.0000
vn -0.9997 -0.0245 -0.0000
vn -0.9657 -0.0226 -0.2588
vn -0.9656 -0.0245 -0.2587
vn -0.8658 -0.0226 -0.4999
vn -0.8658 -0.0245 -0.4999
vn -0.7069 -0.0226 -0.7069
vn -0.7069 -0.0245 -0.7069
vn -0.4999 -0.0226 -0.8658
vn -0.4999 -0.0245 -0.8658
vn -0.2588 -0.0226 -0.9657
vn -0.2587 -0.0245 -0.9656
vn -0.1840 -0.7032 -0.6868
vn -0.2064 -0.6031 -0.7705
vn -0.0000 -0.6031 -0.7977
vn -0.0000 -0.7032 -0.7110
vn -0.2346 -0.4222 -0.8756
vn -0.0000 -0.4222 -0.9065
vn -0.2479 -0.2870 -0.9253
vn -0.0000 -0.2870 -0.9579
vn -0.2550 -0.1710 -0.9517
vn -0.0000 -0.1710 -0.9853
vn -0.2582 -0.0683 -0.9637
vn -0.0000 -0.0683 -0.9977
vn -0.3555 -0.7032 -0.6158
vn -0.3988 -0.6031 -0.6908
vn -0.4532 -0.4222 -0.7850
vn -0.4790 -0.2870 -0.8296
vn -0.4926 -0.1710 -0.8533
vn -0.4988 -0.0683 -0.8640
vn -0.5028 -0.7032 -0.5028
vn -0.5640 -0.6031 -0.5640
vn -0.6410 -0.4222 -0.6410
vn -0.6774 -0.2870 -0.6774
vn -0.6967 -0.1710 -0.6967
vn -0.7055 -0.0683 -0.7055
vn -0.6158 -0.7032 -0.3555
vn -0.6908 -0.6031 -0.3988
vn -0.7850 -0.4222 -0.4532
vn -0.8296 -0.2870 -0.4790
vn -0.8533 -0.1710 -0.4926
vn -0.8640 -0.0683 -0.4988
vn -0.6868 -0.7032 -0.1840
vn -0.7705 -0.6031 -0.2064
vn -0.8756 -0.4222 -0.2346
vn -0.9253 -0.2870 -0.2479
vn -0.9517 -0.1710 -0.2550
vn -0.9637 -0.0683 -0.2582
vn -0.7110 -0.7032 -0.0000
vn -0.7977 -0.6031 -0.0000
vn -0.9065 -0.4222 -0.0000
vn -0.9579 -0.2870 -0.0000
vn -0.9853 -0.1710 -0.0000
vn -0.9977 -0.0683 -0.0000
vn -0.6868 -0.7032 0.1840
vn -0.7705 -0.6031 0.2064
vn -0.8756 -0.4222 0.2346
vn -0.9253 -0.2870 0.2479
vn -0.9517 -0.1710 0.2550
vn -0.9637 -0.0683 0.2582
vn -0.6158 -0.7032 0.3555
vn -0.6908 -0.6031 0.3988
vn -0.7850 -0.4222 0.4532
vn -0.8296 -0.2870 0.4790
vn -0.8533 -0.1710 0.4926
vn -0.8640 -0.0683 0.4988
vn -0.5028 -0.7032 0.5028
vn -0.5640 -0.6031 0.5640
vn -0.6410 -0.4222 0.6410
vn -0.6774 -0.2870 0.6774
vn -0.6967 -0.1709 0.6967
vn -0.7055 -0.0683 0.7055
vn -0.3555 -0.7032 0.6158
vn -0.3988 -0.6031 0.6908
vn -0.4532 -0.4222 0.7850
vn -0.4790 -0.2870 0.8296
vn -0.4926 -0.1710 0.8533
vn -0.4988 -0.0683 0.8640
vn -0.1840 -0.7032 0.6868
vn -0.2064 -0.6031 0.7705
vn -0.2346 -0.4222 0.8756
vn -0.2479 -0.2870 0.9253
vn -0.2550 -0.1710 0.9517
vn -0.2582 -0.0683 0.9637
vn -0.0000 -0.7032 0.7110
vn -0.0000 -0.6031 0.7977
vn -0.0000 -0.4222 0.9065
vn -0.0000 -0.2870 0.9579
vn -0.0000 -0.1710 0.9853
vn -0.0000 -0.0683 0.9977
vn 0.1840 -0.7032 0.6868
vn 0.2064 -0.6031 0.7705
vn 0.2346 -0.4222 0.8756
vn 0.2479 -0.2870 0.9253
vn 0.2550 -0.1710 0.9517
vn 0.2582 -0.0683 0.9637
vn 0.3555 -0.7032 0.6158
vn 0.3988 -0.6031 0.6908
vn 0.4532 -0.4222 0.7850
vn 0.4790 -0.2870 0.8296
vn 0.4926 -0.1710 0.8533
vn 0.4988 -0.0683 0.8640
vn 0.5028 -0.7032 0.5028
vn 0.5640 -0.6031 0.5640
vn 0.6410 -0.4222 0.6410
vn 0.6774 -0.2870 0.6774
vn 0.6967 -0.1709 0.6967
vn 0.7055 -0.0683 0.7055
vn 0.6158 -0.7032 0.3555
vn 0.6908 -0.6031 0.3988
vn 0.7850 -0.4222 0.4532
vn 0.8296 -0.2870 0.4790
vn 0.8533 -0.1710 0.4926
vn 0.8640 -0.0683 0.4988
vn 0.6868 -0.7032 0.1840
vn 0.7705 -0.6031 0.2064
vn 0.8756 -0.4222 0.2346
vn 0.9253 -0.2870 0.2479
vn 0.9517 -0.1710 0.2550
vn 0.9637 -0.0683 0.2582
vn 0.7110 -0.7032 -0.0000
vn 0.7977 -0.6031 -0.0000
vn 0.9065 -0.4222 -0.0000
vn 0.9579 -0.2870 -0.0000
vn 0.9853 -0.1710 -0.0000
vn 0.9977 -0.0683 -0.0000
vn 0.6868 -0.7032 -0.1840
vn 0.7705 -0.6031 -0.2064
vn 0.8756 -0.4222 -0.2346
vn 0.9253 -0.2870 -0.2479
vn 0.9517 -0.1710 -0.2550
vn 0.9637 -0.0683 -0.2582
vn 0.6158 -0.7032 -0.3555
vn 0.6908 -0.6031 -0.3988
vn 0.7850 -0.4222 -0.4532
vn 0.8296 -0.2870 -0.4790
vn 0.8533 -0.1710 -0.4926
vn 0.8640 -0.0683 -0.4988
vn 0.5028 -0.7032 -0.5028
vn 0.5640 -0.6031 -0.5640
vn 0.6410 -0.4222 -0.6410
vn 0.6774 -0.2870 -0.6774
vn 0.6967 -0.1710 -0.6967
vn 0.7055 -0.0683 -0.7055
vn 0.3555 -0.7032 -0.6158
vn 0.3988 -0.6031 -0.6908
vn 0.4532 -0.4222 -0.7850
vn 0.4790 -0.2870 -0.8296
vn 0.4926 -0.1710 -0.8533
vn 0.4988 -0.0683 -0.8640
vn 0.1840 -0.7032 -0.6868
vn 0.2064 -0.6031 -0.7705
vn 0.2346 -0.4222 -0.8756
vn 0.2479 -0.2870 -0.9253
vn 0.2550 -0.1710 -0.9517
vn 0.2582 -0.0683 -0.9637
vt 1.000000 0.857143
vt 1.000000 1.000000
vt 0.958333 1.000000
vt 0.958333 0.857143
vt 0.916667 1.000000
vt 0.916667 0.857143
vt 0.875000 1.000000
vt 0.875000 0.857143
vt 0.833333 1.000000
vt 0.833333 0.857143
vt 0.791667 1.000000
vt 0.791667 0.857143
vt 0.750000 1.000000
vt 0.750000 0.857143
vt 0.708333 1.000000
vt 0.708333 0.857143
vt 0.666667 1.000000
vt 0.666667 0.857143
vt 0.625000 1.000000
vt 0.625000 0.857143
vt 0.583333 1.000000
vt 0.583333 0.857143
vt 0.541666 1.000000
vt 0.541666 0.857143
vt 0.500000 1.000000
vt 0.500000 0.857143
vt 0.458333 1.000000
vt 0.458333 0.857143
vt 0.416666 1.000000
vt 0.416666 0.857143
vt 0.375000 1.000000
vt 0.375000 0.857143
vt 0.333333 1.000000
vt 0.333333 0.857143
vt 0.291667 1.000000
vt 0.291667 0.857143
vt 0.250000 1.000000
vt 0.250000 0.857143
vt 0.208333 1.000000
vt 0.208333 0.857143
vt 0.166666 1.000000
vt 0.166667 0.857143
vt 0.125000 1.000000
vt 0.125000 0.857143
vt 0.083333 1.000000
vt 0.083333 0.857143
vt 0.041666 1.000000
vt 0.041666 0.857143
vt -0.000000 1.000000
vt -0.000000 0.857143
vt 0.041666 0.000000
vt 0.041666 0.142857
vt -0.000000 0.142857
vt -0.000000 0.000000
vt 0.041666 0.285714
vt -0.000000 0.285714
vt 0.041666 0.428571
vt -0.000000 0.428571
vt 0.041666 0.571429
vt -0.000000 0.571429
vt 0.041666 0.714286
vt -0.000000 0.714286
vt 0.083333 0.000000
vt 0.083333 0.142857
vt 0.083333 0.285714
vt 0.083333 0.428571
vt 0.083333 0.571429
vt 0.083333 0.714286
vt 0.125000 0.000000
vt 0.125000 0.142857
vt 0.125000 0.285714
vt 0.125000 0.428571
vt 0.125000 0.571429
vt 0.125000 0.714286
vt 0.166666 0.000000
vt 0.166666 0.142857
vt 0.166666 0.285714
vt 0.166666 0.428571
vt 0.166666 0.571429
vt 0.166666 0.714286
vt 0.208333 0.000000
vt 0.208333 0.142857
vt 0.208333 0.285714
vt 0.208333 0.428571
vt 0.208333 0.571429
vt 0.208333 0.714286
vt 0.250000 0.000000
vt 0.250000 0.142857
vt 0.250000 0.285714
vt 0.250000 0.428571
vt 0.250000 0.571429
vt 0.250000 0.714286
vt 0.291667 0.000000
vt 0.291667 0.142857
vt 0.291667 0.285714
vt 0.291667 0.428571
vt 0.291667 0.571429
vt 0.291667 0.714286
vt 0.333333 0.000000
vt 0.333333 0.142857
vt 0.333333 0.285714
vt 0.333333 0.428571
vt 0.333333 0.571429
vt 0.333333 0.714286
vt 0.375000 0.000000
vt 0.375000 0.142857
vt 0.375000 0.285714
vt 0.375000 0.428571
vt 0.375000 0.571429
vt 0.375000 0.714286
vt 0.416666 0.000000
vt 0.416666 0.142857
vt 0.416666 0.285714
vt 0.416667 0.428571
vt 0.416667 0.571429
vt 0.416666 0.714286
vt 0.458333 0.000000
vt 0.458333 0.142857
vt 0.458333 0.285714
vt 0.458333 0.428571
vt 0.458333 0.571429
vt 0.458333 0.714286
vt 0.500000 0.000000
vt 0.500000 0.142857
vt 0.500000 0.285714
vt 0.500000 0.428571
vt 0.500000 0.571429
vt 0.500000 0.714286
vt 0.541666 0.000000
vt 0.541666 0.142857
vt 0.541666 0.285714
vt 0.541666 0.428571
vt 0.541666 0.571429
vt 0.541666 0.714286
vt 0.583333 0.000000
vt 0.583333 0.142857
vt 0.583333 0.285714
vt 0.583333 0.428571
vt 0.583333 0.571429
vt 0.583333 0.714286
vt 0.625000 0.000000
vt 0.625000 0.142857
vt 0.625000 0.285714
vt 0.625000 0.428571
vt 0.625000 0.571429
vt 0.625000 0.714286
vt 0.666667 0.000000
vt 0.666667 0.142857
vt 0.666667 0.285714
vt 0.666667 0.428571
vt 0.666667 0.571429
vt 0.666667 0.714286
vt 0.708333 0.000000
vt 0.708333 0.142857
vt 0.708333 0.285714
vt 0.708333 0.428571
vt 0.708333 0.571429
vt 0.708333 0.714286
vt 0.750000 0.000000
vt 0.750000 0.142857
vt 0.750000 0.285714
vt 0.750000 0.428571
vt 0.750000 0.571429
vt 0.750000 0.714286
vt 0.791667 0.000000
vt 0.791667 0.142857
vt 0.791667 0.285714
vt 0.791667 0.428571
vt 0.791667 0.571429
vt 0.791667 0.714286
vt 0.833333 0.000000
vt 0.833333 0.142857
vt 0.833333 0.285714
vt 0.833333 0.428571
vt 0.833333 0.571429
vt 0.833333 0.714286
vt 0.875000 0.000000
vt 0.875000 0.142857
vt 0.875000 0.285714
vt 0.875000 0.428571
vt 0.875000 0.571429
vt 0.875000 0.714286
vt 0.916667 0.000000
vt 0.916667 0.142857
vt 0.916667 0.285714
vt 0.916667 0.428571
vt 0.916667 0.571429
vt 0.916667 0.714286
vt 0.958333 0.000000
vt 0.958333 0.142857
vt 0.958333 0.285714
vt 0.958333 0.428571
vt 0.958333 0.571429
vt 0.958333 0.714286
vt 1.000000 0.000000
vt 1.000000 0.142857
vt 1.000000 0.285714
vt 1.000000 0.428571
vt 1.000000 0.571429
vt 1.000000 0.714286
s 1
f 54/1/1 2/2/2 4/3/3 55/4/4
f 55/4/4 4/3/3 6/5/5 61/6/6
f 61/6/6 6/5/5 8/7/7 67/8/8
f 67/8/8 8/7/7 10/9/9 73/10/10
f 73/10/10 10/9/9 12/11/11 79/12/12
f 79/12/12 12/11/11 14/13/13 85/14/14
f 85/14/14 14/13/13 16/15/15 91/16/16
f 91/16/16 16/15/15 18/17/17 97/18/18
f 97/18/18 18/17/17 20/19/19 103/20/20
f 103/20/20 20/19/19 22/21/21 109/22/22
f 109/22/22 22/21/21 24/23/23 115/24/24
f 115/24/24 24/23/23 26/25/25 121/26/26
f 121/26/26 26/25/25 28/27/27 127/28/28
f 127/28/28 28/27/27 30/29/29 133/30/30
f 133/30/30 30/29/29 32/31/31 139/32/32
f 139/32/32 32/31/31 34/33/33 145/34/34
f 145/34/34 34/33/33 36/35/35 151/36/36
f 151/36/36 36/35/35 38/37/37 157/38/38
f 157/38/38 38/37/37 40/39/39 163/40/40
f 163/40/40 40/39/39 42/41/41 169/42/42
f 169/42/42 42/41/41 44/43/43 175/44/44
f 175/44/44 44/43/43 46/45/45 181/46/46
f 181/46/46 46/45/45 48/47/47 187/48/48
f 187/48/48 48/47/47 2/49/2 54/50/1
f 47/51/49 192/52/50 49/53/51 1/54/52
f 192/52/50 191/55/53 50/56/54 49/53/51
f 191/55/53 190/57/55 51/58/56 50/56/54
f 190/57/55 189/59/57 52/60/58 51/58/56
f 189/59/57 188/61/59 53/62/60 52/60/58
f 188/61/59 187/48/48 54/50/1 53/62/60
f 45/63/61 186/64/62 192/52/50 47/51/49
f 186/64/62 185/65/63 191/55/53 192/52/50
f 185/65/63 184/66/64 190/57/55 191/55/53
f 184/66/64 183/67/65 189/59/57 190/57/55
f 183/67/65 182/68/66 188/61/59 189/59/57
f 182/68/66 181/46/46 187/48/48 188/61/59
f 43/69/67 180/70/68 186/64/62 45/63/61
f 180/70/68 179/71/69 185/65/63 186/64/62
f 179/71/69 178/72/70 184/66/64 185/65/63
f 178/72/70 177/73/71 183/67/65 184/66/64
f 177/73/71 176/74/72 182/68/66 183/67/65
f 176/74/72 175/44/44 181/46/46 182/68/66
f 41/75/73 174/76/74 180/70/68 43/69/67
f 174/76/74 173/77/75 179/71/69 180/70/68
f 173/77/75 172/78/76 178/72/70 179/71/69
f 172/78/76 171/79/77 177/73/71 178/72/70
f 171/79/77 170/80/78 176/74/72 177/73/71
f 170/80/78 169/42/42 175/44/44 176/74/72
f 39/81/79 168/82/80 174/76/74 41/75/73
f 168/82/80 167/83/81 173/77/75 174/76/74
f 167/83/81 166/84/82 172/78/76 173/77/75
f 166/84/82 165/85/83 171/79/77 172/78/76
f 165/85/83 164/86/84 170/80/78 171/79/77
f 164/86/84 163/40/40 169/42/42 170/80/78
f 37/87/85 162/88/86 168/82/80 39/81/79
f 162/88/86 161/89/87 167/83/81 168/82/80
f 161/89/87 160/90/88 166/84/82 167/83/81
f 160/90/88 159/91/89 165/85/83 166/84/82
f 159/91/89 158/92/90 164/86/84 165/85/83
f 158/92/90 157/38/38 163/40/40 164/86/84
f 35/93/91 156/94/92 162/88/86 37/87/85
f 156/94/92 155/95/93 161/89/87 162/88/86
f 155/95/93 154/96/94 160/90/88 161/89/87
f 154/96/94 153/97/95 159/91/89 160/90/88
f 153/97/95 152/98/96 158/92/90 159/91/89
f 152/98/96 151/36/36 157/38/38 158/92/90
f 33/99/97 150/100/98 156/94/92 35/93/91
f 150/100/98 149/101/99 155/95/93 156/94/92
f 149/101/99 148/102/100 154/96/94 155/95/93
f 148/102/100 147/103/101 153/97/95 154/96/94
f 147/103/101 146/104/102 152/98/96 153/97/95
f 146/104/102 145/34/34 151/36/36 152/98/96
f 31/105/103 144/106/104 150/100/98 33/99/97
f 144/106/104 143/107/105 149/101/99 150/100/98
f 143/107/105 142/108/106 148/102/100 149/101/99
f 142/108/106 141/109/107 147/103/101 148/102/100
f 141/109/107 140/110/108 146/104/102 147/103/101
f 140/110/108 139/32/32 145/34/34 146/104/102
f 29/111/109 138/112/110 144/106/104 31/105/103
f 138/112/110 137/113/111 143/107/105 144/106/104
f 137/113/111 136/114/112 142/108/106 143/107/105
f 136/114/112 135/115/113 141/109/107 142/108/106
f 135/115/113 134/116/114 140/110/108 141/109/107
f 134/116/114 133/30/30 139/32/32 140/110/108
f 27/117/115 132/118/116 138/112/110 29/111/109
f 132/118/116 131/119/117 137/113/111 138/112/110
f 131/119/117 130/120/118 136/114/112 137/113/111
f 130/120/118 129/121/119 135/115/113 136/114/112
f 129/121/119 128/122/120 134/116/114 135/115/113
f 128/122/120 127/28/28 133/30/30 134/116/114
f 25/123/121 126/124/122 132/118/116 27/117/115
f 126/124/122 125/125/123 131/119/117 132/118/116
f 125/125/123 124/126/124 130/120/118 131/119/117
f 124/126/124 123/127/125 129/121/119 130/120/118
f 123/127/125 122/128/126 128/122/120 129/121/119
f 122/128/126 121/26/26 127/28/28 128/122/120
f 23/129/127 120/130/128 126/124/122 25/123/121
f 120/130/128 119/131/129 125/125/123 126/124/122
f 119/131/129 118/132/130 124/126/124 125/125/123
f 118/132/130 117/133/131 123/127/125 124/126/124
f 117/133/131 116/134/132 122/128/126 123/127/125
f 116/134/132 115/24/24 121/26/26 122/128/126
f 21/135/133 114/136/134 120/130/128 23/129/127
f 114/136/134 113/137/135 119/131/129 120/130/128
f 113/137/135 112/138/136 118/132/130 119/131/129
f 112/138/136 111/139/137 117/133/131 118/132/130
f 111/139/137 110/140/138 116/134/132 117/133/131
f 110/140/138 109/22/22 115/24/24 116/134/132
f 19/141/139 108/142/140 114/136/134 21/135/133
f 108/142/140 107/143/141 113/137/135 114/136/134
f 107/143/141 106/144/142 112/138/136 113/137/135
f 106/144/142 105/145/143 111/139/137 112/138/136
f 105/145/143 104/146/144 110/140/138 111/139/137
f 104/146/144 103/20/20 109/22/22 110/140/138
f 17/147/145 102/148/146 108/142/140 19/141/139
f 102/148/146 101/149/147 107/143/141 108/142/140
f 101/149/147 100/150/148 106/144/142 107/143/141
f 100/150/148 99/151/149 105/145/143 106/144/142
f 99/151/149 98/152/150 104/146/144 105/145/143
f 98/152/150 97/18/18 103/20/20 104/146/144
f 15/153/151 96/154/152 102/148/146 17/147/145
f 96/154/152 95/155/153 101/149/147 102/148/146
f 95/155/153 94/156/154 100/150/148 101/149/147
f 94/156/154 93/157/155 99/151/149 100/150/148
f 93/157/155 92/158/156 98/152/150 99/151/149
f 92/158/156 91/16/16 97/18/18 98/152/150
f 13/159/157 90/160/158 96/154/152 15/153/151
f 90/160/158 89/161/159 95/155/153 96/154/152
f 89/161/159 88/162/160 94/156/154 95/155/153
f 88/162/160 87/163/161 93/157/155 94/156/154
f 87/163/161 86/164/162 92/158/156 93/157/155
f 86/164/162 85/14/14 91/16/16 92/158/156
f 11/165/163 84/166/164 90/160/158 13/159/157
f 84/166/164 83/167/165 89/161/159 90/160/158
f 83/167/165 82/168/166 88/162/160 89/161/159
f 82/168/166 81/169/167 87/163/161 88/162/160
f 81/169/167 80/170/168 86/164/162 87/163/161
f 80/170/168 79/12/12 85/14/14 86/164/162
f 9/171/169 78/172/170 84/166/164 11/165/163
f 78/172/170 77/173/171 83/167/165 84/166/164
f 77/173/171 76/174/172 82/168/166 83/167/165
f 76/174/172 75/175/173 81/169/167 82/168/166
f 75/175/173 74/176/174 80/170/168 81/169/167
f 74/176/174 73/10/10 79/12/12 80/170/168
f 7/177/175 72/178/176 78/172/170 9/171/169
f 72/178/176 71/179/177 77/173/171 78/172/170
f 71/179/177 70/180/178 76/174/172 77/173/171
f 70/180/178 69/181/179 75/175/173 76/174/172
f 69/181/179 68/182/180 74/176/174 75/175/173
f 68/182/180 67/8/8 73/10/10 74/176/174
f 5/183/181 66/184/182 72/178/176 7/177/175
f 66/184/182 65/185/183 71/179/177 72/178/176
f 65/185/183 64/186/184 70/180/178 71/179/177
f 64/186/184 63/187/185 69/181/179 70/180/178
f 63/187/185 62/188/186 68/182/180 69/181/179
f 62/188/186 61/6/6 67/8/8 68/182/180
f 3/189/187 60/190/188 66/184/182 5/183/181
f 60/190/188 59/191/189 65/185/183 66/184/182
f 59/191/189 58/192/190 64/186/184 65/185/183
f 58/192/190 57/193/191 63/187/185 64/186/184
f 57/193/191 56/194/192 62/188/186 63/187/185
f 56/194/192 55/4/4 61/6/6 62/188/186
f 1/195/52 49/196/51 60/190/188 3/189/187
f 49/196/51 50/197/54 59/191/189 60/190/188
f 50/197/54 51/198/56 58/192/190 59/191/189
f 51/198/56 52/199/58 57/193/191 58/192/190
f 52/199/58 53/200/60 56/194/192 57/193/191
f 53/200/60 54/1/1 55/4/4 56/194/192
f 246/1/193 194/2/194 196/3/195 247/4/196
f 247/4/196 196/3/195 198/5/197 253/6/198
f 253/6/198 198/5/197 200/7/199 259/8/200
f 259/8/200 200/7/199 202/9/201 265/10/202
f 265/10/202 202/9/201 204/11/203 271/12/204
f 271/12/204 204/11/203 206/13/205 277/14/206
f 277/14/206 206/13/205 208/15/207 283/16/208
f 283/16/208 208/15/207 210/17/209 289/18/210
f 289/18/210 210/17/209 212/19/211 295/20/212
f 295/20/212 212/19/211 214/21/213 301/22/214
f 301/22/214 214/21/213 216/23/215 307/24/216
f 307/24/216 216/23/215 218/25/217 313/26/218
f 313/26/218 218/25/217 220/27/219 319/28/220
f 319/28/220 220/27/219 222/29/221 325/30/222
f 325/30/222 222/29/221 224/31/223 331/32/224
f 331/32/224 224/31/223 226/33/225 337/34/226
f 337/34/226 226/33/225 228/35/227 343/36/228
f 343/36/228 228/35/227 230/37/229 349/38/230
f 349/38/230 230/37/229 232/39/231 355/40/232
f 355/40/232 232/39/231 234/41/233 361/42/234
f 361/42/234 234/41/233 236/43/235 367/44/236
f 367/44/236 236/43/235 238/45/237 373/46/238
f 373/46/238 238/45/237 240/47/239 379/48/240
f 379/48/240 240/47/239 194/49/194 246/50/193
f 239/51/241 384/52/242 241/53/243 193/54/244
f 384/52/242 383/55/245 242/56/246 241/53/243
f 383/55/245 382/57/247 243/58/248 242/56/246
f 382/57/247 381/59/249 244/60/250 243/58/248
f 381/59/249 380/61/251 245/62/252 244/60/250
f 380/61/251 379/48/240 246/50/193 245/62/252
f 237/63/253 378/64/254 384/52/242 239/51/241
f 378/64/254 377/65/255 383/55/245 384/52/242
f 377/65/255 376/66/256 382/57/247 383/55/245
f 376/66/256 375/67/257 381/59/249 382/57/247
f 375/67/257 374/68/258 380/61/251 381/59/249
f 374/68/258 373/46/238 379/48/240 380/61/251
f 235/69/259 372/70/260 378/64/254 237/63/253
f 372/70/260 371/71/261 377/65/255 378/64/254
f 371/71/261 370/72/262 376/66/256 377/65/255
f 370/72/262 369/73/263 375/67/257 376/66/256
f 369/73/263 368/74/264 374/68/258 375/67/257
f 368/74/264 367/44/236 373/46/238 374/68/258
f 233/75/265 366/76/266 372/70/260 235/69/259
f 366/76/266 365/77/267 371/71/261 372/70/260
f 365/77/267 364/78/268 370/72/262 371/71/261
f 364/78/268 363/79/269 369/73/263 370/72/262
f 363/79/269 362/80/270 368/74/264 369/73/263
f 362/80/270 361/42/234 367/44/236 368/74/264
f 231/81/271 360/82/272 366/76/266 233/75/265
f 360/82/272 359/83/273 365/77/267 366/76/266
f 359/83/273 358/84/274 364/78/268 365/77/267
f 358/84/274 357/85/275 363/79/269 364/78/268
f 357/85/275 356/86/276 362/80/270 363/79/269
f 356/86/276 355/40/232 361/42/234 362/80/270
f 229/87/277 354/88/278 360/82/272 231/81/271
f 354/88/278 353/89/279 359/83/273 360/82/272
f 353/89/279 352/90/280 358/84/274 359/83/273
f 352/90/280 351/91/281 357/85/275 358/84/274
f 351/91/281 350/92/282 356/86/276 357/85/275
f 350/92/282 349/38/230 355/40/232 356/86/276
f 227/93/283 348/94/284 354/88/278 229/87/277
f 348/94/284 347/95/285 353/89/279 354/88/278
f 347/95/285 346/96/286 352/90/280 353/89/279
f 346/96/286 345/97/287 351/91/281 352/90/280
f 345/97/287 344/98/288 350/92/282 351/91/281
f 344/98/288 343/36/228 349/38/230 350/92/282
f 225/99/289 342/100/290 348/94/284 227/93/283
f 342/100/290 341/101/291 347/95/285 348/94/284
f 341/101/291 340/102/292 346/96/286 347/95/285
f 340/102/292 339/103/293 345/97/287 346/96/286
f 339/103/293 338/104/294 344/98/288 345/97/287
f 338/104/294 337/34/226 343/36/228 344/98/288
f 223/105/295 336/106/296 342/100/290 225/99/289
f 336/106/296 335/107/297 341/101/291 342/100/290
f 335/107/297 334/108/298 340/102/292 341/101/291
f 334/108/298 333/109/299 339/103/293 340/102/292
f 333/109/299 332/110/300 338/104/294 339/103/293
f 332/110/300 331/32/224 337/34/226 338/104/294
f 221/111/301 330/112/302 336/106/296 223/105/295
f 330/112/302 329/113/303 335/107/297 336/106/296
f 329/113/303 328/114/304 334/108/298 335/107/297
f 328/114/304 327/115/305 333/109/299 334/108/298
f 327/115/305 326/116/306 332/110/300 333/109/299
f 326/116/306 325/30/222 331/32/224 332/110/300
f 219/117/307 324/118/308 330/112/302 221/111/301
f 324/118/308 323/119/309 329/113/303 330/112/302
f 323/119/309 322/120/310 328/114/304 329/113/303
f 322/120/310 321/121/311 327/115/305 328/114/304
f 321/121/311 320/122/312 326/116/306 327/115/305
f 320/122/312 319/28/220 325/30/222 326/116/306
f 217/123/313 318/124/314 324/118/308 219/117/307
f 318/124/314 317/125/315 323/119/309 324/118/308
f 317/125/315 316/126/316 322/120/310 323/119/309
f 316/126/316 315/127/317 321/121/311 322/120/310
f 315/127/317 314/128/318 320/122/312 321/121/311
f 314/128/318 313/26/218 319/28/220 320/122/312
f 215/129/319 312/130/320 318/124/314 217/123/313
f 312/130/320 311/131/321 317/125/315 318/124/314
f 311/131/321 310/132/322 316/126/316 317/125/315
f 310/132/322 309/133/323 315/127/317 316/126/316
f 309/133/323 308/134/324 314/128/318 315/127/317
f 308/134/324 307/24/216 313/26/218 314/128/318
f 213/135/325 306/136/326 312/130/320 215/129/319
f 306/136/326 305/137/327 311/131/321 312/130/320
f 305/137/327 304/138/328 310/132/322 311/131/321
f 304/138/328 303/139/329 309/133/323 310/132/322
f 303/139/329 302/140/330 308/134/324 309/133/323
f 302/140/330 301/22/214 307/24/216 308/134/324
f 211/141/331 300/142/332 306/136/326 213/135/325
f 300/142/332 299/143/333 305/137/327 306/136/326
f 299/143/333 298/144/334 304/138/328 305/137/327
f 298/144/334 297/145/335 303/139/329 304/138/328
f 297/145/335 296/146/336 302/140/330 303/139/329
f 296/146/336 295/20/212 301/22/214 302/140/330
f 209/147/337 294/148/338 300/142/332 211/141/331
f 294/148/338 293/149/339 299/143/333 300/142/332
f 293/149/339 292/150/340 298/144/334 299/143/333
f 292/150/340 291/151/341 297/145/335 298/144/334
f 291/151/341 290/152/342 296/146/336 297/145/335
f 290/152/342 289/18/210 295/20/212 296/146/336
f 207/153/343 288/154/344 294/148/338 209/147/337
f 288/154/344 287/155/345 293/149/339 294/148/338
f 287/155/345 286/156/346 292/150/340 293/149/339
f 286/156/346 285/157/347 291/151/341 292/150/340
f 285/157/347 284/158/348 290/152/342 291/151/341
f 284/158/348 283/16/208 289/18/210 290/152/342
f 205/159/349 282/160/350 288/154/344 207/153/343
f 282/160/350 281/161/351 287/155/345 288/154/344
f 281/161/351 280/162/352 286/156/346 287/155/345
f 280/162/352 279/163/353 285/157/347 286/156/346
f 279/163/353 278/164/354 284/158/348 285/157/347
f 278/164/354 277/14/206 283/16/208 284/158/348
f 203/165/355 276/166/356 282/160/350 205/159/349
f 276/166/356 275/167/357 281/161/351 282/160/350
f 275/167/357 274/168/358 280/162/352 281/161/351
f 274/168/358 273/169/359 279/163/353 280/162/352
f 273/169/359 272/170/360 278/164/354 279/163/353
f 272/170/360 271/12/204 277/14/206 278/164/354
f 201/171/361 270/172/362 276/166/356 203/165/355
f 270/172/362 269/173/363 275/167/357 276/166/356
f 269/173/363 268/174/364 274/168/358 275/167/357
f 268/174/364 267/175/365 273/169/359 274/168/358
f 267/175/365 266/176/366 272/170/360 273/169/359
f 266/176/366 265/10/202 271/12/204 272/170/360
f 199/177/367 264/178/368 270/172/362 201/171/361
f 264/178/368 263/179/369 269/173/363 270/172/362
f 263/179/369 262/180/370 268/174/364 269/173/363
f 262/180/370 261/181/371 267/175/365 268/174/364
f 261/181/371 260/182/372 266/176/366 267/175/365
f 260/182/372 259/8/200 265/10/202 266/176/366
f 197/183/373 258/184/374 264/178/368 199/177/367
f 258/184/374 257/185/375 263/179/369 264/178/368
f 257/185/375 256/186/376 262/180/370 263/179/369
f 256/186/376 255/187/377 261/181/371 262/180/370
f 255/187/377 254/188/378 260/182/372 261/181/371
f 254/188/378 253/6/198 259/8/200 260/182/372
f 195/189/379 252/190/380 258/184/374 197/183/373
f 252/190/380 251/191/381 257/185/375 258/184/374
f 251/191/381 250/192/382 256/186/376 257/185/375
f 250/192/382 249/193/383 255/187/377 256/186/376
f 249/193/383 248/194/384 254/188/378 255/187/377
f 248/194/384 247/4/196 253/6/198 254/188/378
f 193/195/244 241/196/243 252/190/380 195/189/379
f 241/196/243 242/197/246 251/191/381 252/190/380
f 242/197/246 243/198/248 250/192/382 251/191/381
f 243/198/248 244/199/250 249/193/383 250/192/382
f 244/199/250 245/200/252 248/194/384 249/193/383
f 245/200/252 246/1/193 247/4/196 248/194/384
