# Blender 5.1.2
# www.blender.org
o Cylinder
v 0.000000 0.021373 -0.524360
v 0.000000 1.612926 -0.898185
v 0.102298 0.021373 -0.514284
v 0.175227 1.612926 -0.880926
v 0.200664 0.021373 -0.484445
v 0.343720 1.612926 -0.829814
v 0.291319 0.021373 -0.435989
v 0.499005 1.612926 -0.746813
v 0.370778 0.021373 -0.370778
v 0.635112 1.612926 -0.635112
v 0.435989 0.021373 -0.291319
v 0.746813 1.612926 -0.499005
v 0.484445 0.021373 -0.200664
v 0.829814 1.612926 -0.343720
v 0.514284 0.021373 -0.102298
v 0.880926 1.612926 -0.175227
v 0.524360 0.021373 -0.000000
v 0.898185 1.612926 -0.000000
v 0.514284 0.021373 0.102298
v 0.880926 1.612926 0.175227
v 0.484445 0.021373 0.200664
v 0.829814 1.612926 0.343720
v 0.435989 0.021373 0.291319
v 0.746813 1.612926 0.499005
v 0.370778 0.021373 0.370778
v 0.635112 1.612926 0.635112
v 0.291319 0.021373 0.435989
v 0.499005 1.612926 0.746813
v 0.200664 0.021373 0.484445
v 0.343720 1.612926 0.829814
v 0.102298 0.021373 0.514284
v 0.175227 1.612926 0.880926
v 0.000000 0.021373 0.524360
v 0.000000 1.612926 0.898185
v -0.102298 0.021373 0.514284
v -0.175227 1.612926 0.880926
v -0.200664 0.021373 0.484445
v -0.343720 1.612926 0.829814
v -0.291319 0.021373 0.435989
v -0.499005 1.612926 0.746813
v -0.370778 0.021373 0.370778
v -0.635112 1.612926 0.635112
v -0.435989 0.021373 0.291319
v -0.746813 1.612926 0.499005
v -0.484445 0.021373 0.200664
v -0.829814 1.612926 0.343720
v -0.514284 0.021373 0.102298
v -0.880926 1.612926 0.175227
v -0.524360 0.021373 -0.000000
v -0.898185 1.612926 -0.000000
v -0.514284 0.021373 -0.102298
v -0.880926 1.612926 -0.175227
v -0.484445 0.021373 -0.200664
v -0.829814 1.612926 -0.343720
v -0.435989 0.021373 -0.291319
v -0.746813 1.612926 -0.499005
v -0.370778 0.021373 -0.370778
v -0.635112 1.612926 -0.635112
v -0.291319 0.021373 -0.435989
v -0.499005 1.612926 -0.746813
v -0.200664 0.021373 -0.484445
v -0.343720 1.612926 -0.829814
v -0.102298 0.021373 -0.514284
v -0.175227 1.612926 -0.880926
v -0.000000 1.485475 -1.171316
v -0.000000 1.249400 -1.325593
v -0.000000 0.985118 -1.447701
v -0.000000 0.695107 -1.516564
v -0.000000 0.364906 -1.470071
v 0.228512 1.485475 -1.148810
v 0.286797 0.364906 -1.441824
v 0.295867 0.695107 -1.487424
v 0.282432 0.985118 -1.419883
v 0.258610 1.249400 -1.300122
v 0.448243 1.485475 -1.082155
v 0.562572 0.364906 -1.358169
v 0.580364 0.695107 -1.401123
v 0.554011 0.985118 -1.337501
v 0.507282 1.249400 -1.224688
v 0.650749 1.485475 -0.973914
v 0.816728 0.364906 -1.222320
v 0.842558 0.695107 -1.260977
v 0.804299 0.985118 -1.203719
v 0.736460 1.249400 -1.102190
v 0.828246 1.485475 -0.828246
v 1.039497 0.364906 -1.039497
v 1.072373 0.695107 -1.072373
v 1.023679 0.985118 -1.023679
v 0.937336 1.249400 -0.937336
v 0.973914 1.485475 -0.650749
v 1.222320 0.364906 -0.816728
v 1.260977 0.695107 -0.842558
v 1.203719 0.985118 -0.804299
v 1.102190 1.249400 -0.736460
v 1.082155 1.485475 -0.448243
v 1.358169 0.364906 -0.562572
v 1.401123 0.695107 -0.580364
v 1.337501 0.985118 -0.554011
v 1.224688 1.249400 -0.507282
v 1.148810 1.485475 -0.228512
v 1.441824 0.364906 -0.286797
v 1.487424 0.695107 -0.295867
v 1.419883 0.985118 -0.282432
v 1.300122 1.249400 -0.258610
v 1.171316 1.485475 0.000000
v 1.470071 0.364906 0.000000
v 1.516564 0.695107 0.000000
v 1.447700 0.985118 0.000000
v 1.325593 1.249400 0.000000
v 1.148810 1.485475 0.228512
v 1.441824 0.364906 0.286797
v 1.487424 0.695107 0.295867
v 1.419883 0.985118 0.282432
v 1.300122 1.249400 0.258610
v 1.082155 1.485475 0.448243
v 1.358169 0.364906 0.562572
v 1.401123 0.695107 0.580364
v 1.337501 0.985118 0.554011
v 1.224688 1.249400 0.507282
v 0.973914 1.485475 0.650749
v 1.222320 0.364906 0.816728
v 1.260977 0.695107 0.842558
v 1.203719 0.985118 0.804299
v 1.102190 1.249400 0.736460
v 0.828246 1.485475 0.828246
v 1.039497 0.364906 1.039497
v 1.072373 0.695107 1.072373
v 1.023679 0.985118 1.023679
v 0.937336 1.249400 0.937336
v 0.650749 1.485475 0.973914
v 0.816728 0.364906 1.222320
v 0.842558 0.695107 1.260977
v 0.804299 0.985118 1.203719
v 0.736460 1.249400 1.102190
v 0.448243 1.485475 1.082155
v 0.562572 0.364906 1.358169
v 0.580364 0.695107 1.401123
v 0.554011 0.985118 1.337501
v 0.507282 1.249400 1.224688
v 0.228512 1.485475 1.148810
v 0.286797 0.364906 1.441824
v 0.295867 0.695107 1.487424
v 0.282432 0.985118 1.419883
v 0.258610 1.249400 1.300122
v -0.000000 1.485475 1.171316
v -0.000000 0.364906 1.470071
v -0.000000 0.695107 1.516564
v -0.000000 0.985118 1.447700
v -0.000000 1.249400 1.325593
v -0.228512 1.485475 1.148810
v -0.286797 0.364906 1.441824
v -0.295867 0.695107 1.487424
v -0.282432 0.985118 1.419883
v -0.258610 1.249400 1.300122
v -0.448243 1.485475 1.082155
v -0.562572 0.364906 1.358169
v -0.580364 0.695107 1.401123
v -0.554011 0.985118 1.337501
v -0.507282 1.249400 1.224688
v -0.650749 1.485475 0.973914
v -0.816728 0.364906 1.222320
v -0.842558 0.695107 1.260977
v -0.804299 0.985118 1.203719
v -0.736460 1.249400 1.102190
v -0.828246 1.485475 0.828246
v -1.039497 0.364906 1.039497
v -1.072373 0.695107 1.072373
v -1.023679 0.985118 1.023679
v -0.937336 1.249400 0.937336
v -0.973914 1.485475 0.650749
v -1.222320 0.364906 0.816728
v -1.260977 0.695107 0.842558
v -1.203719 0.985118 0.804299
v -1.102190 1.249400 0.736460
v -1.082155 1.485475 0.448243
v -1.358169 0.364906 0.562572
v -1.401123 0.695107 0.580364
v -1.337501 0.985118 0.554011
v -1.224688 1.249400 0.507282
v -1.148810 1.485475 0.228512
v -1.441824 0.364906 0.286797
v -1.487424 0.695107 0.295867
v -1.419883 0.985118 0.282432
v -1.300122 1.249400 0.258610
v -1.171316 1.485475 0.000000
v -1.470071 0.364906 0.000000
v -1.516564 0.695107 0.000000
v -1.447700 0.985118 0.000000
v -1.325593 1.249400 0.000000
v -1.148810 1.485475 -0.228512
v -1.441824 0.364906 -0.286797
v -1.487424 0.695107 -0.295867
v -1.419883 0.985118 -0.282432
v -1.300122 1.249400 -0.258610
v -1.082155 1.485475 -0.448243
v -1.358169 0.364906 -0.562572
v -1.401123 0.695107 -0.580364
v -1.337501 0.985118 -0.554011
v -1.224688 1.249400 -0.507282
v -0.973914 1.485475 -0.650749
v -1.222320 0.364906 -0.816728
v -1.260977 0.695107 -0.842558
v -1.203719 0.985118 -0.804299
v -1.102190 1.249400 -0.736460
v -0.828246 1.485475 -0.828246
v -1.039497 0.364906 -1.039497
v -1.072373 0.695107 -1.072373
v -1.023679 0.985118 -1.023679
v -0.937336 1.249400 -0.937336
v -0.650749 1.485475 -0.973914
v -0.816728 0.364906 -1.222320
v -0.842558 0.695107 -1.260977
v -0.804299 0.985118 -1.203719
v -0.736460 1.249400 -1.102190
v -0.448243 1.485475 -1.082155
v -0.562572 0.364906 -1.358169
v -0.580364 0.695107 -1.401123
v -0.554011 0.985118 -1.337501
v -0.507282 1.249400 -1.224688
v -0.228512 1.485475 -1.148810
v -0.286797 0.364906 -1.441824
v -0.295867 0.695107 -1.487424
v -0.282432 0.985118 -1.419883
v -0.258610 1.249400 -1.300122
v 0.000000 0.179458 -1.305341
v 0.000000 0.056908 -1.054932
v 0.205807 0.056907 -1.034661
v 0.254659 0.179458 -1.280258
v 0.403705 0.056907 -0.974630
v 0.499532 0.179458 -1.205977
v 0.586089 0.056907 -0.877144
v 0.725208 0.179458 -1.085351
v 0.745949 0.056907 -0.745949
v 0.923015 0.179458 -0.923015
v 0.877144 0.056907 -0.586089
v 1.085351 0.179458 -0.725208
v 0.974630 0.056907 -0.403705
v 1.205977 0.179458 -0.499532
v 1.034661 0.056907 -0.205807
v 1.280258 0.179458 -0.254659
v 1.054932 0.056907 -0.000000
v 1.305340 0.179458 0.000000
v 1.034661 0.056907 0.205807
v 1.280258 0.179458 0.254659
v 0.974630 0.056907 0.403705
v 1.205977 0.179458 0.499532
v 0.877144 0.056907 0.586089
v 1.085351 0.179458 0.725208
v 0.745949 0.056907 0.745949
v 0.923015 0.179458 0.923015
v 0.586089 0.056907 0.877144
v 0.725208 0.179458 1.085351
v 0.403705 0.056907 0.974630
v 0.499532 0.179458 1.205977
v 0.205807 0.056907 1.034661
v 0.254659 0.179458 1.280258
v 0.000000 0.056907 1.054932
v 0.000000 0.179458 1.305340
v -0.205807 0.056907 1.034661
v -0.254659 0.179458 1.280258
v -0.403705 0.056907 0.974630
v -0.499532 0.179458 1.205977
v -0.586089 0.056907 0.877144
v -0.725208 0.179458 1.085351
v -0.745949 0.056907 0.745949
v -0.923015 0.179458 0.923015
v -0.877144 0.056907 0.586089
v -1.085351 0.179458 0.725208
v -0.974630 0.056907 0.403705
v -1.205977 0.179458 0.499532
v -1.034661 0.056907 0.205807
v -1.280258 0.179458 0.254659
v -1.054932 0.056907 -0.000000
v -1.305340 0.179458 0.000000
v -1.034661 0.056907 -0.205807
v -1.280258 0.179458 -0.254659
v -0.974630 0.056907 -0.403705
v -1.205977 0.179458 -0.499532
v -0.877144 0.056907 -0.586089
v -1.085351 0.179458 -0.725208
v -0.745949 0.056907 -0.745949
v -0.923015 0.179458 -0.923015
v -0.586089 0.056907 -0.877144
v -0.725208 0.179458 -1.085351
v -0.403705 0.056907 -0.974630
v -0.499532 0.179458 -1.205977
v -0.205807 0.056907 -1.034661
v -0.254659 0.179458 -1.280258
vn -0.0000 -0.9978 -0.0668
vn -0.0000 0.9062 -0.4229
vn 0.0130 -0.9978 -0.0655
vn 0.0825 0.9062 -0.4147
vn 0.0256 -0.9978 -0.0617
vn 0.1618 0.9062 -0.3907
vn 0.0371 -0.9978 -0.0556
vn 0.2349 0.9062 -0.3516
vn 0.0473 -0.9978 -0.0473
vn 0.2990 0.9062 -0.2990
vn 0.0556 -0.9978 -0.0371
vn 0.3516 0.9062 -0.2349
vn 0.0617 -0.9978 -0.0256
vn 0.3907 0.9062 -0.1618
vn 0.0655 -0.9978 -0.0130
vn 0.4147 0.9062 -0.0825
vn 0.0668 -0.9978 -0.0000
vn 0.4229 0.9062 -0.0000
vn 0.0655 -0.9978 0.0130
vn 0.4147 0.9062 0.0825
vn 0.0617 -0.9978 0.0256
vn 0.3907 0.9062 0.1618
vn 0.0556 -0.9978 0.0371
vn 0.3516 0.9062 0.2349
vn 0.0473 -0.9978 0.0473
vn 0.2990 0.9062 0.2990
vn 0.0371 -0.9978 0.0556
vn 0.2349 0.9062 0.3516
vn 0.0256 -0.9978 0.0617
vn 0.1618 0.9062 0.3907
vn 0.0130 -0.9978 0.0655
vn 0.0825 0.9062 0.4147
vn -0.0000 -0.9978 0.0668
vn -0.0000 0.9062 0.4229
vn -0.0130 -0.9978 0.0655
vn -0.0825 0.9062 0.4147
vn -0.0256 -0.9978 0.0617
vn -0.1618 0.9062 0.3907
vn -0.0371 -0.9978 0.0556
vn -0.2349 0.9062 0.3516
vn -0.0473 -0.9978 0.0473
vn -0.2990 0.9062 0.2990
vn -0.0556 -0.9978 0.0371
vn -0.3516 0.9062 0.2349
vn -0.0617 -0.9978 0.0256
vn -0.3907 0.9062 0.1618
vn -0.0655 -0.9978 0.0130
vn -0.4147 0.9062 0.0825
vn -0.0668 -0.9978 -0.0000
vn -0.4229 0.9062 -0.0000
vn -0.0655 -0.9978 -0.0130
vn -0.4147 0.9062 -0.0825
vn -0.0617 -0.9978 -0.0256
vn -0.3907 0.9062 -0.1618
vn -0.0556 -0.9978 -0.0371
vn -0.3516 0.9062 -0.2349
vn -0.0473 -0.9978 -0.0473
vn -0.2990 0.9062 -0.2990
vn -0.0371 -0.9978 -0.0556
vn -0.2349 0.9062 -0.3516
vn -0.0256 -0.9978 -0.0617
vn -0.1618 0.9062 -0.3907
vn -0.0130 -0.9978 -0.0655
vn -0.0825 0.9062 -0.4147
vn -0.0000 0.7472 -0.6646
vn -0.0000 0.4826 -0.8758
vn -0.0000 0.3250 -0.9457
vn -0.0000 0.0461 -0.9989
vn -0.0000 -0.4130 -0.9107
vn 0.1297 0.7472 -0.6519
vn 0.1777 -0.4130 -0.8932
vn 0.1949 0.0461 -0.9797
vn 0.1845 0.3250 -0.9276
vn 0.1709 0.4826 -0.8590
vn 0.2543 0.7472 -0.6140
vn 0.3485 -0.4130 -0.8414
vn 0.3823 0.0461 -0.9229
vn 0.3619 0.3250 -0.8737
vn 0.3352 0.4826 -0.8092
vn 0.3692 0.7472 -0.5526
vn 0.5060 -0.4130 -0.7573
vn 0.5550 0.0461 -0.8306
vn 0.5254 0.3250 -0.7863
vn 0.4866 0.4826 -0.7282
vn 0.4700 0.7472 -0.4700
vn 0.6440 -0.4130 -0.6440
vn 0.7064 0.0461 -0.7064
vn 0.6687 0.3250 -0.6687
vn 0.6193 0.4826 -0.6193
vn 0.5526 0.7472 -0.3692
vn 0.7573 -0.4130 -0.5060
vn 0.8306 0.0461 -0.5550
vn 0.7863 0.3250 -0.5254
vn 0.7282 0.4826 -0.4866
vn 0.6140 0.7472 -0.2543
vn 0.8414 -0.4130 -0.3485
vn 0.9229 0.0461 -0.3823
vn 0.8737 0.3250 -0.3619
vn 0.8092 0.4826 -0.3352
vn 0.6519 0.7472 -0.1297
vn 0.8932 -0.4130 -0.1777
vn 0.9797 0.0461 -0.1949
vn 0.9276 0.3250 -0.1845
vn 0.8590 0.4826 -0.1709
vn 0.6646 0.7472 -0.0000
vn 0.9107 -0.4130 -0.0000
vn 0.9989 0.0461 -0.0000
vn 0.9457 0.3250 -0.0000
vn 0.8758 0.4826 -0.0000
vn 0.6519 0.7472 0.1297
vn 0.8932 -0.4130 0.1777
vn 0.9797 0.0461 0.1949
vn 0.9276 0.3250 0.1845
vn 0.8590 0.4826 0.1709
vn 0.6140 0.7472 0.2543
vn 0.8414 -0.4130 0.3485
vn 0.9229 0.0461 0.3823
vn 0.8737 0.3250 0.3619
vn 0.8092 0.4826 0.3352
vn 0.5526 0.7472 0.3692
vn 0.7573 -0.4130 0.5060
vn 0.8306 0.0461 0.5550
vn 0.7863 0.3250 0.5254
vn 0.7282 0.4826 0.4866
vn 0.4700 0.7472 0.4700
vn 0.6440 -0.4130 0.6440
vn 0.7064 0.0461 0.7064
vn 0.6687 0.3250 0.6687
vn 0.6193 0.4826 0.6193
vn 0.3692 0.7472 0.5526
vn 0.5060 -0.4130 0.7573
vn 0.5550 0.0461 0.8306
vn 0.5254 0.3250 0.7863
vn 0.4866 0.4826 0.7282
vn 0.2543 0.7472 0.6140
vn 0.3485 -0.4130 0.8414
vn 0.3823 0.0461 0.9229
vn 0.3619 0.3250 0.8737
vn 0.3352 0.4826 0.8092
vn 0.1297 0.7472 0.6519
vn 0.1777 -0.4130 0.8932
vn 0.1949 0.0461 0.9797
vn 0.1845 0.3250 0.9276
vn 0.1709 0.4826 0.8590
vn -0.0000 0.7472 0.6646
vn -0.0000 -0.4130 0.9107
vn -0.0000 0.0461 0.9989
vn -0.0000 0.3250 0.9457
vn -0.0000 0.4826 0.8758
vn -0.1297 0.7472 0.6519
vn -0.1777 -0.4130 0.8932
vn -0.1949 0.0461 0.9797
vn -0.1845 0.3250 0.9276
vn -0.1709 0.4826 0.8590
vn -0.2543 0.7472 0.6140
vn -0.3485 -0.4130 0.8414
vn -0.3823 0.0461 0.9229
vn -0.3619 0.3250 0.8737
vn -0.3352 0.4826 0.8092
vn -0.3692 0.7472 0.5526
vn -0.5060 -0.4130 0.7573
vn -0.5550 0.0461 0.8306
vn -0.5254 0.3250 0.7863
vn -0.4866 0.4826 0.7282
vn -0.4700 0.7472 0.4700
vn -0.6440 -0.4130 0.6440
vn -0.7064 0.0461 0.7064
vn -0.6687 0.3250 0.6687
vn -0.6193 0.4826 0.6193
vn -0.5526 0.7472 0.3692
vn -0.7573 -0.4130 0.5060
vn -0.8306 0.0461 0.5550
vn -0.7863 0.3250 0.5254
vn -0.7282 0.4826 0.4866
vn -0.6140 0.7472 0.2543
vn -0.8414 -0.4130 0.3485
vn -0.9229 0.0461 0.3823
vn -0.8737 0.3250 0.3619
vn -0.8092 0.4826 0.3352
vn -0.6519 0.7472 0.1297
vn -0.8932 -0.4130 0.1777
vn -0.9797 0.0461 0.1949
vn -0.9276 0.3250 0.1845
vn -0.8590 0.4826 0.1709
vn -0.6646 0.7472 -0.0000
vn -0.9107 -0.4130 -0.0000
vn -0.9989 0.0461 -0.0000
vn -0.9457 0.3250 -0.0000
vn -0.8758 0.4826 -0.0000
vn -0.6519 0.7472 -0.1297
vn -0.8932 -0.4130 -0.1777
vn -0.9797 0.0461 -0.1949
vn -0.9276 0.3250 -0.1845
vn -0.8590 0.4826 -0.1709
vn -0.6140 0.7472 -0.2543
vn -0.8414 -0.4130 -0.3485
vn -0.9229 0.0461 -0.3823
vn -0.8737 0.3250 -0.3619
vn -0.8092 0.4826 -0.3352
vn -0.5526 0.7472 -0.3692
vn -0.7573 -0.4130 -0.5060
vn -0.8306 0.0461 -0.5550
vn -0.7863 0.3250 -0.5254
vn -0.7282 0.4826 -0.4866
vn -0.4700 0.7472 -0.4700
vn -0.6440 -0.4130 -0.6440
vn -0.7064 0.0461 -0.7064
vn -0.6687 0.3250 -0.6687
vn -0.6193 0.4826 -0.6193
vn -0.3692 0.7472 -0.5526
vn -0.5060 -0.4130 -0.7573
vn -0.5550 0.0461 -0.8306
vn -0.5254 0.3250 -0.7863
vn -0.4866 0.4826 -0.7282
vn -0.2543 0.7472 -0.6140
vn -0.3485 -0.4130 -0.8414
vn -0.3823 0.0461 -0.9229
vn -0.3619 0.3250 -0.8737
vn -0.3352 0.4826 -0.8092
vn -0.1297 0.7472 -0.6519
vn -0.1777 -0.4130 -0.8932
vn -0.1949 0.0461 -0.9797
vn -0.1845 0.3250 -0.9276
vn -0.1709 0.4826 -0.8590
vn -0.0000 -0.7904 -0.6126
vn -0.0000 -0.9631 -0.2692
vn 0.0525 -0.9631 -0.2641
vn 0.1195 -0.7904 -0.6008
vn 0.1030 -0.9631 -0.2487
vn 0.2344 -0.7904 -0.5660
vn 0.1496 -0.9631 -0.2239
vn 0.3403 -0.7904 -0.5093
vn 0.1904 -0.9631 -0.1904
vn 0.4332 -0.7904 -0.4332
vn 0.2239 -0.9631 -0.1496
vn 0.5093 -0.7904 -0.3403
vn 0.2487 -0.9631 -0.1030
vn 0.5660 -0.7904 -0.2344
vn 0.2641 -0.9631 -0.0525
vn 0.6008 -0.7904 -0.1195
vn 0.2692 -0.9631 -0.0000
vn 0.6126 -0.7904 -0.0000
vn 0.2641 -0.9631 0.0525
vn 0.6008 -0.7904 0.1195
vn 0.2487 -0.9631 0.1030
vn 0.5660 -0.7904 0.2344
vn 0.2239 -0.9631 0.1496
vn 0.5093 -0.7904 0.3403
vn 0.1904 -0.9631 0.1904
vn 0.4332 -0.7904 0.4332
vn 0.1496 -0.9631 0.2239
vn 0.3403 -0.7904 0.5093
vn 0.1030 -0.9631 0.2487
vn 0.2344 -0.7904 0.5660
vn 0.0525 -0.9631 0.2641
vn 0.1195 -0.7904 0.6008
vn -0.0000 -0.9631 0.2692
vn -0.0000 -0.7904 0.6126
vn -0.0525 -0.9631 0.2641
vn -0.1195 -0.7904 0.6008
vn -0.1030 -0.9631 0.2487
vn -0.2344 -0.7904 0.5660
vn -0.1496 -0.9631 0.2239
vn -0.3403 -0.7904 0.5093
vn -0.1904 -0.9631 0.1904
vn -0.4332 -0.7904 0.4332
vn -0.2239 -0.9631 0.1496
vn -0.5093 -0.7904 0.3403
vn -0.2487 -0.9631 0.1030
vn -0.5660 -0.7904 0.2344
vn -0.2641 -0.9631 0.0525
vn -0.6008 -0.7904 0.1195
vn -0.2692 -0.9631 -0.0000
vn -0.6126 -0.7904 -0.0000
vn -0.2641 -0.9631 -0.0525
vn -0.6008 -0.7904 -0.1195
vn -0.2487 -0.9631 -0.1030
vn -0.5660 -0.7904 -0.2344
vn -0.2239 -0.9631 -0.1496
vn -0.5093 -0.7904 -0.3403
vn -0.1904 -0.9631 -0.1904
vn -0.4332 -0.7904 -0.4332
vn -0.1496 -0.9631 -0.2239
vn -0.3403 -0.7904 -0.5093
vn -0.1030 -0.9631 -0.2487
vn -0.2344 -0.7904 -0.5660
vn -0.0525 -0.9631 -0.2641
vn -0.1195 -0.7904 -0.6008
vt 0.031250 0.924827
vt 0.000000 0.924828
vt 0.000389 0.786110
vt 0.031250 0.786110
vt 0.001370 0.646095
vt 0.031250 0.646095
vt 0.001370 0.353905
vt 0.031250 0.353905
vt 0.000389 0.213890
vt 0.031250 0.213890
vt 0.062500 0.924827
vt 0.062500 0.786110
vt 0.062500 0.646095
vt 0.062500 0.353905
vt 0.062500 0.213890
vt 0.093750 0.924827
vt 0.093750 0.786110
vt 0.093750 0.646095
vt 0.093750 0.353905
vt 0.093750 0.213890
vt 0.125000 0.924827
vt 0.125000 0.786110
vt 0.125000 0.646095
vt 0.125000 0.353905
vt 0.125000 0.213890
vt 0.156250 0.924827
vt 0.156250 0.786110
vt 0.156250 0.646095
vt 0.156250 0.353905
vt 0.156250 0.213890
vt 0.187500 0.924827
vt 0.187500 0.786110
vt 0.187500 0.646095
vt 0.187500 0.353905
vt 0.187500 0.213890
vt 0.218750 0.924828
vt 0.218750 0.786110
vt 0.218750 0.646095
vt 0.218750 0.353905
vt 0.218750 0.213890
vt 0.250000 0.924827
vt 0.250000 0.786110
vt 0.250000 0.646095
vt 0.250000 0.353905
vt 0.250000 0.213890
vt 0.281250 0.924827
vt 0.281250 0.786110
vt 0.281250 0.646095
vt 0.281250 0.353905
vt 0.281250 0.213890
vt 0.312500 0.924827
vt 0.312500 0.786110
vt 0.312500 0.646095
vt 0.312500 0.353905
vt 0.312500 0.213890
vt 0.343750 0.924827
vt 0.343750 0.786110
vt 0.343750 0.646095
vt 0.343750 0.353905
vt 0.343750 0.213890
vt 0.375000 0.924827
vt 0.375000 0.786110
vt 0.375000 0.646095
vt 0.375000 0.353905
vt 0.375000 0.213890
vt 0.406250 0.924827
vt 0.406250 0.786110
vt 0.406250 0.646095
vt 0.406250 0.353905
vt 0.406250 0.213890
vt 0.437500 0.924827
vt 0.437500 0.786110
vt 0.437500 0.646095
vt 0.437500 0.353905
vt 0.437500 0.213890
vt 0.468750 0.924828
vt 0.468750 0.786110
vt 0.468750 0.646095
vt 0.468750 0.353905
vt 0.468750 0.213890
vt 0.500000 0.924827
vt 0.500000 0.786110
vt 0.500000 0.646095
vt 0.500000 0.353905
vt 0.500000 0.213890
vt 0.531250 0.924827
vt 0.531250 0.786110
vt 0.531250 0.646095
vt 0.531250 0.353905
vt 0.531250 0.213890
vt 0.562500 0.924827
vt 0.562500 0.786110
vt 0.562500 0.646095
vt 0.562500 0.353905
vt 0.562500 0.213890
vt 0.593750 0.924827
vt 0.593750 0.786110
vt 0.593750 0.646095
vt 0.593750 0.353905
vt 0.593750 0.213890
vt 0.625000 0.924827
vt 0.625000 0.786110
vt 0.625000 0.646095
vt 0.625000 0.353905
vt 0.625000 0.213890
vt 0.656250 0.924827
vt 0.656250 0.786110
vt 0.656250 0.646095
vt 0.656250 0.353905
vt 0.656250 0.213890
vt 0.687500 0.924827
vt 0.687500 0.786110
vt 0.687500 0.646095
vt 0.687500 0.353905
vt 0.687500 0.213890
vt 0.718750 0.924828
vt 0.718750 0.786110
vt 0.718750 0.646095
vt 0.718750 0.353905
vt 0.718750 0.213890
vt 0.750000 0.924827
vt 0.750000 0.786110
vt 0.750000 0.646095
vt 0.750000 0.353905
vt 0.750000 0.213890
vt 0.781250 0.924827
vt 0.781250 0.786110
vt 0.781250 0.646095
vt 0.781250 0.353905
vt 0.781250 0.213890
vt 0.812500 0.924827
vt 0.812500 0.786110
vt 0.812500 0.646095
vt 0.812500 0.353905
vt 0.812500 0.213890
vt 0.843750 0.924827
vt 0.843750 0.786110
vt 0.843750 0.646095
vt 0.843750 0.353905
vt 0.843750 0.213890
vt 0.875000 0.924827
vt 0.875000 0.786110
vt 0.875000 0.646095
vt 0.875000 0.353905
vt 0.875000 0.213890
vt 0.906250 0.924827
vt 0.906250 0.786110
vt 0.906250 0.646095
vt 0.906250 0.353905
vt 0.906250 0.213890
vt 0.937500 0.924827
vt 0.937500 0.786110
vt 0.937500 0.646095
vt 0.937500 0.353905
vt 0.937500 0.213890
vt 0.968750 0.924828
vt 0.968750 0.786110
vt 0.968750 0.646095
vt 0.968750 0.353905
vt 0.968750 0.213890
vt 1.000000 0.924827
vt 0.999611 0.786110
vt 0.998630 0.646095
vt 0.998630 0.353905
vt 0.999611 0.213890
vt 0.031250 1.000000
vt 0.000000 1.000000
vt 1.000000 1.000000
vt 0.968750 1.000000
vt 0.937500 1.000000
vt 0.906250 1.000000
vt 0.875000 1.000000
vt 0.843750 1.000000
vt 0.812500 1.000000
vt 0.781250 1.000000
vt 0.750000 1.000000
vt 0.718750 1.000000
vt 0.687500 1.000000
vt 0.656250 1.000000
vt 0.625000 1.000000
vt 0.593750 1.000000
vt 0.562500 1.000000
vt 0.531250 1.000000
vt 0.500000 1.000000
vt 0.468750 1.000000
vt 0.437500 1.000000
vt 0.406250 1.000000
vt 0.375000 1.000000
vt 0.343750 1.000000
vt 0.312500 1.000000
vt 0.281250 1.000000
vt 0.250000 1.000000
vt 0.218750 1.000000
vt 0.187500 1.000000
vt 0.156250 1.000000
vt 0.125000 1.000000
vt 0.093750 1.000000
vt 0.062500 1.000000
vt 0.000000 0.058561
vt 0.031250 0.058561
vt 0.031250 0.127541
vt 0.000147 0.127541
vt 0.062500 0.058561
vt 0.062500 0.127541
vt 0.093750 0.058561
vt 0.093750 0.127541
vt 0.125000 0.058561
vt 0.125000 0.127541
vt 0.156250 0.058561
vt 0.156250 0.127541
vt 0.187500 0.058561
vt 0.187500 0.127541
vt 0.218750 0.058561
vt 0.218750 0.127541
vt 0.250000 0.058561
vt 0.250000 0.127541
vt 0.281250 0.058561
vt 0.281250 0.127541
vt 0.312500 0.058561
vt 0.312500 0.127541
vt 0.343750 0.058561
vt 0.343750 0.127541
vt 0.375000 0.058561
vt 0.375000 0.127541
vt 0.406250 0.058561
vt 0.406250 0.127541
vt 0.437500 0.058561
vt 0.437500 0.127541
vt 0.468750 0.058561
vt 0.468750 0.127541
vt 0.500000 0.058561
vt 0.500000 0.127541
vt 0.531250 0.058561
vt 0.531250 0.127541
vt 0.562500 0.058561
vt 0.562500 0.127541
vt 0.593750 0.058561
vt 0.593750 0.127541
vt 0.625000 0.058561
vt 0.625000 0.127541
vt 0.656250 0.058561
vt 0.656250 0.127541
vt 0.687500 0.058561
vt 0.687500 0.127541
vt 0.718750 0.058561
vt 0.718750 0.127541
vt 0.750000 0.058561
vt 0.750000 0.127541
vt 0.781250 0.058561
vt 0.781250 0.127541
vt 0.812500 0.058561
vt 0.812500 0.127541
vt 0.843750 0.058561
vt 0.843750 0.127541
vt 0.875000 0.058561
vt 0.875000 0.127541
vt 0.906250 0.058561
vt 0.906250 0.127541
vt 0.937500 0.058561
vt 0.937500 0.127541
vt 0.968750 0.058561
vt 0.968750 0.127541
vt 1.000000 0.058561
vt 0.999853 0.127541
vt 1.000000 0.000000
vt 0.968750 0.000000
vt 0.031250 0.000000
vt 0.000000 0.000000
vt 0.937500 0.000000
vt 0.906250 0.000000
vt 0.875000 0.000000
vt 0.843750 0.000000
vt 0.812500 0.000000
vt 0.781250 0.000000
vt 0.750000 0.000000
vt 0.718750 0.000000
vt 0.687500 0.000000
vt 0.656250 0.000000
vt 0.625000 0.000000
vt 0.593750 0.000000
vt 0.562500 0.000000
vt 0.531250 0.000000
vt 0.500000 0.000000
vt 0.468750 0.000000
vt 0.437500 0.000000
vt 0.406250 0.000000
vt 0.375000 0.000000
vt 0.343750 0.000000
vt 0.312500 0.000000
vt 0.281250 0.000000
vt 0.250000 0.000000
vt 0.218750 0.000000
vt 0.187500 0.000000
vt 0.156250 0.000000
vt 0.125000 0.000000
vt 0.093750 0.000000
vt 0.062500 0.000000
s 1
f 220/1/220 65/2/65 66/3/66 224/4/224
f 224/4/224 66/3/66 67/5/67 223/6/223
f 223/6/223 67/5/67 68/7/68 222/8/222
f 222/8/222 68/7/68 69/9/69 221/10/221
f 215/11/215 220/1/220 224/4/224 219/12/219
f 219/12/219 224/4/224 223/6/223 218/13/218
f 218/13/218 223/6/223 222/8/222 217/14/217
f 217/14/217 222/8/222 221/10/221 216/15/216
f 210/16/210 215/11/215 219/12/219 214/17/214
f 214/17/214 219/12/219 218/13/218 213/18/213
f 213/18/213 218/13/218 217/14/217 212/19/212
f 212/19/212 217/14/217 216/15/216 211/20/211
f 205/21/205 210/16/210 214/17/214 209/22/209
f 209/22/209 214/17/214 213/18/213 208/23/208
f 208/23/208 213/18/213 212/19/212 207/24/207
f 207/24/207 212/19/212 211/20/211 206/25/206
f 200/26/200 205/21/205 209/22/209 204/27/204
f 204/27/204 209/22/209 208/23/208 203/28/203
f 203/28/203 208/23/208 207/24/207 202/29/202
f 202/29/202 207/24/207 206/25/206 201/30/201
f 195/31/195 200/26/200 204/27/204 199/32/199
f 199/32/199 204/27/204 203/28/203 198/33/198
f 198/33/198 203/28/203 202/29/202 197/34/197
f 197/34/197 202/29/202 201/30/201 196/35/196
f 190/36/190 195/31/195 199/32/199 194/37/194
f 194/37/194 199/32/199 198/33/198 193/38/193
f 193/38/193 198/33/198 197/34/197 192/39/192
f 192/39/192 197/34/197 196/35/196 191/40/191
f 185/41/185 190/36/190 194/37/194 189/42/189
f 189/42/189 194/37/194 193/38/193 188/43/188
f 188/43/188 193/38/193 192/39/192 187/44/187
f 187/44/187 192/39/192 191/40/191 186/45/186
f 180/46/180 185/41/185 189/42/189 184/47/184
f 184/47/184 189/42/189 188/43/188 183/48/183
f 183/48/183 188/43/188 187/44/187 182/49/182
f 182/49/182 187/44/187 186/45/186 181/50/181
f 175/51/175 180/46/180 184/47/184 179/52/179
f 179/52/179 184/47/184 183/48/183 178/53/178
f 178/53/178 183/48/183 182/49/182 177/54/177
f 177/54/177 182/49/182 181/50/181 176/55/176
f 170/56/170 175/51/175 179/52/179 174/57/174
f 174/57/174 179/52/179 178/53/178 173/58/173
f 173/58/173 178/53/178 177/54/177 172/59/172
f 172/59/172 177/54/177 176/55/176 171/60/171
f 165/61/165 170/56/170 174/57/174 169/62/169
f 169/62/169 174/57/174 173/58/173 168/63/168
f 168/63/168 173/58/173 172/59/172 167/64/167
f 167/64/167 172/59/172 171/60/171 166/65/166
f 160/66/160 165/61/165 169/62/169 164/67/164
f 164/67/164 169/62/169 168/63/168 163/68/163
f 163/68/163 168/63/168 167/64/167 162/69/162
f 162/69/162 167/64/167 166/65/166 161/70/161
f 155/71/155 160/66/160 164/67/164 159/72/159
f 159/72/159 164/67/164 163/68/163 158/73/158
f 158/73/158 163/68/163 162/69/162 157/74/157
f 157/74/157 162/69/162 161/70/161 156/75/156
f 150/76/150 155/71/155 159/72/159 154/77/154
f 154/77/154 159/72/159 158/73/158 153/78/153
f 153/78/153 158/73/158 157/74/157 152/79/152
f 152/79/152 157/74/157 156/75/156 151/80/151
f 145/81/145 150/76/150 154/77/154 149/82/149
f 149/82/149 154/77/154 153/78/153 148/83/148
f 148/83/148 153/78/153 152/79/152 147/84/147
f 147/84/147 152/79/152 151/80/151 146/85/146
f 140/86/140 145/81/145 149/82/149 144/87/144
f 144/87/144 149/82/149 148/83/148 143/88/143
f 143/88/143 148/83/148 147/84/147 142/89/142
f 142/89/142 147/84/147 146/85/146 141/90/141
f 135/91/135 140/86/140 144/87/144 139/92/139
f 139/92/139 144/87/144 143/88/143 138/93/138
f 138/93/138 143/88/143 142/89/142 137/94/137
f 137/94/137 142/89/142 141/90/141 136/95/136
f 130/96/130 135/91/135 139/92/139 134/97/134
f 134/97/134 139/92/139 138/93/138 133/98/133
f 133/98/133 138/93/138 137/94/137 132/99/132
f 132/99/132 137/94/137 136/95/136 131/100/131
f 125/101/125 130/96/130 134/97/134 129/102/129
f 129/102/129 134/97/134 133/98/133 128/103/128
f 128/103/128 133/98/133 132/99/132 127/104/127
f 127/104/127 132/99/132 131/100/131 126/105/126
f 120/106/120 125/101/125 129/102/129 124/107/124
f 124/107/124 129/102/129 128/103/128 123/108/123
f 123/108/123 128/103/128 127/104/127 122/109/122
f 122/109/122 127/104/127 126/105/126 121/110/121
f 115/111/115 120/106/120 124/107/124 119/112/119
f 119/112/119 124/107/124 123/108/123 118/113/118
f 118/113/118 123/108/123 122/109/122 117/114/117
f 117/114/117 122/109/122 121/110/121 116/115/116
f 110/116/110 115/111/115 119/112/119 114/117/114
f 114/117/114 119/112/119 118/113/118 113/118/113
f 113/118/113 118/113/118 117/114/117 112/119/112
f 112/119/112 117/114/117 116/115/116 111/120/111
f 105/121/105 110/116/110 114/117/114 109/122/109
f 109/122/109 114/117/114 113/118/113 108/123/108
f 108/123/108 113/118/113 112/119/112 107/124/107
f 107/124/107 112/119/112 111/120/111 106/125/106
f 100/126/100 105/121/105 109/122/109 104/127/104
f 104/127/104 109/122/109 108/123/108 103/128/103
f 103/128/103 108/123/108 107/124/107 102/129/102
f 102/129/102 107/124/107 106/125/106 101/130/101
f 95/131/95 100/126/100 104/127/104 99/132/99
f 99/132/99 104/127/104 103/128/103 98/133/98
f 98/133/98 103/128/103 102/129/102 97/134/97
f 97/134/97 102/129/102 101/130/101 96/135/96
f 90/136/90 95/131/95 99/132/99 94/137/94
f 94/137/94 99/132/99 98/133/98 93/138/93
f 93/138/93 98/133/98 97/134/97 92/139/92
f 92/139/92 97/134/97 96/135/96 91/140/91
f 85/141/85 90/136/90 94/137/94 89/142/89
f 89/142/89 94/137/94 93/138/93 88/143/88
f 88/143/88 93/138/93 92/139/92 87/144/87
f 87/144/87 92/139/92 91/140/91 86/145/86
f 80/146/80 85/141/85 89/142/89 84/147/84
f 84/147/84 89/142/89 88/143/88 83/148/83
f 83/148/83 88/143/88 87/144/87 82/149/82
f 82/149/82 87/144/87 86/145/86 81/150/81
f 75/151/75 80/146/80 84/147/84 79/152/79
f 79/152/79 84/147/84 83/148/83 78/153/78
f 78/153/78 83/148/83 82/149/82 77/154/77
f 77/154/77 82/149/82 81/150/81 76/155/76
f 70/156/70 75/151/75 79/152/79 74/157/74
f 74/157/74 79/152/79 78/153/78 73/158/73
f 73/158/73 78/153/78 77/154/77 72/159/72
f 72/159/72 77/154/77 76/155/76 71/160/71
f 65/161/65 70/156/70 74/157/74 66/162/66
f 66/162/66 74/157/74 73/158/73 67/163/67
f 67/163/67 73/158/73 72/159/72 68/164/68
f 68/164/68 72/159/72 71/160/71 69/165/69
f 220/1/220 64/166/64 2/167/2 65/2/65
f 65/161/65 2/168/2 4/169/4 70/156/70
f 70/156/70 4/169/4 6/170/6 75/151/75
f 75/151/75 6/170/6 8/171/8 80/146/80
f 80/146/80 8/171/8 10/172/10 85/141/85
f 85/141/85 10/172/10 12/173/12 90/136/90
f 90/136/90 12/173/12 14/174/14 95/131/95
f 95/131/95 14/174/14 16/175/16 100/126/100
f 100/126/100 16/175/16 18/176/18 105/121/105
f 105/121/105 18/176/18 20/177/20 110/116/110
f 110/116/110 20/177/20 22/178/22 115/111/115
f 115/111/115 22/178/22 24/179/24 120/106/120
f 120/106/120 24/179/24 26/180/26 125/101/125
f 125/101/125 26/180/26 28/181/28 130/96/130
f 130/96/130 28/181/28 30/182/30 135/91/135
f 135/91/135 30/182/30 32/183/32 140/86/140
f 140/86/140 32/183/32 34/184/34 145/81/145
f 145/81/145 34/184/34 36/185/36 150/76/150
f 150/76/150 36/185/36 38/186/38 155/71/155
f 155/71/155 38/186/38 40/187/40 160/66/160
f 160/66/160 40/187/40 42/188/42 165/61/165
f 165/61/165 42/188/42 44/189/44 170/56/170
f 170/56/170 44/189/44 46/190/46 175/51/175
f 175/51/175 46/190/46 48/191/48 180/46/180
f 180/46/180 48/191/48 50/192/50 185/41/185
f 185/41/185 50/192/50 52/193/52 190/36/190
f 190/36/190 52/193/52 54/194/54 195/31/195
f 195/31/195 54/194/54 56/195/56 200/26/200
f 200/26/200 56/195/56 58/196/58 205/21/205
f 205/21/205 58/196/58 60/197/60 210/16/210
f 210/16/210 60/197/60 62/198/62 215/11/215
f 215/11/215 62/198/62 64/166/64 220/1/220
f 226/199/226 287/200/287 288/201/288 225/202/225
f 287/200/287 285/203/285 286/204/286 288/201/288
f 285/203/285 283/205/283 284/206/284 286/204/286
f 283/205/283 281/207/281 282/208/282 284/206/284
f 281/207/281 279/209/279 280/210/280 282/208/282
f 279/209/279 277/211/277 278/212/278 280/210/280
f 277/211/277 275/213/275 276/214/276 278/212/278
f 275/213/275 273/215/273 274/216/274 276/214/276
f 273/215/273 271/217/271 272/218/272 274/216/274
f 271/217/271 269/219/269 270/220/270 272/218/272
f 269/219/269 267/221/267 268/222/268 270/220/270
f 267/221/267 265/223/265 266/224/266 268/222/268
f 265/223/265 263/225/263 264/226/264 266/224/266
f 263/225/263 261/227/261 262/228/262 264/226/264
f 261/227/261 259/229/259 260/230/260 262/228/262
f 259/229/259 257/231/257 258/232/258 260/230/260
f 257/231/257 255/233/255 256/234/256 258/232/258
f 255/233/255 253/235/253 254/236/254 256/234/256
f 253/235/253 251/237/251 252/238/252 254/236/254
f 251/237/251 249/239/249 250/240/250 252/238/252
f 249/239/249 247/241/247 248/242/248 250/240/250
f 247/241/247 245/243/245 246/244/246 248/242/248
f 245/243/245 243/245/243 244/246/244 246/244/246
f 243/245/243 241/247/241 242/248/242 244/246/244
f 241/247/241 239/249/239 240/250/240 242/248/242
f 239/249/239 237/251/237 238/252/238 240/250/240
f 237/251/237 235/253/235 236/254/236 238/252/238
f 235/253/235 233/255/233 234/256/234 236/254/236
f 233/255/233 231/257/231 232/258/232 234/256/234
f 231/257/231 229/259/229 230/260/230 232/258/232
f 229/259/229 227/261/227 228/262/228 230/260/230
f 227/261/227 226/263/226 225/264/225 228/262/228
f 69/165/69 71/160/71 228/262/228 225/264/225
f 221/10/221 69/9/69 225/202/225 288/201/288
f 1/265/1 226/263/226 227/261/227 3/266/3
f 63/267/63 287/200/287 226/199/226 1/268/1
f 71/160/71 76/155/76 230/260/230 228/262/228
f 3/266/3 227/261/227 229/259/229 5/269/5
f 76/155/76 81/150/81 232/258/232 230/260/230
f 5/269/5 229/259/229 231/257/231 7/270/7
f 81/150/81 86/145/86 234/256/234 232/258/232
f 7/270/7 231/257/231 233/255/233 9/271/9
f 86/145/86 91/140/91 236/254/236 234/256/234
f 9/271/9 233/255/233 235/253/235 11/272/11
f 91/140/91 96/135/96 238/252/238 236/254/236
f 11/272/11 235/253/235 237/251/237 13/273/13
f 96/135/96 101/130/101 240/250/240 238/252/238
f 13/273/13 237/251/237 239/249/239 15/274/15
f 101/130/101 106/125/106 242/248/242 240/250/240
f 15/274/15 239/249/239 241/247/241 17/275/17
f 106/125/106 111/120/111 244/246/244 242/248/242
f 17/275/17 241/247/241 243/245/243 19/276/19
f 111/120/111 116/115/116 246/244/246 244/246/244
f 19/276/19 243/245/243 245/243/245 21/277/21
f 116/115/116 121/110/121 248/242/248 246/244/246
f 21/277/21 245/243/245 247/241/247 23/278/23
f 121/110/121 126/105/126 250/240/250 248/242/248
f 23/278/23 247/241/247 249/239/249 25/279/25
f 126/105/126 131/100/131 252/238/252 250/240/250
f 25/279/25 249/239/249 251/237/251 27/280/27
f 131/100/131 136/95/136 254/236/254 252/238/252
f 27/280/27 251/237/251 253/235/253 29/281/29
f 136/95/136 141/90/141 256/234/256 254/236/254
f 29/281/29 253/235/253 255/233/255 31/282/31
f 141/90/141 146/85/146 258/232/258 256/234/256
f 31/282/31 255/233/255 257/231/257 33/283/33
f 146/85/146 151/80/151 260/230/260 258/232/258
f 33/283/33 257/231/257 259/229/259 35/284/35
f 151/80/151 156/75/156 262/228/262 260/230/260
f 35/284/35 259/229/259 261/227/261 37/285/37
f 156/75/156 161/70/161 264/226/264 262/228/262
f 37/285/37 261/227/261 263/225/263 39/286/39
f 161/70/161 166/65/166 266/224/266 264/226/264
f 39/286/39 263/225/263 265/223/265 41/287/41
f 166/65/166 171/60/171 268/222/268 266/224/266
f 41/287/41 265/223/265 267/221/267 43/288/43
f 171/60/171 176/55/176 270/220/270 268/222/268
f 43/288/43 267/221/267 269/219/269 45/289/45
f 176/55/176 181/50/181 272/218/272 270/220/270
f 45/289/45 269/219/269 271/217/271 47/290/47
f 181/50/181 186/45/186 274/216/274 272/218/272
f 47/290/47 271/217/271 273/215/273 49/291/49
f 186/45/186 191/40/191 276/214/276 274/216/274
f 49/291/49 273/215/273 275/213/275 51/292/51
f 191/40/191 196/35/196 278/212/278 276/214/276
f 51/292/51 275/213/275 277/211/277 53/293/53
f 196/35/196 201/30/201 280/210/280 278/212/278
f 53/293/53 277/211/277 279/209/279 55/294/55
f 201/30/201 206/25/206 282/208/282 280/210/280
f 55/294/55 279/209/279 281/207/281 57/295/57
f 206/25/206 211/20/211 284/206/284 282/208/282
f 57/295/57 281/207/281 283/205/283 59/296/59
f 211/20/211 216/15/216 286/204/286 284/206/284
f 59/296/59 283/205/283 285/203/285 61/297/61
f 216/15/216 221/10/221 288/201/288 286/204/286
f 61/297/61 285/203/285 287/200/287 63/267/63
