# Blender 5.0.1
# www.blender.org
o sm_windcurve1
v -11.698690 0.003138 -0.689972
v -11.717865 -0.003138 0.689972
v -10.346966 0.442712 -0.683310
v -10.360224 0.438397 0.696662
v -8.777530 0.736805 -0.678794
v -8.785512 0.733520 0.701195
v -7.018949 0.905011 -0.676142
v -7.022824 0.902144 0.703853
v -5.100095 0.966932 -0.675077
v -5.100952 0.964176 0.704920
v -3.049907 0.942233 -0.675319
v -3.048617 0.939458 0.704678
v -0.897317 0.850621 -0.676587
v -0.894555 0.847788 0.703410
v 1.328775 0.711831 -0.678600
v 1.332475 0.708941 0.701396
v 3.599493 0.545606 -0.681076
v 3.603684 0.542681 0.698919
v 5.885984 0.371695 -0.683736
v 5.890260 0.368764 0.696259
v 8.159417 0.209853 -0.686297
v 8.163377 0.206944 0.693698
v 10.390974 0.079838 -0.688478
v 10.394184 0.076970 0.691518
v 12.551815 0.001414 -0.689998
v 12.553862 -0.001414 0.689998
v -12.438065 0.553358 0.001959
v -10.978491 -0.553358 -0.001959
v -10.853341 1.070176 0.009790
v -9.853848 -0.189067 0.003562
v -9.076769 1.404699 0.014927
v -8.486273 0.065625 0.007475
v -7.157957 1.589209 0.017834
v -6.883817 0.217945 0.009877
v -5.122365 1.655431 0.018971
v -5.078682 0.275676 0.010871
v -2.990315 1.630029 0.018724
v -3.108210 0.251660 0.010635
v -0.782991 1.536237 0.017426
v -1.008881 0.162170 0.009396
v 1.476179 1.395458 0.015385
v 1.185069 0.025311 0.007412
v 3.761640 1.228183 0.012893
v 3.441535 -0.139900 0.004950
v 6.046049 1.054427 0.010235
v 5.730195 -0.313971 0.002288
v 8.300486 0.893899 0.007695
v 8.022309 -0.477105 -0.000294
v 10.494459 0.765988 0.005549
v 10.290700 -0.609182 -0.002510
v 12.599875 0.689477 0.004067
v 12.505802 -0.689477 -0.004067
vn -0.3093 0.9510 -0.0000
vn -0.2470 0.9690 0.0007
vn -0.2475 0.9689 0.0007
vn -0.1397 0.9902 0.0016
vn -0.1400 0.9902 0.0016
vn -0.0637 0.9980 0.0019
vn -0.0638 0.9980 0.0019
vn -0.0101 0.9999 0.0020
vn 0.0273 0.9996 0.0020
vn 0.0524 0.9986 0.0019
vn 0.0676 0.9977 0.0019
vn 0.0744 0.9972 0.0019
vn 0.0734 0.9973 0.0019
vn 0.0646 0.9979 0.0019
vn 0.0472 0.9989 0.0020
vn 0.0363 0.9993 0.0020
vn -0.0026 -0.0070 1.0000
vn -0.0023 -0.0068 1.0000
vn -0.0020 -0.0066 1.0000
vn -0.0014 -0.0062 1.0000
vn -0.0013 -0.0061 1.0000
vn -0.0007 -0.0059 1.0000
vn -0.0006 -0.0059 1.0000
vn -0.0002 -0.0059 1.0000
vn 0.0002 -0.0059 1.0000
vn 0.0004 -0.0059 1.0000
vn 0.0006 -0.0059 1.0000
vn 0.0007 -0.0060 1.0000
vn 0.0005 -0.0059 1.0000
vt 0.000000 1.000000
vt 0.083333 1.000000
vt 0.083333 0.000000
vt 0.000000 0.000000
vt 0.166667 1.000000
vt 0.166667 0.000000
vt 0.250000 1.000000
vt 0.250000 0.000000
vt 0.333333 1.000000
vt 0.333333 0.000000
vt 0.416667 1.000000
vt 0.416667 0.000000
vt 0.500000 1.000000
vt 0.500000 0.000000
vt 0.583333 1.000000
vt 0.583333 0.000000
vt 0.666667 1.000000
vt 0.666667 0.000000
vt 0.750000 1.000000
vt 0.750000 0.000000
vt 0.833333 1.000000
vt 0.833333 0.000000
vt 0.916667 1.000000
vt 0.916667 0.000000
vt 1.000000 1.000000
vt 1.000000 0.000000
s 1
f 2/1/1 4/2/3 3/3/2 1/4/1
f 4/2/3 6/5/5 5/6/4 3/3/2
f 6/5/5 8/7/7 7/8/6 5/6/4
f 8/7/7 10/9/8 9/10/8 7/8/6
f 10/9/8 12/11/9 11/12/9 9/10/8
f 12/11/9 14/13/10 13/14/10 11/12/9
f 14/13/10 16/15/11 15/16/11 13/14/10
f 16/15/11 18/17/12 17/18/12 15/16/11
f 18/17/12 20/19/13 19/20/13 17/18/12
f 20/19/13 22/21/14 21/22/14 19/20/13
f 22/21/14 24/23/15 23/24/15 21/22/14
f 24/23/15 26/25/16 25/26/16 23/24/15
f 28/1/17 30/2/19 29/3/18 27/4/17
f 30/2/19 32/5/21 31/6/20 29/3/18
f 32/5/21 34/7/23 33/8/22 31/6/20
f 34/7/23 36/9/24 35/10/24 33/8/22
f 36/9/24 38/11/25 37/12/25 35/10/24
f 38/11/25 40/13/26 39/14/26 37/12/25
f 40/13/26 42/15/27 41/16/27 39/14/26
f 42/15/27 44/17/28 43/18/28 41/16/27
f 44/17/28 46/19/28 45/20/28 43/18/28
f 46/19/28 48/21/28 47/22/28 45/20/28
f 48/21/28 50/23/27 49/24/27 47/22/28
f 50/23/27 52/25/29 51/26/29 49/24/27
