# Blender 5.1.2
# www.blender.org
o BézierCurve
v 0.872065 0.014816 0.443233
v -0.872065 0.014816 0.443233
v 0.967876 0.016129 0.303219
v -0.967876 0.016129 0.303219
v 1.055682 0.020713 0.174903
v -1.055682 0.020713 0.174903
v 1.135536 0.029534 0.058208
v -1.135536 0.029534 0.058208
v 1.207492 0.043560 -0.046944
v -1.207492 0.043560 -0.046944
v 1.271602 0.063757 -0.140631
v -1.271602 0.063757 -0.140631
v 1.327920 0.091092 -0.222932
v -1.327920 0.091092 -0.222932
v 1.376499 0.126532 -0.293923
v -1.376499 0.126532 -0.293923
v 1.417393 0.171044 -0.353683
v -1.417393 0.171044 -0.353683
v 1.450654 0.225594 -0.402290
v -1.450654 0.225594 -0.402290
v 1.476337 0.291150 -0.439822
v -1.476337 0.291150 -0.439822
v 1.494494 0.368677 -0.466355
v -1.494494 0.368677 -0.466355
v 1.505178 0.459144 -0.481969
v -1.505178 0.459144 -0.481969
v 1.505588 0.562347 -0.482567
v -1.505588 0.562347 -0.482567
v 1.494004 0.674755 -0.465640
v -1.494004 0.674755 -0.465640
v 1.472110 0.792349 -0.433644
v -1.472110 0.792349 -0.433644
v 1.441584 0.911108 -0.389035
v -1.441584 0.911108 -0.389035
v 1.404109 1.027012 -0.334271
v -1.404109 1.027012 -0.334271
v 1.361364 1.136039 -0.271806
v -1.361364 1.136039 -0.271806
v 1.315032 1.234168 -0.204098
v -1.315032 1.234168 -0.204098
v 1.266793 1.317380 -0.133604
v -1.266793 1.317380 -0.133604
v 1.218327 1.381653 -0.062779
v -1.218327 1.381653 -0.062779
v 1.171317 1.422967 0.005920
v -1.171317 1.422967 0.005920
v 1.127443 1.437300 0.070036
v -1.127443 1.437300 0.070036
v 1.088385 1.420633 0.127112
v -1.088385 1.420633 0.127112
v 0.256315 0.014816 -0.074796
v -0.256315 0.014816 -0.074796
v 0.268403 0.016393 -0.278381
v -0.268403 0.016393 -0.278381
v 0.278703 0.021899 -0.504492
v -0.278703 0.021899 -0.504492
v 0.285911 0.032495 -0.722692
v -0.285911 0.032495 -0.722692
v 0.289350 0.049343 -0.914359
v -0.289350 0.049343 -0.914359
v 0.287659 0.073604 -1.070139
v -0.287659 0.073604 -1.070139
v 0.283347 0.106439 -1.186152
v -0.283347 0.106439 -1.186152
v 0.275545 0.149009 -1.274556
v -0.275545 0.149009 -1.274556
v 0.268474 0.202477 -1.348797
v -0.268474 0.202477 -1.348797
v 0.261091 0.268003 -1.409301
v -0.261091 0.268003 -1.409301
v 0.257058 0.346748 -1.455662
v -0.257058 0.346748 -1.455662
v 0.253349 0.439875 -1.488531
v -0.253349 0.439875 -1.488531
v 0.252107 0.548544 -1.507719
v -0.252107 0.548544 -1.507719
v 0.252131 0.672510 -1.508444
v -0.252131 0.672510 -1.508444
v 0.251752 0.807535 -1.487898
v -0.251752 0.807535 -1.487898
v 0.255035 0.948790 -1.448451
v -0.255035 0.948790 -1.448451
v 0.257088 1.091443 -1.393793
v -0.257088 1.091443 -1.393793
v 0.258001 1.230667 -1.326899
v -0.258001 1.230667 -1.326899
v 0.257863 1.361630 -1.250749
v -0.257863 1.361630 -1.250749
v 0.258652 1.479503 -1.167974
v -0.258652 1.479503 -1.167974
v 0.260669 1.579457 -1.081451
v -0.260669 1.579457 -1.081451
v 0.261508 1.656662 -0.994620
v -0.261508 1.656662 -0.994620
v 0.263638 1.706288 -0.909938
v -0.263638 1.706288 -0.909938
v 0.266353 1.723505 -0.830506
v -0.266353 1.723505 -0.830506
v 0.271558 1.703485 -0.758775
v -0.271558 1.703485 -0.758775
v 0.482149 0.014816 0.005098
v 0.692599 0.014816 0.172236
v -0.692599 0.014816 0.172236
v -0.482149 0.014816 0.005098
v 0.801003 0.016277 0.036710
v 0.544785 0.016393 -0.142404
v -0.544785 0.016393 -0.142404
v -0.801003 0.016277 0.036710
v 0.898137 0.021377 -0.102921
v 0.600862 0.021899 -0.337113
v -0.600862 0.021899 -0.337113
v -0.898137 0.021377 -0.102921
v 0.984045 0.031192 -0.242627
v 0.648965 0.032495 -0.534275
v -0.648965 0.032495 -0.534275
v -0.984045 0.031192 -0.242627
v 1.059049 0.046798 -0.370958
v 0.689311 0.049343 -0.717095
v -0.689311 0.049343 -0.717095
v -1.059049 0.046798 -0.370958
v 1.121487 0.069271 -0.487449
v 0.718646 0.073604 -0.875171
v -0.718646 0.073604 -0.875171
v -1.121487 0.069271 -0.487449
v 1.170912 0.099686 -0.598066
v 0.737565 0.106439 -1.002030
v -0.737565 0.106439 -1.002030
v -1.170912 0.099686 -0.598066
v 1.208167 0.139118 -0.701652
v 0.748125 0.149009 -1.098639
v -0.748125 0.149009 -1.098639
v -1.208167 0.139118 -0.701652
v 1.233420 0.188645 -0.798467
v 0.750572 0.202477 -1.183664
v -0.750572 0.202477 -1.183664
v -1.233420 0.188645 -0.798467
v 1.251961 0.249341 -0.877205
v 0.751539 0.268003 -1.255404
v -0.751539 0.268003 -1.255404
v -1.251961 0.249341 -0.877205
v 1.265779 0.322282 -0.936529
v 0.752654 0.346748 -1.314702
v -0.752654 0.346748 -1.314702
v -1.265779 0.322282 -0.936529
v 1.272491 0.408544 -0.982570
v 0.749245 0.439875 -1.361572
v -0.749245 0.439875 -1.361572
v -1.272491 0.408544 -0.982570
v 1.280157 0.509204 -1.003525
v 0.754118 0.548544 -1.385462
v -0.754118 0.548544 -1.385462
v -1.280157 0.509204 -1.003525
v 1.279815 0.624033 -1.006329
v 0.754735 0.672510 -1.386134
v -0.754735 0.672510 -1.386134
v -1.279815 0.624033 -1.006329
v 1.269694 0.749106 -0.988974
v 0.749911 0.807535 -1.364242
v -0.749911 0.807535 -1.364242
v -1.269694 0.749106 -0.988974
v 1.253224 0.879948 -0.950768
v 0.744200 0.948790 -1.320994
v -0.744200 0.948790 -1.320994
v -1.253224 0.879948 -0.950768
v 1.232306 1.012087 -0.892810
v 0.739440 1.091443 -1.260478
v -0.739440 1.091443 -1.260478
v -1.232306 1.012087 -0.892810
v 1.204208 1.141049 -0.823898
v 0.729832 1.230667 -1.187664
v -0.729832 1.230667 -1.187664
v -1.204208 1.141049 -0.823898
v 1.170186 1.262359 -0.746521
v 0.716005 1.361630 -1.105015
v -0.716005 1.361630 -1.105015
v -1.170186 1.262359 -0.746521
v 1.131520 1.371544 -0.663218
v 0.698608 1.479503 -1.014683
v -0.698608 1.479503 -1.014683
v -1.131520 1.371544 -0.663218
v 1.089928 1.464131 -0.575630
v 0.678891 1.579457 -0.913609
v -0.678891 1.579457 -0.913609
v -1.089928 1.464131 -0.575630
v 1.048536 1.535645 -0.481041
v 0.660755 1.656662 -0.815095
v -0.660755 1.656662 -0.815095
v -1.048536 1.535645 -0.481041
v 1.008197 1.581613 -0.381506
v 0.644208 1.706288 -0.728845
v -0.644208 1.706288 -0.728845
v -1.008197 1.581613 -0.381506
v 0.968174 1.597561 -0.288014
v 0.625945 1.723505 -0.656141
v -0.625945 1.723505 -0.656141
v -0.968174 1.597561 -0.288014
v 0.931072 1.579016 -0.205184
v 0.611350 1.703485 -0.594042
v -0.611350 1.703485 -0.594042
v -0.931072 1.579016 -0.205184
vn 0.0071 -1.0000 -0.0048
vn -0.0071 -1.0000 -0.0048
vn 0.0144 -0.9999 -0.0095
vn -0.0144 -0.9999 -0.0095
vn 0.0380 -0.9990 -0.0237
vn -0.0380 -0.9990 -0.0237
vn 0.0746 -0.9963 -0.0431
vn -0.0746 -0.9963 -0.0431
vn 0.1301 -0.9890 -0.0698
vn -0.1301 -0.9890 -0.0698
vn 0.2093 -0.9721 -0.1061
vn -0.2093 -0.9721 -0.1061
vn 0.3150 -0.9366 -0.1532
vn -0.3150 -0.9366 -0.1532
vn 0.4478 -0.8687 -0.2114
vn -0.4478 -0.8687 -0.2114
vn 0.5959 -0.7542 -0.2759
vn -0.5959 -0.7542 -0.2759
vn 0.7318 -0.5936 -0.3348
vn -0.7318 -0.5936 -0.3348
vn 0.8296 -0.4123 -0.3765
vn -0.8296 -0.4123 -0.3765
vn 0.8843 -0.2450 -0.3974
vn -0.8843 -0.2450 -0.3974
vn 0.9115 -0.0922 -0.4009
vn -0.9115 -0.0922 -0.4009
vn 0.9196 0.0632 -0.3877
vn -0.9196 0.0632 -0.3877
vn 0.9125 0.1887 -0.3629
vn -0.9125 0.1887 -0.3629
vn 0.9012 0.2773 -0.3330
vn -0.9012 0.2773 -0.3330
vn 0.8887 0.3477 -0.2987
vn -0.8887 0.3477 -0.2987
vn 0.8742 0.4095 -0.2609
vn -0.8742 0.4095 -0.2609
vn 0.8563 0.4674 -0.2199
vn -0.8563 0.4674 -0.2199
vn 0.8315 0.5277 -0.1739
vn -0.8315 0.5277 -0.1739
vn 0.7942 0.5959 -0.1189
vn -0.7942 0.5959 -0.1189
vn 0.7310 0.6809 -0.0445
vn -0.7310 0.6809 -0.0445
vn 0.6026 0.7947 0.0735
vn -0.6026 0.7947 0.0735
vn 0.3182 0.9092 0.2687
vn -0.3182 0.9092 0.2687
vn 0.1929 0.9216 0.3369
vn -0.1929 0.9216 0.3369
vn 0.0019 -1.0000 -0.0080
vn -0.0019 -1.0000 -0.0080
vn 0.0045 -0.9998 -0.0173
vn -0.0045 -0.9998 -0.0173
vn 0.0102 -0.9992 -0.0380
vn -0.0102 -0.9992 -0.0380
vn 0.0183 -0.9974 -0.0699
vn -0.0183 -0.9974 -0.0699
vn 0.0301 -0.9920 -0.1227
vn -0.0301 -0.9920 -0.1227
vn 0.0476 -0.9757 -0.2141
vn -0.0476 -0.9757 -0.2141
vn 0.0715 -0.9327 -0.3536
vn -0.0715 -0.9327 -0.3536
vn 0.0915 -0.8579 -0.5055
vn -0.0915 -0.8579 -0.5055
vn 0.1079 -0.7501 -0.6525
vn -0.1079 -0.7501 -0.6525
vn 0.1167 -0.6056 -0.7872
vn -0.1167 -0.6056 -0.7872
vn 0.1212 -0.4402 -0.8897
vn -0.1212 -0.4402 -0.8897
vn 0.1195 -0.2693 -0.9556
vn -0.1195 -0.2693 -0.9556
vn 0.1187 -0.0950 -0.9884
vn -0.1187 -0.0950 -0.9884
vn 0.1187 0.0738 -0.9902
vn -0.1187 0.0738 -0.9902
vn 0.1178 0.2133 -0.9699
vn -0.1178 0.2133 -0.9699
vn 0.1204 0.3182 -0.9403
vn -0.1204 0.3182 -0.9403
vn 0.1228 0.4013 -0.9077
vn -0.1228 0.4013 -0.9077
vn 0.1254 0.4747 -0.8712
vn -0.1254 0.4747 -0.8712
vn 0.1274 0.5463 -0.8278
vn -0.1274 0.5463 -0.8278
vn 0.1292 0.6249 -0.7700
vn -0.1292 0.6249 -0.7700
vn 0.1301 0.7114 -0.6906
vn -0.1301 0.7114 -0.6906
vn 0.1212 0.8081 -0.5764
vn -0.1212 0.8081 -0.5764
vn 0.0890 0.9231 -0.3742
vn -0.0890 0.9231 -0.3742
vn 0.0104 0.9999 -0.0032
vn -0.0104 0.9999 -0.0032
vn -0.0776 0.9588 0.2733
vn 0.0776 0.9588 0.2733
vn 0.0045 -1.0000 -0.0079
vn 0.0063 -1.0000 -0.0061
vn -0.0063 -1.0000 -0.0061
vn -0.0045 -1.0000 -0.0079
vn 0.0153 -0.9998 -0.0143
vn 0.0099 -0.9998 -0.0164
vn -0.0099 -0.9998 -0.0164
vn -0.0153 -0.9998 -0.0143
vn 0.0366 -0.9988 -0.0317
vn 0.0232 -0.9991 -0.0362
vn -0.0232 -0.9991 -0.0362
vn -0.0366 -0.9988 -0.0317
vn 0.0702 -0.9960 -0.0561
vn 0.0441 -0.9969 -0.0655
vn -0.0441 -0.9969 -0.0655
vn -0.0702 -0.9960 -0.0561
vn 0.1219 -0.9883 -0.0912
vn 0.0764 -0.9908 -0.1118
vn -0.0764 -0.9908 -0.1118
vn -0.1219 -0.9883 -0.0912
vn 0.1952 -0.9705 -0.1412
vn 0.1233 -0.9747 -0.1863
vn -0.1233 -0.9747 -0.1863
vn -0.1952 -0.9705 -0.1412
vn 0.2916 -0.9330 -0.2110
vn 0.1844 -0.9359 -0.3002
vn -0.1844 -0.9359 -0.3002
vn -0.2916 -0.9330 -0.2110
vn 0.4035 -0.8650 -0.2981
vn 0.2446 -0.8684 -0.4314
vn -0.2446 -0.8684 -0.4314
vn -0.4035 -0.8650 -0.2981
vn 0.5136 -0.7607 -0.3969
vn 0.2974 -0.7681 -0.5671
vn -0.2974 -0.7681 -0.5671
vn -0.5136 -0.7607 -0.3969
vn 0.6127 -0.6168 -0.4942
vn 0.3440 -0.6311 -0.6953
vn -0.3440 -0.6311 -0.6953
vn -0.6127 -0.6168 -0.4942
vn 0.6912 -0.4483 -0.5668
vn 0.3792 -0.4714 -0.7963
vn -0.3792 -0.4714 -0.7963
vn -0.6912 -0.4483 -0.5668
vn 0.7324 -0.2786 -0.6213
vn 0.3940 -0.2926 -0.8713
vn -0.3940 -0.2926 -0.8713
vn -0.7324 -0.2786 -0.6213
vn 0.7683 -0.0996 -0.6322
vn 0.4132 -0.1031 -0.9048
vn -0.4132 -0.1031 -0.9048
vn -0.7683 -0.0996 -0.6322
vn 0.7787 0.0707 -0.6234
vn 0.4194 0.0755 -0.9046
vn -0.4194 0.0755 -0.9046
vn -0.7787 0.0707 -0.6234
vn 0.7738 0.2082 -0.5983
vn 0.4178 0.2196 -0.8816
vn -0.4178 0.2196 -0.8816
vn -0.7738 0.2082 -0.5983
vn 0.7664 0.3084 -0.5634
vn 0.4184 0.3269 -0.8474
vn -0.4184 0.3269 -0.8474
vn -0.7664 0.3084 -0.5634
vn 0.7622 0.3860 -0.5196
vn 0.4239 0.4111 -0.8071
vn -0.4239 0.4111 -0.8071
vn -0.7622 0.3860 -0.5196
vn 0.7543 0.4537 -0.4745
vn 0.4276 0.4848 -0.7630
vn -0.4276 0.4848 -0.7630
vn -0.7543 0.4537 -0.4745
vn 0.7432 0.5173 -0.4243
vn 0.4297 0.5562 -0.7114
vn -0.4297 0.5562 -0.7114
vn -0.7432 0.5173 -0.4243
vn 0.7241 0.5850 -0.3653
vn 0.4259 0.6354 -0.6440
vn -0.4259 0.6354 -0.6440
vn -0.7241 0.5850 -0.3653
vn 0.6930 0.6573 -0.2962
vn 0.4161 0.7181 -0.5579
vn -0.4161 0.7181 -0.5579
vn -0.6930 0.6573 -0.2962
vn 0.6456 0.7361 -0.2035
vn 0.3905 0.8047 -0.4472
vn -0.3905 0.8047 -0.4472
vn -0.6456 0.7361 -0.2035
vn 0.5470 0.8351 -0.0579
vn 0.3131 0.9127 -0.2626
vn -0.3131 0.9127 -0.2626
vn -0.5470 0.8351 -0.0579
vn 0.3134 0.9339 0.1721
vn 0.1234 0.9905 0.0605
vn -0.1234 0.9905 0.0605
vn -0.3134 0.9339 0.1721
vn 0.1477 0.9367 0.3176
vn -0.0188 0.9611 0.2754
vn 0.0188 0.9611 0.2754
vn -0.1477 0.9367 0.3176
vt 0.958333 0.600000
vt 1.000000 0.600000
vt 1.000000 0.400000
vt 0.958333 0.400000
vt 0.916667 0.600000
vt 0.916667 0.400000
vt 0.875000 0.600000
vt 0.875000 0.400000
vt 0.833333 0.600000
vt 0.833333 0.400000
vt 0.791667 0.600000
vt 0.791667 0.400000
vt 0.750000 0.600000
vt 0.750000 0.400000
vt 0.708333 0.600000
vt 0.708333 0.400000
vt 0.666667 0.600000
vt 0.666667 0.400000
vt 0.625000 0.600000
vt 0.625000 0.400000
vt 0.583333 0.600000
vt 0.583333 0.400000
vt 0.541667 0.600000
vt 0.541667 0.400000
vt 0.500000 0.600000
vt 0.500000 0.400000
vt 0.458333 0.600000
vt 0.458333 0.400000
vt 0.416667 0.600000
vt 0.416667 0.400000
vt 0.375000 0.600000
vt 0.375000 0.400000
vt 0.333333 0.600000
vt 0.333333 0.400000
vt 0.291667 0.600000
vt 0.291667 0.400000
vt 0.250000 0.600000
vt 0.250000 0.400000
vt 0.208333 0.600000
vt 0.208333 0.400000
vt 0.166667 0.600000
vt 0.166667 0.400000
vt 0.125000 0.600000
vt 0.125000 0.400000
vt 0.083333 0.600000
vt 0.083333 0.400000
vt 0.041667 0.600000
vt 0.041667 0.400000
vt 0.000000 0.600000
vt 0.000000 0.400000
vt 1.000000 0.716131
vt 0.958333 0.718528
vt 0.958333 0.914195
vt 1.000000 0.923135
vt 1.000000 0.076865
vt 0.958333 0.085805
vt 0.958333 0.281472
vt 1.000000 0.283869
vt 0.916667 0.721016
vt 0.916667 0.904189
vt 0.916667 0.095810
vt 0.916667 0.278984
vt 0.875000 0.723080
vt 0.875000 0.894704
vt 0.875000 0.105296
vt 0.875000 0.276920
vt 0.833333 0.725065
vt 0.833333 0.887337
vt 0.833333 0.112663
vt 0.833333 0.274935
vt 0.791667 0.727215
vt 0.791667 0.881700
vt 0.791667 0.118300
vt 0.791667 0.272785
vt 0.750000 0.728881
vt 0.750000 0.876927
vt 0.750000 0.123073
vt 0.750000 0.271119
vt 0.708333 0.730042
vt 0.708333 0.872872
vt 0.708333 0.127128
vt 0.708333 0.269958
vt 0.666667 0.730866
vt 0.666667 0.869513
vt 0.666667 0.130487
vt 0.666667 0.269134
vt 0.625000 0.731335
vt 0.625000 0.866830
vt 0.625000 0.133170
vt 0.625000 0.268665
vt 0.583333 0.732021
vt 0.583333 0.865374
vt 0.583333 0.134626
vt 0.583333 0.267979
vt 0.541667 0.732345
vt 0.541667 0.865015
vt 0.541667 0.134985
vt 0.541667 0.267655
vt 0.500000 0.732217
vt 0.500000 0.865538
vt 0.500000 0.134462
vt 0.500000 0.267783
vt 0.458333 0.731594
vt 0.458333 0.866975
vt 0.458333 0.133025
vt 0.458333 0.268406
vt 0.416667 0.731565
vt 0.416667 0.870342
vt 0.416667 0.129658
vt 0.416667 0.268435
vt 0.375000 0.731123
vt 0.375000 0.874712
vt 0.375000 0.125288
vt 0.375000 0.268877
vt 0.333333 0.730458
vt 0.333333 0.881024
vt 0.333333 0.118977
vt 0.333333 0.269542
vt 0.291667 0.729791
vt 0.291667 0.889414
vt 0.291667 0.110586
vt 0.291667 0.270209
vt 0.250000 0.728412
vt 0.250000 0.898168
vt 0.250000 0.101832
vt 0.250000 0.271588
vt 0.208333 0.726576
vt 0.208333 0.907055
vt 0.208333 0.092945
vt 0.208333 0.273424
vt 0.166667 0.723813
vt 0.166667 0.915368
vt 0.166667 0.084632
vt 0.166667 0.276187
vt 0.125000 0.720028
vt 0.125000 0.923052
vt 0.125000 0.076948
vt 0.125000 0.279972
vt 0.083333 0.715159
vt 0.083333 0.931609
vt 0.083333 0.068391
vt 0.083333 0.284841
vt 0.041667 0.708663
vt 0.041667 0.941120
vt 0.041667 0.058880
vt 0.041667 0.291337
vt 0.000000 0.699870
vt 0.000000 0.952607
vt 0.000000 0.047393
vt 0.000000 0.300130
vt 0.041667 0.000000
vt 0.000000 0.000000
vt 0.000000 1.000000
vt 0.041667 1.000000
vt 0.083333 0.000000
vt 0.083333 1.000000
vt 0.125000 0.000000
vt 0.125000 1.000000
vt 0.166667 0.000000
vt 0.166667 1.000000
vt 0.208333 0.000000
vt 0.208333 1.000000
vt 0.250000 0.000000
vt 0.250000 1.000000
vt 0.291667 0.000000
vt 0.291667 1.000000
vt 0.333333 0.000000
vt 0.333333 1.000000
vt 0.375000 0.000000
vt 0.375000 1.000000
vt 0.416667 0.000000
vt 0.416667 1.000000
vt 0.458333 0.000000
vt 0.458333 1.000000
vt 0.500000 0.000000
vt 0.500000 1.000000
vt 0.541667 0.000000
vt 0.541667 1.000000
vt 0.583333 0.000000
vt 0.583333 1.000000
vt 0.625000 0.000000
vt 0.625000 1.000000
vt 0.666667 0.000000
vt 0.666667 1.000000
vt 0.708333 0.000000
vt 0.708333 1.000000
vt 0.750000 0.000000
vt 0.750000 1.000000
vt 0.791667 0.000000
vt 0.791667 1.000000
vt 0.833333 0.000000
vt 0.833333 1.000000
vt 0.875000 0.000000
vt 0.875000 1.000000
vt 0.916667 0.000000
vt 0.916667 1.000000
vt 0.958333 0.000000
vt 0.958333 1.000000
vt 1.000000 0.000000
vt 1.000000 1.000000
s 1
f 98/1/98 100/2/100 99/3/99 97/4/97
f 96/5/96 98/1/98 97/4/97 95/6/95
f 94/7/94 96/5/96 95/6/95 93/8/93
f 92/9/92 94/7/94 93/8/93 91/10/91
f 90/11/90 92/9/92 91/10/91 89/12/89
f 88/13/88 90/11/90 89/12/89 87/14/87
f 86/15/86 88/13/88 87/14/87 85/16/85
f 84/17/84 86/15/86 85/16/85 83/18/83
f 82/19/82 84/17/84 83/18/83 81/20/81
f 80/21/80 82/19/82 81/20/81 79/22/79
f 78/23/78 80/21/80 79/22/79 77/24/77
f 76/25/76 78/23/78 77/24/77 75/26/75
f 74/27/74 76/25/76 75/26/75 73/28/73
f 72/29/72 74/27/74 73/28/73 71/30/71
f 70/31/70 72/29/72 71/30/71 69/32/69
f 68/33/68 70/31/70 69/32/69 67/34/67
f 66/35/66 68/33/68 67/34/67 65/36/65
f 64/37/64 66/35/66 65/36/65 63/38/63
f 62/39/62 64/37/64 63/38/63 61/40/61
f 60/41/60 62/39/62 61/40/61 59/42/59
f 58/43/58 60/41/60 59/42/59 57/44/57
f 56/45/56 58/43/58 57/44/57 55/46/55
f 54/47/54 56/45/56 55/46/55 53/48/53
f 52/49/52 54/47/54 53/48/53 51/50/51
f 199/51/199 195/52/195 196/53/196 200/54/200
f 197/55/197 193/56/193 194/57/194 198/58/198
f 195/52/195 191/59/191 192/60/192 196/53/196
f 193/56/193 189/61/189 190/62/190 194/57/194
f 191/59/191 187/63/187 188/64/188 192/60/192
f 189/61/189 185/65/185 186/66/186 190/62/190
f 187/63/187 183/67/183 184/68/184 188/64/188
f 185/65/185 181/69/181 182/70/182 186/66/186
f 183/67/183 179/71/179 180/72/180 184/68/184
f 181/69/181 177/73/177 178/74/178 182/70/182
f 179/71/179 175/75/175 176/76/176 180/72/180
f 177/73/177 173/77/173 174/78/174 178/74/178
f 175/75/175 171/79/171 172/80/172 176/76/176
f 173/77/173 169/81/169 170/82/170 174/78/174
f 171/79/171 167/83/167 168/84/168 172/80/172
f 169/81/169 165/85/165 166/86/166 170/82/170
f 167/83/167 163/87/163 164/88/164 168/84/168
f 165/85/165 161/89/161 162/90/162 166/86/166
f 163/87/163 159/91/159 160/92/160 164/88/164
f 161/89/161 157/93/157 158/94/158 162/90/162
f 159/91/159 155/95/155 156/96/156 160/92/160
f 157/93/157 153/97/153 154/98/154 158/94/158
f 155/95/155 151/99/151 152/100/152 156/96/156
f 153/97/153 149/101/149 150/102/150 154/98/154
f 151/99/151 147/103/147 148/104/148 152/100/152
f 149/101/149 145/105/145 146/106/146 150/102/150
f 147/103/147 143/107/143 144/108/144 148/104/148
f 145/105/145 141/109/141 142/110/142 146/106/146
f 143/107/143 139/111/139 140/112/140 144/108/144
f 141/109/141 137/113/137 138/114/138 142/110/142
f 139/111/139 135/115/135 136/116/136 140/112/140
f 137/113/137 133/117/133 134/118/134 138/114/138
f 135/115/135 131/119/131 132/120/132 136/116/136
f 133/117/133 129/121/129 130/122/130 134/118/134
f 131/119/131 127/123/127 128/124/128 132/120/132
f 129/121/129 125/125/125 126/126/126 130/122/130
f 127/123/127 123/127/123 124/128/124 128/124/128
f 125/125/125 121/129/121 122/130/122 126/126/126
f 123/127/123 119/131/119 120/132/120 124/128/124
f 121/129/121 117/133/117 118/134/118 122/130/122
f 119/131/119 115/135/115 116/136/116 120/132/120
f 117/133/117 113/137/113 114/138/114 118/134/118
f 115/135/115 111/139/111 112/140/112 116/136/116
f 113/137/113 109/141/109 110/142/110 114/138/114
f 111/139/111 107/143/107 108/144/108 112/140/112
f 109/141/109 105/145/105 106/146/106 110/142/110
f 107/143/107 104/147/104 103/148/103 108/144/108
f 105/145/105 102/149/102 101/150/101 106/146/106
f 102/149/102 105/145/105 3/151/3 1/152/1
f 51/50/51 53/48/53 106/146/106 101/150/101
f 2/153/2 4/154/4 108/144/108 103/148/103
f 104/147/104 107/143/107 54/47/54 52/49/52
f 105/145/105 109/141/109 5/155/5 3/151/3
f 53/48/53 55/46/55 110/142/110 106/146/106
f 4/154/4 6/156/6 112/140/112 108/144/108
f 107/143/107 111/139/111 56/45/56 54/47/54
f 109/141/109 113/137/113 7/157/7 5/155/5
f 55/46/55 57/44/57 114/138/114 110/142/110
f 6/156/6 8/158/8 116/136/116 112/140/112
f 111/139/111 115/135/115 58/43/58 56/45/56
f 113/137/113 117/133/117 9/159/9 7/157/7
f 57/44/57 59/42/59 118/134/118 114/138/114
f 8/158/8 10/160/10 120/132/120 116/136/116
f 115/135/115 119/131/119 60/41/60 58/43/58
f 117/133/117 121/129/121 11/161/11 9/159/9
f 59/42/59 61/40/61 122/130/122 118/134/118
f 10/160/10 12/162/12 124/128/124 120/132/120
f 119/131/119 123/127/123 62/39/62 60/41/60
f 121/129/121 125/125/125 13/163/13 11/161/11
f 61/40/61 63/38/63 126/126/126 122/130/122
f 12/162/12 14/164/14 128/124/128 124/128/124
f 123/127/123 127/123/127 64/37/64 62/39/62
f 125/125/125 129/121/129 15/165/15 13/163/13
f 63/38/63 65/36/65 130/122/130 126/126/126
f 14/164/14 16/166/16 132/120/132 128/124/128
f 127/123/127 131/119/131 66/35/66 64/37/64
f 129/121/129 133/117/133 17/167/17 15/165/15
f 65/36/65 67/34/67 134/118/134 130/122/130
f 16/166/16 18/168/18 136/116/136 132/120/132
f 131/119/131 135/115/135 68/33/68 66/35/66
f 133/117/133 137/113/137 19/169/19 17/167/17
f 67/34/67 69/32/69 138/114/138 134/118/134
f 18/168/18 20/170/20 140/112/140 136/116/136
f 135/115/135 139/111/139 70/31/70 68/33/68
f 137/113/137 141/109/141 21/171/21 19/169/19
f 69/32/69 71/30/71 142/110/142 138/114/138
f 20/170/20 22/172/22 144/108/144 140/112/140
f 139/111/139 143/107/143 72/29/72 70/31/70
f 141/109/141 145/105/145 23/173/23 21/171/21
f 71/30/71 73/28/73 146/106/146 142/110/142
f 22/172/22 24/174/24 148/104/148 144/108/144
f 143/107/143 147/103/147 74/27/74 72/29/72
f 145/105/145 149/101/149 25/175/25 23/173/23
f 73/28/73 75/26/75 150/102/150 146/106/146
f 24/174/24 26/176/26 152/100/152 148/104/148
f 147/103/147 151/99/151 76/25/76 74/27/74
f 149/101/149 153/97/153 27/177/27 25/175/25
f 75/26/75 77/24/77 154/98/154 150/102/150
f 26/176/26 28/178/28 156/96/156 152/100/152
f 151/99/151 155/95/155 78/23/78 76/25/76
f 153/97/153 157/93/157 29/179/29 27/177/27
f 77/24/77 79/22/79 158/94/158 154/98/154
f 28/178/28 30/180/30 160/92/160 156/96/156
f 155/95/155 159/91/159 80/21/80 78/23/78
f 157/93/157 161/89/161 31/181/31 29/179/29
f 79/22/79 81/20/81 162/90/162 158/94/158
f 30/180/30 32/182/32 164/88/164 160/92/160
f 159/91/159 163/87/163 82/19/82 80/21/80
f 161/89/161 165/85/165 33/183/33 31/181/31
f 81/20/81 83/18/83 166/86/166 162/90/162
f 32/182/32 34/184/34 168/84/168 164/88/164
f 163/87/163 167/83/167 84/17/84 82/19/82
f 165/85/165 169/81/169 35/185/35 33/183/33
f 83/18/83 85/16/85 170/82/170 166/86/166
f 34/184/34 36/186/36 172/80/172 168/84/168
f 167/83/167 171/79/171 86/15/86 84/17/84
f 169/81/169 173/77/173 37/187/37 35/185/35
f 85/16/85 87/14/87 174/78/174 170/82/170
f 36/186/36 38/188/38 176/76/176 172/80/172
f 171/79/171 175/75/175 88/13/88 86/15/86
f 173/77/173 177/73/177 39/189/39 37/187/37
f 87/14/87 89/12/89 178/74/178 174/78/174
f 38/188/38 40/190/40 180/72/180 176/76/176
f 175/75/175 179/71/179 90/11/90 88/13/88
f 177/73/177 181/69/181 41/191/41 39/189/39
f 89/12/89 91/10/91 182/70/182 178/74/178
f 40/190/40 42/192/42 184/68/184 180/72/180
f 179/71/179 183/67/183 92/9/92 90/11/90
f 181/69/181 185/65/185 43/193/43 41/191/41
f 91/10/91 93/8/93 186/66/186 182/70/182
f 42/192/42 44/194/44 188/64/188 184/68/184
f 183/67/183 187/63/187 94/7/94 92/9/92
f 185/65/185 189/61/189 45/195/45 43/193/43
f 93/8/93 95/6/95 190/62/190 186/66/186
f 44/194/44 46/196/46 192/60/192 188/64/188
f 187/63/187 191/59/191 96/5/96 94/7/94
f 189/61/189 193/56/193 47/197/47 45/195/45
f 95/6/95 97/4/97 194/57/194 190/62/190
f 46/196/46 48/198/48 196/53/196 192/60/192
f 191/59/191 195/52/195 98/1/98 96/5/96
f 193/56/193 197/55/197 49/199/49 47/197/47
f 97/4/97 99/3/99 198/58/198 194/57/194
f 48/198/48 50/200/50 200/54/200 196/53/196
f 195/52/195 199/51/199 100/2/100 98/1/98
