# Blender 5.1.2
# www.blender.org
o Cylinder
v 0.279199 0.000000 -0.960233
v 1.009654 2.000000 1.232897
v 0.461167 0.000000 -0.887313
v 0.749728 2.000000 1.406181
v 0.625412 0.000000 -0.780295
v 0.460989 2.000000 1.525426
v 0.765623 0.000000 -0.643290
v 0.154536 2.000000 1.586050
v 0.876411 0.000000 -0.481564
v -0.157856 2.000000 1.585723
v 0.953520 0.000000 -0.301331
v -0.464183 2.000000 1.524457
v 0.993985 0.000000 -0.109519
v -0.752670 2.000000 1.404608
v 0.996252 0.000000 0.086502
v -1.012233 2.000000 1.230780
v 0.960233 0.000000 0.279199
v -1.232897 2.000000 1.009654
v 0.887313 0.000000 0.461167
v -1.406181 2.000000 0.749728
v 0.780295 0.000000 0.625412
v -1.525426 2.000000 0.460990
v 0.643290 0.000000 0.765623
v -1.586050 2.000000 0.154536
v 0.481564 0.000000 0.876411
v -1.585723 2.000000 -0.157856
v 0.301331 0.000000 0.953520
v -1.524457 2.000000 -0.464182
v 0.109519 0.000000 0.993985
v -1.404608 2.000000 -0.752670
v -0.086502 0.000000 0.996252
v -1.230780 2.000000 -1.012233
v -0.279199 0.000000 0.960233
v -1.009654 2.000000 -1.232897
v -0.461167 0.000000 0.887313
v -0.749728 2.000000 -1.406181
v -0.625412 0.000000 0.780295
v -0.460990 2.000000 -1.525426
v -0.765623 0.000000 0.643290
v -0.154536 2.000000 -1.586050
v -0.876411 0.000000 0.481564
v 0.157856 2.000000 -1.585723
v -0.953520 0.000000 0.301331
v 0.464182 2.000000 -1.524457
v -0.993985 0.000000 0.109519
v 0.752670 2.000000 -1.404608
v -0.996252 0.000000 -0.086502
v 1.012233 2.000000 -1.230780
v -0.960233 0.000000 -0.279199
v 1.232897 2.000000 -1.009654
v -0.887313 0.000000 -0.461167
v 1.406181 2.000000 -0.749728
v -0.780295 0.000000 -0.625412
v 1.525426 2.000000 -0.460989
v -0.643290 0.000000 -0.765623
v 1.586050 2.000000 -0.154536
v -0.481564 0.000000 -0.876411
v 1.585723 2.000000 0.157856
v -0.301331 0.000000 -0.953520
v 1.524457 2.000000 0.464183
v -0.109519 0.000000 -0.993985
v 1.404608 2.000000 0.752670
v 0.086502 0.000000 -0.996252
v 1.230780 2.000000 1.012233
v 0.565599 0.250000 -0.913232
v 0.844384 0.500000 -0.778342
v 1.088260 0.750000 -0.557139
v 1.270515 1.000000 -0.259674
v 1.367623 1.250000 0.095820
v 1.361714 1.500000 0.483997
v 1.242674 1.750000 0.874205
v 1.048247 1.750000 1.099841
v 1.241126 1.500000 0.740354
v 1.322651 1.250000 0.360789
v 1.296762 1.000000 -0.006819
v 1.176042 0.750000 -0.334125
v 0.980006 0.500000 -0.598655
v 0.732894 0.250000 -0.785342
v 0.813537 1.750000 1.283211
v 1.072842 1.500000 0.968260
v 1.226850 1.250000 0.611893
v 1.273176 1.000000 0.246298
v 1.218629 0.750000 -0.098270
v 1.077968 0.500000 -0.395962
v 0.872024 0.250000 -0.627271
v 0.547563 1.750000 1.417268
v 0.863329 1.500000 1.158956
v 1.083902 1.250000 0.839482
v 1.200662 1.000000 0.489949
v 1.214386 0.750000 0.141361
v 1.134503 0.500000 -0.178053
v 0.977643 0.250000 -0.445095
v 0.260546 1.750000 1.496859
v 0.620640 1.500000 1.305115
v 0.899300 1.250000 1.034810
v 1.082007 1.000000 0.714773
v 1.163473 0.750000 0.375559
v 1.147440 0.500000 0.046699
v 1.045691 0.250000 -0.245814
v -0.036483 1.750000 1.518928
v 0.354099 1.500000 1.401118
v 0.680139 1.250000 1.190372
v 0.921771 1.000000 0.912127
v 1.067850 0.750000 0.595325
v 1.116282 0.500000 0.269656
v 1.073555 0.250000 -0.037086
v -0.332110 1.750000 1.482625
v 0.073951 1.500000 1.443277
v 0.434841 1.250000 1.300187
v 0.726113 1.000000 1.074430
v 0.931189 0.750000 0.792213
v 1.042226 0.500000 0.482251
v 1.060162 0.250000 0.173066
v -0.614974 1.750000 1.389345
v -0.209040 1.500000 1.429972
v 0.172831 1.250000 1.360038
v 0.502550 1.000000 1.195443
v 0.758743 0.750000 0.958657
v 0.928117 0.500000 0.676312
v 1.006027 0.250000 0.376569
v -0.874205 1.750000 1.242673
v -0.483997 1.500000 1.361714
v -0.095820 1.250000 1.367623
v 0.259674 1.000000 1.270515
v 0.557139 0.750000 1.088260
v 0.778342 0.500000 0.844384
v 0.913232 0.250000 0.565599
v -1.099841 1.750000 1.048247
v -0.740354 1.500000 1.241126
v -0.360789 1.250000 1.322651
v 0.006819 1.000000 1.296762
v 0.334125 0.750000 1.176042
v 0.598655 0.500000 0.980006
v 0.785342 0.250000 0.732894
v -1.283211 1.750000 0.813537
v -0.968260 1.500000 1.072842
v -0.611893 1.250000 1.226850
v -0.246298 1.000000 1.273176
v 0.098270 0.750000 1.218629
v 0.395962 0.500000 1.077967
v 0.627271 0.250000 0.872024
v -1.417267 1.750000 0.547563
v -1.158956 1.500000 0.863330
v -0.839482 1.250000 1.083902
v -0.489949 1.000000 1.200662
v -0.141361 0.750000 1.214386
v 0.178053 0.500000 1.134503
v 0.445095 0.250000 0.977643
v -1.496859 1.750000 0.260546
v -1.305115 1.500000 0.620640
v -1.034810 1.250000 0.899300
v -0.714773 1.000000 1.082007
v -0.375559 0.750000 1.163473
v -0.046699 0.500000 1.147440
v 0.245814 0.250000 1.045691
v -1.518928 1.750000 -0.036483
v -1.401118 1.500000 0.354099
v -1.190372 1.250000 0.680139
v -0.912128 1.000000 0.921771
v -0.595325 0.750000 1.067850
v -0.269656 0.500000 1.116282
v 0.037086 0.250000 1.073555
v -1.482625 1.750000 -0.332110
v -1.443277 1.500000 0.073951
v -1.300187 1.250000 0.434841
v -1.074430 1.000000 0.726113
v -0.792213 0.750000 0.931189
v -0.482251 0.500000 1.042226
v -0.173066 0.250000 1.060162
v -1.389345 1.750000 -0.614974
v -1.429972 1.500000 -0.209040
v -1.360038 1.250000 0.172831
v -1.195443 1.000000 0.502550
v -0.958657 0.750000 0.758743
v -0.676313 0.500000 0.928117
v -0.376569 0.250000 1.006027
v -1.242673 1.750000 -0.874205
v -1.361714 1.500000 -0.483997
v -1.367623 1.250000 -0.095820
v -1.270515 1.000000 0.259674
v -1.088260 0.750000 0.557140
v -0.844384 0.500000 0.778342
v -0.565599 0.250000 0.913232
v -1.048247 1.750000 -1.099841
v -1.241126 1.500000 -0.740354
v -1.322651 1.250000 -0.360789
v -1.296762 1.000000 0.006819
v -1.176042 0.750000 0.334125
v -0.980006 0.500000 0.598655
v -0.732894 0.250000 0.785342
v -0.813537 1.750000 -1.283211
v -1.072842 1.500000 -0.968260
v -1.226850 1.250000 -0.611892
v -1.273176 1.000000 -0.246298
v -1.218629 0.750000 0.098271
v -1.077967 0.500000 0.395962
v -0.872024 0.250000 0.627271
v -0.547563 1.750000 -1.417267
v -0.863330 1.500000 -1.158956
v -1.083902 1.250000 -0.839482
v -1.200662 1.000000 -0.489949
v -1.214386 0.750000 -0.141360
v -1.134503 0.500000 0.178053
v -0.977643 0.250000 0.445095
v -0.260546 1.750000 -1.496859
v -0.620640 1.500000 -1.305115
v -0.899300 1.250000 -1.034810
v -1.082007 1.000000 -0.714772
v -1.163473 0.750000 -0.375559
v -1.147440 0.500000 -0.046699
v -1.045691 0.250000 0.245814
v 0.036483 1.750000 -1.518928
v -0.354099 1.500000 -1.401118
v -0.680139 1.250000 -1.190372
v -0.921771 1.000000 -0.912127
v -1.067850 0.750000 -0.595325
v -1.116282 0.500000 -0.269656
v -1.073555 0.250000 0.037086
v 0.332110 1.750000 -1.482625
v -0.073951 1.500000 -1.443277
v -0.434841 1.250000 -1.300187
v -0.726113 1.000000 -1.074430
v -0.931189 0.750000 -0.792213
v -1.042226 0.500000 -0.482251
v -1.060162 0.250000 -0.173066
v 0.614974 1.750000 -1.389345
v 0.209040 1.500000 -1.429972
v -0.172831 1.250000 -1.360038
v -0.502550 1.000000 -1.195443
v -0.758743 0.750000 -0.958657
v -0.928117 0.500000 -0.676313
v -1.006027 0.250000 -0.376569
v 0.874205 1.750000 -1.242673
v 0.483997 1.500000 -1.361714
v 0.095820 1.250000 -1.367623
v -0.259674 1.000000 -1.270515
v -0.557140 0.750000 -1.088260
v -0.778342 0.500000 -0.844384
v -0.913232 0.250000 -0.565599
v 1.099841 1.750000 -1.048247
v 0.740354 1.500000 -1.241126
v 0.360789 1.250000 -1.322651
v -0.006819 1.000000 -1.296762
v -0.334125 0.750000 -1.176042
v -0.598655 0.500000 -0.980006
v -0.785342 0.250000 -0.732894
v 1.283211 1.750000 -0.813537
v 0.968260 1.500000 -1.072842
v 0.611892 1.250000 -1.226850
v 0.246298 1.000000 -1.273176
v -0.098271 0.750000 -1.218629
v -0.395962 0.500000 -1.077968
v -0.627271 0.250000 -0.872024
v 1.417267 1.750000 -0.547563
v 1.158956 1.500000 -0.863330
v 0.839482 1.250000 -1.083902
v 0.489949 1.000000 -1.200662
v 0.141360 0.750000 -1.214386
v -0.178053 0.500000 -1.134503
v -0.445095 0.250000 -0.977643
v 1.496859 1.750000 -0.260546
v 1.305115 1.500000 -0.620640
v 1.034810 1.250000 -0.899300
v 0.714772 1.000000 -1.082007
v 0.375559 0.750000 -1.163473
v 0.046699 0.500000 -1.147440
v -0.245814 0.250000 -1.045691
v 1.518928 1.750000 0.036483
v 1.401118 1.500000 -0.354099
v 1.190372 1.250000 -0.680139
v 0.912127 1.000000 -0.921771
v 0.595325 0.750000 -1.067850
v 0.269656 0.500000 -1.116282
v -0.037086 0.250000 -1.073555
v 1.482625 1.750000 0.332110
v 1.443277 1.500000 -0.073951
v 1.300187 1.250000 -0.434841
v 1.074430 1.000000 -0.726113
v 0.792213 0.750000 -0.931189
v 0.482251 0.500000 -1.042226
v 0.173066 0.250000 -1.060162
v 1.389345 1.750000 0.614974
v 1.429972 1.500000 0.209040
v 1.360038 1.250000 -0.172831
v 1.195443 1.000000 -0.502550
v 0.958657 0.750000 -0.758743
v 0.676312 0.500000 -0.928117
v 0.376569 0.250000 -1.006027
vn 0.3474 -0.2866 -0.8928
vn 0.6578 -0.2864 0.6966
vn 0.5149 -0.2866 -0.8079
vn 0.5093 -0.2864 0.8115
vn 0.6626 -0.2866 -0.6919
vn 0.3412 -0.2864 0.8953
vn 0.7849 -0.2866 -0.5494
vn 0.1600 -0.2864 0.9447
vn 0.8770 -0.2866 -0.3857
vn -0.0274 -0.2864 0.9577
vn 0.9354 -0.2866 -0.2072
vn -0.2137 -0.2864 0.9340
vn 0.9578 -0.2866 -0.0207
vn -0.3918 -0.2864 0.8743
vn 0.9435 -0.2866 0.1666
vn -0.5549 -0.2864 0.7811
vn 0.8928 -0.2866 0.3474
vn -0.6966 -0.2864 0.6578
vn 0.8079 -0.2866 0.5149
vn -0.8115 -0.2864 0.5093
vn 0.6919 -0.2866 0.6626
vn -0.8953 -0.2864 0.3412
vn 0.5494 -0.2866 0.7849
vn -0.9447 -0.2864 0.1600
vn 0.3857 -0.2866 0.8770
vn -0.9577 -0.2864 -0.0274
vn 0.2072 -0.2866 0.9354
vn -0.9340 -0.2864 -0.2137
vn 0.0207 -0.2866 0.9578
vn -0.8743 -0.2864 -0.3918
vn -0.1666 -0.2866 0.9435
vn -0.7811 -0.2864 -0.5549
vn -0.3474 -0.2866 0.8928
vn -0.6578 -0.2864 -0.6966
vn -0.5149 -0.2866 0.8079
vn -0.5093 -0.2864 -0.8115
vn -0.6626 -0.2866 0.6919
vn -0.3412 -0.2864 -0.8953
vn -0.7849 -0.2866 0.5494
vn -0.1600 -0.2864 -0.9447
vn -0.8770 -0.2866 0.3857
vn 0.0274 -0.2864 -0.9577
vn -0.9354 -0.2866 0.2072
vn 0.2137 -0.2864 -0.9340
vn -0.9578 -0.2866 0.0207
vn 0.3918 -0.2864 -0.8743
vn -0.9435 -0.2866 -0.1666
vn 0.5549 -0.2864 -0.7811
vn -0.8928 -0.2866 -0.3474
vn 0.6966 -0.2864 -0.6578
vn -0.8079 -0.2866 -0.5149
vn 0.8115 -0.2864 -0.5093
vn -0.6919 -0.2866 -0.6626
vn 0.8953 -0.2864 -0.3412
vn -0.5494 -0.2866 -0.7849
vn 0.9447 -0.2864 -0.1600
vn -0.3857 -0.2866 -0.8770
vn 0.9577 -0.2864 0.0274
vn -0.2072 -0.2866 -0.9354
vn 0.9340 -0.2864 0.2137
vn -0.0207 -0.2866 -0.9578
vn 0.8743 -0.2864 0.3918
vn 0.1666 -0.2866 -0.9435
vn 0.7811 -0.2864 0.5549
vn 0.5072 -0.2875 -0.8124
vn 0.7064 -0.2874 -0.6468
vn 0.8540 -0.2874 -0.4338
vn 0.9390 -0.2873 -0.1890
vn 0.9553 -0.2872 0.0697
vn 0.9017 -0.2872 0.3232
vn 0.7820 -0.2871 0.5532
vn 0.6591 -0.2871 0.6951
vn 0.8213 -0.2872 0.4929
vn 0.9234 -0.2872 0.2547
vn 0.9578 -0.2873 -0.0022
vn 0.9222 -0.2874 -0.2588
vn 0.8190 -0.2874 -0.4965
vn 0.6560 -0.2875 -0.6979
vn 0.5108 -0.2871 0.8103
vn 0.7093 -0.2872 0.6437
vn 0.8559 -0.2872 0.4300
vn 0.9399 -0.2873 0.1847
vn 0.9550 -0.2874 -0.0740
vn 0.9002 -0.2874 -0.3272
vn 0.7795 -0.2875 -0.5565
vn 0.3429 -0.2871 0.8944
vn 0.5701 -0.2872 0.7697
vn 0.7556 -0.2872 0.5887
vn 0.8858 -0.2873 0.3646
vn 0.9510 -0.2874 0.1138
vn 0.9467 -0.2874 -0.1453
vn 0.8731 -0.2875 -0.3937
vn 0.1618 -0.2871 0.9441
vn 0.4090 -0.2872 0.8662
vn 0.6262 -0.2872 0.7248
vn 0.7976 -0.2873 0.5304
vn 0.9106 -0.2874 0.2971
vn 0.9569 -0.2874 0.0422
vn 0.9332 -0.2875 -0.2158
vn -0.0255 -0.2871 0.9576
vn 0.2322 -0.2872 0.9293
vn 0.4728 -0.2872 0.8330
vn 0.6788 -0.2873 0.6758
vn 0.8351 -0.2874 0.4691
vn 0.9303 -0.2874 0.2281
vn 0.9573 -0.2875 -0.0296
vn -0.2118 -0.2871 0.9342
vn 0.0464 -0.2872 0.9568
vn 0.3012 -0.2872 0.9093
vn 0.5339 -0.2873 0.7952
vn 0.7276 -0.2874 0.6230
vn 0.8679 -0.2874 0.4052
vn 0.9447 -0.2875 0.1577
vn -0.3900 -0.2871 0.8749
vn -0.1411 -0.2872 0.9474
vn 0.1180 -0.2872 0.9506
vn 0.3685 -0.2873 0.8841
vn 0.5920 -0.2874 0.7529
vn 0.7722 -0.2874 0.5667
vn 0.8958 -0.2875 0.3390
vn -0.5532 -0.2871 0.7820
vn -0.3232 -0.2872 0.9017
vn -0.0697 -0.2872 0.9553
vn 0.1890 -0.2873 0.9390
vn 0.4338 -0.2874 0.8540
vn 0.6468 -0.2874 0.7064
vn 0.8124 -0.2875 0.5072
vn -0.6951 -0.2871 0.6591
vn -0.4929 -0.2872 0.8213
vn -0.2547 -0.2872 0.9234
vn 0.0022 -0.2873 0.9578
vn 0.2588 -0.2874 0.9222
vn 0.4965 -0.2874 0.8190
vn 0.6979 -0.2875 0.6560
vn -0.8103 -0.2871 0.5108
vn -0.6437 -0.2872 0.7093
vn -0.4300 -0.2872 0.8559
vn -0.1847 -0.2873 0.9399
vn 0.0740 -0.2874 0.9550
vn 0.3272 -0.2874 0.9002
vn 0.5565 -0.2875 0.7795
vn -0.8944 -0.2871 0.3429
vn -0.7697 -0.2872 0.5701
vn -0.5887 -0.2872 0.7556
vn -0.3646 -0.2873 0.8858
vn -0.1138 -0.2874 0.9510
vn 0.1453 -0.2874 0.9467
vn 0.3937 -0.2875 0.8731
vn -0.9441 -0.2871 0.1618
vn -0.8662 -0.2872 0.4090
vn -0.7248 -0.2872 0.6262
vn -0.5304 -0.2873 0.7976
vn -0.2971 -0.2874 0.9106
vn -0.0422 -0.2874 0.9569
vn 0.2158 -0.2875 0.9332
vn -0.9576 -0.2871 -0.0255
vn -0.9293 -0.2872 0.2322
vn -0.8330 -0.2872 0.4728
vn -0.6758 -0.2873 0.6788
vn -0.4691 -0.2874 0.8351
vn -0.2281 -0.2874 0.9303
vn 0.0296 -0.2875 0.9573
vn -0.9342 -0.2871 -0.2118
vn -0.9568 -0.2872 0.0464
vn -0.9093 -0.2872 0.3012
vn -0.7952 -0.2873 0.5339
vn -0.6230 -0.2874 0.7276
vn -0.4052 -0.2874 0.8679
vn -0.1577 -0.2875 0.9447
vn -0.8749 -0.2871 -0.3900
vn -0.9474 -0.2872 -0.1411
vn -0.9506 -0.2872 0.1180
vn -0.8841 -0.2873 0.3685
vn -0.7529 -0.2874 0.5920
vn -0.5667 -0.2874 0.7722
vn -0.3390 -0.2875 0.8958
vn -0.7820 -0.2871 -0.5532
vn -0.9017 -0.2872 -0.3232
vn -0.9553 -0.2872 -0.0697
vn -0.9390 -0.2873 0.1890
vn -0.8540 -0.2874 0.4338
vn -0.7064 -0.2874 0.6468
vn -0.5072 -0.2875 0.8124
vn -0.6591 -0.2871 -0.6951
vn -0.8213 -0.2872 -0.4929
vn -0.9234 -0.2872 -0.2547
vn -0.9578 -0.2873 0.0022
vn -0.9222 -0.2874 0.2588
vn -0.8190 -0.2874 0.4965
vn -0.6560 -0.2875 0.6979
vn -0.5108 -0.2871 -0.8103
vn -0.7093 -0.2872 -0.6437
vn -0.8559 -0.2872 -0.4300
vn -0.9399 -0.2873 -0.1847
vn -0.9550 -0.2874 0.0740
vn -0.9002 -0.2874 0.3272
vn -0.7795 -0.2875 0.5565
vn -0.3429 -0.2871 -0.8944
vn -0.5701 -0.2872 -0.7697
vn -0.7556 -0.2872 -0.5887
vn -0.8858 -0.2873 -0.3646
vn -0.9510 -0.2874 -0.1138
vn -0.9467 -0.2874 0.1453
vn -0.8731 -0.2875 0.3937
vn -0.1618 -0.2871 -0.9441
vn -0.4090 -0.2872 -0.8662
vn -0.6263 -0.2872 -0.7248
vn -0.7976 -0.2873 -0.5304
vn -0.9106 -0.2874 -0.2971
vn -0.9569 -0.2874 -0.0422
vn -0.9332 -0.2875 0.2158
vn 0.0255 -0.2871 -0.9576
vn -0.2322 -0.2872 -0.9293
vn -0.4728 -0.2872 -0.8330
vn -0.6788 -0.2873 -0.6758
vn -0.8351 -0.2874 -0.4691
vn -0.9303 -0.2874 -0.2281
vn -0.9573 -0.2875 0.0296
vn 0.2118 -0.2871 -0.9342
vn -0.0464 -0.2872 -0.9568
vn -0.3012 -0.2872 -0.9093
vn -0.5339 -0.2873 -0.7952
vn -0.7276 -0.2874 -0.6230
vn -0.8679 -0.2874 -0.4052
vn -0.9447 -0.2875 -0.1577
vn 0.3900 -0.2871 -0.8749
vn 0.1411 -0.2872 -0.9474
vn -0.1180 -0.2872 -0.9506
vn -0.3685 -0.2873 -0.8841
vn -0.5920 -0.2874 -0.7529
vn -0.7722 -0.2874 -0.5667
vn -0.8958 -0.2875 -0.3390
vn 0.5532 -0.2871 -0.7820
vn 0.3232 -0.2872 -0.9017
vn 0.0697 -0.2872 -0.9553
vn -0.1890 -0.2873 -0.9390
vn -0.4338 -0.2874 -0.8540
vn -0.6468 -0.2874 -0.7064
vn -0.8124 -0.2875 -0.5072
vn 0.6951 -0.2871 -0.6591
vn 0.4929 -0.2872 -0.8213
vn 0.2547 -0.2872 -0.9234
vn -0.0022 -0.2873 -0.9578
vn -0.2588 -0.2874 -0.9222
vn -0.4965 -0.2874 -0.8190
vn -0.6979 -0.2875 -0.6560
vn 0.8103 -0.2871 -0.5108
vn 0.6437 -0.2872 -0.7093
vn 0.4300 -0.2872 -0.8559
vn 0.1847 -0.2873 -0.9399
vn -0.0740 -0.2874 -0.9550
vn -0.3272 -0.2874 -0.9002
vn -0.5565 -0.2875 -0.7795
vn 0.8944 -0.2871 -0.3429
vn 0.7697 -0.2872 -0.5701
vn 0.5887 -0.2872 -0.7556
vn 0.3646 -0.2873 -0.8858
vn 0.1138 -0.2874 -0.9510
vn -0.1453 -0.2874 -0.9467
vn -0.3937 -0.2875 -0.8731
vn 0.9441 -0.2871 -0.1618
vn 0.8662 -0.2872 -0.4090
vn 0.7248 -0.2872 -0.6262
vn 0.5304 -0.2873 -0.7976
vn 0.2971 -0.2874 -0.9106
vn 0.0422 -0.2874 -0.9569
vn -0.2158 -0.2875 -0.9332
vn 0.9576 -0.2871 0.0255
vn 0.9293 -0.2872 -0.2322
vn 0.8330 -0.2872 -0.4728
vn 0.6758 -0.2873 -0.6788
vn 0.4691 -0.2874 -0.8351
vn 0.2281 -0.2874 -0.9303
vn -0.0296 -0.2875 -0.9573
vn 0.9342 -0.2871 0.2118
vn 0.9568 -0.2872 -0.0464
vn 0.9093 -0.2872 -0.3012
vn 0.7952 -0.2873 -0.5339
vn 0.6230 -0.2874 -0.7276
vn 0.4052 -0.2874 -0.8679
vn 0.1577 -0.2875 -0.9447
vn 0.8749 -0.2871 0.3900
vn 0.9474 -0.2872 0.1411
vn 0.9506 -0.2872 -0.1180
vn 0.8841 -0.2873 -0.3685
vn 0.7529 -0.2874 -0.5920
vn 0.5667 -0.2874 -0.7722
vn 0.3390 -0.2875 -0.8958
vt 1.000000 0.875000
vt 1.000000 1.000000
vt 0.968750 1.000000
vt 0.968750 0.875000
vt 0.937500 1.000000
vt 0.937500 0.875000
vt 0.906250 1.000000
vt 0.906250 0.875000
vt 0.875000 1.000000
vt 0.875000 0.875000
vt 0.843750 1.000000
vt 0.843750 0.875000
vt 0.812500 1.000000
vt 0.812500 0.875000
vt 0.781250 1.000000
vt 0.781250 0.875000
vt 0.750000 1.000000
vt 0.750000 0.875000
vt 0.718750 1.000000
vt 0.718750 0.875000
vt 0.687500 1.000000
vt 0.687500 0.875000
vt 0.656250 1.000000
vt 0.656250 0.875000
vt 0.625000 1.000000
vt 0.625000 0.875000
vt 0.593750 1.000000
vt 0.593750 0.875000
vt 0.562500 1.000000
vt 0.562500 0.875000
vt 0.531250 1.000000
vt 0.531250 0.875000
vt 0.500000 1.000000
vt 0.500000 0.875000
vt 0.468750 1.000000
vt 0.468750 0.875000
vt 0.437500 1.000000
vt 0.437500 0.875000
vt 0.406250 1.000000
vt 0.406250 0.875000
vt 0.375000 1.000000
vt 0.375000 0.875000
vt 0.343750 1.000000
vt 0.343750 0.875000
vt 0.312500 1.000000
vt 0.312500 0.875000
vt 0.281250 1.000000
vt 0.281250 0.875000
vt 0.250000 1.000000
vt 0.250000 0.875000
vt 0.218750 1.000000
vt 0.218750 0.875000
vt 0.187500 1.000000
vt 0.187500 0.875000
vt 0.156250 1.000000
vt 0.156250 0.875000
vt 0.125000 1.000000
vt 0.125000 0.875000
vt 0.093750 1.000000
vt 0.093750 0.875000
vt 0.062500 1.000000
vt 0.062500 0.875000
vt 0.031250 1.000000
vt 0.031250 0.875000
vt 0.000000 1.000000
vt 0.000000 0.875000
vt 0.031250 0.000000
vt 0.031250 0.125000
vt 0.000000 0.125000
vt 0.000000 0.000000
vt 0.031250 0.250000
vt 0.000000 0.250000
vt 0.031250 0.375000
vt 0.000000 0.375000
vt 0.031250 0.500000
vt 0.000000 0.500000
vt 0.031250 0.625000
vt 0.000000 0.625000
vt 0.031250 0.750000
vt 0.000000 0.750000
vt 0.062500 0.000000
vt 0.062500 0.125000
vt 0.062500 0.250000
vt 0.062500 0.375000
vt 0.062500 0.500000
vt 0.062500 0.625000
vt 0.062500 0.750000
vt 0.093750 0.000000
vt 0.093750 0.125000
vt 0.093750 0.250000
vt 0.093750 0.375000
vt 0.093750 0.500000
vt 0.093750 0.625000
vt 0.093750 0.750000
vt 0.125000 0.000000
vt 0.125000 0.125000
vt 0.125000 0.250000
vt 0.125000 0.375000
vt 0.125000 0.500000
vt 0.125000 0.625000
vt 0.125000 0.750000
vt 0.156250 0.000000
vt 0.156250 0.125000
vt 0.156250 0.250000
vt 0.156250 0.375000
vt 0.156250 0.500000
vt 0.156250 0.625000
vt 0.156250 0.750000
vt 0.187500 0.000000
vt 0.187500 0.125000
vt 0.187500 0.250000
vt 0.187500 0.375000
vt 0.187500 0.500000
vt 0.187500 0.625000
vt 0.187500 0.750000
vt 0.218750 0.000000
vt 0.218750 0.125000
vt 0.218750 0.250000
vt 0.218750 0.375000
vt 0.218750 0.500000
vt 0.218750 0.625000
vt 0.218750 0.750000
vt 0.250000 0.000000
vt 0.250000 0.125000
vt 0.250000 0.250000
vt 0.250000 0.375000
vt 0.250000 0.500000
vt 0.250000 0.625000
vt 0.250000 0.750000
vt 0.281250 0.000000
vt 0.281250 0.125000
vt 0.281250 0.250000
vt 0.281250 0.375000
vt 0.281250 0.500000
vt 0.281250 0.625000
vt 0.281250 0.750000
vt 0.312500 0.000000
vt 0.312500 0.125000
vt 0.312500 0.250000
vt 0.312500 0.375000
vt 0.312500 0.500000
vt 0.312500 0.625000
vt 0.312500 0.750000
vt 0.343750 0.000000
vt 0.343750 0.125000
vt 0.343750 0.250000
vt 0.343750 0.375000
vt 0.343750 0.500000
vt 0.343750 0.625000
vt 0.343750 0.750000
vt 0.375000 0.000000
vt 0.375000 0.125000
vt 0.375000 0.250000
vt 0.375000 0.375000
vt 0.375000 0.500000
vt 0.375000 0.625000
vt 0.375000 0.750000
vt 0.406250 0.000000
vt 0.406250 0.125000
vt 0.406250 0.250000
vt 0.406250 0.375000
vt 0.406250 0.500000
vt 0.406250 0.625000
vt 0.406250 0.750000
vt 0.437500 0.000000
vt 0.437500 0.125000
vt 0.437500 0.250000
vt 0.437500 0.375000
vt 0.437500 0.500000
vt 0.437500 0.625000
vt 0.437500 0.750000
vt 0.468750 0.000000
vt 0.468750 0.125000
vt 0.468750 0.250000
vt 0.468750 0.375000
vt 0.468750 0.500000
vt 0.468750 0.625000
vt 0.468750 0.750000
vt 0.500000 0.000000
vt 0.500000 0.125000
vt 0.500000 0.250000
vt 0.500000 0.375000
vt 0.500000 0.500000
vt 0.500000 0.625000
vt 0.500000 0.750000
vt 0.531250 0.000000
vt 0.531250 0.125000
vt 0.531250 0.250000
vt 0.531250 0.375000
vt 0.531250 0.500000
vt 0.531250 0.625000
vt 0.531250 0.750000
vt 0.562500 0.000000
vt 0.562500 0.125000
vt 0.562500 0.250000
vt 0.562500 0.375000
vt 0.562500 0.500000
vt 0.562500 0.625000
vt 0.562500 0.750000
vt 0.593750 0.000000
vt 0.593750 0.125000
vt 0.593750 0.250000
vt 0.593750 0.375000
vt 0.593750 0.500000
vt 0.593750 0.625000
vt 0.593750 0.750000
vt 0.625000 0.000000
vt 0.625000 0.125000
vt 0.625000 0.250000
vt 0.625000 0.375000
vt 0.625000 0.500000
vt 0.625000 0.625000
vt 0.625000 0.750000
vt 0.656250 0.000000
vt 0.656250 0.125000
vt 0.656250 0.250000
vt 0.656250 0.375000
vt 0.656250 0.500000
vt 0.656250 0.625000
vt 0.656250 0.750000
vt 0.687500 0.000000
vt 0.687500 0.125000
vt 0.687500 0.250000
vt 0.687500 0.375000
vt 0.687500 0.500000
vt 0.687500 0.625000
vt 0.687500 0.750000
vt 0.718750 0.000000
vt 0.718750 0.125000
vt 0.718750 0.250000
vt 0.718750 0.375000
vt 0.718750 0.500000
vt 0.718750 0.625000
vt 0.718750 0.750000
vt 0.750000 0.000000
vt 0.750000 0.125000
vt 0.750000 0.250000
vt 0.750000 0.375000
vt 0.750000 0.500000
vt 0.750000 0.625000
vt 0.750000 0.750000
vt 0.781250 0.000000
vt 0.781250 0.125000
vt 0.781250 0.250000
vt 0.781250 0.375000
vt 0.781250 0.500000
vt 0.781250 0.625000
vt 0.781250 0.750000
vt 0.812500 0.000000
vt 0.812500 0.125000
vt 0.812500 0.250000
vt 0.812500 0.375000
vt 0.812500 0.500000
vt 0.812500 0.625000
vt 0.812500 0.750000
vt 0.843750 0.000000
vt 0.843750 0.125000
vt 0.843750 0.250000
vt 0.843750 0.375000
vt 0.843750 0.500000
vt 0.843750 0.625000
vt 0.843750 0.750000
vt 0.875000 0.000000
vt 0.875000 0.125000
vt 0.875000 0.250000
vt 0.875000 0.375000
vt 0.875000 0.500000
vt 0.875000 0.625000
vt 0.875000 0.750000
vt 0.906250 0.000000
vt 0.906250 0.125000
vt 0.906250 0.250000
vt 0.906250 0.375000
vt 0.906250 0.500000
vt 0.906250 0.625000
vt 0.906250 0.750000
vt 0.937500 0.000000
vt 0.937500 0.125000
vt 0.937500 0.250000
vt 0.937500 0.375000
vt 0.937500 0.500000
vt 0.937500 0.625000
vt 0.937500 0.750000
vt 0.968750 0.000000
vt 0.968750 0.125000
vt 0.968750 0.250000
vt 0.968750 0.375000
vt 0.968750 0.500000
vt 0.968750 0.625000
vt 0.968750 0.750000
vt 1.000000 0.000000
vt 1.000000 0.125000
vt 1.000000 0.250000
vt 1.000000 0.375000
vt 1.000000 0.500000
vt 1.000000 0.625000
vt 1.000000 0.750000
s 1
f 71/1/71 2/2/2 4/3/4 72/4/72
f 72/4/72 4/3/4 6/5/6 79/6/79
f 79/6/79 6/5/6 8/7/8 86/8/86
f 86/8/86 8/7/8 10/9/10 93/10/93
f 93/10/93 10/9/10 12/11/12 100/12/100
f 100/12/100 12/11/12 14/13/14 107/14/107
f 107/14/107 14/13/14 16/15/16 114/16/114
f 114/16/114 16/15/16 18/17/18 121/18/121
f 121/18/121 18/17/18 20/19/20 128/20/128
f 128/20/128 20/19/20 22/21/22 135/22/135
f 135/22/135 22/21/22 24/23/24 142/24/142
f 142/24/142 24/23/24 26/25/26 149/26/149
f 149/26/149 26/25/26 28/27/28 156/28/156
f 156/28/156 28/27/28 30/29/30 163/30/163
f 163/30/163 30/29/30 32/31/32 170/32/170
f 170/32/170 32/31/32 34/33/34 177/34/177
f 177/34/177 34/33/34 36/35/36 184/36/184
f 184/36/184 36/35/36 38/37/38 191/38/191
f 191/38/191 38/37/38 40/39/40 198/40/198
f 198/40/198 40/39/40 42/41/42 205/42/205
f 205/42/205 42/41/42 44/43/44 212/44/212
f 212/44/212 44/43/44 46/45/46 219/46/219
f 219/46/219 46/45/46 48/47/48 226/48/226
f 226/48/226 48/47/48 50/49/50 233/50/233
f 233/50/233 50/49/50 52/51/52 240/52/240
f 240/52/240 52/51/52 54/53/54 247/54/247
f 247/54/247 54/53/54 56/55/56 254/56/254
f 254/56/254 56/55/56 58/57/58 261/58/261
f 261/58/261 58/57/58 60/59/60 268/60/268
f 268/60/268 60/59/60 62/61/62 275/62/275
f 275/62/275 62/61/62 64/63/64 282/64/282
f 282/64/282 64/63/64 2/65/2 71/66/71
f 63/67/63 288/68/288 65/69/65 1/70/1
f 288/68/288 287/71/287 66/72/66 65/69/65
f 287/71/287 286/73/286 67/74/67 66/72/66
f 286/73/286 285/75/285 68/76/68 67/74/67
f 285/75/285 284/77/284 69/78/69 68/76/68
f 284/77/284 283/79/283 70/80/70 69/78/69
f 283/79/283 282/64/282 71/66/71 70/80/70
f 61/81/61 281/82/281 288/68/288 63/67/63
f 281/82/281 280/83/280 287/71/287 288/68/288
f 280/83/280 279/84/279 286/73/286 287/71/287
f 279/84/279 278/85/278 285/75/285 286/73/286
f 278/85/278 277/86/277 284/77/284 285/75/285
f 277/86/277 276/87/276 283/79/283 284/77/284
f 276/87/276 275/62/275 282/64/282 283/79/283
f 59/88/59 274/89/274 281/82/281 61/81/61
f 274/89/274 273/90/273 280/83/280 281/82/281
f 273/90/273 272/91/272 279/84/279 280/83/280
f 272/91/272 271/92/271 278/85/278 279/84/279
f 271/92/271 270/93/270 277/86/277 278/85/278
f 270/93/270 269/94/269 276/87/276 277/86/277
f 269/94/269 268/60/268 275/62/275 276/87/276
f 57/95/57 267/96/267 274/89/274 59/88/59
f 267/96/267 266/97/266 273/90/273 274/89/274
f 266/97/266 265/98/265 272/91/272 273/90/273
f 265/98/265 264/99/264 271/92/271 272/91/272
f 264/99/264 263/100/263 270/93/270 271/92/271
f 263/100/263 262/101/262 269/94/269 270/93/270
f 262/101/262 261/58/261 268/60/268 269/94/269
f 55/102/55 260/103/260 267/96/267 57/95/57
f 260/103/260 259/104/259 266/97/266 267/96/267
f 259/104/259 258/105/258 265/98/265 266/97/266
f 258/105/258 257/106/257 264/99/264 265/98/265
f 257/106/257 256/107/256 263/100/263 264/99/264
f 256/107/256 255/108/255 262/101/262 263/100/263
f 255/108/255 254/56/254 261/58/261 262/101/262
f 53/109/53 253/110/253 260/103/260 55/102/55
f 253/110/253 252/111/252 259/104/259 260/103/260
f 252/111/252 251/112/251 258/105/258 259/104/259
f 251/112/251 250/113/250 257/106/257 258/105/258
f 250/113/250 249/114/249 256/107/256 257/106/257
f 249/114/249 248/115/248 255/108/255 256/107/256
f 248/115/248 247/54/247 254/56/254 255/108/255
f 51/116/51 246/117/246 253/110/253 53/109/53
f 246/117/246 245/118/245 252/111/252 253/110/253
f 245/118/245 244/119/244 251/112/251 252/111/252
f 244/119/244 243/120/243 250/113/250 251/112/251
f 243/120/243 242/121/242 249/114/249 250/113/250
f 242/121/242 241/122/241 248/115/248 249/114/249
f 241/122/241 240/52/240 247/54/247 248/115/248
f 49/123/49 239/124/239 246/117/246 51/116/51
f 239/124/239 238/125/238 245/118/245 246/117/246
f 238/125/238 237/126/237 244/119/244 245/118/245
f 237/126/237 236/127/236 243/120/243 244/119/244
f 236/127/236 235/128/235 242/121/242 243/120/243
f 235/128/235 234/129/234 241/122/241 242/121/242
f 234/129/234 233/50/233 240/52/240 241/122/241
f 47/130/47 232/131/232 239/124/239 49/123/49
f 232/131/232 231/132/231 238/125/238 239/124/239
f 231/132/231 230/133/230 237/126/237 238/125/238
f 230/133/230 229/134/229 236/127/236 237/126/237
f 229/134/229 228/135/228 235/128/235 236/127/236
f 228/135/228 227/136/227 234/129/234 235/128/235
f 227/136/227 226/48/226 233/50/233 234/129/234
f 45/137/45 225/138/225 232/131/232 47/130/47
f 225/138/225 224/139/224 231/132/231 232/131/232
f 224/139/224 223/140/223 230/133/230 231/132/231
f 223/140/223 222/141/222 229/134/229 230/133/230
f 222/141/222 221/142/221 228/135/228 229/134/229
f 221/142/221 220/143/220 227/136/227 228/135/228
f 220/143/220 219/46/219 226/48/226 227/136/227
f 43/144/43 218/145/218 225/138/225 45/137/45
f 218/145/218 217/146/217 224/139/224 225/138/225
f 217/146/217 216/147/216 223/140/223 224/139/224
f 216/147/216 215/148/215 222/141/222 223/140/223
f 215/148/215 214/149/214 221/142/221 222/141/222
f 214/149/214 213/150/213 220/143/220 221/142/221
f 213/150/213 212/44/212 219/46/219 220/143/220
f 41/151/41 211/152/211 218/145/218 43/144/43
f 211/152/211 210/153/210 217/146/217 218/145/218
f 210/153/210 209/154/209 216/147/216 217/146/217
f 209/154/209 208/155/208 215/148/215 216/147/216
f 208/155/208 207/156/207 214/149/214 215/148/215
f 207/156/207 206/157/206 213/150/213 214/149/214
f 206/157/206 205/42/205 212/44/212 213/150/213
f 39/158/39 204/159/204 211/152/211 41/151/41
f 204/159/204 203/160/203 210/153/210 211/152/211
f 203/160/203 202/161/202 209/154/209 210/153/210
f 202/161/202 201/162/201 208/155/208 209/154/209
f 201/162/201 200/163/200 207/156/207 208/155/208
f 200/163/200 199/164/199 206/157/206 207/156/207
f 199/164/199 198/40/198 205/42/205 206/157/206
f 37/165/37 197/166/197 204/159/204 39/158/39
f 197/166/197 196/167/196 203/160/203 204/159/204
f 196/167/196 195/168/195 202/161/202 203/160/203
f 195/168/195 194/169/194 201/162/201 202/161/202
f 194/169/194 193/170/193 200/163/200 201/162/201
f 193/170/193 192/171/192 199/164/199 200/163/200
f 192/171/192 191/38/191 198/40/198 199/164/199
f 35/172/35 190/173/190 197/166/197 37/165/37
f 190/173/190 189/174/189 196/167/196 197/166/197
f 189/174/189 188/175/188 195/168/195 196/167/196
f 188/175/188 187/176/187 194/169/194 195/168/195
f 187/176/187 186/177/186 193/170/193 194/169/194
f 186/177/186 185/178/185 192/171/192 193/170/193
f 185/178/185 184/36/184 191/38/191 192/171/192
f 33/179/33 183/180/183 190/173/190 35/172/35
f 183/180/183 182/181/182 189/174/189 190/173/190
f 182/181/182 181/182/181 188/175/188 189/174/189
f 181/182/181 180/183/180 187/176/187 188/175/188
f 180/183/180 179/184/179 186/177/186 187/176/187
f 179/184/179 178/185/178 185/178/185 186/177/186
f 178/185/178 177/34/177 184/36/184 185/178/185
f 31/186/31 176/187/176 183/180/183 33/179/33
f 176/187/176 175/188/175 182/181/182 183/180/183
f 175/188/175 174/189/174 181/182/181 182/181/182
f 174/189/174 173/190/173 180/183/180 181/182/181
f 173/190/173 172/191/172 179/184/179 180/183/180
f 172/191/172 171/192/171 178/185/178 179/184/179
f 171/192/171 170/32/170 177/34/177 178/185/178
f 29/193/29 169/194/169 176/187/176 31/186/31
f 169/194/169 168/195/168 175/188/175 176/187/176
f 168/195/168 167/196/167 174/189/174 175/188/175
f 167/196/167 166/197/166 173/190/173 174/189/174
f 166/197/166 165/198/165 172/191/172 173/190/173
f 165/198/165 164/199/164 171/192/171 172/191/172
f 164/199/164 163/30/163 170/32/170 171/192/171
f 27/200/27 162/201/162 169/194/169 29/193/29
f 162/201/162 161/202/161 168/195/168 169/194/169
f 161/202/161 160/203/160 167/196/167 168/195/168
f 160/203/160 159/204/159 166/197/166 167/196/167
f 159/204/159 158/205/158 165/198/165 166/197/166
f 158/205/158 157/206/157 164/199/164 165/198/165
f 157/206/157 156/28/156 163/30/163 164/199/164
f 25/207/25 155/208/155 162/201/162 27/200/27
f 155/208/155 154/209/154 161/202/161 162/201/162
f 154/209/154 153/210/153 160/203/160 161/202/161
f 153/210/153 152/211/152 159/204/159 160/203/160
f 152/211/152 151/212/151 158/205/158 159/204/159
f 151/212/151 150/213/150 157/206/157 158/205/158
f 150/213/150 149/26/149 156/28/156 157/206/157
f 23/214/23 148/215/148 155/208/155 25/207/25
f 148/215/148 147/216/147 154/209/154 155/208/155
f 147/216/147 146/217/146 153/210/153 154/209/154
f 146/217/146 145/218/145 152/211/152 153/210/153
f 145/218/145 144/219/144 151/212/151 152/211/152
f 144/219/144 143/220/143 150/213/150 151/212/151
f 143/220/143 142/24/142 149/26/149 150/213/150
f 21/221/21 141/222/141 148/215/148 23/214/23
f 141/222/141 140/223/140 147/216/147 148/215/148
f 140/223/140 139/224/139 146/217/146 147/216/147
f 139/224/139 138/225/138 145/218/145 146/217/146
f 138/225/138 137/226/137 144/219/144 145/218/145
f 137/226/137 136/227/136 143/220/143 144/219/144
f 136/227/136 135/22/135 142/24/142 143/220/143
f 19/228/19 134/229/134 141/222/141 21/221/21
f 134/229/134 133/230/133 140/223/140 141/222/141
f 133/230/133 132/231/132 139/224/139 140/223/140
f 132/231/132 131/232/131 138/225/138 139/224/139
f 131/232/131 130/233/130 137/226/137 138/225/138
f 130/233/130 129/234/129 136/227/136 137/226/137
f 129/234/129 128/20/128 135/22/135 136/227/136
f 17/235/17 127/236/127 134/229/134 19/228/19
f 127/236/127 126/237/126 133/230/133 134/229/134
f 126/237/126 125/238/125 132/231/132 133/230/133
f 125/238/125 124/239/124 131/232/131 132/231/132
f 124/239/124 123/240/123 130/233/130 131/232/131
f 123/240/123 122/241/122 129/234/129 130/233/130
f 122/241/122 121/18/121 128/20/128 129/234/129
f 15/242/15 120/243/120 127/236/127 17/235/17
f 120/243/120 119/244/119 126/237/126 127/236/127
f 119/244/119 118/245/118 125/238/125 126/237/126
f 118/245/118 117/246/117 124/239/124 125/238/125
f 117/246/117 116/247/116 123/240/123 124/239/124
f 116/247/116 115/248/115 122/241/122 123/240/123
f 115/248/115 114/16/114 121/18/121 122/241/122
f 13/249/13 113/250/113 120/243/120 15/242/15
f 113/250/113 112/251/112 119/244/119 120/243/120
f 112/251/112 111/252/111 118/245/118 119/244/119
f 111/252/111 110/253/110 117/246/117 118/245/118
f 110/253/110 109/254/109 116/247/116 117/246/117
f 109/254/109 108/255/108 115/248/115 116/247/116
f 108/255/108 107/14/107 114/16/114 115/248/115
f 11/256/11 106/257/106 113/250/113 13/249/13
f 106/257/106 105/258/105 112/251/112 113/250/113
f 105/258/105 104/259/104 111/252/111 112/251/112
f 104/259/104 103/260/103 110/253/110 111/252/111
f 103/260/103 102/261/102 109/254/109 110/253/110
f 102/261/102 101/262/101 108/255/108 109/254/109
f 101/262/101 100/12/100 107/14/107 108/255/108
f 9/263/9 99/264/99 106/257/106 11/256/11
f 99/264/99 98/265/98 105/258/105 106/257/106
f 98/265/98 97/266/97 104/259/104 105/258/105
f 97/266/97 96/267/96 103/260/103 104/259/104
f 96/267/96 95/268/95 102/261/102 103/260/103
f 95/268/95 94/269/94 101/262/101 102/261/102
f 94/269/94 93/10/93 100/12/100 101/262/101
f 7/270/7 92/271/92 99/264/99 9/263/9
f 92/271/92 91/272/91 98/265/98 99/264/99
f 91/272/91 90/273/90 97/266/97 98/265/98
f 90/273/90 89/274/89 96/267/96 97/266/97
f 89/274/89 88/275/88 95/268/95 96/267/96
f 88/275/88 87/276/87 94/269/94 95/268/95
f 87/276/87 86/8/86 93/10/93 94/269/94
f 5/277/5 85/278/85 92/271/92 7/270/7
f 85/278/85 84/279/84 91/272/91 92/271/92
f 84/279/84 83/280/83 90/273/90 91/272/91
f 83/280/83 82/281/82 89/274/89 90/273/90
f 82/281/82 81/282/81 88/275/88 89/274/89
f 81/282/81 80/283/80 87/276/87 88/275/88
f 80/283/80 79/6/79 86/8/86 87/276/87
f 3/284/3 78/285/78 85/278/85 5/277/5
f 78/285/78 77/286/77 84/279/84 85/278/85
f 77/286/77 76/287/76 83/280/83 84/279/84
f 76/287/76 75/288/75 82/281/82 83/280/83
f 75/288/75 74/289/74 81/282/81 82/281/82
f 74/289/74 73/290/73 80/283/80 81/282/81
f 73/290/73 72/4/72 79/6/79 80/283/80
f 1/291/1 65/292/65 78/285/78 3/284/3
f 65/292/65 66/293/66 77/286/77 78/285/78
f 66/293/66 67/294/67 76/287/76 77/286/77
f 67/294/67 68/295/68 75/288/75 76/287/76
f 68/295/68 69/296/69 74/289/74 75/288/75
f 69/296/69 70/297/70 73/290/73 74/289/74
f 70/297/70 71/1/71 72/4/72 73/290/73
