# Blender 4.5.1 LTS
# www.blender.org
o Plane
v -1.000000 0.000000 1.000000
v 1.000000 0.000000 1.000000
v -2.339099 -0.000000 -10.569014
v 2.350955 -0.000000 -10.569014
v -0.750123 0.000000 1.482510
v -0.500000 0.000000 1.712924
v -0.250000 0.000000 1.820720
v 0.000000 0.000000 1.853633
v 0.250000 0.000000 1.820720
v 0.500000 0.000000 1.712924
v 0.749877 0.000000 1.482510
v 1.759035 0.103915 -10.567488
v 1.164181 0.155693 -10.565735
v 0.577925 0.155693 -10.565735
v -0.008332 0.155693 -10.565735
v -0.594589 0.155693 -10.565735
v -1.180845 0.155693 -10.565735
v -1.758561 0.103325 -10.567492
v -2.165912 -0.000000 -8.552265
v -1.473719 -0.000000 -5.207367
v -1.012118 -0.000000 -2.115929
v -1.000000 -0.000000 -0.908045
v -1.000000 -0.000000 -0.431034
v -1.000000 0.000000 0.045978
v -1.000000 0.000000 0.522989
v 1.000000 0.000000 0.522989
v 1.000000 0.000000 0.045978
v 1.000000 -0.000000 -0.431034
v 1.000000 -0.000000 -0.908045
v 1.012225 -0.000000 -2.115929
v 1.477913 -0.000000 -5.207367
v 2.176234 -0.000000 -8.552265
v -0.751137 0.080002 0.945914
v -0.751418 0.085693 0.408765
v -0.751690 0.090785 -0.128396
v -0.751938 0.095147 -0.665575
v -0.752147 0.098666 -1.376210
v -0.974048 0.101246 -4.330876
v -1.581406 0.102815 -8.175111
v -0.506081 0.155693 1.150076
v -0.506081 0.155693 0.583949
v -0.506081 0.155693 0.017823
v -0.506081 0.155693 -0.548304
v -0.506081 0.155693 -1.152081
v -0.617891 0.155693 -3.924422
v -1.045114 0.155693 -7.986186
v -0.256081 0.155693 1.244398
v -0.256081 0.155693 0.664797
v -0.256081 0.155693 0.085195
v -0.256081 0.155693 -0.494406
v -0.256081 0.155693 -1.081669
v -0.304363 0.155693 -3.739772
v -0.522315 0.155693 -7.897193
v -0.006081 0.155693 1.273196
v -0.006081 0.155693 0.689481
v -0.006081 0.155693 0.105766
v -0.006081 0.155693 -0.477950
v -0.006081 0.155693 -1.064655
v -0.006387 0.155693 -3.684029
v -0.007843 0.155693 -7.869839
v 0.243919 0.155693 1.244398
v 0.243919 0.155693 0.664797
v 0.243919 0.155693 0.085195
v 0.243919 0.155693 -0.494406
v 0.243919 0.155693 -1.081669
v 0.291559 0.155693 -3.739772
v 0.506612 0.155693 -7.897193
v 0.493919 0.155693 1.150076
v 0.493919 0.155693 0.583949
v 0.493919 0.155693 0.017823
v 0.493919 0.155693 -0.548304
v 0.493919 0.155693 -1.152081
v 0.604983 0.155693 -3.924422
v 1.029356 0.155693 -7.986186
v 0.748875 0.080298 0.945917
v 0.748598 0.086087 0.408769
v 0.748329 0.091252 -0.128392
v 0.748083 0.095666 -0.665571
v 0.747875 0.099220 -1.376205
v 0.970713 0.101821 -4.330872
v 1.581085 0.103401 -8.175106
v -1.000000 0.000000 0.761494
v 1.000000 0.000000 0.761494
v -0.752265 0.058271 1.215189
v -0.501794 0.092522 1.431043
v -0.251670 0.090289 1.532035
v -0.001633 0.089607 1.562870
v 0.248330 0.090289 1.532035
v 0.498206 0.092522 1.431043
v 0.747758 0.058846 1.215193
v 1.759035 -0.103915 -10.567488
v 1.164181 -0.155693 -10.565735
v 0.577925 -0.155693 -10.565735
v -0.008332 -0.155693 -10.565735
v -0.594589 -0.155693 -10.565735
v -1.180845 -0.155693 -10.565735
v -1.758561 -0.103325 -10.567492
v -0.751137 -0.080002 0.945914
v -0.751418 -0.085693 0.408765
v -0.751690 -0.090785 -0.128396
v -0.751938 -0.095147 -0.665575
v -0.752147 -0.098666 -1.376210
v -0.974048 -0.101246 -4.330876
v -1.581406 -0.102815 -8.175111
v -0.506081 -0.155693 1.150076
v -0.506081 -0.155693 0.583949
v -0.506081 -0.155693 0.017823
v -0.506081 -0.155693 -0.548304
v -0.506081 -0.155693 -1.152081
v -0.617891 -0.155693 -3.924422
v -1.045114 -0.155693 -7.986186
v -0.256081 -0.155693 1.244398
v -0.256081 -0.155693 0.664797
v -0.256081 -0.155693 0.085195
v -0.256081 -0.155693 -0.494406
v -0.256081 -0.155693 -1.081669
v -0.304363 -0.155693 -3.739772
v -0.522315 -0.155693 -7.897193
v -0.006081 -0.155693 1.273196
v -0.006081 -0.155693 0.689481
v -0.006081 -0.155693 0.105766
v -0.006081 -0.155693 -0.477950
v -0.006081 -0.155693 -1.064655
v -0.006387 -0.155693 -3.684029
v -0.007843 -0.155693 -7.869839
v 0.243919 -0.155693 1.244398
v 0.243919 -0.155693 0.664797
v 0.243919 -0.155693 0.085195
v 0.243919 -0.155693 -0.494406
v 0.243919 -0.155693 -1.081669
v 0.291559 -0.155693 -3.739772
v 0.506612 -0.155693 -7.897193
v 0.493919 -0.155693 1.150076
v 0.493919 -0.155693 0.583949
v 0.493919 -0.155693 0.017823
v 0.493919 -0.155693 -0.548304
v 0.493919 -0.155693 -1.152081
v 0.604983 -0.155693 -3.924422
v 1.029356 -0.155693 -7.986186
v 0.748875 -0.080298 0.945917
v 0.748598 -0.086087 0.408769
v 0.748329 -0.091252 -0.128392
v 0.748083 -0.095666 -0.665571
v 0.747875 -0.099220 -1.376205
v 0.970713 -0.101821 -4.330872
v 1.581085 -0.103401 -8.175106
v -0.752265 -0.058271 1.215189
v -0.501794 -0.092522 1.431043
v -0.251670 -0.090289 1.532035
v -0.001633 -0.089607 1.562870
v 0.248330 -0.090289 1.532035
v 0.498206 -0.092522 1.431043
v 0.747758 -0.058846 1.215193
vn 0.1602 0.9868 0.0221
vn 0.9936 -0.0000 0.1128
vn 0.9968 -0.0000 0.0804
vn 0.1361 0.9906 0.0103
vn -0.9937 -0.0000 0.1118
vn -0.1637 0.9863 0.0224
vn -0.1391 0.9902 0.0104
vn -0.9968 -0.0000 0.0798
vn -0.0599 0.9982 0.0067
vn -0.0492 0.9988 0.0032
vn -0.0000 1.0000 -0.0000
vn 0.0574 0.9983 0.0064
vn 0.0473 0.9989 0.0030
vn 0.1982 0.9511 0.2369
vn 0.3327 0.9292 0.1608
vn 0.3101 0.9499 0.0400
vn 0.1695 0.9810 0.0943
vn 0.2944 0.9557 0.0049
vn 0.1367 0.9906 0.0024
vn 0.2937 0.9559 0.0043
vn 0.1267 0.9919 0.0021
vn 0.2928 0.9562 0.0035
vn 0.1180 0.9930 0.0017
vn 0.2757 0.9612 0.0081
vn 0.1067 0.9943 0.0024
vn 0.2242 0.9742 0.0266
vn 0.0855 0.9963 0.0061
vn 0.0685 0.9622 0.2636
vn 0.0307 0.9924 0.1193
vn -0.0000 0.9650 0.2623
vn -0.0001 0.9928 0.1198
vn -0.0687 0.9619 0.2648
vn -0.0313 0.9923 0.1202
vn -0.2002 0.9500 0.2397
vn -0.1761 0.9797 0.0961
vn -0.1424 0.9898 0.0025
vn -0.1319 0.9913 0.0022
vn -0.1228 0.9924 0.0017
vn -0.1112 0.9938 0.0025
vn -0.0891 0.9960 0.0063
vn -0.3396 0.9262 0.1636
vn -0.3160 0.9479 0.0400
vn -0.3007 0.9537 0.0050
vn -0.2999 0.9540 0.0044
vn -0.2989 0.9543 0.0036
vn -0.2814 0.9596 0.0083
vn -0.2288 0.9731 0.0270
vn -0.9945 -0.0000 0.1045
vn -0.9994 -0.0000 0.0351
vn -0.9999 -0.0000 0.0146
vn -0.9999 -0.0000 0.0121
vn -0.9999 -0.0000 0.0112
vn -0.9948 -0.0000 0.1016
vn -0.9857 -0.0000 0.1684
vn 0.9942 -0.0000 0.1072
vn 0.9994 -0.0000 0.0357
vn 0.9999 -0.0000 0.0144
vn 0.9999 -0.0000 0.0119
vn 0.9999 -0.0000 0.0111
vn 0.9948 -0.0000 0.1022
vn 0.9856 -0.0000 0.1694
vn 0.7834 -0.0000 0.6216
vn 0.9925 -0.0000 0.1220
vn -0.9927 -0.0000 0.1208
vn -0.7824 -0.0000 0.6228
vn -0.5161 -0.0000 0.8566
vn -0.2328 -0.0000 0.9725
vn 0.0004 -0.0000 1.0000
vn 0.2337 -0.0000 0.9723
vn 0.5175 -0.0000 0.8557
vn 0.1602 -0.9868 0.0221
vn 0.1361 -0.9906 0.0103
vn -0.1391 -0.9902 0.0104
vn -0.1637 -0.9863 0.0224
vn -0.0492 -0.9988 0.0032
vn -0.0599 -0.9982 0.0067
vn -0.0000 -1.0000 -0.0000
vn 0.0473 -0.9989 0.0030
vn 0.0574 -0.9983 0.0064
vn 0.1982 -0.9511 0.2369
vn 0.1695 -0.9810 0.0943
vn 0.3101 -0.9499 0.0400
vn 0.3327 -0.9292 0.1608
vn 0.1367 -0.9906 0.0024
vn 0.2944 -0.9557 0.0049
vn 0.1267 -0.9919 0.0021
vn 0.2937 -0.9559 0.0043
vn 0.1180 -0.9930 0.0017
vn 0.2928 -0.9562 0.0035
vn 0.1067 -0.9943 0.0024
vn 0.2757 -0.9612 0.0081
vn 0.0855 -0.9963 0.0061
vn 0.2242 -0.9742 0.0266
vn 0.0685 -0.9622 0.2636
vn 0.0307 -0.9924 0.1193
vn -0.0000 -0.9650 0.2623
vn -0.0001 -0.9928 0.1198
vn -0.0687 -0.9619 0.2648
vn -0.0313 -0.9923 0.1202
vn -0.2002 -0.9500 0.2397
vn -0.1761 -0.9797 0.0961
vn -0.1424 -0.9898 0.0025
vn -0.1319 -0.9913 0.0022
vn -0.1228 -0.9924 0.0017
vn -0.1112 -0.9938 0.0025
vn -0.0891 -0.9960 0.0063
vn -0.3396 -0.9262 0.1636
vn -0.3160 -0.9479 0.0400
vn -0.3007 -0.9537 0.0050
vn -0.2999 -0.9540 0.0044
vn -0.2989 -0.9543 0.0036
vn -0.2814 -0.9596 0.0083
vn -0.2288 -0.9731 0.0270
vt 0.875000 0.875401
vt 1.000000 0.875401
vt 1.000000 1.000000
vt 0.875000 1.000000
vt 0.000000 0.875401
vt 0.125000 0.875401
vt 0.125000 1.000000
vt 0.000000 1.000000
vt 0.250000 0.875401
vt 0.250000 1.000000
vt 0.375000 0.875401
vt 0.375000 1.000000
vt 0.500000 0.875401
vt 0.500000 1.000000
vt 0.625000 0.875401
vt 0.625000 1.000000
vt 0.750000 0.875401
vt 0.750000 1.000000
vt 0.750000 0.132710
vt 0.875000 0.132710
vt 0.875000 0.255934
vt 0.750000 0.255934
vt 0.875000 0.406632
vt 0.750000 0.406632
vt 0.875000 0.542969
vt 0.750000 0.542969
vt 0.875000 0.644913
vt 0.750000 0.644913
vt 0.875000 0.720777
vt 0.750000 0.720777
vt 0.875000 0.786940
vt 0.750000 0.786940
vt 0.625000 0.132710
vt 0.625000 0.255934
vt 0.625000 0.406632
vt 0.625000 0.542969
vt 0.625000 0.644913
vt 0.625000 0.720777
vt 0.625000 0.786940
vt 0.500000 0.132710
vt 0.500000 0.255934
vt 0.500000 0.406632
vt 0.500000 0.542969
vt 0.500000 0.644913
vt 0.500000 0.720777
vt 0.500000 0.786940
vt 0.375000 0.132710
vt 0.375000 0.255934
vt 0.375000 0.406632
vt 0.375000 0.542969
vt 0.375000 0.644913
vt 0.375000 0.720777
vt 0.375000 0.786940
vt 0.250000 0.132710
vt 0.250000 0.255934
vt 0.250000 0.406632
vt 0.250000 0.542969
vt 0.250000 0.644913
vt 0.250000 0.720777
vt 0.250000 0.786940
vt 0.125000 0.132710
vt 0.125000 0.255934
vt 0.125000 0.406632
vt 0.125000 0.542969
vt 0.125000 0.644913
vt 0.125000 0.720777
vt 0.125000 0.786940
vt 0.000000 0.132710
vt 0.000000 0.255934
vt 0.000000 0.406632
vt 0.000000 0.542969
vt 0.000000 0.644913
vt 0.000000 0.720777
vt 0.000000 0.786940
vt 1.000000 0.132710
vt 1.000000 0.255934
vt 1.000000 0.406632
vt 1.000000 0.542969
vt 1.000000 0.644913
vt 1.000000 0.720777
vt 1.000000 0.786940
vt 0.875000 -0.000000
vt 1.000000 -0.000000
vt 0.000000 -0.000000
vt 0.125000 -0.000000
vt 0.250000 -0.000000
vt 0.375000 -0.000000
vt 0.500000 -0.000000
vt 0.625000 -0.000000
vt 0.750000 -0.000000
s 1
f 81/1/1 32/2/2 4/3/3 12/4/4
f 19/5/5 39/6/6 18/7/7 3/8/8
f 39/6/6 46/9/9 17/10/10 18/7/7
f 46/9/9 53/11/11 16/12/11 17/10/10
f 53/11/11 60/13/11 15/14/11 16/12/11
f 60/13/11 67/15/11 14/16/11 15/14/11
f 67/15/11 74/17/12 13/18/13 14/16/11
f 74/17/12 81/1/1 12/4/4 13/18/13
f 89/19/14 90/20/15 75/21/16 68/22/17
f 68/22/17 75/21/16 76/23/18 69/24/19
f 69/24/19 76/23/18 77/25/20 70/26/21
f 70/26/21 77/25/20 78/27/22 71/28/23
f 71/28/23 78/27/22 79/29/24 72/30/25
f 72/30/25 79/29/24 80/31/26 73/32/27
f 73/32/27 80/31/26 81/1/1 74/17/12
f 88/33/28 89/19/14 68/22/17 61/34/29
f 61/34/29 68/22/17 69/24/19 62/35/11
f 62/35/11 69/24/19 70/26/21 63/36/11
f 63/36/11 70/26/21 71/28/23 64/37/11
f 64/37/11 71/28/23 72/30/25 65/38/11
f 65/38/11 72/30/25 73/32/27 66/39/11
f 66/39/11 73/32/27 74/17/12 67/15/11
f 87/40/30 88/33/28 61/34/29 54/41/31
f 54/41/31 61/34/29 62/35/11 55/42/11
f 55/42/11 62/35/11 63/36/11 56/43/11
f 56/43/11 63/36/11 64/37/11 57/44/11
f 57/44/11 64/37/11 65/38/11 58/45/11
f 58/45/11 65/38/11 66/39/11 59/46/11
f 59/46/11 66/39/11 67/15/11 60/13/11
f 86/47/32 87/40/30 54/41/31 47/48/33
f 47/48/33 54/41/31 55/42/11 48/49/11
f 48/49/11 55/42/11 56/43/11 49/50/11
f 49/50/11 56/43/11 57/44/11 50/51/11
f 50/51/11 57/44/11 58/45/11 51/52/11
f 51/52/11 58/45/11 59/46/11 52/53/11
f 52/53/11 59/46/11 60/13/11 53/11/11
f 85/54/34 86/47/32 47/48/33 40/55/35
f 40/55/35 47/48/33 48/49/11 41/56/36
f 41/56/36 48/49/11 49/50/11 42/57/37
f 42/57/37 49/50/11 50/51/11 43/58/38
f 43/58/38 50/51/11 51/52/11 44/59/39
f 44/59/39 51/52/11 52/53/11 45/60/40
f 45/60/40 52/53/11 53/11/11 46/9/9
f 84/61/41 85/54/34 40/55/35 33/62/42
f 33/62/42 40/55/35 41/56/36 34/63/43
f 34/63/43 41/56/36 42/57/37 35/64/44
f 35/64/44 42/57/37 43/58/38 36/65/45
f 36/65/45 43/58/38 44/59/39 37/66/46
f 37/66/46 44/59/39 45/60/40 38/67/47
f 38/67/47 45/60/40 46/9/9 39/6/6
f 82/68/48 84/61/41 33/62/42 25/69/49
f 25/69/49 33/62/42 34/63/43 24/70/50
f 24/70/50 34/63/43 35/64/44 23/71/51
f 23/71/51 35/64/44 36/65/45 22/72/52
f 22/72/52 36/65/45 37/66/46 21/73/53
f 21/73/53 37/66/46 38/67/47 20/74/54
f 20/74/54 38/67/47 39/6/6 19/5/5
f 90/20/15 83/75/55 26/76/56 75/21/16
f 75/21/16 26/76/56 27/77/57 76/23/18
f 76/23/18 27/77/57 28/78/58 77/25/20
f 77/25/20 28/78/58 29/79/59 78/27/22
f 78/27/22 29/79/59 30/80/60 79/29/24
f 79/29/24 30/80/60 31/81/61 80/31/26
f 80/31/26 31/81/61 32/2/2 81/1/1
f 11/82/62 2/83/63 90/20/15
f 1/84/64 5/85/65 84/61/41
f 5/85/65 6/86/66 85/54/34 84/61/41
f 6/86/66 7/87/67 86/47/32 85/54/34
f 7/87/67 8/88/68 87/40/30 86/47/32
f 8/88/68 9/89/69 88/33/28 87/40/30
f 9/89/69 10/90/70 89/19/14 88/33/28
f 10/90/70 11/82/62 90/20/15 89/19/14
f 90/20/15 2/83/63 83/75/55
f 84/61/41 82/68/48 1/84/64
f 146/1/71 91/4/72 4/3/3 32/2/2
f 19/5/5 3/8/8 97/7/73 104/6/74
f 104/6/74 97/7/73 96/10/75 111/9/76
f 111/9/76 96/10/75 95/12/77 118/11/77
f 118/11/77 95/12/77 94/14/77 125/13/77
f 125/13/77 94/14/77 93/16/77 132/15/77
f 132/15/77 93/16/77 92/18/78 139/17/79
f 139/17/79 92/18/78 91/4/72 146/1/71
f 152/19/80 133/22/81 140/21/82 153/20/83
f 133/22/81 134/24/84 141/23/85 140/21/82
f 134/24/84 135/26/86 142/25/87 141/23/85
f 135/26/86 136/28/88 143/27/89 142/25/87
f 136/28/88 137/30/90 144/29/91 143/27/89
f 137/30/90 138/32/92 145/31/93 144/29/91
f 138/32/92 139/17/79 146/1/71 145/31/93
f 151/33/94 126/34/95 133/22/81 152/19/80
f 126/34/95 127/35/77 134/24/84 133/22/81
f 127/35/77 128/36/77 135/26/86 134/24/84
f 128/36/77 129/37/77 136/28/88 135/26/86
f 129/37/77 130/38/77 137/30/90 136/28/88
f 130/38/77 131/39/77 138/32/92 137/30/90
f 131/39/77 132/15/77 139/17/79 138/32/92
f 150/40/96 119/41/97 126/34/95 151/33/94
f 119/41/97 120/42/77 127/35/77 126/34/95
f 120/42/77 121/43/77 128/36/77 127/35/77
f 121/43/77 122/44/77 129/37/77 128/36/77
f 122/44/77 123/45/77 130/38/77 129/37/77
f 123/45/77 124/46/77 131/39/77 130/38/77
f 124/46/77 125/13/77 132/15/77 131/39/77
f 149/47/98 112/48/99 119/41/97 150/40/96
f 112/48/99 113/49/77 120/42/77 119/41/97
f 113/49/77 114/50/77 121/43/77 120/42/77
f 114/50/77 115/51/77 122/44/77 121/43/77
f 115/51/77 116/52/77 123/45/77 122/44/77
f 116/52/77 117/53/77 124/46/77 123/45/77
f 117/53/77 118/11/77 125/13/77 124/46/77
f 148/54/100 105/55/101 112/48/99 149/47/98
f 105/55/101 106/56/102 113/49/77 112/48/99
f 106/56/102 107/57/103 114/50/77 113/49/77
f 107/57/103 108/58/104 115/51/77 114/50/77
f 108/58/104 109/59/105 116/52/77 115/51/77
f 109/59/105 110/60/106 117/53/77 116/52/77
f 110/60/106 111/9/76 118/11/77 117/53/77
f 147/61/107 98/62/108 105/55/101 148/54/100
f 98/62/108 99/63/109 106/56/102 105/55/101
f 99/63/109 100/64/110 107/57/103 106/56/102
f 100/64/110 101/65/111 108/58/104 107/57/103
f 101/65/111 102/66/112 109/59/105 108/58/104
f 102/66/112 103/67/113 110/60/106 109/59/105
f 103/67/113 104/6/74 111/9/76 110/60/106
f 82/68/48 25/69/49 98/62/108 147/61/107
f 25/69/49 24/70/50 99/63/109 98/62/108
f 24/70/50 23/71/51 100/64/110 99/63/109
f 23/71/51 22/72/52 101/65/111 100/64/110
f 22/72/52 21/73/53 102/66/112 101/65/111
f 21/73/53 20/74/54 103/67/113 102/66/112
f 20/74/54 19/5/5 104/6/74 103/67/113
f 153/20/83 140/21/82 26/76/56 83/75/55
f 140/21/82 141/23/85 27/77/57 26/76/56
f 141/23/85 142/25/87 28/78/58 27/77/57
f 142/25/87 143/27/89 29/79/59 28/78/58
f 143/27/89 144/29/91 30/80/60 29/79/59
f 144/29/91 145/31/93 31/81/61 30/80/60
f 145/31/93 146/1/71 32/2/2 31/81/61
f 11/82/62 153/20/83 2/83/63
f 1/84/64 147/61/107 5/85/65
f 5/85/65 147/61/107 148/54/100 6/86/66
f 6/86/66 148/54/100 149/47/98 7/87/67
f 7/87/67 149/47/98 150/40/96 8/88/68
f 8/88/68 150/40/96 151/33/94 9/89/69
f 9/89/69 151/33/94 152/19/80 10/90/70
f 10/90/70 152/19/80 153/20/83 11/82/62
f 153/20/83 83/75/55 2/83/63
f 147/61/107 1/84/64 82/68/48
