# Blender 5.1.2
# www.blender.org
o Plane.002
v 0.097461 -0.011321 -0.752859
v 0.244336 -0.011321 -0.738393
v 0.097462 -0.011321 -5.100960
v -0.049415 -0.011321 -0.738393
v -0.190646 -0.011321 -0.695551
v -0.897686 -0.011321 -5.002945
v -1.854592 -0.011321 -4.712672
v -2.736480 -0.011321 -4.241293
v -3.509463 -0.011321 -3.606922
v -0.320805 -0.011321 -0.625979
v -0.434891 -0.011321 -0.532351
v -0.528518 -0.011321 -0.418266
v -0.598090 -0.011321 -0.288107
v -4.143832 -0.011321 -2.833942
v -4.615213 -0.011321 -1.952054
v -4.905486 -0.011321 -0.995148
v -5.003499 -0.011321 -0.000000
v -0.640932 -0.011321 -0.146875
v -0.655398 -0.011321 0.000000
v -0.640932 -0.011321 0.146875
v -0.598090 -0.011321 0.288107
v -4.905486 -0.011321 0.995148
v -4.615213 -0.011321 1.952054
v -4.143832 -0.011321 2.833942
v -3.509463 -0.011321 3.606922
v -0.528518 -0.011321 0.418266
v -0.434891 -0.011321 0.532351
v -0.320805 -0.011321 0.625979
v -0.190646 -0.011321 0.695551
v -2.736480 -0.011321 4.241293
v -1.854592 -0.011321 4.712672
v -0.897686 -0.011321 5.002945
v 0.097462 -0.011321 5.100960
v -0.049415 -0.011321 0.738393
v 0.097461 -0.011321 0.752859
v 0.244336 -0.011321 0.738393
v 0.385567 -0.011321 0.695551
v 1.092608 -0.011321 5.002945
v 2.049513 -0.011321 4.712672
v 2.931401 -0.011321 4.241293
v 3.704384 -0.011321 3.606922
v 0.515726 -0.011321 0.625979
v 0.629812 -0.011321 0.532351
v 0.723440 -0.011321 0.418266
v 0.793011 -0.011321 0.288107
v 4.338752 -0.011321 2.833942
v 4.810133 -0.011321 1.952054
v 5.100406 -0.011321 0.995148
v 5.198419 -0.011321 -0.000000
v 0.835853 -0.011321 0.146875
v 0.850319 -0.011321 0.000000
v 0.835853 -0.011321 -0.146875
v 0.793011 -0.011321 -0.288107
v 5.100406 -0.011321 -0.995148
v 4.810133 -0.011321 -1.952054
v 4.338752 -0.011321 -2.833942
v 3.704384 -0.011321 -3.606922
v 0.723440 -0.011321 -0.418266
v 0.629812 -0.011321 -0.532351
v 0.515726 -0.011321 -0.625979
v 0.385567 -0.011321 -0.695551
v 2.931401 -0.011321 -4.241293
v 2.049513 -0.011321 -4.712672
v 1.092608 -0.011321 -5.002945
v 1.331218 0.261346 0.511039
v -0.276714 0.534013 1.881106
v -1.783646 0.534012 0.374175
v 3.145303 1.352013 2.036504
v -0.390364 0.806679 2.452463
v -1.212289 0.261346 0.260525
v 2.660930 1.079346 1.712856
v -0.504014 1.079346 3.023820
v -1.237948 0.261346 0.000000
v 2.176558 0.806680 1.389209
v -0.617664 1.352013 3.595177
v -1.820499 0.534012 0.000000
v -2.403049 0.806679 0.000000
v -1.305308 1.352013 3.386583
v 1.692185 0.534013 1.065561
v -2.985599 1.079346 0.000000
v -1.082376 1.079346 2.848377
v 1.207813 0.261346 0.741914
v 1.041738 0.261346 0.944277
v -0.859443 0.806679 2.310170
v -3.568150 1.352013 0.000000
v 1.453663 0.534013 1.356202
v -0.636511 0.534013 1.771964
v -1.212289 0.261346 -0.260526
v -1.783646 0.534012 -0.374175
v -0.413578 0.261346 1.233757
v 1.865589 0.806680 1.768127
v -2.355002 0.806679 -0.487825
v -1.939044 1.352013 3.047843
v 2.277514 1.079346 2.180052
v 2.689439 1.352013 2.591977
v -1.615396 1.079346 2.563471
v -2.926359 1.079346 -0.601476
v 0.839374 0.261346 1.110352
v -1.291748 0.806679 2.079098
v -3.497716 1.352013 -0.715126
v -3.289122 1.352013 -1.402769
v -0.968101 0.534013 1.594725
v 1.163022 0.534013 1.594725
v -2.750916 1.079346 -1.179836
v -0.644453 0.261346 1.110352
v 1.486669 0.806680 2.079098
v 1.810317 1.079346 2.563470
v -0.846816 0.261346 0.944277
v -2.212709 0.806679 -0.956904
v 2.133965 1.352013 3.047843
v -1.258741 0.534013 1.356202
v -1.674503 0.534012 -0.733972
v -1.136297 0.261346 -0.511039
v -1.670666 0.806679 1.768127
v 1.500229 1.352013 3.386582
v -2.950382 1.352013 -2.036504
v -2.082592 1.079346 2.180052
v 1.277297 1.079346 2.848376
v 1.054364 0.806680 2.310170
v -2.494517 1.352013 2.591977
v -2.466009 1.079346 -1.712856
v 0.831432 0.534013 1.771963
v -1.012891 0.261346 0.741914
v -1.981637 0.806679 -1.389209
v -1.497264 0.534012 -1.065561
v -1.497264 0.534012 1.065561
v 0.608500 0.261346 1.233757
v -1.012891 0.261346 -0.741914
v -1.981637 0.806679 1.389209
v 0.812586 1.352013 3.595177
v 0.698936 1.079346 3.023820
v -2.466011 1.079346 1.712856
v -1.939044 1.352013 -3.047843
v 0.585286 0.806680 2.452463
v -2.950383 1.352013 2.036504
v -1.615396 1.079346 -2.563470
v -1.291748 0.806679 -2.079097
v -3.289123 1.352013 1.402768
v 0.471636 0.534013 1.881106
v -0.968101 0.534012 -1.594725
v -2.750916 1.079346 1.179836
v 0.357986 0.261346 1.309749
v 0.097460 0.261346 1.335409
v -2.212710 0.806679 0.956903
v -0.644453 0.261346 -1.110352
v 0.097460 0.534013 1.917959
v -1.674503 0.534012 0.733971
v -2.494517 1.352013 -2.591979
v -2.082592 1.079346 -2.180053
v -1.136297 0.261346 0.511039
v 0.097460 0.806679 2.500509
v -1.670667 0.806679 -1.768128
v -3.497716 1.352013 0.715124
v 0.097460 1.079346 3.083060
v 0.097460 1.352013 3.665610
v -2.926359 1.079346 0.601474
v -1.258741 0.534012 -1.356203
v -0.163064 0.261346 1.309749
v -2.355002 0.806679 0.487824
v -0.846816 0.261346 -0.944277
v -0.434891 -0.011321 -0.532352
v -0.320805 -0.011321 -0.625979
v -2.906442 1.624679 -3.003904
v -0.528519 -0.011321 -0.418266
v -0.598090 -0.011321 -0.288107
v -3.434755 1.624679 -2.360152
v -3.827328 1.624680 -1.625701
v -4.069073 1.624679 -0.828776
v -4.150700 1.624680 0.000000
v -0.640932 -0.011321 -0.146876
v -0.655398 -0.011321 0.000000
v -0.640932 -0.011321 0.146875
v -0.598090 -0.011321 0.288106
v -4.069073 1.624680 0.828774
v -3.827329 1.624680 1.625701
v -3.434756 1.624680 2.360151
v -2.906442 1.624680 3.003902
v -0.528518 -0.011321 0.418266
v -0.434891 -0.011321 0.532351
v -0.320805 -0.011321 0.625979
v -0.190645 -0.011321 0.695551
v -2.262691 1.624680 3.532216
v -1.528240 1.624680 3.924790
v -0.731314 1.624680 4.166533
v 0.097460 1.624680 4.248160
v -0.049414 -0.011321 0.738392
v 0.097460 -0.011321 0.752858
v 0.244336 -0.011321 0.738392
v 0.385567 -0.011321 0.695551
v 0.926236 1.624680 4.166533
v 1.723161 1.624680 3.924789
v 2.457612 1.624680 3.532215
v 3.101365 1.624680 3.003902
v 0.515727 -0.011321 0.625979
v 0.629813 -0.011321 0.532351
v 0.723440 -0.011321 0.418266
v 0.793011 -0.011321 0.288107
v 3.629676 1.624680 2.360151
v 4.022249 1.624680 1.625701
v 4.263994 1.624680 0.828776
v 4.345621 1.624680 -0.000000
v 0.835853 -0.011321 0.146876
v 0.850319 -0.011321 -0.000000
v 0.835854 -0.011321 -0.146876
v 0.793011 -0.011321 -0.288106
v 4.263994 1.624680 -0.828775
v 4.022250 1.624680 -1.625701
v 3.629678 1.624680 -2.360152
v 3.101363 1.624680 -3.003903
v 0.723439 -0.011321 -0.418266
v 0.629812 -0.011321 -0.532351
v 0.515727 -0.011321 -0.625979
v 0.385567 -0.011321 -0.695551
v 2.457613 1.624680 -3.532218
v 1.723161 1.624680 -3.924790
v 0.926235 1.624680 -4.166533
v 0.097461 1.624680 -4.248160
v 0.244336 -0.011321 -0.738393
v 0.097461 -0.011321 -0.752858
v -0.049415 -0.011321 -0.738392
v -0.190646 -0.011321 -0.695551
v -0.731315 1.624679 -4.166533
v -1.528241 1.624680 -3.924789
v -2.262691 1.624680 -3.532216
v -3.077820 -0.011321 0.631602
v 1.865588 0.806679 -1.768127
v -2.631014 -0.011321 -2.728473
v -1.305308 1.352013 -3.386582
v -2.468598 -0.011321 0.510421
v 2.277513 1.079346 -2.180052
v -3.070238 -0.011321 -3.167698
v -1.082376 1.079346 -2.848376
v -1.859376 -0.011321 0.389239
v 2.689438 1.352013 -2.591978
v -0.665901 -0.011321 -1.142452
v -0.859443 0.806679 -2.310170
v -1.250154 -0.011321 0.268057
v 1.207812 0.261346 -0.741914
v -1.010998 -0.011321 -1.658926
v -0.636511 0.534012 -1.771964
v -0.413579 0.261346 -1.233757
v -1.356094 -0.011321 -2.175399
v 1.692185 0.534013 -1.065561
v -1.276555 -0.011321 -0.000000
v -0.617665 1.352013 -3.595177
v -1.701191 -0.011321 -2.691873
v 2.176558 0.806679 -1.389209
v -1.897713 -0.011321 -0.000000
v -2.518870 -0.011321 -0.000000
v 2.660932 1.079346 -1.712857
v -2.046287 -0.011321 -3.208346
v -0.504015 1.079346 -3.023820
v -3.140027 -0.011321 -0.000000
v 3.145304 1.352013 -2.036504
v -2.391384 -0.011321 -3.724820
v -0.390365 0.806679 -2.452463
v -0.276715 0.534012 -1.881106
v -1.616885 -0.011321 -4.138798
v 3.484044 1.352013 -1.402768
v -3.761184 -0.011321 -0.000000
v -0.163065 0.261346 -1.309749
v -1.379179 -0.011321 -3.564923
v 2.945837 1.079346 -1.179836
v -4.382341 -0.011321 -0.000000
v -1.250154 -0.011321 -0.268057
v 2.407631 0.806679 -0.956904
v -1.141472 -0.011321 -2.991049
v 0.097461 0.261346 -1.335409
v -1.859376 -0.011321 -0.389239
v 1.869424 0.534013 -0.733971
v -0.903766 -0.011321 -2.417174
v 0.097461 0.534012 -1.917959
v 0.097461 0.806679 -2.500509
v -0.666059 -0.011321 -1.843300
v 1.331218 0.261346 -0.511039
v -2.468598 -0.011321 -0.510421
v 0.097461 1.079346 -3.083060
v -0.428353 -0.011321 -1.269425
v 3.692637 1.352013 -0.715124
v -3.077820 -0.011321 -0.631603
v -3.687042 -0.011321 -0.752784
v 3.121281 1.079346 -0.601475
v -0.776505 -0.011321 -4.393723
v 0.097461 1.352013 -3.665610
v -4.296264 -0.011321 -0.873966
v 2.549924 0.806679 -0.487825
v -0.655323 -0.011321 -3.784502
v 0.357986 0.261346 -1.309750
v 0.471636 0.534012 -1.881106
v -0.534141 -0.011321 -3.175280
v 1.978567 0.534013 -0.374175
v -4.041338 -0.011321 -1.714347
v 0.585285 0.806679 -2.452463
v -0.412960 -0.011321 -2.566058
v 1.407210 0.261346 -0.260525
v -3.467463 -0.011321 -1.476640
v -2.893589 -0.011321 -1.238934
v 1.432869 0.261346 -0.000000
v -0.291778 -0.011321 -1.956836
v 0.698935 1.079346 -3.023820
v -2.319714 -0.011321 -1.001227
v 2.015419 0.534013 -0.000000
v -0.170597 -0.011321 -1.347615
v 0.812585 1.352013 -3.595177
v 1.500229 1.352013 -3.386583
v 0.971426 -0.011321 -4.393723
v 2.597970 0.806679 -0.000000
v -1.745839 -0.011321 -0.763520
v 1.277297 1.079346 -2.848377
v 0.850244 -0.011321 -3.784502
v 3.180520 1.079346 -0.000000
v -1.171965 -0.011321 -0.525814
v -3.627358 -0.011321 -2.488845
v 3.763071 1.352013 -0.000000
v 0.729063 -0.011321 -3.175280
v 1.054364 0.806679 -2.310170
v -3.110885 -0.011321 -2.143749
v 1.407210 0.261346 0.260525
v 0.607881 -0.011321 -2.566058
v 0.831431 0.534012 -1.771964
v 0.608499 0.261346 -1.233757
v 0.486699 -0.011321 -1.956836
v 1.978566 0.534013 0.374176
v -2.594412 -0.011321 -1.798652
v 2.133965 1.352013 -3.047844
v 0.365518 -0.011321 -1.347615
v 2.549923 0.806680 0.487825
v -2.077938 -0.011321 -1.453556
v -1.561465 -0.011321 -1.108459
v 3.121280 1.079346 0.601476
v 0.097462 -0.011321 -4.479803
v 1.810317 1.079346 -2.563471
v -1.044991 -0.011321 -0.763363
v 3.692637 1.352013 0.715125
v 0.097461 -0.011321 -3.858645
v 1.486670 0.806679 -2.079098
v 1.163022 0.534013 -1.594725
v 0.097461 -0.011321 -3.237488
v 3.484043 1.352013 1.402768
v -0.874116 -0.011321 -0.971575
v 0.839374 0.261346 -1.110352
v 0.097461 -0.011321 -2.616331
v 2.945837 1.079346 1.179836
v -1.313340 -0.011321 -1.410800
v -1.752565 -0.011321 -1.850024
v 2.407630 0.806680 0.956904
v 0.097461 -0.011321 -1.995174
v 1.041737 0.261346 -0.944277
v -2.191789 -0.011321 -2.289249
v 1.869424 0.534013 0.733971
v 0.097461 -0.011321 -1.374016
v 1.453662 0.534013 -1.356202
v -3.687042 -0.011321 0.752784
v -4.296264 -0.011321 0.873966
v -1.171965 -0.011321 0.525814
v -1.745839 -0.011321 0.763520
v -2.319714 -0.011321 1.001227
v -2.893589 -0.011321 1.238934
v -3.467463 -0.011321 1.476640
v -4.041338 -0.011321 1.714347
v -3.627358 -0.011321 2.488845
v -3.110885 -0.011321 2.143749
v -2.594412 -0.011321 1.798652
v -2.077938 -0.011321 1.453556
v -1.561465 -0.011321 1.108459
v -1.044991 -0.011321 0.763363
v -3.070238 -0.011321 3.167698
v -2.631014 -0.011321 2.728473
v -2.191789 -0.011321 2.289249
v -1.752565 -0.011321 1.850024
v -1.313340 -0.011321 1.410800
v -0.874116 -0.011321 0.971575
v -0.665901 -0.011321 1.142452
v -1.010998 -0.011321 1.658926
v -1.356094 -0.011321 2.175399
v -1.701191 -0.011321 2.691873
v -2.046287 -0.011321 3.208346
v -2.391384 -0.011321 3.724820
v -0.428353 -0.011321 1.269425
v -0.666059 -0.011321 1.843300
v -0.903766 -0.011321 2.417174
v -1.141472 -0.011321 2.991049
v -1.379179 -0.011321 3.564923
v -1.616885 -0.011321 4.138798
v -0.776505 -0.011321 4.393723
v -0.655323 -0.011321 3.784501
v -0.534142 -0.011321 3.175280
v -0.412960 -0.011321 2.566058
v -0.291778 -0.011321 1.956836
v -0.170597 -0.011321 1.347615
v 0.097462 -0.011321 4.479803
v 0.097461 -0.011321 3.858645
v 0.097461 -0.011321 3.237488
v 0.097461 -0.011321 2.616331
v 0.097461 -0.011321 1.995174
v 0.097461 -0.011321 1.374016
v 0.365518 -0.011321 1.347615
v 0.486699 -0.011321 1.956836
v 0.607881 -0.011321 2.566058
v 0.729063 -0.011321 3.175280
v 0.850244 -0.011321 3.784502
v 0.971426 -0.011321 4.393723
v 0.623274 -0.011321 1.269425
v 0.860980 -0.011321 1.843300
v 1.098687 -0.011321 2.417174
v 1.336393 -0.011321 2.991049
v 1.574100 -0.011321 3.564923
v 1.811806 -0.011321 4.138798
v 2.586305 -0.011321 3.724819
v 2.241208 -0.011321 3.208346
v 1.896112 -0.011321 2.691873
v 1.551015 -0.011321 2.175399
v 1.205919 -0.011321 1.658926
v 0.860822 -0.011321 1.142452
v 3.265159 -0.011321 3.167698
v 2.825935 -0.011321 2.728473
v 2.386710 -0.011321 2.289249
v 1.947486 -0.011321 1.850024
v 1.508261 -0.011321 1.410800
v 1.069037 -0.011321 0.971575
v 1.239913 -0.011321 0.763363
v 1.756386 -0.011321 1.108459
v 2.272860 -0.011321 1.453556
v 2.789333 -0.011321 1.798652
v 3.305806 -0.011321 2.143749
v 3.822279 -0.011321 2.488845
v 1.366886 -0.011321 0.525814
v 1.940760 -0.011321 0.763520
v 2.514635 -0.011321 1.001227
v 3.088510 -0.011321 1.238934
v 3.662384 -0.011321 1.476640
v 4.236259 -0.011321 1.714347
v 4.491184 -0.011321 0.873966
v 3.881962 -0.011321 0.752784
v 3.272740 -0.011321 0.631602
v 2.663518 -0.011321 0.510421
v 2.054296 -0.011321 0.389239
v 1.445075 -0.011321 0.268057
v 4.577262 -0.011321 -0.000000
v 3.956105 -0.011321 -0.000000
v 3.334948 -0.011321 -0.000000
v 2.713790 -0.011321 -0.000000
v 2.092633 -0.011321 -0.000000
v 1.471476 -0.011321 -0.000000
v 1.445075 -0.011321 -0.268057
v 2.054297 -0.011321 -0.389239
v 2.663519 -0.011321 -0.510421
v 3.272741 -0.011321 -0.631603
v 3.881963 -0.011321 -0.752784
v 4.491184 -0.011321 -0.873966
v 1.366886 -0.011321 -0.525814
v 1.940760 -0.011321 -0.763520
v 2.514635 -0.011321 -1.001227
v 3.088510 -0.011321 -1.238934
v 3.662384 -0.011321 -1.476640
v 4.236259 -0.011321 -1.714347
v 3.822279 -0.011321 -2.488845
v 3.305806 -0.011321 -2.143749
v 2.789332 -0.011321 -1.798652
v 2.272859 -0.011321 -1.453556
v 1.756386 -0.011321 -1.108459
v 1.239913 -0.011321 -0.763363
v 3.265159 -0.011321 -3.167698
v 2.825935 -0.011321 -2.728473
v 2.386710 -0.011321 -2.289249
v 1.947486 -0.011321 -1.850024
v 1.508261 -0.011321 -1.410800
v 1.069037 -0.011321 -0.971575
v 0.860822 -0.011321 -1.142452
v 1.205919 -0.011321 -1.658926
v 1.551015 -0.011321 -2.175400
v 1.896112 -0.011321 -2.691873
v 2.241209 -0.011321 -3.208347
v 2.586305 -0.011321 -3.724820
v 0.623274 -0.011321 -1.269425
v 0.860980 -0.011321 -1.843300
v 1.098687 -0.011321 -2.417174
v 1.336393 -0.011321 -2.991049
v 1.574100 -0.011321 -3.564923
v 1.811806 -0.011321 -4.138798
vn 0.0827 0.9057 0.4158
vn 0.1622 0.9057 0.3917
vn -0.0000 1.0000 -0.0000
vn 0.1622 0.9057 -0.3917
vn 0.0827 0.9057 -0.4158
vn -0.3525 0.9057 -0.2355
vn -0.3917 0.9057 -0.1622
vn 0.4158 0.9057 -0.0827
vn 0.4239 0.9057 -0.0000
vn -0.2998 0.9057 -0.2998
vn 0.4158 0.9057 0.0827
vn 0.2355 0.9057 -0.3525
vn -0.2355 0.9057 -0.3525
vn 0.3917 0.9057 0.1622
vn 0.2998 0.9057 -0.2998
vn -0.1622 0.9057 -0.3917
vn 0.3525 0.9057 0.2355
vn 0.3525 0.9057 -0.2355
vn -0.0827 0.9057 -0.4158
vn 0.2998 0.9057 0.2998
vn 0.3917 0.9057 -0.1622
vn -0.0000 0.9057 -0.4239
vn 0.2355 0.9057 0.3525
vn -0.4158 0.9057 -0.0827
vn -0.4239 0.9057 -0.0000
vn -0.4158 0.9057 0.0827
vn -0.3917 0.9057 0.1622
vn -0.3525 0.9057 0.2355
vn -0.2998 0.9057 0.2998
vn -0.0000 0.9057 0.4239
vn -0.0827 0.9057 0.4158
vn -0.1622 0.9057 0.3917
vn -0.2355 0.9057 0.3525
vt 0.906250 0.000000
vt 0.906250 0.166667
vt 0.937500 0.166667
vt 0.937500 0.000000
vt 0.968750 0.857143
vt 0.968750 1.000000
vt 1.000000 1.000000
vt 1.000000 0.857143
vt 0.000000 0.857143
vt 0.000000 1.000000
vt 0.031250 1.000000
vt 0.031250 0.857143
vt 0.062500 1.000000
vt 0.062500 0.857143
vt 0.093750 1.000000
vt 0.093750 0.857143
vt 0.125000 1.000000
vt 0.125000 0.857143
vt 0.156250 1.000000
vt 0.156250 0.857143
vt 0.187500 1.000000
vt 0.187500 0.857143
vt 0.218750 1.000000
vt 0.218750 0.857143
vt 0.250000 1.000000
vt 0.250000 0.857143
vt 0.281250 1.000000
vt 0.281250 0.857143
vt 0.312500 1.000000
vt 0.312500 0.857143
vt 0.343750 1.000000
vt 0.343750 0.857143
vt 0.375000 1.000000
vt 0.375000 0.857143
vt 0.406250 1.000000
vt 0.406250 0.857143
vt 0.437500 1.000000
vt 0.437500 0.857143
vt 0.468750 1.000000
vt 0.468750 0.857143
vt 0.500000 1.000000
vt 0.500000 0.857143
vt 0.531250 1.000000
vt 0.531250 0.857143
vt 0.562500 1.000000
vt 0.562500 0.857143
vt 0.593750 1.000000
vt 0.593750 0.857143
vt 0.625000 1.000000
vt 0.625000 0.857143
vt 0.656250 1.000000
vt 0.656250 0.857143
vt 0.687500 1.000000
vt 0.687500 0.857143
vt 0.718750 1.000000
vt 0.718750 0.857143
vt 0.750000 1.000000
vt 0.750000 0.857143
vt 0.781250 1.000000
vt 0.781250 0.857143
vt 0.812500 1.000000
vt 0.812500 0.857143
vt 0.843750 1.000000
vt 0.843750 0.857143
vt 0.875000 1.000000
vt 0.875000 0.857143
vt 0.906250 1.000000
vt 0.906250 0.857143
vt 0.937500 1.000000
vt 0.937500 0.857143
vt 0.312500 0.500000
vt 0.312500 0.666667
vt 0.343750 0.666667
vt 0.343750 0.500000
vt 0.531250 0.166667
vt 0.531250 0.333333
vt 0.562500 0.333333
vt 0.562500 0.166667
vt 0.156250 0.833333
vt 0.156250 0.666667
vt 0.125000 0.666667
vt 0.125000 0.833333
vt 0.312500 0.333333
vt 0.343750 0.333333
vt 0.531250 0.000000
vt 0.562500 0.000000
vt 0.312500 0.166667
vt 0.343750 0.166667
vt 0.500000 0.166667
vt 0.500000 0.333333
vt 0.125000 0.333333
vt 0.125000 0.166667
vt 0.093750 0.166667
vt 0.093750 0.333333
vt 0.312500 0.000000
vt 0.343750 0.000000
vt 0.531250 0.500000
vt 0.500000 0.500000
vt 0.125000 0.500000
vt 0.093750 0.500000
vt 0.281250 0.666667
vt 0.281250 0.833333
vt 0.312500 0.833333
vt 0.531250 0.666667
vt 0.500000 0.666667
vt 0.093750 0.666667
vt 0.281250 0.500000
vt 0.531250 0.833333
vt 0.500000 0.833333
vt 0.093750 0.833333
vt 0.281250 0.333333
vt 0.281250 0.166667
vt 0.468750 0.166667
vt 0.468750 0.333333
vt 0.062500 0.666667
vt 0.062500 0.833333
vt 0.281250 0.000000
vt 0.468750 0.500000
vt 0.062500 0.500000
vt 0.250000 0.166667
vt 0.250000 0.333333
vt 0.468750 0.666667
vt 0.062500 0.333333
vt 0.250000 0.500000
vt 0.468750 0.833333
vt 0.062500 0.166667
vt 0.250000 0.666667
vt 0.062500 0.000000
vt 0.093750 0.000000
vt 0.250000 0.833333
vt 0.437500 0.666667
vt 0.437500 0.833333
vt 0.031250 0.666667
vt 0.031250 0.833333
vt 0.437500 0.500000
vt 0.031250 0.500000
vt 0.218750 0.166667
vt 0.218750 0.333333
vt 0.437500 0.333333
vt 0.031250 0.333333
vt 0.218750 0.500000
vt 0.437500 0.166667
vt 0.031250 0.166667
vt 0.218750 0.666667
vt 0.437500 0.000000
vt 0.468750 0.000000
vt 0.031250 0.000000
vt 0.218750 0.833333
vt 0.406250 0.666667
vt 0.406250 0.833333
vt 0.000000 0.666667
vt 0.000000 0.833333
vt 0.406250 0.500000
vt 0.000000 0.500000
vt 0.187500 0.666667
vt 0.187500 0.833333
vt 0.406250 0.333333
vt 0.000000 0.333333
vt 0.187500 0.500000
vt 0.406250 0.166667
vt 0.000000 0.166667
vt 0.187500 0.333333
vt 0.406250 0.000000
vt 0.000000 0.000000
vt 0.187500 0.166667
vt 0.375000 0.166667
vt 0.375000 0.333333
vt 0.968750 0.666667
vt 0.968750 0.833333
vt 1.000000 0.833333
vt 1.000000 0.666667
vt 0.187500 0.000000
vt 0.218750 0.000000
vt 0.375000 0.500000
vt 0.968750 0.500000
vt 1.000000 0.500000
vt 0.375000 0.666667
vt 0.968750 0.333333
vt 1.000000 0.333333
vt 0.156250 0.500000
vt 0.375000 0.833333
vt 0.968750 0.166667
vt 1.000000 0.166667
vt 0.156250 0.333333
vt 0.968750 0.000000
vt 1.000000 0.000000
vt 0.156250 0.166667
vt 0.906250 0.666667
vt 0.906250 0.833333
vt 0.937500 0.833333
vt 0.937500 0.666667
vt 0.156250 0.000000
vt 0.906250 0.500000
vt 0.937500 0.500000
vt 0.906250 0.333333
vt 0.937500 0.333333
vt 0.343750 0.833333
vt 0.562500 0.500000
vt 0.562500 0.666667
vt 0.562500 0.833333
vt 0.593750 0.166667
vt 0.593750 0.000000
vt 0.593750 0.333333
vt 0.593750 0.500000
vt 0.593750 0.666667
vt 0.593750 0.833333
vt 0.625000 0.833333
vt 0.625000 0.666667
vt 0.625000 0.500000
vt 0.625000 0.333333
vt 0.625000 0.166667
vt 0.656250 0.833333
vt 0.656250 0.666667
vt 0.656250 0.500000
vt 0.656250 0.333333
vt 0.656250 0.166667
vt 0.656250 0.000000
vt 0.687500 0.166667
vt 0.687500 0.000000
vt 0.687500 0.333333
vt 0.687500 0.500000
vt 0.687500 0.666667
vt 0.687500 0.833333
vt 0.718750 0.166667
vt 0.718750 0.000000
vt 0.718750 0.333333
vt 0.718750 0.500000
vt 0.718750 0.666667
vt 0.718750 0.833333
vt 0.750000 0.833333
vt 0.750000 0.666667
vt 0.750000 0.500000
vt 0.875000 0.000000
vt 0.875000 0.166667
vt 0.625000 0.571429
vt 0.625000 0.714286
vt 0.656250 0.714286
vt 0.656250 0.571429
vt 0.781250 0.285714
vt 0.781250 0.428571
vt 0.812500 0.428571
vt 0.812500 0.285714
vt 0.843750 0.000000
vt 0.843750 0.166667
vt 0.625000 0.428571
vt 0.656250 0.428571
vt 0.781250 0.142857
vt 0.812500 0.142857
vt 0.812500 0.833333
vt 0.843750 0.833333
vt 0.625000 0.285714
vt 0.656250 0.285714
vt 0.781250 0.000000
vt 0.812500 0.000000
vt 0.781250 0.833333
vt 0.625000 0.142857
vt 0.656250 0.142857
vt 0.812500 0.714286
vt 0.843750 0.714286
vt 0.781250 0.166667
vt 0.750000 0.000000
vt 0.750000 0.166667
vt 0.625000 0.000000
vt 0.812500 0.571429
vt 0.843750 0.571429
vt 0.687500 0.714286
vt 0.875000 0.333333
vt 0.843750 0.428571
vt 0.687500 0.571429
vt 0.875000 0.500000
vt 0.843750 0.285714
vt 0.687500 0.428571
vt 0.875000 0.666667
vt 0.843750 0.142857
vt 0.687500 0.285714
vt 0.875000 0.833333
vt 0.687500 0.142857
vt 0.875000 0.714286
vt 0.843750 0.333333
vt 0.875000 0.571429
vt 0.718750 0.714286
vt 0.843750 0.500000
vt 0.875000 0.428571
vt 0.500000 0.000000
vt 0.718750 0.571429
vt 0.843750 0.666667
vt 0.875000 0.285714
vt 0.718750 0.428571
vt 0.875000 0.142857
vt 0.718750 0.285714
vt 0.718750 0.142857
vt 0.812500 0.666667
vt 0.906250 0.714286
vt 0.375000 0.000000
vt 0.812500 0.500000
vt 0.906250 0.571429
vt 0.750000 0.714286
vt 0.812500 0.333333
vt 0.906250 0.428571
vt 0.750000 0.571429
vt 0.812500 0.166667
vt 0.906250 0.285714
vt 0.750000 0.428571
vt 0.906250 0.142857
vt 0.250000 0.000000
vt 0.750000 0.285714
vt 0.781250 0.666667
vt 0.750000 0.142857
vt 0.781250 0.500000
vt 0.937500 0.714286
vt 0.781250 0.333333
vt 0.937500 0.571429
vt 0.781250 0.714286
vt 0.937500 0.428571
vt 0.125000 0.000000
vt 0.781250 0.571429
vt 0.937500 0.285714
vt 0.750000 0.333333
vt 0.937500 0.142857
vt 0.968750 0.714286
vt 0.968750 0.571429
vt 0.968750 0.428571
vt 0.968750 0.285714
vt 0.968750 0.142857
vt 0.593750 0.142857
vt 0.593750 0.285714
vt 0.593750 0.428571
vt 0.593750 0.571429
vt 0.593750 0.714286
vt 0.562500 0.142857
vt 0.562500 0.285714
vt 0.562500 0.428571
vt 0.562500 0.571429
vt 0.562500 0.714286
vt 0.531250 0.142857
vt 0.531250 0.285714
vt 0.531250 0.428571
vt 0.531250 0.571429
vt 0.531250 0.714286
vt 0.500000 0.142857
vt 0.500000 0.285714
vt 0.500000 0.428571
vt 0.500000 0.571429
vt 0.500000 0.714286
vt 0.468750 0.142857
vt 0.468750 0.285714
vt 0.468750 0.428571
vt 0.468750 0.571429
vt 0.468750 0.714286
vt 0.437500 0.142857
vt 0.437500 0.285714
vt 0.437500 0.428571
vt 0.437500 0.571429
vt 0.437500 0.714286
vt 0.406250 0.142857
vt 0.406250 0.285714
vt 0.406250 0.428571
vt 0.406250 0.571429
vt 0.406250 0.714286
vt 0.375000 0.142857
vt 0.375000 0.285714
vt 0.375000 0.428571
vt 0.375000 0.571429
vt 0.375000 0.714286
vt 0.343750 0.142857
vt 0.343750 0.285714
vt 0.343750 0.428571
vt 0.343750 0.571429
vt 0.343750 0.714286
vt 0.312500 0.142857
vt 0.312500 0.285714
vt 0.312500 0.428571
vt 0.312500 0.571429
vt 0.312500 0.714286
vt 0.281250 0.142857
vt 0.281250 0.285714
vt 0.281250 0.428571
vt 0.281250 0.571429
vt 0.281250 0.714286
vt 0.250000 0.142857
vt 0.250000 0.285714
vt 0.250000 0.428571
vt 0.250000 0.571429
vt 0.250000 0.714286
vt 0.218750 0.142857
vt 0.218750 0.285714
vt 0.218750 0.428571
vt 0.218750 0.571429
vt 0.218750 0.714286
vt 0.187500 0.142857
vt 0.187500 0.285714
vt 0.187500 0.428571
vt 0.187500 0.571429
vt 0.187500 0.714286
vt 0.156250 0.142857
vt 0.156250 0.285714
vt 0.156250 0.428571
vt 0.156250 0.571429
vt 0.156250 0.714286
vt 0.125000 0.142857
vt 0.125000 0.285714
vt 0.125000 0.428571
vt 0.125000 0.571429
vt 0.125000 0.714286
vt 0.093750 0.142857
vt 0.093750 0.285714
vt 0.093750 0.428571
vt 0.093750 0.571429
vt 0.093750 0.714286
vt 0.062500 0.142857
vt 0.062500 0.285714
vt 0.062500 0.428571
vt 0.062500 0.571429
vt 0.062500 0.714286
vt 0.031250 0.142857
vt 0.031250 0.285714
vt 0.031250 0.428571
vt 0.031250 0.571429
vt 0.031250 0.714286
vt 0.000000 0.142857
vt 0.000000 0.285714
vt 0.000000 0.428571
vt 0.000000 0.571429
vt 0.000000 0.714286
vt 1.000000 0.142857
vt 1.000000 0.285714
vt 1.000000 0.428571
vt 1.000000 0.571429
vt 1.000000 0.714286
s 1
f 220/1/1 261/2/1 241/3/2 221/4/2
f 306/5/3 64/6/3 3/7/3 331/8/3
f 331/9/3 3/10/3 6/11/3 283/12/3
f 283/12/3 6/11/3 7/13/3 258/14/3
f 258/14/3 7/13/3 8/15/3 255/16/3
f 255/16/3 8/15/3 9/17/3 231/18/3
f 231/18/3 9/17/3 14/19/3 313/20/3
f 313/20/3 14/19/3 15/21/3 292/22/3
f 292/22/3 15/21/3 16/23/3 285/24/3
f 285/24/3 16/23/3 17/25/3 264/26/3
f 264/26/3 17/25/3 22/27/3 354/28/3
f 354/28/3 22/27/3 23/29/3 360/30/3
f 360/30/3 23/29/3 24/31/3 361/32/3
f 361/32/3 24/31/3 25/33/3 367/34/3
f 367/34/3 25/33/3 30/35/3 378/36/3
f 378/36/3 30/35/3 31/37/3 384/38/3
f 384/38/3 31/37/3 32/39/3 385/40/3
f 385/40/3 32/39/3 33/41/3 391/42/3
f 391/42/3 33/41/3 38/43/3 402/44/3
f 402/44/3 38/43/3 39/45/3 408/46/3
f 408/46/3 39/45/3 40/47/3 409/48/3
f 409/48/3 40/47/3 41/49/3 415/50/3
f 415/50/3 41/49/3 46/51/3 426/52/3
f 426/52/3 46/51/3 47/53/3 432/54/3
f 432/54/3 47/53/3 48/55/3 433/56/3
f 433/56/3 48/55/3 49/57/3 439/58/3
f 439/58/3 49/57/3 54/59/3 450/60/3
f 450/60/3 54/59/3 55/61/3 456/62/3
f 456/62/3 55/61/3 56/63/3 457/64/3
f 457/64/3 56/63/3 57/65/3 463/66/3
f 463/66/3 57/65/3 62/67/3 474/68/3
f 474/68/3 62/67/3 63/69/3 480/70/3
f 84/71/4 81/72/4 72/73/5 69/74/5
f 82/75/6 79/76/6 350/77/7 65/78/7
f 153/79/8 156/80/8 80/81/9 85/82/9
f 87/83/4 84/71/4 69/74/5 66/84/5
f 196/85/6 82/75/6 65/78/7 197/86/7
f 174/19/8 153/79/8 85/82/9 169/17/9
f 90/87/4 87/83/4 66/84/5 158/88/5
f 79/76/6 82/75/6 83/89/10 86/90/10
f 76/91/9 73/92/9 88/93/11 89/94/11
f 181/95/4 90/87/4 158/88/5 186/96/5
f 74/97/6 79/76/6 86/90/10 91/98/10
f 77/99/9 76/91/9 89/94/11 92/100/11
f 96/101/12 93/102/12 78/103/4 81/72/4
f 71/104/6 74/97/6 91/98/10 94/105/10
f 80/81/9 77/99/9 92/100/11 97/106/11
f 99/107/12 96/101/12 81/72/4 84/71/4
f 68/108/6 71/104/6 94/105/10 95/109/10
f 85/82/9 80/81/9 97/106/11 100/110/11
f 102/111/12 99/107/12 84/71/4 87/83/4
f 198/43/6 68/108/6 95/109/10 193/41/10
f 169/17/9 85/82/9 100/110/11 168/15/11
f 105/112/12 102/111/12 87/83/4 90/87/4
f 86/90/10 83/89/10 98/113/13 103/114/13
f 104/115/14 101/116/14 100/110/11 97/106/11
f 180/117/12 105/112/12 90/87/4 181/95/4
f 91/98/10 86/90/10 103/114/13 106/118/13
f 109/119/14 104/115/14 97/106/11 92/100/11
f 102/111/12 105/112/12 108/120/15 111/121/15
f 94/105/10 91/98/10 106/118/13 107/122/13
f 112/123/14 109/119/14 92/100/11 89/94/11
f 99/107/12 102/111/12 111/121/15 114/124/15
f 95/109/10 94/105/10 107/122/13 110/125/13
f 113/126/14 112/123/14 89/94/11 88/93/11
f 96/101/12 99/107/12 114/124/15 117/127/15
f 193/41/10 95/109/10 110/125/13 192/39/13
f 165/128/14 113/126/14 88/93/11 170/129/11
f 93/102/12 96/101/12 117/127/15 120/130/15
f 118/131/16 115/132/16 110/125/13 107/122/13
f 121/133/17 116/134/17 101/116/14 104/115/14
f 182/27/12 93/102/12 120/130/15 177/25/15
f 119/135/16 118/131/16 107/122/13 106/118/13
f 124/136/17 121/133/17 104/115/14 109/119/14
f 111/121/15 108/120/15 123/137/18 126/138/18
f 122/139/16 119/135/16 106/118/13 103/114/13
f 125/140/17 124/136/17 109/119/14 112/123/14
f 114/124/15 111/121/15 126/138/18 129/141/18
f 127/142/16 122/139/16 103/114/13 98/113/13
f 128/143/17 125/140/17 112/123/14 113/126/14
f 117/127/15 114/124/15 129/141/18 132/144/18
f 189/145/16 127/142/16 98/113/13 194/146/13
f 164/147/17 128/143/17 113/126/14 165/128/14
f 120/130/15 117/127/15 132/144/18 135/148/18
f 131/149/19 130/150/19 115/132/16 118/131/16
f 149/151/20 148/152/20 116/134/17 121/133/17
f 177/25/15 120/130/15 135/148/18 176/23/18
f 134/153/19 131/149/19 118/131/16 119/135/16
f 152/154/20 149/151/20 121/133/17 124/136/17
f 141/155/21 138/156/21 135/148/18 132/144/18
f 139/157/19 134/153/19 119/135/16 122/139/16
f 157/158/20 152/154/20 124/136/17 125/140/17
f 144/159/21 141/155/21 132/144/18 129/141/18
f 142/160/19 139/157/19 122/139/16 127/142/16
f 160/161/20 157/158/20 125/140/17 128/143/17
f 147/162/21 144/159/21 129/141/18 126/138/18
f 188/163/19 142/160/19 127/142/16 189/145/16
f 161/164/20 160/161/20 128/143/17 164/147/17
f 150/165/21 147/162/21 126/138/18 123/137/18
f 139/157/19 142/160/19 143/166/22 146/167/22
f 136/168/23 133/169/23 148/170/20 149/171/20
f 173/172/21 150/165/21 123/137/18 178/173/18
f 134/153/19 139/157/19 146/167/22 151/174/22
f 137/175/23 136/168/23 149/171/20 152/176/20
f 156/80/8 153/79/8 138/156/21 141/155/21
f 131/149/19 134/153/19 151/174/22 154/177/22
f 140/178/23 137/175/23 152/176/20 157/179/20
f 159/180/8 156/80/8 141/155/21 144/159/21
f 130/150/19 131/149/19 154/177/22 155/181/22
f 145/182/23 140/178/23 157/179/20 160/183/20
f 67/184/8 159/180/8 144/159/21 147/162/21
f 190/35/19 130/150/19 155/181/22 185/33/22
f 162/185/23 145/182/23 160/183/20 161/186/20
f 70/187/8 67/184/8 147/162/21 150/165/21
f 146/167/22 143/166/22 158/88/5 66/84/5
f 252/188/1 245/189/1 228/190/2 232/191/2
f 172/192/8 70/187/8 150/165/21 173/172/21
f 151/174/22 146/167/22 66/84/5 69/74/5
f 256/193/1 252/188/1 232/191/2 236/194/2
f 67/184/8 70/187/8 73/92/9 76/91/9
f 154/177/22 151/174/22 69/74/5 72/73/5
f 257/195/1 256/193/1 236/194/2 240/196/2
f 159/180/8 67/184/8 76/91/9 77/99/9
f 155/181/22 154/177/22 72/73/5 75/197/5
f 261/2/1 257/195/1 240/196/2 241/3/2
f 156/80/8 159/180/8 77/99/9 80/81/9
f 185/33/22 155/181/22 75/197/5 184/31/5
f 480/70/3 63/69/3 64/6/3 306/5/3
f 228/190/2 223/69/2 224/6/23 133/169/23
f 79/76/6 74/97/6 346/198/7 350/77/7
f 74/97/6 71/104/6 343/199/7 346/198/7
f 71/104/6 68/108/6 339/200/7 343/199/7
f 197/86/7 65/78/7 318/201/24 202/202/24
f 65/78/7 350/77/7 323/203/24 318/201/24
f 350/77/7 346/198/7 327/204/24 323/203/24
f 346/198/7 343/199/7 330/205/24 327/204/24
f 343/199/7 339/200/7 334/206/24 330/205/24
f 201/49/25 314/207/25 334/206/24 200/47/24
f 314/207/25 311/208/25 330/205/24 334/206/24
f 311/208/25 307/209/25 327/204/24 330/205/24
f 307/209/25 302/210/25 323/203/24 327/204/24
f 302/210/25 298/211/25 318/201/24 323/203/24
f 206/51/26 279/212/26 314/207/25 201/49/25
f 279/212/26 282/213/26 311/208/25 314/207/25
f 282/213/26 286/214/26 307/209/25 311/208/25
f 286/214/26 291/215/26 302/210/25 307/209/25
f 291/215/26 295/216/26 298/211/25 302/210/25
f 204/217/26 295/216/26 275/218/27 205/219/27
f 295/216/26 291/215/26 270/220/27 275/218/27
f 291/215/26 286/214/26 266/221/27 270/220/27
f 286/214/26 282/213/26 263/222/27 266/221/27
f 282/213/26 279/212/26 259/223/27 263/222/27
f 205/219/27 275/218/27 238/224/28 210/225/28
f 275/218/27 270/220/27 243/226/28 238/224/28
f 270/220/27 266/221/27 247/227/28 243/226/28
f 266/221/27 263/222/27 250/228/28 247/227/28
f 263/222/27 259/223/27 254/229/28 250/228/28
f 209/57/29 234/230/29 254/229/28 208/55/28
f 234/230/29 230/231/29 250/228/28 254/229/28
f 230/231/29 226/232/29 247/227/28 250/228/28
f 261/2/1 220/1/1 219/233/30 268/234/30
f 417/235/3 416/236/3 425/237/3 424/238/3
f 232/191/2 228/190/2 133/169/23 136/168/23
f 446/239/3 447/240/3 453/241/3 452/242/3
f 268/234/30 219/233/30 218/243/31 288/244/31
f 418/245/3 417/235/3 424/238/3 423/246/3
f 236/194/2 232/191/2 136/168/23 137/175/23
f 445/247/3 446/239/3 452/242/3 451/248/3
f 305/249/32 215/61/32 216/63/31 304/250/31
f 419/251/3 418/245/3 423/246/3 422/252/3
f 240/196/2 236/194/2 137/175/23 140/178/23
f 52/253/3 445/247/3 451/248/3 53/254/3
f 325/255/33 214/59/33 215/61/32 305/249/32
f 420/256/3 419/251/3 422/252/3 421/257/3
f 241/3/2 240/196/2 140/178/23 145/182/23
f 455/258/3 456/62/3 457/64/3 458/259/3
f 341/260/33 212/253/33 211/261/29 348/262/29
f 43/263/3 420/256/3 421/257/3 44/217/3
f 221/4/2 241/3/2 145/182/23 162/185/23
f 454/264/3 455/258/3 458/259/3 459/265/3
f 348/262/29 211/261/29 210/225/28 238/224/28
f 425/237/3 426/52/3 432/54/3 431/266/3
f 257/195/1 261/2/1 268/234/30 272/267/30
f 453/241/3 454/264/3 459/265/3 460/268/3
f 259/223/27 207/53/27 208/55/28 254/229/28
f 424/238/3 425/237/3 431/266/3 430/269/3
f 256/193/1 257/195/1 272/267/30 273/270/30
f 452/242/3 453/241/3 460/268/3 461/271/3
f 279/212/26 206/51/26 207/53/27 259/223/27
f 423/246/3 424/238/3 430/269/3 429/272/3
f 252/188/1 256/193/1 273/270/30 277/273/30
f 451/248/3 452/242/3 461/271/3 462/274/3
f 295/216/26 204/217/26 203/263/25 298/211/25
f 422/252/3 423/246/3 429/272/3 428/275/3
f 245/189/1 252/188/1 277/273/30 284/276/30
f 53/254/3 451/248/3 462/274/3 58/243/3
f 298/211/25 203/263/25 202/202/24 318/201/24
f 421/257/3 422/252/3 428/275/3 427/277/3
f 222/67/1 245/189/1 284/276/30 217/65/30
f 458/259/3 457/64/3 463/66/3 464/278/3
f 339/200/7 199/45/7 200/47/24 334/206/24
f 44/217/3 421/257/3 427/277/3 45/219/3
f 272/267/30 268/234/30 288/244/31 289/279/31
f 459/265/3 458/259/3 464/278/3 465/280/3
f 68/108/6 198/43/6 199/45/7 339/200/7
f 431/266/3 432/54/3 433/56/3 434/281/3
f 273/270/30 272/267/30 289/279/31 293/282/31
f 460/268/3 459/265/3 465/280/3 466/283/3
f 82/75/6 196/85/6 195/284/10 83/89/10
f 430/269/3 431/266/3 434/281/3 435/285/3
f 277/273/30 273/270/30 293/282/31 300/286/31
f 461/271/3 460/268/3 466/283/3 467/287/3
f 83/89/10 195/284/10 194/146/13 98/113/13
f 429/272/3 430/269/3 435/285/3 436/288/3
f 284/276/30 277/273/30 300/286/31 304/250/31
f 462/274/3 461/271/3 467/287/3 468/289/3
f 115/132/16 191/37/16 192/39/13 110/125/13
f 428/275/3 429/272/3 436/288/3 437/290/3
f 217/65/30 284/276/30 304/250/31 216/63/31
f 58/243/3 462/274/3 468/289/3 59/233/3
f 130/150/19 190/35/19 191/37/16 115/132/16
f 427/277/3 428/275/3 437/290/3 438/291/3
f 309/292/32 305/249/32 304/250/31 300/286/31
f 464/278/3 463/66/3 474/68/3 473/293/3
f 142/160/19 188/163/19 187/294/22 143/166/22
f 45/219/3 427/277/3 438/291/3 50/225/3
f 316/295/32 309/292/32 300/286/31 293/282/31
f 465/280/3 464/278/3 473/293/3 472/296/3
f 143/166/22 187/294/22 186/96/5 158/88/5
f 434/281/3 433/56/3 439/58/3 440/297/3
f 320/298/32 316/295/32 293/282/31 289/279/31
f 466/283/3 465/280/3 472/296/3 471/299/3
f 78/103/4 183/29/4 184/31/5 75/197/5
f 435/285/3 434/281/3 440/297/3 441/300/3
f 321/301/32 320/298/32 289/279/31 288/244/31
f 467/287/3 466/283/3 471/299/3 470/302/3
f 93/102/12 182/27/12 183/29/4 78/103/4
f 436/288/3 435/285/3 441/300/3 442/303/3
f 213/254/32 321/301/32 288/244/31 218/243/31
f 468/289/3 467/287/3 470/302/3 469/304/3
f 105/112/12 180/117/12 179/305/15 108/120/15
f 437/290/3 436/288/3 442/303/3 443/306/3
f 332/307/33 325/255/33 305/249/32 309/292/32
f 59/233/3 468/289/3 469/304/3 60/1/3
f 108/120/15 179/305/15 178/173/18 123/137/18
f 438/291/3 437/290/3 443/306/3 444/308/3
f 336/309/33 332/307/33 309/292/32 316/295/32
f 473/293/3 474/68/3 480/70/3 479/310/3
f 138/156/21 175/21/21 176/23/18 135/148/18
f 50/225/3 438/291/3 444/308/3 51/261/3
f 337/311/33 336/309/33 316/295/32 320/298/32
f 472/296/3 473/293/3 479/310/3 478/312/3
f 153/79/8 174/19/8 175/21/21 138/156/21
f 440/297/3 439/58/3 450/60/3 449/313/3
f 341/260/33 337/311/33 320/298/32 321/301/32
f 471/299/3 472/296/3 478/312/3 477/314/3
f 70/187/8 172/192/8 171/315/9 73/92/9
f 441/300/3 440/297/3 449/313/3 448/316/3
f 212/253/33 341/260/33 321/301/32 213/254/32
f 470/302/3 471/299/3 477/314/3 476/317/3
f 73/92/9 171/315/9 170/129/11 88/93/11
f 442/303/3 441/300/3 448/316/3 447/240/3
f 337/311/33 341/260/33 348/262/29 352/318/29
f 469/304/3 470/302/3 476/317/3 475/319/3
f 101/116/14 167/13/14 168/15/11 100/110/11
f 443/306/3 442/303/3 447/240/3 446/239/3
f 336/309/33 337/311/33 352/318/29 226/232/29
f 60/1/3 469/304/3 475/319/3 61/4/3
f 116/134/17 166/11/17 167/13/14 101/116/14
f 444/308/3 443/306/3 446/239/3 445/247/3
f 332/307/33 336/309/33 226/232/29 230/231/29
f 479/310/3 480/70/3 306/5/3 310/320/3
f 148/152/20 163/10/20 166/11/17 116/134/17
f 51/261/3 444/308/3 445/247/3 52/253/3
f 325/255/33 332/307/33 230/231/29 234/230/29
f 478/312/3 479/310/3 310/320/3 315/321/3
f 133/169/23 224/6/23 163/7/20 148/170/20
f 449/313/3 450/60/3 456/62/3 455/258/3
f 214/59/33 325/255/33 234/230/29 209/57/29
f 477/314/3 478/312/3 315/321/3 319/322/3
f 81/72/4 78/103/4 75/197/5 72/73/5
f 448/316/3 449/313/3 455/258/3 454/264/3
f 352/318/29 348/262/29 238/224/28 243/226/28
f 476/317/3 477/314/3 319/322/3 322/323/3
f 61/4/3 475/319/3 326/324/3 2/185/3
f 447/240/3 448/316/3 454/264/3 453/241/3
f 226/232/29 352/318/29 243/226/28 247/227/28
f 475/319/3 476/317/3 322/323/3 326/324/3
f 245/189/1 222/67/1 223/69/2 228/190/2
f 416/236/3 415/50/3 426/52/3 425/237/3
f 42/202/3 414/325/3 420/256/3 43/263/3
f 414/325/3 413/326/3 419/251/3 420/256/3
f 413/326/3 412/327/3 418/245/3 419/251/3
f 412/327/3 411/328/3 417/235/3 418/245/3
f 411/328/3 410/329/3 416/236/3 417/235/3
f 410/329/3 409/48/3 415/50/3 416/236/3
f 37/86/3 403/330/3 414/325/3 42/202/3
f 403/330/3 404/331/3 413/326/3 414/325/3
f 404/331/3 405/332/3 412/327/3 413/326/3
f 405/332/3 406/333/3 411/328/3 412/327/3
f 406/333/3 407/334/3 410/329/3 411/328/3
f 407/334/3 408/46/3 409/48/3 410/329/3
f 36/85/3 397/335/3 403/330/3 37/86/3
f 397/335/3 398/336/3 404/331/3 403/330/3
f 398/336/3 399/337/3 405/332/3 404/331/3
f 399/337/3 400/338/3 406/333/3 405/332/3
f 400/338/3 401/339/3 407/334/3 406/333/3
f 401/339/3 402/44/3 408/46/3 407/334/3
f 35/284/3 396/340/3 397/335/3 36/85/3
f 396/340/3 395/341/3 398/336/3 397/335/3
f 395/341/3 394/342/3 399/337/3 398/336/3
f 394/342/3 393/343/3 400/338/3 399/337/3
f 393/343/3 392/344/3 401/339/3 400/338/3
f 392/344/3 391/42/3 402/44/3 401/339/3
f 34/146/3 390/345/3 396/340/3 35/284/3
f 390/345/3 389/346/3 395/341/3 396/340/3
f 389/346/3 388/347/3 394/342/3 395/341/3
f 388/347/3 387/348/3 393/343/3 394/342/3
f 387/348/3 386/349/3 392/344/3 393/343/3
f 386/349/3 385/40/3 391/42/3 392/344/3
f 29/145/3 379/350/3 390/345/3 34/146/3
f 379/350/3 380/351/3 389/346/3 390/345/3
f 380/351/3 381/352/3 388/347/3 389/346/3
f 381/352/3 382/353/3 387/348/3 388/347/3
f 382/353/3 383/354/3 386/349/3 387/348/3
f 383/354/3 384/38/3 385/40/3 386/349/3
f 28/163/3 373/355/3 379/350/3 29/145/3
f 373/355/3 374/356/3 380/351/3 379/350/3
f 374/356/3 375/357/3 381/352/3 380/351/3
f 375/357/3 376/358/3 382/353/3 381/352/3
f 376/358/3 377/359/3 383/354/3 382/353/3
f 377/359/3 378/36/3 384/38/3 383/354/3
f 27/294/3 372/360/3 373/355/3 28/163/3
f 372/360/3 371/361/3 374/356/3 373/355/3
f 371/361/3 370/362/3 375/357/3 374/356/3
f 370/362/3 369/363/3 376/358/3 375/357/3
f 369/363/3 368/364/3 377/359/3 376/358/3
f 368/364/3 367/34/3 378/36/3 377/359/3
f 26/96/3 366/365/3 372/360/3 27/294/3
f 366/365/3 365/366/3 371/361/3 372/360/3
f 365/366/3 364/367/3 370/362/3 371/361/3
f 364/367/3 363/368/3 369/363/3 370/362/3
f 363/368/3 362/369/3 368/364/3 369/363/3
f 362/369/3 361/32/3 367/34/3 368/364/3
f 21/95/3 355/370/3 366/365/3 26/96/3
f 355/370/3 356/371/3 365/366/3 366/365/3
f 356/371/3 357/372/3 364/367/3 365/366/3
f 357/372/3 358/373/3 363/368/3 364/367/3
f 358/373/3 359/374/3 362/369/3 363/368/3
f 359/374/3 360/30/3 361/32/3 362/369/3
f 20/117/3 237/375/3 355/370/3 21/95/3
f 237/375/3 233/376/3 356/371/3 355/370/3
f 233/376/3 229/377/3 357/372/3 356/371/3
f 229/377/3 225/378/3 358/373/3 357/372/3
f 225/378/3 353/379/3 359/374/3 358/373/3
f 353/379/3 354/28/3 360/30/3 359/374/3
f 19/305/3 244/380/3 237/375/3 20/117/3
f 244/380/3 248/381/3 233/376/3 237/375/3
f 248/381/3 249/382/3 229/377/3 233/376/3
f 249/382/3 253/383/3 225/378/3 229/377/3
f 253/383/3 260/384/3 353/379/3 225/378/3
f 260/384/3 264/26/3 354/28/3 353/379/3
f 18/173/3 265/385/3 244/380/3 19/305/3
f 265/385/3 269/386/3 248/381/3 244/380/3
f 269/386/3 276/387/3 249/382/3 248/381/3
f 276/387/3 280/388/3 253/383/3 249/382/3
f 280/388/3 281/389/3 260/384/3 253/383/3
f 281/389/3 285/24/3 264/26/3 260/384/3
f 13/172/3 312/390/3 265/385/3 18/173/3
f 312/390/3 308/391/3 269/386/3 265/385/3
f 308/391/3 301/392/3 276/387/3 269/386/3
f 301/392/3 297/393/3 280/388/3 276/387/3
f 297/393/3 296/394/3 281/389/3 280/388/3
f 296/394/3 292/22/3 285/24/3 281/389/3
f 12/192/3 333/395/3 312/390/3 13/172/3
f 333/395/3 329/396/3 308/391/3 312/390/3
f 329/396/3 328/397/3 301/392/3 308/391/3
f 328/397/3 324/398/3 297/393/3 301/392/3
f 324/398/3 317/399/3 296/394/3 297/393/3
f 317/399/3 313/20/3 292/22/3 296/394/3
f 11/315/3 340/400/3 333/395/3 12/192/3
f 340/400/3 344/401/3 329/396/3 333/395/3
f 344/401/3 345/402/3 328/397/3 329/396/3
f 345/402/3 349/403/3 324/398/3 328/397/3
f 349/403/3 227/404/3 317/399/3 324/398/3
f 227/404/3 231/18/3 313/20/3 317/399/3
f 10/129/3 235/405/3 340/400/3 11/315/3
f 235/405/3 239/406/3 344/401/3 340/400/3
f 239/406/3 242/407/3 345/402/3 344/401/3
f 242/407/3 246/408/3 349/403/3 345/402/3
f 246/408/3 251/409/3 227/404/3 349/403/3
f 251/409/3 255/16/3 231/18/3 227/404/3
f 5/128/3 278/410/3 235/405/3 10/129/3
f 278/410/3 274/411/3 239/406/3 235/405/3
f 274/411/3 271/412/3 242/407/3 239/406/3
f 271/412/3 267/413/3 246/408/3 242/407/3
f 267/413/3 262/414/3 251/409/3 246/408/3
f 262/414/3 258/14/3 255/16/3 251/409/3
f 4/147/3 303/415/3 278/410/3 5/128/3
f 303/415/3 299/416/3 274/411/3 278/410/3
f 299/416/3 294/417/3 271/412/3 274/411/3
f 294/417/3 290/418/3 267/413/3 271/412/3
f 290/418/3 287/419/3 262/414/3 267/413/3
f 287/419/3 283/12/3 258/14/3 262/414/3
f 1/164/3 351/420/3 303/415/3 4/147/3
f 351/420/3 347/421/3 299/416/3 303/415/3
f 347/421/3 342/422/3 294/417/3 299/416/3
f 342/422/3 338/423/3 290/418/3 294/417/3
f 338/423/3 335/424/3 287/419/3 290/418/3
f 335/424/3 331/9/3 283/12/3 287/419/3
f 2/185/3 326/324/3 351/425/3 1/186/3
f 326/324/3 322/323/3 347/426/3 351/425/3
f 322/323/3 319/322/3 342/427/3 347/426/3
f 319/322/3 315/321/3 338/428/3 342/427/3
f 315/321/3 310/320/3 335/429/3 338/428/3
f 310/320/3 306/5/3 331/8/3 335/429/3
