# Blender 4.3.2
# www.blender.org
o Cylinder
v 0.000000 0.002189 -0.148490
v 0.000000 1.361587 -1.169946
v 0.038432 0.002189 -0.143431
v 0.302804 1.361587 -1.130081
v 0.074245 0.002189 -0.128596
v 0.584973 1.361587 -1.013203
v 0.104999 0.002189 -0.104999
v 0.827277 1.361587 -0.827277
v 0.128596 0.002189 -0.074245
v 1.013203 1.361587 -0.584973
v 0.143431 0.002189 -0.038432
v 1.130081 1.361587 -0.302804
v 0.148490 0.002189 0.000000
v 1.169946 1.361587 -0.000000
v 0.143431 0.002189 0.038432
v 1.130081 1.361587 0.302804
v 0.128596 0.002189 0.074245
v 1.013203 1.361587 0.584973
v 0.104999 0.002189 0.104999
v 0.827277 1.361587 0.827277
v 0.074245 0.002189 0.128596
v 0.584973 1.361587 1.013203
v 0.038432 0.002189 0.143431
v 0.302804 1.361587 1.130081
v 0.000000 0.002189 0.148490
v 0.000000 1.361587 1.169946
v -0.038432 0.002189 0.143431
v -0.302804 1.361587 1.130081
v -0.074245 0.002189 0.128596
v -0.584973 1.361587 1.013203
v -0.104999 0.002189 0.104999
v -0.827277 1.361587 0.827277
v -0.128596 0.002189 0.074245
v -1.013203 1.361587 0.584973
v -0.143431 0.002189 0.038432
v -1.130081 1.361587 0.302804
v -0.148490 0.002189 0.000000
v -1.169946 1.361587 -0.000000
v -0.143431 0.002189 -0.038432
v -1.130081 1.361587 -0.302804
v -0.128596 0.002189 -0.074245
v -1.013203 1.361587 -0.584973
v -0.104999 0.002189 -0.104999
v -0.827277 1.361587 -0.827277
v -0.074245 0.002189 -0.128596
v -0.584973 1.361587 -1.013203
v -0.038432 0.002189 -0.143431
v -0.302804 1.361587 -1.130081
v 0.000000 0.121510 -0.463155
v 0.000000 0.297914 -0.737221
v 0.000000 0.509109 -0.943119
v 0.000000 0.722228 -1.078829
v 0.000000 0.935348 -1.142134
v 0.000000 1.148468 -1.157091
v 0.299477 1.148468 -1.117664
v 0.295606 0.935348 -1.103216
v 0.279222 0.722228 -1.042069
v 0.244097 0.509109 -0.910983
v 0.190807 0.297914 -0.712101
v 0.119873 0.121510 -0.447373
v 0.578546 1.148468 -1.002070
v 0.571067 0.935348 -0.989117
v 0.539415 0.722228 -0.934294
v 0.471559 0.509109 -0.816765
v 0.368611 0.297914 -0.638452
v 0.231578 0.121510 -0.401104
v 0.818187 1.148468 -0.818187
v 0.807610 0.935348 -0.807610
v 0.762847 0.722228 -0.762847
v 0.666886 0.509109 -0.666886
v 0.521294 0.297914 -0.521294
v 0.327500 0.121510 -0.327500
v 1.002070 1.148468 -0.578546
v 0.989117 0.935348 -0.571067
v 0.934294 0.722228 -0.539415
v 0.816765 0.509109 -0.471559
v 0.638452 0.297914 -0.368611
v 0.401104 0.121510 -0.231578
v 1.117664 1.148468 -0.299477
v 1.103216 0.935348 -0.295606
v 1.042069 0.722228 -0.279222
v 0.910983 0.509109 -0.244097
v 0.712101 0.297914 -0.190807
v 0.447373 0.121510 -0.119873
v 1.157091 1.148468 -0.000000
v 1.142134 0.935348 -0.000000
v 1.078829 0.722228 -0.000000
v 0.943119 0.509109 -0.000000
v 0.737221 0.297914 0.000000
v 0.463155 0.121510 0.000000
v 1.117664 1.148468 0.299477
v 1.103216 0.935348 0.295606
v 1.042069 0.722228 0.279222
v 0.910983 0.509109 0.244097
v 0.712101 0.297914 0.190807
v 0.447373 0.121510 0.119873
v 1.002070 1.148468 0.578546
v 0.989117 0.935348 0.571067
v 0.934294 0.722228 0.539415
v 0.816765 0.509109 0.471559
v 0.638452 0.297914 0.368611
v 0.401104 0.121510 0.231578
v 0.818187 1.148468 0.818187
v 0.807610 0.935348 0.807610
v 0.762847 0.722228 0.762847
v 0.666886 0.509109 0.666886
v 0.521294 0.297914 0.521294
v 0.327500 0.121510 0.327500
v 0.578546 1.148468 1.002070
v 0.571067 0.935348 0.989117
v 0.539415 0.722228 0.934294
v 0.471559 0.509109 0.816765
v 0.368611 0.297914 0.638452
v 0.231578 0.121510 0.401104
v 0.299477 1.148468 1.117664
v 0.295606 0.935348 1.103216
v 0.279222 0.722228 1.042069
v 0.244097 0.509109 0.910983
v 0.190807 0.297914 0.712101
v 0.119873 0.121510 0.447374
v 0.000000 1.148468 1.157091
v 0.000000 0.935348 1.142134
v 0.000000 0.722228 1.078829
v 0.000000 0.509109 0.943119
v 0.000000 0.297914 0.737221
v 0.000000 0.121510 0.463155
v -0.299477 1.148468 1.117664
v -0.295606 0.935348 1.103216
v -0.279222 0.722228 1.042069
v -0.244097 0.509109 0.910983
v -0.190807 0.297914 0.712101
v -0.119873 0.121510 0.447374
v -0.578546 1.148468 1.002070
v -0.571067 0.935348 0.989117
v -0.539415 0.722228 0.934294
v -0.471559 0.509109 0.816765
v -0.368611 0.297914 0.638452
v -0.231578 0.121510 0.401104
v -0.818187 1.148468 0.818187
v -0.807610 0.935348 0.807610
v -0.762847 0.722228 0.762847
v -0.666886 0.509109 0.666886
v -0.521294 0.297914 0.521294
v -0.327500 0.121510 0.327500
v -1.002070 1.148468 0.578546
v -0.989117 0.935348 0.571067
v -0.934294 0.722228 0.539415
v -0.816765 0.509109 0.471559
v -0.638452 0.297914 0.368611
v -0.401104 0.121510 0.231578
v -1.117664 1.148468 0.299477
v -1.103216 0.935348 0.295606
v -1.042069 0.722228 0.279222
v -0.910983 0.509109 0.244097
v -0.712101 0.297914 0.190807
v -0.447373 0.121510 0.119873
v -1.157091 1.148468 -0.000000
v -1.142134 0.935348 -0.000000
v -1.078829 0.722228 -0.000000
v -0.943119 0.509109 -0.000000
v -0.737221 0.297914 0.000000
v -0.463155 0.121510 0.000000
v -1.117664 1.148468 -0.299477
v -1.103216 0.935348 -0.295606
v -1.042069 0.722228 -0.279222
v -0.910983 0.509109 -0.244097
v -0.712101 0.297914 -0.190807
v -0.447373 0.121510 -0.119873
v -1.002070 1.148468 -0.578546
v -0.989117 0.935348 -0.571067
v -0.934294 0.722228 -0.539415
v -0.816765 0.509109 -0.471559
v -0.638452 0.297914 -0.368611
v -0.401104 0.121510 -0.231578
v -0.818187 1.148468 -0.818187
v -0.807610 0.935348 -0.807610
v -0.762847 0.722228 -0.762847
v -0.666886 0.509109 -0.666886
v -0.521294 0.297914 -0.521294
v -0.327500 0.121510 -0.327500
v -0.578546 1.148468 -1.002070
v -0.571067 0.935348 -0.989117
v -0.539415 0.722228 -0.934294
v -0.471559 0.509109 -0.816765
v -0.368611 0.297914 -0.638452
v -0.231578 0.121510 -0.401104
v -0.299477 1.148468 -1.117664
v -0.295606 0.935348 -1.103216
v -0.279222 0.722228 -1.042069
v -0.244097 0.509109 -0.910983
v -0.190807 0.297914 -0.712101
v -0.119873 0.121510 -0.447373
vn -0.0000 -0.9350 -0.3546
vn -0.0000 -0.0602 -0.9982
vn 0.0918 -0.9350 -0.3425
vn 0.2583 -0.0602 -0.9642
vn 0.1773 -0.9350 -0.3071
vn 0.4991 -0.0602 -0.8645
vn 0.2507 -0.9350 -0.2507
vn 0.7058 -0.0602 -0.7058
vn 0.3071 -0.9350 -0.1773
vn 0.8645 -0.0602 -0.4991
vn 0.3425 -0.9350 -0.0918
vn 0.9642 -0.0602 -0.2583
vn 0.3546 -0.9350 -0.0000
vn 0.9982 -0.0602 -0.0000
vn 0.3425 -0.9350 0.0918
vn 0.9642 -0.0602 0.2583
vn 0.3071 -0.9350 0.1773
vn 0.8645 -0.0602 0.4991
vn 0.2507 -0.9350 0.2507
vn 0.7058 -0.0602 0.7058
vn 0.1773 -0.9350 0.3071
vn 0.4991 -0.0602 0.8645
vn 0.0918 -0.9350 0.3425
vn 0.2583 -0.0602 0.9642
vn -0.0000 -0.9350 0.3546
vn -0.0000 -0.0602 0.9982
vn -0.0918 -0.9350 0.3425
vn -0.2583 -0.0602 0.9642
vn -0.1773 -0.9350 0.3071
vn -0.4991 -0.0602 0.8645
vn -0.2507 -0.9350 0.2507
vn -0.7058 -0.0602 0.7058
vn -0.3071 -0.9350 0.1773
vn -0.8645 -0.0602 0.4991
vn -0.3425 -0.9350 0.0918
vn -0.9642 -0.0602 0.2583
vn -0.3546 -0.9350 -0.0000
vn -0.9982 -0.0602 -0.0000
vn -0.3425 -0.9350 -0.0918
vn -0.9642 -0.0602 -0.2583
vn -0.3071 -0.9350 -0.1773
vn -0.8645 -0.0602 -0.4991
vn -0.2507 -0.9350 -0.2507
vn -0.7058 -0.0602 -0.7058
vn -0.1773 -0.9350 -0.3071
vn -0.4991 -0.0602 -0.8645
vn -0.0918 -0.9350 -0.3425
vn -0.2583 -0.0602 -0.9642
vn -0.0000 -0.8893 -0.4572
vn -0.0000 -0.7698 -0.6382
vn -0.0000 -0.6168 -0.7872
vn -0.0000 -0.4107 -0.9118
vn -0.0000 -0.1769 -0.9842
vn -0.0000 -0.0651 -0.9979
vn 0.2583 -0.0651 -0.9639
vn 0.2547 -0.1769 -0.9507
vn 0.2360 -0.4107 -0.8807
vn 0.2037 -0.6168 -0.7603
vn 0.1652 -0.7698 -0.6165
vn 0.1183 -0.8893 -0.4417
vn 0.4989 -0.0651 -0.8642
vn 0.4921 -0.1769 -0.8524
vn 0.4559 -0.4107 -0.7896
vn 0.3936 -0.6168 -0.6817
vn 0.3191 -0.7698 -0.5527
vn 0.2286 -0.8893 -0.3960
vn 0.7056 -0.0651 -0.7056
vn 0.6960 -0.1769 -0.6960
vn 0.6447 -0.4107 -0.6447
vn 0.5566 -0.6168 -0.5566
vn 0.4513 -0.7698 -0.4513
vn 0.3233 -0.8893 -0.3233
vn 0.8642 -0.0651 -0.4989
vn 0.8524 -0.1769 -0.4921
vn 0.7896 -0.4107 -0.4559
vn 0.6817 -0.6168 -0.3936
vn 0.5527 -0.7698 -0.3191
vn 0.3960 -0.8893 -0.2286
vn 0.9639 -0.0651 -0.2583
vn 0.9507 -0.1769 -0.2547
vn 0.8807 -0.4107 -0.2360
vn 0.7603 -0.6168 -0.2037
vn 0.6165 -0.7698 -0.1652
vn 0.4417 -0.8893 -0.1183
vn 0.9979 -0.0651 -0.0000
vn 0.9842 -0.1769 -0.0000
vn 0.9118 -0.4107 -0.0000
vn 0.7872 -0.6168 -0.0000
vn 0.6382 -0.7698 -0.0000
vn 0.4573 -0.8893 -0.0000
vn 0.9639 -0.0651 0.2583
vn 0.9507 -0.1769 0.2547
vn 0.8807 -0.4107 0.2360
vn 0.7603 -0.6168 0.2037
vn 0.6165 -0.7698 0.1652
vn 0.4417 -0.8893 0.1183
vn 0.8642 -0.0651 0.4989
vn 0.8524 -0.1769 0.4921
vn 0.7896 -0.4107 0.4559
vn 0.6817 -0.6168 0.3936
vn 0.5527 -0.7698 0.3191
vn 0.3960 -0.8893 0.2286
vn 0.7056 -0.0651 0.7056
vn 0.6960 -0.1769 0.6960
vn 0.6447 -0.4107 0.6447
vn 0.5566 -0.6168 0.5566
vn 0.4513 -0.7698 0.4513
vn 0.3233 -0.8893 0.3233
vn 0.4989 -0.0651 0.8642
vn 0.4921 -0.1769 0.8524
vn 0.4559 -0.4107 0.7896
vn 0.3936 -0.6168 0.6817
vn 0.3191 -0.7698 0.5527
vn 0.2286 -0.8893 0.3960
vn 0.2583 -0.0651 0.9639
vn 0.2547 -0.1769 0.9507
vn 0.2360 -0.4107 0.8807
vn 0.2037 -0.6168 0.7603
vn 0.1652 -0.7698 0.6165
vn 0.1183 -0.8893 0.4417
vn -0.0000 -0.0651 0.9979
vn -0.0000 -0.1769 0.9842
vn -0.0000 -0.4107 0.9118
vn -0.0000 -0.6168 0.7872
vn -0.0000 -0.7698 0.6382
vn -0.0000 -0.8893 0.4572
vn -0.2583 -0.0651 0.9639
vn -0.2547 -0.1769 0.9507
vn -0.2360 -0.4107 0.8807
vn -0.2037 -0.6168 0.7603
vn -0.1652 -0.7698 0.6165
vn -0.1183 -0.8893 0.4417
vn -0.4989 -0.0651 0.8642
vn -0.4921 -0.1769 0.8524
vn -0.4559 -0.4107 0.7896
vn -0.3936 -0.6168 0.6817
vn -0.3191 -0.7698 0.5527
vn -0.2286 -0.8893 0.3960
vn -0.7056 -0.0651 0.7056
vn -0.6960 -0.1769 0.6960
vn -0.6447 -0.4107 0.6447
vn -0.5566 -0.6168 0.5566
vn -0.4513 -0.7698 0.4513
vn -0.3233 -0.8893 0.3233
vn -0.8642 -0.0651 0.4989
vn -0.8524 -0.1769 0.4921
vn -0.7896 -0.4107 0.4559
vn -0.6817 -0.6168 0.3936
vn -0.5527 -0.7698 0.3191
vn -0.3960 -0.8893 0.2286
vn -0.9639 -0.0651 0.2583
vn -0.9507 -0.1769 0.2547
vn -0.8807 -0.4107 0.2360
vn -0.7603 -0.6168 0.2037
vn -0.6165 -0.7698 0.1652
vn -0.4417 -0.8893 0.1183
vn -0.9979 -0.0651 -0.0000
vn -0.9842 -0.1769 -0.0000
vn -0.9118 -0.4107 -0.0000
vn -0.7872 -0.6168 -0.0000
vn -0.6382 -0.7698 -0.0000
vn -0.4573 -0.8893 -0.0000
vn -0.9639 -0.0651 -0.2583
vn -0.9507 -0.1769 -0.2547
vn -0.8807 -0.4107 -0.2360
vn -0.7603 -0.6168 -0.2037
vn -0.6165 -0.7698 -0.1652
vn -0.4417 -0.8893 -0.1183
vn -0.8642 -0.0651 -0.4989
vn -0.8524 -0.1769 -0.4921
vn -0.7896 -0.4107 -0.4559
vn -0.6817 -0.6168 -0.3936
vn -0.5527 -0.7698 -0.3191
vn -0.3960 -0.8893 -0.2286
vn -0.7056 -0.0651 -0.7056
vn -0.6960 -0.1769 -0.6960
vn -0.6447 -0.4107 -0.6447
vn -0.5566 -0.6168 -0.5566
vn -0.4513 -0.7698 -0.4513
vn -0.3233 -0.8893 -0.3233
vn -0.4989 -0.0651 -0.8642
vn -0.4921 -0.1769 -0.8524
vn -0.4559 -0.4107 -0.7896
vn -0.3936 -0.6168 -0.6817
vn -0.3191 -0.7698 -0.5527
vn -0.2286 -0.8893 -0.3960
vn -0.2583 -0.0651 -0.9639
vn -0.2547 -0.1769 -0.9507
vn -0.2360 -0.4107 -0.8807
vn -0.2037 -0.6168 -0.7603
vn -0.1652 -0.7698 -0.6165
vn -0.1183 -0.8893 -0.4417
vt 1.000000 0.857143
vt 1.000000 1.000000
vt 0.958333 1.000000
vt 0.958333 0.857143
vt 0.916667 1.000000
vt 0.916667 0.857143
vt 0.875000 1.000000
vt 0.875000 0.857143
vt 0.833333 1.000000
vt 0.833333 0.857143
vt 0.791667 1.000000
vt 0.791667 0.857143
vt 0.750000 1.000000
vt 0.750000 0.857143
vt 0.708333 1.000000
vt 0.708333 0.857143
vt 0.666667 1.000000
vt 0.666667 0.857143
vt 0.625000 1.000000
vt 0.625000 0.857143
vt 0.583333 1.000000
vt 0.583333 0.857143
vt 0.541666 1.000000
vt 0.541666 0.857143
vt 0.500000 1.000000
vt 0.500000 0.857143
vt 0.458333 1.000000
vt 0.458333 0.857143
vt 0.416666 1.000000
vt 0.416666 0.857143
vt 0.375000 1.000000
vt 0.375000 0.857143
vt 0.333333 1.000000
vt 0.333333 0.857143
vt 0.291667 1.000000
vt 0.291667 0.857143
vt 0.250000 1.000000
vt 0.250000 0.857143
vt 0.208333 1.000000
vt 0.208333 0.857143
vt 0.166666 1.000000
vt 0.166667 0.857143
vt 0.125000 1.000000
vt 0.125000 0.857143
vt 0.083333 1.000000
vt 0.083333 0.857143
vt 0.041666 1.000000
vt 0.041666 0.857143
vt -0.000000 1.000000
vt -0.000000 0.857143
vt 0.041666 0.000000
vt 0.041666 0.142857
vt -0.000000 0.142857
vt -0.000000 0.000000
vt 0.041666 0.285714
vt -0.000000 0.285714
vt 0.041666 0.428571
vt -0.000000 0.428571
vt 0.041666 0.571429
vt -0.000000 0.571429
vt 0.041666 0.714286
vt -0.000000 0.714286
vt 0.083333 0.000000
vt 0.083333 0.142857
vt 0.083333 0.285714
vt 0.083333 0.428571
vt 0.083333 0.571429
vt 0.083333 0.714286
vt 0.125000 0.000000
vt 0.125000 0.142857
vt 0.125000 0.285714
vt 0.125000 0.428571
vt 0.125000 0.571429
vt 0.125000 0.714286
vt 0.166666 0.000000
vt 0.166666 0.142857
vt 0.166666 0.285714
vt 0.166666 0.428571
vt 0.166666 0.571429
vt 0.166666 0.714286
vt 0.208333 0.000000
vt 0.208333 0.142857
vt 0.208333 0.285714
vt 0.208333 0.428571
vt 0.208333 0.571429
vt 0.208333 0.714286
vt 0.250000 0.000000
vt 0.250000 0.142857
vt 0.250000 0.285714
vt 0.250000 0.428571
vt 0.250000 0.571429
vt 0.250000 0.714286
vt 0.291667 0.000000
vt 0.291667 0.142857
vt 0.291667 0.285714
vt 0.291667 0.428571
vt 0.291667 0.571429
vt 0.291667 0.714286
vt 0.333333 0.000000
vt 0.333333 0.142857
vt 0.333333 0.285714
vt 0.333333 0.428571
vt 0.333333 0.571429
vt 0.333333 0.714286
vt 0.375000 0.000000
vt 0.375000 0.142857
vt 0.375000 0.285714
vt 0.375000 0.428571
vt 0.375000 0.571429
vt 0.375000 0.714286
vt 0.416666 0.000000
vt 0.416666 0.142857
vt 0.416666 0.285714
vt 0.416667 0.428571
vt 0.416667 0.571429
vt 0.416666 0.714286
vt 0.458333 0.000000
vt 0.458333 0.142857
vt 0.458333 0.285714
vt 0.458333 0.428571
vt 0.458333 0.571429
vt 0.458333 0.714286
vt 0.500000 0.000000
vt 0.500000 0.142857
vt 0.500000 0.285714
vt 0.500000 0.428571
vt 0.500000 0.571429
vt 0.500000 0.714286
vt 0.541666 0.000000
vt 0.541666 0.142857
vt 0.541666 0.285714
vt 0.541666 0.428571
vt 0.541666 0.571429
vt 0.541666 0.714286
vt 0.583333 0.000000
vt 0.583333 0.142857
vt 0.583333 0.285714
vt 0.583333 0.428571
vt 0.583333 0.571429
vt 0.583333 0.714286
vt 0.625000 0.000000
vt 0.625000 0.142857
vt 0.625000 0.285714
vt 0.625000 0.428571
vt 0.625000 0.571429
vt 0.625000 0.714286
vt 0.666667 0.000000
vt 0.666667 0.142857
vt 0.666667 0.285714
vt 0.666667 0.428571
vt 0.666667 0.571429
vt 0.666667 0.714286
vt 0.708333 0.000000
vt 0.708333 0.142857
vt 0.708333 0.285714
vt 0.708333 0.428571
vt 0.708333 0.571429
vt 0.708333 0.714286
vt 0.750000 0.000000
vt 0.750000 0.142857
vt 0.750000 0.285714
vt 0.750000 0.428571
vt 0.750000 0.571429
vt 0.750000 0.714286
vt 0.791667 0.000000
vt 0.791667 0.142857
vt 0.791667 0.285714
vt 0.791667 0.428571
vt 0.791667 0.571429
vt 0.791667 0.714286
vt 0.833333 0.000000
vt 0.833333 0.142857
vt 0.833333 0.285714
vt 0.833333 0.428571
vt 0.833333 0.571429
vt 0.833333 0.714286
vt 0.875000 0.000000
vt 0.875000 0.142857
vt 0.875000 0.285714
vt 0.875000 0.428571
vt 0.875000 0.571429
vt 0.875000 0.714286
vt 0.916667 0.000000
vt 0.916667 0.142857
vt 0.916667 0.285714
vt 0.916667 0.428571
vt 0.916667 0.571429
vt 0.916667 0.714286
vt 0.958333 0.000000
vt 0.958333 0.142857
vt 0.958333 0.285714
vt 0.958333 0.428571
vt 0.958333 0.571429
vt 0.958333 0.714286
vt 1.000000 0.000000
vt 1.000000 0.142857
vt 1.000000 0.285714
vt 1.000000 0.428571
vt 1.000000 0.571429
vt 1.000000 0.714286
s 1
f 54/1/54 2/2/2 4/3/4 55/4/55
f 55/4/55 4/3/4 6/5/6 61/6/61
f 61/6/61 6/5/6 8/7/8 67/8/67
f 67/8/67 8/7/8 10/9/10 73/10/73
f 73/10/73 10/9/10 12/11/12 79/12/79
f 79/12/79 12/11/12 14/13/14 85/14/85
f 85/14/85 14/13/14 16/15/16 91/16/91
f 91/16/91 16/15/16 18/17/18 97/18/97
f 97/18/97 18/17/18 20/19/20 103/20/103
f 103/20/103 20/19/20 22/21/22 109/22/109
f 109/22/109 22/21/22 24/23/24 115/24/115
f 115/24/115 24/23/24 26/25/26 121/26/121
f 121/26/121 26/25/26 28/27/28 127/28/127
f 127/28/127 28/27/28 30/29/30 133/30/133
f 133/30/133 30/29/30 32/31/32 139/32/139
f 139/32/139 32/31/32 34/33/34 145/34/145
f 145/34/145 34/33/34 36/35/36 151/36/151
f 151/36/151 36/35/36 38/37/38 157/38/157
f 157/38/157 38/37/38 40/39/40 163/40/163
f 163/40/163 40/39/40 42/41/42 169/42/169
f 169/42/169 42/41/42 44/43/44 175/44/175
f 175/44/175 44/43/44 46/45/46 181/46/181
f 181/46/181 46/45/46 48/47/48 187/48/187
f 187/48/187 48/47/48 2/49/2 54/50/54
f 47/51/47 192/52/192 49/53/49 1/54/1
f 192/52/192 191/55/191 50/56/50 49/53/49
f 191/55/191 190/57/190 51/58/51 50/56/50
f 190/57/190 189/59/189 52/60/52 51/58/51
f 189/59/189 188/61/188 53/62/53 52/60/52
f 188/61/188 187/48/187 54/50/54 53/62/53
f 45/63/45 186/64/186 192/52/192 47/51/47
f 186/64/186 185/65/185 191/55/191 192/52/192
f 185/65/185 184/66/184 190/57/190 191/55/191
f 184/66/184 183/67/183 189/59/189 190/57/190
f 183/67/183 182/68/182 188/61/188 189/59/189
f 182/68/182 181/46/181 187/48/187 188/61/188
f 43/69/43 180/70/180 186/64/186 45/63/45
f 180/70/180 179/71/179 185/65/185 186/64/186
f 179/71/179 178/72/178 184/66/184 185/65/185
f 178/72/178 177/73/177 183/67/183 184/66/184
f 177/73/177 176/74/176 182/68/182 183/67/183
f 176/74/176 175/44/175 181/46/181 182/68/182
f 41/75/41 174/76/174 180/70/180 43/69/43
f 174/76/174 173/77/173 179/71/179 180/70/180
f 173/77/173 172/78/172 178/72/178 179/71/179
f 172/78/172 171/79/171 177/73/177 178/72/178
f 171/79/171 170/80/170 176/74/176 177/73/177
f 170/80/170 169/42/169 175/44/175 176/74/176
f 39/81/39 168/82/168 174/76/174 41/75/41
f 168/82/168 167/83/167 173/77/173 174/76/174
f 167/83/167 166/84/166 172/78/172 173/77/173
f 166/84/166 165/85/165 171/79/171 172/78/172
f 165/85/165 164/86/164 170/80/170 171/79/171
f 164/86/164 163/40/163 169/42/169 170/80/170
f 37/87/37 162/88/162 168/82/168 39/81/39
f 162/88/162 161/89/161 167/83/167 168/82/168
f 161/89/161 160/90/160 166/84/166 167/83/167
f 160/90/160 159/91/159 165/85/165 166/84/166
f 159/91/159 158/92/158 164/86/164 165/85/165
f 158/92/158 157/38/157 163/40/163 164/86/164
f 35/93/35 156/94/156 162/88/162 37/87/37
f 156/94/156 155/95/155 161/89/161 162/88/162
f 155/95/155 154/96/154 160/90/160 161/89/161
f 154/96/154 153/97/153 159/91/159 160/90/160
f 153/97/153 152/98/152 158/92/158 159/91/159
f 152/98/152 151/36/151 157/38/157 158/92/158
f 33/99/33 150/100/150 156/94/156 35/93/35
f 150/100/150 149/101/149 155/95/155 156/94/156
f 149/101/149 148/102/148 154/96/154 155/95/155
f 148/102/148 147/103/147 153/97/153 154/96/154
f 147/103/147 146/104/146 152/98/152 153/97/153
f 146/104/146 145/34/145 151/36/151 152/98/152
f 31/105/31 144/106/144 150/100/150 33/99/33
f 144/106/144 143/107/143 149/101/149 150/100/150
f 143/107/143 142/108/142 148/102/148 149/101/149
f 142/108/142 141/109/141 147/103/147 148/102/148
f 141/109/141 140/110/140 146/104/146 147/103/147
f 140/110/140 139/32/139 145/34/145 146/104/146
f 29/111/29 138/112/138 144/106/144 31/105/31
f 138/112/138 137/113/137 143/107/143 144/106/144
f 137/113/137 136/114/136 142/108/142 143/107/143
f 136/114/136 135/115/135 141/109/141 142/108/142
f 135/115/135 134/116/134 140/110/140 141/109/141
f 134/116/134 133/30/133 139/32/139 140/110/140
f 27/117/27 132/118/132 138/112/138 29/111/29
f 132/118/132 131/119/131 137/113/137 138/112/138
f 131/119/131 130/120/130 136/114/136 137/113/137
f 130/120/130 129/121/129 135/115/135 136/114/136
f 129/121/129 128/122/128 134/116/134 135/115/135
f 128/122/128 127/28/127 133/30/133 134/116/134
f 25/123/25 126/124/126 132/118/132 27/117/27
f 126/124/126 125/125/125 131/119/131 132/118/132
f 125/125/125 124/126/124 130/120/130 131/119/131
f 124/126/124 123/127/123 129/121/129 130/120/130
f 123/127/123 122/128/122 128/122/128 129/121/129
f 122/128/122 121/26/121 127/28/127 128/122/128
f 23/129/23 120/130/120 126/124/126 25/123/25
f 120/130/120 119/131/119 125/125/125 126/124/126
f 119/131/119 118/132/118 124/126/124 125/125/125
f 118/132/118 117/133/117 123/127/123 124/126/124
f 117/133/117 116/134/116 122/128/122 123/127/123
f 116/134/116 115/24/115 121/26/121 122/128/122
f 21/135/21 114/136/114 120/130/120 23/129/23
f 114/136/114 113/137/113 119/131/119 120/130/120
f 113/137/113 112/138/112 118/132/118 119/131/119
f 112/138/112 111/139/111 117/133/117 118/132/118
f 111/139/111 110/140/110 116/134/116 117/133/117
f 110/140/110 109/22/109 115/24/115 116/134/116
f 19/141/19 108/142/108 114/136/114 21/135/21
f 108/142/108 107/143/107 113/137/113 114/136/114
f 107/143/107 106/144/106 112/138/112 113/137/113
f 106/144/106 105/145/105 111/139/111 112/138/112
f 105/145/105 104/146/104 110/140/110 111/139/111
f 104/146/104 103/20/103 109/22/109 110/140/110
f 17/147/17 102/148/102 108/142/108 19/141/19
f 102/148/102 101/149/101 107/143/107 108/142/108
f 101/149/101 100/150/100 106/144/106 107/143/107
f 100/150/100 99/151/99 105/145/105 106/144/106
f 99/151/99 98/152/98 104/146/104 105/145/105
f 98/152/98 97/18/97 103/20/103 104/146/104
f 15/153/15 96/154/96 102/148/102 17/147/17
f 96/154/96 95/155/95 101/149/101 102/148/102
f 95/155/95 94/156/94 100/150/100 101/149/101
f 94/156/94 93/157/93 99/151/99 100/150/100
f 93/157/93 92/158/92 98/152/98 99/151/99
f 92/158/92 91/16/91 97/18/97 98/152/98
f 13/159/13 90/160/90 96/154/96 15/153/15
f 90/160/90 89/161/89 95/155/95 96/154/96
f 89/161/89 88/162/88 94/156/94 95/155/95
f 88/162/88 87/163/87 93/157/93 94/156/94
f 87/163/87 86/164/86 92/158/92 93/157/93
f 86/164/86 85/14/85 91/16/91 92/158/92
f 11/165/11 84/166/84 90/160/90 13/159/13
f 84/166/84 83/167/83 89/161/89 90/160/90
f 83/167/83 82/168/82 88/162/88 89/161/89
f 82/168/82 81/169/81 87/163/87 88/162/88
f 81/169/81 80/170/80 86/164/86 87/163/87
f 80/170/80 79/12/79 85/14/85 86/164/86
f 9/171/9 78/172/78 84/166/84 11/165/11
f 78/172/78 77/173/77 83/167/83 84/166/84
f 77/173/77 76/174/76 82/168/82 83/167/83
f 76/174/76 75/175/75 81/169/81 82/168/82
f 75/175/75 74/176/74 80/170/80 81/169/81
f 74/176/74 73/10/73 79/12/79 80/170/80
f 7/177/7 72/178/72 78/172/78 9/171/9
f 72/178/72 71/179/71 77/173/77 78/172/78
f 71/179/71 70/180/70 76/174/76 77/173/77
f 70/180/70 69/181/69 75/175/75 76/174/76
f 69/181/69 68/182/68 74/176/74 75/175/75
f 68/182/68 67/8/67 73/10/73 74/176/74
f 5/183/5 66/184/66 72/178/72 7/177/7
f 66/184/66 65/185/65 71/179/71 72/178/72
f 65/185/65 64/186/64 70/180/70 71/179/71
f 64/186/64 63/187/63 69/181/69 70/180/70
f 63/187/63 62/188/62 68/182/68 69/181/69
f 62/188/62 61/6/61 67/8/67 68/182/68
f 3/189/3 60/190/60 66/184/66 5/183/5
f 60/190/60 59/191/59 65/185/65 66/184/66
f 59/191/59 58/192/58 64/186/64 65/185/65
f 58/192/58 57/193/57 63/187/63 64/186/64
f 57/193/57 56/194/56 62/188/62 63/187/63
f 56/194/56 55/4/55 61/6/61 62/188/62
f 1/195/1 49/196/49 60/190/60 3/189/3
f 49/196/49 50/197/50 59/191/59 60/190/60
f 50/197/50 51/198/51 58/192/58 59/191/59
f 51/198/51 52/199/52 57/193/57 58/192/58
f 52/199/52 53/200/53 56/194/56 57/193/57
f 53/200/53 54/1/54 55/4/55 56/194/56
