# Blender 5.1.2
# www.blender.org
o Cylinder
v -3.528236 0.000000 -1.461443
v -0.923880 0.000000 -0.382684
v -3.175329 0.000000 -2.121686
v -0.831470 0.366707 -0.555570
v -2.700395 0.000000 -2.700395
v -0.707107 0.611695 -0.707107
v -2.121687 0.000000 -3.175328
v -0.555570 0.627994 -0.831470
v -1.461443 0.000000 -3.528236
v -0.382684 0.642103 -0.923880
v -0.745037 0.000000 -3.745555
v -0.195090 0.651713 -0.980785
v 0.000000 0.000000 -3.818935
v 0.000000 0.655123 -1.000000
v 0.745037 0.000000 -3.745555
v 0.195090 0.651713 -0.980785
v 1.461443 0.000000 -3.528236
v 0.382684 0.642103 -0.923880
v 2.121687 0.000000 -3.175328
v 0.555570 0.627994 -0.831470
v 2.700395 0.000000 -2.700395
v 0.707107 0.611695 -0.707107
v 3.175329 0.000000 -2.121686
v 0.831470 0.366707 -0.555570
v 3.528236 0.000000 -1.461443
v 0.923880 0.000000 -0.382684
v -2.226058 0.000000 -0.922063
v -2.003399 0.306790 -1.338629
v -1.703751 0.524504 -1.703751
v -1.338629 0.569222 -2.003399
v -0.922063 0.616396 -2.226058
v -0.470064 0.654117 -2.363170
v 0.000000 0.669549 -2.409467
v 0.470064 0.654117 -2.363170
v 0.922063 0.616396 -2.226058
v 1.338629 0.569222 -2.003399
v 1.703751 0.524504 -1.703751
v 2.003399 0.306790 -1.338629
v 2.226058 0.000000 -0.922063
v -2.877147 0.000000 -1.191753
v -2.589364 0.235412 -1.730158
v -2.202073 0.336345 -2.202073
v -1.730158 0.374562 -2.589364
v -1.191753 0.421702 -2.877147
v -0.607551 0.461293 -3.054363
v 0.000000 0.477117 -3.114201
v 0.607551 0.461293 -3.054363
v 1.191753 0.421702 -2.877147
v 1.730158 0.374562 -2.589364
v 2.202073 0.336345 -2.202073
v 2.589364 0.235412 -1.730158
v 2.877147 0.000000 -1.191753
v -1.574969 0.000000 -0.652373
v -1.417434 0.321683 -0.947099
v -1.205429 0.585532 -1.205429
v -0.947099 0.619763 -1.417434
v -0.652373 0.652272 -1.574969
v -0.332577 0.676105 -1.671978
v 0.000000 0.684980 -1.704734
v 0.332577 0.676105 -1.671978
v 0.652373 0.652272 -1.574969
v 0.947099 0.619763 -1.417434
v 1.205429 0.585532 -1.205429
v 1.417434 0.321683 -0.947099
v 1.574969 0.000000 -0.652373
v -0.831470 -0.366707 -0.555570
v -0.707107 -0.611695 -0.707107
v -0.555570 -0.627994 -0.831470
v -0.382684 -0.642103 -0.923880
v -0.195090 -0.651713 -0.980785
v 0.000000 -0.655123 -1.000000
v 0.195090 -0.651713 -0.980785
v 0.382684 -0.642103 -0.923880
v 0.555570 -0.627994 -0.831470
v 0.707107 -0.611695 -0.707107
v 0.831470 -0.366707 -0.555570
v -2.003399 -0.306790 -1.338629
v -1.703751 -0.524504 -1.703751
v -1.338629 -0.569222 -2.003399
v -0.922063 -0.616396 -2.226058
v -0.470064 -0.654117 -2.363170
v 0.000000 -0.669549 -2.409467
v 0.470064 -0.654117 -2.363170
v 0.922063 -0.616396 -2.226058
v 1.338629 -0.569222 -2.003399
v 1.703751 -0.524504 -1.703751
v 2.003399 -0.306790 -1.338629
v -2.589364 -0.235412 -1.730158
v -2.202073 -0.336345 -2.202073
v -1.730158 -0.374562 -2.589364
v -1.191753 -0.421702 -2.877147
v -0.607551 -0.461293 -3.054363
v 0.000000 -0.477117 -3.114201
v 0.607551 -0.461293 -3.054363
v 1.191753 -0.421702 -2.877147
v 1.730158 -0.374562 -2.589364
v 2.202073 -0.336345 -2.202073
v 2.589364 -0.235412 -1.730158
v -1.417434 -0.321683 -0.947099
v -1.205429 -0.585532 -1.205429
v -0.947099 -0.619763 -1.417434
v -0.652373 -0.652272 -1.574969
v -0.332577 -0.676105 -1.671978
v 0.000000 -0.684980 -1.704734
v 0.332577 -0.676105 -1.671978
v 0.652373 -0.652272 -1.574969
v 0.947099 -0.619763 -1.417434
v 1.205429 -0.585532 -1.205429
v 1.417434 -0.321683 -0.947099
vn -0.9474 -0.0000 0.3200
vn -0.4931 -0.0000 0.8700
vn -0.8777 -0.0000 -0.4792
vn -0.4331 0.6718 0.6009
vn -0.7769 -0.0000 -0.6297
vn -0.2905 0.9126 0.2878
vn -0.5996 -0.0000 -0.8003
vn -0.0827 0.9957 0.0419
vn -0.4280 -0.0000 -0.9038
vn -0.0648 0.9970 0.0421
vn -0.2239 -0.0000 -0.9746
vn -0.0362 0.9985 0.0413
vn -0.0000 -0.0000 -1.0000
vn -0.0000 0.9992 0.0407
vn 0.2239 -0.0000 -0.9746
vn 0.0362 0.9985 0.0413
vn 0.4280 -0.0000 -0.9038
vn 0.0648 0.9970 0.0421
vn 0.5996 -0.0000 -0.8003
vn 0.0827 0.9957 0.0419
vn 0.7769 -0.0000 -0.6297
vn 0.2905 0.9126 0.2878
vn 0.8777 -0.0000 -0.4792
vn 0.4331 0.6718 0.6009
vn 0.9474 -0.0000 0.3200
vn 0.4931 -0.0000 0.8700
vn -0.5174 -0.0000 0.8558
vn -0.3088 0.8871 0.3431
vn -0.2619 0.9622 0.0748
vn -0.1694 0.9809 -0.0957
vn -0.1384 0.9830 -0.1207
vn -0.0800 0.9867 -0.1418
vn -0.0000 0.9886 -0.1503
vn 0.0800 0.9867 -0.1418
vn 0.1384 0.9830 -0.1207
vn 0.1694 0.9809 -0.0957
vn 0.2619 0.9622 0.0748
vn 0.3088 0.8871 0.3431
vn 0.5174 -0.0000 0.8558
vn -0.4772 -0.0000 0.8788
vn -0.2864 0.9542 0.0870
vn -0.2995 0.9422 -0.1504
vn -0.2508 0.9251 -0.2850
vn -0.1980 0.9159 -0.3492
vn -0.1115 0.9096 -0.4002
vn -0.0000 0.9075 -0.4199
vn 0.1115 0.9096 -0.4002
vn 0.1980 0.9159 -0.3492
vn 0.2508 0.9251 -0.2850
vn 0.2995 0.9422 -0.1504
vn 0.2864 0.9542 0.0870
vn 0.4772 -0.0000 0.8788
vn -0.4886 -0.0000 0.8725
vn -0.3812 0.7571 0.5306
vn -0.2712 0.9328 0.2374
vn -0.1027 0.9946 0.0178
vn -0.0836 0.9964 0.0131
vn -0.0481 0.9988 0.0085
vn -0.0000 1.0000 0.0066
vn 0.0481 0.9988 0.0085
vn 0.0836 0.9964 0.0131
vn 0.1027 0.9946 0.0178
vn 0.2712 0.9328 0.2374
vn 0.3812 0.7571 0.5306
vn 0.4886 -0.0000 0.8725
vn -0.4331 -0.6718 0.6009
vn -0.2905 -0.9126 0.2878
vn -0.0827 -0.9957 0.0419
vn -0.0648 -0.9970 0.0421
vn -0.0362 -0.9985 0.0413
vn -0.0000 -0.9992 0.0407
vn 0.0362 -0.9985 0.0413
vn 0.0648 -0.9970 0.0421
vn 0.0827 -0.9957 0.0419
vn 0.2905 -0.9126 0.2878
vn 0.4331 -0.6718 0.6009
vn -0.3088 -0.8871 0.3431
vn -0.2619 -0.9622 0.0748
vn -0.1694 -0.9809 -0.0957
vn -0.1384 -0.9830 -0.1207
vn -0.0800 -0.9867 -0.1418
vn -0.0000 -0.9886 -0.1503
vn 0.0800 -0.9867 -0.1418
vn 0.1384 -0.9830 -0.1207
vn 0.1694 -0.9809 -0.0957
vn 0.2619 -0.9622 0.0748
vn 0.3088 -0.8871 0.3431
vn -0.2864 -0.9542 0.0870
vn -0.2995 -0.9422 -0.1504
vn -0.2508 -0.9251 -0.2850
vn -0.1980 -0.9159 -0.3492
vn -0.1115 -0.9096 -0.4002
vn -0.0000 -0.9075 -0.4199
vn 0.1115 -0.9096 -0.4002
vn 0.1980 -0.9159 -0.3492
vn 0.2508 -0.9251 -0.2850
vn 0.2995 -0.9422 -0.1504
vn 0.2864 -0.9542 0.0870
vn -0.3812 -0.7571 0.5306
vn -0.2712 -0.9328 0.2374
vn -0.1027 -0.9946 0.0178
vn -0.0836 -0.9964 0.0131
vn -0.0481 -0.9988 0.0085
vn -0.0000 -1.0000 0.0066
vn 0.0481 -0.9988 0.0085
vn 0.0836 -0.9964 0.0131
vn 0.1027 -0.9946 0.0178
vn 0.2712 -0.9328 0.2374
vn 0.3812 -0.7571 0.5306
vt 0.002000 0.422255
vt 0.002000 0.000000
vt 0.085166 0.000000
vt 0.085166 0.422255
vt 0.168333 0.000000
vt 0.168333 0.422255
vt 0.251500 0.000000
vt 0.251500 0.422255
vt 0.334666 0.000000
vt 0.334666 0.422255
vt 0.417833 0.000000
vt 0.417833 0.422255
vt 0.501000 0.000000
vt 0.501000 0.422255
vt 0.584166 0.000000
vt 0.584166 0.422255
vt 0.667333 0.000000
vt 0.667333 0.422255
vt 0.750500 0.000000
vt 0.750500 0.422255
vt 0.833667 0.000000
vt 0.833667 0.422255
vt 0.916833 0.000000
vt 0.916833 0.422255
vt 1.000000 0.000000
vt 1.000000 0.422255
vt 0.916833 0.873039
vt 0.916833 0.696863
vt 1.000000 0.696863
vt 1.000000 0.873039
vt 0.833666 0.873039
vt 0.833667 0.696863
vt 0.750500 0.873039
vt 0.750500 0.696863
vt 0.667333 0.873039
vt 0.667333 0.696863
vt 0.584166 0.873039
vt 0.584166 0.696863
vt 0.501000 0.873039
vt 0.501000 0.696863
vt 0.417833 0.873039
vt 0.417833 0.696863
vt 0.334666 0.873039
vt 0.334666 0.696863
vt 0.251500 0.873039
vt 0.251500 0.696863
vt 0.168333 0.873039
vt 0.168333 0.696863
vt 0.085166 0.873039
vt 0.085166 0.696863
vt 0.002000 0.873039
vt 0.002000 0.696863
vt 0.002000 1.000000
vt 0.085166 1.000000
vt 0.168333 1.000000
vt 0.251500 1.000000
vt 0.334666 1.000000
vt 0.417833 1.000000
vt 0.501000 1.000000
vt 0.584166 1.000000
vt 0.667333 1.000000
vt 0.750500 1.000000
vt 0.833666 1.000000
vt 0.916833 1.000000
vt 1.000000 1.000000
s 1
f 53/1/53 2/2/2 4/3/4 54/4/54
f 54/4/54 4/3/4 6/5/6 55/6/55
f 55/6/55 6/5/6 8/7/8 56/8/56
f 56/8/56 8/7/8 10/9/10 57/10/57
f 57/10/57 10/9/10 12/11/12 58/12/58
f 58/12/58 12/11/12 14/13/14 59/14/59
f 59/14/59 14/13/14 16/15/16 60/16/60
f 60/16/60 16/15/16 18/17/18 61/18/61
f 61/18/61 18/17/18 20/19/20 62/20/62
f 62/20/62 20/19/20 22/21/22 63/22/63
f 63/22/63 22/21/22 24/23/24 64/24/64
f 64/24/64 24/23/24 26/25/26 65/26/65
f 51/27/51 38/28/38 39/29/39 52/30/52
f 50/31/50 37/32/37 38/28/38 51/27/51
f 49/33/49 36/34/36 37/32/37 50/31/50
f 48/35/48 35/36/35 36/34/36 49/33/49
f 47/37/47 34/38/34 35/36/35 48/35/48
f 46/39/46 33/40/33 34/38/34 47/37/47
f 45/41/45 32/42/32 33/40/33 46/39/46
f 44/43/44 31/44/31 32/42/32 45/41/45
f 43/45/43 30/46/30 31/44/31 44/43/44
f 42/47/42 29/48/29 30/46/30 43/45/43
f 41/49/41 28/50/28 29/48/29 42/47/42
f 40/51/40 27/52/27 28/50/28 41/49/41
f 1/53/1 41/49/41 3/54/3
f 3/54/3 41/49/41 42/47/42 5/55/5
f 5/55/5 42/47/42 43/45/43 7/56/7
f 7/56/7 43/45/43 44/43/44 9/57/9
f 9/57/9 44/43/44 45/41/45 11/58/11
f 11/58/11 45/41/45 46/39/46 13/59/13
f 13/59/13 46/39/46 47/37/47 15/60/15
f 15/60/15 47/37/47 48/35/48 17/61/17
f 17/61/17 48/35/48 49/33/49 19/62/19
f 19/62/19 49/33/49 50/31/50 21/63/21
f 21/63/21 50/31/50 51/27/51 23/64/23
f 23/64/23 51/27/51 25/65/25
f 38/28/38 64/24/64 65/26/65 39/29/39
f 37/32/37 63/22/63 64/24/64 38/28/38
f 36/34/36 62/20/62 63/22/63 37/32/37
f 35/36/35 61/18/61 62/20/62 36/34/36
f 34/38/34 60/16/60 61/18/61 35/36/35
f 33/40/33 59/14/59 60/16/60 34/38/34
f 32/42/32 58/12/58 59/14/59 33/40/33
f 31/44/31 57/10/57 58/12/58 32/42/32
f 30/46/30 56/8/56 57/10/57 31/44/31
f 29/48/29 55/6/55 56/8/56 30/46/30
f 28/50/28 54/4/54 55/6/55 29/48/29
f 27/52/27 53/1/53 54/4/54 28/50/28
f 41/49/41 1/53/1 40/51/40
f 25/65/25 51/27/51 52/30/52
f 53/1/53 99/4/99 66/3/66 2/2/2
f 99/4/99 100/6/100 67/5/67 66/3/66
f 100/6/100 101/8/101 68/7/68 67/5/67
f 101/8/101 102/10/102 69/9/69 68/7/68
f 102/10/102 103/12/103 70/11/70 69/9/69
f 103/12/103 104/14/104 71/13/71 70/11/70
f 104/14/104 105/16/105 72/15/72 71/13/71
f 105/16/105 106/18/106 73/17/73 72/15/72
f 106/18/106 107/20/107 74/19/74 73/17/73
f 107/20/107 108/22/108 75/21/75 74/19/74
f 108/22/108 109/24/109 76/23/76 75/21/75
f 109/24/109 65/26/65 26/25/26 76/23/76
f 98/27/98 52/30/52 39/29/39 87/28/87
f 97/31/97 98/27/98 87/28/87 86/32/86
f 96/33/96 97/31/97 86/32/86 85/34/85
f 95/35/95 96/33/96 85/34/85 84/36/84
f 94/37/94 95/35/95 84/36/84 83/38/83
f 93/39/93 94/37/94 83/38/83 82/40/82
f 92/41/92 93/39/93 82/40/82 81/42/81
f 91/43/91 92/41/92 81/42/81 80/44/80
f 90/45/90 91/43/91 80/44/80 79/46/79
f 89/47/89 90/45/90 79/46/79 78/48/78
f 88/49/88 89/47/89 78/48/78 77/50/77
f 40/51/40 88/49/88 77/50/77 27/52/27
f 1/53/1 3/54/3 88/49/88
f 3/54/3 5/55/5 89/47/89 88/49/88
f 5/55/5 7/56/7 90/45/90 89/47/89
f 7/56/7 9/57/9 91/43/91 90/45/90
f 9/57/9 11/58/11 92/41/92 91/43/91
f 11/58/11 13/59/13 93/39/93 92/41/92
f 13/59/13 15/60/15 94/37/94 93/39/93
f 15/60/15 17/61/17 95/35/95 94/37/94
f 17/61/17 19/62/19 96/33/96 95/35/95
f 19/62/19 21/63/21 97/31/97 96/33/96
f 21/63/21 23/64/23 98/27/98 97/31/97
f 23/64/23 25/65/25 98/27/98
f 87/28/87 39/29/39 65/26/65 109/24/109
f 86/32/86 87/28/87 109/24/109 108/22/108
f 85/34/85 86/32/86 108/22/108 107/20/107
f 84/36/84 85/34/85 107/20/107 106/18/106
f 83/38/83 84/36/84 106/18/106 105/16/105
f 82/40/82 83/38/83 105/16/105 104/14/104
f 81/42/81 82/40/82 104/14/104 103/12/103
f 80/44/80 81/42/81 103/12/103 102/10/102
f 79/46/79 80/44/80 102/10/102 101/8/101
f 78/48/78 79/46/79 101/8/101 100/6/100
f 77/50/77 78/48/78 100/6/100 99/4/99
f 27/52/27 77/50/77 99/4/99 53/1/53
f 88/49/88 40/51/40 1/53/1
f 25/65/25 52/30/52 98/27/98
