# Blender 4.5.1 LTS
# www.blender.org
o Plane.001
v -1.000000 0.000000 0.000000
v 1.000000 0.000000 0.000000
v -10.263358 2.878613 -11.028062
v 10.263358 2.878613 -11.028062
v -9.094159 1.594472 -10.476659
v -8.352416 1.148697 -10.144560
v -7.571812 0.844792 -9.373853
v -6.943224 0.749564 -8.822450
v -6.324897 0.632998 -8.271047
v -5.687360 0.504443 -7.719644
v -5.086377 0.358634 -7.168241
v -4.546057 0.214354 -6.616838
v -4.070959 0.095211 -6.065434
v -3.655571 0.020041 -5.514031
v -3.295937 0.000000 -4.962628
v -2.986076 0.000000 -4.411225
v -2.718724 0.000000 -3.859822
v -2.473062 0.000000 -3.308419
v -2.227551 0.000000 -2.757015
v -1.982041 0.000000 -2.205612
v -1.736531 0.000000 -1.654209
v -1.491020 0.000000 -1.102806
v -1.245510 0.000000 -0.551403
v 1.245510 0.000000 -0.551403
v 1.491020 0.000000 -1.102806
v 1.736531 0.000000 -1.654209
v 1.982041 0.000000 -2.205612
v 2.227551 0.000000 -2.757015
v 2.473062 0.000000 -3.308419
v 2.718572 0.000000 -3.859822
v 2.975352 0.000000 -4.411225
v 3.270407 0.000000 -4.962628
v 3.611634 0.009325 -5.514031
v 4.005500 0.069086 -6.065434
v 4.457236 0.176613 -6.616837
v 4.972174 0.319436 -7.168240
v 5.555059 0.479585 -7.719643
v 6.194643 0.634939 -8.271047
v 6.853397 0.769208 -8.822450
v 7.571812 0.844792 -9.373853
v 8.352416 1.148697 -10.144560
v 9.094159 1.594472 -10.476659
v -0.600000 0.000000 0.000000
v -0.200000 0.000000 0.000000
v 0.200000 0.000000 0.000000
v 0.600000 0.000000 0.000000
v 6.166192 2.878613 -11.028062
v 2.061955 2.878613 -11.028062
v -2.061955 2.878613 -11.028062
v -6.166192 2.878613 -11.028062
v 0.747306 0.000000 -0.551403
v 0.249102 0.000000 -0.551403
v -0.249102 0.000000 -0.551403
v -0.747306 0.000000 -0.551403
v 0.894612 0.000000 -1.102806
v 0.298204 0.000000 -1.102806
v -0.298204 0.000000 -1.102806
v -0.894612 0.000000 -1.102806
v 1.041918 0.000000 -1.654209
v 0.347306 0.000000 -1.654209
v -0.347306 0.000000 -1.654209
v -1.041918 0.000000 -1.654209
v 1.189224 0.000000 -2.205612
v 0.396408 0.000000 -2.205612
v -0.396408 0.000000 -2.205612
v -1.189224 0.000000 -2.205612
v 1.336531 0.000000 -2.757015
v 0.445510 0.000000 -2.757015
v -0.445510 0.000000 -2.757015
v -1.336531 0.000000 -2.757015
v 1.483837 0.000000 -3.308419
v 0.494612 0.000000 -3.308419
v -0.494612 0.000000 -3.308419
v -1.483837 0.000000 -3.308419
v 1.631143 0.000000 -3.859822
v 0.543714 0.000000 -3.859822
v -0.543714 0.000000 -3.859822
v -1.631143 0.000000 -3.859822
v 1.783183 0.000000 -4.411225
v 0.594208 0.000000 -4.411225
v -0.594208 0.000000 -4.411225
v -1.786044 0.000000 -4.411225
v 1.956680 0.000000 -4.962628
v 0.651877 0.000000 -4.962628
v -0.651877 0.000000 -4.962628
v -1.964864 0.000000 -4.962628
v 2.156815 0.008311 -5.514031
v 0.718744 0.009779 -5.514031
v -0.718744 0.009779 -5.514031
v -2.172578 0.014733 -5.514031
v 2.387242 0.067090 -6.065434
v 0.796310 0.076679 -6.065434
v -0.796310 0.076679 -6.065434
v -2.413474 0.086984 -6.065434
v 2.650698 0.174244 -6.616837
v 0.885917 0.203727 -6.616837
v -0.885917 0.203727 -6.616837
v -2.691096 0.211478 -6.616838
v 2.948422 0.315428 -7.168240
v 0.988610 0.384475 -7.168240
v -0.988610 0.384475 -7.168240
v -3.007638 0.373006 -7.168241
v 3.279426 0.469786 -7.719643
v 1.105209 0.607178 -7.719643
v -1.105209 0.607178 -7.719643
v -3.363651 0.546894 -7.719644
v 3.638933 0.611984 -8.271047
v 1.235618 0.850506 -8.271047
v -1.235618 0.850506 -8.271047
v -3.753541 0.700205 -8.271047
v 4.021662 0.718969 -8.822450
v 1.378736 1.077078 -8.822450
v -1.378736 1.077078 -8.822450
v -4.169554 0.801112 -8.822450
v 4.411129 1.090471 -9.373853
v 1.524414 1.235456 -9.373853
v -1.524414 1.235456 -9.373853
v -4.669947 1.045548 -9.401266
v 5.162557 1.487569 -9.953954
v 1.702446 1.693271 -9.925256
v -1.702446 1.693271 -9.925256
v -5.162557 1.487569 -9.953954
v 5.498641 1.976866 -10.476659
v 1.841958 2.242114 -10.476659
v -1.841958 2.242114 -10.476659
v -5.498641 1.976866 -10.476659
v 0.000000 0.000000 0.000000
v 0.000000 2.878613 -11.028062
v 0.000000 0.000000 -0.551403
v 0.000000 0.000000 -1.102806
v 0.000000 0.000000 -1.654209
v 0.000000 0.000000 -2.205612
v 0.000000 0.000000 -2.757015
v 0.000000 0.000000 -3.308419
v 0.000000 0.000000 -3.859822
v 0.000000 0.000000 -4.411225
v 0.000000 0.000000 -4.962628
v 0.000000 0.009779 -5.514031
v 0.000000 0.076679 -6.065434
v 0.000000 0.203727 -6.616837
v 0.000000 0.384475 -7.168240
v 0.000000 0.607178 -7.719643
v 0.000000 0.850506 -8.271047
v 0.000000 1.077078 -8.822450
v 0.000000 1.235456 -9.373853
v 0.000000 1.693271 -9.925256
v 0.000000 2.242114 -10.476659
v -0.000000 -0.408427 0.000000
v 0.000000 0.408427 0.000000
v -0.000000 -0.486429 -0.551403
v 0.000000 0.486429 -0.551403
v -0.000000 -0.566427 -1.102806
v 0.000000 0.566427 -1.102806
v -0.000000 -0.650488 -1.654209
v 0.000000 0.650488 -1.654209
v -0.000000 -0.740366 -2.205612
v 0.000000 0.740366 -2.205612
v -0.000000 -0.837504 -2.757015
v 0.000000 0.837504 -2.757015
v -0.000000 -0.943033 -3.308419
v 0.000000 0.943033 -3.308419
v -0.000000 -1.057771 -3.859822
v 0.000000 1.057771 -3.859822
v -0.000000 -1.182223 -4.411225
v 0.000000 1.182223 -4.411225
v -0.000000 -1.316533 -4.974301
v 0.000000 1.316533 -4.950955
v -0.000000 -1.447482 -5.615086
v 0.000000 1.467040 -5.412976
v -0.000000 -1.514473 -6.344462
v 0.000000 1.667831 -5.786406
v -0.000000 -1.512926 -7.094907
v 0.000000 1.920381 -6.138767
v -0.000000 -1.457414 -7.841218
v 0.000000 2.226363 -6.495262
v -0.000000 -1.374606 -8.556871
v 0.000000 2.588963 -6.882415
v -0.000000 -1.310858 -9.191813
v 0.000000 3.011871 -7.350280
v -0.000000 -1.328964 -9.659458
v 0.000000 3.381665 -7.643029
v -0.000000 -1.191833 -10.657068
v 0.000000 3.561290 -7.748225
v -0.000000 -0.533805 -11.950624
v 0.000000 3.920346 -7.899888
v -0.000000 -0.022377 -12.903505
v 0.000000 4.506605 -8.049812
v -0.000000 0.469679 -13.808762
v 0.000000 5.287548 -8.247362
v 0.600000 -0.408427 0.000000
v 0.600000 0.408427 0.000000
v 0.747306 -0.486373 -0.551403
v 0.747306 0.486373 -0.551403
v 0.894612 -0.559187 -1.102806
v 0.894612 0.559187 -1.102806
v 1.041918 -0.627233 -1.654209
v 1.041918 0.627233 -1.654209
v 1.189225 -0.696364 -2.205612
v 1.189224 0.696364 -2.205612
v 1.336531 -0.770143 -2.757015
v 1.336531 0.770143 -2.757015
v 1.483837 -0.850249 -3.308419
v 1.483837 0.850249 -3.308419
v 1.631143 -0.938002 -3.859822
v 1.631143 0.938002 -3.859822
v 1.783184 -1.034586 -4.411225
v 1.783183 1.034586 -4.411225
v 1.959123 -1.141572 -4.970340
v 1.954237 1.141572 -4.954916
v 2.180652 -1.249835 -5.580601
v 2.132979 1.266457 -5.447461
v 2.456268 -1.311730 -6.241030
v 2.318215 1.445909 -5.889838
v 2.767653 -1.333467 -6.896097
v 2.533744 1.681954 -6.337577
v 3.102722 -1.338735 -7.523352
v 2.794122 1.969591 -6.813128
v 3.446504 -1.355468 -8.106079
v 3.112348 2.295040 -7.333207
v 3.781236 -1.407890 -8.631981
v 3.436913 2.610151 -7.728826
v 4.356904 -1.409136 -9.479202
v 3.686421 2.923166 -8.140333
v 4.977722 -1.138845 -10.339176
v 3.844536 3.319786 -8.408529
v 5.953273 -0.949762 -11.207386
v 4.086800 3.779526 -8.622412
v 6.713831 -0.340997 -12.237708
v 4.283452 4.294729 -8.715610
v 7.730288 0.376855 -13.225802
v 4.602097 5.380372 -8.830321
v -0.600000 -0.408427 0.000000
v -0.600000 0.408427 0.000000
v -0.747306 -0.486373 -0.551403
v -0.747306 0.486373 -0.551403
v -0.894612 -0.559187 -1.102806
v -0.894612 0.559187 -1.102806
v -1.041918 -0.627233 -1.654209
v -1.041918 0.627233 -1.654209
v -1.189225 -0.696364 -2.205612
v -1.189224 0.696364 -2.205612
v -1.336531 -0.770143 -2.757015
v -1.336531 0.770143 -2.757015
v -1.483837 -0.850249 -3.308419
v -1.483837 0.850249 -3.308419
v -1.631143 -0.938002 -3.859822
v -1.631143 0.938002 -3.859822
v -1.783184 -1.034586 -4.411225
v -1.783183 1.034586 -4.411225
v -1.959123 -1.141572 -4.970340
v -1.954237 1.141572 -4.954916
v -2.180652 -1.249835 -5.580601
v -2.132979 1.266457 -5.447461
v -2.456268 -1.311730 -6.241030
v -2.318215 1.445909 -5.889838
v -2.767653 -1.333467 -6.896097
v -2.533744 1.681954 -6.337577
v -3.102722 -1.338735 -7.523352
v -2.794122 1.969591 -6.813128
v -3.446504 -1.355468 -8.106079
v -3.112348 2.295040 -7.333207
v -3.781236 -1.407890 -8.631981
v -3.436913 2.610151 -7.728826
v -4.356904 -1.409136 -9.479202
v -3.686421 2.923166 -8.140333
v -4.977722 -1.138845 -10.339176
v -3.844536 3.319786 -8.408529
v -5.953273 -0.949762 -11.207386
v -4.086800 3.779526 -8.622412
v -6.713831 -0.340997 -12.237708
v -4.283452 4.294729 -8.715610
v -7.730288 0.376855 -13.225802
v -4.602097 5.380372 -8.830321
vn -0.0000 1.0000 -0.0000
vn -0.0217 0.4358 0.8998
vn 0.0217 0.4358 0.8998
vn -0.0384 0.4833 0.8746
vn -0.0884 0.6746 0.7328
vn -0.0769 0.8631 0.4991
vn -0.0361 0.9537 0.2985
vn -0.0217 0.9740 0.2255
vn -0.0194 0.9622 0.2717
vn -0.0099 0.9589 0.2834
vn -0.0012 0.9671 0.2542
vn 0.0034 0.9819 0.1896
vn 0.0035 0.9951 0.0993
vn 0.0013 0.9998 0.0205
vn -0.0002 0.9999 0.0105
vn -0.0008 0.9970 0.0777
vn -0.0012 0.9862 0.1654
vn -0.0015 0.9727 0.2322
vn -0.0027 0.9640 0.2657
vn -0.0057 0.9658 0.2591
vn -0.0118 0.9768 0.2140
vn 0.0204 0.9334 0.3584
vn 0.0790 0.8567 0.5097
vn 0.0898 0.6771 0.7304
vn 0.0384 0.4833 0.8746
vn 0.0211 0.4818 0.8760
vn 0.0114 0.6092 0.7929
vn -0.0114 0.6092 0.7929
vn -0.0211 0.4818 0.8760
vn 0.0001 1.0000 0.0081
vn 0.0001 1.0000 0.0086
vn 0.0004 1.0000 0.0098
vn 0.0009 0.9999 0.0126
vn 0.0009 0.9980 0.0638
vn 0.0010 0.9977 0.0674
vn 0.0016 0.9975 0.0710
vn 0.0033 0.9970 0.0767
vn 0.0038 0.9876 0.1566
vn 0.0036 0.9858 0.1680
vn 0.0025 0.9850 0.1728
vn 0.0045 0.9849 0.1732
vn 0.0096 0.9716 0.2364
vn 0.0088 0.9657 0.2596
vn 0.0012 0.9645 0.2639
vn 0.0011 0.9677 0.2520
vn 0.0190 0.9568 0.2901
vn 0.0174 0.9440 0.3295
vn -0.0037 0.9431 0.3325
vn -0.0084 0.9531 0.3025
vn 0.0317 0.9500 0.3107
vn 0.0298 0.9285 0.3702
vn -0.0134 0.9288 0.3704
vn -0.0243 0.9480 0.3173
vn 0.0462 0.9552 0.2924
vn 0.0455 0.9278 0.3702
vn -0.0280 0.9304 0.3654
vn -0.0437 0.9557 0.2912
vn 0.0446 0.9379 0.3439
vn 0.0486 0.9329 0.3569
vn -0.0374 0.9427 0.3316
vn -0.0513 0.9519 0.3020
vn 0.0529 0.8542 0.5172
vn 0.0334 0.8556 0.5165
vn -0.0329 0.8671 0.4971
vn -0.0575 0.8720 0.4860
vn 0.0732 0.7539 0.6529
vn 0.0243 0.7421 0.6698
vn -0.0258 0.7362 0.6763
vn -0.0706 0.7452 0.6631
vn 0.0468 0.5913 0.8051
vn 0.0177 0.6652 0.7465
vn -0.0177 0.6652 0.7465
vn -0.0468 0.5913 0.8051
vn -0.0000 0.6548 0.7558
vn -0.0000 1.0000 0.0089
vn -0.0000 0.9976 0.0692
vn -0.0000 0.9850 0.1727
vn -0.0000 0.9633 0.2683
vn -0.0000 0.9393 0.3432
vn -0.0000 0.9212 0.3892
vn -0.0000 0.9200 0.3919
vn -0.0000 0.9445 0.3286
vn -0.0000 0.8841 0.4674
vn -0.0000 0.7398 0.6728
vn -0.0000 0.6822 0.7311
vn -1.0000 -0.0000 -0.0000
vn -0.9661 -0.0000 -0.2581
vn -0.9650 -0.0000 -0.2623
vn -0.9586 -0.0000 -0.2849
vn -0.9585 -0.0000 -0.2849
vn -0.9464 0.0001 -0.3231
vn -0.9463 0.0001 -0.3233
vn -0.9306 0.0017 -0.3660
vn -0.9304 0.0018 -0.3666
vn -0.9119 0.0066 -0.4104
vn -0.9115 0.0067 -0.4112
vn -0.8912 0.0149 -0.4534
vn -0.8908 0.0150 -0.4541
vn -0.8697 0.0247 -0.4929
vn -0.8696 0.0247 -0.4931
vn -0.8369 0.0427 -0.5457
vn -0.8366 0.0428 -0.5461
vn -0.8318 0.0468 -0.5531
vn -0.8322 0.0467 -0.5525
vn -0.8356 0.0385 -0.5479
vn -0.8352 0.0382 -0.5486
vn -0.7571 0.0858 -0.6476
vn -0.7474 0.0917 -0.6580
vn -0.7495 0.0762 -0.6576
vn -0.7533 0.0729 -0.6537
vn -0.7526 0.0958 -0.6514
vn -0.7490 0.1015 -0.6548
vn -0.7300 0.1301 -0.6709
vn 0.9661 -0.0000 -0.2581
vn 0.9650 -0.0000 -0.2623
vn 0.9586 -0.0000 -0.2849
vn 0.9585 -0.0000 -0.2849
vn 0.9464 0.0001 -0.3231
vn 0.9463 0.0001 -0.3233
vn 0.9306 0.0017 -0.3660
vn 0.9304 0.0018 -0.3666
vn 0.9119 0.0066 -0.4104
vn 0.9115 0.0067 -0.4112
vn 0.8912 0.0149 -0.4534
vn 0.8908 0.0150 -0.4541
vn 0.8697 0.0247 -0.4929
vn 0.8696 0.0247 -0.4931
vn 0.8369 0.0427 -0.5457
vn 0.8366 0.0428 -0.5461
vn 0.8318 0.0468 -0.5531
vn 0.8322 0.0467 -0.5525
vn 0.8356 0.0385 -0.5479
vn 0.8352 0.0382 -0.5486
vn 0.7571 0.0858 -0.6476
vn 0.7474 0.0917 -0.6580
vn 0.7495 0.0762 -0.6576
vn 0.7533 0.0729 -0.6537
vn 0.7526 0.0958 -0.6514
vn 0.7490 0.1015 -0.6548
vn 0.7300 0.1301 -0.6709
vt 0.800000 0.906327
vt 1.000000 0.906327
vt 1.000000 0.996209
vt 0.800000 0.996209
vt 0.800000 0.008282
vt 1.000000 0.008282
vt 1.000000 0.027617
vt 0.800000 0.027617
vt 1.000000 0.046953
vt 0.800000 0.046953
vt 1.000000 0.066289
vt 0.800000 0.066289
vt 1.000000 0.086240
vt 0.800000 0.086240
vt 1.000000 0.110104
vt 0.800000 0.110104
vt 1.000000 0.138369
vt 0.800000 0.138369
vt 1.000000 0.171036
vt 0.800000 0.171035
vt 1.000000 0.208103
vt 0.800000 0.208103
vt 1.000000 0.249572
vt 0.800000 0.249572
vt 1.000000 0.295442
vt 0.800000 0.295442
vt 1.000000 0.345714
vt 0.800000 0.345714
vt 1.000000 0.400386
vt 0.800000 0.400386
vt 1.000000 0.459460
vt 0.800000 0.459460
vt 1.000000 0.522935
vt 0.800000 0.522935
vt 1.000000 0.590811
vt 0.800000 0.590811
vt 1.000000 0.663088
vt 0.800000 0.663088
vt 1.000000 0.739767
vt 0.800000 0.739767
vt 1.000000 0.820846
vt 0.800000 0.820846
vt 0.000000 0.820846
vt 0.200000 0.820846
vt 0.200000 0.906327
vt 0.000000 0.906327
vt 0.400000 0.820846
vt 0.400000 0.906327
vt 0.500000 0.820846
vt 0.600000 0.820846
vt 0.600000 0.906327
vt 0.500000 0.906327
vt 0.000000 0.739767
vt 0.200000 0.739767
vt 0.400000 0.739767
vt 0.500000 0.739767
vt 0.600000 0.739767
vt 0.000000 0.663088
vt 0.200000 0.663088
vt 0.400000 0.663088
vt 0.500000 0.663088
vt 0.600000 0.663088
vt 0.000000 0.590811
vt 0.200000 0.590811
vt 0.400000 0.590811
vt 0.500000 0.590811
vt 0.600000 0.590811
vt 0.000000 0.522935
vt 0.200000 0.522935
vt 0.400000 0.522935
vt 0.500000 0.522935
vt 0.600000 0.522935
vt 0.000000 0.459460
vt 0.200000 0.459460
vt 0.400000 0.459460
vt 0.500000 0.459460
vt 0.600000 0.459460
vt 0.000000 0.400386
vt 0.200000 0.400386
vt 0.400000 0.400386
vt 0.500000 0.400386
vt 0.600000 0.400386
vt 0.000000 0.345713
vt 0.200000 0.345713
vt 0.400000 0.345713
vt 0.500000 0.345713
vt 0.600000 0.345714
vt 0.000000 0.295442
vt 0.200000 0.295442
vt 0.400000 0.295442
vt 0.500000 0.295442
vt 0.600000 0.295442
vt 0.000000 0.249572
vt 0.200000 0.249572
vt 0.400000 0.249572
vt 0.500000 0.249572
vt 0.600000 0.249572
vt 0.000000 0.208103
vt 0.200000 0.208103
vt 0.400000 0.208103
vt 0.500000 0.208103
vt 0.600000 0.208103
vt 0.000000 0.171036
vt 0.200000 0.171036
vt 0.400000 0.171036
vt 0.500000 0.171036
vt 0.600000 0.171036
vt 0.000000 0.138369
vt 0.200000 0.138369
vt 0.400000 0.138369
vt 0.500000 0.138369
vt 0.600000 0.138369
vt 0.000000 0.110104
vt 0.200000 0.110104
vt 0.400000 0.110104
vt 0.500000 0.110104
vt 0.600000 0.110104
vt 0.000000 0.086240
vt 0.200000 0.086240
vt 0.400000 0.086240
vt 0.500000 0.086240
vt 0.600000 0.086240
vt 0.000000 0.066289
vt 0.200000 0.066289
vt 0.400000 0.066289
vt 0.500000 0.066289
vt 0.600000 0.066289
vt 0.000000 0.046953
vt 0.200000 0.046953
vt 0.400000 0.046953
vt 0.500000 0.046953
vt 0.600000 0.046953
vt 0.000000 0.027617
vt 0.200000 0.027617
vt 0.400000 0.027617
vt 0.500000 0.027617
vt 0.600000 0.027617
vt 0.000000 0.008282
vt 0.200000 0.008282
vt 0.400000 0.008282
vt 0.500000 0.008282
vt 0.600000 0.008282
vt 0.200000 0.996209
vt 0.000000 0.996209
vt 0.400000 0.996209
vt 0.600000 0.996209
vt 0.500000 0.996209
vt 0.000000 0.001931
vt 0.000000 0.023297
vt 1.000000 0.023297
vt 1.000000 0.001930
vt 0.000000 0.044663
vt 1.000000 0.044663
vt 0.000000 0.066029
vt 1.000000 0.066029
vt 0.000000 0.087975
vt 1.000000 0.087975
vt 0.000000 0.113612
vt 1.000000 0.113613
vt 0.000000 0.143401
vt 1.000000 0.143401
vt 0.000000 0.177340
vt 1.000000 0.177340
vt 0.000000 0.215430
vt 1.000000 0.215430
vt 0.000000 0.257671
vt 1.000000 0.257671
vt 0.000000 0.304063
vt 1.000000 0.304063
vt 0.000000 0.354607
vt 1.000000 0.354607
vt 0.000000 0.409301
vt 1.000000 0.409301
vt 0.000000 0.468146
vt 1.000000 0.468146
vt 0.000000 0.531142
vt 1.000000 0.531142
vt 0.000000 0.598290
vt 1.000000 0.598290
vt 0.000000 0.669588
vt 1.000000 0.669588
vt 0.000000 0.745038
vt 1.000000 0.745038
vt 0.000000 0.824638
vt 1.000000 0.824638
vt 0.000000 0.908389
vt 1.000000 0.908390
vt 0.000000 0.996292
vt 1.000000 0.996292
s 1
f 123/1/70 42/2/25 4/3/3 47/4/26
f 46/5/1 2/6/1 24/7/1 51/8/1
f 51/8/1 24/7/1 25/9/1 55/10/1
f 55/10/1 25/9/1 26/11/1 59/12/1
f 59/12/1 26/11/1 27/13/1 63/14/1
f 63/14/1 27/13/1 28/15/1 67/16/1
f 67/16/1 28/15/1 29/17/1 71/18/1
f 71/18/1 29/17/1 30/19/1 75/20/1
f 75/20/1 30/19/1 31/21/1 79/22/1
f 79/22/1 31/21/1 32/23/15 83/24/30
f 83/24/30 32/23/15 33/25/16 87/26/34
f 87/26/34 33/25/16 34/27/17 91/28/38
f 91/28/38 34/27/17 35/29/18 95/30/42
f 95/30/42 35/29/18 36/31/19 99/32/46
f 99/32/46 36/31/19 37/33/20 103/34/50
f 103/34/50 37/33/20 38/35/21 107/36/54
f 107/36/54 38/35/21 39/37/22 111/38/58
f 111/38/58 39/37/22 40/39/23 115/40/62
f 115/40/62 40/39/23 41/41/24 119/42/66
f 119/42/66 41/41/24 42/2/25 123/1/70
f 6/43/5 122/44/69 126/45/73 5/46/4
f 122/44/69 121/47/68 125/48/72 126/45/73
f 146/49/84 120/50/67 124/51/71 147/52/85
f 120/50/67 119/42/66 123/1/70 124/51/71
f 7/53/6 118/54/65 122/44/69 6/43/5
f 118/54/65 117/55/64 121/47/68 122/44/69
f 145/56/83 116/57/63 120/50/67 146/49/84
f 116/57/63 115/40/62 119/42/66 120/50/67
f 8/58/7 114/59/61 118/54/65 7/53/6
f 114/59/61 113/60/60 117/55/64 118/54/65
f 144/61/82 112/62/59 116/57/63 145/56/83
f 112/62/59 111/38/58 115/40/62 116/57/63
f 9/63/8 110/64/57 114/59/61 8/58/7
f 110/64/57 109/65/56 113/60/60 114/59/61
f 143/66/81 108/67/55 112/62/59 144/61/82
f 108/67/55 107/36/54 111/38/58 112/62/59
f 10/68/9 106/69/53 110/64/57 9/63/8
f 106/69/53 105/70/52 109/65/56 110/64/57
f 142/71/80 104/72/51 108/67/55 143/66/81
f 104/72/51 103/34/50 107/36/54 108/67/55
f 11/73/10 102/74/49 106/69/53 10/68/9
f 102/74/49 101/75/48 105/70/52 106/69/53
f 141/76/79 100/77/47 104/72/51 142/71/80
f 100/77/47 99/32/46 103/34/50 104/72/51
f 12/78/11 98/79/45 102/74/49 11/73/10
f 98/79/45 97/80/44 101/75/48 102/74/49
f 140/81/78 96/82/43 100/77/47 141/76/79
f 96/82/43 95/30/42 99/32/46 100/77/47
f 13/83/12 94/84/41 98/79/45 12/78/11
f 94/84/41 93/85/40 97/80/44 98/79/45
f 139/86/77 92/87/39 96/82/43 140/81/78
f 92/87/39 91/28/38 95/30/42 96/82/43
f 14/88/13 90/89/37 94/84/41 13/83/12
f 90/89/37 89/90/36 93/85/40 94/84/41
f 138/91/76 88/92/35 92/87/39 139/86/77
f 88/92/35 87/26/34 91/28/38 92/87/39
f 15/93/14 86/94/33 90/89/37 14/88/13
f 86/94/33 85/95/32 89/90/36 90/89/37
f 137/96/75 84/97/31 88/92/35 138/91/76
f 84/97/31 83/24/30 87/26/34 88/92/35
f 16/98/1 82/99/1 86/94/33 15/93/14
f 82/99/1 81/100/1 85/95/32 86/94/33
f 136/101/1 80/102/1 84/97/31 137/96/75
f 80/102/1 79/22/1 83/24/30 84/97/31
f 17/103/1 78/104/1 82/99/1 16/98/1
f 78/104/1 77/105/1 81/100/1 82/99/1
f 135/106/1 76/107/1 80/102/1 136/101/1
f 76/107/1 75/20/1 79/22/1 80/102/1
f 18/108/1 74/109/1 78/104/1 17/103/1
f 74/109/1 73/110/1 77/105/1 78/104/1
f 134/111/1 72/112/1 76/107/1 135/106/1
f 72/112/1 71/18/1 75/20/1 76/107/1
f 19/113/1 70/114/1 74/109/1 18/108/1
f 70/114/1 69/115/1 73/110/1 74/109/1
f 133/116/1 68/117/1 72/112/1 134/111/1
f 68/117/1 67/16/1 71/18/1 72/112/1
f 20/118/1 66/119/1 70/114/1 19/113/1
f 66/119/1 65/120/1 69/115/1 70/114/1
f 132/121/1 64/122/1 68/117/1 133/116/1
f 64/122/1 63/14/1 67/16/1 68/117/1
f 21/123/1 62/124/1 66/119/1 20/118/1
f 62/124/1 61/125/1 65/120/1 66/119/1
f 131/126/1 60/127/1 64/122/1 132/121/1
f 60/127/1 59/12/1 63/14/1 64/122/1
f 22/128/1 58/129/1 62/124/1 21/123/1
f 58/129/1 57/130/1 61/125/1 62/124/1
f 130/131/1 56/132/1 60/127/1 131/126/1
f 56/132/1 55/10/1 59/12/1 60/127/1
f 23/133/1 54/134/1 58/129/1 22/128/1
f 54/134/1 53/135/1 57/130/1 58/129/1
f 129/136/1 52/137/1 56/132/1 130/131/1
f 52/137/1 51/8/1 55/10/1 56/132/1
f 1/138/1 43/139/1 54/134/1 23/133/1
f 43/139/1 44/140/1 53/135/1 54/134/1
f 127/141/1 45/142/1 52/137/1 129/136/1
f 45/142/1 46/5/1 51/8/1 52/137/1
f 5/46/4 126/45/73 50/143/29 3/144/2
f 126/45/73 125/48/72 49/145/28 50/143/29
f 147/52/85 124/51/71 48/146/27 128/147/74
f 124/51/71 123/1/70 47/4/26 48/146/27
f 125/48/72 147/52/85 128/147/74 49/145/28
f 44/140/1 127/141/1 129/136/1 53/135/1
f 53/135/1 129/136/1 130/131/1 57/130/1
f 57/130/1 130/131/1 131/126/1 61/125/1
f 61/125/1 131/126/1 132/121/1 65/120/1
f 65/120/1 132/121/1 133/116/1 69/115/1
f 69/115/1 133/116/1 134/111/1 73/110/1
f 73/110/1 134/111/1 135/106/1 77/105/1
f 77/105/1 135/106/1 136/101/1 81/100/1
f 81/100/1 136/101/1 137/96/75 85/95/32
f 85/95/32 137/96/75 138/91/76 89/90/36
f 89/90/36 138/91/76 139/86/77 93/85/40
f 93/85/40 139/86/77 140/81/78 97/80/44
f 97/80/44 140/81/78 141/76/79 101/75/48
f 101/75/48 141/76/79 142/71/80 105/70/52
f 105/70/52 142/71/80 143/66/81 109/65/56
f 109/65/56 143/66/81 144/61/82 113/60/60
f 113/60/60 144/61/82 145/56/83 117/55/64
f 117/55/64 145/56/83 146/49/84 121/47/68
f 121/47/68 146/49/84 147/52/85 125/48/72
f 149/148/86 151/149/86 150/150/86 148/151/86
f 151/149/86 153/152/86 152/153/86 150/150/86
f 153/152/86 155/154/86 154/155/86 152/153/86
f 155/154/86 157/156/86 156/157/86 154/155/86
f 157/156/86 159/158/86 158/159/86 156/157/86
f 159/158/86 161/160/86 160/161/86 158/159/86
f 161/160/86 163/162/86 162/163/86 160/161/86
f 163/162/86 165/164/86 164/165/86 162/163/86
f 165/164/86 167/166/86 166/167/86 164/165/86
f 167/166/86 169/168/86 168/169/86 166/167/86
f 169/168/86 171/170/86 170/171/86 168/169/86
f 171/170/86 173/172/86 172/173/86 170/171/86
f 173/172/86 175/174/86 174/175/86 172/173/86
f 175/174/86 177/176/86 176/177/86 174/175/86
f 177/176/86 179/178/86 178/179/86 176/177/86
f 179/178/86 181/180/86 180/181/86 178/179/86
f 181/180/86 183/182/86 182/183/86 180/181/86
f 183/182/86 185/184/86 184/185/86 182/183/86
f 185/184/86 187/186/86 186/187/86 184/185/86
f 187/186/86 189/188/86 188/189/86 186/187/86
f 191/148/87 193/149/87 192/150/87 190/151/87
f 193/149/87 195/152/87 194/153/87 192/150/87
f 195/152/87 197/154/87 196/155/87 194/153/87
f 197/154/87 199/156/87 198/157/87 196/155/87
f 199/156/87 201/158/87 200/159/87 198/157/87
f 201/158/87 203/160/87 202/161/87 200/159/87
f 203/160/87 205/162/88 204/163/88 202/161/87
f 205/162/88 207/164/90 206/165/89 204/163/88
f 207/164/90 209/166/92 208/167/91 206/165/89
f 209/166/92 211/168/94 210/169/93 208/167/91
f 211/168/94 213/170/96 212/171/95 210/169/93
f 213/170/96 215/172/98 214/173/97 212/171/95
f 215/172/98 217/174/100 216/175/99 214/173/97
f 217/174/100 219/176/102 218/177/101 216/175/99
f 219/176/102 221/178/104 220/179/103 218/177/101
f 221/178/104 223/180/106 222/181/105 220/179/103
f 223/180/106 225/182/108 224/183/107 222/181/105
f 225/182/108 227/184/110 226/185/109 224/183/107
f 227/184/110 229/186/112 228/187/111 226/185/109
f 229/186/112 231/188/113 230/189/113 228/187/111
f 233/148/114 232/151/114 234/150/114 235/149/114
f 235/149/114 234/150/114 236/153/114 237/152/114
f 237/152/114 236/153/114 238/155/114 239/154/114
f 239/154/114 238/155/114 240/157/114 241/156/114
f 241/156/114 240/157/114 242/159/114 243/158/114
f 243/158/114 242/159/114 244/161/114 245/160/114
f 245/160/114 244/161/114 246/163/115 247/162/115
f 247/162/115 246/163/115 248/165/116 249/164/117
f 249/164/117 248/165/116 250/167/118 251/166/119
f 251/166/119 250/167/118 252/169/120 253/168/121
f 253/168/121 252/169/120 254/171/122 255/170/123
f 255/170/123 254/171/122 256/173/124 257/172/125
f 257/172/125 256/173/124 258/175/126 259/174/127
f 259/174/127 258/175/126 260/177/128 261/176/129
f 261/176/129 260/177/128 262/179/130 263/178/131
f 263/178/131 262/179/130 264/181/132 265/180/133
f 265/180/133 264/181/132 266/183/134 267/182/135
f 267/182/135 266/183/134 268/185/136 269/184/137
f 269/184/137 268/185/136 270/187/138 271/186/139
f 271/186/139 270/187/138 272/189/140 273/188/140
