# Blender 4.5.1 LTS
# www.blender.org
o Plane
v 0.754085 -0.007459 -0.132699
v 0.118029 0.007459 -0.132699
v 1.047641 -0.017900 -0.611530
v 0.008056 0.006831 -0.756761
v 1.400482 -0.031995 -1.181931
v 0.092968 0.001663 -1.515302
v 1.723235 -0.040143 -1.776459
v 0.281285 0.003276 -2.331876
v 2.046631 -0.033547 -2.309490
v 0.507050 0.023790 -3.148220
v 2.446465 -0.008750 -2.677738
v 0.808445 0.080667 -3.923728
v 2.748541 0.022045 -2.778972
v 1.244272 0.207030 -4.616747
v 2.850764 0.050245 -2.816033
v 1.823879 0.358212 -4.968283
v 3.097450 0.107363 -2.881117
v 2.441324 0.509572 -5.182703
v 3.422768 0.176181 -2.924461
v 3.078384 0.650807 -5.302433
v 3.746881 0.235463 -2.927219
v 3.730844 0.775637 -5.338987
v 3.983507 0.268829 -2.895514
v 4.400930 0.872918 -5.278907
v 4.019811 0.266435 -2.888895
v 5.117423 0.924977 -5.055309
v 3.867545 0.251754 -2.988839
v 5.767230 0.939659 -4.570706
v 3.752041 0.245093 -3.140311
v 6.161257 0.946319 -3.879066
v 3.710860 0.238433 -3.225818
v 6.277888 0.952980 -3.162527
v 3.688538 0.231772 -3.250187
v 6.188537 0.959641 -2.480911
v 3.673342 0.225112 -3.270818
v 5.920884 0.966301 -1.841465
v 3.738886 0.218451 -3.363035
v 5.417261 0.972962 -1.233513
v 4.069653 0.220525 -3.521393
v 4.780012 0.970888 -0.920125
v 4.324149 0.222598 -3.546992
v 4.157010 0.968815 -0.870592
v 4.394768 0.224672 -3.532549
v 3.684625 0.966741 -0.962133
v 4.358346 0.226746 -3.540296
v 3.314790 0.964667 -1.102455
v 4.280745 0.228819 -3.571232
v 3.010406 0.962593 -1.260498
v 4.208313 0.230893 -3.606595
v 2.753891 0.960520 -1.424960
v -0.754085 -0.007459 -0.132699
v -0.118029 0.007459 -0.132699
v -1.047641 -0.017900 -0.611530
v -0.008056 0.006831 -0.756761
v -1.400482 -0.031995 -1.181931
v -0.092968 0.001663 -1.515302
v -1.723235 -0.040143 -1.776459
v -0.281285 0.003276 -2.331876
v -2.046631 -0.033547 -2.309490
v -0.507050 0.023790 -3.148220
v -2.446465 -0.008750 -2.677738
v -0.808445 0.080667 -3.923728
v -2.748541 0.022045 -2.778972
v -1.244272 0.207030 -4.616747
v -2.850764 0.050245 -2.816033
v -1.823879 0.358212 -4.968283
v -3.097450 0.107363 -2.881117
v -2.441324 0.509572 -5.182703
v -3.422768 0.176181 -2.924461
v -3.078384 0.650807 -5.302433
v -3.746881 0.235463 -2.927219
v -3.730844 0.775637 -5.338987
v -3.983507 0.268829 -2.895514
v -4.400930 0.872918 -5.278907
v -4.019811 0.266435 -2.888895
v -5.117423 0.924977 -5.055309
v -3.867545 0.251754 -2.988839
v -5.767230 0.939659 -4.570706
v -3.752041 0.245093 -3.140311
v -6.161257 0.946319 -3.879066
v -3.710860 0.238433 -3.225818
v -6.277888 0.952980 -3.162527
v -3.688538 0.231772 -3.250187
v -6.188537 0.959641 -2.480911
v -3.673342 0.225112 -3.270818
v -5.920884 0.966301 -1.841465
v -3.738886 0.218451 -3.363035
v -5.417261 0.972962 -1.233513
v -4.069653 0.220525 -3.521393
v -4.780012 0.970888 -0.920125
v -4.324149 0.222598 -3.546992
v -4.157010 0.968815 -0.870592
v -4.394768 0.224672 -3.532549
v -3.684625 0.966741 -0.962133
v -4.358346 0.226746 -3.540296
v -3.314790 0.964667 -1.102455
v -4.280745 0.228819 -3.571232
v -3.010406 0.962593 -1.260498
v -4.208313 0.230893 -3.606595
v -2.753891 0.960520 -1.424960
v 0.542066 -0.002486 -0.132699
v 0.330048 0.002486 -0.132699
v 0.701112 -0.009656 -0.659940
v 0.354584 -0.001413 -0.708351
v 0.964644 -0.020775 -1.293055
v 0.528806 -0.009556 -1.404178
v 1.242585 -0.025670 -1.961598
v 0.761935 -0.011197 -2.146737
v 1.533437 -0.014435 -2.589066
v 1.020243 0.004678 -2.868643
v 1.900458 0.021056 -3.093068
v 1.354452 0.050862 -3.508399
v 2.247118 0.083707 -3.391563
v 1.745695 0.145369 -4.004155
v 2.508469 0.152901 -3.533450
v 2.166174 0.255556 -4.250866
v 2.878741 0.241433 -3.648313
v 2.660032 0.375502 -4.415507
v 3.307973 0.334390 -3.717119
v 3.193179 0.492599 -4.509776
v 3.741535 0.415521 -3.731142
v 3.736189 0.595579 -4.535065
v 4.122648 0.470192 -3.689979
v 4.261789 0.671555 -4.484443
v 4.385682 0.485949 -3.611033
v 4.751553 0.705463 -4.333171
v 4.500773 0.481055 -3.516128
v 5.134002 0.710357 -4.043417
v 4.555113 0.478835 -3.386562
v 5.358185 0.712577 -3.632814
v 4.566536 0.476615 -3.204721
v 5.422213 0.714797 -3.183624
v 4.521871 0.474395 -2.993762
v 5.355204 0.717018 -2.737337
v 4.422523 0.472175 -2.794367
v 5.171703 0.719238 -2.317916
v 4.298345 0.469955 -2.653194
v 4.857803 0.721458 -1.943353
v 4.306439 0.470646 -2.654304
v 4.543225 0.720767 -1.787214
v 4.268435 0.471337 -2.654858
v 4.212723 0.720076 -1.762725
v 4.158054 0.472028 -2.675744
v 3.921340 0.719384 -1.818938
v 4.010494 0.472719 -2.727683
v 3.662642 0.718693 -1.915069
v 3.857299 0.473411 -2.800987
v 3.433852 0.718002 -2.030742
v 3.723505 0.474102 -2.879383
v 3.238698 0.717311 -2.152171
v -0.542066 -0.002486 -0.132699
v -0.330048 0.002486 -0.132699
v -0.701112 -0.009656 -0.659940
v -0.354584 -0.001413 -0.708351
v -0.964644 -0.020775 -1.293055
v -0.528806 -0.009556 -1.404178
v -1.242585 -0.025670 -1.961598
v -0.761935 -0.011197 -2.146737
v -1.533437 -0.014435 -2.589066
v -1.020243 0.004678 -2.868643
v -1.900458 0.021056 -3.093068
v -1.354452 0.050862 -3.508399
v -2.247118 0.083707 -3.391563
v -1.745695 0.145369 -4.004155
v -2.508469 0.152901 -3.533450
v -2.166174 0.255556 -4.250866
v -2.878741 0.241433 -3.648313
v -2.660032 0.375502 -4.415507
v -3.307973 0.334390 -3.717119
v -3.193179 0.492599 -4.509776
v -3.741535 0.415521 -3.731142
v -3.736189 0.595579 -4.535065
v -4.122648 0.470192 -3.689979
v -4.261789 0.671555 -4.484443
v -4.385682 0.485949 -3.611033
v -4.751553 0.705463 -4.333171
v -4.500773 0.481055 -3.516128
v -5.134002 0.710357 -4.043417
v -4.555113 0.478835 -3.386562
v -5.358185 0.712577 -3.632814
v -4.566536 0.476615 -3.204721
v -5.422213 0.714797 -3.183624
v -4.521871 0.474395 -2.993762
v -5.355204 0.717018 -2.737337
v -4.422523 0.472175 -2.794367
v -5.171703 0.719238 -2.317916
v -4.298345 0.469955 -2.653194
v -4.857803 0.721458 -1.943353
v -4.306439 0.470646 -2.654304
v -4.543225 0.720767 -1.787214
v -4.268435 0.471337 -2.654858
v -4.212723 0.720076 -1.762725
v -4.158054 0.472028 -2.675744
v -3.921340 0.719384 -1.818938
v -4.010494 0.472719 -2.727683
v -3.662642 0.718693 -1.915069
v -3.857299 0.473411 -2.800987
v -3.433852 0.718002 -2.030742
v -3.723505 0.474102 -2.879383
v -3.238698 0.717311 -2.152171
v -0.436057 0.000000 -0.132699
v -0.527848 -0.005535 -0.684146
v -0.746725 -0.015166 -1.348616
v -1.002260 -0.018433 -2.054168
v -1.276840 -0.004878 -2.728855
v -1.627455 0.035959 -3.300734
v -1.996406 0.114538 -3.697859
v -2.337321 0.204228 -3.892158
v -2.769387 0.308467 -4.031910
v -3.250576 0.413494 -4.113447
v -3.738862 0.505550 -4.133103
v -4.192218 0.570874 -4.087211
v -4.568617 0.595706 -3.972102
v -4.817388 0.595706 -3.779773
v -4.956649 0.595706 -3.509688
v -4.994374 0.595706 -3.194172
v -4.938538 0.595706 -2.865549
v -4.797113 0.595706 -2.556142
v -4.578074 0.595706 -2.298274
v -4.424832 0.595706 -2.220759
v -4.240579 0.595706 -2.208792
v -4.039697 0.595706 -2.247341
v -3.836568 0.595706 -2.321376
v -3.645576 0.595706 -2.415865
v -3.481102 0.595706 -2.515777
v 0.436057 0.000000 -0.132699
v 0.527848 -0.005535 -0.684146
v 0.746725 -0.015166 -1.348616
v 1.002260 -0.018433 -2.054168
v 1.276840 -0.004878 -2.728855
v 1.627455 0.035959 -3.300734
v 1.996406 0.114538 -3.697859
v 2.337321 0.204228 -3.892158
v 2.769387 0.308467 -4.031910
v 3.250576 0.413494 -4.113447
v 3.738862 0.505550 -4.133103
v 4.192218 0.570874 -4.087211
v 4.568617 0.595706 -3.972102
v 4.817388 0.595706 -3.779773
v 4.956649 0.595706 -3.509688
v 4.994374 0.595706 -3.194172
v 4.938538 0.595706 -2.865549
v 4.797113 0.595706 -2.556142
v 4.578074 0.595706 -2.298274
v 4.424832 0.595706 -2.220759
v 4.240579 0.595706 -2.208792
v 4.039697 0.595706 -2.247341
v 3.836568 0.595706 -2.321376
v 3.645576 0.595706 -2.415865
v 3.481102 0.595706 -2.515777
v 3.812321 -0.880862 -3.061025
v 3.149882 2.072274 -1.970529
v 3.951604 -0.880348 -2.972528
v 3.339547 2.071760 -1.859202
v 4.082982 -0.878564 -2.897022
v 3.590154 2.069977 -1.745730
v 4.202413 -0.875375 -2.836305
v 3.876981 2.066788 -1.658377
v 4.277462 -0.870962 -2.799392
v 4.203696 2.062375 -1.618191
v 4.274495 -0.865701 -2.771281
v 4.575170 2.057114 -1.670237
v 4.238653 -0.859622 -2.728930
v 4.917494 2.051034 -1.867618
v 4.376967 -0.843978 -2.823339
v 5.217258 2.035390 -2.288945
v 4.517145 -0.822895 -2.995216
v 5.359931 2.014308 -2.735882
v 4.613051 -0.796709 -3.203574
v 5.375698 1.988121 -3.184771
v 4.647178 -0.766613 -3.414793
v 5.266120 1.958025 -3.604584
v 4.610421 -0.733361 -3.607432
v 5.024354 1.924774 -3.952113
v 4.502324 -0.692730 -3.754238
v 4.634910 1.884142 -4.189967
v 4.279997 -0.655556 -3.880255
v 4.104439 1.797303 -4.294166
v 3.925169 -0.643474 -3.977893
v 3.552556 1.654574 -4.288314
v 3.478099 -0.654621 -4.013510
v 3.023053 1.481610 -4.213384
v 3.010081 -0.677053 -3.972806
v 2.528692 1.293988 -4.091013
v 2.581826 -0.704436 -3.856308
v 2.092817 1.112893 -3.928008
v 2.226446 -0.734509 -3.665739
v 1.766367 0.963584 -3.729980
v 1.821346 -0.743342 -3.254665
v 1.433564 0.815259 -3.346802
v 1.444883 -0.710833 -2.675411
v 1.108797 0.701076 -2.782298
v 1.153100 -0.660574 -2.001087
v 0.851421 0.623707 -2.107248
v 0.878151 -0.581004 -1.297757
v 0.615299 0.550673 -1.399476
v 0.642409 -0.487198 -0.650032
v 0.413288 0.476129 -0.718259
v 0.534141 -0.405288 -0.112305
v 0.337973 0.405288 -0.153094
v -3.812321 -0.880862 -3.061025
v -3.149882 2.072274 -1.970529
v -3.951604 -0.880348 -2.972528
v -3.339547 2.071760 -1.859202
v -4.082982 -0.878564 -2.897022
v -3.590154 2.069977 -1.745730
v -4.202413 -0.875375 -2.836305
v -3.876981 2.066788 -1.658377
v -4.277462 -0.870962 -2.799392
v -4.203696 2.062375 -1.618191
v -4.274495 -0.865701 -2.771281
v -4.575170 2.057114 -1.670237
v -4.238653 -0.859622 -2.728930
v -4.917494 2.051034 -1.867618
v -4.376967 -0.843978 -2.823339
v -5.217258 2.035390 -2.288945
v -4.517145 -0.822895 -2.995216
v -5.359931 2.014308 -2.735882
v -4.613051 -0.796709 -3.203574
v -5.375698 1.988121 -3.184771
v -4.647178 -0.766613 -3.414793
v -5.266120 1.958025 -3.604584
v -4.610421 -0.733361 -3.607432
v -5.024354 1.924774 -3.952113
v -4.502324 -0.692730 -3.754238
v -4.634910 1.884142 -4.189967
v -4.279997 -0.655556 -3.880255
v -4.104439 1.797303 -4.294166
v -3.925169 -0.643474 -3.977893
v -3.552556 1.654574 -4.288314
v -3.478099 -0.654621 -4.013510
v -3.023053 1.481610 -4.213384
v -3.010081 -0.677053 -3.972806
v -2.528692 1.293988 -4.091013
v -2.581826 -0.704436 -3.856308
v -2.092817 1.112893 -3.928008
v -2.226446 -0.734509 -3.665739
v -1.766367 0.963584 -3.729980
v -1.821346 -0.743342 -3.254665
v -1.433564 0.815259 -3.346802
v -1.444883 -0.710833 -2.675411
v -1.108797 0.701076 -2.782298
v -1.153100 -0.660574 -2.001087
v -0.851421 0.623707 -2.107248
v -0.878151 -0.581004 -1.297757
v -0.615299 0.550673 -1.399476
v -0.642409 -0.487198 -0.650032
v -0.413288 0.476129 -0.718259
v -0.534141 -0.405288 -0.112305
v -0.337973 0.405288 -0.153094
v 3.646711 -0.142578 -2.788401
v 3.481102 0.595706 -2.515777
v 3.315492 1.333990 -2.243153
v 3.798590 -0.142321 -2.694197
v 3.645576 0.595706 -2.415865
v 3.492561 1.333733 -2.137533
v 3.959775 -0.141429 -2.609199
v 3.836568 0.595706 -2.321376
v 3.713361 1.332842 -2.033553
v 4.121055 -0.139834 -2.541823
v 4.039697 0.595706 -2.247341
v 3.958339 1.331247 -1.952859
v 4.259021 -0.137628 -2.504092
v 4.240579 0.595706 -2.208792
v 4.222137 1.329041 -1.913491
v 4.349664 -0.134997 -2.496020
v 4.424832 0.595706 -2.220759
v 4.500001 1.326410 -1.945498
v 4.408363 -0.131958 -2.513602
v 4.578074 0.595706 -2.298274
v 4.747784 1.323370 -2.082946
v 4.587040 -0.124136 -2.689740
v 4.797113 0.595706 -2.556142
v 5.007186 1.315548 -2.422543
v 4.727841 -0.113595 -2.930382
v 4.938538 0.595706 -2.865549
v 5.149234 1.305007 -2.800716
v 4.803713 -0.100501 -3.198873
v 4.994374 0.595706 -3.194172
v 5.185036 1.291914 -3.189472
v 4.801913 -0.085453 -3.462240
v 4.956649 0.595706 -3.509688
v 5.111384 1.276866 -3.557136
v 4.713904 -0.068828 -3.693603
v 4.817388 0.595706 -3.779773
v 4.920871 1.260240 -3.865943
v 4.535470 -0.048512 -3.863170
v 4.568617 0.595706 -3.972102
v 4.601764 1.239924 -4.081035
v 4.236108 -0.042341 -3.983733
v 4.192218 0.570874 -4.087211
v 4.148329 1.184089 -4.190688
v 3.832016 -0.068962 -4.055498
v 3.738862 0.505550 -4.133103
v 3.645709 1.080062 -4.210709
v 3.364337 -0.120563 -4.063478
v 3.250576 0.413494 -4.113447
v 3.136815 0.947552 -4.163416
v 2.889734 -0.184293 -4.002358
v 2.769387 0.308467 -4.031910
v 2.649040 0.801228 -4.061461
v 2.459574 -0.250104 -3.874233
v 2.337321 0.204228 -3.892158
v 2.215069 0.658561 -3.910083
v 2.111426 -0.309986 -3.681799
v 1.996406 0.114538 -3.697859
v 1.881387 0.539061 -3.713919
v 1.724400 -0.353691 -3.277699
v 1.627455 0.035959 -3.300734
v 1.530510 0.425609 -3.323768
v 1.360862 -0.357856 -2.702133
v 1.276840 -0.004878 -2.728855
v 1.192819 0.348099 -2.755577
v 1.077680 -0.339504 -2.027627
v 1.002260 -0.018433 -2.054168
v 0.926840 0.302637 -2.080708
v 0.812438 -0.298085 -1.323187
v 0.746725 -0.015166 -1.348616
v 0.681012 0.267753 -1.374046
v 0.585128 -0.246366 -0.667089
v 0.527848 -0.005535 -0.684146
v 0.470568 0.235297 -0.701202
v 0.485099 -0.202644 -0.122502
v 0.436057 0.000000 -0.132699
v 0.387015 0.202644 -0.142897
v -3.646711 -0.142578 -2.788401
v -3.481102 0.595706 -2.515777
v -3.315492 1.333990 -2.243153
v -3.798590 -0.142321 -2.694197
v -3.645576 0.595706 -2.415865
v -3.492561 1.333733 -2.137533
v -3.959775 -0.141429 -2.609199
v -3.836568 0.595706 -2.321376
v -3.713361 1.332842 -2.033553
v -4.121055 -0.139834 -2.541823
v -4.039697 0.595706 -2.247341
v -3.958339 1.331247 -1.952859
v -4.259021 -0.137628 -2.504092
v -4.240579 0.595706 -2.208792
v -4.222137 1.329041 -1.913491
v -4.349664 -0.134997 -2.496020
v -4.424832 0.595706 -2.220759
v -4.500001 1.326410 -1.945498
v -4.408363 -0.131958 -2.513602
v -4.578074 0.595706 -2.298274
v -4.747784 1.323370 -2.082946
v -4.587040 -0.124136 -2.689740
v -4.797113 0.595706 -2.556142
v -5.007186 1.315548 -2.422543
v -4.727841 -0.113595 -2.930382
v -4.938538 0.595706 -2.865549
v -5.149234 1.305007 -2.800716
v -4.803713 -0.100501 -3.198873
v -4.994374 0.595706 -3.194172
v -5.185036 1.291914 -3.189472
v -4.801913 -0.085453 -3.462240
v -4.956649 0.595706 -3.509688
v -5.111384 1.276866 -3.557136
v -4.713904 -0.068828 -3.693603
v -4.817388 0.595706 -3.779773
v -4.920871 1.260240 -3.865943
v -4.535470 -0.048512 -3.863170
v -4.568617 0.595706 -3.972102
v -4.601764 1.239924 -4.081035
v -4.236108 -0.042341 -3.983733
v -4.192218 0.570874 -4.087211
v -4.148329 1.184089 -4.190688
v -3.832016 -0.068962 -4.055498
v -3.738862 0.505550 -4.133103
v -3.645709 1.080062 -4.210709
v -3.364337 -0.120563 -4.063478
v -3.250576 0.413494 -4.113447
v -3.136815 0.947552 -4.163416
v -2.889734 -0.184293 -4.002358
v -2.769387 0.308467 -4.031910
v -2.649040 0.801228 -4.061461
v -2.459574 -0.250104 -3.874233
v -2.337321 0.204228 -3.892158
v -2.215069 0.658561 -3.910083
v -2.111426 -0.309986 -3.681799
v -1.996406 0.114538 -3.697859
v -1.881387 0.539061 -3.713919
v -1.724400 -0.353691 -3.277699
v -1.627455 0.035959 -3.300734
v -1.530510 0.425609 -3.323768
v -1.360862 -0.357856 -2.702133
v -1.276840 -0.004878 -2.728855
v -1.192819 0.348099 -2.755577
v -1.077680 -0.339504 -2.027627
v -1.002260 -0.018433 -2.054168
v -0.926840 0.302637 -2.080708
v -0.812438 -0.298085 -1.323187
v -0.746725 -0.015166 -1.348616
v -0.681012 0.267753 -1.374046
v -0.585128 -0.246366 -0.667089
v -0.527848 -0.005535 -0.684146
v -0.470568 0.235297 -0.701202
v -0.485099 -0.202644 -0.122502
v -0.436057 0.000000 -0.132699
v -0.387015 0.202644 -0.142897
vn -0.0242 -0.9997 0.0066
vn -0.0241 -0.9997 0.0055
vn -0.0256 -0.9996 0.0071
vn -0.0251 -0.9997 0.0050
vn -0.0269 -0.9996 0.0015
vn -0.0258 -0.9997 -0.0015
vn -0.0240 -0.9996 -0.0158
vn -0.0226 -0.9996 -0.0193
vn -0.0098 -0.9987 -0.0504
vn -0.0080 -0.9985 -0.0535
vn 0.0327 -0.9929 -0.1143
vn 0.0320 -0.9931 -0.1132
vn 0.1138 -0.9757 -0.1875
vn 0.0969 -0.9795 -0.1766
vn 0.1587 -0.9635 -0.2157
vn 0.1471 -0.9667 -0.2092
vn 0.1691 -0.9615 -0.2164
vn 0.1672 -0.9620 -0.2158
vn 0.1735 -0.9607 -0.2169
vn 0.1722 -0.9609 -0.2167
vn 0.1679 -0.9618 -0.2164
vn 0.1657 -0.9621 -0.2165
vn 0.1365 -0.9650 -0.2239
vn 0.1487 -0.9643 -0.2193
vn -0.5824 -0.5477 -0.6007
vn 0.1558 -0.9642 -0.2145
vn -0.3265 0.9415 0.0831
vn 0.2086 -0.9637 -0.1666
vn 0.3751 -0.8453 0.3804
vn 0.2560 -0.9634 -0.0797
vn 0.2683 -0.9628 0.0325
vn 0.2681 -0.9634 0.0062
vn 0.2502 -0.9630 0.1000
vn 0.2561 -0.9634 0.0796
vn 0.2502 -0.9603 0.1234
vn 0.2249 -0.9633 0.1465
vn 0.6407 0.3159 -0.6998
vn 0.1640 -0.9635 0.2117
vn -0.0836 0.9629 -0.2564
vn 0.0735 -0.9635 0.2575
vn -0.9961 -0.0464 -0.0746
vn -0.0121 -0.9633 0.2680
vn -0.1020 -0.9621 0.2528
vn -0.0692 -0.9634 0.2591
vn -0.1071 -0.9633 0.2460
vn -0.1046 -0.9634 0.2469
vn -0.1291 -0.9634 0.2350
vn -0.1288 -0.9634 0.2352
vn -0.1394 -0.9633 0.2293
vn -0.1393 -0.9633 0.2293
vn 0.0242 -0.9997 0.0066
vn 0.0241 -0.9997 0.0055
vn 0.0256 -0.9996 0.0071
vn 0.0251 -0.9997 0.0050
vn 0.0269 -0.9996 0.0015
vn 0.0258 -0.9997 -0.0015
vn 0.0240 -0.9996 -0.0158
vn 0.0226 -0.9996 -0.0193
vn 0.0098 -0.9987 -0.0504
vn 0.0080 -0.9985 -0.0535
vn -0.0327 -0.9929 -0.1143
vn -0.0320 -0.9931 -0.1132
vn -0.1138 -0.9757 -0.1875
vn -0.0969 -0.9795 -0.1766
vn -0.1587 -0.9635 -0.2157
vn -0.1471 -0.9667 -0.2092
vn -0.1691 -0.9615 -0.2164
vn -0.1672 -0.9620 -0.2158
vn -0.1735 -0.9607 -0.2169
vn -0.1722 -0.9609 -0.2167
vn -0.1679 -0.9618 -0.2164
vn -0.1657 -0.9621 -0.2165
vn -0.1365 -0.9650 -0.2239
vn -0.1487 -0.9643 -0.2193
vn 0.5823 -0.5477 -0.6007
vn -0.1558 -0.9642 -0.2145
vn 0.3265 0.9415 0.0831
vn -0.2086 -0.9637 -0.1666
vn -0.3751 -0.8453 0.3804
vn -0.2560 -0.9634 -0.0797
vn -0.2683 -0.9628 0.0325
vn -0.2681 -0.9634 0.0062
vn -0.2502 -0.9630 0.1000
vn -0.2561 -0.9634 0.0796
vn -0.2502 -0.9603 0.1234
vn -0.2249 -0.9633 0.1465
vn -0.6407 0.3159 -0.6998
vn -0.1640 -0.9635 0.2117
vn 0.0836 0.9629 -0.2564
vn -0.0735 -0.9635 0.2575
vn 0.9961 -0.0464 -0.0746
vn 0.0121 -0.9633 0.2680
vn 0.1020 -0.9621 0.2528
vn 0.0692 -0.9634 0.2591
vn 0.1071 -0.9633 0.2460
vn 0.1046 -0.9634 0.2469
vn 0.1291 -0.9634 0.2350
vn 0.1288 -0.9634 0.2352
vn 0.1394 -0.9633 0.2293
vn 0.1393 -0.9633 0.2293
vn -0.0242 -0.9997 0.0063
vn -0.0241 -0.9997 0.0057
vn -0.0252 -0.9997 0.0066
vn -0.0250 -0.9997 0.0053
vn -0.0266 -0.9996 0.0017
vn -0.0260 -0.9997 -0.0006
vn -0.0239 -0.9996 -0.0154
vn -0.0230 -0.9996 -0.0178
vn -0.0105 -0.9988 -0.0487
vn -0.0095 -0.9987 -0.0505
vn 0.0273 -0.9939 -0.1069
vn 0.0283 -0.9937 -0.1082
vn 0.1000 -0.9790 -0.1778
vn 0.0946 -0.9801 -0.1747
vn 0.1546 -0.9646 -0.2135
vn 0.1478 -0.9665 -0.2097
vn 0.1685 -0.9617 -0.2162
vn 0.1674 -0.9620 -0.2159
vn 0.1731 -0.9607 -0.2168
vn 0.1724 -0.9609 -0.2167
vn 0.1674 -0.9619 -0.2164
vn 0.1660 -0.9621 -0.2165
vn 0.1410 -0.9647 -0.2222
vn 0.1480 -0.9643 -0.2195
vn 0.0117 -0.9497 -0.3128
vn 0.1538 -0.9643 -0.2157
vn -0.1615 -0.9041 -0.3955
vn 0.2069 -0.9638 -0.1681
vn 0.2844 -0.9587 0.0042
vn 0.2558 -0.9634 -0.0805
vn 0.2689 -0.9631 0.0146
vn 0.2682 -0.9634 0.0055
vn 0.2564 -0.9633 0.0795
vn 0.2564 -0.9634 0.0788
vn 0.2372 -0.9624 0.1320
vn 0.2257 -0.9633 0.1455
vn 0.2801 -0.9542 0.1051
vn 0.1644 -0.9635 0.2113
vn -0.0004 -0.9638 0.2668
vn 0.0728 -0.9635 0.2576
vn -0.0912 -0.9609 0.2615
vn -0.0132 -0.9633 0.2680
vn -0.0865 -0.9629 0.2557
vn -0.0700 -0.9634 0.2589
vn -0.1069 -0.9634 0.2460
vn -0.1050 -0.9634 0.2467
vn -0.1295 -0.9634 0.2348
vn -0.1290 -0.9634 0.2350
vn 0.0242 -0.9997 0.0063
vn 0.0241 -0.9997 0.0057
vn 0.0252 -0.9997 0.0066
vn 0.0250 -0.9997 0.0053
vn 0.0266 -0.9996 0.0017
vn 0.0260 -0.9997 -0.0006
vn 0.0239 -0.9996 -0.0154
vn 0.0230 -0.9996 -0.0178
vn 0.0105 -0.9988 -0.0487
vn 0.0095 -0.9987 -0.0505
vn -0.0273 -0.9939 -0.1069
vn -0.0283 -0.9937 -0.1082
vn -0.1000 -0.9790 -0.1778
vn -0.0946 -0.9801 -0.1747
vn -0.1546 -0.9646 -0.2135
vn -0.1478 -0.9665 -0.2097
vn -0.1685 -0.9617 -0.2162
vn -0.1674 -0.9620 -0.2159
vn -0.1731 -0.9607 -0.2168
vn -0.1724 -0.9609 -0.2167
vn -0.1674 -0.9619 -0.2164
vn -0.1660 -0.9621 -0.2165
vn -0.1410 -0.9647 -0.2222
vn -0.1480 -0.9643 -0.2195
vn -0.0117 -0.9497 -0.3128
vn -0.1538 -0.9643 -0.2157
vn 0.1615 -0.9041 -0.3955
vn -0.2069 -0.9638 -0.1681
vn -0.2844 -0.9587 0.0042
vn -0.2558 -0.9634 -0.0805
vn -0.2689 -0.9631 0.0146
vn -0.2682 -0.9634 0.0055
vn -0.2564 -0.9633 0.0795
vn -0.2564 -0.9634 0.0788
vn -0.2372 -0.9624 0.1320
vn -0.2257 -0.9633 0.1455
vn -0.2801 -0.9542 0.1051
vn -0.1644 -0.9635 0.2113
vn 0.0004 -0.9638 0.2668
vn -0.0728 -0.9635 0.2576
vn 0.0912 -0.9609 0.2615
vn 0.0132 -0.9633 0.2680
vn 0.0865 -0.9629 0.2557
vn 0.0700 -0.9634 0.2589
vn 0.1069 -0.9634 0.2460
vn 0.1050 -0.9634 0.2467
vn 0.1295 -0.9634 0.2348
vn 0.1290 -0.9634 0.2350
vn 0.0242 -0.9997 0.0060
vn 0.0251 -0.9997 0.0059
vn 0.0262 -0.9997 0.0005
vn 0.0235 -0.9996 -0.0167
vn 0.0100 -0.9987 -0.0497
vn -0.0279 -0.9938 -0.1077
vn -0.0963 -0.9797 -0.1757
vn -0.1500 -0.9659 -0.2109
vn -0.1679 -0.9619 -0.2160
vn -0.1727 -0.9608 -0.2168
vn -0.1666 -0.9620 -0.2165
vn -0.1463 -0.9644 -0.2202
vn -0.1484 -0.9643 -0.2192
vn -0.2041 -0.9641 -0.1699
vn -0.2565 -0.9634 -0.0786
vn -0.2682 -0.9633 0.0066
vn -0.2564 -0.9633 0.0789
vn -0.2268 -0.9632 0.1442
vn -0.1656 -0.9636 0.2101
vn -0.0700 -0.9636 0.2579
vn 0.0175 -0.9632 0.2681
vn 0.0716 -0.9633 0.2586
vn 0.1055 -0.9634 0.2465
vn 0.1292 -0.9634 0.2350
vn -0.0242 -0.9997 0.0060
vn -0.0251 -0.9997 0.0059
vn -0.0262 -0.9997 0.0005
vn -0.0235 -0.9996 -0.0167
vn -0.0100 -0.9987 -0.0497
vn 0.0279 -0.9938 -0.1077
vn 0.0963 -0.9797 -0.1757
vn 0.1500 -0.9659 -0.2109
vn 0.1679 -0.9619 -0.2160
vn 0.1727 -0.9608 -0.2168
vn 0.1666 -0.9620 -0.2165
vn 0.1463 -0.9644 -0.2202
vn 0.1484 -0.9643 -0.2192
vn 0.2041 -0.9641 -0.1699
vn 0.2565 -0.9634 -0.0786
vn 0.2682 -0.9633 0.0066
vn 0.2564 -0.9633 0.0789
vn 0.2268 -0.9632 0.1442
vn 0.1656 -0.9636 0.2101
vn 0.0700 -0.9636 0.2579
vn -0.0175 -0.9632 0.2681
vn -0.0716 -0.9633 0.2586
vn -0.1055 -0.9634 0.2465
vn -0.1292 -0.9634 0.2350
vn 0.4874 0.3957 -0.7784
vn 0.4682 0.3959 -0.7900
vn 0.4640 0.3942 -0.7933
vn 0.4284 0.3947 -0.8128
vn 0.4099 0.3892 -0.8249
vn 0.3355 0.3902 -0.8574
vn 0.3402 0.3801 -0.8601
vn 0.2068 0.3830 -0.9003
vn 0.3103 0.3580 -0.8807
vn 0.0095 0.3737 -0.9275
vn 0.4875 0.2568 -0.8345
vn -0.2870 0.3642 -0.8860
vn 0.1358 0.2908 -0.9471
vn -0.6134 0.3498 -0.7081
vn -0.7082 0.3246 -0.6270
vn -0.8302 0.3250 -0.4529
vn -0.8545 0.2951 -0.4275
vn -0.9329 0.2960 -0.2052
vn -0.9455 0.2630 -0.1920
vn -0.9626 0.2642 0.0590
vn -0.9672 0.2307 0.1065
vn -0.9032 0.2318 0.3612
vn -0.8594 0.1993 0.4709
vn -0.7070 0.2000 0.6784
vn -0.5957 0.1669 0.7857
vn -0.4033 0.1727 0.8986
vn -0.3300 0.1378 0.9339
vn -0.1474 0.1539 0.9770
vn -0.1463 0.1147 0.9826
vn 0.0103 0.1378 0.9904
vn 0.0135 0.1021 0.9947
vn 0.1262 0.1236 0.9843
vn 0.1712 0.1064 0.9795
vn 0.2347 0.1203 0.9646
vn 0.3508 0.1346 0.9267
vn 0.3710 0.1394 0.9181
vn 0.5712 0.1850 0.7997
vn 0.5723 0.1853 0.7989
vn 0.7566 0.2247 0.6140
vn 0.7570 0.2248 0.6135
vn 0.8597 0.2388 0.4516
vn 0.8598 0.2388 0.4514
vn 0.9046 0.2416 0.3511
vn 0.9047 0.2416 0.3510
vn 0.9175 0.2414 0.3162
vn 0.9176 0.2414 0.3159
vn 0.9415 0.2410 0.2355
vn 0.9415 0.2409 0.2355
vn 0.9582 0.2394 0.1566
vn 0.9581 0.2394 0.1575
vn -0.4874 0.3957 -0.7784
vn -0.4682 0.3959 -0.7900
vn -0.4640 0.3942 -0.7933
vn -0.4284 0.3947 -0.8128
vn -0.4099 0.3892 -0.8249
vn -0.3355 0.3902 -0.8574
vn -0.3402 0.3801 -0.8601
vn -0.2068 0.3830 -0.9003
vn -0.3103 0.3580 -0.8807
vn -0.0095 0.3737 -0.9275
vn -0.4875 0.2568 -0.8345
vn 0.2870 0.3642 -0.8860
vn -0.1358 0.2908 -0.9471
vn 0.6134 0.3498 -0.7081
vn 0.7082 0.3246 -0.6270
vn 0.8302 0.3250 -0.4529
vn 0.8545 0.2951 -0.4275
vn 0.9329 0.2960 -0.2052
vn 0.9455 0.2630 -0.1920
vn 0.9626 0.2642 0.0590
vn 0.9672 0.2307 0.1065
vn 0.9032 0.2318 0.3612
vn 0.8594 0.1993 0.4709
vn 0.7070 0.2000 0.6784
vn 0.5957 0.1669 0.7857
vn 0.4033 0.1727 0.8986
vn 0.3300 0.1378 0.9339
vn 0.1474 0.1539 0.9770
vn 0.1463 0.1147 0.9826
vn -0.0103 0.1378 0.9904
vn -0.0135 0.1021 0.9947
vn -0.1262 0.1236 0.9843
vn -0.1712 0.1064 0.9795
vn -0.2347 0.1203 0.9646
vn -0.3508 0.1346 0.9267
vn -0.3710 0.1394 0.9181
vn -0.5712 0.1850 0.7997
vn -0.5723 0.1853 0.7989
vn -0.7566 0.2247 0.6140
vn -0.7570 0.2248 0.6135
vn -0.8597 0.2388 0.4516
vn -0.8598 0.2388 0.4514
vn -0.9046 0.2416 0.3511
vn -0.9047 0.2416 0.3510
vn -0.9175 0.2414 0.3162
vn -0.9176 0.2414 0.3159
vn -0.9415 0.2410 0.2355
vn -0.9415 0.2409 0.2355
vn -0.9582 0.2394 0.1566
vn -0.9581 0.2394 0.1575
vn 0.4837 0.3957 -0.7806
vn 0.4769 0.3958 -0.7848
vn 0.4709 0.3959 -0.7884
vn 0.4562 0.3944 -0.7977
vn 0.4429 0.3946 -0.8051
vn 0.4326 0.3947 -0.8106
vn 0.3919 0.3896 -0.8334
vn 0.3631 0.3901 -0.8461
vn 0.3430 0.3902 -0.8545
vn 0.3024 0.3813 -0.8736
vn 0.2480 0.3828 -0.8899
vn 0.2169 0.3830 -0.8979
vn 0.2065 0.3644 -0.9080
vn 0.0629 0.3732 -0.9256
vn 0.0200 0.3737 -0.9274
vn 0.1745 0.3208 -0.9309
vn -0.2383 0.3646 -0.9002
vn -0.2800 0.3643 -0.8882
vn -0.3388 0.3500 -0.8734
vn -0.5762 0.3500 -0.7386
vn -0.6083 0.3496 -0.7125
vn -0.7502 0.3245 -0.5761
vn -0.7969 0.3253 -0.5091
vn -0.8237 0.3248 -0.4648
vn -0.8825 0.2951 -0.3663
vn -0.9124 0.2963 -0.2825
vn -0.9289 0.2957 -0.2227
vn -0.9574 0.2628 -0.1196
vn -0.9641 0.2642 -0.0255
vn -0.9637 0.2638 0.0408
vn -0.9547 0.2302 0.1887
vn -0.9306 0.2316 0.2834
vn -0.9090 0.2312 0.3468
vn -0.8107 0.1983 0.5508
vn -0.7543 0.1996 0.6255
vn -0.7139 0.1993 0.6713
vn -0.5288 0.1671 0.8321
vn -0.4587 0.1702 0.8722
vn -0.4110 0.1716 0.8953
vn -0.2771 0.1402 0.9505
vn -0.2108 0.1469 0.9664
vn -0.1610 0.1515 0.9753
vn -0.1061 0.1186 0.9873
vn -0.0514 0.1271 0.9906
vn -0.0052 0.1341 0.9910
vn 0.0424 0.1059 0.9935
vn 0.0803 0.1134 0.9903
vn 0.1147 0.1200 0.9861
vn 0.1911 0.1098 0.9754
vn 0.2116 0.1143 0.9706
vn 0.2307 0.1185 0.9658
vn 0.3642 0.1376 0.9211
vn 0.3702 0.1390 0.9185
vn 0.3759 0.1404 0.9160
vn 0.5823 0.1877 0.7910
vn 0.5828 0.1878 0.7907
vn 0.5832 0.1879 0.7903
vn 0.7617 0.2256 0.6074
vn 0.7619 0.2256 0.6071
vn 0.7621 0.2256 0.6069
vn 0.8621 0.2390 0.4468
vn 0.8622 0.2390 0.4467
vn 0.8622 0.2390 0.4466
vn 0.9051 0.2416 0.3498
vn 0.9052 0.2416 0.3497
vn 0.9178 0.2414 0.3151
vn 0.9179 0.2414 0.3150
vn 0.9179 0.2414 0.3149
vn 0.9431 0.2409 0.2294
vn 0.9430 0.2409 0.2295
vn 0.9582 0.2394 0.1568
vn 0.9581 0.2394 0.1571
vn 0.9581 0.2394 0.1574
vn -0.4837 0.3957 -0.7806
vn -0.4769 0.3958 -0.7848
vn -0.4709 0.3959 -0.7884
vn -0.4562 0.3944 -0.7977
vn -0.4429 0.3946 -0.8051
vn -0.4326 0.3947 -0.8106
vn -0.3919 0.3896 -0.8334
vn -0.3631 0.3901 -0.8461
vn -0.3430 0.3902 -0.8545
vn -0.3024 0.3813 -0.8736
vn -0.2480 0.3828 -0.8899
vn -0.2169 0.3830 -0.8979
vn -0.2065 0.3644 -0.9080
vn -0.0629 0.3732 -0.9256
vn -0.0200 0.3737 -0.9274
vn -0.1745 0.3208 -0.9309
vn 0.2383 0.3646 -0.9002
vn 0.2800 0.3643 -0.8882
vn 0.3388 0.3500 -0.8734
vn 0.5762 0.3500 -0.7386
vn 0.6083 0.3496 -0.7125
vn 0.7502 0.3245 -0.5761
vn 0.7969 0.3253 -0.5091
vn 0.8237 0.3248 -0.4648
vn 0.8825 0.2951 -0.3663
vn 0.9124 0.2963 -0.2825
vn 0.9289 0.2957 -0.2227
vn 0.9574 0.2628 -0.1196
vn 0.9641 0.2642 -0.0255
vn 0.9637 0.2638 0.0408
vn 0.9547 0.2302 0.1887
vn 0.9306 0.2316 0.2834
vn 0.9090 0.2312 0.3468
vn 0.8107 0.1983 0.5508
vn 0.7543 0.1996 0.6255
vn 0.7139 0.1993 0.6713
vn 0.5288 0.1671 0.8321
vn 0.4587 0.1702 0.8722
vn 0.4110 0.1716 0.8953
vn 0.2771 0.1402 0.9505
vn 0.2108 0.1469 0.9664
vn 0.1610 0.1515 0.9753
vn 0.1061 0.1186 0.9873
vn 0.0514 0.1271 0.9906
vn 0.0052 0.1341 0.9910
vn -0.0424 0.1059 0.9935
vn -0.0803 0.1134 0.9903
vn -0.1147 0.1200 0.9861
vn -0.1911 0.1098 0.9754
vn -0.2116 0.1143 0.9706
vn -0.2307 0.1185 0.9658
vn -0.3642 0.1376 0.9211
vn -0.3702 0.1390 0.9185
vn -0.3759 0.1404 0.9160
vn -0.5823 0.1877 0.7910
vn -0.5828 0.1878 0.7907
vn -0.5832 0.1879 0.7903
vn -0.7617 0.2256 0.6074
vn -0.7619 0.2256 0.6071
vn -0.7621 0.2256 0.6069
vn -0.8621 0.2390 0.4468
vn -0.8622 0.2390 0.4467
vn -0.8622 0.2390 0.4466
vn -0.9051 0.2416 0.3498
vn -0.9052 0.2416 0.3497
vn -0.9178 0.2414 0.3151
vn -0.9179 0.2414 0.3150
vn -0.9179 0.2414 0.3149
vn -0.9431 0.2409 0.2294
vn -0.9430 0.2409 0.2295
vn -0.9582 0.2394 0.1568
vn -0.9581 0.2394 0.1571
vn -0.9581 0.2394 0.1574
vt 0.666667 0.005536
vt 0.666667 0.019673
vt 1.000000 0.019673
vt 1.000000 0.005536
vt 0.666667 0.033809
vt 1.000000 0.033809
vt 0.666667 0.047945
vt 1.000000 0.047945
vt 0.666667 0.062081
vt 1.000000 0.062081
vt 0.666667 0.077090
vt 1.000000 0.077090
vt 0.666667 0.094568
vt 1.000000 0.094568
vt 0.666667 0.114551
vt 1.000000 0.114551
vt 0.666667 0.137037
vt 1.000000 0.137037
vt 0.666667 0.162028
vt 1.000000 0.162028
vt 0.666667 0.189590
vt 1.000000 0.189590
vt 0.666667 0.220237
vt 1.000000 0.220237
vt 0.666667 0.254218
vt 1.000000 0.254218
vt 0.666667 0.291720
vt 1.000000 0.291720
vt 0.666667 0.332944
vt 1.000000 0.332944
vt 0.666667 0.378105
vt 1.000000 0.378105
vt 0.666667 0.427433
vt 1.000000 0.427433
vt 0.666667 0.481171
vt 1.000000 0.481171
vt 0.666667 0.539579
vt 1.000000 0.539579
vt 0.666667 0.602928
vt 1.000000 0.602928
vt 0.666667 0.671507
vt 1.000000 0.671507
vt 0.666667 0.745616
vt 1.000000 0.745616
vt 0.666667 0.825572
vt 1.000000 0.825572
vt 0.666667 0.911705
vt 1.000000 0.911705
vt 0.666667 0.998500
vt 1.000000 0.998500
vt 0.000000 0.911705
vt 0.000000 0.998500
vt 0.333333 0.998500
vt 0.333333 0.911705
vt 0.500000 0.911705
vt 0.500000 0.998500
vt 0.000000 0.825572
vt 0.333333 0.825572
vt 0.500000 0.825572
vt 0.000000 0.745617
vt 0.333333 0.745616
vt 0.500000 0.745616
vt 0.000000 0.671507
vt 0.333333 0.671507
vt 0.500000 0.671507
vt 0.000000 0.602928
vt 0.333333 0.602928
vt 0.500000 0.602928
vt 0.000000 0.539579
vt 0.333333 0.539579
vt 0.500000 0.539579
vt 0.000000 0.481171
vt 0.333333 0.481171
vt 0.500000 0.481171
vt 0.000000 0.427433
vt 0.333333 0.427433
vt 0.500000 0.427433
vt 0.000000 0.378105
vt 0.333333 0.378105
vt 0.500000 0.378105
vt 0.000000 0.332944
vt 0.333333 0.332944
vt 0.500000 0.332944
vt 0.000000 0.291720
vt 0.333333 0.291720
vt 0.500000 0.291720
vt 0.000000 0.254218
vt 0.333333 0.254218
vt 0.500000 0.254218
vt 0.000000 0.220237
vt 0.333333 0.220237
vt 0.500000 0.220237
vt 0.000000 0.189590
vt 0.333333 0.189590
vt 0.500000 0.189590
vt 0.000000 0.162028
vt 0.333333 0.162028
vt 0.500000 0.162028
vt 0.000000 0.137037
vt 0.333333 0.137037
vt 0.500000 0.137037
vt 0.000000 0.114551
vt 0.333333 0.114551
vt 0.500000 0.114551
vt 0.000000 0.094568
vt 0.333333 0.094568
vt 0.500000 0.094568
vt 0.000000 0.077090
vt 0.333333 0.077090
vt 0.500000 0.077090
vt 0.000000 0.062081
vt 0.333333 0.062081
vt 0.500000 0.062081
vt 0.000000 0.047945
vt 0.333333 0.047945
vt 0.500000 0.047945
vt 0.000000 0.033809
vt 0.333333 0.033809
vt 0.500000 0.033809
vt 0.000000 0.019673
vt 0.333333 0.019673
vt 0.500000 0.019673
vt 0.000000 0.005536
vt 0.333333 0.005536
vt 0.500000 0.005536
vt 0.250000 0.996735
vt 0.250000 0.931977
vt 0.000000 0.931977
vt 0.000000 0.996735
vt 0.250000 0.869303
vt 0.000000 0.869303
vt 0.250000 0.808713
vt 0.000000 0.808713
vt 0.250000 0.750206
vt 0.000000 0.750206
vt 0.250000 0.693784
vt 0.000000 0.693784
vt 0.250000 0.639445
vt 0.000000 0.639445
vt 0.250000 0.587190
vt 0.000000 0.587190
vt 0.250000 0.537019
vt 0.000000 0.537019
vt 0.250000 0.488932
vt 0.000000 0.488932
vt 0.250000 0.442929
vt 0.000000 0.442929
vt 0.250000 0.399010
vt 0.000000 0.399010
vt 0.250000 0.357174
vt 0.000000 0.357174
vt 0.250000 0.317423
vt 0.000000 0.317423
vt 0.250000 0.279755
vt 0.000000 0.279755
vt 0.250000 0.244171
vt 0.000000 0.244171
vt 0.250000 0.210671
vt 0.000000 0.210671
vt 0.250000 0.179255
vt 0.000000 0.179255
vt 0.250000 0.149922
vt 0.000000 0.149922
vt 0.250000 0.122674
vt 0.000000 0.122674
vt 0.250000 0.097510
vt 0.000000 0.097510
vt 0.250000 0.074429
vt 0.000000 0.074429
vt 0.250000 0.053432
vt 0.000000 0.053432
vt 0.250000 0.034519
vt 0.000000 0.034519
vt 0.250000 0.017690
vt 0.000000 0.017690
vt 1.000000 0.034519
vt 1.000000 0.017690
vt 0.750000 0.017690
vt 0.750000 0.034519
vt 0.500000 0.017690
vt 0.500000 0.034519
vt 1.000000 0.053432
vt 0.750000 0.053432
vt 0.500000 0.053432
vt 1.000000 0.074429
vt 0.750000 0.074429
vt 0.500000 0.074429
vt 1.000000 0.097510
vt 0.750000 0.097510
vt 0.500000 0.097510
vt 1.000000 0.122674
vt 0.750000 0.122674
vt 0.500000 0.122674
vt 1.000000 0.149922
vt 0.750000 0.149922
vt 0.500000 0.149922
vt 1.000000 0.179255
vt 0.750000 0.179255
vt 0.500000 0.179255
vt 1.000000 0.210671
vt 0.750000 0.210671
vt 0.500000 0.210671
vt 1.000000 0.244171
vt 0.750000 0.244171
vt 0.500000 0.244171
vt 1.000000 0.279755
vt 0.750000 0.279755
vt 0.500000 0.279755
vt 1.000000 0.317423
vt 0.750000 0.317423
vt 0.500000 0.317423
vt 1.000000 0.357174
vt 0.750000 0.357174
vt 0.500000 0.357174
vt 1.000000 0.399010
vt 0.750000 0.399010
vt 0.500000 0.399010
vt 1.000000 0.442929
vt 0.750000 0.442929
vt 0.500000 0.442929
vt 1.000000 0.488932
vt 0.750000 0.488932
vt 0.500000 0.488932
vt 1.000000 0.537019
vt 0.750000 0.537019
vt 0.500000 0.537019
vt 1.000000 0.587190
vt 0.750000 0.587190
vt 0.500000 0.587190
vt 1.000000 0.639445
vt 0.750000 0.639445
vt 0.500000 0.639445
vt 1.000000 0.693784
vt 0.750000 0.693784
vt 0.500000 0.693784
vt 1.000000 0.750206
vt 0.750000 0.750206
vt 0.500000 0.750206
vt 1.000000 0.808713
vt 0.750000 0.808713
vt 0.500000 0.808713
vt 1.000000 0.869303
vt 0.750000 0.869303
vt 0.500000 0.869303
vt 1.000000 0.931977
vt 0.750000 0.931977
vt 0.500000 0.931977
vt 1.000000 0.996735
vt 0.750000 0.996735
vt 0.500000 0.996735
s 1
f 101/1/101 103/2/103 3/3/3 1/4/1
f 103/2/103 105/5/105 5/6/5 3/3/3
f 105/5/105 107/7/107 7/8/7 5/6/5
f 107/7/107 109/9/109 9/10/9 7/8/7
f 109/9/109 111/11/111 11/12/11 9/10/9
f 111/11/111 113/13/113 13/14/13 11/12/11
f 113/13/113 115/15/115 15/16/15 13/14/13
f 115/15/115 117/17/117 17/18/17 15/16/15
f 117/17/117 119/19/119 19/20/19 17/18/17
f 119/19/119 121/21/121 21/22/21 19/20/19
f 121/21/121 123/23/123 23/24/23 21/22/21
f 123/23/123 125/25/125 25/26/25 23/24/23
f 125/25/125 127/27/127 27/28/27 25/26/25
f 127/27/127 129/29/129 29/30/29 27/28/27
f 129/29/129 131/31/131 31/32/31 29/30/29
f 131/31/131 133/33/133 33/34/33 31/32/31
f 133/33/133 135/35/135 35/36/35 33/34/33
f 135/35/135 137/37/137 37/38/37 35/36/35
f 137/37/137 139/39/139 39/40/39 37/38/37
f 139/39/139 141/41/141 41/42/41 39/40/39
f 141/41/141 143/43/143 43/44/43 41/42/41
f 143/43/143 145/45/145 45/46/45 43/44/43
f 145/45/145 147/47/147 47/48/47 45/46/45
f 147/47/147 149/49/50 49/50/49 47/48/47
f 151/1/149 51/4/51 53/3/53 153/2/151
f 153/2/151 53/3/53 55/6/55 155/5/153
f 155/5/153 55/6/55 57/8/57 157/7/155
f 157/7/155 57/8/57 59/10/59 159/9/157
f 159/9/157 59/10/59 61/12/61 161/11/159
f 161/11/159 61/12/61 63/14/63 163/13/161
f 163/13/161 63/14/63 65/16/65 165/15/163
f 165/15/163 65/16/65 67/18/67 167/17/165
f 167/17/165 67/18/67 69/20/69 169/19/167
f 169/19/167 69/20/69 71/22/71 171/21/169
f 171/21/169 71/22/71 73/24/73 173/23/171
f 173/23/171 73/24/73 75/26/75 175/25/173
f 175/25/173 75/26/75 77/28/77 177/27/175
f 177/27/175 77/28/77 79/30/79 179/29/177
f 179/29/177 79/30/79 81/32/81 181/31/179
f 181/31/179 81/32/81 83/34/83 183/33/181
f 183/33/181 83/34/83 85/36/85 185/35/183
f 185/35/183 85/36/85 87/38/87 187/37/185
f 187/37/185 87/38/87 89/40/89 189/39/187
f 189/39/187 89/40/89 91/42/91 191/41/189
f 191/41/189 91/42/91 93/44/93 193/43/191
f 193/43/191 93/44/93 95/46/95 195/45/193
f 195/45/193 95/46/95 97/48/97 197/47/195
f 197/47/195 97/48/97 99/50/99 199/49/100
f 48/51/48 50/52/50 150/53/50 148/54/148
f 249/55/244 250/56/50 149/49/50 147/47/147
f 46/57/46 48/51/48 148/54/148 146/58/146
f 248/59/243 249/55/244 147/47/147 145/45/145
f 44/60/44 46/57/46 146/58/146 144/61/144
f 247/62/242 248/59/243 145/45/145 143/43/143
f 42/63/42 44/60/44 144/61/144 142/64/142
f 246/65/241 247/62/242 143/43/143 141/41/141
f 40/66/40 42/63/42 142/64/142 140/67/140
f 245/68/240 246/65/241 141/41/141 139/39/139
f 38/69/38 40/66/40 140/67/140 138/70/138
f 244/71/239 245/68/240 139/39/139 137/37/137
f 36/72/36 38/69/38 138/70/138 136/73/136
f 243/74/238 244/71/239 137/37/137 135/35/135
f 34/75/34 36/72/36 136/73/136 134/76/134
f 242/77/237 243/74/238 135/35/135 133/33/133
f 32/78/32 34/75/34 134/76/134 132/79/132
f 241/80/236 242/77/237 133/33/133 131/31/131
f 30/81/30 32/78/32 132/79/132 130/82/130
f 240/83/235 241/80/236 131/31/131 129/29/129
f 28/84/28 30/81/30 130/82/130 128/85/128
f 239/86/234 240/83/235 129/29/129 127/27/127
f 26/87/26 28/84/28 128/85/128 126/88/126
f 238/89/233 239/86/234 127/27/127 125/25/125
f 24/90/24 26/87/26 126/88/126 124/91/124
f 237/92/232 238/89/233 125/25/125 123/23/123
f 22/93/22 24/90/24 124/91/124 122/94/122
f 236/95/231 237/92/232 123/23/123 121/21/121
f 20/96/20 22/93/22 122/94/122 120/97/120
f 235/98/230 236/95/231 121/21/121 119/19/119
f 18/99/18 20/96/20 120/97/120 118/100/118
f 234/101/229 235/98/230 119/19/119 117/17/117
f 16/102/16 18/99/18 118/100/118 116/103/116
f 233/104/228 234/101/229 117/17/117 115/15/115
f 14/105/14 16/102/16 116/103/116 114/106/114
f 232/107/227 233/104/228 115/15/115 113/13/113
f 12/108/12 14/105/14 114/106/114 112/109/112
f 231/110/226 232/107/227 113/13/113 111/11/111
f 10/111/10 12/108/12 112/109/112 110/112/110
f 230/113/225 231/110/226 111/11/111 109/9/109
f 8/114/8 10/111/10 110/112/110 108/115/108
f 229/116/224 230/113/225 109/9/109 107/7/107
f 6/117/6 8/114/8 108/115/108 106/118/106
f 228/119/223 229/116/224 107/7/107 105/5/105
f 4/120/4 6/117/6 106/118/106 104/121/104
f 227/122/222 228/119/223 105/5/105 103/2/103
f 2/123/2 4/120/4 104/121/104 102/124/102
f 226/125/221 227/122/222 103/2/103 101/1/101
f 98/51/98 198/54/196 200/53/100 100/52/100
f 224/55/220 197/47/195 199/49/100 225/56/100
f 96/57/96 196/58/194 198/54/196 98/51/98
f 223/59/219 195/45/193 197/47/195 224/55/220
f 94/60/94 194/61/192 196/58/194 96/57/96
f 222/62/218 193/43/191 195/45/193 223/59/219
f 92/63/92 192/64/190 194/61/192 94/60/94
f 221/65/217 191/41/189 193/43/191 222/62/218
f 90/66/90 190/67/188 192/64/190 92/63/92
f 220/68/216 189/39/187 191/41/189 221/65/217
f 88/69/88 188/70/186 190/67/188 90/66/90
f 219/71/215 187/37/185 189/39/187 220/68/216
f 86/72/86 186/73/184 188/70/186 88/69/88
f 218/74/214 185/35/183 187/37/185 219/71/215
f 84/75/84 184/76/182 186/73/184 86/72/86
f 217/77/213 183/33/181 185/35/183 218/74/214
f 82/78/82 182/79/180 184/76/182 84/75/84
f 216/80/212 181/31/179 183/33/181 217/77/213
f 80/81/80 180/82/178 182/79/180 82/78/82
f 215/83/211 179/29/177 181/31/179 216/80/212
f 78/84/78 178/85/176 180/82/178 80/81/80
f 214/86/210 177/27/175 179/29/177 215/83/211
f 76/87/76 176/88/174 178/85/176 78/84/78
f 213/89/209 175/25/173 177/27/175 214/86/210
f 74/90/74 174/91/172 176/88/174 76/87/76
f 212/92/208 173/23/171 175/25/173 213/89/209
f 72/93/72 172/94/170 174/91/172 74/90/74
f 211/95/207 171/21/169 173/23/171 212/92/208
f 70/96/70 170/97/168 172/94/170 72/93/72
f 210/98/206 169/19/167 171/21/169 211/95/207
f 68/99/68 168/100/166 170/97/168 70/96/70
f 209/101/205 167/17/165 169/19/167 210/98/206
f 66/102/66 166/103/164 168/100/166 68/99/68
f 208/104/204 165/15/163 167/17/165 209/101/205
f 64/105/64 164/106/162 166/103/164 66/102/66
f 207/107/203 163/13/161 165/15/163 208/104/204
f 62/108/62 162/109/160 164/106/162 64/105/64
f 206/110/202 161/11/159 163/13/161 207/107/203
f 60/111/60 160/112/158 162/109/160 62/108/62
f 205/113/201 159/9/157 161/11/159 206/110/202
f 58/114/58 158/115/156 160/112/158 60/111/60
f 204/116/200 157/7/155 159/9/157 205/113/201
f 56/117/56 156/118/154 158/115/156 58/114/58
f 203/119/199 155/5/153 157/7/155 204/116/200
f 54/120/54 154/121/152 156/118/154 56/117/56
f 202/122/198 153/2/151 155/5/153 203/119/199
f 52/123/52 152/124/150 154/121/152 54/120/54
f 201/125/197 151/1/149 153/2/151 202/122/198
f 152/124/150 201/125/197 202/122/198 154/121/152
f 154/121/152 202/122/198 203/119/199 156/118/154
f 156/118/154 203/119/199 204/116/200 158/115/156
f 158/115/156 204/116/200 205/113/201 160/112/158
f 160/112/158 205/113/201 206/110/202 162/109/160
f 162/109/160 206/110/202 207/107/203 164/106/162
f 164/106/162 207/107/203 208/104/204 166/103/164
f 166/103/164 208/104/204 209/101/205 168/100/166
f 168/100/166 209/101/205 210/98/206 170/97/168
f 170/97/168 210/98/206 211/95/207 172/94/170
f 172/94/170 211/95/207 212/92/208 174/91/172
f 174/91/172 212/92/208 213/89/209 176/88/174
f 176/88/174 213/89/209 214/86/210 178/85/176
f 178/85/176 214/86/210 215/83/211 180/82/178
f 180/82/178 215/83/211 216/80/212 182/79/180
f 182/79/180 216/80/212 217/77/213 184/76/182
f 184/76/182 217/77/213 218/74/214 186/73/184
f 186/73/184 218/74/214 219/71/215 188/70/186
f 188/70/186 219/71/215 220/68/216 190/67/188
f 190/67/188 220/68/216 221/65/217 192/64/190
f 192/64/190 221/65/217 222/62/218 194/61/192
f 194/61/192 222/62/218 223/59/219 196/58/194
f 196/58/194 223/59/219 224/55/220 198/54/196
f 198/54/196 224/55/220 225/56/100 200/53/100
f 102/124/102 104/121/104 227/122/222 226/125/221
f 104/121/104 106/118/106 228/119/223 227/122/222
f 106/118/106 108/115/108 229/116/224 228/119/223
f 108/115/108 110/112/110 230/113/225 229/116/224
f 110/112/110 112/109/112 231/110/226 230/113/225
f 112/109/112 114/106/114 232/107/227 231/110/226
f 114/106/114 116/103/116 233/104/228 232/107/227
f 116/103/116 118/100/118 234/101/229 233/104/228
f 118/100/118 120/97/120 235/98/230 234/101/229
f 120/97/120 122/94/122 236/95/231 235/98/230
f 122/94/122 124/91/124 237/92/232 236/95/231
f 124/91/124 126/88/126 238/89/233 237/92/232
f 126/88/126 128/85/128 239/86/234 238/89/233
f 128/85/128 130/82/130 240/83/235 239/86/234
f 130/82/130 132/79/132 241/80/236 240/83/235
f 132/79/132 134/76/134 242/77/237 241/80/236
f 134/76/134 136/73/136 243/74/238 242/77/237
f 136/73/136 138/70/138 244/71/239 243/74/238
f 138/70/138 140/67/140 245/68/240 244/71/239
f 140/67/140 142/64/142 246/65/241 245/68/240
f 142/64/142 144/61/144 247/62/242 246/65/241
f 144/61/144 146/58/146 248/59/243 247/62/242
f 146/58/146 148/54/148 249/55/244 248/59/243
f 148/54/148 150/53/50 250/56/50 249/55/244
f 351/126/345 354/127/348 253/128/247 251/129/245
f 354/127/348 357/130/351 255/131/249 253/128/247
f 357/130/351 360/132/354 257/133/251 255/131/249
f 360/132/354 363/134/357 259/135/253 257/133/251
f 363/134/357 366/136/360 261/137/255 259/135/253
f 366/136/360 369/138/363 263/139/257 261/137/255
f 369/138/363 372/140/366 265/141/259 263/139/257
f 372/140/366 375/142/369 267/143/261 265/141/259
f 375/142/369 378/144/372 269/145/263 267/143/261
f 378/144/372 381/146/375 271/147/265 269/145/263
f 381/146/375 384/148/378 273/149/267 271/147/265
f 384/148/378 387/150/381 275/151/269 273/149/267
f 387/150/381 390/152/384 277/153/271 275/151/269
f 390/152/384 393/154/387 279/155/273 277/153/271
f 393/154/387 396/156/390 281/157/275 279/155/273
f 396/156/390 399/158/393 283/159/277 281/157/275
f 399/158/393 402/160/396 285/161/279 283/159/277
f 402/160/396 405/162/399 287/163/281 285/161/279
f 405/162/399 408/164/402 289/165/283 287/163/281
f 408/164/402 411/166/405 291/167/285 289/165/283
f 411/166/405 414/168/408 293/169/287 291/167/285
f 414/168/408 417/170/410 295/171/289 293/169/287
f 417/170/410 420/172/413 297/173/291 295/171/289
f 420/172/413 423/174/415 299/175/293 297/173/291
f 426/126/418 301/129/295 303/128/297 429/127/421
f 429/127/421 303/128/297 305/131/299 432/130/424
f 432/130/424 305/131/299 307/133/301 435/132/427
f 435/132/427 307/133/301 309/135/303 438/134/430
f 438/134/430 309/135/303 311/137/305 441/136/433
f 441/136/433 311/137/305 313/139/307 444/138/436
f 444/138/436 313/139/307 315/141/309 447/140/439
f 447/140/439 315/141/309 317/143/311 450/142/442
f 450/142/442 317/143/311 319/145/313 453/144/445
f 453/144/445 319/145/313 321/147/315 456/146/448
f 456/146/448 321/147/315 323/149/317 459/148/451
f 459/148/451 323/149/317 325/151/319 462/150/454
f 462/150/454 325/151/319 327/153/321 465/152/457
f 465/152/457 327/153/321 329/155/323 468/154/460
f 468/154/460 329/155/323 331/157/325 471/156/463
f 471/156/463 331/157/325 333/159/327 474/158/466
f 474/158/466 333/159/327 335/161/329 477/160/469
f 477/160/469 335/161/329 337/163/331 480/162/472
f 480/162/472 337/163/331 339/165/333 483/164/475
f 483/164/475 339/165/333 341/167/335 486/166/478
f 486/166/478 341/167/335 343/169/337 489/168/481
f 489/168/481 343/169/337 345/171/339 492/170/483
f 492/170/483 345/171/339 347/173/341 495/172/486
f 495/172/486 347/173/341 349/175/343 498/174/488
f 298/176/292 300/177/294 425/178/417 422/179/414
f 422/179/414 425/178/417 424/180/416 421/181/413
f 421/181/413 424/180/416 423/174/415 420/172/413
f 296/182/290 298/176/292 422/179/414 419/183/412
f 419/183/412 422/179/414 421/181/413 418/184/411
f 418/184/411 421/181/413 420/172/413 417/170/410
f 294/185/288 296/182/290 419/183/412 416/186/409
f 416/186/409 419/183/412 418/184/411 415/187/408
f 415/187/408 418/184/411 417/170/410 414/168/408
f 292/188/286 294/185/288 416/186/409 413/189/407
f 413/189/407 416/186/409 415/187/408 412/190/406
f 412/190/406 415/187/408 414/168/408 411/166/405
f 290/191/284 292/188/286 413/189/407 410/192/404
f 410/192/404 413/189/407 412/190/406 409/193/403
f 409/193/403 412/190/406 411/166/405 408/164/402
f 288/194/282 290/191/284 410/192/404 407/195/401
f 407/195/401 410/192/404 409/193/403 406/196/400
f 406/196/400 409/193/403 408/164/402 405/162/399
f 286/197/280 288/194/282 407/195/401 404/198/398
f 404/198/398 407/195/401 406/196/400 403/199/397
f 403/199/397 406/196/400 405/162/399 402/160/396
f 284/200/278 286/197/280 404/198/398 401/201/395
f 401/201/395 404/198/398 403/199/397 400/202/394
f 400/202/394 403/199/397 402/160/396 399/158/393
f 282/203/276 284/200/278 401/201/395 398/204/392
f 398/204/392 401/201/395 400/202/394 397/205/391
f 397/205/391 400/202/394 399/158/393 396/156/390
f 280/206/274 282/203/276 398/204/392 395/207/389
f 395/207/389 398/204/392 397/205/391 394/208/388
f 394/208/388 397/205/391 396/156/390 393/154/387
f 278/209/272 280/206/274 395/207/389 392/210/386
f 392/210/386 395/207/389 394/208/388 391/211/385
f 391/211/385 394/208/388 393/154/387 390/152/384
f 276/212/270 278/209/272 392/210/386 389/213/383
f 389/213/383 392/210/386 391/211/385 388/214/382
f 388/214/382 391/211/385 390/152/384 387/150/381
f 274/215/268 276/212/270 389/213/383 386/216/380
f 386/216/380 389/213/383 388/214/382 385/217/379
f 385/217/379 388/214/382 387/150/381 384/148/378
f 272/218/266 274/215/268 386/216/380 383/219/377
f 383/219/377 386/216/380 385/217/379 382/220/376
f 382/220/376 385/217/379 384/148/378 381/146/375
f 270/221/264 272/218/266 383/219/377 380/222/374
f 380/222/374 383/219/377 382/220/376 379/223/373
f 379/223/373 382/220/376 381/146/375 378/144/372
f 268/224/262 270/221/264 380/222/374 377/225/371
f 377/225/371 380/222/374 379/223/373 376/226/370
f 376/226/370 379/223/373 378/144/372 375/142/369
f 266/227/260 268/224/262 377/225/371 374/228/368
f 374/228/368 377/225/371 376/226/370 373/229/367
f 373/229/367 376/226/370 375/142/369 372/140/366
f 264/230/258 266/227/260 374/228/368 371/231/365
f 371/231/365 374/228/368 373/229/367 370/232/364
f 370/232/364 373/229/367 372/140/366 369/138/363
f 262/233/256 264/230/258 371/231/365 368/234/362
f 368/234/362 371/231/365 370/232/364 367/235/361
f 367/235/361 370/232/364 369/138/363 366/136/360
f 260/236/254 262/233/256 368/234/362 365/237/359
f 365/237/359 368/234/362 367/235/361 364/238/358
f 364/238/358 367/235/361 366/136/360 363/134/357
f 258/239/252 260/236/254 365/237/359 362/240/356
f 362/240/356 365/237/359 364/238/358 361/241/355
f 361/241/355 364/238/358 363/134/357 360/132/354
f 256/242/250 258/239/252 362/240/356 359/243/353
f 359/243/353 362/240/356 361/241/355 358/244/352
f 358/244/352 361/241/355 360/132/354 357/130/351
f 254/245/248 256/242/250 359/243/353 356/246/350
f 356/246/350 359/243/353 358/244/352 355/247/349
f 355/247/349 358/244/352 357/130/351 354/127/348
f 252/248/246 254/245/248 356/246/350 353/249/347
f 353/249/347 356/246/350 355/247/349 352/250/346
f 352/250/346 355/247/349 354/127/348 351/126/345
f 348/176/342 497/179/487 500/178/490 350/177/344
f 497/179/487 496/181/486 499/180/489 500/178/490
f 496/181/486 495/172/486 498/174/488 499/180/489
f 346/182/340 494/183/485 497/179/487 348/176/342
f 494/183/485 493/184/484 496/181/486 497/179/487
f 493/184/484 492/170/483 495/172/486 496/181/486
f 344/185/338 491/186/482 494/183/485 346/182/340
f 491/186/482 490/187/481 493/184/484 494/183/485
f 490/187/481 489/168/481 492/170/483 493/184/484
f 342/188/336 488/189/480 491/186/482 344/185/338
f 488/189/480 487/190/479 490/187/481 491/186/482
f 487/190/479 486/166/478 489/168/481 490/187/481
f 340/191/334 485/192/477 488/189/480 342/188/336
f 485/192/477 484/193/476 487/190/479 488/189/480
f 484/193/476 483/164/475 486/166/478 487/190/479
f 338/194/332 482/195/474 485/192/477 340/191/334
f 482/195/474 481/196/473 484/193/476 485/192/477
f 481/196/473 480/162/472 483/164/475 484/193/476
f 336/197/330 479/198/471 482/195/474 338/194/332
f 479/198/471 478/199/470 481/196/473 482/195/474
f 478/199/470 477/160/469 480/162/472 481/196/473
f 334/200/328 476/201/468 479/198/471 336/197/330
f 476/201/468 475/202/467 478/199/470 479/198/471
f 475/202/467 474/158/466 477/160/469 478/199/470
f 332/203/326 473/204/465 476/201/468 334/200/328
f 473/204/465 472/205/464 475/202/467 476/201/468
f 472/205/464 471/156/463 474/158/466 475/202/467
f 330/206/324 470/207/462 473/204/465 332/203/326
f 470/207/462 469/208/461 472/205/464 473/204/465
f 469/208/461 468/154/460 471/156/463 472/205/464
f 328/209/322 467/210/459 470/207/462 330/206/324
f 467/210/459 466/211/458 469/208/461 470/207/462
f 466/211/458 465/152/457 468/154/460 469/208/461
f 326/212/320 464/213/456 467/210/459 328/209/322
f 464/213/456 463/214/455 466/211/458 467/210/459
f 463/214/455 462/150/454 465/152/457 466/211/458
f 324/215/318 461/216/453 464/213/456 326/212/320
f 461/216/453 460/217/452 463/214/455 464/213/456
f 460/217/452 459/148/451 462/150/454 463/214/455
f 322/218/316 458/219/450 461/216/453 324/215/318
f 458/219/450 457/220/449 460/217/452 461/216/453
f 457/220/449 456/146/448 459/148/451 460/217/452
f 320/221/314 455/222/447 458/219/450 322/218/316
f 455/222/447 454/223/446 457/220/449 458/219/450
f 454/223/446 453/144/445 456/146/448 457/220/449
f 318/224/312 452/225/444 455/222/447 320/221/314
f 452/225/444 451/226/443 454/223/446 455/222/447
f 451/226/443 450/142/442 453/144/445 454/223/446
f 316/227/310 449/228/441 452/225/444 318/224/312
f 449/228/441 448/229/440 451/226/443 452/225/444
f 448/229/440 447/140/439 450/142/442 451/226/443
f 314/230/308 446/231/438 449/228/441 316/227/310
f 446/231/438 445/232/437 448/229/440 449/228/441
f 445/232/437 444/138/436 447/140/439 448/229/440
f 312/233/306 443/234/435 446/231/438 314/230/308
f 443/234/435 442/235/434 445/232/437 446/231/438
f 442/235/434 441/136/433 444/138/436 445/232/437
f 310/236/304 440/237/432 443/234/435 312/233/306
f 440/237/432 439/238/431 442/235/434 443/234/435
f 439/238/431 438/134/430 441/136/433 442/235/434
f 308/239/302 437/240/429 440/237/432 310/236/304
f 437/240/429 436/241/428 439/238/431 440/237/432
f 436/241/428 435/132/427 438/134/430 439/238/431
f 306/242/300 434/243/426 437/240/429 308/239/302
f 434/243/426 433/244/425 436/241/428 437/240/429
f 433/244/425 432/130/424 435/132/427 436/241/428
f 304/245/298 431/246/423 434/243/426 306/242/300
f 431/246/423 430/247/422 433/244/425 434/243/426
f 430/247/422 429/127/421 432/130/424 433/244/425
f 302/248/296 428/249/420 431/246/423 304/245/298
f 428/249/420 427/250/419 430/247/422 431/246/423
f 427/250/419 426/126/418 429/127/421 430/247/422
