# Blender 4.3.2
# www.blender.org
o axe
v -0.052585 1.107648 0.020934
v -0.029798 1.061549 0.045151
v -0.029798 1.381880 0.045151
v -0.053174 1.061549 0.020931
v -0.051720 1.381880 0.020931
v -0.029798 1.108232 0.045151
v -0.052586 1.348987 0.020931
v -0.029798 1.348987 0.045151
v -0.314079 1.502280 0.012806
v -0.286334 0.847125 0.012806
v -0.052585 1.284043 0.020931
v -0.052585 1.159192 0.020932
v -0.029798 1.277213 0.045151
v -0.029798 1.166011 0.045151
v -0.389519 1.395943 0.012806
v -0.389427 1.031174 0.012806
v -0.052585 1.218890 0.020932
v -0.029798 1.218890 0.045151
v -0.431535 1.215788 0.012806
v -0.187888 1.385190 0.018779
v -0.187765 1.048210 0.018867
v -0.230385 1.131970 0.018702
v -0.237104 1.312634 0.018610
v -0.252851 1.217560 0.018430
v -0.052585 1.107648 -0.020875
v -0.029798 1.061549 -0.045092
v -0.029798 1.381880 -0.045092
v -0.052457 1.061549 -0.020872
v -0.050837 1.381880 -0.020872
v -0.029798 1.108232 -0.045092
v -0.052586 1.348987 -0.020872
v -0.029798 1.348987 -0.045092
v -0.312878 1.502168 -0.014704
v -0.286338 0.847286 -0.014704
v -0.052585 1.284043 -0.020873
v -0.052585 1.159192 -0.020873
v -0.029798 1.277213 -0.045092
v -0.029798 1.166011 -0.045092
v -0.389197 1.395789 -0.014704
v -0.389289 1.031297 -0.014704
v -0.052585 1.218890 -0.020873
v -0.029798 1.218890 -0.045092
v -0.431374 1.215792 -0.014704
v -0.187977 1.385035 -0.020006
v -0.187862 1.048413 -0.020159
v -0.230518 1.132083 -0.019866
v -0.238304 1.312676 -0.019737
v -0.253259 1.217525 -0.019344
v -0.056118 1.107648 0.000029
v -0.056118 1.061549 0.000029
v -0.056118 1.381880 0.000029
v -0.056118 1.348987 0.000029
v -0.370633 1.568517 -0.000955
v -0.309856 0.779688 -0.000955
v -0.480317 1.414096 -0.000955
v -0.480317 0.986195 -0.000955
v -0.530087 1.221047 -0.000955
v -0.187385 1.384851 -0.000630
v -0.187623 1.048401 -0.000665
v -0.313212 1.501868 -0.000954
v -0.285848 0.847126 -0.000954
v -0.019859 -0.435323 0.018873
v -0.027820 1.147874 0.026835
v -0.023355 -0.435323 0.000000
v -0.041826 1.147874 -0.000000
v -0.019859 -0.435323 -0.018873
v -0.027820 1.147874 -0.026835
v -0.034180 -0.355763 0.033194
v -0.043608 -0.355763 0.000000
v -0.034180 -0.355763 -0.033194
v -0.038764 -0.410294 0.037779
v -0.039538 -0.376103 0.038552
v -0.050092 -0.410294 0.000000
v -0.051186 -0.376103 0.000000
v -0.038764 -0.410294 -0.037779
v -0.039538 -0.376103 -0.038552
v -0.027820 -0.332543 0.026835
v -0.034615 -0.332543 0.000000
v -0.027820 -0.332543 -0.026835
v -0.033872 -0.331898 0.032887
v -0.040232 -0.349441 0.039246
v -0.043174 -0.331898 0.000000
v -0.052167 -0.349441 0.000000
v -0.033872 -0.331898 -0.032887
v -0.040232 -0.349441 -0.039246
v 0.052585 1.107648 0.020934
v -0.000000 1.061549 0.056601
v -0.000000 1.381880 0.056601
v 0.029798 1.061549 0.045151
v 0.029798 1.381880 0.045151
v 0.053174 1.061549 0.020931
v 0.051720 1.381880 0.020931
v 0.029798 1.108232 0.045151
v -0.000000 1.108232 0.056601
v 0.052586 1.348987 0.020931
v 0.029798 1.348987 0.045151
v -0.000000 1.348987 0.056601
v 0.314079 1.502280 0.012806
v 0.286334 0.847125 0.012806
v 0.052585 1.284043 0.020931
v 0.052585 1.159192 0.020932
v 0.029798 1.277213 0.045151
v 0.029798 1.166011 0.045151
v -0.000000 1.274970 0.056601
v -0.000000 1.168254 0.056601
v 0.389519 1.395943 0.012806
v 0.389427 1.031174 0.012806
v 0.052585 1.218890 0.020932
v 0.029798 1.218890 0.045151
v -0.000000 1.218890 0.056601
v 0.431535 1.215788 0.012806
v 0.187888 1.385190 0.018779
v 0.187765 1.048210 0.018867
v 0.230385 1.131970 0.018702
v 0.237104 1.312634 0.018610
v 0.252851 1.217560 0.018430
v 0.052585 1.107648 -0.020875
v -0.000000 1.061549 -0.056542
v -0.000000 1.381880 -0.056542
v 0.029798 1.061549 -0.045092
v 0.029798 1.381880 -0.045092
v 0.052457 1.061549 -0.020872
v 0.050837 1.381880 -0.020872
v 0.029798 1.108232 -0.045092
v -0.000000 1.108232 -0.056542
v 0.052586 1.348987 -0.020872
v 0.029798 1.348987 -0.045092
v -0.000000 1.348987 -0.056542
v 0.312878 1.502168 -0.014704
v 0.286338 0.847286 -0.014704
v 0.052585 1.284043 -0.020873
v 0.052585 1.159192 -0.020873
v 0.029798 1.277213 -0.045092
v 0.029798 1.166011 -0.045092
v -0.000000 1.274970 -0.056542
v -0.000000 1.168254 -0.056542
v 0.389197 1.395789 -0.014704
v 0.389289 1.031297 -0.014704
v 0.052585 1.218890 -0.020873
v 0.029798 1.218890 -0.045092
v -0.000000 1.218890 -0.056542
v 0.431374 1.215792 -0.014704
v 0.187977 1.385035 -0.020006
v 0.187862 1.048413 -0.020159
v 0.230518 1.132083 -0.019866
v 0.238304 1.312676 -0.019737
v 0.253259 1.217525 -0.019344
v 0.056118 1.107648 0.000029
v 0.056118 1.061549 0.000029
v 0.056118 1.381880 0.000029
v 0.056118 1.348987 0.000029
v 0.370633 1.568517 -0.000955
v 0.309856 0.779688 -0.000955
v 0.480317 1.414096 -0.000955
v 0.480317 0.986195 -0.000955
v 0.530087 1.221047 -0.000955
v 0.187385 1.384851 -0.000630
v 0.187623 1.048401 -0.000665
v 0.313212 1.501868 -0.000954
v 0.285848 0.847126 -0.000954
v 0.000000 -0.435323 -0.026691
v 0.000000 1.147874 -0.037950
v 0.000000 -0.435323 0.026691
v 0.000000 1.147874 0.037950
v 0.019859 -0.435323 0.018873
v 0.027820 1.147874 0.026835
v 0.023355 -0.435323 0.000000
v 0.041826 1.147874 -0.000000
v 0.019859 -0.435323 -0.018873
v 0.027820 1.147874 -0.026835
v 0.000000 -0.355763 -0.046944
v 0.000000 -0.355763 0.046944
v 0.034180 -0.355763 0.033194
v 0.043608 -0.355763 0.000000
v 0.034180 -0.355763 -0.033194
v 0.000000 -0.410294 -0.053428
v 0.000000 -0.410294 0.053428
v 0.000000 -0.376103 0.054521
v 0.038764 -0.410294 0.037779
v 0.039538 -0.376103 0.038552
v 0.050092 -0.410294 0.000000
v 0.051186 -0.376103 0.000000
v 0.038764 -0.410294 -0.037779
v 0.039538 -0.376103 -0.038552
v 0.000000 -0.376103 -0.054521
v 0.000000 -0.332543 0.037950
v 0.027820 -0.332543 0.026835
v 0.034615 -0.332543 0.000000
v 0.027820 -0.332543 -0.026835
v 0.000000 -0.332543 -0.037950
v 0.000000 -0.331898 0.046509
v 0.000000 -0.349441 0.055502
v 0.033872 -0.331898 0.032887
v 0.040232 -0.349441 0.039246
v 0.043174 -0.331898 0.000000
v 0.052167 -0.349441 0.000000
v 0.033872 -0.331898 -0.032887
v 0.040232 -0.349441 -0.039246
v 0.000000 -0.349441 -0.055502
v 0.000000 -0.331898 -0.046509
v -0.020966 1.381880 0.031777
v -0.032210 1.381880 0.013046
v -0.020966 1.381880 -0.031718
v -0.032151 1.381880 -0.013190
v -0.034034 1.381880 0.000029
v -0.000000 1.381880 0.040332
v 0.020966 1.381880 0.031777
v 0.032210 1.381880 0.013046
v -0.000000 1.381880 -0.040274
v 0.020966 1.381880 -0.031719
v 0.032152 1.381880 -0.013190
v 0.034034 1.381880 0.000029
v -0.020966 1.411260 0.031777
v -0.032210 1.411260 0.013046
v -0.020966 1.411260 -0.031718
v -0.032151 1.411260 -0.013190
v -0.034034 1.411260 0.000029
v -0.000000 1.411260 0.040332
v 0.020966 1.411260 0.031777
v 0.032210 1.411260 0.013046
v -0.000000 1.411260 -0.040274
v 0.020966 1.411260 -0.031719
v 0.032152 1.411260 -0.013190
v 0.034034 1.411260 0.000029
v 0.000000 1.411260 -0.000005
v 0.000000 1.411260 -0.000005
v 0.000000 1.411260 -0.000005
v 0.000000 1.411260 -0.000005
v 0.000000 1.411260 -0.000005
v 0.000000 1.411260 -0.000005
v 0.000000 1.411260 -0.000005
v 0.000000 1.411260 -0.000005
v 0.000000 1.411260 -0.000005
v 0.000000 1.411260 -0.000005
v 0.000000 1.411260 -0.000005
v 0.000000 1.411260 -0.000005
v -0.017330 1.061549 0.026271
v -0.030924 1.061549 0.012185
v -0.017330 1.061549 -0.026212
v -0.030508 1.061549 -0.012126
v -0.032637 1.061549 0.000029
v -0.000000 1.061549 0.032930
v 0.017330 1.061549 0.026271
v 0.030924 1.061549 0.012185
v -0.000000 1.061549 -0.032871
v 0.017330 1.061549 -0.026212
v 0.030507 1.061549 -0.012126
v 0.032637 1.061549 0.000029
vn -0.0000 -0.0000 1.0000
vn -0.5614 0.0050 0.8275
vn -0.5595 0.0025 0.8289
vn -0.8922 0.0117 0.4515
vn -0.8452 0.0078 0.5344
vn -0.5548 0.0023 0.8320
vn -0.5562 0.0012 0.8311
vn -0.8472 0.0038 0.5313
vn -0.8976 0.0057 0.4408
vn -1.0000 0.0025 -0.0084
vn -0.9998 0.0199 -0.0101
vn -0.0231 0.0076 0.9997
vn -0.0205 0.0109 0.9997
vn -0.0286 0.0190 0.9994
vn -0.0307 0.0130 0.9994
vn -0.5575 -0.0000 0.8302
vn -0.7283 -0.0000 0.6852
vn -0.1348 0.0674 0.9886
vn -0.1311 0.0930 0.9870
vn -0.1361 0.0588 0.9890
vn 0.9215 -0.3883 -0.0030
vn 0.6926 -0.7214 -0.0035
vn 0.6927 -0.7211 -0.0130
vn 0.9200 -0.3913 0.0232
vn -0.1404 -0.0983 0.9852
vn -0.1390 -0.0624 0.9883
vn -0.1390 -0.0645 0.9882
vn -0.1386 0.0012 0.9903
vn -0.1386 0.0029 0.9903
vn -0.7283 -0.0000 0.6853
vn -0.0221 -0.0099 0.9997
vn -0.0223 -0.0061 0.9997
vn -0.0302 -0.0114 0.9995
vn -0.0288 -0.0150 0.9995
vn -0.0239 -0.0002 0.9997
vn -0.0325 -0.0003 0.9995
vn -0.0129 0.0016 0.9999
vn -0.0125 -0.0000 0.9999
vn -0.0127 -0.0013 0.9999
vn -0.0129 -0.0028 0.9999
vn 0.4066 -0.9128 -0.0384
vn 0.4064 -0.9137 -0.0029
vn 0.2608 0.9654 -0.0022
vn 0.4813 0.8766 0.0032
vn 0.4857 0.8741 -0.0083
vn 0.2612 0.9649 -0.0277
vn -0.0133 0.0035 0.9999
vn 0.9421 -0.3354 -0.0021
vn 0.7197 0.6940 0.0193
vn 0.7573 0.6524 0.0304
vn 0.7192 0.6945 0.0197
vn -0.0000 -0.0000 -1.0000
vn -0.5615 0.0051 -0.8275
vn -0.5655 0.0101 -0.8247
vn -0.8439 0.0157 -0.5362
vn -0.8887 0.0236 -0.4578
vn -0.5581 -0.0005 -0.8298
vn -0.8951 -0.0013 -0.4459
vn -0.8462 -0.0008 -0.5329
vn -0.5578 -0.0003 -0.8300
vn -0.0183 0.0054 -0.9998
vn -0.0268 0.0108 -0.9996
vn -0.0255 0.0165 -0.9995
vn -0.0153 0.0080 -0.9999
vn -0.5575 -0.0000 -0.8302
vn -0.7283 -0.0000 -0.6852
vn -0.1339 0.0672 -0.9887
vn -0.1353 0.0585 -0.9891
vn -0.1297 0.0925 -0.9872
vn 0.9197 -0.3915 -0.0292
vn 0.6928 -0.7211 0.0059
vn -0.1401 -0.0981 -0.9853
vn -0.1387 -0.0644 -0.9882
vn -0.1386 -0.0623 -0.9884
vn -0.1382 0.0012 -0.9904
vn -0.1382 0.0029 -0.9904
vn -0.7283 -0.0000 -0.6853
vn -0.0173 -0.0073 -0.9998
vn -0.0260 -0.0130 -0.9996
vn -0.0267 -0.0094 -0.9996
vn -0.0173 -0.0037 -0.9998
vn -0.0189 -0.0000 -0.9998
vn -0.0280 -0.0002 -0.9996
vn -0.0066 -0.0008 -1.0000
vn -0.0070 0.0004 -1.0000
vn -0.0063 0.0016 -1.0000
vn -0.0056 0.0004 -1.0000
vn 0.4057 -0.9134 0.0328
vn 0.2603 0.9652 0.0234
vn 0.4875 0.8730 0.0147
vn -0.0062 0.0003 -1.0000
vn 0.7187 0.6951 0.0181
vn -0.4157 -0.9095 -0.0000
vn -0.3455 -0.8912 0.2939
vn -0.6836 -0.3830 0.6213
vn -0.9264 -0.3765 -0.0000
vn -0.0000 -0.8984 -0.4392
vn -0.3455 -0.8912 -0.2939
vn -0.6836 -0.3830 -0.6213
vn -0.0000 -0.3806 -0.9247
vn -0.0000 0.3479 0.9375
vn -0.6951 0.3563 0.6244
vn -0.7288 0.1569 0.6665
vn -0.0000 0.1542 0.9880
vn -0.4377 -0.8108 0.3887
vn -0.0000 -0.8032 0.5957
vn -0.4283 -0.8108 0.3990
vn 0.0556 0.9973 0.0476
vn -0.0000 0.9971 0.0756
vn 0.0536 0.9973 0.0498
vn -0.6107 -0.7919 -0.0000
vn -0.0000 -0.3806 0.9247
vn -0.9886 0.1503 -0.0000
vn -0.7288 0.1569 -0.6665
vn -0.0000 0.1542 -0.9880
vn -0.6952 0.3563 -0.6244
vn -0.0000 0.3479 -0.9375
vn -0.9419 0.3359 -0.0000
vn -0.0000 -0.8984 0.4392
vn -1.0000 -0.0024 -0.0000
vn -0.7108 -0.0012 0.7034
vn -0.7108 -0.0012 -0.7034
vn 0.7108 -0.0012 0.7034
vn -0.6595 0.4646 -0.5909
vn -0.0000 0.4548 -0.8906
vn -0.6520 0.4646 -0.5992
vn -0.8977 0.4407 -0.0000
vn -0.6595 0.4646 0.5909
vn -0.6520 0.4646 0.5992
vn -0.0000 0.4548 0.8906
vn -0.0000 0.9971 -0.0755
vn 0.0556 0.9973 -0.0476
vn 0.0536 0.9973 -0.0498
vn -0.0000 -0.8032 -0.5956
vn -0.4377 -0.8108 -0.3887
vn -0.4283 -0.8108 -0.3990
vn 0.0792 0.9969 -0.0000
vn -0.0000 1.0000 -0.0000
vn -0.0000 -1.0000 -0.0000
vn 0.5595 0.0025 0.8289
vn 0.5614 0.0050 0.8275
vn 0.8452 0.0078 0.5344
vn 0.8922 0.0117 0.4515
vn 0.5548 0.0023 0.8320
vn 0.8976 0.0057 0.4408
vn 0.8472 0.0038 0.5313
vn 0.5562 0.0012 0.8311
vn 1.0000 0.0025 -0.0084
vn 0.9998 0.0199 -0.0101
vn 0.0231 0.0076 0.9997
vn 0.0307 0.0130 0.9994
vn 0.0286 0.0190 0.9994
vn 0.0205 0.0109 0.9997
vn 0.5575 -0.0000 0.8302
vn 0.7283 -0.0000 0.6852
vn 0.1348 0.0674 0.9886
vn 0.1361 0.0588 0.9890
vn 0.1311 0.0930 0.9870
vn -0.9215 -0.3883 -0.0030
vn -0.9200 -0.3913 0.0232
vn -0.6927 -0.7211 -0.0130
vn -0.6926 -0.7214 -0.0035
vn 0.1404 -0.0983 0.9852
vn 0.1390 -0.0645 0.9882
vn 0.1390 -0.0624 0.9883
vn 0.1386 0.0012 0.9903
vn 0.1386 0.0029 0.9903
vn 0.7283 -0.0000 0.6853
vn 0.0221 -0.0099 0.9997
vn 0.0288 -0.0150 0.9995
vn 0.0302 -0.0114 0.9995
vn 0.0223 -0.0061 0.9997
vn 0.0239 -0.0002 0.9997
vn 0.0325 -0.0003 0.9995
vn 0.0129 0.0016 0.9999
vn 0.0125 -0.0000 0.9999
vn 0.0127 -0.0013 0.9999
vn 0.0129 -0.0028 0.9999
vn -0.4066 -0.9128 -0.0384
vn -0.4064 -0.9137 -0.0029
vn -0.2608 0.9654 -0.0022
vn -0.2612 0.9649 -0.0277
vn -0.4857 0.8741 -0.0083
vn -0.4813 0.8766 0.0032
vn 0.0133 0.0035 0.9999
vn -0.9421 -0.3354 -0.0021
vn -0.7197 0.6940 0.0193
vn -0.7192 0.6945 0.0197
vn -0.7573 0.6524 0.0304
vn 0.5655 0.0101 -0.8247
vn 0.5615 0.0051 -0.8275
vn 0.8887 0.0236 -0.4578
vn 0.8439 0.0157 -0.5362
vn 0.5581 -0.0005 -0.8298
vn 0.5578 -0.0003 -0.8300
vn 0.8462 -0.0008 -0.5329
vn 0.8951 -0.0013 -0.4459
vn 0.0183 0.0054 -0.9998
vn 0.0153 0.0080 -0.9999
vn 0.0255 0.0165 -0.9995
vn 0.0268 0.0108 -0.9996
vn 0.5575 -0.0000 -0.8302
vn 0.7283 -0.0000 -0.6852
vn 0.1339 0.0672 -0.9887
vn 0.1297 0.0925 -0.9872
vn 0.1353 0.0585 -0.9891
vn -0.6928 -0.7211 0.0059
vn -0.9197 -0.3915 -0.0292
vn 0.1401 -0.0981 -0.9853
vn 0.1386 -0.0623 -0.9884
vn 0.1387 -0.0644 -0.9882
vn 0.1382 0.0012 -0.9904
vn 0.1382 0.0029 -0.9904
vn 0.7283 -0.0000 -0.6853
vn 0.0173 -0.0073 -0.9998
vn 0.0173 -0.0037 -0.9998
vn 0.0267 -0.0094 -0.9996
vn 0.0260 -0.0130 -0.9996
vn 0.0189 -0.0000 -0.9998
vn 0.0280 -0.0002 -0.9996
vn 0.0066 -0.0008 -1.0000
vn 0.0070 0.0004 -1.0000
vn 0.0063 0.0016 -1.0000
vn 0.0056 0.0004 -1.0000
vn -0.4057 -0.9134 0.0328
vn -0.4875 0.8730 0.0147
vn -0.2603 0.9652 0.0234
vn 0.0062 0.0003 -1.0000
vn -0.7187 0.6951 0.0181
vn 0.4157 -0.9095 -0.0000
vn 0.9264 -0.3765 -0.0000
vn 0.6836 -0.3830 0.6213
vn 0.3455 -0.8912 0.2939
vn 0.6836 -0.3830 -0.6213
vn 0.3455 -0.8912 -0.2939
vn 0.7288 0.1569 0.6665
vn 0.6951 0.3563 0.6244
vn 0.4377 -0.8108 0.3887
vn 0.4283 -0.8108 0.3990
vn -0.0556 0.9973 0.0476
vn -0.0536 0.9973 0.0498
vn 0.6107 -0.7919 -0.0000
vn 0.9886 0.1503 -0.0000
vn 0.7288 0.1569 -0.6665
vn 0.6952 0.3563 -0.6244
vn 0.9419 0.3359 -0.0000
vn 1.0000 -0.0024 -0.0000
vn 0.7108 -0.0012 -0.7034
vn 0.6595 0.4646 -0.5909
vn 0.6520 0.4646 -0.5992
vn 0.8977 0.4407 -0.0000
vn 0.6595 0.4646 0.5909
vn 0.6520 0.4646 0.5992
vn -0.0536 0.9973 -0.0498
vn -0.0556 0.9973 -0.0476
vn 0.4283 -0.8108 -0.3990
vn 0.4377 -0.8108 -0.3887
vn -0.0792 0.9969 -0.0000
vn 0.6509 -0.0000 0.7592
vn -0.6500 -0.0000 -0.7600
vn 0.9420 -0.0000 -0.3357
vn 0.6500 -0.0000 -0.7600
vn -0.6509 -0.0000 0.7591
vn 0.9428 -0.0000 0.3334
vn -0.9420 -0.0000 -0.3357
vn 1.0000 -0.0000 -0.0011
vn -1.0000 -0.0000 -0.0011
vn -0.9428 -0.0000 0.3334
vt 0.432472 0.482421
vt 0.432472 0.464191
vt 0.451476 0.461946
vt 0.455378 0.481061
vt 0.469265 0.456442
vt 0.480480 0.475356
vt 0.450475 0.668778
vt 0.456190 0.643169
vt 0.484237 0.647241
vt 0.464536 0.675416
vt 0.492271 0.662573
vt 0.474249 0.683701
vt 0.432472 0.667454
vt 0.432472 0.641075
vt 0.476629 0.450186
vt 0.487852 0.461018
vt 0.601642 0.504365
vt 0.572561 0.455962
vt 0.660293 0.396484
vt 0.697590 0.459886
vt 0.457356 0.528007
vt 0.481924 0.522586
vt 0.432472 0.529756
vt 0.695728 0.362266
vt 0.749442 0.451901
vt 0.665230 0.746482
vt 0.575786 0.687078
vt 0.581207 0.675896
vt 0.669495 0.740026
vt 0.701950 0.657616
vt 0.754940 0.675886
vt 0.704591 0.771861
vt 0.720204 0.563301
vt 0.776161 0.559019
vt 0.432472 0.601995
vt 0.457718 0.603712
vt 0.432472 0.567599
vt 0.457678 0.567553
vt 0.482774 0.608784
vt 0.482478 0.567384
vt 0.601692 0.619682
vt 0.612027 0.564477
vt 0.567498 0.444322
vt 0.655615 0.390274
vt 0.344839 0.296596
vt 0.367695 0.297928
vt 0.363871 0.316996
vt 0.344839 0.314799
vt 0.392827 0.303477
vt 0.381296 0.322230
vt 0.362595 0.113193
vt 0.376659 0.107255
vt 0.394272 0.133956
vt 0.367791 0.138042
vt 0.384082 0.100994
vt 0.400806 0.117925
vt 0.344838 0.114386
vt 0.344838 0.140045
vt 0.400104 0.317788
vt 0.388745 0.328603
vt 0.514451 0.273149
vt 0.610349 0.316361
vt 0.573235 0.380566
vt 0.485169 0.321915
vt 0.369537 0.251149
vt 0.393972 0.256412
vt 0.344839 0.249456
vt 0.662784 0.323755
vt 0.609847 0.414526
vt 0.572676 0.028787
vt 0.577053 0.035235
vt 0.489891 0.101941
vt 0.484101 0.090894
vt 0.611779 0.002240
vt 0.664631 0.098059
vt 0.611481 0.117577
vt 0.631594 0.212122
vt 0.688087 0.215500
vt 0.369501 0.176425
vt 0.344839 0.178177
vt 0.344839 0.211985
vt 0.369688 0.211986
vt 0.393913 0.171227
vt 0.394180 0.211997
vt 0.511779 0.157812
vt 0.523397 0.212753
vt 0.480133 0.333581
vt 0.569046 0.387132
vt 0.998377 0.795396
vt 0.991264 0.804684
vt 0.973440 0.797067
vt 0.982617 0.779587
vt 0.986612 0.865091
vt 0.991180 0.876610
vt 0.973340 0.884185
vt 0.969768 0.868693
vt 0.948133 0.809487
vt 0.949906 0.792221
vt 0.959853 0.793709
vt 0.956707 0.810309
vt 0.944287 0.809215
vt 0.944826 0.792216
vt 0.931262 0.889073
vt 0.931921 0.872503
vt 0.935447 0.872383
vt 0.935727 0.889066
vt 0.951068 0.772985
vt 0.945719 0.771336
vt 0.969832 0.812553
vt 0.963212 0.772703
vt 0.963059 0.908520
vt 0.959747 0.887512
vt 0.982476 0.901683
vt 0.956640 0.870907
vt 0.949798 0.888977
vt 0.948066 0.871708
vt 0.998270 0.885913
vt 0.950920 0.908212
vt 0.986669 0.816194
vt 0.001558 0.780793
vt 0.929114 0.775684
vt 0.931375 0.792084
vt 0.001679 0.796983
vt 0.001679 0.884173
vt 0.928974 0.905472
vt 0.001558 0.900360
vt 0.001743 0.869703
vt 0.001742 0.811092
vt 0.931987 0.808650
vt 0.930292 0.824870
vt 0.001777 0.825562
vt 0.944220 0.871971
vt 0.944718 0.888971
vt 0.933043 0.907271
vt 0.945568 0.909850
vt 0.935838 0.792100
vt 0.933187 0.773891
vt 0.935513 0.808781
vt 0.325806 0.316996
vt 0.395678 0.456442
vt 0.388314 0.450186
vt 0.008633 0.001644
vt 0.016825 0.003235
vt 0.019514 0.010241
vt 0.019514 0.017746
vt 0.012436 0.022167
vt 0.409566 0.481061
vt 0.413468 0.461946
vt 0.384464 0.475356
vt 0.414470 0.668778
vt 0.400408 0.675417
vt 0.380707 0.647241
vt 0.408754 0.643169
vt 0.390696 0.683701
vt 0.372673 0.662573
vt 0.377092 0.461018
vt 0.263302 0.504366
vt 0.167354 0.459886
vt 0.204651 0.396484
vt 0.292383 0.455963
vt 0.407588 0.528007
vt 0.383020 0.522587
vt 0.115502 0.451901
vt 0.169215 0.362267
vt 0.199714 0.746482
vt 0.195450 0.740026
vt 0.283737 0.675896
vt 0.289159 0.687079
vt 0.160354 0.771861
vt 0.110005 0.675886
vt 0.162995 0.657617
vt 0.144740 0.563301
vt 0.088784 0.559019
vt 0.407227 0.603712
vt 0.407266 0.567553
vt 0.382170 0.608784
vt 0.382466 0.567384
vt 0.263252 0.619682
vt 0.252917 0.564477
vt 0.297446 0.444323
vt 0.209329 0.390274
vt 0.321982 0.297928
vt 0.308381 0.322230
vt 0.296851 0.303477
vt 0.327082 0.113193
vt 0.321886 0.138042
vt 0.295405 0.133956
vt 0.313018 0.107255
vt 0.288871 0.117925
vt 0.305595 0.100994
vt 0.300932 0.328603
vt 0.289573 0.317788
vt 0.175226 0.273150
vt 0.204508 0.321915
vt 0.116442 0.380566
vt 0.079329 0.316361
vt 0.320140 0.251149
vt 0.295705 0.256412
vt 0.079830 0.414526
vt 0.026893 0.323755
vt 0.117001 0.028788
vt 0.205576 0.090894
vt 0.199785 0.101941
vt 0.112623 0.035236
vt 0.078196 0.117578
vt 0.025045 0.098060
vt 0.077897 0.002241
vt 0.058083 0.212123
vt 0.001590 0.215501
vt 0.320176 0.176425
vt 0.319989 0.211986
vt 0.295764 0.171227
vt 0.295497 0.211997
vt 0.177897 0.157812
vt 0.166280 0.212754
vt 0.209544 0.333581
vt 0.120631 0.387132
vt 0.985739 0.840642
vt 0.967756 0.840622
vt 0.967540 0.826812
vt 0.986338 0.828912
vt 0.967509 0.854430
vt 0.986311 0.852373
vt 0.955888 0.825972
vt 0.947424 0.825554
vt 0.942956 0.825144
vt 0.930271 0.856294
vt 0.934569 0.856358
vt 0.946680 0.840599
vt 0.942785 0.840595
vt 0.954937 0.840608
vt 0.955857 0.855244
vt 0.947394 0.855644
vt 0.929912 0.840585
vt 0.001757 0.840579
vt 0.001777 0.855596
vt 0.942927 0.856045
vt 0.933657 0.840588
vt 0.934594 0.824814
vt 0.004244 0.020576
vt 0.001556 0.013569
vt 0.001556 0.006064
s 1
f 97/1/1 88/2/1 3/3/2 8/4/3
f 8/4/3 3/3/2 5/5/4 7/6/5
f 2/7/6 6/8/7 1/9/8 4/10/9
f 4/10/9 1/9/8 49/11/10 50/12/10
f 87/13/1 94/14/1 6/8/7 2/7/6
f 7/6/5 5/5/4 51/15/11 52/16/11
f 23/17/12 20/18/13 9/19/14 15/20/15
f 13/21/16 8/4/3 7/6/5 11/22/17
f 104/23/1 97/1/1 8/4/3 13/21/16
f 15/20/18 9/19/19 53/24/19 55/25/20
f 61/26/21 59/27/22 21/28/23 10/29/24
f 10/29/25 16/30/26 56/31/27 54/32/25
f 19/33/28 15/20/18 55/25/20 57/34/29
f 94/14/1 105/35/1 14/36/16 6/8/7
f 110/37/1 104/23/1 13/21/16 18/38/16
f 6/8/7 14/36/16 12/39/30 1/9/8
f 18/38/16 13/21/16 11/22/17 17/40/17
f 21/28/31 22/41/32 16/30/33 10/29/34
f 24/42/35 23/17/12 15/20/15 19/33/36
f 22/41/32 24/42/35 19/33/36 16/30/33
f 14/36/16 18/38/16 17/40/17 12/39/30
f 105/35/1 110/37/1 18/38/16 14/36/16
f 16/30/26 19/33/28 57/34/29 56/31/27
f 11/22/37 23/17/12 24/42/35 17/40/38
f 12/39/39 22/41/32 21/28/31 1/9/40
f 1/9/41 21/28/23 59/27/22 49/11/42
f 52/16/43 58/43/44 20/18/45 7/6/46
f 7/6/47 20/18/13 23/17/12 11/22/37
f 54/32/48 61/26/21 10/29/24
f 60/44/49 53/24/50 9/19/51
f 9/19/51 20/18/45 58/43/44 60/44/49
f 17/40/38 24/42/35 22/41/32 12/39/39
f 128/45/52 32/46/53 27/47/54 119/48/52
f 32/46/53 31/49/55 29/50/56 27/47/54
f 26/51/57 28/52/58 25/53/59 30/54/60
f 28/52/58 50/55/10 49/56/10 25/53/59
f 118/57/52 26/51/57 30/54/60 125/58/52
f 31/49/55 52/59/11 51/60/11 29/50/56
f 47/61/61 39/62/62 33/63/63 44/64/64
f 37/65/65 35/66/66 31/49/55 32/46/53
f 135/67/52 37/65/65 32/46/53 128/45/52
f 39/62/67 55/68/68 53/69/69 33/63/69
f 61/70/21 34/71/70 45/72/71 59/73/22
f 34/71/72 54/74/72 56/75/73 40/76/74
f 43/77/75 57/78/76 55/68/68 39/62/67
f 125/58/52 30/54/60 38/79/65 136/80/52
f 141/81/52 42/82/65 37/65/65 135/67/52
f 30/54/60 25/53/59 36/83/77 38/79/65
f 42/82/65 41/84/66 35/66/66 37/65/65
f 45/72/78 34/71/79 40/76/80 46/85/81
f 48/86/82 43/77/83 39/62/62 47/61/61
f 46/85/81 40/76/80 43/77/83 48/86/82
f 38/79/65 36/83/77 41/84/66 42/82/65
f 136/80/52 38/79/65 42/82/65 141/81/52
f 40/76/74 56/75/73 57/78/76 43/77/75
f 35/66/84 41/84/85 48/86/82 47/61/61
f 36/83/86 25/53/87 45/72/78 46/85/81
f 25/53/88 49/56/42 59/73/22 45/72/71
f 52/59/43 31/49/89 44/64/90 58/87/44
f 31/49/91 35/66/84 47/61/61 44/64/64
f 54/74/48 34/71/70 61/70/21
f 60/88/49 33/63/92 53/69/50
f 33/63/92 60/88/49 58/87/44 44/64/90
f 41/84/85 36/83/86 46/85/81 48/86/82
f 64/89/93 62/90/94 71/91/95 73/92/96
f 161/93/97 66/94/98 75/95/99 176/96/100
f 172/97/101 68/98/102 72/99/103 178/100/104
f 68/98/105 172/97/106 192/101/106 81/102/107
f 79/103/108 190/104/109 200/105/109 84/106/110
f 69/107/111 68/98/105 81/102/107 83/108/111
f 178/100/104 72/99/103 71/91/95 177/109/112
f 72/99/103 74/110/113 73/92/96 71/91/95
f 74/111/113 76/112/114 75/95/99 73/113/96
f 76/112/114 185/114/115 176/96/100 75/95/99
f 70/115/116 171/116/117 185/114/115 76/112/114
f 66/94/98 64/117/93 73/113/96 75/95/99
f 69/118/118 70/115/116 76/112/114 74/111/113
f 68/98/102 69/107/118 74/110/113 72/99/103
f 62/90/94 163/119/119 177/109/112 71/91/95
f 65/120/120 78/121/120 77/122/121 63/123/121
f 67/124/122 79/103/122 78/125/120 65/126/120
f 162/127/52 190/104/52 79/103/122 67/124/122
f 164/128/1 186/129/1 187/130/123 166/131/123
f 84/106/124 200/105/125 199/132/125 85/133/126
f 82/134/127 84/106/124 85/133/126 83/135/127
f 80/136/128 82/137/127 83/108/127 81/102/129
f 191/138/130 80/136/128 81/102/129 192/101/130
f 186/129/131 77/122/132 80/136/133 191/138/131
f 171/116/134 70/115/135 85/133/136 199/132/134
f 77/122/132 78/121/137 82/137/137 80/136/133
f 70/115/135 69/118/111 83/135/111 85/133/136
f 78/125/137 79/103/108 84/106/110 82/134/137
f 121/139/138 119/48/138 209/48/138 210/139/138
f 92/140/138 150/141/138 212/141/138 208/140/138
f 87/13/139 2/7/139 237/7/139 242/13/139
f 163/142/119 62/143/94 64/144/93 66/145/98 161/146/97
f 97/1/1 96/147/140 90/148/141 88/2/1
f 96/147/140 95/149/142 92/140/143 90/148/141
f 89/150/144 91/151/145 86/152/146 93/153/147
f 91/151/145 149/154/148 148/155/148 86/152/146
f 87/13/1 89/150/144 93/153/147 94/14/1
f 95/149/142 151/156/149 150/141/149 92/140/143
f 115/157/150 106/158/151 98/159/152 112/160/153
f 102/161/154 100/162/155 95/149/142 96/147/140
f 104/23/1 102/161/154 96/147/140 97/1/1
f 106/158/156 154/163/157 152/164/158 98/159/158
f 160/165/159 99/166/160 113/167/161 158/168/162
f 99/166/163 153/169/163 155/170/164 107/171/165
f 111/172/166 156/173/167 154/163/157 106/158/156
f 94/14/1 93/153/147 103/174/154 105/35/1
f 110/37/1 109/175/154 102/161/154 104/23/1
f 93/153/147 86/152/146 101/176/168 103/174/154
f 109/175/154 108/177/155 100/162/155 102/161/154
f 113/167/169 99/166/170 107/171/171 114/178/172
f 116/179/173 111/172/174 106/158/151 115/157/150
f 114/178/172 107/171/171 111/172/174 116/179/173
f 103/174/154 101/176/168 108/177/155 109/175/154
f 105/35/1 103/174/154 109/175/154 110/37/1
f 107/171/165 155/170/164 156/173/167 111/172/166
f 100/162/175 108/177/176 116/179/173 115/157/150
f 101/176/177 86/152/178 113/167/169 114/178/172
f 86/152/179 148/155/180 158/168/162 113/167/161
f 151/156/181 95/149/182 112/160/183 157/180/184
f 95/149/185 100/162/175 115/157/150 112/160/153
f 153/169/186 99/166/160 160/165/159
f 159/181/187 98/159/188 152/164/189
f 98/159/188 159/181/187 157/180/184 112/160/183
f 108/177/176 101/176/177 114/178/172 116/179/173
f 128/45/52 119/48/52 121/139/190 127/182/191
f 127/182/191 121/139/190 123/183/192 126/184/193
f 120/185/194 124/186/195 117/187/196 122/188/197
f 122/188/197 117/187/196 148/189/148 149/190/148
f 118/57/52 125/58/52 124/186/195 120/185/194
f 126/184/193 123/183/192 150/191/149 151/192/149
f 146/193/198 143/194/199 129/195/200 137/196/201
f 133/197/202 127/182/191 126/184/193 131/198/203
f 135/67/52 128/45/52 127/182/191 133/197/202
f 137/196/204 129/195/205 152/199/205 154/200/206
f 160/201/159 158/202/162 144/203/207 130/204/208
f 130/204/209 138/205/210 155/206/211 153/207/209
f 142/208/212 137/196/204 154/200/206 156/209/213
f 125/58/52 136/80/52 134/210/202 124/186/195
f 141/81/52 135/67/52 133/197/202 140/211/202
f 124/186/195 134/210/202 132/212/214 117/187/196
f 140/211/202 133/197/202 131/198/203 139/213/203
f 144/203/215 145/214/216 138/205/217 130/204/218
f 147/215/219 146/193/198 137/196/201 142/208/220
f 145/214/216 147/215/219 142/208/220 138/205/217
f 134/210/202 140/211/202 139/213/203 132/212/214
f 136/80/52 141/81/52 140/211/202 134/210/202
f 138/205/210 142/208/212 156/209/213 155/206/211
f 131/198/221 146/193/198 147/215/219 139/213/222
f 132/212/223 145/214/216 144/203/215 117/187/224
f 117/187/225 144/203/207 158/202/162 148/189/180
f 151/192/181 157/216/184 143/194/226 126/184/227
f 126/184/228 143/194/199 146/193/198 131/198/221
f 153/207/186 160/201/159 130/204/208
f 159/217/187 152/199/189 129/195/229
f 129/195/229 143/194/226 157/216/184 159/217/187
f 139/213/222 147/215/219 145/214/216 132/212/223
f 167/218/230 181/219/231 179/220/232 165/221/233
f 161/93/97 176/96/100 183/222/234 169/223/235
f 172/97/101 178/100/104 180/224/236 173/225/237
f 173/225/238 194/226/239 192/101/106 172/97/106
f 189/227/240 197/228/241 200/105/109 190/104/109
f 174/229/242 196/230/242 194/226/239 173/225/238
f 178/100/104 177/109/112 179/220/232 180/224/236
f 180/224/236 179/220/232 181/219/231 182/231/243
f 182/231/243 181/219/231 183/222/234 184/232/244
f 184/232/244 183/222/234 176/96/100 185/114/115
f 175/233/245 184/232/244 185/114/115 171/116/117
f 169/223/235 183/222/234 181/219/231 167/218/230
f 174/229/246 182/231/243 184/232/244 175/233/245
f 173/225/237 180/224/236 182/231/243 174/229/246
f 165/221/233 179/220/232 177/109/112 163/119/119
f 166/131/123 187/130/123 188/234/247 168/235/247
f 168/235/247 188/234/247 189/227/248 170/236/248
f 170/236/248 189/227/248 190/104/52 162/127/52
f 197/228/249 198/237/250 199/132/125 200/105/125
f 195/238/251 196/230/251 198/237/250 197/228/249
f 193/239/252 194/226/253 196/230/251 195/238/251
f 191/138/130 192/101/130 194/226/253 193/239/252
f 186/129/131 191/138/131 193/239/254 187/130/255
f 171/116/134 199/132/134 198/237/256 175/233/257
f 187/130/255 193/239/254 195/238/258 188/234/258
f 175/233/257 198/237/256 196/230/242 174/229/242
f 188/234/258 195/238/258 197/228/241 189/227/240
f 123/183/138 121/139/138 210/139/138 211/183/138
f 3/3/138 88/2/138 206/2/138 201/3/138
f 118/57/139 120/185/139 246/185/139 245/57/139
f 163/142/119 161/146/97 169/240/235 167/241/230 165/242/233
f 63/123/121 77/122/121 186/129/1 164/128/1
f 119/48/138 27/47/138 203/47/138 209/48/138
f 150/191/138 123/183/138 211/183/138 212/191/138
f 27/47/138 29/50/138 204/50/138 203/47/138
f 90/148/138 92/140/138 208/140/138 207/148/138
f 88/2/138 90/148/138 207/148/138 206/2/138
f 51/15/138 5/5/138 202/5/138 205/15/138
f 29/50/138 51/60/138 205/60/138 204/50/138
f 5/5/138 3/3/138 201/3/138 202/5/138
f 206/2/1 207/148/259 219/148/259 218/2/1
f 209/48/52 203/47/260 215/47/260 221/48/52
f 211/183/261 210/139/262 222/139/262 223/183/261
f 201/3/263 206/2/1 218/2/1 213/3/263
f 207/148/259 208/140/264 220/140/264 219/148/259
f 203/47/260 204/50/265 216/50/265 215/47/260
f 212/191/266 211/183/261 223/183/261 224/191/266
f 208/140/264 212/141/266 224/141/266 220/140/264
f 204/50/265 205/60/267 217/60/267 216/50/265
f 205/15/267 202/5/268 214/5/268 217/15/267
f 210/139/262 209/48/52 221/48/52 222/139/262
f 202/5/268 201/3/263 213/3/263 214/5/268
f 218/2/138 219/148/138 231/148/138 230/2/138
f 221/48/138 215/47/138 227/47/138 233/48/138
f 223/183/138 222/139/138 234/139/138 235/183/138
f 214/5/138 213/3/138 225/3/138 226/5/138
f 219/148/138 220/140/138 232/140/138 231/148/138
f 215/47/138 216/50/138 228/50/138 227/47/138
f 224/191/138 223/183/138 235/183/138 236/191/138
f 213/3/138 218/2/138 230/2/138 225/3/138
f 220/140/138 224/141/138 236/141/138 232/140/138
f 216/50/138 217/60/138 229/60/138 228/50/138
f 217/15/138 214/5/138 226/5/138 229/15/138
f 222/139/138 221/48/138 233/48/138 234/139/138
f 4/10/139 50/12/139 241/12/139 238/10/139
f 122/188/139 149/190/139 248/190/139 247/188/139
f 26/51/139 118/57/139 245/57/139 239/51/139
f 2/7/139 4/10/139 238/10/139 237/7/139
f 91/151/139 89/150/139 243/150/139 244/151/139
f 28/52/139 26/51/139 239/51/139 240/52/139
f 89/150/139 87/13/139 242/13/139 243/150/139
f 120/185/139 122/188/139 247/188/139 246/185/139
f 50/55/139 28/52/139 240/52/139 241/55/139
f 149/154/139 91/151/139 244/151/139 248/154/139
