# Blender 4.5.1 LTS
# www.blender.org
o Cylinder
v -0.000000 2.000000 -0.763087
v 0.197502 2.000000 -0.737086
v 0.381544 2.000000 -0.660853
v 0.539584 2.000000 -0.539584
v 0.660853 2.000000 -0.381544
v 0.737086 2.000000 -0.197502
v 0.763087 2.000000 0.000000
v 0.737086 2.000000 0.197502
v 0.660853 2.000000 0.381544
v 0.539584 2.000000 0.539584
v 0.381544 2.000000 0.660853
v 0.197502 2.000000 0.737086
v -0.000000 2.000000 0.763087
v -0.197502 2.000000 0.737086
v -0.381544 2.000000 0.660853
v -0.539584 2.000000 0.539584
v -0.660853 2.000000 0.381544
v -0.737086 2.000000 0.197502
v -0.763087 2.000000 0.000000
v -0.737086 2.000000 -0.197502
v -0.660853 2.000000 -0.381544
v -0.539584 2.000000 -0.539584
v -0.381544 2.000000 -0.660853
v -0.197502 2.000000 -0.737086
v -0.000000 2.000000 -0.694266
v 0.179689 2.000000 -0.670610
v 0.347133 2.000000 -0.601252
v 0.490920 2.000000 -0.490920
v 0.601252 2.000000 -0.347133
v 0.670610 2.000000 -0.179689
v 0.694266 2.000000 0.000000
v 0.670610 2.000000 0.179689
v 0.601252 2.000000 0.347133
v 0.490920 2.000000 0.490920
v 0.347133 2.000000 0.601252
v 0.179689 2.000000 0.670610
v -0.000000 2.000000 0.694266
v -0.179689 2.000000 0.670610
v -0.347133 2.000000 0.601252
v -0.490920 2.000000 0.490920
v -0.601252 2.000000 0.347133
v -0.670610 2.000000 0.179689
v -0.694266 2.000000 0.000000
v -0.670610 2.000000 -0.179689
v -0.601252 2.000000 -0.347133
v -0.490920 2.000000 -0.490920
v -0.347133 2.000000 -0.601252
v -0.179689 2.000000 -0.670610
v -0.000000 1.910676 -0.694266
v 0.179689 1.910676 -0.670610
v 0.347133 1.910676 -0.601252
v 0.490920 1.910676 -0.490920
v 0.601252 1.910676 -0.347133
v 0.670610 1.910676 -0.179689
v 0.694266 1.910676 0.000000
v 0.670610 1.910676 0.179689
v 0.601252 1.910676 0.347133
v 0.490920 1.910676 0.490920
v 0.347133 1.910676 0.601252
v 0.179689 1.910676 0.670610
v -0.000000 1.910676 0.694266
v -0.179689 1.910676 0.670610
v -0.347133 1.910676 0.601252
v -0.490920 1.910676 0.490920
v -0.601252 1.910676 0.347133
v -0.670610 1.910676 0.179689
v -0.694266 1.910676 0.000000
v -0.670610 1.910676 -0.179689
v -0.601252 1.910676 -0.347133
v -0.490920 1.910676 -0.490920
v -0.347133 1.910676 -0.601252
v -0.179689 1.910676 -0.670610
v 0.000000 1.910675 -0.455323
v 0.117846 1.910675 -0.439809
v 0.227662 1.910675 -0.394322
v 0.321962 1.910675 -0.321962
v 0.394322 1.910675 -0.227662
v 0.439809 1.910675 -0.117846
v 0.455323 1.910675 0.000000
v 0.439809 1.910675 0.117846
v 0.394322 1.910675 0.227662
v 0.321962 1.910675 0.321962
v 0.227662 1.910675 0.394322
v 0.117846 1.910675 0.439809
v 0.000000 1.910675 0.455323
v -0.117846 1.910675 0.439809
v -0.227662 1.910675 0.394322
v -0.321962 1.910675 0.321962
v -0.394322 1.910675 0.227662
v -0.439809 1.910675 0.117846
v -0.455323 1.910675 0.000000
v -0.439809 1.910675 -0.117846
v -0.394322 1.910675 -0.227662
v -0.321962 1.910675 -0.321962
v -0.227662 1.910675 -0.394322
v -0.117846 1.910675 -0.439809
v -0.000000 1.910675 0.000000
v 0.000000 1.910675 0.000000
v 0.000000 1.910675 0.000000
v 0.000000 1.910675 0.000000
v 0.000000 1.910675 0.000000
v 0.000000 1.910675 0.000000
v 0.000000 1.910675 -0.000000
v 0.000000 1.910675 -0.000000
v 0.000000 1.910675 0.000000
v 0.000000 1.910675 0.000000
v 0.000000 1.910675 0.000000
v 0.000000 1.910675 0.000000
v -0.000000 1.910675 0.000000
v 0.000000 1.910675 0.000000
v 0.000000 1.910675 0.000000
v 0.000000 1.910675 0.000000
v 0.000000 1.910675 0.000000
v 0.000000 1.910675 -0.000000
v 0.000000 1.910675 -0.000000
v 0.000000 1.910675 0.000000
v 0.000000 1.910675 0.000000
v 0.000000 1.910675 0.000000
v 0.000000 1.910675 0.000000
v 0.000000 1.910675 0.000000
v -0.000000 1.000000 -0.763087
v 0.197502 1.000000 -0.737086
v 0.381544 1.000000 -0.660853
v 0.539584 1.000000 -0.539584
v 0.660853 1.000000 -0.381544
v 0.737086 1.000000 -0.197502
v 0.763087 1.000000 0.000000
v 0.737086 1.000000 0.197502
v 0.660853 1.000000 0.381544
v 0.539584 1.000000 0.539584
v 0.381544 1.000000 0.660853
v 0.197502 1.000000 0.737086
v -0.000000 1.000000 0.763087
v -0.197502 1.000000 0.737086
v -0.381544 1.000000 0.660853
v -0.539584 1.000000 0.539584
v -0.660853 1.000000 0.381544
v -0.737086 1.000000 0.197502
v -0.763087 1.000000 0.000000
v -0.737086 1.000000 -0.197502
v -0.660853 1.000000 -0.381544
v -0.539584 1.000000 -0.539584
v -0.381544 1.000000 -0.660853
v -0.197502 1.000000 -0.737086
v -0.381544 1.057425 -0.660853
v -0.539584 1.057425 -0.539584
v -0.660853 1.057425 -0.381544
v -0.737086 1.057425 -0.197502
v -0.763087 1.057425 0.000000
v -0.737086 1.057425 0.197502
v -0.660853 1.057425 0.381544
v -0.539584 1.057425 0.539584
v -0.381544 1.057425 0.660853
v -0.197502 1.057425 0.737086
v -0.000000 1.057425 0.763087
v 0.197502 1.057425 0.737086
v 0.381544 1.057425 0.660853
v 0.539584 1.057425 0.539584
v 0.660853 1.057425 0.381544
v 0.737086 1.057425 0.197502
v 0.763087 1.057425 0.000000
v 0.737086 1.057425 -0.197502
v 0.660853 1.057425 -0.381544
v 0.539584 1.057425 -0.539584
v 0.381544 1.057425 -0.660853
v -0.197502 1.057425 -0.737086
v 0.197502 1.057425 -0.737086
v -0.000000 1.057425 -0.763087
v -0.000000 1.549707 -0.763087
v -0.000000 1.450293 -0.763087
v 0.197502 1.450293 -0.737086
v 0.197502 1.549707 -0.737086
v 0.381544 1.450293 -0.660853
v 0.381544 1.549707 -0.660853
v 0.539584 1.450293 -0.539584
v 0.539584 1.549707 -0.539584
v 0.660853 1.450293 -0.381544
v 0.660853 1.549707 -0.381544
v 0.737086 1.450293 -0.197502
v 0.737086 1.549707 -0.197502
v 0.763087 1.450293 0.000000
v 0.763087 1.549707 0.000000
v 0.737086 1.450293 0.197502
v 0.737086 1.549707 0.197502
v 0.660853 1.450293 0.381544
v 0.660853 1.549707 0.381544
v 0.539584 1.450293 0.539584
v 0.539584 1.549707 0.539584
v 0.381544 1.450293 0.660853
v 0.381544 1.549707 0.660853
v 0.197502 1.450293 0.737086
v 0.197502 1.549707 0.737086
v -0.000000 1.450293 0.763087
v -0.000000 1.549707 0.763087
v -0.197502 1.450293 0.737086
v -0.197502 1.549707 0.737086
v -0.381544 1.450293 0.660853
v -0.381544 1.549707 0.660853
v -0.539584 1.450293 0.539584
v -0.539584 1.549707 0.539584
v -0.660853 1.450293 0.381544
v -0.660853 1.549707 0.381544
v -0.737086 1.450293 0.197502
v -0.737086 1.549707 0.197502
v -0.763087 1.450293 0.000000
v -0.763087 1.549707 0.000000
v -0.737086 1.450293 -0.197502
v -0.737086 1.549707 -0.197502
v -0.660853 1.450293 -0.381544
v -0.660853 1.549707 -0.381544
v -0.539584 1.450293 -0.539584
v -0.539584 1.549707 -0.539584
v -0.381544 1.450293 -0.660853
v -0.381544 1.549707 -0.660853
v -0.197502 1.450293 -0.737086
v -0.197502 1.549707 -0.737086
v -0.000000 1.549707 -0.798022
v -0.000000 1.450293 -0.798022
v 0.206543 1.450293 -0.770830
v 0.206543 1.549707 -0.770830
v 0.399011 1.450293 -0.691107
v 0.399011 1.549707 -0.691107
v 0.564287 1.450293 -0.564287
v 0.564287 1.549707 -0.564287
v 0.691107 1.450293 -0.399011
v 0.691107 1.549707 -0.399011
v 0.770830 1.450293 -0.206543
v 0.770830 1.549707 -0.206543
v 0.798022 1.450293 0.000000
v 0.798022 1.549707 0.000000
v 0.770830 1.450293 0.206543
v 0.770830 1.549707 0.206543
v 0.691107 1.450293 0.399011
v 0.691107 1.549707 0.399011
v 0.564287 1.450293 0.564287
v 0.564287 1.549707 0.564287
v 0.399011 1.450293 0.691107
v 0.399011 1.549707 0.691107
v 0.206543 1.450293 0.770830
v 0.206543 1.549707 0.770830
v -0.000000 1.450293 0.798022
v -0.000000 1.549707 0.798022
v -0.206543 1.450293 0.770830
v -0.206543 1.549707 0.770830
v -0.399011 1.450293 0.691107
v -0.399011 1.549707 0.691107
v -0.564287 1.450293 0.564287
v -0.564287 1.549707 0.564287
v -0.691107 1.450293 0.399011
v -0.691107 1.549707 0.399011
v -0.770830 1.450293 0.206543
v -0.770830 1.549707 0.206543
v -0.798022 1.450293 0.000000
v -0.798022 1.549707 0.000000
v -0.770830 1.450293 -0.206543
v -0.770830 1.549707 -0.206543
v -0.691107 1.450293 -0.399011
v -0.691107 1.549707 -0.399011
v -0.564287 1.450293 -0.564287
v -0.564287 1.549707 -0.564287
v -0.399011 1.450293 -0.691107
v -0.399011 1.549707 -0.691107
v -0.206543 1.450293 -0.770830
v -0.206543 1.549707 -0.770830
v -0.000000 0.000000 -0.763087
v 0.197502 0.000000 -0.737086
v 0.381544 0.000000 -0.660853
v 0.539584 0.000000 -0.539584
v 0.660853 0.000000 -0.381544
v 0.737086 0.000000 -0.197502
v 0.763087 0.000000 0.000000
v 0.737086 0.000000 0.197502
v 0.660853 0.000000 0.381544
v 0.539584 0.000000 0.539584
v 0.381544 0.000000 0.660853
v 0.197502 0.000000 0.737086
v -0.000000 0.000000 0.763087
v -0.197502 0.000000 0.737086
v -0.381544 0.000000 0.660853
v -0.539584 0.000000 0.539584
v -0.660853 0.000000 0.381544
v -0.737086 0.000000 0.197502
v -0.763087 0.000000 0.000000
v -0.737086 0.000000 -0.197502
v -0.660853 0.000000 -0.381544
v -0.539584 0.000000 -0.539584
v -0.381544 0.000000 -0.660853
v -0.197502 0.000000 -0.737086
v -0.000000 0.000000 -0.694266
v 0.179689 0.000000 -0.670610
v 0.347133 0.000000 -0.601252
v 0.490920 0.000000 -0.490920
v 0.601252 0.000000 -0.347133
v 0.670610 0.000000 -0.179689
v 0.694266 0.000000 0.000000
v 0.670610 0.000000 0.179689
v 0.601252 0.000000 0.347133
v 0.490920 0.000000 0.490920
v 0.347133 0.000000 0.601252
v 0.179689 0.000000 0.670610
v -0.000000 0.000000 0.694266
v -0.179689 0.000000 0.670610
v -0.347133 0.000000 0.601252
v -0.490920 0.000000 0.490920
v -0.601252 0.000000 0.347133
v -0.670610 0.000000 0.179689
v -0.694266 0.000000 0.000000
v -0.670610 0.000000 -0.179689
v -0.601252 0.000000 -0.347133
v -0.490920 0.000000 -0.490920
v -0.347133 0.000000 -0.601252
v -0.179689 0.000000 -0.670610
v -0.000000 0.089324 -0.694266
v 0.179689 0.089324 -0.670610
v 0.347133 0.089324 -0.601252
v 0.490920 0.089324 -0.490920
v 0.601252 0.089324 -0.347133
v 0.670610 0.089324 -0.179689
v 0.694266 0.089324 0.000000
v 0.670610 0.089324 0.179689
v 0.601252 0.089324 0.347133
v 0.490920 0.089324 0.490920
v 0.347133 0.089324 0.601252
v 0.179689 0.089324 0.670610
v -0.000000 0.089324 0.694266
v -0.179689 0.089324 0.670610
v -0.347133 0.089324 0.601252
v -0.490920 0.089324 0.490920
v -0.601252 0.089324 0.347133
v -0.670610 0.089324 0.179689
v -0.694266 0.089324 0.000000
v -0.670610 0.089324 -0.179689
v -0.601252 0.089324 -0.347133
v -0.490920 0.089324 -0.490920
v -0.347133 0.089324 -0.601252
v -0.179689 0.089324 -0.670610
v 0.000000 0.089325 -0.455323
v 0.117846 0.089325 -0.439809
v 0.227662 0.089325 -0.394322
v 0.321962 0.089325 -0.321962
v 0.394322 0.089325 -0.227662
v 0.439809 0.089325 -0.117846
v 0.455323 0.089325 0.000000
v 0.439809 0.089325 0.117846
v 0.394322 0.089325 0.227662
v 0.321962 0.089325 0.321962
v 0.227662 0.089325 0.394322
v 0.117846 0.089325 0.439809
v 0.000000 0.089325 0.455323
v -0.117846 0.089325 0.439809
v -0.227662 0.089325 0.394322
v -0.321962 0.089325 0.321962
v -0.394322 0.089325 0.227662
v -0.439809 0.089325 0.117846
v -0.455323 0.089325 0.000000
v -0.439809 0.089325 -0.117846
v -0.394322 0.089325 -0.227662
v -0.321962 0.089325 -0.321962
v -0.227662 0.089325 -0.394322
v -0.117846 0.089325 -0.439809
v -0.000000 0.089325 0.000000
v 0.000000 0.089325 0.000000
v 0.000000 0.089325 0.000000
v 0.000000 0.089325 0.000000
v 0.000000 0.089325 0.000000
v 0.000000 0.089325 0.000000
v 0.000000 0.089325 -0.000000
v 0.000000 0.089325 -0.000000
v 0.000000 0.089325 0.000000
v 0.000000 0.089325 0.000000
v 0.000000 0.089325 0.000000
v 0.000000 0.089325 0.000000
v -0.000000 0.089325 0.000000
v 0.000000 0.089325 0.000000
v 0.000000 0.089325 0.000000
v 0.000000 0.089325 0.000000
v 0.000000 0.089325 0.000000
v 0.000000 0.089325 -0.000000
v 0.000000 0.089325 -0.000000
v 0.000000 0.089325 0.000000
v 0.000000 0.089325 0.000000
v 0.000000 0.089325 0.000000
v 0.000000 0.089325 0.000000
v 0.000000 0.089325 0.000000
v -0.381544 0.942575 -0.660853
v -0.539584 0.942575 -0.539584
v -0.660853 0.942575 -0.381544
v -0.737086 0.942575 -0.197502
v -0.763087 0.942575 0.000000
v -0.737086 0.942575 0.197502
v -0.660853 0.942575 0.381544
v -0.539584 0.942575 0.539584
v -0.381544 0.942575 0.660853
v -0.197502 0.942575 0.737086
v -0.000000 0.942575 0.763087
v 0.197502 0.942575 0.737086
v 0.381544 0.942575 0.660853
v 0.539584 0.942575 0.539584
v 0.660853 0.942575 0.381544
v 0.737086 0.942575 0.197502
v 0.763087 0.942575 0.000000
v 0.737086 0.942575 -0.197502
v 0.660853 0.942575 -0.381544
v 0.539584 0.942575 -0.539584
v 0.381544 0.942575 -0.660853
v -0.197502 0.942575 -0.737086
v 0.197502 0.942575 -0.737086
v -0.000000 0.942575 -0.763087
v -0.000000 0.450293 -0.763087
v -0.000000 0.549707 -0.763087
v 0.197502 0.549707 -0.737086
v 0.197502 0.450293 -0.737086
v 0.381544 0.549707 -0.660853
v 0.381544 0.450293 -0.660853
v 0.539584 0.549707 -0.539584
v 0.539584 0.450293 -0.539584
v 0.660853 0.549707 -0.381544
v 0.660853 0.450293 -0.381544
v 0.737086 0.549707 -0.197502
v 0.737086 0.450293 -0.197502
v 0.763087 0.549707 0.000000
v 0.763087 0.450293 0.000000
v 0.737086 0.549707 0.197502
v 0.737086 0.450293 0.197502
v 0.660853 0.549707 0.381544
v 0.660853 0.450293 0.381544
v 0.539584 0.549707 0.539584
v 0.539584 0.450293 0.539584
v 0.381544 0.549707 0.660853
v 0.381544 0.450293 0.660853
v 0.197502 0.549707 0.737086
v 0.197502 0.450293 0.737086
v -0.000000 0.549707 0.763087
v -0.000000 0.450293 0.763087
v -0.197502 0.549707 0.737086
v -0.197502 0.450293 0.737086
v -0.381544 0.549707 0.660853
v -0.381544 0.450293 0.660853
v -0.539584 0.549707 0.539584
v -0.539584 0.450293 0.539584
v -0.660853 0.549707 0.381544
v -0.660853 0.450293 0.381544
v -0.737086 0.549707 0.197502
v -0.737086 0.450293 0.197502
v -0.763087 0.549707 0.000000
v -0.763087 0.450293 0.000000
v -0.737086 0.549707 -0.197502
v -0.737086 0.450293 -0.197502
v -0.660853 0.549707 -0.381544
v -0.660853 0.450293 -0.381544
v -0.539584 0.549707 -0.539584
v -0.539584 0.450293 -0.539584
v -0.381544 0.549707 -0.660853
v -0.381544 0.450293 -0.660853
v -0.197502 0.549707 -0.737086
v -0.197502 0.450293 -0.737086
v -0.000000 0.450293 -0.798022
v -0.000000 0.549707 -0.798022
v 0.206543 0.549707 -0.770830
v 0.206543 0.450293 -0.770830
v 0.399011 0.549707 -0.691107
v 0.399011 0.450293 -0.691107
v 0.564287 0.549707 -0.564287
v 0.564287 0.450293 -0.564287
v 0.691107 0.549707 -0.399011
v 0.691107 0.450293 -0.399011
v 0.770830 0.549707 -0.206543
v 0.770830 0.450293 -0.206543
v 0.798022 0.549707 0.000000
v 0.798022 0.450293 0.000000
v 0.770830 0.549707 0.206543
v 0.770830 0.450293 0.206543
v 0.691107 0.549707 0.399011
v 0.691107 0.450293 0.399011
v 0.564287 0.549707 0.564287
v 0.564287 0.450293 0.564287
v 0.399011 0.549707 0.691107
v 0.399011 0.450293 0.691107
v 0.206543 0.549707 0.770830
v 0.206543 0.450293 0.770830
v -0.000000 0.549707 0.798022
v -0.000000 0.450293 0.798022
v -0.206543 0.549707 0.770830
v -0.206543 0.450293 0.770830
v -0.399011 0.549707 0.691107
v -0.399011 0.450293 0.691107
v -0.564287 0.549707 0.564287
v -0.564287 0.450293 0.564287
v -0.691107 0.549707 0.399011
v -0.691107 0.450293 0.399011
v -0.770830 0.549707 0.206543
v -0.770830 0.450293 0.206543
v -0.798022 0.549707 0.000000
v -0.798022 0.450293 0.000000
v -0.770830 0.549707 -0.206543
v -0.770830 0.450293 -0.206543
v -0.691107 0.549707 -0.399011
v -0.691107 0.450293 -0.399011
v -0.564287 0.549707 -0.564287
v -0.564287 0.450293 -0.564287
v -0.399011 0.549707 -0.691107
v -0.399011 0.450293 -0.691107
v -0.206543 0.549707 -0.770830
v -0.206543 0.450293 -0.770830
vn 0.7071 -0.0000 -0.7071
vn 0.8660 -0.0000 -0.5000
vn 0.9659 -0.0000 -0.2588
vn 1.0000 -0.0000 -0.0000
vn 0.9659 -0.0000 0.2588
vn 0.8660 -0.0000 0.5000
vn 0.7071 -0.0000 0.7071
vn 0.5000 -0.0000 0.8660
vn 0.2588 -0.0000 0.9659
vn -0.0000 -0.0000 1.0000
vn -0.2588 -0.0000 0.9659
vn -0.5000 -0.0000 0.8660
vn -0.7071 -0.0000 0.7071
vn -0.8660 -0.0000 0.5000
vn -0.9659 -0.0000 0.2588
vn -1.0000 -0.0000 -0.0000
vn -0.9659 -0.0000 -0.2588
vn -0.8660 -0.0000 -0.5000
vn -0.7071 -0.0000 -0.7071
vn -0.5000 -0.0000 -0.8660
vn -0.2588 -0.0000 -0.9659
vn -0.0000 -0.0000 -1.0000
vn 0.5000 -0.0000 -0.8660
vn -0.0000 1.0000 -0.0000
vn 0.2588 -0.0000 -0.9659
vn -0.0000 -1.0000 -0.0000
vt 0.152275 0.330282
vt 0.152275 0.288997
vt 0.173726 0.288997
vt 0.173726 0.330282
vt 0.152275 0.247712
vt 0.173726 0.247712
vt 0.152275 0.206427
vt 0.173726 0.206427
vt 0.152275 0.165141
vt 0.173726 0.165141
vt 0.152275 0.123856
vt 0.173726 0.123856
vt 0.152275 0.082571
vt 0.173726 0.082571
vt 0.152275 0.041285
vt 0.173726 0.041285
vt 0.152275 0.000000
vt 0.173726 0.000000
vt 0.152275 0.990847
vt 0.152275 0.949562
vt 0.173726 0.949562
vt 0.173726 0.990847
vt 0.152275 0.908277
vt 0.173726 0.908277
vt 0.152275 0.866991
vt 0.173726 0.866991
vt 0.152275 0.825706
vt 0.152275 0.784421
vt 0.173726 0.784421
vt 0.173726 0.825706
vt 0.152275 0.743136
vt 0.152275 0.701850
vt 0.173726 0.701850
vt 0.173726 0.743136
vt 0.152275 0.660565
vt 0.152275 0.619280
vt 0.173726 0.619280
vt 0.173726 0.660565
vt 0.152275 0.577994
vt 0.152275 0.536709
vt 0.173726 0.536709
vt 0.173726 0.577994
vt 0.152275 0.495424
vt 0.152275 0.454138
vt 0.173726 0.454138
vt 0.173726 0.495424
vt 0.278429 0.495424
vt 0.266038 0.495424
vt 0.266038 0.454138
vt 0.278429 0.454138
vt 0.278429 0.371568
vt 0.266038 0.371568
vt 0.266038 0.330282
vt 0.278429 0.330282
vt 0.278429 0.288997
vt 0.266038 0.288997
vt 0.266038 0.247712
vt 0.278429 0.247712
vt 0.278429 0.206427
vt 0.266038 0.206427
vt 0.266038 0.165141
vt 0.278429 0.165141
vt 0.278429 0.123856
vt 0.266038 0.123856
vt 0.266038 0.082571
vt 0.278429 0.082571
vt 0.278429 0.041285
vt 0.266038 0.041285
vt 0.266038 0.000000
vt 0.278429 0.000000
vt 0.278429 0.949562
vt 0.266038 0.949562
vt 0.266038 0.908277
vt 0.278429 0.908277
vt 0.278429 0.866991
vt 0.266038 0.866991
vt 0.266038 0.825706
vt 0.278429 0.825706
vt 0.047572 0.288997
vt 0.047572 0.330282
vt 0.032722 0.330282
vt 0.032722 0.288997
vt 0.047572 0.082571
vt 0.047572 0.123856
vt 0.032722 0.123856
vt 0.032722 0.082571
vt 0.047572 0.866991
vt 0.047572 0.908277
vt 0.032722 0.908277
vt 0.032722 0.866991
vt 0.047572 0.660565
vt 0.047572 0.701850
vt 0.032722 0.701850
vt 0.032722 0.660565
vt 0.047572 0.454138
vt 0.047572 0.495424
vt 0.032722 0.495424
vt 0.032722 0.454138
vt 0.047572 0.371568
vt 0.047572 0.412853
vt 0.032722 0.412853
vt 0.032722 0.371568
vt 0.047572 0.165141
vt 0.047572 0.206427
vt 0.032722 0.206427
vt 0.032722 0.165141
vt 0.047572 0.949562
vt 0.047572 0.990847
vt 0.032722 0.990847
vt 0.032722 0.949562
vt 0.047572 0.743136
vt 0.047572 0.784421
vt 0.032722 0.784421
vt 0.032722 0.743136
vt 0.047572 0.536709
vt 0.047572 0.577994
vt 0.032722 0.577994
vt 0.032722 0.536709
vt 0.047572 0.247712
vt 0.032722 0.247712
vt 0.047572 0.041285
vt 0.032722 0.041285
vt 0.047572 0.825706
vt 0.032722 0.825706
vt 0.047572 0.619280
vt 0.032722 0.619280
vt 0.047572 0.000000
vt 0.032722 0.000000
vt 0.013447 0.247712
vt 0.013447 0.206427
vt 0.013447 0.619280
vt 0.013447 0.577994
vt 0.013447 0.908277
vt 0.013447 0.866991
vt 0.013447 0.165141
vt 0.013447 0.536709
vt 0.013447 0.825706
vt 0.013447 0.123856
vt 0.013447 0.495424
vt 0.013447 0.454138
vt 0.013447 0.412853
vt 0.013447 0.784421
vt 0.013447 0.082571
vt 0.013447 0.371568
vt 0.013447 0.743136
vt 0.013447 0.041285
vt 0.013447 0.330282
vt 0.013447 0.701850
vt 0.013447 0.000000
vt 0.013447 0.288997
vt 0.013447 0.660565
vt 0.013447 0.990847
vt 0.013447 0.949562
vt 0.750018 0.816564
vt 0.717028 0.797408
vt 0.747312 0.757896
vt 0.769147 0.770668
vt 0.689426 0.592514
vt 0.716055 0.564991
vt 0.746994 0.604004
vt 0.729401 0.622265
vt 0.952474 0.661934
vt 0.952474 0.700464
vt 0.903178 0.693652
vt 0.903020 0.668127
vt 0.786916 0.826494
vt 0.793646 0.777224
vt 0.670607 0.625747
vt 0.716852 0.644253
vt 0.942621 0.624602
vt 0.896518 0.643425
vt 0.825072 0.826582
vt 0.819063 0.776993
vt 0.660939 0.662620
vt 0.710505 0.668732
vt 0.923317 0.591087
vt 0.883732 0.621324
vt 0.862271 0.817180
vt 0.843829 0.771026
vt 0.660987 0.700688
vt 0.710262 0.694004
vt 0.896006 0.563671
vt 0.865779 0.603073
vt 0.895853 0.798273
vt 0.866049 0.758519
vt 0.670780 0.737575
vt 0.716711 0.718371
vt 0.862400 0.544351
vt 0.843606 0.590354
vt 0.923202 0.771020
vt 0.884100 0.740470
vt 0.689944 0.770574
vt 0.729332 0.740170
vt 0.824934 0.534605
vt 0.818861 0.583981
vt 0.749094 0.545256
vt 0.786291 0.534929
vt 0.793303 0.584227
vt 0.768753 0.590959
vt 0.942513 0.737678
vt 0.896714 0.718224
vt 0.811140 0.677250
vt 0.810675 0.675663
vt 0.809937 0.686475
vt 0.811324 0.686444
vt 0.802037 0.682826
vt 0.802058 0.682859
vt 0.809473 0.674890
vt 0.811356 0.686437
vt 0.802084 0.682870
vt 0.808120 0.674558
vt 0.806788 0.674352
vt 0.805495 0.675037
vt 0.811844 0.685571
vt 0.802894 0.684516
vt 0.804233 0.676015
vt 0.811776 0.682933
vt 0.804162 0.685675
vt 0.803309 0.677789
vt 0.812365 0.681599
vt 0.806318 0.686503
vt 0.802551 0.679327
vt 0.811959 0.678904
vt 0.808546 0.686347
vt 0.801947 0.681025
vt 0.266038 0.412853
vt 0.278429 0.412853
vt 0.278429 0.990847
vt 0.266038 0.990847
vt 0.266038 0.784421
vt 0.278429 0.784421
vt 0.266038 0.743136
vt 0.278429 0.743136
vt 0.266038 0.701850
vt 0.278429 0.701850
vt 0.266038 0.660565
vt 0.278429 0.660565
vt 0.266038 0.619280
vt 0.278429 0.619280
vt 0.266038 0.577994
vt 0.278429 0.577994
vt 0.266038 0.536709
vt 0.278429 0.536709
vt 0.152275 0.412853
vt 0.173726 0.412853
vt 0.152275 0.371568
vt 0.173726 0.371568
vt 0.181264 0.825706
vt 0.181264 0.866991
vt 0.181264 0.454138
vt 0.181264 0.495424
vt 0.144736 0.454138
vt 0.144736 0.412853
vt 0.144736 0.247712
vt 0.144736 0.206427
vt 0.144736 0.866991
vt 0.144736 0.825706
vt 0.181264 0.371568
vt 0.181264 0.412853
vt 0.181264 0.000000
vt 0.181264 0.041285
vt 0.181264 0.619280
vt 0.181264 0.660565
vt 0.144736 0.495424
vt 0.144736 0.371568
vt 0.144736 0.041285
vt 0.144736 0.000000
vt 0.144736 0.660565
vt 0.144736 0.619280
vt 0.181264 0.165141
vt 0.181264 0.206427
vt 0.181264 0.784421
vt 0.144736 0.165141
vt 0.144736 0.784421
vt 0.181264 0.330282
vt 0.181264 0.949562
vt 0.181264 0.990847
vt 0.181264 0.577994
vt 0.144736 0.330282
vt 0.144736 0.990847
vt 0.144736 0.949562
vt 0.144736 0.577994
vt 0.181264 0.123856
vt 0.181264 0.743136
vt 0.144736 0.288997
vt 0.181264 0.288997
vt 0.181264 0.247712
vt 0.144736 0.123856
vt 0.144736 0.082571
vt 0.181264 0.082571
vt 0.144736 0.908277
vt 0.181264 0.908277
vt 0.144736 0.743136
vt 0.144736 0.701850
vt 0.181264 0.701850
vt 0.144736 0.536709
vt 0.181264 0.536709
vt 0.404583 0.330282
vt 0.383132 0.330282
vt 0.383132 0.288997
vt 0.404583 0.288997
vt 0.383132 0.247712
vt 0.404583 0.247712
vt 0.383132 0.206427
vt 0.404583 0.206427
vt 0.383132 0.165141
vt 0.404583 0.165141
vt 0.383132 0.123856
vt 0.404583 0.123856
vt 0.383132 0.082571
vt 0.404583 0.082571
vt 0.383132 0.041285
vt 0.404583 0.041285
vt 0.383132 0.000000
vt 0.404583 0.000000
vt 0.404583 0.990847
vt 0.383132 0.990847
vt 0.383132 0.949562
vt 0.404583 0.949562
vt 0.383132 0.908277
vt 0.404583 0.908277
vt 0.383132 0.866991
vt 0.404583 0.866991
vt 0.404583 0.825706
vt 0.383132 0.825706
vt 0.383132 0.784421
vt 0.404583 0.784421
vt 0.404583 0.743136
vt 0.383132 0.743136
vt 0.383132 0.701850
vt 0.404583 0.701850
vt 0.404583 0.660565
vt 0.383132 0.660565
vt 0.383132 0.619280
vt 0.404583 0.619280
vt 0.404583 0.577994
vt 0.383132 0.577994
vt 0.383132 0.536709
vt 0.404583 0.536709
vt 0.404583 0.495424
vt 0.383132 0.495424
vt 0.383132 0.454138
vt 0.404583 0.454138
vt 0.290820 0.454138
vt 0.290820 0.495424
vt 0.290820 0.330282
vt 0.290820 0.371568
vt 0.290820 0.247712
vt 0.290820 0.288997
vt 0.290820 0.165141
vt 0.290820 0.206427
vt 0.290820 0.082571
vt 0.290820 0.123856
vt 0.290820 0.000000
vt 0.290820 0.041285
vt 0.290820 0.908277
vt 0.290820 0.949562
vt 0.290820 0.825706
vt 0.290820 0.866991
vt 0.509286 0.288997
vt 0.524136 0.288997
vt 0.524136 0.330282
vt 0.509286 0.330282
vt 0.509286 0.082571
vt 0.524136 0.082571
vt 0.524136 0.123856
vt 0.509286 0.123856
vt 0.509286 0.866991
vt 0.524136 0.866991
vt 0.524136 0.908277
vt 0.509286 0.908277
vt 0.509286 0.660565
vt 0.524136 0.660565
vt 0.524136 0.701850
vt 0.509286 0.701850
vt 0.509286 0.454138
vt 0.524136 0.454138
vt 0.524136 0.495424
vt 0.509286 0.495424
vt 0.509286 0.371568
vt 0.524136 0.371568
vt 0.524136 0.412853
vt 0.509286 0.412853
vt 0.509286 0.165141
vt 0.524136 0.165141
vt 0.524136 0.206427
vt 0.509286 0.206427
vt 0.509286 0.949562
vt 0.524136 0.949562
vt 0.524136 0.990847
vt 0.509286 0.990847
vt 0.509286 0.743136
vt 0.524136 0.743136
vt 0.524136 0.784421
vt 0.509286 0.784421
vt 0.509286 0.536709
vt 0.524136 0.536709
vt 0.524136 0.577994
vt 0.509286 0.577994
vt 0.509286 0.247712
vt 0.524136 0.247712
vt 0.509286 0.041285
vt 0.524136 0.041285
vt 0.509286 0.825706
vt 0.524136 0.825706
vt 0.509286 0.619280
vt 0.524136 0.619280
vt 0.509286 0.000000
vt 0.524136 0.000000
vt 0.543411 0.206427
vt 0.543411 0.247712
vt 0.543411 0.577994
vt 0.543411 0.619280
vt 0.543411 0.866991
vt 0.543411 0.908277
vt 0.543411 0.165141
vt 0.543411 0.536709
vt 0.543411 0.825706
vt 0.543411 0.123856
vt 0.543411 0.495424
vt 0.543411 0.412853
vt 0.543411 0.454138
vt 0.543411 0.784421
vt 0.543411 0.082571
vt 0.543411 0.371568
vt 0.543411 0.743136
vt 0.543411 0.041285
vt 0.543411 0.330282
vt 0.543411 0.701850
vt 0.543411 0.000000
vt 0.543411 0.288997
vt 0.543411 0.660565
vt 0.543411 0.949562
vt 0.543411 0.990847
vt 0.857481 0.160287
vt 0.850792 0.209384
vt 0.824209 0.209281
vt 0.818676 0.160287
vt 0.692189 0.324472
vt 0.741641 0.318593
vt 0.747799 0.343239
vt 0.701566 0.361668
vt 0.954245 0.395287
vt 0.914522 0.365283
vt 0.926837 0.343143
vt 0.973040 0.362097
vt 0.895114 0.170169
vt 0.876312 0.216087
vt 0.692444 0.286359
vt 0.741910 0.293243
vt 0.927380 0.422626
vt 0.896746 0.383383
vt 0.928524 0.189680
vt 0.898147 0.229063
vt 0.702137 0.249590
vt 0.748321 0.268832
vt 0.894162 0.442025
vt 0.874798 0.396133
vt 0.955319 0.217245
vt 0.915567 0.247154
vt 0.720809 0.216249
vt 0.760229 0.246731
vt 0.856969 0.452214
vt 0.850262 0.402926
vt 0.973846 0.250612
vt 0.927576 0.269277
vt 0.747604 0.188832
vt 0.777477 0.228604
vt 0.818332 0.452312
vt 0.824827 0.402887
vt 0.983205 0.287484
vt 0.933827 0.293689
vt 0.781019 0.169486
vt 0.798844 0.215845
vt 0.780977 0.442191
vt 0.800250 0.396466
vt 0.720467 0.395313
vt 0.760245 0.365459
vt 0.778257 0.383507
vt 0.747623 0.422799
vt 0.982967 0.325459
vt 0.933542 0.318929
vt 0.836631 0.311500
vt 0.839405 0.311705
vt 0.841153 0.303161
vt 0.840544 0.301694
vt 0.836498 0.301085
vt 0.836481 0.301115
vt 0.835251 0.311199
vt 0.841740 0.304683
vt 0.836604 0.298537
vt 0.835229 0.311235
vt 0.833266 0.310420
vt 0.834153 0.311001
vt 0.841727 0.304707
vt 0.838147 0.297663
vt 0.833270 0.308724
vt 0.840766 0.306228
vt 0.839238 0.297876
vt 0.833836 0.307021
vt 0.841204 0.309313
vt 0.839566 0.299490
vt 0.834188 0.305164
vt 0.840591 0.310623
vt 0.840320 0.300213
vt 0.836019 0.302727
vt 0.290820 0.412853
vt 0.290820 0.990847
vt 0.290820 0.784421
vt 0.290820 0.743136
vt 0.290820 0.701850
vt 0.290820 0.660565
vt 0.290820 0.619280
vt 0.290820 0.577994
vt 0.290820 0.536709
vt 0.383132 0.412853
vt 0.404583 0.412853
vt 0.383132 0.371568
vt 0.404583 0.371568
vt 0.375593 0.825706
vt 0.375593 0.866991
vt 0.375593 0.454138
vt 0.375593 0.495424
vt 0.412121 0.454138
vt 0.412121 0.412853
vt 0.412121 0.247712
vt 0.412121 0.206427
vt 0.412121 0.866991
vt 0.412121 0.825706
vt 0.375593 0.371568
vt 0.375593 0.412853
vt 0.375593 0.000000
vt 0.375593 0.041285
vt 0.375593 0.619280
vt 0.375593 0.660565
vt 0.412121 0.495424
vt 0.412121 0.371568
vt 0.412121 0.041285
vt 0.412121 0.000000
vt 0.412121 0.660565
vt 0.412121 0.619280
vt 0.375593 0.165141
vt 0.375593 0.206427
vt 0.375593 0.784421
vt 0.412121 0.165141
vt 0.412121 0.784421
vt 0.375593 0.330282
vt 0.375593 0.949562
vt 0.375593 0.990847
vt 0.375593 0.577994
vt 0.412121 0.330282
vt 0.412121 0.990847
vt 0.412121 0.949562
vt 0.412121 0.577994
vt 0.375593 0.123856
vt 0.375593 0.743136
vt 0.412121 0.288997
vt 0.375593 0.288997
vt 0.375593 0.247712
vt 0.412121 0.123856
vt 0.412121 0.082571
vt 0.375593 0.082571
vt 0.412121 0.908277
vt 0.375593 0.908277
vt 0.412121 0.743136
vt 0.412121 0.701850
vt 0.375593 0.701850
vt 0.412121 0.536709
vt 0.375593 0.536709
s 1
f 224/1/1 226/2/2 225/3/2 223/4/1
f 226/2/2 228/5/3 227/6/3 225/3/2
f 228/5/3 230/7/4 229/8/4 227/6/3
f 230/7/4 232/9/5 231/10/5 229/8/4
f 232/9/5 234/11/6 233/12/6 231/10/5
f 234/11/6 236/13/7 235/14/7 233/12/6
f 236/13/7 238/15/8 237/16/8 235/14/7
f 238/15/8 240/17/9 239/18/9 237/16/8
f 240/19/9 242/20/10 241/21/10 239/22/9
f 242/20/10 244/23/11 243/24/11 241/21/10
f 244/23/11 246/25/12 245/26/12 243/24/11
f 248/27/13 250/28/14 249/29/14 247/30/13
f 252/31/15 254/32/16 253/33/16 251/34/15
f 256/35/17 258/36/18 257/37/18 255/38/17
f 260/39/19 262/40/20 261/41/20 259/42/19
f 264/43/21 217/44/22 218/45/22 263/46/21
f 144/47/21 166/48/21 168/49/22 121/50/22
f 123/51/23 165/52/23 164/53/1 124/54/1
f 125/55/2 163/56/2 162/57/3 126/58/3
f 127/59/4 161/60/4 160/61/5 128/62/5
f 129/63/6 159/64/6 158/65/7 130/66/7
f 131/67/8 157/68/8 156/69/9 132/70/9
f 133/71/10 155/72/10 154/73/11 134/74/11
f 135/75/12 153/76/12 152/77/13 136/78/13
f 5/79/24 4/80/24 28/81/24 29/82/24
f 10/83/24 9/84/24 33/85/24 34/86/24
f 15/87/24 14/88/24 38/89/24 39/90/24
f 20/91/24 19/92/24 43/93/24 44/94/24
f 1/95/24 24/96/24 48/97/24 25/98/24
f 3/99/24 2/100/24 26/101/24 27/102/24
f 8/103/24 7/104/24 31/105/24 32/106/24
f 13/107/24 12/108/24 36/109/24 37/110/24
f 18/111/24 17/112/24 41/113/24 42/114/24
f 23/115/24 22/116/24 46/117/24 47/118/24
f 6/119/24 5/79/24 29/82/24 30/120/24
f 11/121/24 10/83/24 34/86/24 35/122/24
f 16/123/24 15/87/24 39/90/24 40/124/24
f 21/125/24 20/91/24 44/94/24 45/126/24
f 4/80/24 3/99/24 27/102/24 28/81/24
f 9/84/24 8/103/24 32/106/24 33/85/24
f 14/88/24 13/107/24 37/110/24 38/89/24
f 19/92/24 18/111/24 42/114/24 43/93/24
f 24/96/24 23/115/24 47/118/24 48/97/24
f 2/100/24 1/95/24 25/98/24 26/101/24
f 7/104/24 6/119/24 30/120/24 31/105/24
f 12/127/24 11/121/24 35/122/24 36/128/24
f 17/112/24 16/123/24 40/124/24 41/113/24
f 22/116/24 21/125/24 45/126/24 46/117/24
f 31/105/16 30/120/15 54/129/15 55/130/16
f 46/117/7 45/126/6 69/131/6 70/132/7
f 39/90/23 38/89/25 62/133/25 63/134/23
f 32/106/17 31/105/16 55/130/16 56/135/17
f 47/118/8 46/117/7 70/132/7 71/136/8
f 40/124/1 39/90/23 63/134/23 64/137/1
f 33/85/18 32/106/17 56/135/17 57/138/18
f 48/97/9 47/118/8 71/136/8 72/139/9
f 26/101/11 25/98/10 49/140/10 50/141/11
f 41/113/2 40/124/1 64/137/1 65/142/2
f 34/86/19 33/85/18 57/138/18 58/143/19
f 25/98/10 48/97/9 72/139/9 49/140/10
f 27/102/12 26/101/11 50/141/11 51/144/12
f 42/114/3 41/113/2 65/142/2 66/145/3
f 35/122/20 34/86/19 58/143/19 59/146/20
f 28/81/13 27/102/12 51/144/12 52/147/13
f 43/93/4 42/114/3 66/145/3 67/148/4
f 36/128/21 35/122/20 59/146/20 60/149/21
f 29/82/14 28/81/13 52/147/13 53/150/14
f 44/94/5 43/93/4 67/148/4 68/151/5
f 37/110/22 36/109/21 60/152/21 61/153/22
f 30/120/15 29/82/14 53/150/14 54/129/15
f 45/126/6 44/94/5 68/151/5 69/131/6
f 38/89/25 37/110/22 61/153/22 62/133/25
f 59/154/24 58/155/24 82/156/24 83/157/24
f 52/158/24 51/159/24 75/160/24 76/161/24
f 67/162/24 66/163/24 90/164/24 91/165/24
f 60/166/24 59/154/24 83/157/24 84/167/24
f 53/168/24 52/158/24 76/161/24 77/169/24
f 68/170/24 67/162/24 91/165/24 92/171/24
f 61/172/24 60/166/24 84/167/24 85/173/24
f 54/174/24 53/168/24 77/169/24 78/175/24
f 69/176/24 68/170/24 92/171/24 93/177/24
f 62/178/24 61/172/24 85/173/24 86/179/24
f 55/180/24 54/174/24 78/175/24 79/181/24
f 70/182/24 69/176/24 93/177/24 94/183/24
f 63/184/24 62/178/24 86/179/24 87/185/24
f 56/186/24 55/180/24 79/181/24 80/187/24
f 71/188/24 70/182/24 94/183/24 95/189/24
f 64/190/24 63/184/24 87/185/24 88/191/24
f 57/192/24 56/186/24 80/187/24 81/193/24
f 72/194/24 71/188/24 95/189/24 96/195/24
f 50/196/24 49/197/24 73/198/24 74/199/24
f 65/200/24 64/190/24 88/191/24 89/201/24
f 58/155/24 57/192/24 81/193/24 82/156/24
f 49/197/24 72/194/24 96/195/24 73/198/24
f 51/159/24 50/196/24 74/199/24 75/160/24
f 66/163/24 65/200/24 89/201/24 90/164/24
f 94/183/24 93/177/24 117/202/24 118/203/24
f 87/185/24 86/179/24 110/204/24 111/205/24
f 80/187/24 79/181/24 103/206/24 104/207/24
f 95/189/24 94/183/24 118/203/24 119/208/24
f 88/191/24 87/185/24 111/205/24 112/209/24
f 81/193/24 80/187/24 104/207/24 105/210/24
f 96/195/24 95/189/24 119/208/24 120/211/24
f 74/199/24 73/198/24 97/212/24 98/213/24
f 89/201/24 88/191/24 112/209/24 113/214/24
f 82/156/24 81/193/24 105/210/24 106/215/24
f 73/198/24 96/195/24 120/211/24 97/212/24
f 75/160/24 74/199/24 98/213/24 99/216/24
f 90/164/24 89/201/24 113/214/24 114/217/24
f 83/157/24 82/156/24 106/215/24 107/218/24
f 76/161/24 75/160/24 99/216/24 100/219/24
f 91/165/24 90/164/24 114/217/24 115/220/24
f 84/167/24 83/157/24 107/218/24 108/221/24
f 77/169/24 76/161/24 100/219/24 101/222/24
f 92/171/24 91/165/24 115/220/24 116/223/24
f 85/173/24 84/167/24 108/221/24 109/224/24
f 78/175/24 77/169/24 101/222/24 102/225/24
f 93/177/24 92/171/24 116/223/24 117/202/24
f 86/179/24 85/173/24 109/224/24 110/204/24
f 79/181/24 78/175/24 102/225/24 103/206/24
f 246/25/12 248/27/13 247/30/13 245/26/12
f 250/28/14 252/31/15 251/34/15 249/29/14
f 254/32/16 256/35/17 255/38/17 253/33/16
f 258/36/18 260/39/19 259/42/19 257/37/18
f 262/40/20 264/43/21 263/46/21 261/41/20
f 121/50/22 168/49/22 167/226/25 122/227/25
f 122/227/25 167/226/25 165/52/23 123/51/23
f 124/54/1 164/53/1 163/56/2 125/55/2
f 126/58/3 162/57/3 161/60/4 127/59/4
f 128/62/5 160/61/5 159/64/6 129/63/6
f 130/66/7 158/65/7 157/68/8 131/67/8
f 132/228/9 156/229/9 155/72/10 133/71/10
f 134/74/11 154/73/11 153/76/12 135/75/12
f 136/78/13 152/77/13 151/230/14 137/231/14
f 137/231/14 151/230/14 150/232/15 138/233/15
f 138/233/15 150/232/15 149/234/16 139/235/16
f 139/235/16 149/234/16 148/236/17 140/237/17
f 140/237/17 148/236/17 147/238/18 141/239/18
f 141/239/18 147/238/18 146/240/19 142/241/19
f 142/241/19 146/240/19 145/242/20 143/243/20
f 143/243/20 145/242/20 166/48/21 144/47/21
f 217/44/22 220/244/25 219/245/25 218/45/22
f 220/244/25 222/246/23 221/247/23 219/245/25
f 222/246/23 224/1/1 223/4/1 221/247/23
f 199/248/26 197/249/26 245/26/26 247/30/26
f 170/250/26 215/251/26 263/46/26 218/45/26
f 169/252/24 172/253/24 220/244/24 217/44/24
f 180/254/24 182/255/24 230/7/24 228/5/24
f 198/256/24 200/257/24 248/27/24 246/25/24
f 173/258/26 171/259/26 219/245/26 221/247/26
f 191/260/26 189/261/26 237/16/26 239/18/26
f 209/262/26 207/263/26 255/38/26 257/37/26
f 216/264/24 169/252/24 217/44/24 264/43/24
f 172/253/24 174/265/24 222/246/24 220/244/24
f 190/266/24 192/267/24 240/17/24 238/15/24
f 208/268/24 210/269/24 258/36/24 256/35/24
f 183/270/26 181/271/26 229/8/26 231/10/26
f 201/272/26 199/248/26 247/30/26 249/29/26
f 182/255/24 184/273/24 232/9/24 230/7/24
f 200/257/24 202/274/24 250/28/24 248/27/24
f 175/275/26 173/258/26 221/247/26 223/4/26
f 193/276/26 191/277/26 239/22/26 241/21/26
f 211/278/26 209/262/26 257/37/26 259/42/26
f 174/265/24 176/279/24 224/1/24 222/246/24
f 192/280/24 194/281/24 242/20/24 240/19/24
f 210/269/24 212/282/24 260/39/24 258/36/24
f 185/283/26 183/270/26 231/10/26 233/12/26
f 203/284/26 201/272/26 249/29/26 251/34/26
f 216/264/21 24/96/21 1/95/22 169/252/22
f 168/49/22 170/250/22 171/259/25 167/226/25
f 169/252/22 1/95/22 2/100/25 172/253/25
f 166/48/21 215/251/21 170/250/22 168/49/22
f 172/253/25 2/100/25 3/99/23 174/265/23
f 167/226/25 171/259/25 173/258/23 165/52/23
f 174/265/23 3/99/23 4/80/1 176/279/1
f 165/52/23 173/258/23 175/275/1 164/53/1
f 176/279/1 4/80/1 5/79/2 178/285/2
f 164/53/1 175/275/1 177/286/2 163/56/2
f 178/285/2 5/79/2 6/119/3 180/254/3
f 163/56/2 177/286/2 179/287/3 162/57/3
f 180/254/3 6/119/3 7/104/4 182/255/4
f 162/57/3 179/287/3 181/271/4 161/60/4
f 182/255/4 7/104/4 8/103/5 184/273/5
f 161/60/4 181/271/4 183/270/5 160/61/5
f 184/273/5 8/103/5 9/84/6 186/288/6
f 160/61/5 183/270/5 185/283/6 159/64/6
f 186/288/6 9/84/6 10/83/7 188/289/7
f 159/64/6 185/283/6 187/290/7 158/65/7
f 188/289/7 10/83/7 11/121/8 190/266/8
f 158/65/7 187/290/7 189/261/8 157/68/8
f 190/266/8 11/121/8 12/127/9 192/267/9
f 157/68/8 189/261/8 191/260/9 156/69/9
f 192/280/9 12/108/9 13/107/10 194/281/10
f 156/229/9 191/277/9 193/276/10 155/72/10
f 194/281/10 13/107/10 14/88/11 196/291/11
f 155/72/10 193/276/10 195/292/11 154/73/11
f 196/291/11 14/88/11 15/87/12 198/256/12
f 154/73/11 195/292/11 197/249/12 153/76/12
f 198/256/12 15/87/12 16/123/13 200/257/13
f 153/76/12 197/249/12 199/248/13 152/77/13
f 200/257/13 16/123/13 17/112/14 202/274/14
f 152/77/13 199/248/13 201/272/14 151/230/14
f 202/274/14 17/112/14 18/111/15 204/293/15
f 151/230/14 201/272/14 203/284/15 150/232/15
f 204/293/15 18/111/15 19/92/16 206/294/16
f 150/232/15 203/284/15 205/295/16 149/234/16
f 206/294/16 19/92/16 20/91/17 208/268/17
f 149/234/16 205/295/16 207/263/17 148/236/17
f 208/268/17 20/91/17 21/125/18 210/269/18
f 148/236/17 207/263/17 209/262/18 147/238/18
f 210/269/18 21/125/18 22/116/19 212/282/19
f 147/238/18 209/262/18 211/278/19 146/240/19
f 212/282/19 22/116/19 23/115/20 214/296/20
f 146/240/19 211/278/19 213/297/20 145/242/20
f 214/296/20 23/115/20 24/96/21 216/264/21
f 145/242/20 213/297/20 215/251/21 166/48/21
f 181/271/26 179/287/26 227/6/26 229/8/26
f 206/294/24 208/268/24 256/35/24 254/32/24
f 188/289/24 190/266/24 238/15/24 236/13/24
f 171/259/26 170/250/26 218/45/26 219/245/26
f 207/263/26 205/295/26 253/33/26 255/38/26
f 189/261/26 187/290/26 235/14/26 237/16/26
f 214/296/24 216/264/24 264/43/24 262/40/24
f 196/291/24 198/256/24 246/25/24 244/23/24
f 178/285/24 180/254/24 228/5/24 226/2/24
f 215/251/26 213/297/26 261/41/26 263/46/26
f 197/249/26 195/292/26 243/24/26 245/26/26
f 179/287/26 177/286/26 225/3/26 227/6/26
f 204/293/24 206/294/24 254/32/24 252/31/24
f 186/288/24 188/289/24 236/13/24 234/11/24
f 205/295/26 203/284/26 251/34/26 253/33/26
f 187/290/26 185/283/26 233/12/26 235/14/26
f 212/282/24 214/296/24 262/40/24 260/39/24
f 194/281/24 196/291/24 244/23/24 242/20/24
f 176/279/24 178/285/24 226/2/24 224/1/24
f 213/297/26 211/278/26 259/42/26 261/41/26
f 195/292/26 193/276/26 241/21/26 243/24/26
f 177/286/26 175/275/26 223/4/26 225/3/26
f 202/274/24 204/293/24 252/31/24 250/28/24
f 184/273/24 186/288/24 234/11/24 232/9/24
f 464/298/1 463/299/1 465/300/2 466/301/2
f 466/301/2 465/300/2 467/302/3 468/303/3
f 468/303/3 467/302/3 469/304/4 470/305/4
f 470/305/4 469/304/4 471/306/5 472/307/5
f 472/307/5 471/306/5 473/308/6 474/309/6
f 474/309/6 473/308/6 475/310/7 476/311/7
f 476/311/7 475/310/7 477/312/8 478/313/8
f 478/313/8 477/312/8 479/314/9 480/315/9
f 480/316/9 479/317/9 481/318/10 482/319/10
f 482/319/10 481/318/10 483/320/11 484/321/11
f 484/321/11 483/320/11 485/322/12 486/323/12
f 488/324/13 487/325/13 489/326/14 490/327/14
f 492/328/15 491/329/15 493/330/16 494/331/16
f 496/332/17 495/333/17 497/334/18 498/335/18
f 500/336/19 499/337/19 501/338/20 502/339/20
f 504/340/21 503/341/21 458/342/22 457/343/22
f 144/47/21 121/50/22 408/344/22 406/345/21
f 123/51/23 124/54/1 404/346/1 405/347/23
f 125/55/2 126/58/3 402/348/3 403/349/2
f 127/59/4 128/62/5 400/350/5 401/351/4
f 129/63/6 130/66/7 398/352/7 399/353/6
f 131/67/8 132/70/9 396/354/9 397/355/8
f 133/71/10 134/74/11 394/356/11 395/357/10
f 135/75/12 136/78/13 392/358/13 393/359/12
f 269/360/26 293/361/26 292/362/26 268/363/26
f 274/364/26 298/365/26 297/366/26 273/367/26
f 279/368/26 303/369/26 302/370/26 278/371/26
f 284/372/26 308/373/26 307/374/26 283/375/26
f 265/376/26 289/377/26 312/378/26 288/379/26
f 267/380/26 291/381/26 290/382/26 266/383/26
f 272/384/26 296/385/26 295/386/26 271/387/26
f 277/388/26 301/389/26 300/390/26 276/391/26
f 282/392/26 306/393/26 305/394/26 281/395/26
f 287/396/26 311/397/26 310/398/26 286/399/26
f 270/400/26 294/401/26 293/361/26 269/360/26
f 275/402/26 299/403/26 298/365/26 274/364/26
f 280/404/26 304/405/26 303/369/26 279/368/26
f 285/406/26 309/407/26 308/373/26 284/372/26
f 268/363/26 292/362/26 291/381/26 267/380/26
f 273/367/26 297/366/26 296/385/26 272/384/26
f 278/371/26 302/370/26 301/389/26 277/388/26
f 283/375/26 307/374/26 306/393/26 282/392/26
f 288/379/26 312/378/26 311/397/26 287/396/26
f 266/383/26 290/382/26 289/377/26 265/376/26
f 271/387/26 295/386/26 294/401/26 270/400/26
f 276/408/26 300/409/26 299/403/26 275/402/26
f 281/395/26 305/394/26 304/405/26 280/404/26
f 286/399/26 310/398/26 309/407/26 285/406/26
f 295/386/16 319/410/16 318/411/15 294/401/15
f 310/398/7 334/412/7 333/413/6 309/407/6
f 303/369/23 327/414/23 326/415/25 302/370/25
f 296/385/17 320/416/17 319/410/16 295/386/16
f 311/397/8 335/417/8 334/412/7 310/398/7
f 304/405/1 328/418/1 327/414/23 303/369/23
f 297/366/18 321/419/18 320/416/17 296/385/17
f 312/378/9 336/420/9 335/417/8 311/397/8
f 290/382/11 314/421/11 313/422/10 289/377/10
f 305/394/2 329/423/2 328/418/1 304/405/1
f 298/365/19 322/424/19 321/419/18 297/366/18
f 289/377/10 313/422/10 336/420/9 312/378/9
f 291/381/12 315/425/12 314/421/11 290/382/11
f 306/393/3 330/426/3 329/423/2 305/394/2
f 299/403/20 323/427/20 322/424/19 298/365/19
f 292/362/13 316/428/13 315/425/12 291/381/12
f 307/374/4 331/429/4 330/426/3 306/393/3
f 300/409/21 324/430/21 323/427/20 299/403/20
f 293/361/14 317/431/14 316/428/13 292/362/13
f 308/373/5 332/432/5 331/429/4 307/374/4
f 301/389/22 325/433/22 324/434/21 300/390/21
f 294/401/15 318/411/15 317/431/14 293/361/14
f 309/407/6 333/413/6 332/432/5 308/373/5
f 302/370/25 326/415/25 325/433/22 301/389/22
f 323/435/26 347/436/26 346/437/26 322/438/26
f 316/439/26 340/440/26 339/441/26 315/442/26
f 331/443/26 355/444/26 354/445/26 330/446/26
f 324/447/26 348/448/26 347/436/26 323/435/26
f 317/449/26 341/450/26 340/440/26 316/439/26
f 332/451/26 356/452/26 355/444/26 331/443/26
f 325/453/26 349/454/26 348/448/26 324/447/26
f 318/455/26 342/456/26 341/450/26 317/449/26
f 333/457/26 357/458/26 356/452/26 332/451/26
f 326/459/26 350/460/26 349/454/26 325/453/26
f 319/461/26 343/462/26 342/456/26 318/455/26
f 334/463/26 358/464/26 357/458/26 333/457/26
f 327/465/26 351/466/26 350/460/26 326/459/26
f 320/467/26 344/468/26 343/462/26 319/461/26
f 335/469/26 359/470/26 358/464/26 334/463/26
f 328/471/26 352/472/26 351/466/26 327/465/26
f 321/473/26 345/474/26 344/468/26 320/467/26
f 336/475/26 360/476/26 359/470/26 335/469/26
f 314/477/26 338/478/26 337/479/26 313/480/26
f 329/481/26 353/482/26 352/472/26 328/471/26
f 322/438/26 346/437/26 345/474/26 321/473/26
f 313/480/26 337/479/26 360/476/26 336/475/26
f 315/442/26 339/441/26 338/478/26 314/477/26
f 330/446/26 354/445/26 353/482/26 329/481/26
f 358/464/26 382/483/26 381/484/26 357/458/26
f 351/466/26 375/485/26 374/486/26 350/460/26
f 344/468/26 368/487/26 367/488/26 343/462/26
f 359/470/26 383/489/26 382/483/26 358/464/26
f 352/472/26 376/490/26 375/485/26 351/466/26
f 345/474/26 369/491/26 368/487/26 344/468/26
f 360/476/26 384/492/26 383/489/26 359/470/26
f 338/478/26 362/493/26 361/494/26 337/479/26
f 353/482/26 377/495/26 376/490/26 352/472/26
f 346/437/26 370/496/26 369/491/26 345/474/26
f 337/479/26 361/494/26 384/492/26 360/476/26
f 339/441/26 363/497/26 362/493/26 338/478/26
f 354/445/26 378/498/26 377/495/26 353/482/26
f 347/436/26 371/499/26 370/496/26 346/437/26
f 340/440/26 364/500/26 363/497/26 339/441/26
f 355/444/26 379/501/26 378/498/26 354/445/26
f 348/448/26 372/502/26 371/499/26 347/436/26
f 341/450/26 365/503/26 364/500/26 340/440/26
f 356/452/26 380/504/26 379/501/26 355/444/26
f 349/454/26 373/505/26 372/502/26 348/448/26
f 342/456/26 366/506/26 365/503/26 341/450/26
f 357/458/26 381/484/26 380/504/26 356/452/26
f 350/460/26 374/486/26 373/505/26 349/454/26
f 343/462/26 367/488/26 366/506/26 342/456/26
f 486/323/12 485/322/12 487/325/13 488/324/13
f 490/327/14 489/326/14 491/329/15 492/328/15
f 494/331/16 493/330/16 495/333/17 496/332/17
f 498/335/18 497/334/18 499/337/19 500/336/19
f 502/339/20 501/338/20 503/341/21 504/340/21
f 121/50/22 122/227/25 407/507/25 408/344/22
f 122/227/25 123/51/23 405/347/23 407/507/25
f 124/54/1 125/55/2 403/349/2 404/346/1
f 126/58/3 127/59/4 401/351/4 402/348/3
f 128/62/5 129/63/6 399/353/6 400/350/5
f 130/66/7 131/67/8 397/355/8 398/352/7
f 132/228/9 133/71/10 395/357/10 396/508/9
f 134/74/11 135/75/12 393/359/12 394/356/11
f 136/78/13 137/231/14 391/509/14 392/358/13
f 137/231/14 138/233/15 390/510/15 391/509/14
f 138/233/15 139/235/16 389/511/16 390/510/15
f 139/235/16 140/237/17 388/512/17 389/511/16
f 140/237/17 141/239/18 387/513/18 388/512/17
f 141/239/18 142/241/19 386/514/19 387/513/18
f 142/241/19 143/243/20 385/515/20 386/514/19
f 143/243/20 144/47/21 406/345/21 385/515/20
f 457/343/22 458/342/22 459/516/25 460/517/25
f 460/517/25 459/516/25 461/518/23 462/519/23
f 462/519/23 461/518/23 463/299/1 464/298/1
f 439/520/24 487/325/24 485/322/24 437/521/24
f 410/522/24 458/342/24 503/341/24 455/523/24
f 409/524/26 457/343/26 460/517/26 412/525/26
f 420/526/26 468/303/26 470/305/26 422/527/26
f 438/528/26 486/323/26 488/324/26 440/529/26
f 413/530/24 461/518/24 459/516/24 411/531/24
f 431/532/24 479/314/24 477/312/24 429/533/24
f 449/534/24 497/334/24 495/333/24 447/535/24
f 456/536/26 504/340/26 457/343/26 409/524/26
f 412/525/26 460/517/26 462/519/26 414/537/26
f 430/538/26 478/313/26 480/315/26 432/539/26
f 448/540/26 496/332/26 498/335/26 450/541/26
f 423/542/24 471/306/24 469/304/24 421/543/24
f 441/544/24 489/326/24 487/325/24 439/520/24
f 422/527/26 470/305/26 472/307/26 424/545/26
f 440/529/26 488/324/26 490/327/26 442/546/26
f 415/547/24 463/299/24 461/518/24 413/530/24
f 433/548/24 481/318/24 479/317/24 431/549/24
f 451/550/24 499/337/24 497/334/24 449/534/24
f 414/537/26 462/519/26 464/298/26 416/551/26
f 432/552/26 480/316/26 482/319/26 434/553/26
f 450/541/26 498/335/26 500/336/26 452/554/26
f 425/555/24 473/308/24 471/306/24 423/542/24
f 443/556/24 491/329/24 489/326/24 441/544/24
f 456/536/21 409/524/22 265/376/22 288/379/21
f 408/344/22 407/507/25 411/531/25 410/522/22
f 409/524/22 412/525/25 266/383/25 265/376/22
f 406/345/21 408/344/22 410/522/22 455/523/21
f 412/525/25 414/537/23 267/380/23 266/383/25
f 407/507/25 405/347/23 413/530/23 411/531/25
f 414/537/23 416/551/1 268/363/1 267/380/23
f 405/347/23 404/346/1 415/547/1 413/530/23
f 416/551/1 418/557/2 269/360/2 268/363/1
f 404/346/1 403/349/2 417/558/2 415/547/1
f 418/557/2 420/526/3 270/400/3 269/360/2
f 403/349/2 402/348/3 419/559/3 417/558/2
f 420/526/3 422/527/4 271/387/4 270/400/3
f 402/348/3 401/351/4 421/543/4 419/559/3
f 422/527/4 424/545/5 272/384/5 271/387/4
f 401/351/4 400/350/5 423/542/5 421/543/4
f 424/545/5 426/560/6 273/367/6 272/384/5
f 400/350/5 399/353/6 425/555/6 423/542/5
f 426/560/6 428/561/7 274/364/7 273/367/6
f 399/353/6 398/352/7 427/562/7 425/555/6
f 428/561/7 430/538/8 275/402/8 274/364/7
f 398/352/7 397/355/8 429/533/8 427/562/7
f 430/538/8 432/539/9 276/408/9 275/402/8
f 397/355/8 396/354/9 431/532/9 429/533/8
f 432/552/9 434/553/10 277/388/10 276/391/9
f 396/508/9 395/357/10 433/548/10 431/549/9
f 434/553/10 436/563/11 278/371/11 277/388/10
f 395/357/10 394/356/11 435/564/11 433/548/10
f 436/563/11 438/528/12 279/368/12 278/371/11
f 394/356/11 393/359/12 437/521/12 435/564/11
f 438/528/12 440/529/13 280/404/13 279/368/12
f 393/359/12 392/358/13 439/520/13 437/521/12
f 440/529/13 442/546/14 281/395/14 280/404/13
f 392/358/13 391/509/14 441/544/14 439/520/13
f 442/546/14 444/565/15 282/392/15 281/395/14
f 391/509/14 390/510/15 443/556/15 441/544/14
f 444/565/15 446/566/16 283/375/16 282/392/15
f 390/510/15 389/511/16 445/567/16 443/556/15
f 446/566/16 448/540/17 284/372/17 283/375/16
f 389/511/16 388/512/17 447/535/17 445/567/16
f 448/540/17 450/541/18 285/406/18 284/372/17
f 388/512/17 387/513/18 449/534/18 447/535/17
f 450/541/18 452/554/19 286/399/19 285/406/18
f 387/513/18 386/514/19 451/550/19 449/534/18
f 452/554/19 454/568/20 287/396/20 286/399/19
f 386/514/19 385/515/20 453/569/20 451/550/19
f 454/568/20 456/536/21 288/379/21 287/396/20
f 385/515/20 406/345/21 455/523/21 453/569/20
f 421/543/24 469/304/24 467/302/24 419/559/24
f 446/566/26 494/331/26 496/332/26 448/540/26
f 428/561/26 476/311/26 478/313/26 430/538/26
f 411/531/24 459/516/24 458/342/24 410/522/24
f 447/535/24 495/333/24 493/330/24 445/567/24
f 429/533/24 477/312/24 475/310/24 427/562/24
f 454/568/26 502/339/26 504/340/26 456/536/26
f 436/563/26 484/321/26 486/323/26 438/528/26
f 418/557/26 466/301/26 468/303/26 420/526/26
f 455/523/24 503/341/24 501/338/24 453/569/24
f 437/521/24 485/322/24 483/320/24 435/564/24
f 419/559/24 467/302/24 465/300/24 417/558/24
f 444/565/26 492/328/26 494/331/26 446/566/26
f 426/560/26 474/309/26 476/311/26 428/561/26
f 445/567/24 493/330/24 491/329/24 443/556/24
f 427/562/24 475/310/24 473/308/24 425/555/24
f 452/554/26 500/336/26 502/339/26 454/568/26
f 434/553/26 482/319/26 484/321/26 436/563/26
f 416/551/26 464/298/26 466/301/26 418/557/26
f 453/569/24 501/338/24 499/337/24 451/550/24
f 435/564/24 483/320/24 481/318/24 433/548/24
f 417/558/24 465/300/24 463/299/24 415/547/24
f 442/546/26 490/327/26 492/328/26 444/565/26
f 424/545/26 472/307/26 474/309/26 426/560/26
